<?xml version="1.0" standalone="no"?>
<!DOCTYPE svg PUBLIC "-//W3C//DTD SVG 20010904//EN"
 "http://www.w3.org/TR/2001/REC-SVG-20010904/DTD/svg10.dtd">
<svg version="1.0" xmlns="http://www.w3.org/2000/svg"
 width="2048.000000pt" height="2048.000000pt" viewBox="0 0 2048.000000 2048.000000"
 preserveAspectRatio="xMidYMid meet">

<g transform="translate(0.000000,2048.000000) scale(0.100000,-0.100000)"
fill="#000000" stroke="none">
<path d="M10260 16269 c0 -769 -10 -5562 -15 -7303 -4 -1347 -7 -1691 -17
-1698 -33 -22 -536 39 -848 103 -924 190 -1955 642 -2666 1170 -95 69 -136 84
-148 53 -4 -9 0 -26 7 -38 7 -12 21 -41 31 -66 10 -25 42 -81 71 -125 319
-481 1413 -1137 2493 -1494 390 -129 795 -217 1004 -216 l68 0 0 -1447 c0
-1374 1 -1447 18 -1441 62 23 620 379 872 556 782 549 1526 1222 2131 1927
1755 2045 2490 4467 1978 6512 -184 736 -508 1376 -993 1963 -129 156 -467
494 -626 625 -648 536 -1384 912 -2260 1155 -326 90 -787 179 -992 191 l-108
7 0 -434z m2445 -4179 c491 -45 935 -260 1254 -606 90 -98 117 -140 101 -159
-18 -22 -38 -18 -74 13 -87 76 -334 176 -561 227 -307 69 -559 89 -999 82
-419 -7 -750 -42 -1114 -119 -186 -39 -206 -40 -210 -11 -2 16 15 37 74 87
417 356 983 536 1529 486z m1199 -3486 c14 -14 14 -19 3 -42 -8 -15 -29 -58
-47 -97 -47 -102 -110 -186 -230 -305 -669 -669 -2288 -1418 -3244 -1500 -87
-8 -122 -7 -132 1 -11 9 -14 69 -14 308 l0 296 93 3 c201 6 589 62 877 127
887 201 1804 608 2510 1113 112 81 145 103 167 111 1 1 9 -6 17 -15z"/>
<path d="M7668 12089 c-379 -33 -771 -194 -1058 -434 -103 -87 -290 -283 -290
-306 0 -40 48 -54 72 -21 7 10 45 37 83 60 191 113 505 199 890 244 177 21
858 18 1065 -5 234 -26 482 -63 650 -99 184 -39 204 -40 208 -11 2 16 -15 37
-74 87 -421 359 -983 536 -1546 485z"/>
</g>
</svg>
