<?xml version="1.0" standalone="no"?>
<!DOCTYPE svg PUBLIC "-//W3C//DTD SVG 20010904//EN"
 "http://www.w3.org/TR/2001/REC-SVG-20010904/DTD/svg10.dtd">
<svg version="1.0" xmlns="http://www.w3.org/2000/svg"
 width="2048.000000pt" height="2048.000000pt" viewBox="0 0 2048.000000 2048.000000"
 preserveAspectRatio="xMidYMid meet">

<g transform="translate(0.000000,2048.000000) scale(0.100000,-0.100000)"
fill="#000000" stroke="none">
<path d="M10045 16694 c-97 -11 -415 -68 -582 -105 -881 -193 -1699 -555
-2348 -1038 -221 -165 -372 -296 -581 -505 -206 -206 -336 -355 -481 -553
-768 -1042 -1090 -2338 -932 -3748 290 -2582 2168 -5206 4924 -6875 96 -58
181 -103 195 -103 14 0 99 45 195 103 2756 1669 4634 4293 4924 6875 158 1410
-164 2706 -932 3748 -145 198 -275 347 -481 553 -417 417 -838 721 -1376 993
-591 300 -1202 498 -1915 621 -151 27 -211 32 -375 35 -107 2 -213 1 -235 -1z
m-1995 -4605 c430 -39 843 -211 1164 -485 59 -50 76 -71 74 -87 -4 -29 -24
-28 -210 11 -364 77 -695 112 -1114 119 -440 7 -692 -13 -999 -82 -227 -51
-474 -151 -561 -227 -36 -31 -56 -35 -74 -13 -16 19 11 61 101 159 402 437
1004 662 1619 605z m4655 1 c491 -45 935 -260 1254 -606 90 -98 117 -140 101
-159 -18 -22 -38 -18 -74 13 -87 76 -334 176 -561 227 -307 69 -559 89 -999
82 -419 -7 -750 -42 -1114 -119 -186 -39 -206 -40 -210 -11 -2 16 15 37 74 87
417 356 983 536 1529 486z m-5952 -3577 c798 -574 1874 -1021 2852 -1183 509
-84 761 -84 1270 0 978 162 2054 609 2852 1183 71 51 137 96 146 100 9 3 23
-1 32 -9 13 -13 13 -19 2 -42 -8 -15 -29 -58 -47 -97 -47 -102 -110 -186 -230
-305 -669 -669 -2288 -1418 -3244 -1500 -87 -8 -122 -7 -132 1 -11 9 -17 9
-28 0 -10 -8 -45 -9 -132 -1 -956 82 -2575 831 -3244 1500 -120 119 -183 203
-230 305 -18 39 -39 82 -47 97 -11 23 -11 29 2 42 9 8 23 12 32 9 9 -4 75 -49
146 -100z"/>
</g>
</svg>
