<?xml version="1.0" encoding="UTF-8"?><svg xmlns="http://www.w3.org/2000/svg" width="169" height="244" viewBox="0 0 169 244" shape-rendering="geometricPrecision"><path fill="#fefefe" fill-rule="evenodd" d="M160.0,243.5 L8.0,243.5 L7.0,242.5 L6.0,242.5 L0.5,237.0 L0.5,236.0 L-0.5,235.0 L-0.5,8.0 L0.5,7.0 L0.5,6.0 L1.5,5.0 L1.5,4.0 L4.0,1.5 L5.0,1.5 L6.0,0.5 L7.0,0.5 L8.0,-0.5 L160.0,-0.5 L161.0,0.5 L162.0,0.5 L167.5,6.0 L167.5,7.0 L168.5,8.0 L168.5,235.0 L167.5,236.0 L167.5,237.0 L166.5,238.0 L166.5,239.0 L164.0,241.5 L163.0,241.5 L162.0,242.5 L161.0,242.5 Z M36.5,33.0 L37.0,32.5 L38.0,32.5 L39.0,31.5 L40.5,30.0 L40.5,29.0 L41.5,28.0 L41.5,23.0 L40.5,22.0 L40.5,21.0 L37.0,17.5 L31.0,17.5 L30.0,18.5 L29.5,18.0 L29.5,16.0 L32.0,13.5 L34.0,13.5 L36.0,15.5 L40.0,15.5 L40.5,15.0 L40.5,13.0 L38.0,10.5 L37.0,10.5 L36.0,9.5 L30.0,9.5 L29.0,10.5 L28.0,10.5 L25.5,13.0 L25.5,14.0 L24.5,15.0 L24.5,17.0 L23.5,18.0 L23.5,26.0 L24.5,27.0 L24.5,29.0 L28.0,32.5 L29.0,32.5 L30.0,33.5 L36.0,33.5 Z M34.0,29.5 L32.0,29.5 L29.5,27.0 L29.5,23.0 L31.0,21.5 L34.0,21.5 L35.5,23.0 L35.5,28.0 Z M37.5,70.0 L37.5,68.0 L36.5,67.0 L36.5,65.0 L37.0,64.5 L43.0,64.5 L44.5,63.0 L44.5,62.0 L45.5,61.0 L45.5,57.0 L43.0,54.5 L42.0,54.5 L41.0,53.5 L40.0,53.5 L39.5,53.0 L39.5,52.0 L40.5,51.0 L40.5,50.0 L39.5,49.0 L39.5,47.0 L39.0,46.5 L38.0,45.5 L37.0,45.5 L36.0,44.5 L33.0,44.5 L32.0,45.5 L31.0,45.5 L29.5,47.0 L29.5,49.0 L28.5,50.0 L28.5,51.0 L29.5,52.0 L29.5,53.0 L29.0,53.5 L28.0,53.5 L27.0,54.5 L26.0,54.5 L24.5,56.0 L24.5,57.0 L23.5,58.0 L23.5,61.0 L24.5,62.0 L24.5,63.0 L25.0,63.5 L26.0,63.5 L27.0,64.5 L32.0,64.5 L32.5,65.0 L32.5,67.0 L31.5,68.0 L31.5,70.0 L32.0,70.5 L37.0,70.5 Z M60.5,88.0 L60.5,86.0 L59.5,85.0 L59.5,83.0 L58.5,82.0 L58.5,79.0 L59.0,78.5 L60.0,79.5 L61.0,79.5 L62.0,80.5 L66.0,80.5 L67.0,79.5 L68.0,79.5 L71.5,76.0 L71.5,69.0 L67.0,64.5 L63.0,64.5 L62.5,64.0 L63.5,63.0 L63.5,61.0 L64.5,60.0 L64.5,58.0 L63.5,57.0 L63.5,55.0 L61.0,52.5 L60.0,52.5 L59.0,51.5 L53.0,51.5 L48.5,56.0 L48.5,62.0 L49.5,63.0 L49.5,64.0 L49.0,64.5 L46.0,64.5 L45.0,65.5 L44.0,65.5 L41.5,68.0 L41.5,70.0 L40.5,71.0 L40.5,74.0 L41.5,75.0 L41.5,76.0 L42.5,77.0 L42.5,78.0 L43.0,78.5 L44.0,78.5 L45.0,79.5 L46.0,79.5 L47.0,80.5 L51.0,80.5 L52.0,79.5 L53.0,79.5 L54.0,78.5 L54.5,79.0 L54.5,80.0 L53.5,81.0 L53.5,83.0 L52.5,84.0 L52.5,88.0 L53.0,88.5 L60.0,88.5 Z M115.5,88.0 L116.5,87.0 L115.5,86.0 L115.5,84.0 L114.5,83.0 L114.5,81.0 L113.5,80.0 L113.5,78.0 L114.0,77.5 L116.0,79.5 L117.0,79.5 L118.0,80.5 L122.0,80.5 L123.0,79.5 L124.0,79.5 L126.5,77.0 L126.5,76.0 L127.5,75.0 L127.5,70.0 L126.5,69.0 L126.5,68.0 L124.0,65.5 L123.0,65.5 L122.0,64.5 L119.0,64.5 L118.5,64.0 L118.5,63.0 L119.5,62.0 L119.5,56.0 L119.0,55.5 L115.0,51.5 L109.0,51.5 L108.0,52.5 L107.0,52.5 L105.5,54.0 L105.5,55.0 L104.5,56.0 L104.5,58.0 L103.5,59.0 L103.5,60.0 L104.5,61.0 L104.5,63.0 L105.5,64.0 L105.0,64.5 L102.0,64.5 L101.0,65.5 L100.0,65.5 L97.5,68.0 L97.5,69.0 L96.5,70.0 L96.5,75.0 L97.5,76.0 L97.5,77.0 L99.5,79.0 L100.0,79.5 L101.0,79.5 L102.0,80.5 L106.0,80.5 L107.0,79.5 L108.0,79.5 L110.0,77.5 L110.5,78.0 L110.5,79.0 L109.5,80.0 L109.5,82.0 L108.5,83.0 L108.5,85.0 L107.5,86.0 L107.5,87.0 L109.0,88.5 L115.0,88.5 Z M59.5,133.0 L60.5,132.0 L60.5,131.0 L59.5,130.0 L59.5,128.0 L58.5,127.0 L58.5,124.0 L59.0,123.5 L60.0,124.5 L61.0,124.5 L62.0,125.5 L66.0,125.5 L67.0,124.5 L68.0,124.5 L71.5,121.0 L71.5,114.0 L67.0,109.5 L63.0,109.5 L62.5,109.0 L63.5,108.0 L63.5,106.0 L64.5,105.0 L64.5,103.0 L63.5,102.0 L63.5,100.0 L61.0,97.5 L60.0,97.5 L59.0,96.5 L53.0,96.5 L48.5,101.0 L48.5,107.0 L49.5,108.0 L49.5,109.0 L49.0,109.5 L46.0,109.5 L45.0,110.5 L44.0,110.5 L41.5,113.0 L41.5,114.0 L40.5,115.0 L40.5,119.0 L41.5,120.0 L41.5,121.0 L42.5,122.0 L42.5,123.0 L43.0,123.5 L44.0,123.5 L45.0,124.5 L46.0,124.5 L47.0,125.5 L50.0,125.5 L51.0,124.5 L52.0,124.5 L53.0,123.5 L54.0,123.5 L54.5,124.0 L54.5,125.0 L53.5,126.0 L53.5,128.0 L52.5,129.0 L52.5,131.0 L51.5,132.0 L53.0,133.5 L59.0,133.5 Z M115.5,133.0 L116.5,132.0 L115.5,131.0 L115.5,129.0 L114.5,128.0 L114.5,126.0 L113.5,125.0 L113.5,123.0 L114.0,122.5 L116.0,124.5 L117.0,124.5 L118.0,125.5 L121.0,125.5 L122.0,124.5 L124.0,124.5 L126.5,122.0 L126.5,121.0 L127.5,120.0 L127.5,115.0 L126.5,114.0 L126.5,113.0 L124.0,110.5 L123.0,110.5 L122.0,109.5 L119.0,109.5 L118.5,109.0 L118.5,108.0 L119.5,107.0 L119.5,101.0 L117.5,99.0 L117.5,98.0 L117.0,97.5 L116.0,97.5 L115.0,96.5 L109.0,96.5 L108.0,97.5 L107.0,97.5 L105.5,99.0 L105.5,100.0 L104.5,101.0 L104.5,103.0 L103.5,104.0 L103.5,105.0 L104.5,106.0 L104.5,108.0 L105.5,109.0 L105.0,109.5 L102.0,109.5 L101.0,110.5 L100.0,110.5 L97.5,113.0 L97.5,114.0 L96.5,115.0 L96.5,120.0 L97.5,121.0 L97.5,122.0 L100.0,124.5 L102.0,124.5 L103.0,125.5 L106.0,125.5 L107.0,124.5 L108.0,124.5 L110.0,122.5 L110.5,123.0 L110.5,124.0 L109.5,125.0 L109.5,127.0 L108.5,128.0 L108.5,130.0 L107.5,131.0 L107.5,132.0 L109.0,133.5 L115.0,133.5 Z M60.5,189.0 L60.5,187.0 L59.5,186.0 L59.5,184.0 L58.5,183.0 L58.5,181.0 L57.5,180.0 L57.5,179.0 L58.0,178.5 L60.0,180.5 L61.0,180.5 L62.0,181.5 L66.0,181.5 L67.0,180.5 L68.0,180.5 L71.5,177.0 L71.5,170.0 L68.0,166.5 L67.0,166.5 L66.0,165.5 L63.0,165.5 L62.5,165.0 L63.5,164.0 L63.5,163.0 L64.5,162.0 L64.5,159.0 L63.5,158.0 L63.5,157.0 L62.5,156.0 L62.5,155.0 L61.0,153.5 L60.0,153.5 L59.0,152.5 L53.0,152.5 L48.5,157.0 L48.5,163.0 L49.5,164.0 L49.5,165.0 L49.0,165.5 L46.0,165.5 L41.5,170.0 L41.5,171.0 L40.5,172.0 L40.5,175.0 L41.5,176.0 L41.5,177.0 L42.5,178.0 L42.5,179.0 L43.0,179.5 L44.0,179.5 L46.0,181.5 L51.0,181.5 L52.0,180.5 L53.0,180.5 L54.0,179.5 L54.5,180.0 L54.5,181.0 L53.5,182.0 L53.5,184.0 L52.5,185.0 L52.5,189.0 L53.0,189.5 L60.0,189.5 Z M135.5,198.0 L136.0,197.5 L137.0,197.5 L138.5,196.0 L138.5,194.0 L139.5,193.0 L139.5,192.0 L138.5,191.0 L138.5,190.0 L139.0,189.5 L140.0,189.5 L141.0,188.5 L142.0,188.5 L143.5,187.0 L143.5,186.0 L144.5,185.0 L144.5,182.0 L143.5,181.0 L143.5,180.0 L143.0,179.5 L142.0,179.5 L141.0,178.5 L136.0,178.5 L135.5,178.0 L135.5,176.0 L136.5,175.0 L136.5,173.0 L136.0,172.5 L131.0,172.5 L130.5,173.0 L130.5,175.0 L131.5,176.0 L131.5,178.0 L131.0,178.5 L127.0,178.5 L126.5,178.0 L126.5,177.0 L127.5,176.0 L127.5,171.0 L126.5,170.0 L126.5,169.0 L124.0,166.5 L123.0,166.5 L122.0,165.5 L119.0,165.5 L118.5,165.0 L118.5,164.0 L119.5,163.0 L119.5,157.0 L115.0,152.5 L109.0,152.5 L107.0,154.5 L106.0,154.5 L105.5,155.0 L105.5,156.0 L104.5,157.0 L104.5,159.0 L103.5,160.0 L103.5,161.0 L104.5,162.0 L104.5,164.0 L105.5,165.0 L105.0,165.5 L102.0,165.5 L101.0,166.5 L100.0,166.5 L97.5,169.0 L97.5,170.0 L96.5,171.0 L96.5,176.0 L97.5,177.0 L97.5,178.0 L100.0,180.5 L101.0,180.5 L102.0,181.5 L106.0,181.5 L107.0,180.5 L108.0,180.5 L110.0,178.5 L110.5,179.0 L110.5,180.0 L109.5,181.0 L109.5,183.0 L108.5,184.0 L108.5,186.0 L107.5,187.0 L107.5,189.0 L108.0,189.5 L115.0,189.5 L116.5,188.0 L115.5,187.0 L115.5,185.0 L114.5,184.0 L114.5,182.0 L113.5,181.0 L113.5,179.0 L114.0,178.5 L116.0,180.5 L117.0,180.5 L118.0,181.5 L122.0,181.5 L122.5,182.0 L122.5,186.0 L125.0,188.5 L126.0,188.5 L127.0,189.5 L128.0,189.5 L128.5,190.0 L128.5,191.0 L127.5,192.0 L127.5,193.0 L128.5,194.0 L128.5,196.0 L130.0,197.5 L131.0,197.5 L132.0,198.5 L135.0,198.5 Z M138.5,233.0 L139.0,232.5 L140.0,232.5 L142.5,230.0 L142.5,229.0 L143.5,228.0 L143.5,226.0 L144.5,225.0 L144.5,217.0 L143.5,216.0 L143.5,214.0 L140.0,210.5 L139.0,210.5 L138.0,209.5 L132.0,209.5 L131.0,210.5 L130.0,210.5 L127.5,213.0 L127.5,214.0 L126.5,215.0 L126.5,220.0 L127.5,221.0 L127.5,222.0 L131.0,225.5 L137.0,225.5 L138.0,224.5 L138.5,225.0 L138.5,227.0 L136.0,229.5 L134.0,229.5 L132.0,227.5 L128.0,227.5 L127.5,228.0 L127.5,230.0 L131.0,233.5 L138.0,233.5 Z M137.0,221.5 L134.0,221.5 L132.5,220.0 L132.5,215.0 L134.0,213.5 L136.0,213.5 L138.5,216.0 L138.5,220.0 Z"/><path fill="#020202" fill-rule="evenodd" d="M35.0,33.5 L31.0,33.5 L30.0,32.5 L29.0,32.5 L28.0,31.5 L27.0,31.5 L26.5,31.0 L26.5,30.0 L25.5,29.0 L25.5,28.0 L24.5,27.0 L24.5,16.0 L25.5,15.0 L25.5,14.0 L29.0,10.5 L30.0,10.5 L31.0,9.5 L35.0,9.5 L36.0,10.5 L37.0,10.5 L40.5,14.0 L40.0,14.5 L36.0,14.5 L35.0,13.5 L31.0,13.5 L29.5,15.0 L29.5,16.0 L28.5,17.0 L28.5,19.0 L29.0,19.5 L30.0,19.5 L31.0,18.5 L32.0,18.5 L33.0,17.5 L36.0,17.5 L37.0,18.5 L38.0,18.5 L38.5,19.0 L39.5,20.0 L39.5,21.0 L40.5,22.0 L40.5,29.0 L37.0,32.5 L36.0,32.5 Z M35.5,29.0 L35.5,28.0 L36.5,27.0 L36.5,24.0 L35.5,23.0 L35.5,22.0 L35.0,21.5 L34.0,21.5 L33.0,20.5 L32.0,20.5 L31.0,21.5 L30.0,21.5 L29.5,22.0 L29.5,23.0 L28.5,24.0 L28.5,26.0 L29.5,27.0 L29.5,28.0 L31.0,29.5 L35.0,29.5 Z M36.0,69.5 L33.0,69.5 L32.5,69.0 L32.5,67.0 L33.5,66.0 L33.5,63.0 L33.0,62.5 L31.0,64.5 L27.0,64.5 L24.5,62.0 L24.5,57.0 L27.0,54.5 L30.0,54.5 L30.5,54.0 L30.5,53.0 L29.5,52.0 L29.5,48.0 L32.0,45.5 L37.0,45.5 L39.5,48.0 L39.5,52.0 L38.5,53.0 L38.5,54.0 L39.0,54.5 L42.0,54.5 L44.5,57.0 L44.5,62.0 L42.0,64.5 L38.0,64.5 L36.0,62.5 L35.5,63.0 L35.5,66.0 L36.5,67.0 L36.5,69.0 Z M59.0,87.5 L53.0,87.5 L52.5,87.0 L52.5,86.0 L53.5,85.0 L53.5,83.0 L54.5,82.0 L54.5,79.0 L55.5,78.0 L55.0,77.5 L54.0,77.5 L52.0,79.5 L46.0,79.5 L45.0,78.5 L44.0,78.5 L43.5,78.0 L42.5,77.0 L42.5,76.0 L41.5,75.0 L41.5,69.0 L45.0,65.5 L47.0,65.5 L48.0,64.5 L50.0,64.5 L50.5,64.0 L49.5,63.0 L49.5,62.0 L48.5,61.0 L48.5,58.0 L49.5,57.0 L49.5,55.0 L52.0,52.5 L53.0,52.5 L54.0,51.5 L58.0,51.5 L59.0,52.5 L60.0,52.5 L63.5,56.0 L63.5,62.0 L61.5,64.0 L61.5,65.0 L62.0,65.5 L63.0,64.5 L65.0,64.5 L66.0,65.5 L68.0,65.5 L70.5,68.0 L70.5,69.0 L71.5,70.0 L71.5,75.0 L70.5,76.0 L70.5,77.0 L69.0,78.5 L68.0,78.5 L67.0,79.5 L61.0,79.5 L58.0,76.5 L57.5,77.0 L57.5,80.0 L58.5,81.0 L58.5,83.0 L59.5,84.0 L59.5,87.0 Z M115.0,87.5 L109.0,87.5 L108.5,87.0 L108.5,85.0 L109.5,84.0 L109.5,81.0 L110.5,80.0 L110.5,78.0 L110.0,77.5 L109.0,78.5 L108.0,78.5 L107.0,79.5 L101.0,79.5 L97.5,76.0 L97.5,75.0 L96.5,74.0 L96.5,71.0 L97.5,70.0 L97.5,69.0 L101.0,65.5 L102.0,65.5 L103.0,64.5 L105.0,64.5 L106.0,65.5 L106.5,65.0 L106.5,64.0 L104.5,62.0 L104.5,57.0 L105.5,56.0 L105.5,55.0 L108.0,52.5 L109.0,52.5 L110.0,51.5 L114.0,51.5 L115.0,52.5 L116.0,52.5 L118.5,55.0 L118.5,56.0 L119.5,57.0 L119.5,61.0 L118.5,62.0 L118.5,63.0 L117.5,64.0 L117.5,65.0 L118.0,65.5 L119.0,64.5 L121.0,64.5 L122.0,65.5 L123.0,65.5 L126.5,69.0 L126.5,70.0 L127.5,71.0 L127.5,74.0 L126.5,75.0 L126.5,76.0 L123.0,79.5 L117.0,79.5 L116.0,78.5 L115.0,78.5 L113.0,76.5 L112.5,77.0 L112.5,78.0 L113.5,79.0 L113.5,81.0 L114.5,82.0 L114.5,85.0 L115.5,86.0 L115.5,87.0 Z M59.0,132.5 L53.0,132.5 L52.5,132.0 L52.5,131.0 L53.5,130.0 L53.5,128.0 L54.5,127.0 L54.5,124.0 L55.5,123.0 L55.0,122.5 L54.0,122.5 L52.0,124.5 L46.0,124.5 L45.0,123.5 L44.0,123.5 L42.5,122.0 L42.5,121.0 L41.5,120.0 L41.5,114.0 L45.0,110.5 L47.0,110.5 L48.0,109.5 L50.0,109.5 L50.5,109.0 L49.5,108.0 L49.5,107.0 L48.5,106.0 L48.5,103.0 L49.5,102.0 L49.5,100.0 L52.0,97.5 L53.0,97.5 L54.0,96.5 L58.0,96.5 L59.0,97.5 L60.0,97.5 L63.5,101.0 L63.5,107.0 L61.5,109.0 L61.5,110.0 L62.0,110.5 L63.0,109.5 L65.0,109.5 L66.0,110.5 L68.0,110.5 L70.5,113.0 L70.5,114.0 L71.5,115.0 L71.5,120.0 L70.5,121.0 L70.5,122.0 L69.0,123.5 L68.0,123.5 L67.0,124.5 L61.0,124.5 L58.0,121.5 L57.5,122.0 L57.5,125.0 L58.5,126.0 L58.5,128.0 L59.5,129.0 L59.5,132.0 Z M115.0,132.5 L109.0,132.5 L108.5,132.0 L108.5,130.0 L109.5,129.0 L109.5,126.0 L110.5,125.0 L110.5,123.0 L110.0,122.5 L109.0,123.5 L108.0,123.5 L107.0,124.5 L101.0,124.5 L97.5,121.0 L97.5,120.0 L96.5,119.0 L96.5,116.0 L97.5,115.0 L97.5,114.0 L101.0,110.5 L102.0,110.5 L103.0,109.5 L105.0,109.5 L106.0,110.5 L106.5,110.0 L106.5,109.0 L104.5,107.0 L104.5,102.0 L105.5,101.0 L105.5,100.0 L108.0,97.5 L109.0,97.5 L110.0,96.5 L114.0,96.5 L115.0,97.5 L116.0,97.5 L118.5,100.0 L118.5,101.0 L119.5,102.0 L119.5,106.0 L118.5,107.0 L118.5,108.0 L117.5,109.0 L117.5,110.0 L118.0,110.5 L119.0,109.5 L121.0,109.5 L122.0,110.5 L123.0,110.5 L126.5,114.0 L126.5,115.0 L127.5,116.0 L127.5,119.0 L126.5,120.0 L126.5,121.0 L123.0,124.5 L117.0,124.5 L116.0,123.5 L115.0,123.5 L113.0,121.5 L112.5,122.0 L112.5,123.0 L113.5,124.0 L113.5,126.0 L114.5,127.0 L114.5,129.0 L115.5,130.0 L115.5,132.0 Z M59.0,188.5 L53.0,188.5 L52.5,188.0 L52.5,187.0 L53.5,186.0 L53.5,184.0 L54.5,183.0 L54.5,180.0 L55.5,179.0 L55.0,178.5 L54.0,178.5 L52.0,180.5 L45.0,180.5 L41.5,177.0 L41.5,171.0 L42.5,170.0 L42.5,169.0 L45.0,166.5 L50.0,166.5 L50.5,166.0 L50.5,165.0 L49.5,164.0 L49.5,163.0 L48.5,162.0 L48.5,159.0 L49.5,158.0 L49.5,157.0 L50.5,156.0 L50.5,155.0 L51.0,154.5 L52.0,154.5 L53.0,153.5 L54.0,153.5 L55.0,152.5 L58.0,152.5 L59.0,153.5 L60.0,153.5 L62.5,156.0 L62.5,157.0 L63.5,158.0 L63.5,163.0 L62.5,164.0 L62.5,165.0 L61.5,166.0 L62.0,166.5 L67.0,166.5 L68.0,167.5 L69.0,167.5 L70.5,169.0 L70.5,170.0 L71.5,171.0 L71.5,176.0 L70.5,177.0 L70.5,178.0 L69.0,179.5 L68.0,179.5 L67.0,180.5 L61.0,180.5 L58.0,177.5 L57.5,178.0 L57.5,181.0 L58.5,182.0 L58.5,185.0 L59.5,186.0 L59.5,188.0 Z M136.0,197.5 L131.0,197.5 L128.5,195.0 L128.5,191.0 L129.5,190.0 L129.5,189.0 L129.0,188.5 L126.0,188.5 L123.5,186.0 L123.5,181.0 L124.5,180.0 L124.0,179.5 L123.0,180.5 L117.0,180.5 L116.0,179.5 L115.0,179.5 L113.0,177.5 L112.5,178.0 L112.5,179.0 L113.5,180.0 L113.5,182.0 L114.5,183.0 L114.5,186.0 L115.5,187.0 L115.5,188.0 L115.0,188.5 L109.0,188.5 L108.5,188.0 L108.5,186.0 L109.5,185.0 L109.5,183.0 L110.5,182.0 L110.5,179.0 L110.0,178.5 L109.0,179.5 L108.0,179.5 L107.0,180.5 L101.0,180.5 L97.5,177.0 L97.5,176.0 L96.5,175.0 L96.5,174.0 L96.5,172.0 L97.5,171.0 L97.5,170.0 L101.0,166.5 L106.0,166.5 L106.5,166.0 L105.5,165.0 L105.5,164.0 L104.5,163.0 L104.5,158.0 L105.5,157.0 L105.5,156.0 L108.0,153.5 L109.0,153.5 L110.0,152.5 L113.0,152.5 L114.0,153.5 L116.0,153.5 L118.5,156.0 L118.5,157.0 L119.5,158.0 L119.5,162.0 L118.5,163.0 L118.5,164.0 L117.5,165.0 L117.5,166.0 L118.0,166.5 L123.0,166.5 L126.5,170.0 L126.5,171.0 L127.5,172.0 L127.5,175.0 L126.5,176.0 L126.5,177.0 L125.5,178.0 L126.0,178.5 L130.0,178.5 L132.0,180.5 L132.5,180.0 L132.5,177.0 L131.5,176.0 L131.5,174.0 L132.0,173.5 L135.0,173.5 L135.5,174.0 L135.5,176.0 L134.5,177.0 L134.5,180.0 L135.0,180.5 L137.0,178.5 L141.0,178.5 L143.5,181.0 L143.5,186.0 L141.0,188.5 L138.0,188.5 L137.5,189.0 L137.5,190.0 L138.5,191.0 L138.5,195.0 Z M137.0,233.5 L133.0,233.5 L132.0,232.5 L131.0,232.5 L127.5,229.0 L128.0,228.5 L132.0,228.5 L133.0,229.5 L137.0,229.5 L138.5,228.0 L138.5,227.0 L139.5,226.0 L139.5,224.0 L139.0,223.5 L138.0,223.5 L137.0,224.5 L136.0,224.5 L135.0,225.5 L132.0,225.5 L131.0,224.5 L130.0,224.5 L127.5,222.0 L127.5,214.0 L131.0,210.5 L132.0,210.5 L133.0,209.5 L137.0,209.5 L138.0,210.5 L139.0,210.5 L140.0,211.5 L141.0,211.5 L141.5,212.0 L141.5,213.0 L142.5,214.0 L142.5,215.0 L143.5,216.0 L143.5,227.0 L142.5,228.0 L142.5,229.0 L141.5,230.0 L139.0,232.5 L138.0,232.5 Z M136.5,222.0 L137.0,221.5 L138.0,221.5 L138.5,221.0 L138.5,220.0 L139.5,219.0 L139.5,217.0 L138.5,216.0 L138.5,215.0 L137.0,213.5 L133.0,213.5 L132.5,214.0 L132.5,215.0 L131.5,216.0 L131.5,219.0 L132.5,220.0 L132.5,221.0 L133.0,221.5 L134.0,221.5 L135.0,222.5 L136.0,222.5 Z"/><path fill="#9f9f9f" fill-rule="evenodd" d="M40.0,15.5 L39.0,15.5 L38.5,15.0 L39.0,14.5 L40.0,14.5 L40.5,15.0 Z M29.0,18.5 L28.5,18.0 L28.5,17.0 L29.0,16.5 L29.5,17.0 L29.5,18.0 Z M36.0,27.5 L35.5,27.0 L35.5,24.0 L36.0,23.5 L36.5,24.0 L36.5,27.0 Z M24.0,26.5 L23.5,26.0 L23.5,25.0 L24.0,24.5 L24.5,25.0 L24.5,26.0 Z M29.0,51.5 L28.5,51.0 L28.5,50.0 L29.0,49.5 L29.5,50.0 L29.5,51.0 Z M40.0,51.5 L39.5,51.0 L39.5,50.0 L40.0,49.5 L40.5,50.0 L40.5,51.0 Z M30.0,54.5 L28.0,54.5 L27.5,54.0 L28.0,53.5 L30.0,53.5 L30.5,54.0 Z M41.0,54.5 L39.0,54.5 L38.5,54.0 L39.0,53.5 L41.0,53.5 L41.5,54.0 Z M104.0,60.5 L103.5,60.0 L103.5,59.0 L104.0,58.5 L104.5,59.0 L104.5,60.0 Z M55.0,78.5 L54.0,78.5 L53.5,78.0 L54.0,77.5 L55.0,77.5 L55.5,78.0 Z M51.0,80.5 L50.0,80.5 L49.5,80.0 L50.0,79.5 L51.0,79.5 L51.5,80.0 Z M66.0,80.5 L62.0,80.5 L61.5,80.0 L62.0,79.5 L66.0,79.5 L66.5,80.0 Z M106.0,80.5 L105.0,80.5 L104.5,80.0 L105.0,79.5 L106.0,79.5 L106.5,80.0 Z M122.0,80.5 L118.0,80.5 L117.5,80.0 L118.0,79.5 L122.0,79.5 L122.5,80.0 Z M60.0,88.5 L53.0,88.5 L52.5,88.0 L53.0,87.5 L60.0,87.5 L60.5,88.0 Z M115.0,88.5 L109.0,88.5 L108.5,88.0 L109.0,87.5 L115.0,87.5 L115.5,88.0 Z M104.0,105.5 L103.5,105.0 L103.5,104.0 L104.0,103.5 L104.5,104.0 L104.5,105.0 Z M55.0,123.5 L54.0,123.5 L53.5,123.0 L54.0,122.5 L55.0,122.5 L55.5,123.0 Z M50.0,125.5 L47.0,125.5 L46.5,125.0 L47.0,124.5 L50.0,124.5 L50.5,125.0 Z M66.0,125.5 L62.0,125.5 L61.5,125.0 L62.0,124.5 L66.0,124.5 L66.5,125.0 Z M106.0,125.5 L103.0,125.5 L102.5,125.0 L103.0,124.5 L106.0,124.5 L106.5,125.0 Z M121.0,125.5 L118.0,125.5 L117.5,125.0 L118.0,124.5 L121.0,124.5 L121.5,125.0 Z M59.0,133.5 L53.0,133.5 L52.5,133.0 L53.0,132.5 L59.0,132.5 L59.5,133.0 Z M115.0,133.5 L109.0,133.5 L108.5,133.0 L109.0,132.5 L115.0,132.5 L115.5,133.0 Z M104.0,161.5 L103.5,161.0 L103.5,160.0 L104.0,159.5 L104.5,160.0 L104.5,161.0 Z M64.0,162.5 L63.5,162.0 L63.5,161.0 L64.0,160.5 L64.5,161.0 L64.5,162.0 Z M123.0,181.5 L122.0,181.5 L121.5,181.0 L122.0,180.5 L123.0,180.5 L123.5,181.0 Z M60.0,189.5 L53.0,189.5 L52.5,189.0 L53.0,188.5 L60.0,188.5 L60.5,189.0 Z M115.0,189.5 L108.0,189.5 L107.5,189.0 L108.0,188.5 L115.0,188.5 L115.5,189.0 Z M129.0,189.5 L127.0,189.5 L126.5,189.0 L127.0,188.5 L129.0,188.5 L129.5,189.0 Z M140.0,189.5 L138.0,189.5 L137.5,189.0 L138.0,188.5 L140.0,188.5 L140.5,189.0 Z M128.0,193.5 L127.5,193.0 L127.5,192.0 L128.0,191.5 L128.5,192.0 L128.5,193.0 Z M139.0,193.5 L138.5,193.0 L138.5,192.0 L139.0,191.5 L139.5,192.0 L139.5,193.0 Z M132.0,219.5 L131.5,219.0 L131.5,216.0 L132.0,215.5 L132.5,216.0 L132.5,219.0 Z M144.0,218.5 L143.5,218.0 L143.5,217.0 L144.0,216.5 L144.5,217.0 L144.5,218.0 Z M139.0,226.5 L138.5,226.0 L138.5,224.0 L139.0,223.5 L139.5,224.0 L139.5,226.0 Z M129.0,228.5 L128.0,228.5 L127.5,228.0 L128.0,227.5 L129.0,227.5 L129.5,228.0 Z"/><path fill="#616161" fill-rule="evenodd" d="M38.0,15.5 L36.0,15.5 L35.5,15.0 L36.0,14.5 L38.0,14.5 L38.5,15.0 Z M24.0,24.5 L23.5,24.0 L23.5,19.0 L24.0,18.5 L24.5,19.0 L24.5,24.0 Z M33.0,21.5 L32.0,21.5 L31.5,21.0 L32.0,20.5 L33.0,20.5 L33.5,21.0 Z M29.0,26.5 L28.5,26.0 L28.5,24.0 L29.0,23.5 L29.5,24.0 L29.5,26.0 Z M41.0,27.5 L40.5,27.0 L40.5,24.0 L41.0,23.5 L41.5,24.0 L41.5,27.0 Z M35.0,45.5 L34.0,45.5 L33.5,45.0 L34.0,44.5 L35.0,44.5 L35.5,45.0 Z M45.0,61.5 L44.5,61.0 L44.5,58.0 L45.0,57.5 L45.5,58.0 L45.5,61.0 Z M24.0,60.5 L23.5,60.0 L23.5,59.0 L24.0,58.5 L24.5,59.0 L24.5,60.0 Z M62.0,65.5 L61.5,65.0 L61.5,64.0 L62.0,63.5 L62.5,64.0 L62.5,65.0 Z M106.0,65.5 L105.5,65.0 L105.5,64.0 L106.0,63.5 L106.5,64.0 L106.5,65.0 Z M36.0,70.5 L33.0,70.5 L32.5,70.0 L33.0,69.5 L36.0,69.5 L36.5,70.0 Z M41.0,73.5 L40.5,73.0 L40.5,71.0 L41.0,70.5 L41.5,71.0 L41.5,73.0 Z M113.0,78.5 L112.5,78.0 L112.5,77.0 L113.0,76.5 L113.5,77.0 L113.5,78.0 Z M49.0,80.5 L48.0,80.5 L47.5,80.0 L48.0,79.5 L49.0,79.5 L49.5,80.0 Z M104.0,80.5 L103.0,80.5 L102.5,80.0 L103.0,79.5 L104.0,79.5 L104.5,80.0 Z M62.0,110.5 L61.5,110.0 L61.5,109.0 L62.0,108.5 L62.5,109.0 L62.5,110.0 Z M106.0,110.5 L105.5,110.0 L105.5,109.0 L106.0,108.5 L106.5,109.0 L106.5,110.0 Z M41.0,118.5 L40.5,118.0 L40.5,116.0 L41.0,115.5 L41.5,116.0 L41.5,118.0 Z M113.0,123.5 L112.5,123.0 L112.5,122.0 L113.0,121.5 L113.5,122.0 L113.5,123.0 Z M121.0,166.5 L118.0,166.5 L117.5,166.0 L117.5,165.0 L118.0,164.5 L119.0,165.5 L121.0,165.5 L121.5,166.0 Z M50.0,166.5 L47.0,166.5 L46.5,166.0 L47.0,165.5 L50.0,165.5 L50.5,166.0 Z M65.0,166.5 L63.0,166.5 L62.5,166.0 L63.0,165.5 L65.0,165.5 L65.5,166.0 Z M106.0,166.5 L103.0,166.5 L102.5,166.0 L103.0,165.5 L106.0,165.5 L106.5,166.0 Z M41.0,174.5 L40.5,174.0 L40.5,172.0 L41.0,171.5 L41.5,172.0 L41.5,174.0 Z M135.0,173.5 L132.0,173.5 L131.5,173.0 L132.0,172.5 L135.0,172.5 L135.5,173.0 Z M113.0,179.5 L112.5,179.0 L112.5,178.0 L113.0,177.5 L113.5,178.0 L113.5,179.0 Z M50.0,181.5 L47.0,181.5 L46.5,181.0 L47.0,180.5 L50.0,180.5 L50.5,181.0 Z M66.0,181.5 L63.0,181.5 L62.5,181.0 L63.0,180.5 L66.0,180.5 L66.5,181.0 Z M106.0,181.5 L103.0,181.5 L102.5,181.0 L103.0,180.5 L106.0,180.5 L106.5,181.0 Z M121.0,181.5 L118.0,181.5 L117.5,181.0 L118.0,180.5 L121.0,180.5 L121.5,181.0 Z M123.0,185.5 L122.5,185.0 L122.5,182.0 L123.0,181.5 L123.5,182.0 L123.5,185.0 Z M144.0,184.5 L143.5,184.0 L143.5,183.0 L144.0,182.5 L144.5,183.0 L144.5,184.0 Z M134.0,198.5 L133.0,198.5 L132.5,198.0 L133.0,197.5 L134.0,197.5 L134.5,198.0 Z M127.0,219.5 L126.5,219.0 L126.5,216.0 L127.0,215.5 L127.5,216.0 L127.5,219.0 Z M139.0,219.5 L138.5,219.0 L138.5,217.0 L139.0,216.5 L139.5,217.0 L139.5,219.0 Z M144.0,224.5 L143.5,224.0 L143.5,219.0 L144.0,218.5 L144.5,219.0 L144.5,224.0 Z M136.0,222.5 L135.0,222.5 L134.5,222.0 L135.0,221.5 L136.0,221.5 L136.5,222.0 Z M132.0,228.5 L130.0,228.5 L129.5,228.0 L130.0,227.5 L132.0,227.5 L132.5,228.0 Z"/></svg>