<?xml version="1.0" encoding="UTF-8"?><svg xmlns="http://www.w3.org/2000/svg" width="169" height="244" viewBox="0 0 169 244" shape-rendering="geometricPrecision"><path fill="#fefefe" fill-rule="evenodd" d="M160.0,243.5 L8.0,243.5 L7.0,242.5 L6.0,242.5 L0.5,237.0 L0.5,236.0 L-0.5,235.0 L-0.5,8.0 L0.5,7.0 L0.5,6.0 L1.5,5.0 L1.5,4.0 L4.0,1.5 L5.0,1.5 L6.0,0.5 L7.0,0.5 L8.0,-0.5 L160.0,-0.5 L161.0,0.5 L162.0,0.5 L167.5,6.0 L167.5,7.0 L168.5,8.0 L168.5,235.0 L167.5,236.0 L167.5,237.0 L166.5,238.0 L166.5,239.0 L164.0,241.5 L163.0,241.5 L162.0,242.5 L161.0,242.5 Z M39.5,33.0 L39.5,29.0 L40.0,28.5 L42.0,28.5 L42.5,28.0 L42.5,25.0 L42.0,24.5 L40.0,24.5 L39.5,24.0 L39.5,10.0 L39.0,9.5 L33.0,9.5 L32.5,10.0 L32.5,11.0 L30.5,13.0 L30.5,14.0 L28.5,16.0 L28.5,17.0 L26.5,19.0 L26.5,20.0 L24.5,22.0 L24.5,23.0 L22.5,25.0 L22.5,28.0 L23.0,28.5 L34.0,28.5 L34.5,29.0 L34.5,33.0 L35.0,33.5 L39.0,33.5 Z M34.0,24.5 L28.0,24.5 L27.5,24.0 L29.5,22.0 L29.5,21.0 L31.5,19.0 L31.5,18.0 L34.0,15.5 L34.5,16.0 L34.5,24.0 Z M37.5,70.0 L37.5,68.0 L36.5,67.0 L36.5,65.0 L37.0,64.5 L43.0,64.5 L44.5,63.0 L44.5,62.0 L45.5,61.0 L45.5,57.0 L43.0,54.5 L42.0,54.5 L41.0,53.5 L40.0,53.5 L39.5,53.0 L39.5,52.0 L40.5,51.0 L40.5,50.0 L39.5,49.0 L39.5,47.0 L39.0,46.5 L38.0,45.5 L37.0,45.5 L36.0,44.5 L33.0,44.5 L32.0,45.5 L31.0,45.5 L29.5,47.0 L29.5,49.0 L28.5,50.0 L28.5,51.0 L29.5,52.0 L29.5,53.0 L29.0,53.5 L28.0,53.5 L27.0,54.5 L26.0,54.5 L24.5,56.0 L24.5,57.0 L23.5,58.0 L23.5,61.0 L24.5,62.0 L24.5,63.0 L25.0,63.5 L26.0,63.5 L27.0,64.5 L32.0,64.5 L32.5,65.0 L32.5,67.0 L31.5,68.0 L31.5,70.0 L32.0,70.5 L37.0,70.5 Z M60.5,89.0 L60.5,87.0 L59.5,86.0 L59.5,84.0 L58.5,83.0 L58.5,81.0 L57.5,80.0 L57.5,79.0 L58.0,78.5 L60.0,80.5 L61.0,80.5 L62.0,81.5 L67.0,81.5 L68.0,80.5 L69.0,80.5 L71.5,78.0 L71.5,77.0 L72.5,76.0 L72.5,69.0 L69.0,65.5 L68.0,65.5 L67.0,64.5 L63.0,64.5 L62.5,64.0 L63.5,63.0 L63.5,62.0 L64.5,61.0 L64.5,56.0 L63.5,55.0 L63.5,54.0 L61.0,51.5 L60.0,51.5 L59.0,50.5 L53.0,50.5 L52.0,51.5 L51.0,51.5 L48.5,54.0 L48.5,55.0 L47.5,56.0 L47.5,61.0 L48.5,62.0 L48.5,63.0 L49.5,64.0 L49.0,64.5 L45.0,64.5 L44.0,65.5 L43.0,65.5 L40.5,68.0 L40.5,69.0 L39.5,70.0 L39.5,76.0 L40.5,77.0 L40.5,78.0 L42.0,79.5 L43.0,79.5 L44.0,80.5 L45.0,80.5 L46.0,81.5 L50.0,81.5 L51.0,80.5 L52.0,80.5 L54.0,78.5 L54.5,79.0 L54.5,80.0 L53.5,81.0 L53.5,83.0 L52.5,84.0 L52.5,86.0 L51.5,87.0 L51.5,89.0 L52.0,89.5 L60.0,89.5 Z M116.5,89.0 L116.5,87.0 L115.5,86.0 L115.5,84.0 L114.5,83.0 L114.5,80.0 L115.0,79.5 L116.0,80.5 L117.0,80.5 L118.0,81.5 L123.0,81.5 L124.0,80.5 L125.0,80.5 L128.5,77.0 L128.5,75.0 L129.5,74.0 L129.5,72.0 L128.5,71.0 L128.5,69.0 L125.0,65.5 L124.0,65.5 L123.0,64.5 L119.0,64.5 L118.5,64.0 L120.5,62.0 L120.5,56.0 L119.5,55.0 L119.5,54.0 L117.0,51.5 L116.0,51.5 L115.0,50.5 L109.0,50.5 L108.0,51.5 L107.0,51.5 L104.5,54.0 L104.5,56.0 L103.5,57.0 L103.5,61.0 L104.5,62.0 L104.5,63.0 L105.5,64.0 L105.0,64.5 L101.0,64.5 L95.5,70.0 L95.5,75.0 L96.5,76.0 L96.5,77.0 L97.5,78.0 L97.5,79.0 L98.0,79.5 L99.0,79.5 L100.0,80.5 L101.0,80.5 L102.0,81.5 L106.0,81.5 L107.0,80.5 L108.0,80.5 L110.0,78.5 L110.5,79.0 L110.5,80.0 L109.5,81.0 L109.5,84.0 L108.5,85.0 L108.5,87.0 L107.5,88.0 L107.5,89.0 L108.0,89.5 L116.0,89.5 Z M60.5,190.0 L60.5,189.0 L59.5,188.0 L59.5,185.0 L58.5,184.0 L58.5,182.0 L57.5,181.0 L57.5,180.0 L58.0,179.5 L60.0,181.5 L61.0,181.5 L62.0,182.5 L67.0,182.5 L68.0,181.5 L69.0,181.5 L72.5,178.0 L72.5,171.0 L71.5,170.0 L71.5,169.0 L69.0,166.5 L68.0,166.5 L67.0,165.5 L63.0,165.5 L62.5,165.0 L63.5,164.0 L63.5,163.0 L64.5,162.0 L64.5,157.0 L63.5,156.0 L63.5,155.0 L61.0,152.5 L60.0,152.5 L59.0,151.5 L53.0,151.5 L52.0,152.5 L51.0,152.5 L48.5,155.0 L48.5,156.0 L47.5,157.0 L47.5,162.0 L48.5,163.0 L48.5,164.0 L49.5,165.0 L49.0,165.5 L45.0,165.5 L44.0,166.5 L43.0,166.5 L40.5,169.0 L40.5,170.0 L39.5,171.0 L39.5,177.0 L40.5,178.0 L40.5,179.0 L41.5,180.0 L43.0,181.5 L44.0,181.5 L45.0,182.5 L50.0,182.5 L51.0,181.5 L52.0,181.5 L54.0,179.5 L54.5,180.0 L54.5,181.0 L53.5,182.0 L53.5,184.0 L52.5,185.0 L52.5,188.0 L51.5,189.0 L51.5,190.0 L52.0,190.5 L60.0,190.5 Z M135.5,198.0 L136.0,197.5 L137.0,197.5 L138.5,196.0 L138.5,194.0 L139.5,193.0 L139.5,192.0 L138.5,191.0 L138.5,190.0 L139.0,189.5 L140.0,189.5 L141.0,188.5 L142.0,188.5 L143.5,187.0 L143.5,186.0 L144.5,185.0 L144.5,182.0 L143.5,181.0 L143.5,180.0 L143.0,179.5 L142.0,179.5 L141.0,178.5 L136.0,178.5 L135.5,178.0 L135.5,176.0 L136.5,175.0 L136.5,173.0 L136.0,172.5 L131.0,172.5 L130.5,173.0 L130.5,175.0 L131.5,176.0 L131.5,178.0 L131.0,178.5 L129.0,178.5 L128.5,178.0 L128.5,176.0 L129.5,175.0 L129.5,173.0 L128.5,172.0 L128.5,170.0 L125.0,166.5 L124.0,166.5 L123.0,165.5 L119.0,165.5 L118.5,165.0 L120.5,163.0 L120.5,157.0 L119.5,156.0 L119.5,155.0 L117.0,152.5 L116.0,152.5 L115.0,151.5 L109.0,151.5 L107.0,153.5 L106.0,153.5 L105.5,154.0 L105.5,155.0 L104.5,156.0 L104.5,157.0 L103.5,158.0 L103.5,162.0 L104.5,163.0 L104.5,164.0 L105.5,165.0 L105.0,165.5 L102.0,165.5 L101.0,166.5 L100.0,166.5 L95.5,171.0 L95.5,177.0 L97.5,179.0 L97.5,180.0 L98.0,180.5 L99.0,180.5 L101.0,182.5 L106.0,182.5 L107.0,181.5 L108.0,181.5 L110.0,179.5 L110.5,180.0 L110.5,181.0 L109.5,182.0 L109.5,185.0 L108.5,186.0 L108.5,188.0 L107.5,189.0 L107.5,190.0 L108.0,190.5 L116.0,190.5 L116.5,190.0 L116.5,188.0 L115.5,187.0 L115.5,185.0 L114.5,184.0 L114.5,182.0 L113.5,181.0 L113.5,180.0 L114.0,179.5 L116.0,181.5 L117.0,181.5 L118.0,182.5 L122.0,182.5 L122.5,183.0 L122.5,186.0 L125.0,188.5 L126.0,188.5 L127.0,189.5 L128.0,189.5 L128.5,190.0 L128.5,191.0 L127.5,192.0 L127.5,193.0 L128.5,194.0 L128.5,196.0 L130.0,197.5 L131.0,197.5 L132.0,198.5 L135.0,198.5 Z M135.5,233.0 L135.5,232.0 L137.5,230.0 L137.5,229.0 L139.5,227.0 L139.5,226.0 L141.5,224.0 L141.5,223.0 L143.5,221.0 L143.5,220.0 L145.5,218.0 L145.5,215.0 L145.0,214.5 L134.0,214.5 L133.5,214.0 L133.5,210.0 L133.0,209.5 L129.0,209.5 L128.5,210.0 L128.5,214.0 L128.0,214.5 L126.0,214.5 L125.5,215.0 L125.5,218.0 L126.0,218.5 L128.0,218.5 L128.5,219.0 L128.5,233.0 L129.0,233.5 L135.0,233.5 Z M134.0,227.5 L133.5,227.0 L133.5,219.0 L134.0,218.5 L140.0,218.5 L140.5,219.0 L138.5,221.0 L138.5,222.0 L136.5,224.0 L136.5,225.0 Z"/><path fill="#020202" fill-rule="evenodd" d="M38.0,33.5 L35.0,33.5 L34.5,33.0 L34.5,29.0 L34.0,28.5 L24.0,28.5 L23.5,28.0 L23.5,24.0 L25.5,22.0 L25.5,21.0 L27.5,19.0 L27.5,18.0 L30.5,15.0 L30.5,14.0 L32.5,12.0 L32.5,11.0 L34.0,9.5 L38.0,9.5 L38.5,10.0 L38.5,24.0 L40.0,25.5 L42.0,25.5 L42.5,26.0 L42.5,28.0 L42.0,28.5 L39.0,28.5 L38.5,29.0 L38.5,33.0 Z M34.5,25.0 L34.5,15.0 L34.0,14.5 L32.5,16.0 L32.5,17.0 L30.5,19.0 L30.5,20.0 L28.5,22.0 L28.5,23.0 L27.5,24.0 L27.5,25.0 L28.0,25.5 L34.0,25.5 Z M36.0,69.5 L33.0,69.5 L32.5,69.0 L32.5,67.0 L33.5,66.0 L33.5,63.0 L33.0,62.5 L31.0,64.5 L27.0,64.5 L24.5,62.0 L24.5,57.0 L27.0,54.5 L30.0,54.5 L30.5,54.0 L30.5,53.0 L29.5,52.0 L29.5,48.0 L32.0,45.5 L37.0,45.5 L39.5,48.0 L39.5,52.0 L38.5,53.0 L38.5,54.0 L39.0,54.5 L42.0,54.5 L44.5,57.0 L44.5,62.0 L42.0,64.5 L38.0,64.5 L36.0,62.5 L35.5,63.0 L35.5,66.0 L36.5,67.0 L36.5,69.0 Z M60.0,89.5 L52.0,89.5 L51.5,89.0 L52.5,88.0 L52.5,86.0 L53.5,85.0 L53.5,82.0 L54.5,81.0 L54.5,79.0 L54.0,78.5 L53.0,79.5 L52.0,79.5 L51.0,80.5 L44.0,80.5 L40.5,77.0 L40.5,75.0 L39.5,74.0 L39.5,71.0 L40.5,70.0 L40.5,69.0 L44.0,65.5 L46.0,65.5 L47.0,64.5 L49.0,64.5 L50.0,65.5 L50.5,65.0 L49.5,64.0 L49.5,63.0 L48.5,62.0 L48.5,60.0 L47.5,59.0 L47.5,58.0 L48.5,57.0 L48.5,55.0 L52.0,51.5 L53.0,51.5 L54.0,50.5 L58.0,50.5 L59.0,51.5 L60.0,51.5 L63.5,55.0 L63.5,57.0 L64.5,58.0 L64.5,59.0 L63.5,60.0 L63.5,62.0 L62.5,63.0 L62.5,64.0 L61.5,65.0 L62.0,65.5 L63.0,64.5 L66.0,64.5 L67.0,65.5 L68.0,65.5 L71.5,69.0 L71.5,70.0 L72.5,71.0 L72.5,75.0 L71.5,76.0 L71.5,77.0 L68.0,80.5 L61.0,80.5 L58.0,77.5 L57.0,77.5 L56.5,78.0 L57.5,79.0 L57.5,81.0 L58.5,82.0 L58.5,85.0 L59.5,86.0 L59.5,88.0 L60.5,89.0 Z M116.0,89.5 L109.0,89.5 L108.5,89.0 L108.5,86.0 L109.5,85.0 L109.5,83.0 L110.5,82.0 L110.5,80.0 L111.5,79.0 L111.0,78.5 L110.0,78.5 L109.0,79.5 L108.0,79.5 L107.0,80.5 L101.0,80.5 L100.0,79.5 L99.0,79.5 L96.5,77.0 L96.5,75.0 L95.5,74.0 L95.5,72.0 L96.5,71.0 L96.5,69.0 L100.0,65.5 L102.0,65.5 L103.0,64.5 L105.0,64.5 L106.0,65.5 L106.5,65.0 L105.5,64.0 L105.5,63.0 L104.5,62.0 L104.5,55.0 L108.0,51.5 L109.0,51.5 L110.0,50.5 L114.0,50.5 L115.0,51.5 L116.0,51.5 L119.5,55.0 L119.5,56.0 L120.5,57.0 L120.5,60.0 L119.5,61.0 L119.5,63.0 L117.5,65.0 L118.0,65.5 L119.0,64.5 L122.0,64.5 L123.0,65.5 L124.0,65.5 L125.0,66.5 L126.0,66.5 L127.5,68.0 L127.5,69.0 L128.5,70.0 L128.5,76.0 L126.5,78.0 L126.5,79.0 L126.0,79.5 L125.0,79.5 L124.0,80.5 L117.0,80.5 L114.0,77.5 L113.5,78.0 L113.5,81.0 L114.5,82.0 L114.5,84.0 L115.5,85.0 L115.5,88.0 L116.5,89.0 Z M60.0,190.5 L52.0,190.5 L51.5,190.0 L52.5,189.0 L52.5,187.0 L53.5,186.0 L53.5,184.0 L54.5,183.0 L54.5,180.0 L54.0,179.5 L53.0,180.5 L52.0,180.5 L51.0,181.5 L44.0,181.5 L40.5,178.0 L40.5,177.0 L39.5,176.0 L39.5,172.0 L40.5,171.0 L40.5,170.0 L44.0,166.5 L50.0,166.5 L50.5,166.0 L49.5,165.0 L49.5,164.0 L48.5,163.0 L48.5,161.0 L47.5,160.0 L47.5,159.0 L48.5,158.0 L48.5,156.0 L52.0,152.5 L53.0,152.5 L54.0,151.5 L58.0,151.5 L59.0,152.5 L60.0,152.5 L63.5,156.0 L63.5,158.0 L64.5,159.0 L64.5,160.0 L63.5,161.0 L63.5,163.0 L62.5,164.0 L62.5,165.0 L61.5,166.0 L62.0,166.5 L68.0,166.5 L71.5,170.0 L71.5,171.0 L72.5,172.0 L72.5,177.0 L70.5,179.0 L70.5,180.0 L70.0,180.5 L69.0,180.5 L68.0,181.5 L61.0,181.5 L58.0,178.5 L57.0,178.5 L56.5,179.0 L57.5,180.0 L57.5,183.0 L58.5,184.0 L58.5,186.0 L59.5,187.0 L59.5,189.0 L60.5,190.0 Z M136.0,197.5 L131.0,197.5 L128.5,195.0 L128.5,191.0 L129.5,190.0 L129.5,189.0 L129.0,188.5 L126.0,188.5 L125.5,188.0 L123.5,186.0 L123.5,183.0 L122.0,181.5 L117.0,181.5 L114.0,178.5 L113.5,179.0 L113.5,182.0 L114.5,183.0 L114.5,185.0 L115.5,186.0 L115.5,189.0 L116.5,190.0 L116.0,190.5 L109.0,190.5 L108.5,190.0 L108.5,187.0 L109.5,186.0 L109.5,184.0 L110.5,183.0 L110.5,181.0 L111.5,180.0 L111.0,179.5 L110.0,179.5 L108.0,181.5 L100.0,181.5 L96.5,178.0 L96.5,176.0 L95.5,175.0 L95.5,174.0 L95.5,173.0 L96.5,172.0 L96.5,170.0 L100.0,166.5 L106.0,166.5 L106.5,166.0 L105.5,165.0 L105.5,164.0 L104.5,163.0 L104.5,156.0 L108.0,152.5 L110.0,152.5 L111.0,151.5 L114.0,151.5 L115.0,152.5 L116.0,152.5 L119.5,156.0 L119.5,158.0 L120.5,159.0 L120.5,161.0 L119.5,162.0 L119.5,164.0 L117.5,166.0 L118.0,166.5 L124.0,166.5 L128.5,171.0 L128.5,177.0 L127.5,178.0 L128.0,178.5 L130.0,178.5 L132.0,180.5 L132.5,180.0 L132.5,177.0 L131.5,176.0 L131.5,174.0 L132.0,173.5 L135.0,173.5 L135.5,174.0 L135.5,176.0 L134.5,177.0 L134.5,180.0 L135.0,180.5 L137.0,178.5 L141.0,178.5 L143.5,181.0 L143.5,186.0 L141.0,188.5 L138.0,188.5 L137.5,189.0 L137.5,190.0 L138.5,191.0 L138.5,195.0 Z M134.0,233.5 L130.0,233.5 L129.5,233.0 L129.5,219.0 L128.0,217.5 L126.0,217.5 L125.5,217.0 L125.5,215.0 L126.0,214.5 L129.0,214.5 L129.5,214.0 L129.5,210.0 L130.0,209.5 L133.0,209.5 L133.5,210.0 L133.5,214.0 L134.0,214.5 L144.0,214.5 L144.5,215.0 L144.5,219.0 L142.5,221.0 L142.5,222.0 L140.5,224.0 L140.5,225.0 L137.5,228.0 L137.5,229.0 L135.5,231.0 L135.5,232.0 Z M134.5,228.0 L135.5,227.0 L135.5,226.0 L137.5,224.0 L137.5,223.0 L139.5,221.0 L139.5,220.0 L140.5,219.0 L140.5,218.0 L140.0,217.5 L134.0,217.5 L133.5,218.0 L133.5,228.0 L134.0,228.5 Z"/><path fill="#646464" fill-rule="evenodd" d="M39.0,24.5 L38.5,24.0 L38.5,10.0 L39.0,9.5 L39.5,10.0 L39.5,24.0 Z M34.0,25.5 L28.0,25.5 L27.5,25.0 L28.0,24.5 L34.0,24.5 L34.5,25.0 Z M41.0,25.5 L40.0,25.5 L39.5,25.0 L40.0,24.5 L41.0,24.5 L41.5,25.0 Z M39.0,33.5 L38.5,33.0 L38.5,29.0 L39.0,28.5 L39.5,29.0 L39.5,33.0 Z M35.0,45.5 L34.0,45.5 L33.5,45.0 L34.0,44.5 L35.0,44.5 L35.5,45.0 Z M45.0,61.5 L44.5,61.0 L44.5,58.0 L45.0,57.5 L45.5,58.0 L45.5,61.0 Z M104.0,60.5 L103.5,60.0 L103.5,58.0 L104.0,57.5 L104.5,58.0 L104.5,60.0 Z M24.0,60.5 L23.5,60.0 L23.5,59.0 L24.0,58.5 L24.5,59.0 L24.5,60.0 Z M48.0,61.5 L47.5,61.0 L47.5,60.0 L48.0,59.5 L48.5,60.0 L48.5,61.0 Z M36.0,70.5 L33.0,70.5 L32.5,70.0 L33.0,69.5 L36.0,69.5 L36.5,70.0 Z M58.0,78.5 L57.0,78.5 L56.5,78.0 L57.0,77.5 L58.0,77.5 L58.5,78.0 Z M49.0,81.5 L46.0,81.5 L45.5,81.0 L46.0,80.5 L49.0,80.5 L49.5,81.0 Z M66.0,81.5 L63.0,81.5 L62.5,81.0 L63.0,80.5 L66.0,80.5 L66.5,81.0 Z M105.0,81.5 L102.0,81.5 L101.5,81.0 L102.0,80.5 L105.0,80.5 L105.5,81.0 Z M122.0,81.5 L119.0,81.5 L118.5,81.0 L119.0,80.5 L122.0,80.5 L122.5,81.0 Z M104.0,161.5 L103.5,161.0 L103.5,159.0 L104.0,158.5 L104.5,159.0 L104.5,161.0 Z M48.0,162.5 L47.5,162.0 L47.5,161.0 L48.0,160.5 L48.5,161.0 L48.5,162.0 Z M50.0,166.5 L46.0,166.5 L45.5,166.0 L46.0,165.5 L50.0,165.5 L50.5,166.0 Z M66.0,166.5 L62.0,166.5 L61.5,166.0 L62.0,165.5 L66.0,165.5 L66.5,166.0 Z M106.0,166.5 L102.0,166.5 L101.5,166.0 L102.0,165.5 L106.0,165.5 L106.5,166.0 Z M122.0,166.5 L118.0,166.5 L117.5,166.0 L118.0,165.5 L122.0,165.5 L122.5,166.0 Z M135.0,173.5 L132.0,173.5 L131.5,173.0 L132.0,172.5 L135.0,172.5 L135.5,173.0 Z M58.0,179.5 L57.0,179.5 L56.5,179.0 L57.0,178.5 L58.0,178.5 L58.5,179.0 Z M50.0,182.5 L46.0,182.5 L45.5,182.0 L46.0,181.5 L50.0,181.5 L50.5,182.0 Z M66.0,182.5 L63.0,182.5 L62.5,182.0 L63.0,181.5 L66.0,181.5 L66.5,182.0 Z M106.0,182.5 L102.0,182.5 L101.5,182.0 L102.0,181.5 L106.0,181.5 L106.5,182.0 Z M122.0,182.5 L119.0,182.5 L118.5,182.0 L119.0,181.5 L122.0,181.5 L122.5,182.0 Z M123.0,185.5 L122.5,185.0 L122.5,183.0 L123.0,182.5 L123.5,183.0 L123.5,185.0 Z M144.0,184.5 L143.5,184.0 L143.5,183.0 L144.0,182.5 L144.5,183.0 L144.5,184.0 Z M134.0,198.5 L133.0,198.5 L132.5,198.0 L133.0,197.5 L134.0,197.5 L134.5,198.0 Z M129.0,214.5 L128.5,214.0 L128.5,210.0 L129.0,209.5 L129.5,210.0 L129.5,214.0 Z M128.0,218.5 L127.0,218.5 L126.5,218.0 L127.0,217.5 L128.0,217.5 L128.5,218.0 Z M140.0,218.5 L134.0,218.5 L133.5,218.0 L134.0,217.5 L140.0,217.5 L140.5,218.0 Z M129.0,233.5 L128.5,233.0 L128.5,219.0 L129.0,218.5 L129.5,219.0 L129.5,233.0 Z"/><path fill="#9e9e9e" fill-rule="evenodd" d="M23.0,28.5 L22.5,28.0 L22.5,25.0 L23.0,24.5 L23.5,25.0 L23.5,28.0 Z M29.0,51.5 L28.5,51.0 L28.5,50.0 L29.0,49.5 L29.5,50.0 L29.5,51.0 Z M40.0,51.5 L39.5,51.0 L39.5,50.0 L40.0,49.5 L40.5,50.0 L40.5,51.0 Z M30.0,54.5 L28.0,54.5 L27.5,54.0 L28.0,53.5 L30.0,53.5 L30.5,54.0 Z M41.0,54.5 L39.0,54.5 L38.5,54.0 L39.0,53.5 L41.0,53.5 L41.5,54.0 Z M129.0,74.5 L128.5,74.0 L128.5,72.0 L129.0,71.5 L129.5,72.0 L129.5,74.0 Z M129.0,175.5 L128.5,175.0 L128.5,173.0 L129.0,172.5 L129.5,173.0 L129.5,175.0 Z M129.0,189.5 L127.0,189.5 L126.5,189.0 L127.0,188.5 L129.0,188.5 L129.5,189.0 Z M140.0,189.5 L138.0,189.5 L137.5,189.0 L138.0,188.5 L140.0,188.5 L140.5,189.0 Z M128.0,193.5 L127.5,193.0 L127.5,192.0 L128.0,191.5 L128.5,192.0 L128.5,193.0 Z M139.0,193.5 L138.5,193.0 L138.5,192.0 L139.0,191.5 L139.5,192.0 L139.5,193.0 Z M145.0,218.5 L144.5,218.0 L144.5,215.0 L145.0,214.5 L145.5,215.0 L145.5,218.0 Z"/></svg>