<?xml version="1.0" encoding="UTF-8"?><svg xmlns="http://www.w3.org/2000/svg" width="169" height="244" viewBox="0 0 169 244" shape-rendering="geometricPrecision"><path fill="#fefefe" fill-rule="evenodd" d="M160.0,243.5 L8.0,243.5 L7.0,242.5 L6.0,242.5 L0.5,237.0 L0.5,236.0 L-0.5,235.0 L-0.5,8.0 L0.5,7.0 L0.5,6.0 L1.5,5.0 L1.5,4.0 L4.0,1.5 L5.0,1.5 L6.0,0.5 L7.0,0.5 L8.0,-0.5 L160.0,-0.5 L161.0,0.5 L162.0,0.5 L167.5,6.0 L167.5,7.0 L168.5,8.0 L168.5,235.0 L167.5,236.0 L167.5,237.0 L166.5,238.0 L166.5,239.0 L164.0,241.5 L163.0,241.5 L162.0,242.5 L161.0,242.5 Z M33.5,33.0 L33.5,27.0 L34.5,26.0 L34.5,25.0 L35.5,24.0 L35.5,22.0 L37.5,20.0 L37.5,19.0 L38.5,18.0 L38.5,17.0 L40.5,15.0 L40.5,14.0 L41.5,13.0 L41.5,10.0 L41.0,9.5 L24.0,9.5 L23.5,10.0 L23.5,13.0 L24.0,13.5 L35.0,13.5 L35.5,14.0 L35.5,15.0 L32.5,18.0 L32.5,19.0 L31.5,20.0 L31.5,21.0 L30.5,22.0 L30.5,23.0 L29.5,24.0 L29.5,25.0 L28.5,26.0 L28.5,28.0 L27.5,29.0 L27.5,33.0 L28.0,33.5 L33.0,33.5 Z M37.5,70.0 L37.5,68.0 L36.5,67.0 L36.5,65.0 L37.0,64.5 L43.0,64.5 L44.5,63.0 L44.5,62.0 L45.5,61.0 L45.5,57.0 L43.0,54.5 L42.0,54.5 L41.0,53.5 L40.0,53.5 L39.5,53.0 L39.5,52.0 L40.5,51.0 L40.5,50.0 L39.5,49.0 L39.5,47.0 L39.0,46.5 L38.0,45.5 L37.0,45.5 L36.0,44.5 L33.0,44.5 L32.0,45.5 L31.0,45.5 L29.5,47.0 L29.5,49.0 L28.5,50.0 L28.5,51.0 L29.5,52.0 L29.5,53.0 L29.0,53.5 L28.0,53.5 L27.0,54.5 L26.0,54.5 L24.5,56.0 L24.5,57.0 L23.5,58.0 L23.5,61.0 L24.5,62.0 L24.5,63.0 L25.0,63.5 L26.0,63.5 L27.0,64.5 L32.0,64.5 L32.5,65.0 L32.5,67.0 L31.5,68.0 L31.5,70.0 L32.0,70.5 L37.0,70.5 Z M59.5,84.0 L59.5,81.0 L58.5,80.0 L58.5,77.0 L59.0,76.5 L60.0,76.5 L61.0,77.5 L65.0,77.5 L66.0,76.5 L67.0,76.5 L69.5,74.0 L69.5,72.0 L70.5,71.0 L70.5,70.0 L69.5,69.0 L69.5,67.0 L67.0,64.5 L66.0,64.5 L65.0,63.5 L62.0,63.5 L61.5,63.0 L62.5,62.0 L62.5,61.0 L63.5,60.0 L63.5,58.0 L62.5,57.0 L62.5,55.0 L60.0,52.5 L58.0,52.5 L57.0,51.5 L55.0,51.5 L54.0,52.5 L53.0,52.5 L49.5,56.0 L49.5,61.0 L50.5,62.0 L50.5,63.0 L50.0,63.5 L47.0,63.5 L43.5,67.0 L43.5,68.0 L42.5,69.0 L42.5,72.0 L43.5,73.0 L43.5,74.0 L45.0,75.5 L46.0,76.5 L47.0,76.5 L48.0,77.5 L51.0,77.5 L52.0,76.5 L53.0,76.5 L54.0,75.5 L54.5,76.0 L54.5,78.0 L53.5,79.0 L53.5,81.0 L52.5,82.0 L52.5,84.0 L53.0,84.5 L59.0,84.5 Z M115.5,84.0 L115.5,82.0 L114.5,81.0 L114.5,78.0 L113.5,77.0 L113.5,76.0 L114.0,75.5 L115.0,76.5 L116.0,76.5 L117.0,77.5 L121.0,77.5 L123.0,75.5 L124.0,75.5 L124.5,75.0 L124.5,74.0 L125.5,73.0 L125.5,68.0 L124.5,67.0 L124.5,66.0 L123.0,64.5 L122.0,64.5 L121.0,63.5 L118.0,63.5 L117.5,63.0 L118.5,62.0 L118.5,56.0 L115.0,52.5 L114.0,52.5 L113.0,51.5 L111.0,51.5 L110.0,52.5 L109.0,52.5 L108.0,53.5 L107.0,53.5 L106.5,54.0 L106.5,55.0 L105.5,56.0 L105.5,57.0 L104.5,58.0 L104.5,60.0 L105.5,61.0 L105.5,62.0 L106.5,63.0 L106.0,63.5 L103.0,63.5 L102.0,64.5 L101.0,64.5 L99.5,66.0 L99.5,67.0 L98.5,68.0 L98.5,73.0 L99.5,74.0 L99.5,75.0 L100.0,75.5 L101.0,75.5 L103.0,77.5 L107.0,77.5 L108.0,76.5 L109.0,76.5 L110.0,75.5 L110.5,76.0 L110.5,77.0 L109.5,78.0 L109.5,80.0 L108.5,81.0 L108.5,84.0 L109.0,84.5 L115.0,84.5 Z M87.5,129.0 L87.5,127.0 L86.5,126.0 L86.5,124.0 L85.5,123.0 L85.5,122.0 L86.0,121.5 L87.0,121.5 L88.0,122.5 L89.0,122.5 L90.0,123.5 L92.0,123.5 L93.0,122.5 L94.0,122.5 L95.0,121.5 L96.0,121.5 L96.5,121.0 L96.5,120.0 L97.5,119.0 L97.5,113.0 L94.0,109.5 L90.0,109.5 L89.5,109.0 L90.5,108.0 L90.5,106.0 L91.5,105.0 L91.5,104.0 L90.5,103.0 L90.5,102.0 L89.5,101.0 L89.5,100.0 L88.0,98.5 L87.0,98.5 L86.0,97.5 L82.0,97.5 L81.0,98.5 L80.0,98.5 L78.5,100.0 L78.5,101.0 L77.5,102.0 L77.5,108.0 L78.5,109.0 L78.0,109.5 L75.0,109.5 L74.0,110.5 L73.0,110.5 L71.5,112.0 L71.5,113.0 L70.5,114.0 L70.5,115.0 L70.0,115.5 L69.5,115.0 L69.5,113.0 L66.0,109.5 L62.0,109.5 L61.5,109.0 L62.5,108.0 L62.5,107.0 L63.5,106.0 L63.5,103.0 L62.5,102.0 L62.5,101.0 L62.0,100.5 L60.0,98.5 L59.0,98.5 L58.0,97.5 L55.0,97.5 L54.0,98.5 L53.0,98.5 L49.5,102.0 L49.5,107.0 L50.5,108.0 L50.5,109.0 L50.0,109.5 L47.0,109.5 L42.5,114.0 L42.5,118.0 L43.5,119.0 L43.5,120.0 L46.0,122.5 L47.0,122.5 L48.0,123.5 L51.0,123.5 L52.0,122.5 L53.0,122.5 L54.0,121.5 L54.5,122.0 L54.5,124.0 L53.5,125.0 L53.5,127.0 L52.5,128.0 L52.5,129.0 L53.0,129.5 L59.0,129.5 L59.5,129.0 L59.5,126.0 L58.5,125.0 L58.5,123.0 L57.5,122.0 L57.5,121.0 L58.0,120.5 L60.0,122.5 L61.0,122.5 L62.0,123.5 L64.0,123.5 L65.0,122.5 L67.0,122.5 L68.5,121.0 L68.5,120.0 L69.5,119.0 L69.5,118.0 L70.0,117.5 L70.5,118.0 L70.5,119.0 L74.0,122.5 L75.0,122.5 L76.0,123.5 L79.0,123.5 L80.0,122.5 L81.0,122.5 L82.0,121.5 L82.5,122.0 L82.5,123.0 L81.5,124.0 L81.5,126.0 L80.5,127.0 L80.5,129.0 L81.0,129.5 L87.0,129.5 Z M115.5,129.0 L115.5,128.0 L114.5,127.0 L114.5,124.0 L113.5,123.0 L113.5,122.0 L114.0,121.5 L115.0,122.5 L116.0,122.5 L117.0,123.5 L120.0,123.5 L121.0,122.5 L122.0,122.5 L125.5,119.0 L125.5,114.0 L124.5,113.0 L124.5,112.0 L123.0,110.5 L122.0,110.5 L121.0,109.5 L118.0,109.5 L117.5,109.0 L118.5,108.0 L118.5,102.0 L117.5,101.0 L117.5,100.0 L117.0,99.5 L116.0,99.5 L114.0,97.5 L110.0,97.5 L109.0,98.5 L108.0,98.5 L105.5,101.0 L105.5,103.0 L104.5,104.0 L104.5,105.0 L105.5,106.0 L105.5,108.0 L106.5,109.0 L106.0,109.5 L103.0,109.5 L102.0,110.5 L101.0,110.5 L99.5,112.0 L99.5,113.0 L98.5,114.0 L98.5,119.0 L102.0,122.5 L103.0,122.5 L104.0,123.5 L107.0,123.5 L108.0,122.5 L109.0,122.5 L109.5,123.0 L109.5,126.0 L108.5,127.0 L108.5,129.0 L109.0,129.5 L115.0,129.5 Z M59.5,187.0 L59.5,184.0 L58.5,183.0 L58.5,180.0 L59.0,179.5 L60.0,179.5 L61.0,180.5 L65.0,180.5 L66.0,179.5 L67.0,179.5 L69.5,177.0 L69.5,175.0 L70.5,174.0 L70.5,173.0 L69.5,172.0 L69.5,170.0 L67.0,167.5 L66.0,167.5 L65.0,166.5 L62.0,166.5 L61.5,166.0 L62.5,165.0 L62.5,164.0 L63.5,163.0 L63.5,161.0 L62.5,160.0 L62.5,158.0 L61.0,156.5 L60.0,156.5 L59.0,155.5 L58.0,155.5 L57.0,154.5 L56.0,154.5 L55.0,155.5 L53.0,155.5 L49.5,159.0 L49.5,165.0 L50.5,166.0 L50.0,166.5 L47.0,166.5 L43.5,170.0 L43.5,171.0 L42.5,172.0 L42.5,175.0 L43.5,176.0 L43.5,177.0 L44.0,177.5 L46.0,179.5 L47.0,179.5 L48.0,180.5 L52.0,180.5 L54.0,178.5 L54.5,179.0 L54.5,181.0 L53.5,182.0 L53.5,184.0 L52.5,185.0 L52.5,187.0 L53.0,187.5 L59.0,187.5 Z M135.5,198.0 L136.0,197.5 L137.0,197.5 L138.5,196.0 L138.5,194.0 L139.5,193.0 L139.5,192.0 L138.5,191.0 L138.5,190.0 L139.0,189.5 L140.0,189.5 L141.0,188.5 L142.0,188.5 L143.5,187.0 L143.5,186.0 L144.5,185.0 L144.5,182.0 L143.5,181.0 L143.5,180.0 L143.0,179.5 L142.0,179.5 L141.0,178.5 L136.0,178.5 L135.5,178.0 L135.5,176.0 L136.5,175.0 L136.5,173.0 L136.0,172.5 L131.0,172.5 L130.5,173.0 L130.5,175.0 L131.5,176.0 L131.5,178.0 L131.0,178.5 L125.0,178.5 L124.5,178.0 L124.5,177.0 L125.5,176.0 L125.5,171.0 L124.5,170.0 L124.5,169.0 L123.0,167.5 L122.0,167.5 L121.0,166.5 L118.0,166.5 L117.5,166.0 L118.5,165.0 L118.5,159.0 L115.0,155.5 L113.0,155.5 L112.0,154.5 L111.0,154.5 L110.0,155.5 L109.0,155.5 L108.0,156.5 L107.0,156.5 L106.5,157.0 L106.5,158.0 L105.5,159.0 L105.5,160.0 L104.5,161.0 L104.5,163.0 L105.5,164.0 L105.5,165.0 L106.5,166.0 L106.0,166.5 L103.0,166.5 L102.0,167.5 L101.0,167.5 L99.5,169.0 L99.5,170.0 L98.5,171.0 L98.5,176.0 L99.5,177.0 L99.5,178.0 L101.0,179.5 L102.0,179.5 L103.0,180.5 L107.0,180.5 L108.0,179.5 L109.0,179.5 L110.0,178.5 L110.5,179.0 L110.5,180.0 L109.5,181.0 L109.5,183.0 L108.5,184.0 L108.5,187.0 L109.0,187.5 L115.0,187.5 L115.5,187.0 L115.5,185.0 L114.5,184.0 L114.5,181.0 L113.5,180.0 L113.5,179.0 L114.0,178.5 L115.0,179.5 L116.0,179.5 L117.0,180.5 L121.0,180.5 L122.0,179.5 L123.0,179.5 L123.5,180.0 L123.5,181.0 L122.5,182.0 L122.5,186.0 L125.0,188.5 L126.0,188.5 L127.0,189.5 L128.0,189.5 L128.5,190.0 L128.5,191.0 L127.5,192.0 L127.5,193.0 L128.5,194.0 L128.5,196.0 L130.0,197.5 L131.0,197.5 L132.0,198.5 L135.0,198.5 Z M144.5,233.0 L144.5,230.0 L144.0,229.5 L133.0,229.5 L132.5,229.0 L132.5,228.0 L135.5,225.0 L135.5,224.0 L136.5,223.0 L136.5,222.0 L137.5,221.0 L137.5,220.0 L138.5,219.0 L138.5,218.0 L139.5,217.0 L139.5,215.0 L140.5,214.0 L140.5,210.0 L140.0,209.5 L135.0,209.5 L134.5,210.0 L134.5,215.0 L133.5,216.0 L133.5,218.0 L132.5,219.0 L132.5,221.0 L130.5,223.0 L130.5,224.0 L129.5,225.0 L129.5,226.0 L127.5,228.0 L127.5,229.0 L126.5,230.0 L126.5,233.0 L127.0,233.5 L144.0,233.5 Z"/><path fill="#020202" fill-rule="evenodd" d="M32.0,33.5 L28.0,33.5 L27.5,33.0 L27.5,32.0 L28.5,31.0 L28.5,27.0 L29.5,26.0 L29.5,25.0 L30.5,24.0 L30.5,23.0 L31.5,22.0 L31.5,21.0 L32.5,20.0 L32.5,19.0 L34.5,17.0 L34.5,16.0 L36.5,14.0 L36.0,13.5 L25.0,13.5 L24.5,13.0 L24.5,10.0 L25.0,9.5 L40.0,9.5 L40.5,10.0 L40.5,14.0 L38.5,16.0 L38.5,17.0 L37.5,18.0 L37.5,19.0 L35.5,21.0 L35.5,22.0 L34.5,23.0 L34.5,25.0 L33.5,26.0 L33.5,29.0 L32.5,30.0 L32.5,33.0 Z M36.0,69.5 L33.0,69.5 L32.5,69.0 L32.5,67.0 L33.5,66.0 L33.5,63.0 L33.0,62.5 L31.0,64.5 L27.0,64.5 L24.5,62.0 L24.5,57.0 L27.0,54.5 L30.0,54.5 L30.5,54.0 L30.5,53.0 L29.5,52.0 L29.5,48.0 L32.0,45.5 L37.0,45.5 L39.5,48.0 L39.5,52.0 L38.5,53.0 L38.5,54.0 L39.0,54.5 L42.0,54.5 L44.5,57.0 L44.5,62.0 L42.0,64.5 L38.0,64.5 L36.0,62.5 L35.5,63.0 L35.5,66.0 L36.5,67.0 L36.5,69.0 Z M59.0,83.5 L54.0,83.5 L53.5,83.0 L53.5,80.0 L54.5,79.0 L54.5,77.0 L55.5,76.0 L55.5,75.0 L55.0,74.5 L54.0,75.5 L53.0,75.5 L52.0,76.5 L47.0,76.5 L46.0,75.5 L45.0,75.5 L44.5,75.0 L44.5,74.0 L43.5,73.0 L43.5,68.0 L44.5,67.0 L44.5,66.0 L46.0,64.5 L48.0,64.5 L49.0,63.5 L50.0,63.5 L51.0,64.5 L51.5,64.0 L51.5,63.0 L50.5,62.0 L50.5,61.0 L49.5,60.0 L49.5,57.0 L50.5,56.0 L50.5,55.0 L52.0,53.5 L53.0,53.5 L54.0,52.5 L59.0,52.5 L62.5,56.0 L62.5,61.0 L61.5,62.0 L61.5,63.0 L60.5,64.0 L61.0,64.5 L62.0,63.5 L64.0,63.5 L65.0,64.5 L66.0,64.5 L69.5,68.0 L69.5,73.0 L66.0,76.5 L60.0,76.5 L58.0,74.5 L57.0,74.5 L56.5,75.0 L57.5,76.0 L57.5,78.0 L58.5,79.0 L58.5,81.0 L59.5,82.0 L59.5,83.0 Z M115.0,83.5 L109.0,83.5 L108.5,83.0 L109.5,82.0 L109.5,79.0 L110.5,78.0 L110.5,76.0 L111.5,75.0 L111.0,74.5 L110.0,74.5 L108.0,76.5 L102.0,76.5 L99.5,74.0 L99.5,73.0 L98.5,72.0 L98.5,69.0 L99.5,68.0 L99.5,67.0 L102.0,64.5 L103.0,64.5 L104.0,63.5 L106.0,63.5 L106.5,63.0 L106.5,62.0 L105.5,61.0 L105.5,56.0 L109.0,52.5 L114.0,52.5 L115.0,53.5 L116.0,53.5 L116.5,54.0 L117.5,55.0 L117.5,56.0 L118.5,57.0 L118.5,61.0 L116.5,63.0 L116.5,64.0 L117.0,64.5 L118.0,63.5 L119.0,63.5 L120.0,64.5 L122.0,64.5 L124.5,67.0 L124.5,68.0 L125.5,69.0 L125.5,72.0 L124.5,73.0 L124.5,74.0 L122.0,76.5 L116.0,76.5 L114.0,74.5 L113.0,74.5 L112.5,75.0 L112.5,76.0 L113.5,77.0 L113.5,79.0 L114.5,80.0 L114.5,82.0 L115.5,83.0 Z M59.0,129.5 L54.0,129.5 L53.5,129.0 L53.5,126.0 L54.5,125.0 L54.5,123.0 L55.5,122.0 L55.5,121.0 L55.0,120.5 L54.0,121.5 L53.0,121.5 L52.0,122.5 L47.0,122.5 L43.5,119.0 L43.5,113.0 L46.0,110.5 L47.0,110.5 L48.0,109.5 L51.0,109.5 L51.5,109.0 L50.5,108.0 L50.5,107.0 L49.5,106.0 L49.5,103.0 L50.5,102.0 L50.5,101.0 L53.0,98.5 L59.0,98.5 L62.5,102.0 L62.5,107.0 L61.5,108.0 L61.5,109.0 L62.0,109.5 L64.0,109.5 L65.0,110.5 L67.0,110.5 L68.5,112.0 L68.5,113.0 L69.5,114.0 L69.5,119.0 L66.0,122.5 L61.0,122.5 L60.0,121.5 L59.0,121.5 L58.0,120.5 L57.5,121.0 L57.5,124.0 L58.5,125.0 L58.5,127.0 L59.5,128.0 L59.5,129.0 Z M87.0,129.5 L81.0,129.5 L80.5,129.0 L81.5,128.0 L81.5,126.0 L82.5,125.0 L82.5,122.0 L83.5,121.0 L83.0,120.5 L82.0,120.5 L80.0,122.5 L75.0,122.5 L74.0,121.5 L73.0,121.5 L72.5,121.0 L72.5,120.0 L71.5,119.0 L71.5,118.0 L70.5,117.0 L70.5,115.0 L71.5,114.0 L71.5,113.0 L74.0,110.5 L75.0,110.5 L76.0,109.5 L79.0,109.5 L79.5,109.0 L77.5,107.0 L77.5,103.0 L78.5,102.0 L78.5,101.0 L81.0,98.5 L87.0,98.5 L90.5,102.0 L90.5,107.0 L88.5,109.0 L89.0,109.5 L92.0,109.5 L93.0,110.5 L94.0,110.5 L97.5,114.0 L97.5,118.0 L96.5,119.0 L96.5,120.0 L94.0,122.5 L88.0,122.5 L86.0,120.5 L85.0,120.5 L84.5,121.0 L85.5,122.0 L85.5,124.0 L86.5,125.0 L86.5,128.0 L87.5,129.0 Z M115.0,129.5 L109.0,129.5 L108.5,129.0 L108.5,128.0 L109.5,127.0 L109.5,125.0 L110.5,124.0 L110.5,122.0 L111.5,121.0 L111.0,120.5 L110.0,120.5 L108.0,122.5 L103.0,122.5 L102.0,121.5 L101.0,121.5 L99.5,120.0 L99.5,119.0 L98.5,118.0 L98.5,115.0 L99.5,114.0 L99.5,113.0 L102.0,110.5 L103.0,110.5 L104.0,109.5 L106.0,109.5 L106.5,109.0 L106.5,108.0 L105.5,107.0 L105.5,102.0 L109.0,98.5 L115.0,98.5 L116.5,100.0 L117.5,101.0 L117.5,102.0 L118.5,103.0 L118.5,106.0 L117.5,107.0 L117.5,108.0 L116.5,109.0 L117.0,109.5 L120.0,109.5 L121.0,110.5 L122.0,110.5 L124.5,113.0 L124.5,114.0 L125.5,115.0 L125.5,118.0 L124.5,119.0 L124.5,120.0 L123.0,121.5 L122.0,121.5 L121.0,122.5 L116.0,122.5 L114.0,120.5 L113.0,120.5 L112.5,121.0 L112.5,122.0 L113.5,123.0 L113.5,125.0 L114.5,126.0 L114.5,128.0 L115.5,129.0 Z M59.0,186.5 L54.0,186.5 L53.5,186.0 L53.5,184.0 L54.5,183.0 L54.5,180.0 L55.5,179.0 L55.5,178.0 L55.0,177.5 L53.0,179.5 L47.0,179.5 L46.0,178.5 L45.0,178.5 L44.5,178.0 L44.5,177.0 L43.5,176.0 L43.5,171.0 L44.5,170.0 L44.5,169.0 L46.0,167.5 L48.0,167.5 L49.0,166.5 L50.0,166.5 L51.0,167.5 L51.5,167.0 L51.5,166.0 L50.5,165.0 L50.5,164.0 L49.5,163.0 L49.5,160.0 L50.5,159.0 L50.5,158.0 L52.0,156.5 L53.0,156.5 L54.0,155.5 L59.0,155.5 L62.5,159.0 L62.5,165.0 L60.5,167.0 L61.0,167.5 L62.0,167.5 L63.0,166.5 L64.0,167.5 L66.0,167.5 L69.5,171.0 L69.5,176.0 L66.0,179.5 L60.0,179.5 L58.0,177.5 L57.0,177.5 L56.5,178.0 L57.5,179.0 L57.5,181.0 L58.5,182.0 L58.5,184.0 L59.5,185.0 L59.5,186.0 Z M115.0,186.5 L109.0,186.5 L108.5,186.0 L109.5,185.0 L109.5,182.0 L110.5,181.0 L110.5,179.0 L111.5,178.0 L111.0,177.5 L110.0,177.5 L108.0,179.5 L102.0,179.5 L99.5,177.0 L99.5,176.0 L98.5,175.0 L98.5,172.0 L99.5,171.0 L99.5,170.0 L102.0,167.5 L104.0,167.5 L105.0,166.5 L106.0,166.5 L106.5,166.0 L106.5,165.0 L105.5,164.0 L105.5,160.0 L106.5,159.0 L106.5,158.0 L107.5,157.0 L108.0,156.5 L109.0,156.5 L110.0,155.5 L114.0,155.5 L115.0,156.5 L116.0,156.5 L117.5,158.0 L117.5,159.0 L118.5,160.0 L118.5,164.0 L116.5,166.0 L116.5,167.0 L117.0,167.5 L118.0,166.5 L119.0,167.5 L122.0,167.5 L124.5,170.0 L124.5,171.0 L125.5,172.0 L125.5,175.0 L124.5,176.0 L124.5,177.0 L122.0,179.5 L116.0,179.5 L114.0,177.5 L113.0,177.5 L112.5,178.0 L112.5,179.0 L113.5,180.0 L113.5,182.0 L114.5,183.0 L114.5,185.0 L115.5,186.0 Z M136.0,197.5 L131.0,197.5 L128.5,195.0 L128.5,191.0 L129.5,190.0 L129.5,189.0 L129.0,188.5 L126.0,188.5 L123.5,186.0 L123.5,181.0 L126.0,178.5 L130.0,178.5 L132.0,180.5 L132.5,180.0 L132.5,177.0 L131.5,176.0 L131.5,174.0 L132.0,173.5 L135.0,173.5 L135.5,174.0 L135.5,176.0 L134.5,177.0 L134.5,180.0 L135.0,180.5 L137.0,178.5 L141.0,178.5 L143.5,181.0 L143.5,186.0 L141.0,188.5 L138.0,188.5 L137.5,189.0 L137.5,190.0 L138.5,191.0 L138.5,195.0 Z M143.0,233.5 L128.0,233.5 L127.5,233.0 L127.5,229.0 L129.5,227.0 L129.5,226.0 L130.5,225.0 L130.5,224.0 L132.5,222.0 L132.5,221.0 L133.5,220.0 L133.5,218.0 L134.5,217.0 L134.5,214.0 L135.5,213.0 L135.5,210.0 L136.0,209.5 L140.0,209.5 L140.5,210.0 L140.5,211.0 L139.5,212.0 L139.5,216.0 L138.5,217.0 L138.5,218.0 L137.5,219.0 L137.5,220.0 L136.5,221.0 L136.5,222.0 L135.5,223.0 L135.5,224.0 L133.5,226.0 L133.5,227.0 L131.5,229.0 L132.0,229.5 L143.0,229.5 L143.5,230.0 L143.5,233.0 Z"/><path fill="#9e9e9e" fill-rule="evenodd" d="M24.0,13.5 L23.5,13.0 L23.5,10.0 L24.0,9.5 L24.5,10.0 L24.5,13.0 Z M41.0,13.5 L40.5,13.0 L40.5,10.0 L41.0,9.5 L41.5,10.0 L41.5,13.0 Z M33.0,33.5 L32.5,33.0 L32.5,31.0 L33.0,30.5 L33.5,31.0 L33.5,33.0 Z M29.0,51.5 L28.5,51.0 L28.5,50.0 L29.0,49.5 L29.5,50.0 L29.5,51.0 Z M40.0,51.5 L39.5,51.0 L39.5,50.0 L40.0,49.5 L40.5,50.0 L40.5,51.0 Z M57.0,52.5 L55.0,52.5 L54.5,52.0 L55.0,51.5 L57.0,51.5 L57.5,52.0 Z M113.0,52.5 L111.0,52.5 L110.5,52.0 L111.0,51.5 L113.0,51.5 L113.5,52.0 Z M30.0,54.5 L28.0,54.5 L27.5,54.0 L28.0,53.5 L30.0,53.5 L30.5,54.0 Z M41.0,54.5 L39.0,54.5 L38.5,54.0 L39.0,53.5 L41.0,53.5 L41.5,54.0 Z M105.0,60.5 L104.5,60.0 L104.5,58.0 L105.0,57.5 L105.5,58.0 L105.5,60.0 Z M70.0,71.5 L69.5,71.0 L69.5,70.0 L70.0,69.5 L70.5,70.0 L70.5,71.0 Z M59.0,84.5 L53.0,84.5 L52.5,84.0 L53.0,83.5 L59.0,83.5 L59.5,84.0 Z M115.0,84.5 L109.0,84.5 L108.5,84.0 L109.0,83.5 L115.0,83.5 L115.5,84.0 Z M83.0,98.5 L82.0,98.5 L81.5,98.0 L82.0,97.5 L83.0,97.5 L83.5,98.0 Z M86.0,98.5 L85.0,98.5 L84.5,98.0 L85.0,97.5 L86.0,97.5 L86.5,98.0 Z M111.0,98.5 L110.0,98.5 L109.5,98.0 L110.0,97.5 L111.0,97.5 L111.5,98.0 Z M114.0,98.5 L113.0,98.5 L112.5,98.0 L113.0,97.5 L114.0,97.5 L114.5,98.0 Z M91.0,105.5 L90.5,105.0 L90.5,104.0 L91.0,103.5 L91.5,104.0 L91.5,105.0 Z M105.0,105.5 L104.5,105.0 L104.5,104.0 L105.0,103.5 L105.5,104.0 L105.5,105.0 Z M70.0,117.5 L69.5,117.0 L69.5,116.0 L70.0,115.5 L70.5,116.0 L70.5,117.0 Z M114.0,121.5 L113.0,121.5 L112.5,121.0 L113.0,120.5 L114.0,120.5 L114.5,121.0 Z M51.0,123.5 L48.0,123.5 L47.5,123.0 L48.0,122.5 L51.0,122.5 L51.5,123.0 Z M64.0,123.5 L62.0,123.5 L61.5,123.0 L62.0,122.5 L64.0,122.5 L64.5,123.0 Z M79.0,123.5 L76.0,123.5 L75.5,123.0 L76.0,122.5 L79.0,122.5 L79.5,123.0 Z M92.0,123.5 L90.0,123.5 L89.5,123.0 L90.0,122.5 L92.0,122.5 L92.5,123.0 Z M107.0,123.5 L104.0,123.5 L103.5,123.0 L104.0,122.5 L107.0,122.5 L107.5,123.0 Z M120.0,123.5 L117.0,123.5 L116.5,123.0 L117.0,122.5 L120.0,122.5 L120.5,123.0 Z M57.0,155.5 L56.0,155.5 L55.5,155.0 L56.0,154.5 L57.0,154.5 L57.5,155.0 Z M112.0,155.5 L111.0,155.5 L110.5,155.0 L111.0,154.5 L112.0,154.5 L112.5,155.0 Z M105.0,163.5 L104.5,163.0 L104.5,161.0 L105.0,160.5 L105.5,161.0 L105.5,163.0 Z M70.0,174.5 L69.5,174.0 L69.5,173.0 L70.0,172.5 L70.5,173.0 L70.5,174.0 Z M59.0,187.5 L53.0,187.5 L52.5,187.0 L53.0,186.5 L59.0,186.5 L59.5,187.0 Z M115.0,187.5 L109.0,187.5 L108.5,187.0 L109.0,186.5 L115.0,186.5 L115.5,187.0 Z M129.0,189.5 L127.0,189.5 L126.5,189.0 L127.0,188.5 L129.0,188.5 L129.5,189.0 Z M140.0,189.5 L138.0,189.5 L137.5,189.0 L138.0,188.5 L140.0,188.5 L140.5,189.0 Z M128.0,193.5 L127.5,193.0 L127.5,192.0 L128.0,191.5 L128.5,192.0 L128.5,193.0 Z M139.0,193.5 L138.5,193.0 L138.5,192.0 L139.0,191.5 L139.5,192.0 L139.5,193.0 Z M135.0,212.5 L134.5,212.0 L134.5,210.0 L135.0,209.5 L135.5,210.0 L135.5,212.0 Z M127.0,233.5 L126.5,233.0 L126.5,230.0 L127.0,229.5 L127.5,230.0 L127.5,233.0 Z M144.0,233.5 L143.5,233.0 L143.5,230.0 L144.0,229.5 L144.5,230.0 L144.5,233.0 Z"/><path fill="#606060" fill-rule="evenodd" d="M28.0,31.5 L27.5,31.0 L27.5,30.0 L28.0,29.5 L28.5,30.0 L28.5,31.0 Z M35.0,45.5 L34.0,45.5 L33.5,45.0 L34.0,44.5 L35.0,44.5 L35.5,45.0 Z M45.0,61.5 L44.5,61.0 L44.5,58.0 L45.0,57.5 L45.5,58.0 L45.5,61.0 Z M24.0,60.5 L23.5,60.0 L23.5,59.0 L24.0,58.5 L24.5,59.0 L24.5,60.0 Z M51.0,64.5 L50.5,64.0 L50.5,63.0 L51.0,62.5 L51.5,63.0 L51.5,64.0 Z M117.0,64.5 L116.5,64.0 L116.5,63.0 L117.0,62.5 L117.5,63.0 L117.5,64.0 Z M43.0,72.5 L42.5,72.0 L42.5,69.0 L43.0,68.5 L43.5,69.0 L43.5,72.0 Z M36.0,70.5 L33.0,70.5 L32.5,70.0 L33.0,69.5 L36.0,69.5 L36.5,70.0 Z M111.0,75.5 L110.0,75.5 L109.5,75.0 L110.0,74.5 L111.0,74.5 L111.5,75.0 Z M51.0,77.5 L48.0,77.5 L47.5,77.0 L48.0,76.5 L51.0,76.5 L51.5,77.0 Z M64.0,77.5 L62.0,77.5 L61.5,77.0 L62.0,76.5 L64.0,76.5 L64.5,77.0 Z M106.0,77.5 L104.0,77.5 L103.5,77.0 L104.0,76.5 L106.0,76.5 L106.5,77.0 Z M120.0,77.5 L118.0,77.5 L117.5,77.0 L118.0,76.5 L120.0,76.5 L120.5,77.0 Z M57.0,98.5 L56.0,98.5 L55.5,98.0 L56.0,97.5 L57.0,97.5 L57.5,98.0 Z M63.0,105.5 L62.5,105.0 L62.5,104.0 L63.0,103.5 L63.5,104.0 L63.5,105.0 Z M43.0,117.5 L42.5,117.0 L42.5,115.0 L43.0,114.5 L43.5,115.0 L43.5,117.0 Z M51.0,167.5 L50.5,167.0 L50.5,166.0 L51.0,165.5 L51.5,166.0 L51.5,167.0 Z M117.0,167.5 L116.5,167.0 L116.5,166.0 L117.0,165.5 L117.5,166.0 L117.5,167.0 Z M62.0,167.5 L61.0,167.5 L60.5,167.0 L61.0,166.5 L62.0,166.5 L62.5,167.0 Z M65.0,167.5 L64.0,167.5 L63.5,167.0 L64.0,166.5 L65.0,166.5 L65.5,167.0 Z M120.0,167.5 L119.0,167.5 L118.5,167.0 L119.0,166.5 L120.0,166.5 L120.5,167.0 Z M43.0,175.5 L42.5,175.0 L42.5,172.0 L43.0,171.5 L43.5,172.0 L43.5,175.0 Z M135.0,173.5 L132.0,173.5 L131.5,173.0 L132.0,172.5 L135.0,172.5 L135.5,173.0 Z M111.0,178.5 L110.0,178.5 L109.5,178.0 L110.0,177.5 L111.0,177.5 L111.5,178.0 Z M51.0,180.5 L48.0,180.5 L47.5,180.0 L48.0,179.5 L51.0,179.5 L51.5,180.0 Z M64.0,180.5 L62.0,180.5 L61.5,180.0 L62.0,179.5 L64.0,179.5 L64.5,180.0 Z M106.0,180.5 L104.0,180.5 L103.5,180.0 L104.0,179.5 L106.0,179.5 L106.5,180.0 Z M120.0,180.5 L118.0,180.5 L117.5,180.0 L118.0,179.5 L120.0,179.5 L120.5,180.0 Z M123.0,185.5 L122.5,185.0 L122.5,182.0 L123.0,181.5 L123.5,182.0 L123.5,185.0 Z M144.0,184.5 L143.5,184.0 L143.5,183.0 L144.0,182.5 L144.5,183.0 L144.5,184.0 Z M134.0,198.5 L133.0,198.5 L132.5,198.0 L133.0,197.5 L134.0,197.5 L134.5,198.0 Z M140.0,213.5 L139.5,213.0 L139.5,212.0 L140.0,211.5 L140.5,212.0 L140.5,213.0 Z"/></svg>