
<svg width="169" height="244" viewBox="0 0 169 244" fill="none" xmlns="http://www.w3.org/2000/svg">
  <!-- 카드 배경 -->
  <rect width="169" height="244" rx="12" fill="white" stroke="#E5E5E5"/>
  
  <!-- 좌상단 숫자와 무늬 -->
  <g transform="translate(20, 30)">
    <text font-family="Arial" font-size="24" font-weight="bold" fill="#000000">A</text>
    <g transform="translate(8, 14) scale(0.8)">
      
        <path d="M0,-8 a5.5,5.5 0 1,0 0.1,0 Z" fill="black" />
        <path d="M-5,-2 a5.5,5.5 0 1,0 0.1,0 Z" fill="black" />
        <path d="M5,-2 a5.5,5.5 0 1,0 0.1,0 Z" fill="black" />
        <path d="M0,5 L-3,13 L3,13 Z" fill="black" />
    </g>
  </g>
  
  <!-- 우하단 숫자와 무늬 (180도 회전) -->
  <g transform="translate(149, 214) rotate(180)">
    <text font-family="Arial" font-size="24" font-weight="bold" fill="#000000">A</text>
    <g transform="translate(8, 14) scale(0.8)">
      
        <path d="M0,-8 a5.5,5.5 0 1,0 0.1,0 Z" fill="black" />
        <path d="M-5,-2 a5.5,5.5 0 1,0 0.1,0 Z" fill="black" />
        <path d="M5,-2 a5.5,5.5 0 1,0 0.1,0 Z" fill="black" />
        <path d="M0,5 L-3,13 L3,13 Z" fill="black" />
    </g>
  </g>
  
  <!-- 중앙 큰 무늬 -->
  <g transform="translate(84.5, 122) scale(3)">
    
        <path d="M0,-8 a5.5,5.5 0 1,0 0.1,0 Z" fill="black" />
        <path d="M-5,-2 a5.5,5.5 0 1,0 0.1,0 Z" fill="black" />
        <path d="M5,-2 a5.5,5.5 0 1,0 0.1,0 Z" fill="black" />
        <path d="M0,5 L-3,13 L3,13 Z" fill="black" />
  </g>
</svg>
