<?xml version="1.0" encoding="UTF-8"?><svg xmlns="http://www.w3.org/2000/svg" width="169" height="244" viewBox="0 0 169 244" shape-rendering="geometricPrecision"><path fill="#fefefe" fill-rule="evenodd" d="M160.0,243.5 L8.0,243.5 L7.0,242.5 L6.0,242.5 L0.5,237.0 L0.5,236.0 L-0.5,235.0 L-0.5,8.0 L0.5,7.0 L0.5,6.0 L1.5,5.0 L1.5,4.0 L4.0,1.5 L5.0,1.5 L6.0,0.5 L7.0,0.5 L8.0,-0.5 L160.0,-0.5 L161.0,0.5 L162.0,0.5 L167.5,6.0 L167.5,7.0 L168.5,8.0 L168.5,235.0 L167.5,236.0 L167.5,237.0 L166.5,238.0 L166.5,239.0 L164.0,241.5 L163.0,241.5 L162.0,242.5 L161.0,242.5 Z M36.5,33.0 L37.0,32.5 L38.0,32.5 L41.5,29.0 L41.5,24.0 L40.5,23.0 L40.5,22.0 L40.0,21.5 L39.0,21.5 L37.5,20.0 L38.0,19.5 L39.0,19.5 L40.5,18.0 L40.5,13.0 L37.0,9.5 L28.0,9.5 L24.5,13.0 L24.5,18.0 L26.0,19.5 L27.0,19.5 L27.5,20.0 L26.0,21.5 L25.0,21.5 L24.5,22.0 L24.5,23.0 L23.5,24.0 L23.5,29.0 L27.0,32.5 L28.0,32.5 L29.0,33.5 L36.0,33.5 Z M34.0,18.5 L32.0,18.5 L31.0,17.5 L30.0,17.5 L29.5,17.0 L29.5,15.0 L31.0,13.5 L34.0,13.5 L35.5,15.0 L35.5,17.0 Z M35.0,29.5 L30.0,29.5 L29.5,29.0 L29.5,27.0 L28.5,26.0 L29.5,25.0 L29.5,23.0 L30.0,22.5 L35.0,22.5 L35.5,23.0 L35.5,25.0 L36.5,26.0 L35.5,27.0 L35.5,29.0 Z M37.5,70.0 L37.5,68.0 L36.5,67.0 L36.5,65.0 L37.0,64.5 L43.0,64.5 L44.5,63.0 L44.5,62.0 L45.5,61.0 L45.5,57.0 L43.0,54.5 L42.0,54.5 L41.0,53.5 L40.0,53.5 L39.5,53.0 L39.5,52.0 L40.5,51.0 L40.5,50.0 L39.5,49.0 L39.5,47.0 L39.0,46.5 L38.0,45.5 L37.0,45.5 L36.0,44.5 L33.0,44.5 L32.0,45.5 L31.0,45.5 L29.5,47.0 L29.5,49.0 L28.5,50.0 L28.5,51.0 L29.5,52.0 L29.5,53.0 L29.0,53.5 L28.0,53.5 L27.0,54.5 L26.0,54.5 L24.5,56.0 L24.5,57.0 L23.5,58.0 L23.5,61.0 L24.5,62.0 L24.5,63.0 L25.0,63.5 L26.0,63.5 L27.0,64.5 L32.0,64.5 L32.5,65.0 L32.5,67.0 L31.5,68.0 L31.5,70.0 L32.0,70.5 L37.0,70.5 Z M59.5,84.0 L59.5,80.0 L58.5,79.0 L58.5,77.0 L57.5,76.0 L57.5,75.0 L58.0,74.5 L60.0,76.5 L61.0,76.5 L62.0,77.5 L65.0,77.5 L66.0,76.5 L67.0,76.5 L70.5,73.0 L70.5,68.0 L69.5,67.0 L69.5,66.0 L67.0,63.5 L65.0,63.5 L64.0,62.5 L63.0,62.5 L62.5,62.0 L62.5,61.0 L63.5,60.0 L63.5,56.0 L62.5,55.0 L62.5,54.0 L60.0,51.5 L57.0,51.5 L56.0,50.5 L55.0,51.5 L53.0,51.5 L49.5,55.0 L49.5,57.0 L48.5,58.0 L49.5,59.0 L49.5,61.0 L50.5,62.0 L50.0,62.5 L48.0,62.5 L47.0,63.5 L46.0,63.5 L42.5,67.0 L42.5,73.0 L46.0,76.5 L47.0,76.5 L48.0,77.5 L51.0,77.5 L52.0,76.5 L53.0,76.5 L54.0,75.5 L54.5,76.0 L54.5,78.0 L53.5,79.0 L53.5,81.0 L52.5,82.0 L52.5,84.0 L53.0,84.5 L59.0,84.5 Z M115.5,84.0 L115.5,81.0 L114.5,80.0 L114.5,78.0 L113.5,77.0 L113.5,76.0 L114.0,75.5 L115.0,76.5 L116.0,76.5 L117.0,77.5 L121.0,77.5 L122.0,76.5 L123.0,76.5 L125.5,74.0 L125.5,72.0 L126.5,71.0 L126.5,69.0 L125.5,68.0 L125.5,67.0 L122.0,63.5 L121.0,63.5 L120.0,62.5 L118.0,62.5 L117.5,62.0 L118.5,61.0 L118.5,60.0 L119.5,59.0 L119.5,57.0 L118.5,56.0 L118.5,55.0 L115.0,51.5 L113.0,51.5 L112.0,50.5 L111.0,51.5 L109.0,51.5 L108.0,52.5 L107.0,52.5 L105.5,54.0 L105.5,55.0 L104.5,56.0 L104.5,60.0 L105.5,61.0 L105.5,62.0 L105.0,62.5 L104.0,62.5 L103.0,63.5 L102.0,63.5 L98.5,67.0 L98.5,68.0 L97.5,69.0 L97.5,71.0 L98.5,72.0 L98.5,74.0 L101.0,76.5 L102.0,76.5 L103.0,77.5 L107.0,77.5 L108.0,76.5 L109.0,76.5 L109.5,77.0 L109.5,80.0 L108.5,81.0 L108.5,84.0 L109.0,84.5 L115.0,84.5 Z M59.5,119.0 L60.5,118.0 L59.5,117.0 L59.5,115.0 L58.5,114.0 L58.5,112.0 L57.5,111.0 L57.5,110.0 L58.0,109.5 L60.0,111.5 L67.0,111.5 L69.5,109.0 L69.5,108.0 L70.5,107.0 L70.5,102.0 L67.0,98.5 L66.0,98.5 L65.0,97.5 L63.0,97.5 L62.5,97.0 L62.5,96.0 L63.5,95.0 L63.5,91.0 L62.5,90.0 L62.5,89.0 L62.0,88.5 L60.0,86.5 L59.0,86.5 L58.0,85.5 L54.0,85.5 L53.0,86.5 L52.0,86.5 L50.5,88.0 L50.5,89.0 L49.5,90.0 L49.5,92.0 L48.5,93.0 L49.5,94.0 L49.5,96.0 L50.5,97.0 L50.0,97.5 L47.0,97.5 L42.5,102.0 L42.5,108.0 L46.0,111.5 L52.0,111.5 L53.0,110.5 L54.0,110.5 L54.5,111.0 L54.5,112.0 L53.5,113.0 L53.5,115.0 L52.5,116.0 L52.5,119.0 L53.0,119.5 L59.0,119.5 Z M115.5,119.0 L115.5,116.0 L114.5,115.0 L114.5,113.0 L113.5,112.0 L113.5,110.0 L114.0,109.5 L116.0,111.5 L122.0,111.5 L123.0,110.5 L124.0,110.5 L124.5,110.0 L124.5,109.0 L125.5,108.0 L125.5,107.0 L126.5,106.0 L126.5,104.0 L125.5,103.0 L125.5,101.0 L123.0,98.5 L122.0,98.5 L121.0,97.5 L118.0,97.5 L117.5,97.0 L118.5,96.0 L118.5,95.0 L119.5,94.0 L119.5,92.0 L118.5,91.0 L118.5,89.0 L116.0,86.5 L115.0,86.5 L114.0,85.5 L110.0,85.5 L109.0,86.5 L108.0,86.5 L105.5,89.0 L105.5,90.0 L104.5,91.0 L104.5,95.0 L105.5,96.0 L105.5,97.0 L105.0,97.5 L103.0,97.5 L102.0,98.5 L101.0,98.5 L98.5,101.0 L98.5,102.0 L97.5,103.0 L97.5,106.0 L98.5,107.0 L98.5,108.0 L99.5,109.0 L99.5,110.0 L100.0,110.5 L101.0,110.5 L102.0,111.5 L108.0,111.5 L110.0,109.5 L110.5,110.0 L110.5,111.0 L109.5,112.0 L109.5,114.0 L108.5,115.0 L108.5,119.0 L109.0,119.5 L115.0,119.5 Z M60.5,153.0 L59.5,152.0 L59.5,150.0 L58.5,149.0 L58.5,146.0 L59.0,145.5 L60.0,145.5 L61.0,146.5 L66.0,146.5 L70.5,142.0 L70.5,137.0 L69.5,136.0 L69.5,135.0 L68.0,133.5 L67.0,133.5 L66.0,132.5 L62.0,132.5 L61.5,132.0 L63.5,130.0 L63.5,125.0 L63.0,124.5 L59.0,120.5 L54.0,120.5 L53.0,121.5 L52.0,121.5 L49.5,124.0 L49.5,126.0 L48.5,127.0 L48.5,128.0 L49.5,129.0 L49.5,131.0 L50.5,132.0 L50.0,132.5 L47.0,132.5 L46.0,133.5 L45.0,133.5 L43.5,135.0 L43.5,136.0 L42.5,137.0 L42.5,142.0 L43.5,143.0 L43.5,144.0 L45.0,145.5 L46.0,145.5 L47.0,146.5 L52.0,146.5 L54.0,144.5 L54.5,145.0 L54.5,147.0 L53.5,148.0 L53.5,150.0 L52.5,151.0 L52.5,153.0 L53.0,153.5 L60.0,153.5 Z M115.5,153.0 L115.5,151.0 L114.5,150.0 L114.5,147.0 L113.5,146.0 L113.5,145.0 L114.0,144.5 L115.0,145.5 L116.0,145.5 L117.0,146.5 L122.0,146.5 L125.5,143.0 L125.5,142.0 L126.5,141.0 L126.5,138.0 L125.5,137.0 L125.5,136.0 L122.0,132.5 L118.0,132.5 L117.5,132.0 L118.5,131.0 L118.5,129.0 L119.5,128.0 L119.5,127.0 L118.5,126.0 L118.5,124.0 L116.5,122.0 L115.0,120.5 L109.0,120.5 L105.5,124.0 L105.5,125.0 L104.5,126.0 L104.5,129.0 L105.5,130.0 L105.5,131.0 L106.5,132.0 L106.0,132.5 L102.0,132.5 L98.5,136.0 L98.5,137.0 L97.5,138.0 L97.5,141.0 L98.5,142.0 L98.5,143.0 L102.0,146.5 L107.0,146.5 L108.0,145.5 L109.0,145.5 L110.0,144.5 L110.5,145.0 L110.5,146.0 L109.5,147.0 L109.5,149.0 L108.5,150.0 L108.5,152.0 L107.5,153.0 L108.0,153.5 L115.0,153.5 Z M59.5,188.0 L59.5,184.0 L58.5,183.0 L58.5,181.0 L57.5,180.0 L57.5,179.0 L58.0,178.5 L60.0,180.5 L61.0,180.5 L62.0,181.5 L65.0,181.5 L66.0,180.5 L67.0,180.5 L70.5,177.0 L70.5,172.0 L69.5,171.0 L69.5,170.0 L67.0,167.5 L65.0,167.5 L64.0,166.5 L63.0,166.5 L62.5,166.0 L62.5,165.0 L63.5,164.0 L63.5,160.0 L62.5,159.0 L62.5,158.0 L60.0,155.5 L57.0,155.5 L56.0,154.5 L55.0,155.5 L53.0,155.5 L49.5,159.0 L49.5,161.0 L48.5,162.0 L49.5,163.0 L49.5,165.0 L50.5,166.0 L50.0,166.5 L48.0,166.5 L47.0,167.5 L46.0,167.5 L42.5,171.0 L42.5,177.0 L46.0,180.5 L47.0,180.5 L48.0,181.5 L51.0,181.5 L52.0,180.5 L53.0,180.5 L54.0,179.5 L54.5,180.0 L54.5,182.0 L53.5,183.0 L53.5,185.0 L52.5,186.0 L52.5,188.0 L53.0,188.5 L59.0,188.5 Z M135.5,198.0 L136.0,197.5 L137.0,197.5 L138.5,196.0 L138.5,194.0 L139.5,193.0 L139.5,192.0 L138.5,191.0 L138.5,190.0 L139.0,189.5 L140.0,189.5 L141.0,188.5 L142.0,188.5 L143.5,187.0 L143.5,186.0 L144.5,185.0 L144.5,182.0 L143.5,181.0 L143.5,180.0 L143.0,179.5 L142.0,179.5 L141.0,178.5 L136.0,178.5 L135.5,178.0 L135.5,176.0 L136.5,175.0 L136.5,173.0 L136.0,172.5 L131.0,172.5 L130.5,173.0 L130.5,175.0 L131.5,176.0 L131.5,178.0 L131.0,178.5 L126.0,178.5 L125.5,178.0 L125.5,176.0 L126.5,175.0 L126.5,173.0 L125.5,172.0 L125.5,171.0 L122.0,167.5 L121.0,167.5 L120.0,166.5 L118.0,166.5 L117.5,166.0 L118.5,165.0 L118.5,164.0 L119.5,163.0 L119.5,161.0 L118.5,160.0 L118.5,159.0 L115.0,155.5 L113.0,155.5 L112.0,154.5 L111.0,155.5 L109.0,155.5 L108.0,156.5 L107.0,156.5 L105.5,158.0 L105.5,159.0 L104.5,160.0 L104.5,164.0 L105.5,165.0 L105.5,166.0 L105.0,166.5 L104.0,166.5 L103.0,167.5 L102.0,167.5 L98.5,171.0 L98.5,172.0 L97.5,173.0 L97.5,175.0 L98.5,176.0 L98.5,178.0 L101.0,180.5 L102.0,180.5 L103.0,181.5 L107.0,181.5 L108.0,180.5 L109.0,180.5 L109.5,181.0 L109.5,184.0 L108.5,185.0 L108.5,188.0 L109.0,188.5 L115.0,188.5 L115.5,188.0 L115.5,185.0 L114.5,184.0 L114.5,182.0 L113.5,181.0 L113.5,180.0 L114.0,179.5 L115.0,180.5 L116.0,180.5 L117.0,181.5 L121.0,181.5 L122.0,180.5 L123.0,180.5 L123.5,181.0 L122.5,182.0 L122.5,186.0 L125.0,188.5 L126.0,188.5 L127.0,189.5 L128.0,189.5 L128.5,190.0 L128.5,191.0 L127.5,192.0 L127.5,193.0 L128.5,194.0 L128.5,196.0 L130.0,197.5 L131.0,197.5 L132.0,198.5 L135.0,198.5 Z M140.5,233.0 L143.5,230.0 L143.5,225.0 L142.0,223.5 L141.0,223.5 L140.5,223.0 L142.0,221.5 L143.0,221.5 L143.5,221.0 L143.5,220.0 L144.5,219.0 L144.5,214.0 L141.0,210.5 L140.0,210.5 L139.0,209.5 L132.0,209.5 L131.0,210.5 L130.0,210.5 L126.5,214.0 L126.5,219.0 L127.5,220.0 L127.5,221.0 L128.0,221.5 L129.0,221.5 L130.5,223.0 L130.0,223.5 L129.0,223.5 L127.5,225.0 L127.5,230.0 L131.0,233.5 L140.0,233.5 Z M138.0,220.5 L133.0,220.5 L132.5,220.0 L132.5,218.0 L131.5,217.0 L132.5,216.0 L132.5,214.0 L133.0,213.5 L138.0,213.5 L138.5,214.0 L138.5,216.0 L139.5,217.0 L138.5,218.0 L138.5,220.0 Z M137.0,229.5 L134.0,229.5 L132.5,228.0 L132.5,226.0 L134.0,224.5 L136.0,224.5 L137.0,225.5 L138.0,225.5 L138.5,226.0 L138.5,228.0 Z"/><path fill="#020202" fill-rule="evenodd" d="M35.0,33.5 L30.0,33.5 L29.0,32.5 L27.0,32.5 L24.5,30.0 L24.5,28.0 L23.5,27.0 L23.5,26.0 L24.5,25.0 L24.5,23.0 L26.0,21.5 L27.0,21.5 L28.5,20.0 L28.0,19.5 L27.0,19.5 L24.5,17.0 L24.5,13.0 L27.0,10.5 L29.0,10.5 L30.0,9.5 L35.0,9.5 L36.0,10.5 L38.0,10.5 L40.5,13.0 L40.5,17.0 L38.0,19.5 L37.0,19.5 L36.5,20.0 L37.0,20.5 L38.0,20.5 L40.5,23.0 L40.5,24.0 L41.5,25.0 L41.5,27.0 L40.5,28.0 L40.5,30.0 L39.5,31.0 L38.0,32.5 L36.0,32.5 Z M34.5,18.0 L35.5,17.0 L35.5,14.0 L34.0,12.5 L31.0,12.5 L29.5,14.0 L29.5,17.0 L31.0,18.5 L34.0,18.5 Z M34.5,30.0 L36.5,28.0 L36.5,24.0 L34.0,21.5 L31.0,21.5 L28.5,24.0 L28.5,28.0 L31.0,30.5 L34.0,30.5 Z M36.0,69.5 L33.0,69.5 L32.5,69.0 L32.5,67.0 L33.5,66.0 L33.5,63.0 L33.0,62.5 L31.0,64.5 L27.0,64.5 L24.5,62.0 L24.5,57.0 L27.0,54.5 L30.0,54.5 L30.5,54.0 L30.5,53.0 L29.5,52.0 L29.5,48.0 L32.0,45.5 L37.0,45.5 L39.5,48.0 L39.5,52.0 L38.5,53.0 L38.5,54.0 L39.0,54.5 L42.0,54.5 L44.5,57.0 L44.5,62.0 L42.0,64.5 L38.0,64.5 L36.0,62.5 L35.5,63.0 L35.5,66.0 L36.5,67.0 L36.5,69.0 Z M59.0,83.5 L53.0,83.5 L52.5,83.0 L53.5,82.0 L53.5,80.0 L54.5,79.0 L54.5,77.0 L55.5,76.0 L55.5,75.0 L55.0,74.5 L54.0,74.5 L52.0,76.5 L46.0,76.5 L43.5,74.0 L43.5,73.0 L42.5,72.0 L42.5,68.0 L43.5,67.0 L43.5,66.0 L44.0,65.5 L45.0,65.5 L47.0,63.5 L51.0,63.5 L51.5,63.0 L50.5,62.0 L50.5,61.0 L49.5,60.0 L49.5,56.0 L50.5,55.0 L50.5,54.0 L52.0,52.5 L53.0,52.5 L54.0,51.5 L59.0,51.5 L62.5,55.0 L62.5,61.0 L61.5,62.0 L61.5,63.0 L62.0,63.5 L66.0,63.5 L69.5,67.0 L69.5,73.0 L68.5,74.0 L68.5,75.0 L68.0,75.5 L67.0,75.5 L66.0,76.5 L61.0,76.5 L60.0,75.5 L59.0,75.5 L58.0,74.5 L57.5,75.0 L57.5,78.0 L58.5,79.0 L58.5,81.0 L59.5,82.0 L59.5,83.0 Z M115.0,83.5 L109.0,83.5 L108.5,83.0 L108.5,82.0 L109.5,81.0 L109.5,79.0 L110.5,78.0 L110.5,76.0 L111.5,75.0 L111.0,74.5 L110.0,74.5 L108.0,76.5 L102.0,76.5 L98.5,73.0 L98.5,68.0 L99.5,67.0 L99.5,66.0 L101.0,64.5 L102.0,64.5 L103.0,63.5 L106.0,63.5 L106.5,63.0 L106.5,62.0 L105.5,61.0 L105.5,55.0 L108.0,52.5 L109.0,52.5 L110.0,51.5 L114.0,51.5 L115.0,52.5 L116.0,52.5 L117.5,54.0 L117.5,55.0 L118.5,56.0 L118.5,61.0 L116.5,63.0 L117.0,63.5 L121.0,63.5 L122.0,64.5 L123.0,64.5 L124.5,66.0 L124.5,67.0 L125.5,68.0 L125.5,73.0 L122.0,76.5 L116.0,76.5 L114.0,74.5 L113.0,74.5 L112.5,75.0 L112.5,76.0 L113.5,77.0 L113.5,79.0 L114.5,80.0 L114.5,82.0 L115.5,83.0 Z M59.0,118.5 L53.0,118.5 L52.5,118.0 L53.5,117.0 L53.5,115.0 L54.5,114.0 L54.5,112.0 L55.5,111.0 L55.5,110.0 L55.0,109.5 L54.0,109.5 L53.0,110.5 L52.0,110.5 L51.0,111.5 L47.0,111.5 L46.0,110.5 L45.0,110.5 L44.5,110.0 L44.5,109.0 L42.5,107.0 L42.5,103.0 L43.5,102.0 L43.5,101.0 L46.0,98.5 L51.0,98.5 L51.5,98.0 L50.5,97.0 L50.5,96.0 L49.5,95.0 L49.5,91.0 L50.5,90.0 L50.5,89.0 L53.0,86.5 L59.0,86.5 L60.0,87.5 L61.0,87.5 L61.5,88.0 L61.5,89.0 L62.5,90.0 L62.5,96.0 L61.5,97.0 L61.5,98.0 L62.0,98.5 L66.0,98.5 L67.0,99.5 L68.0,99.5 L69.5,101.0 L69.5,108.0 L67.0,110.5 L66.0,110.5 L65.0,111.5 L61.0,111.5 L58.0,108.5 L57.5,109.0 L57.5,112.0 L58.5,113.0 L58.5,116.0 L59.5,117.0 L59.5,118.0 Z M115.0,118.5 L109.0,118.5 L108.5,118.0 L108.5,117.0 L109.5,116.0 L109.5,114.0 L110.5,113.0 L110.5,110.0 L110.0,109.5 L109.0,110.5 L108.0,110.5 L107.0,111.5 L103.0,111.5 L102.0,110.5 L101.0,110.5 L99.5,109.0 L99.5,108.0 L98.5,107.0 L98.5,102.0 L102.0,98.5 L106.0,98.5 L106.5,98.0 L106.5,97.0 L105.5,96.0 L105.5,90.0 L109.0,86.5 L115.0,86.5 L118.5,90.0 L118.5,95.0 L117.5,96.0 L117.5,97.0 L116.5,98.0 L117.0,98.5 L122.0,98.5 L125.5,102.0 L125.5,107.0 L124.5,108.0 L124.5,109.0 L123.0,110.5 L122.0,110.5 L121.0,111.5 L117.0,111.5 L116.0,110.5 L115.0,110.5 L113.0,108.5 L112.5,109.0 L112.5,110.0 L113.5,111.0 L113.5,114.0 L114.5,115.0 L114.5,117.0 L115.5,118.0 Z M59.0,153.5 L53.0,153.5 L52.5,153.0 L53.5,152.0 L53.5,150.0 L54.5,149.0 L54.5,146.0 L55.5,145.0 L55.5,144.0 L55.0,143.5 L53.0,145.5 L51.0,145.5 L50.0,146.5 L48.0,146.5 L47.0,145.5 L46.0,145.5 L44.5,144.0 L43.5,143.0 L43.5,142.0 L42.5,141.0 L42.5,138.0 L43.5,137.0 L43.5,136.0 L46.0,133.5 L47.0,133.5 L48.0,132.5 L51.0,132.5 L51.5,132.0 L49.5,130.0 L49.5,125.0 L53.0,121.5 L54.0,121.5 L55.0,120.5 L58.0,120.5 L59.0,121.5 L60.0,121.5 L62.5,124.0 L62.5,126.0 L63.5,127.0 L62.5,128.0 L62.5,131.0 L61.5,132.0 L62.0,132.5 L65.0,132.5 L66.0,133.5 L67.0,133.5 L69.5,136.0 L69.5,143.0 L67.0,145.5 L65.0,145.5 L64.0,146.5 L63.0,146.5 L62.0,145.5 L60.0,145.5 L58.0,143.5 L57.0,143.5 L56.5,144.0 L57.5,145.0 L57.5,147.0 L58.5,148.0 L58.5,150.0 L59.5,151.0 L59.5,153.0 Z M115.0,153.5 L109.0,153.5 L108.5,153.0 L108.5,152.0 L109.5,151.0 L109.5,148.0 L110.5,147.0 L110.5,145.0 L111.5,144.0 L111.0,143.5 L110.0,143.5 L108.0,145.5 L107.0,145.5 L106.0,146.5 L104.0,146.5 L103.0,145.5 L102.0,145.5 L101.0,144.5 L100.0,144.5 L99.5,144.0 L99.5,143.0 L98.5,142.0 L98.5,137.0 L99.5,136.0 L99.5,135.0 L101.0,133.5 L103.0,133.5 L104.0,132.5 L106.0,132.5 L106.5,132.0 L106.5,131.0 L105.5,130.0 L105.5,125.0 L106.5,124.0 L106.5,123.0 L108.0,121.5 L109.0,121.5 L110.0,120.5 L113.0,120.5 L114.0,121.5 L115.0,121.5 L118.5,125.0 L118.5,130.0 L116.5,132.0 L117.0,132.5 L120.0,132.5 L121.0,133.5 L123.0,133.5 L124.5,135.0 L124.5,136.0 L125.5,137.0 L125.5,142.0 L124.5,143.0 L124.5,144.0 L124.0,144.5 L123.0,144.5 L122.0,145.5 L121.0,145.5 L120.0,146.5 L118.0,146.5 L117.0,145.5 L116.0,145.5 L114.0,143.5 L113.0,143.5 L112.5,144.0 L112.5,145.0 L113.5,146.0 L113.5,148.0 L114.5,149.0 L114.5,151.0 L115.5,152.0 L115.5,153.0 Z M59.0,187.5 L53.0,187.5 L52.5,187.0 L53.5,186.0 L53.5,184.0 L54.5,183.0 L54.5,181.0 L55.5,180.0 L55.5,179.0 L55.0,178.5 L54.0,178.5 L52.0,180.5 L46.0,180.5 L43.5,178.0 L43.5,177.0 L42.5,176.0 L42.5,172.0 L47.0,167.5 L51.0,167.5 L51.5,167.0 L50.5,166.0 L50.5,165.0 L49.5,164.0 L49.5,160.0 L50.5,159.0 L50.5,158.0 L52.0,156.5 L53.0,156.5 L54.0,155.5 L59.0,155.5 L62.5,159.0 L62.5,165.0 L60.5,167.0 L61.0,167.5 L66.0,167.5 L69.5,171.0 L69.5,177.0 L68.5,178.0 L68.5,179.0 L68.0,179.5 L67.0,179.5 L66.0,180.5 L61.0,180.5 L60.0,179.5 L59.0,179.5 L58.0,178.5 L57.5,179.0 L57.5,182.0 L58.5,183.0 L58.5,185.0 L59.5,186.0 L59.5,187.0 Z M115.0,187.5 L109.0,187.5 L108.5,187.0 L108.5,186.0 L109.5,185.0 L109.5,183.0 L110.5,182.0 L110.5,180.0 L111.5,179.0 L111.0,178.5 L110.0,178.5 L108.0,180.5 L102.0,180.5 L98.5,177.0 L98.5,172.0 L99.5,171.0 L99.5,170.0 L101.0,168.5 L102.0,168.5 L103.0,167.5 L106.0,167.5 L106.5,167.0 L106.5,166.0 L105.5,165.0 L105.5,159.0 L108.0,156.5 L109.0,156.5 L110.0,155.5 L114.0,155.5 L115.0,156.5 L116.0,156.5 L117.5,158.0 L117.5,159.0 L118.5,160.0 L118.5,165.0 L116.5,167.0 L117.0,167.5 L121.0,167.5 L122.0,168.5 L123.0,168.5 L124.5,170.0 L124.5,171.0 L125.5,172.0 L125.5,177.0 L122.0,180.5 L116.0,180.5 L114.0,178.5 L113.0,178.5 L112.5,179.0 L112.5,180.0 L113.5,181.0 L113.5,183.0 L114.5,184.0 L114.5,186.0 L115.5,187.0 Z M136.0,197.5 L131.0,197.5 L128.5,195.0 L128.5,191.0 L129.5,190.0 L129.5,189.0 L129.0,188.5 L126.0,188.5 L123.5,186.0 L123.5,181.0 L126.0,178.5 L130.0,178.5 L132.0,180.5 L132.5,180.0 L132.5,177.0 L131.5,176.0 L131.5,174.0 L132.0,173.5 L135.0,173.5 L135.5,174.0 L135.5,176.0 L134.5,177.0 L134.5,180.0 L135.0,180.5 L137.0,178.5 L141.0,178.5 L143.5,181.0 L143.5,186.0 L141.0,188.5 L138.0,188.5 L137.5,189.0 L137.5,190.0 L138.5,191.0 L138.5,195.0 Z M138.0,233.5 L133.0,233.5 L132.0,232.5 L130.0,232.5 L127.5,230.0 L127.5,226.0 L130.0,223.5 L131.0,223.5 L131.5,223.0 L131.0,222.5 L130.0,222.5 L127.5,220.0 L127.5,219.0 L126.5,218.0 L126.5,216.0 L127.5,215.0 L127.5,213.0 L130.0,210.5 L132.0,210.5 L133.0,209.5 L138.0,209.5 L139.0,210.5 L140.0,210.5 L141.0,211.5 L142.0,211.5 L143.5,213.0 L143.5,215.0 L144.5,216.0 L144.5,217.0 L143.5,218.0 L143.5,220.0 L142.0,221.5 L141.0,221.5 L139.5,223.0 L140.0,223.5 L141.0,223.5 L143.5,226.0 L143.5,230.0 L141.0,232.5 L139.0,232.5 Z M137.5,221.0 L139.5,219.0 L139.5,215.0 L137.0,212.5 L134.0,212.5 L131.5,215.0 L131.5,219.0 L134.0,221.5 L137.0,221.5 Z M137.5,230.0 L138.5,229.0 L138.5,226.0 L137.0,224.5 L134.0,224.5 L132.5,226.0 L132.5,229.0 L134.0,230.5 L137.0,230.5 Z"/><path fill="#a1a1a1" fill-rule="evenodd" d="M33.0,13.5 L32.0,13.5 L31.5,13.0 L32.0,12.5 L33.0,12.5 L33.5,13.0 Z M33.0,22.5 L32.0,22.5 L31.5,22.0 L32.0,21.5 L33.0,21.5 L33.5,22.0 Z M33.0,30.5 L32.0,30.5 L31.5,30.0 L32.0,29.5 L33.0,29.5 L33.5,30.0 Z M29.0,51.5 L28.5,51.0 L28.5,50.0 L29.0,49.5 L29.5,50.0 L29.5,51.0 Z M40.0,51.5 L39.5,51.0 L39.5,50.0 L40.0,49.5 L40.5,50.0 L40.5,51.0 Z M30.0,54.5 L28.0,54.5 L27.5,54.0 L28.0,53.5 L30.0,53.5 L30.5,54.0 Z M41.0,54.5 L39.0,54.5 L38.5,54.0 L39.0,53.5 L41.0,53.5 L41.5,54.0 Z M105.0,57.5 L104.5,57.0 L104.5,56.0 L105.0,55.5 L105.5,56.0 L105.5,57.0 Z M119.0,59.5 L118.5,59.0 L118.5,58.0 L118.5,57.0 L119.0,56.5 L119.5,57.0 L119.5,59.0 Z M106.0,63.5 L104.0,63.5 L103.5,63.0 L104.0,62.5 L105.0,62.5 L106.0,61.5 L106.5,62.0 L106.5,63.0 Z M50.0,63.5 L48.0,63.5 L47.5,63.0 L48.0,62.5 L50.0,62.5 L50.5,63.0 Z M64.0,63.5 L62.0,63.5 L61.5,63.0 L62.0,62.5 L64.0,62.5 L64.5,63.0 Z M120.0,63.5 L117.0,63.5 L116.5,63.0 L117.0,62.5 L120.0,62.5 L120.5,63.0 Z M126.0,71.5 L125.5,71.0 L125.5,69.0 L126.0,68.5 L126.5,69.0 L126.5,71.0 Z M114.0,75.5 L113.0,75.5 L112.5,75.0 L113.0,74.5 L114.0,74.5 L114.5,75.0 Z M51.0,77.5 L50.0,77.5 L49.5,77.0 L50.0,76.5 L51.0,76.5 L51.5,77.0 Z M65.0,77.5 L62.0,77.5 L61.5,77.0 L62.0,76.5 L65.0,76.5 L65.5,77.0 Z M104.0,77.5 L103.0,77.5 L102.5,77.0 L103.0,76.5 L104.0,76.5 L104.5,77.0 Z M107.0,77.5 L106.0,77.5 L105.5,77.0 L106.0,76.5 L107.0,76.5 L107.5,77.0 Z M121.0,77.5 L117.0,77.5 L116.5,77.0 L117.0,76.5 L121.0,76.5 L121.5,77.0 Z M119.0,94.5 L118.5,94.0 L118.5,92.0 L119.0,91.5 L119.5,92.0 L119.5,94.0 Z M105.0,95.5 L104.5,95.0 L104.5,94.0 L105.0,93.5 L105.5,94.0 L105.5,95.0 Z M126.0,106.5 L125.5,106.0 L125.5,104.0 L126.0,103.5 L126.5,104.0 L126.5,106.0 Z M98.0,106.5 L97.5,106.0 L97.5,105.0 L98.0,104.5 L98.5,105.0 L98.5,106.0 Z M55.0,110.5 L54.0,110.5 L53.5,110.0 L54.0,109.5 L55.0,109.5 L55.5,110.0 Z M59.0,119.5 L53.0,119.5 L52.5,119.0 L53.0,118.5 L59.0,118.5 L59.5,119.0 Z M115.0,119.5 L109.0,119.5 L108.5,119.0 L109.0,118.5 L115.0,118.5 L115.5,119.0 Z M49.0,128.5 L48.5,128.0 L48.5,127.0 L49.0,126.5 L49.5,127.0 L49.5,128.0 Z M119.0,128.5 L118.5,128.0 L118.5,127.0 L119.0,126.5 L119.5,127.0 L119.5,128.0 Z M126.0,141.5 L125.5,141.0 L125.5,138.0 L126.0,137.5 L126.5,138.0 L126.5,141.0 Z M98.0,141.5 L97.5,141.0 L97.5,140.0 L98.0,139.5 L98.5,140.0 L98.5,141.0 Z M105.0,161.5 L104.5,161.0 L104.5,160.0 L105.0,159.5 L105.5,160.0 L105.5,161.0 Z M119.0,163.5 L118.5,163.0 L118.5,161.0 L119.0,160.5 L119.5,161.0 L119.5,163.0 Z M106.0,167.5 L104.0,167.5 L103.5,167.0 L104.0,166.5 L105.0,166.5 L106.0,165.5 L106.5,166.0 L106.5,167.0 Z M50.0,167.5 L48.0,167.5 L47.5,167.0 L48.0,166.5 L50.0,166.5 L50.5,167.0 Z M64.0,167.5 L62.0,167.5 L61.5,167.0 L62.0,166.5 L64.0,166.5 L64.5,167.0 Z M120.0,167.5 L117.0,167.5 L116.5,167.0 L117.0,166.5 L120.0,166.5 L120.5,167.0 Z M126.0,175.5 L125.5,175.0 L125.5,174.0 L125.5,173.0 L126.0,172.5 L126.5,173.0 L126.5,175.0 Z M125.0,179.5 L124.5,179.0 L124.5,178.0 L125.0,177.5 L125.5,178.0 L125.5,179.0 Z M114.0,179.5 L113.0,179.5 L112.5,179.0 L113.0,178.5 L114.0,178.5 L114.5,179.0 Z M124.0,180.5 L123.0,180.5 L122.5,180.0 L123.0,179.5 L124.0,179.5 L124.5,180.0 Z M51.0,181.5 L50.0,181.5 L49.5,181.0 L50.0,180.5 L51.0,180.5 L51.5,181.0 Z M65.0,181.5 L62.0,181.5 L61.5,181.0 L62.0,180.5 L65.0,180.5 L65.5,181.0 Z M104.0,181.5 L103.0,181.5 L102.5,181.0 L103.0,180.5 L104.0,180.5 L104.5,181.0 Z M107.0,181.5 L106.0,181.5 L105.5,181.0 L106.0,180.5 L107.0,180.5 L107.5,181.0 Z M121.0,181.5 L117.0,181.5 L116.5,181.0 L117.0,180.5 L121.0,180.5 L121.5,181.0 Z M129.0,189.5 L127.0,189.5 L126.5,189.0 L127.0,188.5 L129.0,188.5 L129.5,189.0 Z M140.0,189.5 L138.0,189.5 L137.5,189.0 L138.0,188.5 L140.0,188.5 L140.5,189.0 Z M128.0,193.5 L127.5,193.0 L127.5,192.0 L128.0,191.5 L128.5,192.0 L128.5,193.0 Z M139.0,193.5 L138.5,193.0 L138.5,192.0 L139.0,191.5 L139.5,192.0 L139.5,193.0 Z M136.0,213.5 L135.0,213.5 L134.5,213.0 L135.0,212.5 L136.0,212.5 L136.5,213.0 Z M136.0,221.5 L135.0,221.5 L134.5,221.0 L135.0,220.5 L136.0,220.5 L136.5,221.0 Z M136.0,230.5 L135.0,230.5 L134.5,230.0 L135.0,229.5 L136.0,229.5 L136.5,230.0 Z"/><path fill="#606060" fill-rule="evenodd" d="M35.0,45.5 L34.0,45.5 L33.5,45.0 L34.0,44.5 L35.0,44.5 L35.5,45.0 Z M63.0,59.5 L62.5,59.0 L62.5,57.0 L63.0,56.5 L63.5,57.0 L63.5,59.0 Z M45.0,61.5 L44.5,61.0 L44.5,58.0 L45.0,57.5 L45.5,58.0 L45.5,61.0 Z M105.0,59.5 L104.5,59.0 L104.5,58.0 L105.0,57.5 L105.5,58.0 L105.5,59.0 Z M24.0,60.5 L23.5,60.0 L23.5,59.0 L24.0,58.5 L24.5,59.0 L24.5,60.0 Z M70.0,72.5 L69.5,72.0 L69.5,68.0 L70.0,67.5 L70.5,68.0 L70.5,72.0 Z M36.0,70.5 L33.0,70.5 L32.5,70.0 L33.0,69.5 L36.0,69.5 L36.5,70.0 Z M59.0,84.5 L53.0,84.5 L52.5,84.0 L53.0,83.5 L59.0,83.5 L59.5,84.0 Z M115.0,84.5 L109.0,84.5 L108.5,84.0 L109.0,83.5 L115.0,83.5 L115.5,84.0 Z M57.0,86.5 L55.0,86.5 L54.5,86.0 L55.0,85.5 L57.0,85.5 L57.5,86.0 Z M113.0,86.5 L111.0,86.5 L110.5,86.0 L111.0,85.5 L113.0,85.5 L113.5,86.0 Z M63.0,94.5 L62.5,94.0 L62.5,92.0 L63.0,91.5 L63.5,92.0 L63.5,94.0 Z M105.0,93.5 L104.5,93.0 L104.5,92.0 L105.0,91.5 L105.5,92.0 L105.5,93.0 Z M51.0,98.5 L48.0,98.5 L47.5,98.0 L48.0,97.5 L51.0,97.5 L51.5,98.0 Z M65.0,98.5 L62.0,98.5 L61.5,98.0 L62.0,97.5 L65.0,97.5 L65.5,98.0 Z M106.0,98.5 L104.0,98.5 L103.5,98.0 L104.0,97.5 L106.0,97.5 L106.5,98.0 Z M120.0,98.5 L117.0,98.5 L116.5,98.0 L117.0,97.5 L120.0,97.5 L120.5,98.0 Z M70.0,107.5 L69.5,107.0 L69.5,103.0 L70.0,102.5 L70.5,103.0 L70.5,107.0 Z M113.0,110.5 L112.5,110.0 L112.5,109.0 L113.0,108.5 L113.5,109.0 L113.5,110.0 Z M105.0,128.5 L104.5,128.0 L104.5,127.0 L105.0,126.5 L105.5,127.0 L105.5,128.0 Z M63.0,129.5 L62.5,129.0 L62.5,128.0 L63.0,127.5 L63.5,128.0 L63.5,129.0 Z M70.0,141.5 L69.5,141.0 L69.5,138.0 L70.0,137.5 L70.5,138.0 L70.5,141.0 Z M55.0,145.5 L54.5,145.0 L54.5,144.0 L55.0,143.5 L55.5,144.0 L55.5,145.0 Z M111.0,144.5 L110.0,144.5 L109.5,144.0 L110.0,143.5 L111.0,143.5 L111.5,144.0 Z M62.0,146.5 L61.0,146.5 L60.5,146.0 L61.0,145.5 L62.0,145.5 L62.5,146.0 Z M63.0,163.5 L62.5,163.0 L62.5,161.0 L63.0,160.5 L63.5,161.0 L63.5,163.0 Z M105.0,163.5 L104.5,163.0 L104.5,162.0 L105.0,161.5 L105.5,162.0 L105.5,163.0 Z M70.0,176.5 L69.5,176.0 L69.5,174.0 L69.5,172.0 L70.0,171.5 L70.5,172.0 L70.5,176.0 Z M135.0,173.5 L132.0,173.5 L131.5,173.0 L132.0,172.5 L135.0,172.5 L135.5,173.0 Z M123.0,185.5 L122.5,185.0 L122.5,182.0 L123.0,181.5 L123.5,182.0 L123.5,185.0 Z M144.0,184.5 L143.5,184.0 L143.5,183.0 L144.0,182.5 L144.5,183.0 L144.5,184.0 Z M59.0,188.5 L53.0,188.5 L52.5,188.0 L53.0,187.5 L59.0,187.5 L59.5,188.0 Z M115.0,188.5 L109.0,188.5 L108.5,188.0 L109.0,187.5 L115.0,187.5 L115.5,188.0 Z M134.0,198.5 L133.0,198.5 L132.5,198.0 L133.0,197.5 L134.0,197.5 L134.5,198.0 Z"/></svg>