
<svg width="169" height="244" viewBox="0 0 169 244" fill="none" xmlns="http://www.w3.org/2000/svg">
  <!-- 카드 배경 -->
  <rect width="169" height="244" rx="12" fill="white" stroke="#E5E5E5"/>
  
  <!-- 좌상단 숫자와 무늬 -->
  <g transform="translate(20, 30)">
    <text font-family="Arial" font-size="24" font-weight="bold" fill="#000000" x="-8">10</text>
    <g transform="translate(8, 14) scale(0.8)">
      
        <path d="M0,-8 a5.5,5.5 0 1,0 0.1,0 Z" fill="black" />
        <path d="M-5,-2 a5.5,5.5 0 1,0 0.1,0 Z" fill="black" />
        <path d="M5,-2 a5.5,5.5 0 1,0 0.1,0 Z" fill="black" />
        <path d="M0,5 L-3,13 L3,13 Z" fill="black" />
    </g>
  </g>
  
  <!-- 우하단 숫자와 무늬 (180도 회전) -->
  <g transform="translate(149, 214) rotate(180)">
    <text font-family="Arial" font-size="24" font-weight="bold" fill="#000000" x="-8">10</text>
    <g transform="translate(8, 14) scale(0.8)">
      
        <path d="M0,-8 a5.5,5.5 0 1,0 0.1,0 Z" fill="black" />
        <path d="M-5,-2 a5.5,5.5 0 1,0 0.1,0 Z" fill="black" />
        <path d="M5,-2 a5.5,5.5 0 1,0 0.1,0 Z" fill="black" />
        <path d="M0,5 L-3,13 L3,13 Z" fill="black" />
    </g>
  </g>
  
  <!-- 중앙 무늬들 -->
  
    <g transform="translate(59.5, 72)">
      
        <path d="M0,-9.6 a6.6,6.6 0 1,0 0.12,0 Z" fill="black" />
        <path d="M-6,-2.4 a6.6,6.6 0 1,0 0.12,0 Z" fill="black" />
        <path d="M6,-2.4 a6.6,6.6 0 1,0 0.12,0 Z" fill="black" />
        <path d="M0,6 L-3.5999999999999996,15.6 L3.5999999999999996,15.6 Z" fill="black" />
    </g>
  
    <g transform="translate(109.5, 72)">
      
        <path d="M0,-9.6 a6.6,6.6 0 1,0 0.12,0 Z" fill="black" />
        <path d="M-6,-2.4 a6.6,6.6 0 1,0 0.12,0 Z" fill="black" />
        <path d="M6,-2.4 a6.6,6.6 0 1,0 0.12,0 Z" fill="black" />
        <path d="M0,6 L-3.5999999999999996,15.6 L3.5999999999999996,15.6 Z" fill="black" />
    </g>
  
    <g transform="translate(59.5, 102)">
      
        <path d="M0,-9.6 a6.6,6.6 0 1,0 0.12,0 Z" fill="black" />
        <path d="M-6,-2.4 a6.6,6.6 0 1,0 0.12,0 Z" fill="black" />
        <path d="M6,-2.4 a6.6,6.6 0 1,0 0.12,0 Z" fill="black" />
        <path d="M0,6 L-3.5999999999999996,15.6 L3.5999999999999996,15.6 Z" fill="black" />
    </g>
  
    <g transform="translate(84.5, 102)">
      
        <path d="M0,-9.6 a6.6,6.6 0 1,0 0.12,0 Z" fill="black" />
        <path d="M-6,-2.4 a6.6,6.6 0 1,0 0.12,0 Z" fill="black" />
        <path d="M6,-2.4 a6.6,6.6 0 1,0 0.12,0 Z" fill="black" />
        <path d="M0,6 L-3.5999999999999996,15.6 L3.5999999999999996,15.6 Z" fill="black" />
    </g>
  
    <g transform="translate(109.5, 102)">
      
        <path d="M0,-9.6 a6.6,6.6 0 1,0 0.12,0 Z" fill="black" />
        <path d="M-6,-2.4 a6.6,6.6 0 1,0 0.12,0 Z" fill="black" />
        <path d="M6,-2.4 a6.6,6.6 0 1,0 0.12,0 Z" fill="black" />
        <path d="M0,6 L-3.5999999999999996,15.6 L3.5999999999999996,15.6 Z" fill="black" />
    </g>
  
    <g transform="translate(59.5, 132)">
      
        <path d="M0,-9.6 a6.6,6.6 0 1,0 0.12,0 Z" fill="black" />
        <path d="M-6,-2.4 a6.6,6.6 0 1,0 0.12,0 Z" fill="black" />
        <path d="M6,-2.4 a6.6,6.6 0 1,0 0.12,0 Z" fill="black" />
        <path d="M0,6 L-3.5999999999999996,15.6 L3.5999999999999996,15.6 Z" fill="black" />
    </g>
  
    <g transform="translate(84.5, 132)">
      
        <path d="M0,-9.6 a6.6,6.6 0 1,0 0.12,0 Z" fill="black" />
        <path d="M-6,-2.4 a6.6,6.6 0 1,0 0.12,0 Z" fill="black" />
        <path d="M6,-2.4 a6.6,6.6 0 1,0 0.12,0 Z" fill="black" />
        <path d="M0,6 L-3.5999999999999996,15.6 L3.5999999999999996,15.6 Z" fill="black" />
    </g>
  
    <g transform="translate(109.5, 132)">
      
        <path d="M0,-9.6 a6.6,6.6 0 1,0 0.12,0 Z" fill="black" />
        <path d="M-6,-2.4 a6.6,6.6 0 1,0 0.12,0 Z" fill="black" />
        <path d="M6,-2.4 a6.6,6.6 0 1,0 0.12,0 Z" fill="black" />
        <path d="M0,6 L-3.5999999999999996,15.6 L3.5999999999999996,15.6 Z" fill="black" />
    </g>
  
    <g transform="translate(59.5, 162)">
      
        <path d="M0,-9.6 a6.6,6.6 0 1,0 0.12,0 Z" fill="black" />
        <path d="M-6,-2.4 a6.6,6.6 0 1,0 0.12,0 Z" fill="black" />
        <path d="M6,-2.4 a6.6,6.6 0 1,0 0.12,0 Z" fill="black" />
        <path d="M0,6 L-3.5999999999999996,15.6 L3.5999999999999996,15.6 Z" fill="black" />
    </g>
  
    <g transform="translate(109.5, 162)">
      
        <path d="M0,-9.6 a6.6,6.6 0 1,0 0.12,0 Z" fill="black" />
        <path d="M-6,-2.4 a6.6,6.6 0 1,0 0.12,0 Z" fill="black" />
        <path d="M6,-2.4 a6.6,6.6 0 1,0 0.12,0 Z" fill="black" />
        <path d="M0,6 L-3.5999999999999996,15.6 L3.5999999999999996,15.6 Z" fill="black" />
    </g>
  
</svg>
