<svg xmlns="http://www.w3.org/2000/svg" width="169" height="244" viewBox="0 0 169 244" fill="none">
  
  <rect width="169" height="244" rx="12" fill="white" stroke="#E5E5E5" />
  
  
  <g transform="translate(84.5 122) scale(1.07) translate(-84.5 -122)"><g transform="translate(20, 30)">
    <text font-family="Arial" font-size="24" font-weight="bold" fill="#000000">J</text>
    <g transform="translate(8, 14) scale(0.8)">
      
        <path d="M8.993,5.021 L8.903,5.119 L8.885,5.552 L8.453,6.416 L8.245,6.632 L8.01,7.065 L7.48,7.567 L7.264,7.632 L6.832,8.023 L6.616,8.037 L6.4,8.247 L5.967,8.277 L5.751,8.469 L3.374,8.434 L3.158,8.255 L2.942,8.253 L2.726,8.073 L2.509,8.037 L2.293,7.84 L2.077,7.814 L0.781,6.524 L0.672,6.632 L0.688,7.281 L0.878,7.497 L0.889,7.929 L1.043,8.145 L1.105,8.577 L1.32,9.01 L1.328,9.442 L1.531,9.658 L1.542,10.09 L1.738,10.306 L1.753,10.739 L1.969,11.171 L2.02,11.603 L2.184,11.819 L2.192,12.251 L2.382,12.468 L2.401,12.9 L2.293,13.008 L-2.245,13.008 L-2.353,12.9 L-2.353,12.684 L-2.197,12.468 L-2.137,12.035 L-1.921,11.603 L-1.91,11.171 L-1.71,10.955 L-1.7,10.522 L-1.5,10.306 L-1.488,9.874 L-1.273,9.442 L-1.219,9.01 L-1.058,8.794 L-1.051,8.361 L-0.859,8.145 L-0.84,7.713 L-0.655,7.497 L-0.615,6.848 L-0.732,6.737 L-1.813,7.817 L-2.029,7.836 L-2.245,8.037 L-2.461,8.064 L-2.677,8.253 L-2.894,8.254 L-3.11,8.422 L-4.406,8.496 L-5.487,8.469 L-5.703,8.286 L-6.135,8.248 L-6.351,8.037 L-6.568,8.025 L-7,7.638 L-7.216,7.584 L-7.432,7.387 L-7.913,6.848 L-7.977,6.632 L-8.337,6.2 L-8.472,5.768 L-8.621,5.552 L-8.676,5.119 L-8.821,4.903 L-8.837,3.391 L-8.801,3.174 L-8.638,2.958 L-8.621,2.526 L-8.423,2.31 L-8.405,2.094 L-8.197,1.878 L-8.186,1.662 L-6.784,0.258 L-6.568,0.226 L-6.351,0.041 L-6.135,0.018 L-5.919,-0.175 L-5.487,-0.188 L-5.271,-0.383 L-3.542,-0.388 L-3.11,-0.175 L-3.002,-0.283 L-3.622,-0.932 L-3.656,-1.148 L-3.866,-1.364 L-3.913,-1.58 L-4.082,-1.796 L-4.096,-2.012 L-4.294,-2.229 L-4.323,-2.877 L-4.469,-3.309 L-4.484,-3.741 L-4.301,-4.39 L-4.298,-4.822 L-4.082,-5.254 L-4.08,-5.47 L-3.867,-5.686 L-3.854,-5.903 L-3.082,-6.767 L-2.461,-7.307 L-2.029,-7.523 L-1.813,-7.712 L-1.381,-7.757 L-1.165,-7.951 L0.132,-8.008 L1.213,-7.954 L1.645,-7.74 L1.861,-7.731 L2.077,-7.523 L2.293,-7.511 L2.726,-7.112 L2.942,-7.04 L3.158,-6.861 L3.914,-5.903 L3.949,-5.686 L4.13,-5.47 L4.147,-5.254 L4.343,-5.038 L4.346,-4.606 L4.545,-4.174 L4.526,-2.877 L4.373,-2.661 L4.346,-2.229 L4.13,-1.796 L4.126,-1.58 L3.914,-1.364 L3.696,-0.932 L3.052,-0.283 L3.158,-0.178 L3.374,-0.175 L3.806,-0.388 L5.535,-0.381 L5.751,-0.177 L6.183,-0.171 L6.4,0.029 L6.616,0.041 L6.832,0.241 L7.048,0.257 L8.451,1.662 L8.464,1.878 L8.669,2.094 L8.675,2.31 L8.876,2.526 L8.885,2.958 L8.993,3.086 Z" fill="black" /></g>
  </g>
  
  
  <g transform="translate(149, 214) rotate(180)">
    <text font-family="Arial" font-size="24" font-weight="bold" fill="#000000">J</text>
    <g transform="translate(8, 14) scale(0.8)">
      
        <path d="M8.993,5.021 L8.903,5.119 L8.885,5.552 L8.453,6.416 L8.245,6.632 L8.01,7.065 L7.48,7.567 L7.264,7.632 L6.832,8.023 L6.616,8.037 L6.4,8.247 L5.967,8.277 L5.751,8.469 L3.374,8.434 L3.158,8.255 L2.942,8.253 L2.726,8.073 L2.509,8.037 L2.293,7.84 L2.077,7.814 L0.781,6.524 L0.672,6.632 L0.688,7.281 L0.878,7.497 L0.889,7.929 L1.043,8.145 L1.105,8.577 L1.32,9.01 L1.328,9.442 L1.531,9.658 L1.542,10.09 L1.738,10.306 L1.753,10.739 L1.969,11.171 L2.02,11.603 L2.184,11.819 L2.192,12.251 L2.382,12.468 L2.401,12.9 L2.293,13.008 L-2.245,13.008 L-2.353,12.9 L-2.353,12.684 L-2.197,12.468 L-2.137,12.035 L-1.921,11.603 L-1.91,11.171 L-1.71,10.955 L-1.7,10.522 L-1.5,10.306 L-1.488,9.874 L-1.273,9.442 L-1.219,9.01 L-1.058,8.794 L-1.051,8.361 L-0.859,8.145 L-0.84,7.713 L-0.655,7.497 L-0.615,6.848 L-0.732,6.737 L-1.813,7.817 L-2.029,7.836 L-2.245,8.037 L-2.461,8.064 L-2.677,8.253 L-2.894,8.254 L-3.11,8.422 L-4.406,8.496 L-5.487,8.469 L-5.703,8.286 L-6.135,8.248 L-6.351,8.037 L-6.568,8.025 L-7,7.638 L-7.216,7.584 L-7.432,7.387 L-7.913,6.848 L-7.977,6.632 L-8.337,6.2 L-8.472,5.768 L-8.621,5.552 L-8.676,5.119 L-8.821,4.903 L-8.837,3.391 L-8.801,3.174 L-8.638,2.958 L-8.621,2.526 L-8.423,2.31 L-8.405,2.094 L-8.197,1.878 L-8.186,1.662 L-6.784,0.258 L-6.568,0.226 L-6.351,0.041 L-6.135,0.018 L-5.919,-0.175 L-5.487,-0.188 L-5.271,-0.383 L-3.542,-0.388 L-3.11,-0.175 L-3.002,-0.283 L-3.622,-0.932 L-3.656,-1.148 L-3.866,-1.364 L-3.913,-1.58 L-4.082,-1.796 L-4.096,-2.012 L-4.294,-2.229 L-4.323,-2.877 L-4.469,-3.309 L-4.484,-3.741 L-4.301,-4.39 L-4.298,-4.822 L-4.082,-5.254 L-4.08,-5.47 L-3.867,-5.686 L-3.854,-5.903 L-3.082,-6.767 L-2.461,-7.307 L-2.029,-7.523 L-1.813,-7.712 L-1.381,-7.757 L-1.165,-7.951 L0.132,-8.008 L1.213,-7.954 L1.645,-7.74 L1.861,-7.731 L2.077,-7.523 L2.293,-7.511 L2.726,-7.112 L2.942,-7.04 L3.158,-6.861 L3.914,-5.903 L3.949,-5.686 L4.13,-5.47 L4.147,-5.254 L4.343,-5.038 L4.346,-4.606 L4.545,-4.174 L4.526,-2.877 L4.373,-2.661 L4.346,-2.229 L4.13,-1.796 L4.126,-1.58 L3.914,-1.364 L3.696,-0.932 L3.052,-0.283 L3.158,-0.178 L3.374,-0.175 L3.806,-0.388 L5.535,-0.381 L5.751,-0.177 L6.183,-0.171 L6.4,0.029 L6.616,0.041 L6.832,0.241 L7.048,0.257 L8.451,1.662 L8.464,1.878 L8.669,2.094 L8.675,2.31 L8.876,2.526 L8.885,2.958 L8.993,3.086 Z" fill="black" /></g>
  </g>
  
  
  <g transform="translate(84.5, 122)">
    
        <g transform="translate(-100, 75) scale(0.01, 0.01)">
          
            <g transform="translate(0, 2048) scale(1, -1)" fill="#000000" stroke="none">
              <path d="M10045 16694 c-97 -11 -415 -68 -582 -105 -881 -193 -1699 -555               -2348 -1038 -221 -165 -372 -296 -581 -505 -206 -206 -336 -355 -481 -553               -768 -1042 -1090 -2338 -932 -3748 290 -2582 2168 -5206 4924 -6875 96 -58               181 -103 195 -103 14 0 99 45 195 103 2756 1669 4634 4293 4924 6875 158 1410               -164 2706 -932 3748 -145 198 -275 347 -481 553 -417 417 -838 721 -1376 993               -591 300 -1202 498 -1915 621 -151 27 -211 32 -375 35 -107 2 -213 1 -235 -1z               m-1995 -4605 c430 -39 843 -211 1164 -485 59 -50 76 -71 74 -87 -4 -29 -24               -28 -210 11 -364 77 -695 112 -1114 119 -440 7 -692 -13 -999 -82 -227 -51               -474 -151 -561 -227 -36 -31 -56 -35 -74 -13 -16 19 11 61 101 159 402 437               1004 662 1619 605z m4655 1 c491 -45 935 -260 1254 -606 90 -98 117 -140 101               -159 -18 -22 -38 -18 -74 13 -87 76 -334 176 -561 227 -307 69 -559 89 -999               82 -419 -7 -750 -42 -1114 -119 -186 -39 -206 -40 -210 -11 -2 16 15 37 74 87               417 356 983 536 1529 486z m-5952 -3577 c798 -574 1874 -1021 2852 -1183 509               -84 761 -84 1270 0 978 162 2054 609 2852 1183 71 51 137 96 146 100 9 3 23               -1 32 -9 13 -13 13 -19 2 -42 -8 -15 -29 -58 -47 -97 -47 -102 -110 -186 -230               -305 -669 -669 -2288 -1418 -3244 -1500 -87 -8 -122 -7 -132 1 -11 9 -17 9               -28 0 -10 -8 -45 -9 -132 -1 -956 82 -2575 831 -3244 1500 -120 119 -183 203               -230 305 -18 39 -39 82 -47 97 -11 23 -11 29 2 42 9 8 23 12 32 9 9 -4 75 -49               146 -100z" />
            </g>
        </g>
      
  </g>
</g></svg>