<svg xmlns="http://www.w3.org/2000/svg" width="169" height="244" viewBox="0 0 169 244" fill="none">
  
  <rect width="169" height="244" rx="12" fill="white" stroke="#E5E5E5" />
  
  
  <g transform="translate(20, 30)">
    <text font-family="Arial" font-size="24" font-weight="bold" fill="#000000">4</text>
    <g transform="translate(8, 14) scale(0.8)">
      
        <path d="M8.993,5.021 L8.903,5.119 L8.885,5.552 L8.453,6.416 L8.245,6.632 L8.01,7.065 L7.48,7.567 L7.264,7.632 L6.832,8.023 L6.616,8.037 L6.4,8.247 L5.967,8.277 L5.751,8.469 L3.374,8.434 L3.158,8.255 L2.942,8.253 L2.726,8.073 L2.509,8.037 L2.293,7.84 L2.077,7.814 L0.781,6.524 L0.672,6.632 L0.688,7.281 L0.878,7.497 L0.889,7.929 L1.043,8.145 L1.105,8.577 L1.32,9.01 L1.328,9.442 L1.531,9.658 L1.542,10.09 L1.738,10.306 L1.753,10.739 L1.969,11.171 L2.02,11.603 L2.184,11.819 L2.192,12.251 L2.382,12.468 L2.401,12.9 L2.293,13.008 L-2.245,13.008 L-2.353,12.9 L-2.353,12.684 L-2.197,12.468 L-2.137,12.035 L-1.921,11.603 L-1.91,11.171 L-1.71,10.955 L-1.7,10.522 L-1.5,10.306 L-1.488,9.874 L-1.273,9.442 L-1.219,9.01 L-1.058,8.794 L-1.051,8.361 L-0.859,8.145 L-0.84,7.713 L-0.655,7.497 L-0.615,6.848 L-0.732,6.737 L-1.813,7.817 L-2.029,7.836 L-2.245,8.037 L-2.461,8.064 L-2.677,8.253 L-2.894,8.254 L-3.11,8.422 L-4.406,8.496 L-5.487,8.469 L-5.703,8.286 L-6.135,8.248 L-6.351,8.037 L-6.568,8.025 L-7,7.638 L-7.216,7.584 L-7.432,7.387 L-7.913,6.848 L-7.977,6.632 L-8.337,6.2 L-8.472,5.768 L-8.621,5.552 L-8.676,5.119 L-8.821,4.903 L-8.837,3.391 L-8.801,3.174 L-8.638,2.958 L-8.621,2.526 L-8.423,2.31 L-8.405,2.094 L-8.197,1.878 L-8.186,1.662 L-6.784,0.258 L-6.568,0.226 L-6.351,0.041 L-6.135,0.018 L-5.919,-0.175 L-5.487,-0.188 L-5.271,-0.383 L-3.542,-0.388 L-3.11,-0.175 L-3.002,-0.283 L-3.622,-0.932 L-3.656,-1.148 L-3.866,-1.364 L-3.913,-1.58 L-4.082,-1.796 L-4.096,-2.012 L-4.294,-2.229 L-4.323,-2.877 L-4.469,-3.309 L-4.484,-3.741 L-4.301,-4.39 L-4.298,-4.822 L-4.082,-5.254 L-4.08,-5.47 L-3.867,-5.686 L-3.854,-5.903 L-3.082,-6.767 L-2.461,-7.307 L-2.029,-7.523 L-1.813,-7.712 L-1.381,-7.757 L-1.165,-7.951 L0.132,-8.008 L1.213,-7.954 L1.645,-7.74 L1.861,-7.731 L2.077,-7.523 L2.293,-7.511 L2.726,-7.112 L2.942,-7.04 L3.158,-6.861 L3.914,-5.903 L3.949,-5.686 L4.13,-5.47 L4.147,-5.254 L4.343,-5.038 L4.346,-4.606 L4.545,-4.174 L4.526,-2.877 L4.373,-2.661 L4.346,-2.229 L4.13,-1.796 L4.126,-1.58 L3.914,-1.364 L3.696,-0.932 L3.052,-0.283 L3.158,-0.178 L3.374,-0.175 L3.806,-0.388 L5.535,-0.381 L5.751,-0.177 L6.183,-0.171 L6.4,0.029 L6.616,0.041 L6.832,0.241 L7.048,0.257 L8.451,1.662 L8.464,1.878 L8.669,2.094 L8.675,2.31 L8.876,2.526 L8.885,2.958 L8.993,3.086 Z" fill="black" /></g>
  </g>
  
  
  <g transform="translate(149, 214) rotate(180)">
    <text font-family="Arial" font-size="24" font-weight="bold" fill="#000000">4</text>
    <g transform="translate(8, 14) scale(0.8)">
      
        <path d="M8.993,5.021 L8.903,5.119 L8.885,5.552 L8.453,6.416 L8.245,6.632 L8.01,7.065 L7.48,7.567 L7.264,7.632 L6.832,8.023 L6.616,8.037 L6.4,8.247 L5.967,8.277 L5.751,8.469 L3.374,8.434 L3.158,8.255 L2.942,8.253 L2.726,8.073 L2.509,8.037 L2.293,7.84 L2.077,7.814 L0.781,6.524 L0.672,6.632 L0.688,7.281 L0.878,7.497 L0.889,7.929 L1.043,8.145 L1.105,8.577 L1.32,9.01 L1.328,9.442 L1.531,9.658 L1.542,10.09 L1.738,10.306 L1.753,10.739 L1.969,11.171 L2.02,11.603 L2.184,11.819 L2.192,12.251 L2.382,12.468 L2.401,12.9 L2.293,13.008 L-2.245,13.008 L-2.353,12.9 L-2.353,12.684 L-2.197,12.468 L-2.137,12.035 L-1.921,11.603 L-1.91,11.171 L-1.71,10.955 L-1.7,10.522 L-1.5,10.306 L-1.488,9.874 L-1.273,9.442 L-1.219,9.01 L-1.058,8.794 L-1.051,8.361 L-0.859,8.145 L-0.84,7.713 L-0.655,7.497 L-0.615,6.848 L-0.732,6.737 L-1.813,7.817 L-2.029,7.836 L-2.245,8.037 L-2.461,8.064 L-2.677,8.253 L-2.894,8.254 L-3.11,8.422 L-4.406,8.496 L-5.487,8.469 L-5.703,8.286 L-6.135,8.248 L-6.351,8.037 L-6.568,8.025 L-7,7.638 L-7.216,7.584 L-7.432,7.387 L-7.913,6.848 L-7.977,6.632 L-8.337,6.2 L-8.472,5.768 L-8.621,5.552 L-8.676,5.119 L-8.821,4.903 L-8.837,3.391 L-8.801,3.174 L-8.638,2.958 L-8.621,2.526 L-8.423,2.31 L-8.405,2.094 L-8.197,1.878 L-8.186,1.662 L-6.784,0.258 L-6.568,0.226 L-6.351,0.041 L-6.135,0.018 L-5.919,-0.175 L-5.487,-0.188 L-5.271,-0.383 L-3.542,-0.388 L-3.11,-0.175 L-3.002,-0.283 L-3.622,-0.932 L-3.656,-1.148 L-3.866,-1.364 L-3.913,-1.58 L-4.082,-1.796 L-4.096,-2.012 L-4.294,-2.229 L-4.323,-2.877 L-4.469,-3.309 L-4.484,-3.741 L-4.301,-4.39 L-4.298,-4.822 L-4.082,-5.254 L-4.08,-5.47 L-3.867,-5.686 L-3.854,-5.903 L-3.082,-6.767 L-2.461,-7.307 L-2.029,-7.523 L-1.813,-7.712 L-1.381,-7.757 L-1.165,-7.951 L0.132,-8.008 L1.213,-7.954 L1.645,-7.74 L1.861,-7.731 L2.077,-7.523 L2.293,-7.511 L2.726,-7.112 L2.942,-7.04 L3.158,-6.861 L3.914,-5.903 L3.949,-5.686 L4.13,-5.47 L4.147,-5.254 L4.343,-5.038 L4.346,-4.606 L4.545,-4.174 L4.526,-2.877 L4.373,-2.661 L4.346,-2.229 L4.13,-1.796 L4.126,-1.58 L3.914,-1.364 L3.696,-0.932 L3.052,-0.283 L3.158,-0.178 L3.374,-0.175 L3.806,-0.388 L5.535,-0.381 L5.751,-0.177 L6.183,-0.171 L6.4,0.029 L6.616,0.041 L6.832,0.241 L7.048,0.257 L8.451,1.662 L8.464,1.878 L8.669,2.094 L8.675,2.31 L8.876,2.526 L8.885,2.958 L8.993,3.086 Z" fill="black" /></g>
  </g>
  
  
  
    <g transform="translate(59.5, 72)">
      
        <path d="M10.749,6.025 L10.641,6.143 L10.62,6.661 L10.103,7.696 L9.854,7.954 L9.573,8.472 L8.939,9.073 L8.68,9.151 L8.162,9.619 L7.904,9.636 L7.645,9.887 L7.128,9.923 L6.869,10.153 L4.023,10.111 L3.765,9.897 L3.506,9.895 L3.247,9.679 L2.988,9.636 L2.73,9.4 L2.471,9.369 L0.919,7.825 L0.79,7.954 L0.808,8.73 L1.035,8.989 L1.049,9.507 L1.233,9.765 L1.307,10.283 L1.565,10.8 L1.574,11.317 L1.817,11.576 L1.83,12.093 L2.065,12.352 L2.083,12.87 L2.342,13.387 L2.403,13.904 L2.598,14.163 L2.609,14.68 L2.836,14.939 L2.859,15.457 L2.73,15.586 L-2.703,15.586 L-2.832,15.457 L-2.832,15.198 L-2.645,14.939 L-2.574,14.422 L-2.315,13.904 L-2.302,13.387 L-2.063,13.128 L-2.05,12.611 L-1.811,12.352 L-1.797,11.835 L-1.539,11.317 L-1.474,10.8 L-1.282,10.541 L-1.273,10.024 L-1.044,9.765 L-1.021,9.248 L-0.799,8.989 L-0.752,8.213 L-0.892,8.079 L-2.185,9.372 L-2.444,9.396 L-2.703,9.636 L-2.962,9.668 L-3.22,9.895 L-3.479,9.896 L-3.738,10.096 L-5.29,10.186 L-6.583,10.153 L-6.842,9.933 L-7.359,9.888 L-7.618,9.636 L-7.877,9.622 L-8.394,9.158 L-8.653,9.093 L-8.912,8.857 L-9.488,8.213 L-9.564,7.954 L-9.995,7.437 L-10.157,6.92 L-10.335,6.661 L-10.4,6.143 L-10.575,5.885 L-10.593,4.074 L-10.55,3.815 L-10.356,3.556 L-10.335,3.039 L-10.098,2.78 L-10.076,2.522 L-9.827,2.263 L-9.814,2.004 L-8.136,0.324 L-7.877,0.285 L-7.618,0.064 L-7.359,0.037 L-7.101,-0.194 L-6.583,-0.21 L-6.325,-0.444 L-4.255,-0.45 L-3.738,-0.195 L-3.608,-0.324 L-4.351,-1.1 L-4.392,-1.359 L-4.643,-1.618 L-4.699,-1.876 L-4.902,-2.135 L-4.918,-2.394 L-5.155,-2.652 L-5.19,-3.428 L-5.364,-3.946 L-5.383,-4.463 L-5.164,-5.239 L-5.161,-5.757 L-4.902,-6.274 L-4.9,-6.533 L-4.644,-6.792 L-4.629,-7.05 L-3.705,-8.085 L-2.962,-8.732 L-2.444,-8.99 L-2.185,-9.216 L-1.668,-9.27 L-1.409,-9.502 L0.143,-9.57 L1.436,-9.506 L1.954,-9.249 L2.212,-9.239 L2.471,-8.99 L2.73,-8.976 L3.247,-8.498 L3.506,-8.412 L3.765,-8.197 L4.67,-7.05 L4.712,-6.792 L4.929,-6.533 L4.949,-6.274 L5.183,-6.015 L5.187,-5.498 L5.426,-4.981 L5.402,-3.428 L5.219,-3.17 L5.187,-2.652 L4.929,-2.135 L4.923,-1.876 L4.67,-1.618 L4.409,-1.1 L3.638,-0.324 L3.765,-0.197 L4.023,-0.195 L4.541,-0.449 L6.61,-0.441 L6.869,-0.197 L7.386,-0.189 L7.645,0.05 L7.904,0.064 L8.162,0.304 L8.421,0.323 L10.101,2.004 L10.116,2.263 L10.361,2.522 L10.369,2.78 L10.609,3.039 L10.62,3.556 L10.749,3.709 Z" fill="black" /></g>
  
    <g transform="translate(109.5, 72)">
      
        <path d="M10.749,6.025 L10.641,6.143 L10.62,6.661 L10.103,7.696 L9.854,7.954 L9.573,8.472 L8.939,9.073 L8.68,9.151 L8.162,9.619 L7.904,9.636 L7.645,9.887 L7.128,9.923 L6.869,10.153 L4.023,10.111 L3.765,9.897 L3.506,9.895 L3.247,9.679 L2.988,9.636 L2.73,9.4 L2.471,9.369 L0.919,7.825 L0.79,7.954 L0.808,8.73 L1.035,8.989 L1.049,9.507 L1.233,9.765 L1.307,10.283 L1.565,10.8 L1.574,11.317 L1.817,11.576 L1.83,12.093 L2.065,12.352 L2.083,12.87 L2.342,13.387 L2.403,13.904 L2.598,14.163 L2.609,14.68 L2.836,14.939 L2.859,15.457 L2.73,15.586 L-2.703,15.586 L-2.832,15.457 L-2.832,15.198 L-2.645,14.939 L-2.574,14.422 L-2.315,13.904 L-2.302,13.387 L-2.063,13.128 L-2.05,12.611 L-1.811,12.352 L-1.797,11.835 L-1.539,11.317 L-1.474,10.8 L-1.282,10.541 L-1.273,10.024 L-1.044,9.765 L-1.021,9.248 L-0.799,8.989 L-0.752,8.213 L-0.892,8.079 L-2.185,9.372 L-2.444,9.396 L-2.703,9.636 L-2.962,9.668 L-3.22,9.895 L-3.479,9.896 L-3.738,10.096 L-5.29,10.186 L-6.583,10.153 L-6.842,9.933 L-7.359,9.888 L-7.618,9.636 L-7.877,9.622 L-8.394,9.158 L-8.653,9.093 L-8.912,8.857 L-9.488,8.213 L-9.564,7.954 L-9.995,7.437 L-10.157,6.92 L-10.335,6.661 L-10.4,6.143 L-10.575,5.885 L-10.593,4.074 L-10.55,3.815 L-10.356,3.556 L-10.335,3.039 L-10.098,2.78 L-10.076,2.522 L-9.827,2.263 L-9.814,2.004 L-8.136,0.324 L-7.877,0.285 L-7.618,0.064 L-7.359,0.037 L-7.101,-0.194 L-6.583,-0.21 L-6.325,-0.444 L-4.255,-0.45 L-3.738,-0.195 L-3.608,-0.324 L-4.351,-1.1 L-4.392,-1.359 L-4.643,-1.618 L-4.699,-1.876 L-4.902,-2.135 L-4.918,-2.394 L-5.155,-2.652 L-5.19,-3.428 L-5.364,-3.946 L-5.383,-4.463 L-5.164,-5.239 L-5.161,-5.757 L-4.902,-6.274 L-4.9,-6.533 L-4.644,-6.792 L-4.629,-7.05 L-3.705,-8.085 L-2.962,-8.732 L-2.444,-8.99 L-2.185,-9.216 L-1.668,-9.27 L-1.409,-9.502 L0.143,-9.57 L1.436,-9.506 L1.954,-9.249 L2.212,-9.239 L2.471,-8.99 L2.73,-8.976 L3.247,-8.498 L3.506,-8.412 L3.765,-8.197 L4.67,-7.05 L4.712,-6.792 L4.929,-6.533 L4.949,-6.274 L5.183,-6.015 L5.187,-5.498 L5.426,-4.981 L5.402,-3.428 L5.219,-3.17 L5.187,-2.652 L4.929,-2.135 L4.923,-1.876 L4.67,-1.618 L4.409,-1.1 L3.638,-0.324 L3.765,-0.197 L4.023,-0.195 L4.541,-0.449 L6.61,-0.441 L6.869,-0.197 L7.386,-0.189 L7.645,0.05 L7.904,0.064 L8.162,0.304 L8.421,0.323 L10.101,2.004 L10.116,2.263 L10.361,2.522 L10.369,2.78 L10.609,3.039 L10.62,3.556 L10.749,3.709 Z" fill="black" /></g>
  
    <g transform="translate(59.5, 162)">
      
        <path d="M10.749,6.025 L10.641,6.143 L10.62,6.661 L10.103,7.696 L9.854,7.954 L9.573,8.472 L8.939,9.073 L8.68,9.151 L8.162,9.619 L7.904,9.636 L7.645,9.887 L7.128,9.923 L6.869,10.153 L4.023,10.111 L3.765,9.897 L3.506,9.895 L3.247,9.679 L2.988,9.636 L2.73,9.4 L2.471,9.369 L0.919,7.825 L0.79,7.954 L0.808,8.73 L1.035,8.989 L1.049,9.507 L1.233,9.765 L1.307,10.283 L1.565,10.8 L1.574,11.317 L1.817,11.576 L1.83,12.093 L2.065,12.352 L2.083,12.87 L2.342,13.387 L2.403,13.904 L2.598,14.163 L2.609,14.68 L2.836,14.939 L2.859,15.457 L2.73,15.586 L-2.703,15.586 L-2.832,15.457 L-2.832,15.198 L-2.645,14.939 L-2.574,14.422 L-2.315,13.904 L-2.302,13.387 L-2.063,13.128 L-2.05,12.611 L-1.811,12.352 L-1.797,11.835 L-1.539,11.317 L-1.474,10.8 L-1.282,10.541 L-1.273,10.024 L-1.044,9.765 L-1.021,9.248 L-0.799,8.989 L-0.752,8.213 L-0.892,8.079 L-2.185,9.372 L-2.444,9.396 L-2.703,9.636 L-2.962,9.668 L-3.22,9.895 L-3.479,9.896 L-3.738,10.096 L-5.29,10.186 L-6.583,10.153 L-6.842,9.933 L-7.359,9.888 L-7.618,9.636 L-7.877,9.622 L-8.394,9.158 L-8.653,9.093 L-8.912,8.857 L-9.488,8.213 L-9.564,7.954 L-9.995,7.437 L-10.157,6.92 L-10.335,6.661 L-10.4,6.143 L-10.575,5.885 L-10.593,4.074 L-10.55,3.815 L-10.356,3.556 L-10.335,3.039 L-10.098,2.78 L-10.076,2.522 L-9.827,2.263 L-9.814,2.004 L-8.136,0.324 L-7.877,0.285 L-7.618,0.064 L-7.359,0.037 L-7.101,-0.194 L-6.583,-0.21 L-6.325,-0.444 L-4.255,-0.45 L-3.738,-0.195 L-3.608,-0.324 L-4.351,-1.1 L-4.392,-1.359 L-4.643,-1.618 L-4.699,-1.876 L-4.902,-2.135 L-4.918,-2.394 L-5.155,-2.652 L-5.19,-3.428 L-5.364,-3.946 L-5.383,-4.463 L-5.164,-5.239 L-5.161,-5.757 L-4.902,-6.274 L-4.9,-6.533 L-4.644,-6.792 L-4.629,-7.05 L-3.705,-8.085 L-2.962,-8.732 L-2.444,-8.99 L-2.185,-9.216 L-1.668,-9.27 L-1.409,-9.502 L0.143,-9.57 L1.436,-9.506 L1.954,-9.249 L2.212,-9.239 L2.471,-8.99 L2.73,-8.976 L3.247,-8.498 L3.506,-8.412 L3.765,-8.197 L4.67,-7.05 L4.712,-6.792 L4.929,-6.533 L4.949,-6.274 L5.183,-6.015 L5.187,-5.498 L5.426,-4.981 L5.402,-3.428 L5.219,-3.17 L5.187,-2.652 L4.929,-2.135 L4.923,-1.876 L4.67,-1.618 L4.409,-1.1 L3.638,-0.324 L3.765,-0.197 L4.023,-0.195 L4.541,-0.449 L6.61,-0.441 L6.869,-0.197 L7.386,-0.189 L7.645,0.05 L7.904,0.064 L8.162,0.304 L8.421,0.323 L10.101,2.004 L10.116,2.263 L10.361,2.522 L10.369,2.78 L10.609,3.039 L10.62,3.556 L10.749,3.709 Z" fill="black" /></g>
  
    <g transform="translate(109.5, 162)">
      
        <path d="M10.749,6.025 L10.641,6.143 L10.62,6.661 L10.103,7.696 L9.854,7.954 L9.573,8.472 L8.939,9.073 L8.68,9.151 L8.162,9.619 L7.904,9.636 L7.645,9.887 L7.128,9.923 L6.869,10.153 L4.023,10.111 L3.765,9.897 L3.506,9.895 L3.247,9.679 L2.988,9.636 L2.73,9.4 L2.471,9.369 L0.919,7.825 L0.79,7.954 L0.808,8.73 L1.035,8.989 L1.049,9.507 L1.233,9.765 L1.307,10.283 L1.565,10.8 L1.574,11.317 L1.817,11.576 L1.83,12.093 L2.065,12.352 L2.083,12.87 L2.342,13.387 L2.403,13.904 L2.598,14.163 L2.609,14.68 L2.836,14.939 L2.859,15.457 L2.73,15.586 L-2.703,15.586 L-2.832,15.457 L-2.832,15.198 L-2.645,14.939 L-2.574,14.422 L-2.315,13.904 L-2.302,13.387 L-2.063,13.128 L-2.05,12.611 L-1.811,12.352 L-1.797,11.835 L-1.539,11.317 L-1.474,10.8 L-1.282,10.541 L-1.273,10.024 L-1.044,9.765 L-1.021,9.248 L-0.799,8.989 L-0.752,8.213 L-0.892,8.079 L-2.185,9.372 L-2.444,9.396 L-2.703,9.636 L-2.962,9.668 L-3.22,9.895 L-3.479,9.896 L-3.738,10.096 L-5.29,10.186 L-6.583,10.153 L-6.842,9.933 L-7.359,9.888 L-7.618,9.636 L-7.877,9.622 L-8.394,9.158 L-8.653,9.093 L-8.912,8.857 L-9.488,8.213 L-9.564,7.954 L-9.995,7.437 L-10.157,6.92 L-10.335,6.661 L-10.4,6.143 L-10.575,5.885 L-10.593,4.074 L-10.55,3.815 L-10.356,3.556 L-10.335,3.039 L-10.098,2.78 L-10.076,2.522 L-9.827,2.263 L-9.814,2.004 L-8.136,0.324 L-7.877,0.285 L-7.618,0.064 L-7.359,0.037 L-7.101,-0.194 L-6.583,-0.21 L-6.325,-0.444 L-4.255,-0.45 L-3.738,-0.195 L-3.608,-0.324 L-4.351,-1.1 L-4.392,-1.359 L-4.643,-1.618 L-4.699,-1.876 L-4.902,-2.135 L-4.918,-2.394 L-5.155,-2.652 L-5.19,-3.428 L-5.364,-3.946 L-5.383,-4.463 L-5.164,-5.239 L-5.161,-5.757 L-4.902,-6.274 L-4.9,-6.533 L-4.644,-6.792 L-4.629,-7.05 L-3.705,-8.085 L-2.962,-8.732 L-2.444,-8.99 L-2.185,-9.216 L-1.668,-9.27 L-1.409,-9.502 L0.143,-9.57 L1.436,-9.506 L1.954,-9.249 L2.212,-9.239 L2.471,-8.99 L2.73,-8.976 L3.247,-8.498 L3.506,-8.412 L3.765,-8.197 L4.67,-7.05 L4.712,-6.792 L4.929,-6.533 L4.949,-6.274 L5.183,-6.015 L5.187,-5.498 L5.426,-4.981 L5.402,-3.428 L5.219,-3.17 L5.187,-2.652 L4.929,-2.135 L4.923,-1.876 L4.67,-1.618 L4.409,-1.1 L3.638,-0.324 L3.765,-0.197 L4.023,-0.195 L4.541,-0.449 L6.61,-0.441 L6.869,-0.197 L7.386,-0.189 L7.645,0.05 L7.904,0.064 L8.162,0.304 L8.421,0.323 L10.101,2.004 L10.116,2.263 L10.361,2.522 L10.369,2.78 L10.609,3.039 L10.62,3.556 L10.749,3.709 Z" fill="black" /></g>
  
</svg>