
<svg width="169" height="244" viewBox="0 0 169 244" fill="none" xmlns="http://www.w3.org/2000/svg">
  <!-- 카드 배경 -->
  <rect width="169" height="244" rx="12" fill="white" stroke="#E5E5E5"/>
  
  <!-- 좌상단 숫자와 무늬 -->
  <g transform="translate(20, 30)">
    <text font-family="Arial" font-size="24" font-weight="bold" fill="#FF0000" >7</text>
    <g transform="translate(8, 14) scale(0.8)">
      <path d="M0,-10
        L-7.5,0
        L0,10
        L7.5,0Z" fill="red" />
    </g>
  </g>
  
  <!-- 우하단 숫자와 무늬 (180도 회전) -->
  <g transform="translate(149, 214) rotate(180)">
    <text font-family="Arial" font-size="24" font-weight="bold" fill="#FF0000" >7</text>
    <g transform="translate(8, 14) scale(0.8)">
      <path d="M0,-10
        L-7.5,0
        L0,10
        L7.5,0Z" fill="red" />
    </g>
  </g>
  
  <!-- 중앙 무늬들 -->
  
    <g transform="translate(59.5, 72)">
      <path d="M0,-12
        L-9,0
        L0,12
        L9,0Z" fill="red" />
    </g>
  
    <g transform="translate(109.5, 72)">
      <path d="M0,-12
        L-9,0
        L0,12
        L9,0Z" fill="red" />
    </g>
  
    <g transform="translate(59.5, 112)">
      <path d="M0,-12
        L-9,0
        L0,12
        L9,0Z" fill="red" />
    </g>
  
    <g transform="translate(84.5, 112)">
      <path d="M0,-12
        L-9,0
        L0,12
        L9,0Z" fill="red" />
    </g>
  
    <g transform="translate(109.5, 112)">
      <path d="M0,-12
        L-9,0
        L0,12
        L9,0Z" fill="red" />
    </g>
  
    <g transform="translate(59.5, 162)">
      <path d="M0,-12
        L-9,0
        L0,12
        L9,0Z" fill="red" />
    </g>
  
    <g transform="translate(109.5, 162)">
      <path d="M0,-12
        L-9,0
        L0,12
        L9,0Z" fill="red" />
    </g>
  
</svg>
