<?xml version="1.0" encoding="UTF-8"?><svg xmlns="http://www.w3.org/2000/svg" width="169" height="244" viewBox="0 0 169 244" shape-rendering="geometricPrecision"><path fill="#fefefe" fill-rule="evenodd" d="M160.0,243.5 L8.0,243.5 L7.0,242.5 L6.0,242.5 L0.5,237.0 L0.5,236.0 L-0.5,235.0 L-0.5,8.0 L0.5,7.0 L0.5,6.0 L1.5,5.0 L1.5,4.0 L4.0,1.5 L5.0,1.5 L6.0,0.5 L7.0,0.5 L8.0,-0.5 L160.0,-0.5 L161.0,0.5 L162.0,0.5 L167.5,6.0 L167.5,7.0 L168.5,8.0 L168.5,235.0 L167.5,236.0 L167.5,237.0 L166.5,238.0 L166.5,239.0 L164.0,241.5 L163.0,241.5 L162.0,242.5 L161.0,242.5 Z M33.5,33.0 L33.5,27.0 L34.5,26.0 L34.5,25.0 L35.5,24.0 L35.5,22.0 L37.5,20.0 L37.5,19.0 L38.5,18.0 L38.5,17.0 L40.5,15.0 L40.5,14.0 L41.5,13.0 L41.5,10.0 L41.0,9.5 L24.0,9.5 L23.5,10.0 L23.5,13.0 L24.0,13.5 L35.0,13.5 L35.5,14.0 L35.5,15.0 L32.5,18.0 L32.5,19.0 L31.5,20.0 L31.5,21.0 L30.5,22.0 L30.5,23.0 L29.5,24.0 L29.5,25.0 L28.5,26.0 L28.5,28.0 L27.5,29.0 L27.5,33.0 L28.0,33.5 L33.0,33.5 Z M35.5,65.0 L36.5,64.0 L36.5,63.0 L38.5,61.0 L38.5,60.0 L43.5,55.0 L43.5,54.0 L38.5,49.0 L38.5,48.0 L36.5,46.0 L36.5,45.0 L35.0,43.5 L34.0,43.5 L32.5,45.0 L32.5,46.0 L30.5,48.0 L30.5,49.0 L25.5,54.0 L25.5,55.0 L30.5,60.0 L30.5,61.0 L32.5,63.0 L32.5,64.0 L33.0,64.5 L34.0,65.5 L35.0,65.5 Z M56.5,80.0 L57.5,79.0 L57.5,78.0 L58.5,77.0 L58.5,76.0 L61.5,73.0 L61.5,72.0 L65.5,68.0 L65.5,67.0 L68.5,64.0 L62.5,58.0 L62.5,57.0 L59.5,54.0 L59.5,53.0 L57.5,51.0 L57.5,50.0 L56.0,48.5 L55.5,49.0 L55.5,50.0 L53.5,52.0 L53.5,53.0 L50.5,56.0 L50.5,57.0 L45.5,62.0 L45.5,63.0 L44.5,64.0 L44.5,65.0 L48.5,69.0 L48.5,70.0 L52.5,74.0 L52.5,75.0 L54.5,77.0 L54.5,78.0 L55.5,79.0 L55.5,80.0 L56.0,80.5 Z M112.5,80.0 L112.5,79.0 L113.5,78.0 L113.5,77.0 L116.5,74.0 L116.5,73.0 L119.5,70.0 L119.5,69.0 L123.5,65.0 L123.5,63.0 L117.5,57.0 L117.5,56.0 L114.5,53.0 L114.5,52.0 L113.5,51.0 L113.5,50.0 L112.0,48.5 L110.5,50.0 L110.5,51.0 L108.5,53.0 L108.5,54.0 L105.5,57.0 L105.5,58.0 L99.5,64.0 L102.5,67.0 L102.5,68.0 L106.5,72.0 L106.5,73.0 L109.5,76.0 L109.5,77.0 L110.5,78.0 L110.5,79.0 L112.0,80.5 Z M56.5,126.0 L57.5,125.0 L57.5,124.0 L58.5,123.0 L58.5,122.0 L60.5,120.0 L60.5,119.0 L64.5,115.0 L64.5,114.0 L68.5,110.0 L63.5,105.0 L63.5,104.0 L60.5,101.0 L60.5,100.0 L58.5,98.0 L58.5,97.0 L56.0,94.5 L54.5,96.0 L54.5,97.0 L52.5,99.0 L52.5,100.0 L50.5,102.0 L50.5,103.0 L44.5,109.0 L44.5,111.0 L49.5,116.0 L49.5,117.0 L52.5,120.0 L52.5,121.0 L54.5,123.0 L54.5,124.0 L55.5,125.0 L55.5,126.0 L56.0,126.5 Z M84.5,126.0 L84.5,125.0 L86.5,123.0 L86.5,122.0 L88.5,120.0 L88.5,119.0 L91.5,116.0 L91.5,115.0 L96.5,110.0 L90.5,104.0 L90.5,103.0 L87.5,100.0 L87.5,99.0 L85.5,97.0 L85.5,96.0 L84.0,94.5 L82.5,96.0 L82.5,97.0 L80.5,99.0 L80.5,100.0 L77.5,103.0 L77.5,104.0 L71.5,110.0 L76.5,115.0 L76.5,116.0 L79.5,119.0 L79.5,120.0 L82.5,123.0 L82.5,124.0 L83.5,125.0 L83.5,126.0 L84.0,126.5 Z M112.5,126.0 L112.5,125.0 L113.5,124.0 L113.5,123.0 L115.5,121.0 L115.5,120.0 L118.5,117.0 L118.5,116.0 L123.5,111.0 L123.5,109.0 L118.5,104.0 L118.5,103.0 L115.5,100.0 L115.5,99.0 L113.5,97.0 L113.5,96.0 L112.0,94.5 L109.5,97.0 L109.5,98.0 L107.5,100.0 L107.5,101.0 L103.5,105.0 L103.5,106.0 L99.5,110.0 L103.5,114.0 L103.5,115.0 L107.5,119.0 L107.5,120.0 L109.5,122.0 L109.5,123.0 L111.5,125.0 L111.5,126.0 L112.0,126.5 Z M56.5,183.0 L57.5,182.0 L57.5,181.0 L59.5,179.0 L59.5,178.0 L61.5,176.0 L61.5,175.0 L66.5,170.0 L66.5,169.0 L68.5,167.0 L62.5,161.0 L62.5,160.0 L59.5,157.0 L59.5,156.0 L57.5,154.0 L57.5,153.0 L56.0,151.5 L55.5,152.0 L55.5,153.0 L53.5,155.0 L53.5,156.0 L50.5,159.0 L50.5,160.0 L45.5,165.0 L45.5,166.0 L44.5,167.0 L44.5,168.0 L48.5,172.0 L48.5,173.0 L51.5,176.0 L51.5,177.0 L54.5,180.0 L54.5,181.0 L55.5,182.0 L55.5,183.0 L56.0,183.5 Z M112.5,183.0 L112.5,182.0 L114.5,180.0 L114.5,179.0 L116.5,177.0 L116.5,176.0 L119.5,173.0 L119.5,172.0 L123.5,168.0 L123.5,167.0 L121.5,165.0 L121.5,164.0 L117.5,160.0 L117.5,159.0 L114.5,156.0 L114.5,155.0 L113.5,154.0 L113.5,153.0 L112.0,151.5 L110.5,153.0 L110.5,154.0 L108.5,156.0 L108.5,157.0 L105.5,160.0 L105.5,161.0 L99.5,167.0 L101.5,169.0 L101.5,170.0 L106.5,175.0 L106.5,176.0 L109.5,179.0 L109.5,180.0 L110.5,181.0 L110.5,182.0 L112.0,183.5 Z M134.5,199.0 L135.5,198.0 L135.5,197.0 L137.5,195.0 L137.5,194.0 L142.5,189.0 L142.5,188.0 L137.5,183.0 L137.5,182.0 L135.5,180.0 L135.5,179.0 L134.0,177.5 L133.0,177.5 L131.5,179.0 L131.5,180.0 L129.5,182.0 L129.5,183.0 L124.5,188.0 L124.5,189.0 L129.5,194.0 L129.5,195.0 L131.5,197.0 L131.5,198.0 L132.0,198.5 L133.0,199.5 L134.0,199.5 Z M144.5,233.0 L144.5,230.0 L144.0,229.5 L133.0,229.5 L132.5,229.0 L132.5,228.0 L135.5,225.0 L135.5,224.0 L136.5,223.0 L136.5,222.0 L137.5,221.0 L137.5,220.0 L138.5,219.0 L138.5,218.0 L139.5,217.0 L139.5,215.0 L140.5,214.0 L140.5,210.0 L140.0,209.5 L135.0,209.5 L134.5,210.0 L134.5,215.0 L133.5,216.0 L133.5,218.0 L132.5,219.0 L132.5,221.0 L130.5,223.0 L130.5,224.0 L129.5,225.0 L129.5,226.0 L127.5,228.0 L127.5,229.0 L126.5,230.0 L126.5,233.0 L127.0,233.5 L144.0,233.5 Z"/><path fill="#ff0202" fill-rule="evenodd" d="M32.0,33.5 L28.0,33.5 L27.5,33.0 L27.5,32.0 L28.5,31.0 L28.5,27.0 L29.5,26.0 L29.5,25.0 L30.5,24.0 L30.5,23.0 L31.5,22.0 L31.5,21.0 L32.5,20.0 L32.5,19.0 L34.5,17.0 L34.5,16.0 L36.5,14.0 L36.0,13.5 L25.0,13.5 L24.5,13.0 L24.5,10.0 L25.0,9.5 L40.0,9.5 L40.5,10.0 L40.5,14.0 L38.5,16.0 L38.5,17.0 L37.5,18.0 L37.5,19.0 L35.5,21.0 L35.5,22.0 L34.5,23.0 L34.5,25.0 L33.5,26.0 L33.5,29.0 L32.5,30.0 L32.5,33.0 Z M34.0,65.5 L33.5,65.0 L33.5,64.0 L32.5,63.0 L32.5,62.0 L28.5,58.0 L28.5,57.0 L26.5,55.0 L26.5,54.0 L28.5,52.0 L28.5,51.0 L32.5,47.0 L32.5,46.0 L34.0,44.5 L35.0,44.5 L36.5,46.0 L36.5,47.0 L39.5,50.0 L39.5,51.0 L42.5,54.0 L42.5,55.0 L39.5,58.0 L39.5,59.0 L36.5,62.0 L36.5,63.0 Z M112.0,79.5 L110.5,78.0 L110.5,77.0 L108.5,75.0 L108.5,74.0 L105.5,71.0 L105.5,70.0 L100.5,65.0 L100.5,64.0 L103.5,61.0 L103.5,60.0 L107.5,56.0 L107.5,55.0 L109.5,53.0 L109.5,52.0 L111.5,50.0 L111.5,49.0 L112.0,48.5 L112.5,49.0 L112.5,50.0 L113.5,51.0 L113.5,52.0 L115.5,54.0 L115.5,55.0 L118.5,58.0 L118.5,59.0 L123.5,64.0 L121.5,66.0 L121.5,67.0 L116.5,72.0 L116.5,73.0 L114.5,75.0 L114.5,76.0 L112.5,78.0 L112.5,79.0 Z M56.0,79.5 L55.5,79.0 L55.5,78.0 L53.5,76.0 L53.5,75.0 L51.5,73.0 L51.5,72.0 L45.5,66.0 L45.5,65.0 L44.5,64.0 L49.5,59.0 L49.5,58.0 L52.5,55.0 L52.5,54.0 L54.5,52.0 L54.5,51.0 L56.0,49.5 L58.5,52.0 L58.5,53.0 L60.5,55.0 L60.5,56.0 L65.5,61.0 L65.5,62.0 L67.5,64.0 L67.5,65.0 L62.5,70.0 L62.5,71.0 L59.5,74.0 L59.5,75.0 L57.5,77.0 L57.5,78.0 Z M56.0,125.5 L55.5,125.0 L55.5,124.0 L54.5,123.0 L54.5,122.0 L51.5,119.0 L51.5,118.0 L48.5,115.0 L48.5,114.0 L44.5,110.0 L48.5,106.0 L48.5,105.0 L52.5,101.0 L52.5,100.0 L54.5,98.0 L54.5,97.0 L55.5,96.0 L55.5,95.0 L56.0,94.5 L57.5,96.0 L57.5,97.0 L58.5,98.0 L58.5,99.0 L61.5,102.0 L61.5,103.0 L65.5,107.0 L65.5,108.0 L67.5,110.0 L67.5,111.0 L61.5,117.0 L61.5,118.0 L59.5,120.0 L59.5,121.0 L57.5,123.0 L57.5,124.0 Z M84.0,125.5 L83.5,125.0 L83.5,124.0 L81.5,122.0 L81.5,121.0 L79.5,119.0 L79.5,118.0 L74.5,113.0 L74.5,112.0 L72.5,110.0 L75.5,107.0 L75.5,106.0 L79.5,102.0 L79.5,101.0 L81.5,99.0 L81.5,98.0 L83.5,96.0 L83.5,95.0 L84.0,94.5 L84.5,95.0 L84.5,96.0 L86.5,98.0 L86.5,99.0 L88.5,101.0 L88.5,102.0 L92.5,106.0 L92.5,107.0 L95.5,110.0 L93.5,112.0 L93.5,113.0 L89.5,117.0 L89.5,118.0 L86.5,121.0 L86.5,122.0 L84.5,124.0 L84.5,125.0 Z M112.0,125.5 L110.5,124.0 L110.5,123.0 L109.5,122.0 L109.5,121.0 L106.5,118.0 L106.5,117.0 L100.5,111.0 L100.5,110.0 L101.5,109.0 L101.5,108.0 L106.5,103.0 L106.5,102.0 L109.5,99.0 L109.5,98.0 L111.5,96.0 L111.5,95.0 L112.0,94.5 L112.5,95.0 L112.5,96.0 L113.5,97.0 L113.5,98.0 L115.5,100.0 L115.5,101.0 L119.5,105.0 L119.5,106.0 L123.5,110.0 L119.5,114.0 L119.5,115.0 L116.5,118.0 L116.5,119.0 L113.5,122.0 L113.5,123.0 L112.5,124.0 L112.5,125.0 Z M56.0,182.5 L55.5,182.0 L55.5,181.0 L53.5,179.0 L53.5,178.0 L51.5,176.0 L51.5,175.0 L44.5,168.0 L44.5,167.0 L49.5,162.0 L49.5,161.0 L52.5,158.0 L52.5,157.0 L54.5,155.0 L54.5,154.0 L56.0,152.5 L58.5,155.0 L58.5,156.0 L60.5,158.0 L60.5,159.0 L64.5,163.0 L64.5,164.0 L67.5,167.0 L67.5,168.0 L62.5,173.0 L62.5,174.0 L59.5,177.0 L59.5,178.0 L57.5,180.0 L57.5,181.0 Z M112.0,182.5 L110.5,181.0 L110.5,180.0 L108.5,178.0 L108.5,177.0 L105.5,174.0 L105.5,173.0 L100.5,168.0 L100.5,167.0 L103.5,164.0 L103.5,163.0 L107.5,159.0 L107.5,158.0 L109.5,156.0 L109.5,155.0 L112.0,152.5 L113.5,154.0 L113.5,155.0 L115.5,157.0 L115.5,158.0 L118.5,161.0 L118.5,162.0 L123.5,167.0 L121.5,169.0 L121.5,170.0 L117.5,174.0 L117.5,175.0 L114.5,178.0 L114.5,179.0 L112.5,181.0 L112.5,182.0 Z M134.0,198.5 L133.0,198.5 L131.5,197.0 L131.5,196.0 L128.5,193.0 L128.5,192.0 L125.5,189.0 L125.5,188.0 L128.5,185.0 L128.5,184.0 L131.5,181.0 L131.5,180.0 L134.0,177.5 L134.5,178.0 L134.5,179.0 L135.5,180.0 L135.5,181.0 L139.5,185.0 L139.5,186.0 L141.5,188.0 L141.5,189.0 L139.5,191.0 L139.5,192.0 L135.5,196.0 L135.5,197.0 Z M143.0,233.5 L128.0,233.5 L127.5,233.0 L127.5,229.0 L129.5,227.0 L129.5,226.0 L130.5,225.0 L130.5,224.0 L132.5,222.0 L132.5,221.0 L133.5,220.0 L133.5,218.0 L134.5,217.0 L134.5,214.0 L135.5,213.0 L135.5,210.0 L136.0,209.5 L140.0,209.5 L140.5,210.0 L140.5,211.0 L139.5,212.0 L139.5,216.0 L138.5,217.0 L138.5,218.0 L137.5,219.0 L137.5,220.0 L136.5,221.0 L136.5,222.0 L135.5,223.0 L135.5,224.0 L133.5,226.0 L133.5,227.0 L131.5,229.0 L132.0,229.5 L143.0,229.5 L143.5,230.0 L143.5,233.0 Z"/><path fill="#ff5e5e" fill-rule="evenodd" d="M28.0,31.5 L27.5,31.0 L27.5,30.0 L28.0,29.5 L28.5,30.0 L28.5,31.0 Z M35.0,44.5 L34.0,44.5 L33.5,44.0 L34.0,43.5 L35.0,43.5 L35.5,44.0 Z M134.0,199.5 L133.0,199.5 L132.5,199.0 L133.0,198.5 L134.0,198.5 L134.5,199.0 Z M140.0,213.5 L139.5,213.0 L139.5,212.0 L140.0,211.5 L140.5,212.0 L140.5,213.0 Z"/><path fill="#ff9e9e" fill-rule="evenodd" d="M24.0,13.5 L23.5,13.0 L23.5,10.0 L24.0,9.5 L24.5,10.0 L24.5,13.0 Z M41.0,13.5 L40.5,13.0 L40.5,10.0 L41.0,9.5 L41.5,10.0 L41.5,13.0 Z M33.0,33.5 L32.5,33.0 L32.5,31.0 L33.0,30.5 L33.5,31.0 L33.5,33.0 Z M43.0,55.5 L42.5,55.0 L42.5,54.0 L43.0,53.5 L43.5,54.0 L43.5,55.0 Z M125.0,189.5 L124.5,189.0 L124.5,188.0 L125.0,187.5 L125.5,188.0 L125.5,189.0 Z M135.0,212.5 L134.5,212.0 L134.5,210.0 L135.0,209.5 L135.5,210.0 L135.5,212.0 Z M127.0,233.5 L126.5,233.0 L126.5,230.0 L127.0,229.5 L127.5,230.0 L127.5,233.0 Z M144.0,233.5 L143.5,233.0 L143.5,230.0 L144.0,229.5 L144.5,230.0 L144.5,233.0 Z"/></svg>