<?xml version="1.0" encoding="UTF-8"?><svg xmlns="http://www.w3.org/2000/svg" width="169" height="244" viewBox="0 0 169 244" shape-rendering="geometricPrecision"><path fill="#fefefe" fill-rule="evenodd" d="M160.0,243.5 L8.0,243.5 L7.0,242.5 L6.0,242.5 L0.5,237.0 L0.5,236.0 L-0.5,235.0 L-0.5,8.0 L0.5,7.0 L0.5,6.0 L1.5,5.0 L1.5,4.0 L4.0,1.5 L5.0,1.5 L6.0,0.5 L7.0,0.5 L8.0,-0.5 L160.0,-0.5 L161.0,0.5 L162.0,0.5 L167.5,6.0 L167.5,7.0 L168.5,8.0 L168.5,235.0 L167.5,236.0 L167.5,237.0 L166.5,238.0 L166.5,239.0 L164.0,241.5 L163.0,241.5 L162.0,242.5 L161.0,242.5 Z M39.5,33.0 L39.5,29.0 L40.0,28.5 L42.0,28.5 L42.5,28.0 L42.5,25.0 L42.0,24.5 L40.0,24.5 L39.5,24.0 L39.5,10.0 L39.0,9.5 L33.0,9.5 L32.5,10.0 L32.5,11.0 L30.5,13.0 L30.5,14.0 L28.5,16.0 L28.5,17.0 L26.5,19.0 L26.5,20.0 L24.5,22.0 L24.5,23.0 L22.5,25.0 L22.5,28.0 L23.0,28.5 L34.0,28.5 L34.5,29.0 L34.5,33.0 L35.0,33.5 L39.0,33.5 Z M34.0,24.5 L28.0,24.5 L27.5,24.0 L29.5,22.0 L29.5,21.0 L31.5,19.0 L31.5,18.0 L34.0,15.5 L34.5,16.0 L34.5,24.0 Z M35.5,65.0 L36.5,64.0 L36.5,63.0 L38.5,61.0 L38.5,60.0 L43.5,55.0 L43.5,54.0 L38.5,49.0 L38.5,48.0 L36.5,46.0 L36.5,45.0 L35.0,43.5 L34.0,43.5 L32.5,45.0 L32.5,46.0 L30.5,48.0 L30.5,49.0 L25.5,54.0 L25.5,55.0 L30.5,60.0 L30.5,61.0 L32.5,63.0 L32.5,64.0 L33.0,64.5 L34.0,65.5 L35.0,65.5 Z M56.5,83.0 L57.5,82.0 L57.5,81.0 L59.5,79.0 L59.5,78.0 L61.5,76.0 L61.5,75.0 L64.5,72.0 L64.5,71.0 L69.5,66.0 L69.5,65.0 L66.5,62.0 L66.5,61.0 L62.5,57.0 L62.5,56.0 L59.5,53.0 L59.5,52.0 L57.5,50.0 L57.5,49.0 L56.5,48.0 L56.5,47.0 L56.0,46.5 L55.5,47.0 L55.5,48.0 L53.5,50.0 L53.5,51.0 L51.5,53.0 L51.5,54.0 L49.5,56.0 L49.5,57.0 L43.5,63.0 L43.5,64.0 L42.5,65.0 L42.5,66.0 L46.5,70.0 L46.5,71.0 L50.5,75.0 L50.5,76.0 L52.5,78.0 L52.5,79.0 L54.5,81.0 L54.5,82.0 L56.0,83.5 Z M112.5,83.0 L113.5,82.0 L113.5,81.0 L115.5,79.0 L115.5,78.0 L117.5,76.0 L117.5,75.0 L121.5,71.0 L121.5,70.0 L125.5,66.0 L125.5,64.0 L119.5,58.0 L119.5,57.0 L116.5,54.0 L116.5,53.0 L114.5,51.0 L114.5,50.0 L112.5,48.0 L112.5,47.0 L112.0,46.5 L111.5,47.0 L111.5,48.0 L110.5,49.0 L110.5,50.0 L108.5,52.0 L108.5,53.0 L105.5,56.0 L105.5,57.0 L100.5,62.0 L100.5,63.0 L98.5,65.0 L98.5,66.0 L103.5,71.0 L103.5,72.0 L106.5,75.0 L106.5,76.0 L109.5,79.0 L109.5,80.0 L110.5,81.0 L110.5,82.0 L112.0,83.5 Z M56.5,184.0 L57.5,183.0 L57.5,182.0 L59.5,180.0 L59.5,179.0 L61.5,177.0 L61.5,176.0 L65.5,172.0 L65.5,171.0 L69.5,167.0 L69.5,166.0 L66.5,163.0 L66.5,162.0 L62.5,158.0 L62.5,157.0 L59.5,154.0 L59.5,153.0 L57.5,151.0 L57.5,150.0 L56.0,148.5 L54.5,150.0 L54.5,151.0 L52.5,153.0 L52.5,154.0 L49.5,157.0 L49.5,158.0 L44.5,163.0 L44.5,164.0 L42.5,166.0 L42.5,167.0 L45.5,170.0 L45.5,171.0 L49.5,175.0 L49.5,176.0 L52.5,179.0 L52.5,180.0 L54.5,182.0 L54.5,183.0 L56.0,184.5 Z M112.5,184.0 L113.5,183.0 L113.5,182.0 L115.5,180.0 L115.5,179.0 L118.5,176.0 L118.5,175.0 L123.5,170.0 L123.5,169.0 L125.5,167.0 L125.5,166.0 L123.5,164.0 L123.5,163.0 L118.5,158.0 L118.5,157.0 L115.5,154.0 L115.5,153.0 L114.5,152.0 L114.5,151.0 L112.0,148.5 L110.5,150.0 L110.5,151.0 L108.5,153.0 L108.5,154.0 L106.5,156.0 L106.5,157.0 L102.5,161.0 L102.5,162.0 L98.5,166.0 L98.5,167.0 L102.5,171.0 L102.5,172.0 L106.5,176.0 L106.5,177.0 L108.5,179.0 L108.5,180.0 L110.5,182.0 L110.5,183.0 L112.0,184.5 Z M134.5,199.0 L135.5,198.0 L135.5,197.0 L137.5,195.0 L137.5,194.0 L142.5,189.0 L142.5,188.0 L137.5,183.0 L137.5,182.0 L135.5,180.0 L135.5,179.0 L134.0,177.5 L133.0,177.5 L131.5,179.0 L131.5,180.0 L129.5,182.0 L129.5,183.0 L124.5,188.0 L124.5,189.0 L129.5,194.0 L129.5,195.0 L131.5,197.0 L131.5,198.0 L132.0,198.5 L133.0,199.5 L134.0,199.5 Z M135.5,233.0 L135.5,232.0 L137.5,230.0 L137.5,229.0 L139.5,227.0 L139.5,226.0 L141.5,224.0 L141.5,223.0 L143.5,221.0 L143.5,220.0 L145.5,218.0 L145.5,215.0 L145.0,214.5 L134.0,214.5 L133.5,214.0 L133.5,210.0 L133.0,209.5 L129.0,209.5 L128.5,210.0 L128.5,214.0 L128.0,214.5 L126.0,214.5 L125.5,215.0 L125.5,218.0 L126.0,218.5 L128.0,218.5 L128.5,219.0 L128.5,233.0 L129.0,233.5 L135.0,233.5 Z M134.0,227.5 L133.5,227.0 L133.5,219.0 L134.0,218.5 L140.0,218.5 L140.5,219.0 L138.5,221.0 L138.5,222.0 L136.5,224.0 L136.5,225.0 Z"/><path fill="#ff0202" fill-rule="evenodd" d="M38.0,33.5 L35.0,33.5 L34.5,33.0 L34.5,29.0 L34.0,28.5 L24.0,28.5 L23.5,28.0 L23.5,24.0 L25.5,22.0 L25.5,21.0 L27.5,19.0 L27.5,18.0 L30.5,15.0 L30.5,14.0 L32.5,12.0 L32.5,11.0 L34.0,9.5 L38.0,9.5 L38.5,10.0 L38.5,24.0 L40.0,25.5 L42.0,25.5 L42.5,26.0 L42.5,28.0 L42.0,28.5 L39.0,28.5 L38.5,29.0 L38.5,33.0 Z M34.5,25.0 L34.5,15.0 L34.0,14.5 L32.5,16.0 L32.5,17.0 L30.5,19.0 L30.5,20.0 L28.5,22.0 L28.5,23.0 L27.5,24.0 L27.5,25.0 L28.0,25.5 L34.0,25.5 Z M34.0,65.5 L33.5,65.0 L33.5,64.0 L32.5,63.0 L32.5,62.0 L28.5,58.0 L28.5,57.0 L26.5,55.0 L26.5,54.0 L28.5,52.0 L28.5,51.0 L32.5,47.0 L32.5,46.0 L34.0,44.5 L35.0,44.5 L36.5,46.0 L36.5,47.0 L39.5,50.0 L39.5,51.0 L42.5,54.0 L42.5,55.0 L39.5,58.0 L39.5,59.0 L36.5,62.0 L36.5,63.0 Z M56.0,83.5 L55.5,83.0 L55.5,82.0 L54.5,81.0 L54.5,80.0 L52.5,78.0 L52.5,77.0 L49.5,74.0 L49.5,73.0 L42.5,66.0 L42.5,65.0 L48.5,59.0 L48.5,58.0 L51.5,55.0 L51.5,54.0 L53.5,52.0 L53.5,51.0 L55.5,49.0 L55.5,48.0 L56.0,47.5 L56.5,48.0 L56.5,49.0 L58.5,51.0 L58.5,52.0 L60.5,54.0 L60.5,55.0 L63.5,58.0 L63.5,59.0 L69.5,65.0 L66.5,68.0 L66.5,69.0 L62.5,73.0 L62.5,74.0 L59.5,77.0 L59.5,78.0 L57.5,80.0 L57.5,81.0 L56.5,82.0 L56.5,83.0 Z M112.0,83.5 L111.5,83.0 L111.5,82.0 L110.5,81.0 L110.5,80.0 L108.5,78.0 L108.5,77.0 L105.5,74.0 L105.5,73.0 L100.5,68.0 L100.5,67.0 L98.5,65.0 L104.5,59.0 L104.5,58.0 L107.5,55.0 L107.5,54.0 L109.5,52.0 L109.5,51.0 L111.5,49.0 L111.5,48.0 L112.0,47.5 L113.5,49.0 L113.5,50.0 L114.5,51.0 L114.5,52.0 L116.5,54.0 L116.5,55.0 L120.5,59.0 L120.5,60.0 L125.5,65.0 L125.5,66.0 L119.5,72.0 L119.5,73.0 L116.5,76.0 L116.5,77.0 L114.5,79.0 L114.5,80.0 L112.5,82.0 L112.5,83.0 Z M56.0,184.5 L55.5,184.0 L55.5,183.0 L53.5,181.0 L53.5,180.0 L51.5,178.0 L51.5,177.0 L48.5,174.0 L48.5,173.0 L42.5,167.0 L42.5,166.0 L48.5,160.0 L48.5,159.0 L51.5,156.0 L51.5,155.0 L53.5,153.0 L53.5,152.0 L55.5,150.0 L55.5,149.0 L56.0,148.5 L56.5,149.0 L56.5,150.0 L57.5,151.0 L57.5,152.0 L59.5,154.0 L59.5,155.0 L62.5,158.0 L62.5,159.0 L69.5,166.0 L69.5,167.0 L62.5,174.0 L62.5,175.0 L59.5,178.0 L59.5,179.0 L57.5,181.0 L57.5,182.0 L56.5,183.0 L56.5,184.0 Z M112.0,184.5 L111.5,184.0 L111.5,183.0 L110.5,182.0 L110.5,181.0 L108.5,179.0 L108.5,178.0 L105.5,175.0 L105.5,174.0 L98.5,167.0 L98.5,166.0 L104.5,160.0 L104.5,159.0 L108.5,155.0 L108.5,154.0 L110.5,152.0 L110.5,151.0 L111.5,150.0 L111.5,149.0 L112.0,148.5 L112.5,149.0 L112.5,150.0 L114.5,152.0 L114.5,153.0 L116.5,155.0 L116.5,156.0 L119.5,159.0 L119.5,160.0 L125.5,166.0 L125.5,167.0 L119.5,173.0 L119.5,174.0 L116.5,177.0 L116.5,178.0 L114.5,180.0 L114.5,181.0 L112.5,183.0 L112.5,184.0 Z M134.0,198.5 L133.0,198.5 L131.5,197.0 L131.5,196.0 L128.5,193.0 L128.5,192.0 L125.5,189.0 L125.5,188.0 L128.5,185.0 L128.5,184.0 L131.5,181.0 L131.5,180.0 L134.0,177.5 L134.5,178.0 L134.5,179.0 L135.5,180.0 L135.5,181.0 L139.5,185.0 L139.5,186.0 L141.5,188.0 L141.5,189.0 L139.5,191.0 L139.5,192.0 L135.5,196.0 L135.5,197.0 Z M134.0,233.5 L130.0,233.5 L129.5,233.0 L129.5,219.0 L128.0,217.5 L126.0,217.5 L125.5,217.0 L125.5,215.0 L126.0,214.5 L129.0,214.5 L129.5,214.0 L129.5,210.0 L130.0,209.5 L133.0,209.5 L133.5,210.0 L133.5,214.0 L134.0,214.5 L144.0,214.5 L144.5,215.0 L144.5,219.0 L142.5,221.0 L142.5,222.0 L140.5,224.0 L140.5,225.0 L137.5,228.0 L137.5,229.0 L135.5,231.0 L135.5,232.0 Z M134.5,228.0 L135.5,227.0 L135.5,226.0 L137.5,224.0 L137.5,223.0 L139.5,221.0 L139.5,220.0 L140.5,219.0 L140.5,218.0 L140.0,217.5 L134.0,217.5 L133.5,218.0 L133.5,228.0 L134.0,228.5 Z"/><path fill="#ff6666" fill-rule="evenodd" d="M39.0,24.5 L38.5,24.0 L38.5,10.0 L39.0,9.5 L39.5,10.0 L39.5,24.0 Z M34.0,25.5 L28.0,25.5 L27.5,25.0 L28.0,24.5 L34.0,24.5 L34.5,25.0 Z M41.0,25.5 L40.0,25.5 L39.5,25.0 L40.0,24.5 L41.0,24.5 L41.5,25.0 Z M39.0,33.5 L38.5,33.0 L38.5,29.0 L39.0,28.5 L39.5,29.0 L39.5,33.0 Z M35.0,44.5 L34.0,44.5 L33.5,44.0 L34.0,43.5 L35.0,43.5 L35.5,44.0 Z M134.0,199.5 L133.0,199.5 L132.5,199.0 L133.0,198.5 L134.0,198.5 L134.5,199.0 Z M129.0,214.5 L128.5,214.0 L128.5,210.0 L129.0,209.5 L129.5,210.0 L129.5,214.0 Z M128.0,218.5 L127.0,218.5 L126.5,218.0 L127.0,217.5 L128.0,217.5 L128.5,218.0 Z M140.0,218.5 L134.0,218.5 L133.5,218.0 L134.0,217.5 L140.0,217.5 L140.5,218.0 Z M129.0,233.5 L128.5,233.0 L128.5,219.0 L129.0,218.5 L129.5,219.0 L129.5,233.0 Z"/><path fill="#ff9e9e" fill-rule="evenodd" d="M23.0,28.5 L22.5,28.0 L22.5,25.0 L23.0,24.5 L23.5,25.0 L23.5,28.0 Z M43.0,55.5 L42.5,55.0 L42.5,54.0 L43.0,53.5 L43.5,54.0 L43.5,55.0 Z M125.0,189.5 L124.5,189.0 L124.5,188.0 L125.0,187.5 L125.5,188.0 L125.5,189.0 Z M145.0,218.5 L144.5,218.0 L144.5,215.0 L145.0,214.5 L145.5,215.0 L145.5,218.0 Z"/></svg>