<?xml version="1.0" encoding="UTF-8"?><svg xmlns="http://www.w3.org/2000/svg" width="169" height="244" viewBox="0 0 169 244" shape-rendering="geometricPrecision"><path fill="#fefefe" fill-rule="evenodd" d="M161.0,243.5 L8.0,243.5 L7.0,242.5 L6.0,242.5 L5.0,241.5 L4.0,241.5 L1.5,239.0 L1.5,238.0 L0.5,237.0 L0.5,236.0 L-0.5,235.0 L-0.5,7.0 L0.5,6.0 L0.5,5.0 L5.0,0.5 L6.0,0.5 L7.0,-0.5 L160.0,-0.5 L161.0,0.5 L162.0,0.5 L163.0,1.5 L164.0,1.5 L166.5,4.0 L166.5,5.0 L167.5,6.0 L167.5,7.0 L168.5,8.0 L168.5,236.0 L167.5,237.0 L167.5,238.0 L163.0,242.5 L162.0,242.5 Z M46.5,40.0 L46.5,37.0 L46.0,36.5 L43.0,36.5 L42.0,35.5 L41.0,35.5 L40.5,35.0 L40.5,34.0 L41.0,33.5 L42.0,33.5 L43.0,32.5 L44.0,32.5 L47.5,29.0 L47.5,28.0 L48.5,27.0 L48.5,25.0 L49.5,24.0 L49.5,20.0 L48.5,19.0 L48.5,16.0 L46.5,14.0 L46.5,13.0 L45.0,11.5 L44.0,11.5 L43.0,10.5 L42.0,10.5 L41.0,9.5 L32.0,9.5 L31.0,10.5 L30.0,10.5 L29.0,11.5 L28.0,11.5 L25.5,14.0 L25.5,15.0 L24.5,16.0 L24.5,18.0 L23.5,19.0 L23.5,24.0 L24.5,25.0 L24.5,27.0 L25.5,28.0 L25.5,29.0 L29.0,32.5 L30.0,32.5 L31.0,33.5 L33.0,33.5 L35.5,36.0 L35.5,37.0 L39.0,40.5 L46.0,40.5 Z M40.0,29.5 L33.0,29.5 L30.5,27.0 L30.5,26.0 L29.5,25.0 L29.5,19.0 L30.5,18.0 L30.5,17.0 L33.0,14.5 L34.0,14.5 L35.0,13.5 L38.0,13.5 L39.0,14.5 L40.0,14.5 L42.5,17.0 L42.5,18.0 L43.5,19.0 L43.5,24.0 L42.5,25.0 L42.5,27.0 Z M35.5,65.0 L36.5,64.0 L36.5,63.0 L38.5,61.0 L38.5,60.0 L43.5,55.0 L43.5,54.0 L38.5,49.0 L38.5,48.0 L36.5,46.0 L36.5,45.0 L35.0,43.5 L34.0,43.5 L32.5,45.0 L32.5,46.0 L30.5,48.0 L30.5,49.0 L25.5,54.0 L25.5,55.0 L30.5,60.0 L30.5,61.0 L32.5,63.0 L32.5,64.0 L33.0,64.5 L34.0,65.5 L35.0,65.5 Z M102.5,197.0 L102.5,181.0 L103.5,180.0 L103.5,177.0 L104.5,176.0 L104.5,171.0 L104.0,170.5 L103.0,170.5 L102.5,171.0 L102.5,172.0 L101.5,173.0 L101.5,174.0 L100.0,175.5 L99.5,175.0 L99.5,174.0 L98.5,173.0 L100.5,171.0 L100.5,170.0 L101.5,169.0 L101.5,168.0 L102.0,167.5 L104.0,169.5 L104.5,169.0 L104.5,168.0 L105.5,167.0 L105.5,166.0 L106.5,165.0 L106.5,162.0 L107.5,161.0 L107.5,157.0 L108.5,156.0 L108.5,149.0 L107.5,148.0 L107.5,142.0 L106.5,141.0 L106.5,139.0 L108.0,137.5 L109.0,137.5 L111.0,135.5 L112.0,135.5 L113.0,134.5 L114.0,134.5 L118.5,130.0 L117.5,129.0 L117.5,127.0 L116.5,126.0 L117.0,125.5 L118.0,125.5 L120.5,123.0 L120.5,120.0 L117.5,117.0 L118.5,116.0 L118.5,115.0 L119.5,114.0 L119.5,111.0 L118.5,110.0 L118.5,109.0 L115.5,106.0 L115.5,74.0 L116.5,73.0 L116.5,72.0 L117.5,71.0 L117.5,69.0 L118.5,68.0 L118.5,64.0 L117.5,63.0 L117.5,60.0 L116.5,59.0 L116.5,58.0 L114.5,56.0 L114.5,55.0 L113.0,53.5 L111.5,55.0 L111.5,56.0 L109.5,58.0 L109.5,59.0 L108.5,60.0 L108.5,62.0 L107.5,63.0 L107.5,69.0 L108.5,70.0 L108.5,72.0 L109.5,73.0 L109.5,74.0 L110.5,75.0 L110.5,106.0 L110.0,106.5 L109.0,105.5 L108.0,105.5 L106.5,104.0 L106.5,102.0 L107.5,101.0 L107.5,95.0 L108.5,94.0 L108.5,87.0 L107.5,86.0 L107.5,82.0 L106.5,81.0 L106.5,78.0 L105.5,77.0 L105.5,76.0 L104.5,75.0 L104.5,74.0 L104.0,73.5 L102.0,75.5 L101.5,75.0 L101.5,74.0 L100.5,73.0 L100.5,72.0 L98.5,70.0 L99.5,69.0 L99.5,68.0 L100.0,67.5 L101.5,69.0 L101.5,70.0 L102.5,71.0 L102.5,72.0 L103.0,72.5 L104.0,72.5 L104.5,72.0 L104.5,67.0 L103.5,66.0 L103.5,63.0 L102.5,62.0 L102.5,46.0 L102.0,45.5 L101.0,45.5 L100.5,46.0 L100.5,47.0 L99.5,48.0 L99.5,49.0 L98.5,50.0 L98.5,51.0 L97.5,52.0 L97.5,53.0 L97.0,53.5 L91.0,53.5 L89.0,51.5 L86.0,51.5 L85.0,50.5 L83.0,50.5 L82.0,51.5 L79.0,51.5 L77.0,53.5 L71.0,53.5 L70.5,53.0 L70.5,52.0 L69.5,51.0 L69.5,50.0 L68.5,49.0 L68.5,48.0 L67.5,47.0 L67.5,46.0 L67.0,45.5 L66.0,45.5 L65.5,46.0 L65.5,62.0 L64.5,63.0 L64.5,66.0 L63.5,67.0 L63.5,72.0 L64.0,72.5 L65.0,72.5 L65.5,72.0 L65.5,71.0 L66.5,70.0 L66.5,69.0 L68.0,67.5 L68.5,68.0 L68.5,69.0 L69.5,70.0 L67.5,72.0 L67.5,73.0 L66.5,74.0 L66.5,75.0 L66.0,75.5 L64.0,73.5 L63.5,74.0 L63.5,75.0 L62.5,76.0 L62.5,77.0 L61.5,78.0 L61.5,80.0 L60.5,81.0 L60.5,86.0 L59.5,87.0 L59.5,94.0 L60.5,95.0 L60.5,101.0 L61.5,102.0 L61.5,104.0 L60.0,105.5 L59.0,105.5 L58.0,106.5 L57.0,106.5 L55.0,108.5 L54.0,108.5 L53.5,109.0 L53.5,110.0 L53.0,110.5 L52.0,110.5 L49.5,113.0 L50.5,114.0 L50.5,116.0 L51.5,117.0 L51.0,117.5 L50.0,117.5 L47.5,120.0 L47.5,123.0 L50.5,126.0 L49.5,127.0 L49.5,128.0 L48.5,129.0 L48.5,132.0 L49.5,133.0 L49.5,134.0 L52.5,137.0 L52.5,169.0 L51.5,170.0 L51.5,171.0 L50.5,172.0 L50.5,174.0 L49.5,175.0 L49.5,179.0 L50.5,180.0 L50.5,183.0 L51.5,184.0 L51.5,185.0 L53.5,187.0 L53.5,188.0 L55.0,189.5 L56.5,188.0 L56.5,187.0 L58.5,185.0 L58.5,184.0 L59.5,183.0 L59.5,181.0 L60.5,180.0 L60.5,174.0 L59.5,173.0 L59.5,171.0 L58.5,170.0 L58.5,169.0 L57.5,168.0 L57.5,137.0 L58.0,136.5 L59.0,137.5 L60.0,137.5 L61.5,139.0 L61.5,141.0 L60.5,142.0 L60.5,148.0 L59.5,149.0 L59.5,156.0 L60.5,157.0 L60.5,162.0 L61.5,163.0 L61.5,165.0 L62.5,166.0 L62.5,167.0 L63.5,168.0 L63.5,169.0 L64.0,169.5 L66.0,167.5 L66.5,168.0 L66.5,169.0 L67.5,170.0 L67.5,171.0 L69.5,173.0 L68.5,174.0 L68.5,175.0 L68.0,175.5 L66.5,174.0 L66.5,173.0 L65.5,172.0 L65.5,171.0 L65.0,170.5 L64.0,170.5 L63.5,171.0 L63.5,176.0 L64.5,177.0 L64.5,180.0 L65.5,181.0 L65.5,197.0 L66.0,197.5 L67.0,197.5 L67.5,197.0 L67.5,196.0 L68.5,195.0 L68.5,194.0 L69.5,193.0 L69.5,192.0 L70.5,191.0 L70.5,190.0 L71.0,189.5 L77.0,189.5 L79.0,191.5 L82.0,191.5 L83.0,192.5 L85.0,192.5 L86.0,191.5 L89.0,191.5 L91.0,189.5 L97.0,189.5 L97.5,190.0 L97.5,191.0 L98.5,192.0 L98.5,193.0 L99.5,194.0 L99.5,195.0 L100.5,196.0 L100.5,197.0 L101.0,197.5 L102.0,197.5 Z M116.0,64.5 L114.5,63.0 L115.0,62.5 L116.0,62.5 L116.5,63.0 L116.5,64.0 Z M110.0,70.5 L109.5,70.0 L109.5,68.0 L110.0,67.5 L111.5,69.0 Z M116.0,69.5 L115.0,69.5 L114.5,69.0 L116.0,67.5 L116.5,68.0 L116.5,69.0 Z M113.0,75.5 L112.0,75.5 L111.5,75.0 L111.5,74.0 L112.0,73.5 L113.5,75.0 Z M74.0,104.5 L73.0,104.5 L72.5,104.0 L73.0,103.5 L74.0,103.5 L74.5,104.0 Z M95.0,104.5 L94.0,104.5 L93.5,104.0 L94.0,103.5 L95.0,103.5 L95.5,104.0 Z M68.0,106.5 L67.0,106.5 L66.5,106.0 L67.0,105.5 L68.0,105.5 L68.5,106.0 Z M81.0,106.5 L80.0,106.5 L79.5,106.0 L80.0,105.5 L81.0,105.5 L81.5,106.0 Z M88.0,106.5 L87.0,106.5 L86.5,106.0 L87.0,105.5 L88.0,105.5 L88.5,106.0 Z M101.0,106.5 L100.0,106.5 L99.5,106.0 L100.0,105.5 L101.0,105.5 L101.5,106.0 Z M111.0,110.5 L110.5,110.0 L110.5,109.0 L111.0,108.5 L111.5,109.0 L111.5,110.0 Z M117.0,111.5 L116.5,111.0 L116.5,110.0 L117.0,109.5 L117.5,110.0 L117.5,111.0 Z M55.0,118.5 L54.0,118.5 L53.5,118.0 L54.0,117.5 L55.0,117.5 L55.5,118.0 Z M118.0,123.5 L50.0,123.5 L49.5,123.0 L49.5,120.0 L50.0,119.5 L118.0,119.5 L118.5,120.0 L118.5,123.0 Z M54.0,126.5 L53.0,126.5 L52.5,126.0 L53.0,125.5 L54.0,125.5 L54.5,126.0 Z M57.0,126.5 L56.0,126.5 L55.5,126.0 L56.0,125.5 L57.0,125.5 L57.5,126.0 Z M83.0,131.5 L82.5,131.0 L82.5,130.0 L83.0,129.5 L83.5,130.0 L83.5,131.0 Z M85.0,131.5 L84.5,131.0 L84.5,130.0 L85.0,129.5 L85.5,130.0 L85.5,131.0 Z M56.0,169.5 L54.5,168.0 L55.0,167.5 L56.0,167.5 L56.5,168.0 L56.5,169.0 Z M58.0,175.5 L56.5,174.0 L58.0,172.5 L58.5,173.0 L58.5,175.0 Z M52.0,175.5 L51.5,175.0 L51.5,174.0 L52.0,173.5 L53.0,173.5 L53.5,174.0 Z M134.5,199.0 L135.5,198.0 L135.5,197.0 L137.5,195.0 L137.5,194.0 L142.5,189.0 L142.5,188.0 L137.5,183.0 L137.5,182.0 L135.5,180.0 L135.5,179.0 L134.0,177.5 L133.0,177.5 L131.5,179.0 L131.5,180.0 L129.5,182.0 L129.5,183.0 L124.5,188.0 L124.5,189.0 L129.5,194.0 L129.5,195.0 L131.5,197.0 L131.5,198.0 L132.0,198.5 L133.0,199.5 L134.0,199.5 Z M53.0,180.5 L52.0,180.5 L51.5,180.0 L51.5,179.0 L52.0,178.5 L53.5,180.0 Z M136.5,233.0 L137.0,232.5 L138.0,232.5 L139.0,231.5 L140.0,231.5 L142.5,229.0 L142.5,228.0 L143.5,227.0 L143.5,225.0 L144.5,224.0 L144.5,219.0 L143.5,218.0 L143.5,216.0 L142.5,215.0 L142.5,214.0 L139.0,210.5 L138.0,210.5 L137.0,209.5 L135.0,209.5 L132.5,207.0 L132.5,206.0 L129.0,202.5 L122.0,202.5 L121.5,203.0 L121.5,206.0 L122.0,206.5 L125.0,206.5 L126.0,207.5 L127.0,207.5 L127.5,208.0 L127.5,209.0 L127.0,209.5 L126.0,209.5 L125.0,210.5 L124.0,210.5 L120.5,214.0 L120.5,215.0 L119.5,216.0 L119.5,218.0 L118.5,219.0 L118.5,223.0 L119.5,224.0 L119.5,227.0 L121.5,229.0 L121.5,230.0 L123.0,231.5 L124.0,231.5 L125.0,232.5 L126.0,232.5 L127.0,233.5 L136.0,233.5 Z M133.0,229.5 L130.0,229.5 L129.0,228.5 L128.0,228.5 L125.5,226.0 L125.5,225.0 L124.5,224.0 L124.5,219.0 L125.5,218.0 L125.5,216.0 L128.0,213.5 L135.0,213.5 L137.5,216.0 L137.5,217.0 L138.5,218.0 L138.5,224.0 L137.5,225.0 L137.5,226.0 L135.0,228.5 L134.0,228.5 Z"/><path fill="#151414" fill-rule="evenodd" d="M104.0,72.5 L102.5,71.0 L102.5,70.0 L101.5,69.0 L101.5,68.0 L101.0,67.5 L100.0,67.5 L99.5,67.0 L99.5,66.0 L98.0,64.5 L93.0,64.5 L92.0,65.5 L91.0,65.5 L90.0,64.5 L88.0,64.5 L87.0,63.5 L81.0,63.5 L80.0,64.5 L78.0,64.5 L77.0,65.5 L76.0,65.5 L75.0,64.5 L70.0,64.5 L68.5,66.0 L68.5,67.0 L68.0,67.5 L67.0,67.5 L66.5,68.0 L66.5,69.0 L65.5,70.0 L65.5,71.0 L64.0,72.5 L63.5,72.0 L63.5,70.0 L64.5,69.0 L64.5,65.0 L65.5,64.0 L65.5,46.0 L66.0,45.5 L67.0,46.5 L67.5,47.0 L67.5,48.0 L68.5,49.0 L68.5,50.0 L68.0,50.5 L67.0,49.5 L66.5,50.0 L66.5,58.0 L67.0,58.5 L71.0,54.5 L72.0,54.5 L73.0,53.5 L78.0,53.5 L79.0,52.5 L81.0,52.5 L82.0,51.5 L86.0,51.5 L87.0,52.5 L89.0,52.5 L90.0,53.5 L95.0,53.5 L96.0,54.5 L97.0,54.5 L101.0,58.5 L101.5,58.0 L101.5,50.0 L101.0,49.5 L100.0,50.5 L99.5,50.0 L99.5,49.0 L100.5,48.0 L100.5,47.0 L102.0,45.5 L102.5,46.0 L102.5,64.0 L103.5,65.0 L103.5,69.0 L104.5,70.0 L104.5,72.0 Z M69.0,52.5 L68.5,52.0 L68.5,51.0 L69.0,50.5 L69.5,51.0 L69.5,52.0 Z M99.0,52.5 L98.5,52.0 L98.5,51.0 L99.0,50.5 L99.5,51.0 L99.5,52.0 Z M70.0,54.5 L69.5,54.0 L69.5,53.0 L70.0,52.5 L70.5,53.0 L70.5,54.0 Z M98.0,54.5 L97.5,54.0 L97.5,53.0 L98.0,52.5 L98.5,53.0 L98.5,54.0 Z M115.0,58.5 L113.5,57.0 L113.5,56.0 L114.0,55.5 L115.5,57.0 L115.5,58.0 Z M111.0,58.5 L110.5,58.0 L110.5,57.0 L111.0,56.5 L111.5,57.0 L111.5,58.0 Z M110.0,60.5 L109.5,60.0 L109.5,59.0 L110.0,58.5 L110.5,59.0 L110.5,60.0 Z M116.0,60.5 L115.5,60.0 L115.5,59.0 L116.0,58.5 L116.5,59.0 L116.5,60.0 Z M109.0,64.5 L108.5,64.0 L108.5,61.0 L109.0,60.5 L109.5,61.0 L109.5,64.0 Z M117.0,70.5 L116.5,70.0 L116.5,62.0 L117.0,61.5 L117.5,62.0 L117.5,70.0 Z M113.0,63.5 L112.0,63.5 L111.5,63.0 L112.0,62.5 L113.0,62.5 L113.5,63.0 Z M75.0,66.5 L74.0,66.5 L73.5,66.0 L74.0,65.5 L75.0,65.5 L75.5,66.0 Z M94.0,66.5 L93.0,66.5 L92.5,66.0 L93.0,65.5 L94.0,65.5 L94.5,66.0 Z M109.0,70.5 L108.5,70.0 L108.5,67.0 L109.0,66.5 L109.5,67.0 L109.5,70.0 Z M115.0,68.5 L114.0,68.5 L113.5,68.0 L115.0,66.5 L115.5,67.0 L115.5,68.0 Z M112.0,68.5 L111.0,68.5 L110.5,68.0 L111.0,67.5 L112.0,67.5 L112.5,68.0 Z M69.0,72.5 L68.5,72.0 L68.5,71.0 L69.5,70.0 L69.5,69.0 L70.0,68.5 L71.0,68.5 L71.5,69.0 L70.5,70.0 L70.5,71.0 Z M98.0,71.5 L97.5,71.0 L97.5,70.0 L96.5,69.0 L97.0,68.5 L98.0,68.5 L98.5,69.0 L98.5,71.0 Z M116.0,72.5 L115.5,72.0 L115.5,71.0 L116.0,70.5 L116.5,71.0 L116.5,72.0 Z M76.0,72.5 L74.0,72.5 L73.5,72.0 L74.0,71.5 L76.0,71.5 L76.5,72.0 Z M81.0,72.5 L79.0,72.5 L78.5,72.0 L79.0,71.5 L81.0,71.5 L81.5,72.0 Z M89.0,72.5 L87.0,72.5 L86.5,72.0 L87.0,71.5 L89.0,71.5 L89.5,72.0 Z M94.0,72.5 L92.0,72.5 L91.5,72.0 L92.0,71.5 L94.0,71.5 L94.5,72.0 Z M110.0,73.5 L109.5,73.0 L109.5,72.0 L110.0,71.5 L110.5,72.0 L110.5,73.0 Z M68.0,74.5 L67.5,74.0 L67.5,73.0 L68.0,72.5 L68.5,73.0 L68.5,74.0 Z M100.0,74.5 L99.5,74.0 L99.5,73.0 L100.0,72.5 L100.5,73.0 L100.5,74.0 Z M115.0,74.5 L114.5,74.0 L114.5,73.0 L115.0,72.5 L115.5,73.0 L115.5,74.0 Z M63.0,105.5 L62.0,105.5 L61.5,105.0 L62.5,104.0 L61.5,103.0 L61.5,98.0 L60.5,97.0 L60.5,83.0 L61.5,82.0 L61.5,80.0 L62.5,79.0 L62.5,77.0 L63.5,76.0 L63.5,75.0 L64.0,74.5 L66.0,76.5 L66.5,76.0 L66.5,75.0 L67.0,74.5 L67.5,75.0 L67.5,77.0 L66.5,78.0 L66.5,90.0 L67.5,91.0 L67.5,92.0 L68.5,93.0 L68.5,94.0 L69.5,95.0 L69.5,96.0 L71.0,97.5 L73.0,97.5 L73.5,98.0 L71.5,100.0 L72.0,100.5 L73.0,100.5 L74.0,99.5 L79.0,99.5 L79.5,100.0 L79.0,100.5 L75.0,100.5 L74.0,101.5 L71.0,101.5 L70.0,102.5 L68.0,102.5 L67.0,103.5 L66.0,103.5 L65.0,104.5 L64.0,104.5 Z M106.0,105.5 L105.0,105.5 L104.0,104.5 L103.0,104.5 L102.0,103.5 L101.0,103.5 L100.0,102.5 L98.0,102.5 L97.0,101.5 L94.0,101.5 L93.0,100.5 L89.0,100.5 L88.5,100.0 L89.0,99.5 L94.0,99.5 L95.0,100.5 L96.0,100.5 L96.5,100.0 L94.5,98.0 L95.0,97.5 L97.0,97.5 L98.5,96.0 L98.5,95.0 L99.5,94.0 L99.5,93.0 L100.5,92.0 L100.5,90.0 L101.5,89.0 L101.5,78.0 L100.5,77.0 L100.5,75.0 L101.0,74.5 L101.5,75.0 L101.5,76.0 L102.0,76.5 L104.0,74.5 L104.5,75.0 L104.5,76.0 L105.5,77.0 L105.5,79.0 L106.5,80.0 L106.5,83.0 L107.5,84.0 L107.5,97.0 L106.5,98.0 L106.5,103.0 L105.5,104.0 L106.5,105.0 Z M78.0,78.5 L76.0,78.5 L75.5,78.0 L75.5,76.0 L76.0,75.5 L78.0,75.5 L78.5,76.0 L78.5,78.0 Z M92.0,78.5 L90.0,78.5 L89.5,78.0 L89.5,76.0 L90.0,75.5 L92.0,75.5 L92.5,76.0 L92.5,78.0 Z M84.0,80.5 L83.5,80.0 L83.5,79.0 L84.0,78.5 L84.5,79.0 L84.5,80.0 Z M85.0,86.5 L84.5,86.0 L84.5,81.0 L85.0,80.5 L85.5,81.0 L85.5,86.0 Z M84.0,88.5 L83.5,88.0 L83.5,87.0 L84.0,86.5 L84.5,87.0 L84.5,88.0 Z M87.0,92.5 L86.0,92.5 L85.0,91.5 L83.0,91.5 L82.0,92.5 L81.0,92.5 L80.5,92.0 L82.0,90.5 L83.0,90.5 L84.0,89.5 L85.0,90.5 L86.0,90.5 L87.5,92.0 Z M80.0,93.5 L79.0,93.5 L78.5,93.0 L79.0,92.5 L80.0,92.5 L80.5,93.0 Z M89.0,93.5 L88.0,93.5 L87.5,93.0 L88.0,92.5 L89.0,92.5 L89.5,93.0 Z M76.0,96.5 L75.0,96.5 L74.5,96.0 L76.0,94.5 L77.0,94.5 L77.5,95.0 Z M93.0,96.5 L92.0,96.5 L90.5,95.0 L91.0,94.5 L92.0,94.5 L93.5,96.0 Z M88.0,99.5 L80.0,99.5 L79.5,99.0 L80.0,98.5 L88.0,98.5 L88.5,99.0 Z M96.0,103.5 L93.0,103.5 L92.0,102.5 L86.0,102.5 L85.0,101.5 L83.0,101.5 L82.0,102.5 L76.0,102.5 L75.0,103.5 L72.0,103.5 L71.5,103.0 L72.0,102.5 L74.0,102.5 L75.0,101.5 L81.0,101.5 L82.0,100.5 L86.0,100.5 L87.0,101.5 L93.0,101.5 L94.0,102.5 L96.0,102.5 L96.5,103.0 Z M71.0,104.5 L69.0,104.5 L68.5,104.0 L69.0,103.5 L71.0,103.5 L71.5,104.0 Z M99.0,104.5 L97.0,104.5 L96.5,104.0 L97.0,103.5 L99.0,103.5 L99.5,104.0 Z M68.0,105.5 L67.0,105.5 L66.5,105.0 L67.0,104.5 L68.0,104.5 L68.5,105.0 Z M101.0,105.5 L100.0,105.5 L99.5,105.0 L100.0,104.5 L101.0,104.5 L101.5,105.0 Z M61.0,106.5 L60.0,106.5 L59.5,106.0 L60.0,105.5 L61.0,105.5 L61.5,106.0 Z M66.0,106.5 L65.0,106.5 L64.5,106.0 L65.0,105.5 L66.0,105.5 L66.5,106.0 Z M103.0,106.5 L102.0,106.5 L101.5,106.0 L102.0,105.5 L103.0,105.5 L103.5,106.0 Z M108.0,106.5 L107.0,106.5 L106.5,106.0 L107.0,105.5 L108.0,105.5 L108.5,106.0 Z M58.0,108.5 L57.0,108.5 L56.5,108.0 L58.0,106.5 L59.0,106.5 L59.5,107.0 Z M64.0,107.5 L63.0,107.5 L62.5,107.0 L63.0,106.5 L64.0,106.5 L64.5,107.0 Z M105.0,107.5 L104.0,107.5 L103.5,107.0 L104.0,106.5 L105.0,106.5 L105.5,107.0 Z M114.0,110.5 L113.0,110.5 L111.0,108.5 L110.0,108.5 L108.5,107.0 L109.0,106.5 L115.0,106.5 L115.5,107.0 L115.0,107.5 L113.0,107.5 L112.5,108.0 L114.5,110.0 Z M62.0,108.5 L61.0,108.5 L60.5,108.0 L61.0,107.5 L62.0,107.5 L62.5,108.0 Z M107.0,108.5 L106.0,108.5 L105.5,108.0 L106.0,107.5 L107.0,107.5 L107.5,108.0 Z M56.0,109.5 L55.0,109.5 L54.5,109.0 L55.0,108.5 L56.0,108.5 L56.5,109.0 Z M59.0,110.5 L58.0,110.5 L57.5,110.0 L58.0,109.5 L59.0,109.5 L59.5,110.0 Z M110.0,110.5 L109.0,110.5 L108.5,110.0 L109.0,109.5 L110.0,109.5 L110.5,110.0 Z M116.0,119.5 L108.0,119.5 L107.5,119.0 L111.0,115.5 L111.5,116.0 L111.5,117.0 L110.5,118.0 L111.0,118.5 L114.0,118.5 L115.5,117.0 L115.5,115.0 L116.5,114.0 L116.5,113.0 L115.5,112.0 L116.0,111.5 L117.0,111.5 L117.5,111.0 L117.5,110.0 L118.0,109.5 L118.5,110.0 L118.5,115.0 L117.5,116.0 L117.5,117.0 L116.5,118.0 L116.5,119.0 Z M51.0,114.5 L50.5,114.0 L50.5,112.0 L51.0,111.5 L52.0,111.5 L52.5,112.0 L51.5,113.0 L51.5,114.0 Z M55.0,113.5 L54.5,113.0 L54.5,112.0 L55.0,111.5 L56.0,111.5 L56.5,112.0 Z M113.0,113.5 L111.5,112.0 L112.0,111.5 L113.0,111.5 L113.5,112.0 L113.5,113.0 Z M52.0,117.5 L51.5,117.0 L51.5,115.0 L52.0,114.5 L52.5,115.0 L52.5,117.0 Z M60.0,119.5 L52.0,119.5 L51.5,119.0 L53.0,117.5 L54.0,118.5 L57.0,118.5 L57.5,118.0 L56.5,117.0 L56.5,116.0 L57.0,115.5 L58.5,117.0 L58.5,118.0 L59.0,118.5 L60.0,118.5 L60.5,119.0 Z M50.0,119.5 L49.0,119.5 L48.5,119.0 L49.0,118.5 L50.0,118.5 L50.5,119.0 Z M119.0,119.5 L118.0,119.5 L117.5,119.0 L118.0,118.5 L119.0,118.5 L119.5,119.0 Z M50.0,124.5 L49.0,124.5 L48.5,124.0 L49.0,123.5 L50.0,123.5 L50.5,124.0 Z M60.0,129.5 L59.5,129.0 L59.5,128.0 L57.0,125.5 L53.0,125.5 L51.0,127.5 L50.5,127.0 L50.5,126.0 L51.5,125.0 L51.5,124.0 L52.0,123.5 L64.0,123.5 L64.5,124.0 L64.5,125.0 L64.0,125.5 L63.0,125.5 L62.0,124.5 L59.0,124.5 L58.5,125.0 L60.5,127.0 L60.5,129.0 Z M111.0,127.5 L110.5,127.0 L110.5,126.0 L111.5,125.0 L111.0,124.5 L106.0,124.5 L105.0,125.5 L104.0,125.5 L103.5,125.0 L103.5,124.0 L104.0,123.5 L116.0,123.5 L116.5,124.0 L115.0,125.5 L114.0,124.5 L113.0,124.5 L112.5,125.0 L112.5,126.0 Z M119.0,124.5 L118.0,124.5 L117.5,124.0 L118.0,123.5 L119.0,123.5 L119.5,124.0 Z M82.0,126.5 L81.0,126.5 L80.5,126.0 L81.0,125.5 L82.0,125.5 L82.5,126.0 Z M87.0,126.5 L86.0,126.5 L85.5,126.0 L86.0,125.5 L87.0,125.5 L87.5,126.0 Z M116.0,128.5 L115.5,128.0 L115.5,126.0 L116.0,125.5 L116.5,126.0 L116.5,128.0 Z M80.0,128.5 L79.5,128.0 L79.5,127.0 L80.0,126.5 L80.5,127.0 L80.5,128.0 Z M88.0,128.5 L87.5,128.0 L87.5,127.0 L88.0,126.5 L88.5,127.0 L88.5,128.0 Z M50.0,129.5 L49.5,129.0 L49.5,128.0 L50.0,127.5 L50.5,128.0 L50.5,129.0 Z M70.0,130.5 L69.0,130.5 L66.5,128.0 L67.0,127.5 L68.0,127.5 L70.5,130.0 Z M99.0,130.5 L98.0,130.5 L97.5,130.0 L100.0,127.5 L101.0,127.5 L101.5,128.0 Z M109.0,130.5 L108.5,130.0 L108.5,129.0 L110.0,127.5 L110.5,128.0 L110.5,129.0 Z M79.0,132.5 L78.5,132.0 L78.5,129.0 L79.0,128.5 L79.5,129.0 L79.5,132.0 Z M89.0,132.5 L88.5,132.0 L88.5,129.0 L89.0,128.5 L89.5,129.0 L89.5,132.0 Z M117.0,131.5 L116.0,131.5 L115.5,131.0 L116.5,130.0 L116.5,129.0 L117.0,128.5 L117.5,129.0 L117.5,131.0 Z M67.0,168.5 L66.5,168.0 L66.5,167.0 L66.0,166.5 L64.0,168.5 L63.5,168.0 L63.5,167.0 L62.5,166.0 L62.5,164.0 L61.5,163.0 L61.5,161.0 L60.5,160.0 L60.5,146.0 L61.5,145.0 L61.5,140.0 L62.5,139.0 L61.5,138.0 L62.0,137.5 L63.0,137.5 L63.5,137.0 L62.0,135.5 L61.0,135.5 L60.0,134.5 L59.5,135.0 L59.5,136.0 L59.0,136.5 L54.0,136.5 L53.5,136.0 L54.0,135.5 L57.0,135.5 L59.5,133.0 L59.5,132.0 L60.5,131.0 L60.5,130.0 L61.0,129.5 L61.5,130.0 L61.5,133.0 L65.5,137.0 L65.5,138.0 L69.0,141.5 L70.0,141.5 L73.5,145.0 L73.0,145.5 L71.0,145.5 L69.5,147.0 L69.5,148.0 L68.5,149.0 L68.5,150.0 L67.5,151.0 L67.5,152.0 L66.5,153.0 L66.5,165.0 L67.5,166.0 L67.5,168.0 Z M82.0,131.5 L81.5,131.0 L81.5,130.0 L82.0,129.5 L82.5,130.0 L82.5,131.0 Z M86.0,131.5 L85.5,131.0 L85.5,130.0 L86.0,129.5 L86.5,130.0 L86.5,131.0 Z M113.0,131.5 L112.0,131.5 L111.5,131.0 L113.0,129.5 L113.5,130.0 L113.5,131.0 Z M73.0,132.5 L72.0,132.5 L70.5,131.0 L71.0,130.5 L72.0,130.5 L73.5,132.0 Z M96.0,132.5 L95.0,132.5 L94.5,132.0 L96.0,130.5 L97.0,130.5 L97.5,131.0 Z M104.0,168.5 L102.0,166.5 L101.5,167.0 L101.5,168.0 L101.0,168.5 L100.5,168.0 L100.5,166.0 L101.5,165.0 L101.5,154.0 L100.5,153.0 L100.5,151.0 L99.5,150.0 L99.5,149.0 L98.5,148.0 L98.5,147.0 L97.0,145.5 L95.0,145.5 L94.5,145.0 L97.0,142.5 L98.0,142.5 L102.5,138.0 L102.5,137.0 L106.5,133.0 L106.5,132.0 L108.0,130.5 L108.5,131.0 L108.5,132.0 L107.5,133.0 L108.5,134.0 L107.0,135.5 L106.0,135.5 L104.5,137.0 L105.0,137.5 L106.0,137.5 L106.5,138.0 L105.5,139.0 L106.5,140.0 L106.5,145.0 L107.5,146.0 L107.5,159.0 L106.5,160.0 L106.5,163.0 L105.5,164.0 L105.5,166.0 L104.5,167.0 L104.5,168.0 Z M50.0,133.5 L49.5,133.0 L49.5,132.0 L50.0,131.5 L50.5,132.0 L50.5,133.0 Z M75.0,133.5 L74.0,133.5 L73.5,133.0 L74.0,132.5 L75.0,132.5 L75.5,133.0 Z M94.0,133.5 L93.0,133.5 L92.5,133.0 L93.0,132.5 L94.0,132.5 L94.5,133.0 Z M110.0,133.5 L109.0,133.5 L108.5,133.0 L109.0,132.5 L110.0,132.5 L110.5,133.0 Z M77.0,134.5 L76.0,134.5 L75.5,134.0 L76.0,133.5 L77.0,133.5 L77.5,134.0 Z M92.0,134.5 L91.0,134.5 L90.5,134.0 L91.0,133.5 L92.0,133.5 L92.5,134.0 Z M113.0,134.5 L112.0,134.5 L111.5,134.0 L112.0,133.5 L113.0,133.5 L113.5,134.0 Z M79.0,135.5 L78.0,135.5 L77.5,135.0 L78.0,134.5 L79.0,134.5 L79.5,135.0 Z M88.0,136.5 L86.0,136.5 L85.0,135.5 L83.0,135.5 L82.0,136.5 L80.0,136.5 L79.5,136.0 L80.0,135.5 L81.0,135.5 L82.0,134.5 L86.0,134.5 L87.0,135.5 L88.0,135.5 L88.5,136.0 Z M90.0,135.5 L89.0,135.5 L88.5,135.0 L89.0,134.5 L90.0,134.5 L90.5,135.0 Z M110.0,136.5 L109.0,136.5 L108.5,136.0 L110.0,134.5 L111.0,134.5 L111.5,135.0 Z M61.0,137.5 L60.0,137.5 L59.5,137.0 L60.0,136.5 L61.0,136.5 L61.5,137.0 Z M85.0,137.5 L83.0,137.5 L82.5,137.0 L83.0,136.5 L85.0,136.5 L85.5,137.0 Z M108.0,137.5 L107.0,137.5 L106.5,137.0 L107.0,136.5 L108.0,136.5 L108.5,137.0 Z M77.0,148.5 L76.0,148.5 L74.5,147.0 L75.0,146.5 L76.0,146.5 L77.5,148.0 Z M92.0,148.5 L91.0,148.5 L90.5,148.0 L92.0,146.5 L93.0,146.5 L93.5,147.0 Z M80.0,150.5 L79.0,150.5 L78.5,150.0 L79.0,149.5 L80.0,149.5 L80.5,150.0 Z M89.0,150.5 L88.0,150.5 L87.5,150.0 L88.0,149.5 L89.0,149.5 L89.5,150.0 Z M84.0,153.5 L83.0,152.5 L82.0,152.5 L80.5,151.0 L81.0,150.5 L82.0,150.5 L83.0,151.5 L85.0,151.5 L86.0,150.5 L87.0,150.5 L87.5,151.0 L86.0,152.5 L85.0,152.5 Z M84.0,156.5 L83.5,156.0 L83.5,155.0 L84.0,154.5 L84.5,155.0 L84.5,156.0 Z M83.0,162.5 L82.5,162.0 L82.5,157.0 L83.0,156.5 L83.5,157.0 L83.5,162.0 Z M84.0,164.5 L83.5,164.0 L83.5,163.0 L84.0,162.5 L84.5,163.0 L84.5,164.0 Z M78.0,167.5 L76.0,167.5 L75.5,167.0 L75.5,165.0 L76.0,164.5 L78.0,164.5 L78.5,165.0 L78.5,167.0 Z M92.0,167.5 L90.0,167.5 L89.5,167.0 L89.5,165.0 L90.0,164.5 L92.0,164.5 L92.5,165.0 L92.5,167.0 Z M53.0,170.5 L52.5,170.0 L52.5,169.0 L53.0,168.5 L53.5,169.0 L53.5,170.0 Z M68.0,170.5 L67.5,170.0 L67.5,169.0 L68.0,168.5 L68.5,169.0 L68.5,170.0 Z M100.0,170.5 L99.5,170.0 L99.5,169.0 L100.0,168.5 L100.5,169.0 L100.5,170.0 Z M58.0,171.5 L57.5,171.0 L57.5,170.0 L58.0,169.5 L58.5,170.0 L58.5,171.0 Z M52.0,172.5 L51.5,172.0 L51.5,171.0 L52.0,170.5 L52.5,171.0 L52.5,172.0 Z M102.0,197.5 L100.5,196.0 L100.5,195.0 L99.5,194.0 L99.5,193.0 L100.0,192.5 L101.0,193.5 L101.5,193.0 L101.5,185.0 L101.0,184.5 L97.0,188.5 L96.0,188.5 L95.0,189.5 L90.0,189.5 L89.0,190.5 L87.0,190.5 L86.0,191.5 L82.0,191.5 L81.0,190.5 L79.0,190.5 L78.0,189.5 L73.0,189.5 L72.0,188.5 L71.0,188.5 L67.0,184.5 L66.5,185.0 L66.5,193.0 L67.0,193.5 L68.0,192.5 L68.5,193.0 L68.5,194.0 L67.5,195.0 L67.5,196.0 L66.0,197.5 L65.5,197.0 L65.5,179.0 L64.5,178.0 L64.5,174.0 L63.5,173.0 L63.5,171.0 L64.0,170.5 L65.5,172.0 L65.5,173.0 L66.5,174.0 L66.5,175.0 L67.0,175.5 L68.0,175.5 L68.5,176.0 L68.5,177.0 L70.0,178.5 L75.0,178.5 L76.0,177.5 L77.0,177.5 L78.0,178.5 L80.0,178.5 L81.0,179.5 L87.0,179.5 L88.0,178.5 L90.0,178.5 L91.0,177.5 L92.0,177.5 L93.0,178.5 L98.0,178.5 L99.5,177.0 L99.5,176.0 L100.0,175.5 L101.0,175.5 L101.5,175.0 L101.5,174.0 L102.5,173.0 L102.5,172.0 L104.0,170.5 L104.5,171.0 L104.5,173.0 L103.5,174.0 L103.5,178.0 L102.5,179.0 L102.5,197.0 Z M76.0,171.5 L74.0,171.5 L73.5,171.0 L74.0,170.5 L76.0,170.5 L76.5,171.0 Z M81.0,171.5 L79.0,171.5 L78.5,171.0 L79.0,170.5 L81.0,170.5 L81.5,171.0 Z M89.0,171.5 L87.0,171.5 L86.5,171.0 L87.0,170.5 L89.0,170.5 L89.5,171.0 Z M94.0,171.5 L92.0,171.5 L91.5,171.0 L92.0,170.5 L94.0,170.5 L94.5,171.0 Z M71.0,174.5 L70.0,174.5 L69.5,174.0 L69.5,172.0 L70.0,171.5 L70.5,172.0 L70.5,173.0 L71.5,174.0 Z M98.0,174.5 L97.0,174.5 L96.5,174.0 L97.5,173.0 L97.5,172.0 L98.0,171.5 L98.5,172.0 L98.5,174.0 Z M51.0,181.5 L50.5,181.0 L50.5,173.0 L51.0,172.5 L51.5,173.0 L51.5,181.0 Z M59.0,176.5 L58.5,176.0 L58.5,173.0 L59.0,172.5 L59.5,173.0 L59.5,176.0 Z M53.0,176.5 L52.5,176.0 L52.5,175.0 L53.0,174.5 L54.0,174.5 L54.5,175.0 Z M57.0,175.5 L56.0,175.5 L55.5,175.0 L56.0,174.5 L57.0,174.5 L57.5,175.0 Z M75.0,177.5 L74.0,177.5 L73.5,177.0 L74.0,176.5 L75.0,176.5 L75.5,177.0 Z M94.0,177.5 L93.0,177.5 L92.5,177.0 L93.0,176.5 L94.0,176.5 L94.5,177.0 Z M59.0,182.5 L58.5,182.0 L58.5,178.0 L59.0,177.5 L59.5,178.0 L59.5,182.0 Z M56.0,180.5 L55.0,180.5 L54.5,180.0 L55.0,179.5 L56.0,179.5 L56.5,180.0 Z M52.0,184.5 L51.5,184.0 L51.5,183.0 L52.0,182.5 L52.5,183.0 L52.5,184.0 Z M58.0,184.5 L57.5,184.0 L57.5,183.0 L58.0,182.5 L58.5,183.0 L58.5,184.0 Z M54.0,187.5 L52.5,186.0 L52.5,185.0 L53.0,184.5 L54.5,186.0 L54.5,187.0 Z M57.0,186.5 L56.5,186.0 L56.5,185.0 L57.0,184.5 L57.5,185.0 L57.5,186.0 Z M70.0,190.5 L69.5,190.0 L69.5,189.0 L70.0,188.5 L70.5,189.0 L70.5,190.0 Z M98.0,190.5 L97.5,190.0 L97.5,189.0 L98.0,188.5 L98.5,189.0 L98.5,190.0 Z M69.0,192.5 L68.5,192.0 L68.5,191.0 L69.0,190.5 L69.5,191.0 L69.5,192.0 Z M99.0,192.5 L98.5,192.0 L98.5,191.0 L99.0,190.5 L99.5,191.0 L99.5,192.0 Z"/><path fill="#fde2b3" fill-rule="evenodd" d="M96.0,97.5 L93.0,94.5 L92.0,94.5 L90.0,92.5 L89.0,92.5 L87.0,90.5 L86.0,90.5 L84.5,89.0 L85.5,88.0 L85.5,85.0 L86.5,84.0 L86.5,83.0 L85.5,82.0 L85.5,80.0 L84.0,78.5 L83.5,79.0 L83.5,82.0 L84.5,83.0 L84.5,84.0 L83.5,85.0 L83.5,89.0 L82.0,90.5 L81.0,90.5 L79.0,92.5 L78.0,92.5 L76.0,94.5 L75.0,94.5 L72.0,97.5 L69.5,95.0 L69.5,94.0 L68.5,93.0 L68.5,92.0 L67.5,91.0 L67.5,88.0 L66.5,87.0 L66.5,80.0 L67.5,79.0 L67.5,77.0 L68.5,76.0 L68.5,74.0 L70.5,72.0 L70.5,71.0 L75.0,66.5 L76.0,66.5 L77.0,65.5 L78.0,65.5 L79.0,64.5 L89.0,64.5 L90.0,65.5 L91.0,65.5 L92.0,66.5 L93.0,66.5 L97.5,71.0 L97.5,72.0 L99.5,74.0 L99.5,76.0 L100.5,77.0 L100.5,79.0 L101.5,80.0 L101.5,87.0 L100.5,88.0 L100.5,91.0 L99.5,92.0 L99.5,93.0 L98.5,94.0 L98.5,95.0 Z M82.5,73.0 L82.5,72.0 L82.0,71.5 L81.0,71.5 L80.0,70.5 L75.0,70.5 L74.0,71.5 L73.0,71.5 L72.5,72.0 L72.5,73.0 L73.0,73.5 L74.0,73.5 L75.0,72.5 L80.0,72.5 L81.0,73.5 L82.0,73.5 Z M95.5,73.0 L95.5,72.0 L95.0,71.5 L94.0,71.5 L93.0,70.5 L88.0,70.5 L87.0,71.5 L86.0,71.5 L85.5,72.0 L85.5,73.0 L86.0,73.5 L87.0,73.5 L88.0,72.5 L93.0,72.5 L94.0,73.5 L95.0,73.5 Z M77.5,79.0 L78.0,78.5 L79.0,78.5 L79.5,78.0 L79.5,76.0 L78.0,74.5 L77.0,74.5 L74.5,77.0 L77.0,79.5 Z M91.5,79.0 L93.5,77.0 L91.0,74.5 L90.0,74.5 L88.5,76.0 L88.5,78.0 L89.0,78.5 L90.0,78.5 L91.0,79.5 Z M75.5,90.0 L76.5,89.0 L76.5,87.0 L75.0,85.5 L73.0,85.5 L71.5,87.0 L71.5,89.0 L73.0,90.5 L75.0,90.5 Z M95.5,90.0 L96.5,89.0 L96.5,87.0 L95.0,85.5 L93.0,85.5 L91.5,87.0 L91.5,89.0 L93.0,90.5 L95.0,90.5 Z M89.0,178.5 L79.0,178.5 L78.0,177.5 L77.0,177.5 L76.0,176.5 L75.0,176.5 L70.5,172.0 L70.5,171.0 L68.5,169.0 L68.5,167.0 L67.5,166.0 L67.5,164.0 L66.5,163.0 L66.5,156.0 L67.5,155.0 L67.5,152.0 L68.5,151.0 L68.5,150.0 L69.5,149.0 L69.5,148.0 L72.0,145.5 L75.0,148.5 L76.0,148.5 L78.0,150.5 L79.0,150.5 L81.0,152.5 L82.0,152.5 L83.5,154.0 L82.5,155.0 L82.5,158.0 L81.5,159.0 L81.5,160.0 L82.5,161.0 L82.5,163.0 L84.0,164.5 L84.5,164.0 L84.5,161.0 L83.5,160.0 L83.5,159.0 L84.5,158.0 L84.5,154.0 L86.0,152.5 L87.0,152.5 L89.0,150.5 L90.0,150.5 L92.0,148.5 L93.0,148.5 L96.0,145.5 L98.5,148.0 L98.5,149.0 L99.5,150.0 L99.5,151.0 L100.5,152.0 L100.5,155.0 L101.5,156.0 L101.5,163.0 L100.5,164.0 L100.5,166.0 L99.5,167.0 L99.5,169.0 L97.5,171.0 L97.5,172.0 L93.0,176.5 L92.0,176.5 L91.0,177.5 L90.0,177.5 Z M75.5,157.0 L76.5,156.0 L76.5,154.0 L75.0,152.5 L73.0,152.5 L71.5,154.0 L71.5,156.0 L73.0,157.5 L75.0,157.5 Z M95.5,157.0 L96.5,156.0 L96.5,154.0 L95.0,152.5 L93.0,152.5 L91.5,154.0 L91.5,156.0 L93.0,157.5 L95.0,157.5 Z M77.5,168.0 L78.0,167.5 L79.0,167.5 L79.5,167.0 L79.5,165.0 L79.0,164.5 L78.0,164.5 L77.0,163.5 L74.5,166.0 L77.0,168.5 Z M91.5,168.0 L93.5,166.0 L91.0,163.5 L90.0,164.5 L89.0,164.5 L88.5,165.0 L88.5,167.0 L89.0,167.5 L90.0,167.5 L91.0,168.5 Z M80.5,172.0 L81.0,171.5 L82.0,171.5 L82.5,171.0 L82.5,170.0 L82.0,169.5 L81.0,169.5 L80.0,170.5 L75.0,170.5 L74.0,169.5 L73.0,169.5 L72.5,170.0 L72.5,171.0 L73.0,171.5 L74.0,171.5 L75.0,172.5 L80.0,172.5 Z M93.5,172.0 L94.0,171.5 L95.0,171.5 L95.5,171.0 L95.5,170.0 L95.0,169.5 L94.0,169.5 L93.0,170.5 L88.0,170.5 L87.0,169.5 L86.0,169.5 L85.5,170.0 L85.5,171.0 L86.0,171.5 L87.0,171.5 L88.0,172.5 L93.0,172.5 Z"/><path fill="#fa0506" fill-rule="evenodd" d="M45.0,40.5 L41.0,40.5 L40.0,39.5 L38.0,39.5 L36.5,38.0 L36.5,37.0 L35.5,36.0 L35.5,35.0 L34.0,33.5 L32.0,33.5 L31.0,32.5 L30.0,32.5 L29.0,31.5 L28.0,31.5 L26.5,30.0 L26.5,29.0 L25.5,28.0 L25.5,27.0 L24.5,26.0 L24.5,17.0 L25.5,16.0 L25.5,15.0 L29.0,11.5 L30.0,11.5 L31.0,10.5 L33.0,10.5 L34.0,9.5 L39.0,9.5 L40.0,10.5 L42.0,10.5 L43.0,11.5 L44.0,11.5 L47.5,15.0 L47.5,17.0 L48.5,18.0 L48.5,26.0 L47.5,27.0 L47.5,28.0 L43.0,32.5 L41.0,32.5 L39.5,34.0 L42.0,36.5 L46.0,36.5 L46.5,37.0 L46.5,39.0 Z M38.5,30.0 L39.0,29.5 L40.0,29.5 L43.5,26.0 L43.5,18.0 L42.5,17.0 L42.5,16.0 L41.5,15.0 L41.0,14.5 L40.0,14.5 L39.0,13.5 L33.0,13.5 L29.5,17.0 L29.5,20.0 L28.5,21.0 L28.5,22.0 L29.5,23.0 L29.5,26.0 L33.0,29.5 L34.0,29.5 L35.0,30.5 L38.0,30.5 Z M34.0,65.5 L33.5,65.0 L33.5,64.0 L32.5,63.0 L32.5,62.0 L28.5,58.0 L28.5,57.0 L26.5,55.0 L26.5,54.0 L28.5,52.0 L28.5,51.0 L32.5,47.0 L32.5,46.0 L34.0,44.5 L35.0,44.5 L36.5,46.0 L36.5,47.0 L39.5,50.0 L39.5,51.0 L42.5,54.0 L42.5,55.0 L39.5,58.0 L39.5,59.0 L36.5,62.0 L36.5,63.0 Z M115.0,62.5 L111.0,62.5 L110.5,62.0 L110.5,61.0 L111.5,60.0 L111.5,59.0 L112.5,58.0 L112.5,57.0 L113.0,56.5 L113.5,57.0 L113.5,58.0 L114.5,59.0 L114.5,60.0 L115.5,61.0 L115.5,62.0 Z M113.0,74.5 L111.5,73.0 L111.5,72.0 L110.5,71.0 L110.5,70.0 L111.0,69.5 L115.0,69.5 L115.5,70.0 L115.5,71.0 L114.5,72.0 L114.5,73.0 Z M84.0,131.5 L83.5,131.0 L83.5,130.0 L84.0,129.5 L84.5,130.0 L84.5,131.0 Z M57.0,173.5 L53.0,173.5 L52.5,173.0 L52.5,172.0 L53.5,171.0 L53.5,170.0 L55.0,168.5 L56.5,170.0 L56.5,171.0 L57.5,172.0 L57.5,173.0 Z M134.0,198.5 L133.0,198.5 L131.5,197.0 L131.5,196.0 L128.5,193.0 L128.5,192.0 L125.5,189.0 L125.5,188.0 L128.5,185.0 L128.5,184.0 L131.5,181.0 L131.5,180.0 L134.0,177.5 L134.5,178.0 L134.5,179.0 L135.5,180.0 L135.5,181.0 L139.5,185.0 L139.5,186.0 L141.5,188.0 L141.5,189.0 L139.5,191.0 L139.5,192.0 L135.5,196.0 L135.5,197.0 Z M55.0,186.5 L54.5,186.0 L54.5,185.0 L53.5,184.0 L53.5,183.0 L52.5,182.0 L52.5,181.0 L53.0,180.5 L57.0,180.5 L57.5,181.0 L57.5,182.0 L56.5,183.0 L56.5,184.0 L55.5,185.0 L55.5,186.0 Z M134.0,233.5 L129.0,233.5 L128.0,232.5 L126.0,232.5 L125.0,231.5 L124.0,231.5 L120.5,228.0 L120.5,226.0 L119.5,225.0 L119.5,217.0 L120.5,216.0 L120.5,215.0 L125.0,210.5 L127.0,210.5 L128.5,209.0 L126.0,206.5 L122.0,206.5 L121.5,206.0 L121.5,204.0 L123.0,202.5 L127.0,202.5 L128.0,203.5 L130.0,203.5 L131.5,205.0 L131.5,206.0 L132.5,207.0 L132.5,208.0 L134.0,209.5 L136.0,209.5 L137.0,210.5 L138.0,210.5 L139.0,211.5 L140.0,211.5 L141.5,213.0 L141.5,214.0 L142.5,215.0 L142.5,216.0 L143.5,217.0 L143.5,226.0 L142.5,227.0 L142.5,228.0 L139.0,231.5 L138.0,231.5 L137.0,232.5 L135.0,232.5 Z M135.5,229.0 L138.5,226.0 L138.5,223.0 L139.5,222.0 L139.5,221.0 L138.5,220.0 L138.5,217.0 L135.0,213.5 L134.0,213.5 L133.0,212.5 L130.0,212.5 L129.0,213.5 L128.0,213.5 L124.5,217.0 L124.5,225.0 L125.5,226.0 L125.5,227.0 L127.0,228.5 L128.0,228.5 L129.0,229.5 L135.0,229.5 Z"/><path fill="#245aa3" fill-rule="evenodd" d="M95.0,99.5 L92.0,99.5 L91.0,98.5 L77.0,98.5 L76.0,99.5 L73.0,99.5 L72.5,99.0 L74.0,97.5 L75.0,97.5 L77.0,95.5 L78.0,95.5 L80.0,93.5 L81.0,93.5 L83.0,91.5 L85.0,91.5 L87.0,93.5 L88.0,93.5 L90.0,95.5 L91.0,95.5 L93.0,97.5 L94.0,97.5 L95.5,99.0 Z M77.0,101.5 L76.0,101.5 L75.5,101.0 L76.0,100.5 L77.0,100.5 L77.5,101.0 Z M92.0,101.5 L91.0,101.5 L90.5,101.0 L91.0,100.5 L92.0,100.5 L92.5,101.0 Z M73.0,102.5 L72.0,102.5 L71.5,102.0 L72.0,101.5 L73.0,101.5 L73.5,102.0 Z M96.0,102.5 L95.0,102.5 L94.5,102.0 L95.0,101.5 L96.0,101.5 L96.5,102.0 Z M70.0,103.5 L69.0,103.5 L68.5,103.0 L69.0,102.5 L70.0,102.5 L70.5,103.0 Z M99.0,103.5 L98.0,103.5 L97.5,103.0 L98.0,102.5 L99.0,102.5 L99.5,103.0 Z M60.0,108.5 L59.0,108.5 L58.5,108.0 L59.0,107.5 L60.0,107.5 L60.5,108.0 Z M109.0,108.5 L108.0,108.5 L107.5,108.0 L108.0,107.5 L109.0,107.5 L109.5,108.0 Z M57.0,110.5 L56.0,110.5 L55.5,110.0 L56.0,109.5 L57.0,109.5 L57.5,110.0 Z M56.0,117.5 L54.0,117.5 L52.5,116.0 L52.5,114.0 L51.5,113.0 L53.0,111.5 L54.0,111.5 L54.5,112.0 L54.5,114.0 L55.5,115.0 L55.5,116.0 L56.5,117.0 Z M114.0,117.5 L112.0,117.5 L111.5,117.0 L112.5,116.0 L112.5,115.0 L113.5,114.0 L113.5,112.0 L114.0,111.5 L115.0,111.5 L116.5,113.0 L115.5,114.0 L115.5,116.0 Z M85.0,151.5 L83.0,151.5 L81.0,149.5 L80.0,149.5 L78.0,147.5 L77.0,147.5 L75.0,145.5 L74.0,145.5 L63.5,135.0 L63.5,134.0 L61.5,132.0 L61.5,128.0 L59.5,126.0 L60.0,125.5 L63.0,125.5 L66.0,128.5 L67.0,128.5 L70.0,131.5 L71.0,131.5 L73.0,133.5 L74.0,133.5 L75.0,134.5 L76.0,134.5 L77.0,135.5 L78.0,135.5 L79.0,136.5 L81.0,136.5 L82.0,137.5 L83.0,137.5 L84.0,138.5 L85.0,137.5 L86.0,137.5 L87.0,136.5 L89.0,136.5 L90.0,135.5 L91.0,135.5 L92.0,134.5 L93.0,134.5 L94.0,133.5 L95.0,133.5 L97.0,131.5 L98.0,131.5 L101.0,128.5 L102.0,128.5 L105.0,125.5 L110.0,125.5 L110.5,126.0 L109.5,127.0 L109.5,128.0 L107.5,130.0 L107.5,131.0 L104.5,134.0 L104.5,135.0 L94.0,145.5 L93.0,145.5 L91.0,147.5 L90.0,147.5 L88.0,149.5 L87.0,149.5 Z M115.0,131.5 L114.0,131.5 L113.5,131.0 L113.5,129.0 L112.5,128.0 L112.5,126.0 L113.0,125.5 L114.0,125.5 L115.5,127.0 L115.5,129.0 L116.5,130.0 Z M112.0,133.5 L111.0,133.5 L110.5,133.0 L111.0,132.5 L112.0,132.5 L112.5,133.0 Z M109.0,135.5 L108.0,135.5 L107.5,135.0 L108.0,134.5 L109.0,134.5 L109.5,135.0 Z"/><path fill="#fed507" fill-rule="evenodd" d="M68.0,56.5 L67.5,56.0 L67.5,52.0 L68.0,51.5 L68.5,52.0 L68.5,53.0 L69.5,54.0 L69.5,55.0 Z M100.0,56.5 L98.5,55.0 L98.5,54.0 L99.5,53.0 L99.5,52.0 L100.0,51.5 L100.5,52.0 L100.5,56.0 Z M71.0,67.5 L70.0,67.5 L69.5,67.0 L69.5,66.0 L71.0,64.5 L74.0,64.5 L74.5,65.0 L74.0,65.5 L73.0,65.5 Z M98.0,67.5 L97.0,67.5 L95.0,65.5 L94.0,65.5 L93.5,65.0 L94.0,64.5 L97.0,64.5 L98.5,66.0 L98.5,67.0 Z M114.0,67.5 L112.0,67.5 L111.5,67.0 L111.5,65.0 L112.0,64.5 L114.0,64.5 L114.5,65.0 L114.5,67.0 Z M114.0,106.5 L113.0,105.5 L112.0,106.5 L111.0,106.5 L110.5,106.0 L110.5,77.0 L112.0,75.5 L114.0,75.5 L114.5,76.0 L114.5,106.0 Z M102.0,117.5 L99.0,117.5 L97.0,115.5 L96.0,115.5 L94.0,113.5 L93.0,113.5 L91.0,111.5 L90.0,111.5 L88.0,109.5 L87.0,109.5 L85.0,107.5 L84.0,107.5 L83.0,108.5 L82.0,108.5 L81.0,109.5 L80.0,109.5 L78.0,111.5 L77.0,111.5 L75.0,113.5 L74.0,113.5 L72.0,115.5 L71.0,115.5 L69.0,117.5 L66.0,117.5 L65.5,117.0 L66.0,116.5 L67.0,116.5 L69.0,114.5 L70.0,114.5 L72.0,112.5 L73.0,112.5 L75.0,110.5 L76.0,110.5 L78.0,108.5 L79.0,108.5 L81.5,106.0 L81.0,105.5 L80.0,105.5 L79.0,106.5 L75.0,106.5 L74.0,107.5 L72.0,107.5 L71.0,108.5 L70.0,108.5 L69.0,109.5 L67.0,109.5 L66.0,110.5 L65.0,110.5 L64.0,111.5 L63.0,111.5 L61.0,113.5 L60.0,113.5 L58.0,115.5 L57.0,115.5 L55.5,114.0 L59.0,110.5 L60.0,110.5 L61.0,109.5 L62.0,109.5 L64.0,107.5 L65.0,107.5 L66.0,106.5 L68.0,106.5 L69.0,105.5 L70.0,105.5 L71.0,104.5 L74.0,104.5 L75.0,103.5 L79.0,103.5 L80.0,102.5 L88.0,102.5 L89.0,103.5 L93.0,103.5 L94.0,104.5 L97.0,104.5 L98.0,105.5 L99.0,105.5 L100.0,106.5 L102.0,106.5 L103.0,107.5 L104.0,107.5 L105.0,108.5 L106.0,108.5 L108.0,110.5 L109.0,110.5 L112.5,114.0 L111.0,115.5 L110.0,115.5 L108.0,113.5 L107.0,113.5 L105.0,111.5 L104.0,111.5 L103.0,110.5 L102.0,110.5 L101.0,109.5 L99.0,109.5 L98.0,108.5 L97.0,108.5 L96.0,107.5 L94.0,107.5 L93.0,106.5 L89.0,106.5 L88.0,105.5 L87.0,105.5 L86.5,106.0 L89.0,108.5 L90.0,108.5 L92.0,110.5 L93.0,110.5 L95.0,112.5 L96.0,112.5 L98.0,114.5 L99.0,114.5 L101.0,116.5 L102.0,116.5 L102.5,117.0 Z M57.0,134.5 L53.0,134.5 L50.5,132.0 L50.5,129.0 L53.0,126.5 L54.0,126.5 L55.0,125.5 L56.0,126.5 L58.0,126.5 L58.5,127.0 L58.5,128.0 L59.5,129.0 L59.5,132.0 Z M82.0,133.5 L81.0,133.5 L80.5,133.0 L80.5,128.0 L82.0,126.5 L86.0,126.5 L87.5,128.0 L87.5,132.0 L87.0,132.5 L86.5,132.0 L86.5,129.0 L85.5,128.0 L85.0,127.5 L83.0,127.5 L81.5,129.0 L81.5,132.0 L82.5,133.0 Z M111.0,130.5 L110.5,130.0 L110.5,129.0 L111.0,128.5 L112.0,128.5 L112.5,129.0 Z M85.0,134.5 L83.0,134.5 L82.5,134.0 L83.0,133.5 L85.0,133.5 L85.5,134.0 Z M56.0,167.5 L54.0,167.5 L53.5,167.0 L53.5,137.0 L54.0,136.5 L55.0,137.5 L56.0,136.5 L57.0,136.5 L57.5,137.0 L57.5,166.0 Z M56.0,178.5 L54.0,178.5 L53.5,178.0 L53.5,176.0 L54.0,175.5 L56.0,175.5 L56.5,176.0 L56.5,178.0 Z M74.0,178.5 L71.0,178.5 L69.5,177.0 L69.5,176.0 L70.0,175.5 L71.0,175.5 L73.0,177.5 L74.0,177.5 L74.5,178.0 Z M97.0,178.5 L94.0,178.5 L93.5,178.0 L94.0,177.5 L95.0,177.5 L97.0,175.5 L98.0,175.5 L98.5,176.0 L98.5,177.0 Z M68.0,191.5 L67.5,191.0 L67.5,187.0 L68.0,186.5 L69.5,188.0 L69.5,189.0 L68.5,190.0 L68.5,191.0 Z M100.0,191.5 L99.5,191.0 L99.5,190.0 L98.5,189.0 L98.5,188.0 L100.0,186.5 L100.5,187.0 L100.5,191.0 Z"/><path fill="#fd69b1" fill-rule="evenodd" d="M75.0,110.5 L74.0,110.5 L73.5,110.0 L73.5,108.0 L74.0,107.5 L77.0,107.5 L78.0,106.5 L79.0,106.5 L79.5,107.0 L78.0,108.5 L77.0,108.5 Z M94.0,110.5 L93.0,110.5 L91.0,108.5 L90.0,108.5 L88.5,107.0 L89.0,106.5 L90.0,106.5 L91.0,107.5 L94.0,107.5 L94.5,108.0 L94.5,110.0 Z M97.0,117.5 L71.0,117.5 L70.5,117.0 L72.0,115.5 L73.0,115.5 L75.0,113.5 L76.0,113.5 L78.0,111.5 L79.0,111.5 L81.0,109.5 L82.0,109.5 L83.0,108.5 L85.0,108.5 L86.0,109.5 L87.0,109.5 L89.0,111.5 L90.0,111.5 L92.0,113.5 L93.0,113.5 L95.0,115.5 L96.0,115.5 L97.5,117.0 Z M64.0,117.5 L59.0,117.5 L58.5,117.0 L58.5,116.0 L61.0,113.5 L62.0,113.5 L64.0,111.5 L65.0,111.5 L66.0,110.5 L68.0,110.5 L68.5,111.0 L68.5,112.0 L69.5,113.0 L69.5,114.0 L69.0,114.5 L68.0,114.5 L66.0,116.5 L65.0,116.5 Z M109.0,117.5 L104.0,117.5 L103.0,116.5 L102.0,116.5 L100.0,114.5 L99.0,114.5 L98.5,114.0 L98.5,113.0 L99.5,112.0 L99.5,111.0 L100.0,110.5 L102.0,110.5 L103.0,111.5 L104.0,111.5 L106.0,113.5 L107.0,113.5 L109.5,116.0 L109.5,117.0 Z M78.0,133.5 L77.0,133.5 L76.0,132.5 L75.0,132.5 L73.0,130.5 L72.0,130.5 L70.0,128.5 L69.0,128.5 L66.5,126.0 L67.0,125.5 L80.0,125.5 L80.5,126.0 L78.5,128.0 L78.5,133.0 Z M91.0,133.5 L90.0,133.5 L89.5,133.0 L89.5,128.0 L87.5,126.0 L88.0,125.5 L101.0,125.5 L101.5,126.0 L99.0,128.5 L98.0,128.5 L96.0,130.5 L95.0,130.5 L93.0,132.5 L92.0,132.5 Z"/><path fill="#eea191" fill-rule="evenodd" d="M24.0,21.5 L23.5,21.0 L23.5,19.0 L24.0,18.5 L24.5,19.0 L24.5,21.0 Z M49.0,24.5 L48.5,24.0 L48.5,20.0 L49.0,19.5 L49.5,20.0 L49.5,24.0 Z M24.0,24.5 L23.5,24.0 L23.5,23.0 L24.0,22.5 L24.5,23.0 L24.5,24.0 Z M37.0,30.5 L36.0,30.5 L35.5,30.0 L36.0,29.5 L37.0,29.5 L37.5,30.0 Z M43.0,55.5 L42.5,55.0 L42.5,54.0 L43.0,53.5 L43.5,54.0 L43.5,55.0 Z M86.0,84.5 L85.5,84.0 L85.5,83.0 L86.0,82.5 L86.5,83.0 L86.5,84.0 Z M75.0,90.5 L73.0,90.5 L71.5,89.0 L71.5,87.0 L73.0,85.5 L75.0,85.5 L76.5,87.0 L76.5,89.0 Z M95.0,90.5 L93.0,90.5 L91.5,89.0 L91.5,87.0 L93.0,85.5 L95.0,85.5 L96.5,87.0 L96.5,89.0 Z M73.0,109.5 L72.5,109.0 L72.5,108.0 L73.0,107.5 L73.5,108.0 L73.5,109.0 Z M95.0,109.5 L94.5,109.0 L94.5,108.0 L95.0,107.5 L95.5,108.0 L95.5,109.0 Z M75.0,157.5 L73.0,157.5 L71.5,156.0 L71.5,154.0 L73.0,152.5 L75.0,152.5 L76.5,154.0 L76.5,156.0 Z M95.0,157.5 L93.0,157.5 L91.5,156.0 L91.5,154.0 L93.0,152.5 L95.0,152.5 L96.5,154.0 L96.5,156.0 Z M82.0,160.5 L81.5,160.0 L81.5,159.0 L82.0,158.5 L82.5,159.0 L82.5,160.0 Z M125.0,189.5 L124.5,189.0 L124.5,188.0 L125.0,187.5 L125.5,188.0 L125.5,189.0 Z M132.0,213.5 L131.0,213.5 L130.5,213.0 L131.0,212.5 L132.0,212.5 L132.5,213.0 Z M119.0,223.5 L118.5,223.0 L118.5,219.0 L119.0,218.5 L119.5,219.0 L119.5,223.0 Z M144.0,220.5 L143.5,220.0 L143.5,219.0 L144.0,218.5 L144.5,219.0 L144.5,220.0 Z M144.0,224.5 L143.5,224.0 L143.5,222.0 L144.0,221.5 L144.5,222.0 L144.5,224.0 Z"/><path fill="#66635c" fill-rule="evenodd" d="M85.0,51.5 L83.0,51.5 L82.5,51.0 L83.0,50.5 L85.0,50.5 L85.5,51.0 Z M72.0,54.5 L71.0,54.5 L70.5,54.0 L71.0,53.5 L72.0,53.5 L72.5,54.0 Z M97.0,54.5 L96.0,54.5 L95.5,54.0 L96.0,53.5 L97.0,53.5 L97.5,54.0 Z M65.0,64.5 L64.5,64.0 L64.5,63.0 L65.0,62.5 L65.5,63.0 L65.5,64.0 Z M103.0,64.5 L102.5,64.0 L102.5,63.0 L103.0,62.5 L103.5,63.0 L103.5,64.0 Z M108.0,67.5 L107.5,67.0 L107.5,65.0 L108.0,64.5 L108.5,65.0 L108.5,67.0 Z M64.0,69.5 L63.5,69.0 L63.5,68.0 L64.0,67.5 L64.5,68.0 L64.5,69.0 Z M104.0,69.5 L103.5,69.0 L103.5,68.0 L104.0,67.5 L104.5,68.0 L104.5,69.0 Z M82.0,73.5 L81.5,73.0 L81.5,72.0 L82.0,71.5 L82.5,72.0 L82.5,73.0 Z M86.0,73.5 L85.5,73.0 L85.5,72.0 L86.0,71.5 L86.5,72.0 L86.5,73.0 Z M107.0,83.5 L106.5,83.0 L106.5,82.0 L107.0,81.5 L107.5,82.0 L107.5,83.0 Z M119.0,113.5 L118.5,113.0 L118.5,112.0 L119.0,111.5 L119.5,112.0 L119.5,113.0 Z M49.0,123.5 L48.0,123.5 L47.5,123.0 L47.5,120.0 L48.0,119.5 L49.0,119.5 L49.5,120.0 L48.5,121.0 L48.5,122.0 L49.5,123.0 Z M120.0,123.5 L119.0,123.5 L118.5,123.0 L119.5,122.0 L119.5,121.0 L118.5,120.0 L119.0,119.5 L120.0,119.5 L120.5,120.0 L120.5,123.0 Z M49.0,131.5 L48.5,131.0 L48.5,130.0 L49.0,129.5 L49.5,130.0 L49.5,131.0 Z M107.0,161.5 L106.5,161.0 L106.5,160.0 L107.0,159.5 L107.5,160.0 L107.5,161.0 Z M82.0,171.5 L81.5,171.0 L81.5,170.0 L82.0,169.5 L82.5,170.0 L82.5,171.0 Z M86.0,171.5 L85.5,171.0 L85.5,170.0 L86.0,169.5 L86.5,170.0 L86.5,171.0 Z M64.0,175.5 L63.5,175.0 L63.5,174.0 L64.0,173.5 L64.5,174.0 L64.5,175.0 Z M104.0,175.5 L103.5,175.0 L103.5,174.0 L104.0,173.5 L104.5,174.0 L104.5,175.0 Z M60.0,178.5 L59.5,178.0 L59.5,176.0 L60.0,175.5 L60.5,176.0 L60.5,178.0 Z M65.0,180.5 L64.5,180.0 L64.5,179.0 L65.0,178.5 L65.5,179.0 L65.5,180.0 Z M103.0,180.5 L102.5,180.0 L102.5,179.0 L103.0,178.5 L103.5,179.0 L103.5,180.0 Z M72.0,189.5 L71.0,189.5 L70.5,189.0 L71.0,188.5 L72.0,188.5 L72.5,189.0 Z M97.0,189.5 L96.0,189.5 L95.5,189.0 L96.0,188.5 L97.0,188.5 L97.5,189.0 Z M85.0,192.5 L83.0,192.5 L82.5,192.0 L83.0,191.5 L85.0,191.5 L85.5,192.0 Z"/><path fill="#492a2b" fill-rule="evenodd" d="M116.0,62.5 L115.5,62.0 L115.5,61.0 L116.0,60.5 L116.5,61.0 L116.5,62.0 Z M109.0,66.5 L108.5,66.0 L108.5,65.0 L109.0,64.5 L110.0,64.5 L110.5,65.0 Z M116.0,67.5 L115.5,67.0 L115.5,65.0 L116.0,64.5 L116.5,65.0 L116.5,67.0 Z M114.0,69.5 L112.0,69.5 L111.5,69.0 L112.0,68.5 L114.0,68.5 L114.5,69.0 Z M85.0,102.5 L83.0,102.5 L82.5,102.0 L83.0,101.5 L85.0,101.5 L85.5,102.0 Z M107.0,119.5 L61.0,119.5 L60.5,119.0 L61.0,118.5 L107.0,118.5 L107.5,119.0 Z M85.0,126.5 L84.0,125.5 L83.0,126.5 L82.5,126.0 L82.5,125.0 L82.0,124.5 L66.0,124.5 L65.0,125.5 L64.5,125.0 L64.5,124.0 L65.0,123.5 L103.0,123.5 L103.5,124.0 L103.5,125.0 L103.0,125.5 L102.0,124.5 L86.0,124.5 L85.5,125.0 L85.5,126.0 Z M50.0,131.5 L49.5,131.0 L49.5,130.0 L50.0,129.5 L50.5,130.0 L50.5,131.0 Z M81.0,135.5 L80.0,135.5 L79.5,135.0 L79.5,134.0 L80.0,133.5 L81.5,135.0 Z M88.0,135.5 L87.0,135.5 L86.5,135.0 L88.0,133.5 L88.5,134.0 L88.5,135.0 Z M56.0,174.5 L54.0,174.5 L53.5,174.0 L54.0,173.5 L56.0,173.5 L56.5,174.0 Z M52.0,178.5 L51.5,178.0 L51.5,176.0 L52.0,175.5 L52.5,176.0 L52.5,178.0 Z M52.0,182.5 L51.5,182.0 L51.5,181.0 L52.0,180.5 L52.5,181.0 L52.5,182.0 Z"/><path fill="#9e9d9c" fill-rule="evenodd" d="M108.0,64.5 L107.5,64.0 L107.5,63.0 L108.0,62.5 L108.5,63.0 L108.5,64.0 Z M118.0,68.5 L117.5,68.0 L117.5,64.0 L118.0,63.5 L118.5,64.0 L118.5,68.0 Z M108.0,69.5 L107.5,69.0 L107.5,68.0 L108.0,67.5 L108.5,68.0 L108.5,69.0 Z M60.0,94.5 L59.5,94.0 L59.5,87.0 L60.0,86.5 L60.5,87.0 L60.5,94.0 Z M108.0,94.5 L107.5,94.0 L107.5,87.0 L108.0,86.5 L108.5,87.0 L108.5,94.0 Z M61.0,100.5 L60.5,100.0 L60.5,99.0 L61.0,98.5 L61.5,99.0 L61.5,100.0 Z M107.0,100.5 L106.5,100.0 L106.5,99.0 L107.0,98.5 L107.5,99.0 L107.5,100.0 Z M51.0,118.5 L50.0,118.5 L49.5,118.0 L50.0,117.5 L51.0,117.5 L51.5,118.0 Z M118.0,118.5 L117.0,118.5 L116.5,118.0 L117.0,117.5 L118.0,117.5 L118.5,118.0 Z M49.0,122.5 L48.5,122.0 L48.5,121.0 L49.0,120.5 L49.5,121.0 L49.5,122.0 Z M119.0,122.5 L118.5,122.0 L118.5,121.0 L119.0,120.5 L119.5,121.0 L119.5,122.0 Z M51.0,125.5 L50.0,125.5 L49.5,125.0 L50.0,124.5 L51.0,124.5 L51.5,125.0 Z M118.0,125.5 L117.0,125.5 L116.5,125.0 L117.0,124.5 L118.0,124.5 L118.5,125.0 Z M61.0,144.5 L60.5,144.0 L60.5,143.0 L61.0,142.5 L61.5,143.0 L61.5,144.0 Z M107.0,144.5 L106.5,144.0 L106.5,143.0 L107.0,142.5 L107.5,143.0 L107.5,144.0 Z M60.0,156.5 L59.5,156.0 L59.5,149.0 L60.0,148.5 L60.5,149.0 L60.5,156.0 Z M108.0,156.5 L107.5,156.0 L107.5,149.0 L108.0,148.5 L108.5,149.0 L108.5,156.0 Z M60.0,175.5 L59.5,175.0 L59.5,174.0 L60.0,173.5 L60.5,174.0 L60.5,175.0 Z M50.0,179.5 L49.5,179.0 L49.5,175.0 L50.0,174.5 L50.5,175.0 L50.5,179.0 Z M60.0,180.5 L59.5,180.0 L59.5,179.0 L60.0,178.5 L60.5,179.0 L60.5,180.0 Z"/><path fill="#13315a" fill-rule="evenodd" d="M79.0,99.5 L78.0,99.5 L77.5,99.0 L78.0,98.5 L79.0,98.5 L79.5,99.0 Z M90.0,99.5 L89.0,99.5 L88.5,99.0 L89.0,98.5 L90.0,98.5 L90.5,99.0 Z M89.0,101.5 L87.0,101.5 L86.0,100.5 L82.0,100.5 L81.0,101.5 L79.0,101.5 L78.5,101.0 L80.0,99.5 L88.0,99.5 L89.5,101.0 Z M71.0,103.5 L70.5,103.0 L70.5,102.0 L71.0,101.5 L71.5,102.0 L71.5,103.0 Z M97.0,103.5 L96.5,103.0 L96.5,102.0 L97.0,101.5 L97.5,102.0 L97.5,103.0 Z M68.0,104.5 L67.5,104.0 L67.5,103.0 L68.0,102.5 L68.5,103.0 L68.5,104.0 Z M100.0,104.5 L99.5,104.0 L99.5,103.0 L100.0,102.5 L100.5,103.0 L100.5,104.0 Z M66.0,105.5 L65.5,105.0 L65.5,104.0 L66.0,103.5 L66.5,104.0 L66.5,105.0 Z M102.0,105.5 L101.5,105.0 L101.5,104.0 L102.0,103.5 L102.5,104.0 L102.5,105.0 Z M64.0,106.5 L63.5,106.0 L63.5,105.0 L64.0,104.5 L64.5,105.0 L64.5,106.0 Z M104.0,106.5 L103.5,106.0 L103.5,105.0 L104.0,104.5 L104.5,105.0 L104.5,106.0 Z M57.0,118.5 L56.0,118.5 L55.5,118.0 L56.0,117.5 L57.0,117.5 L57.5,118.0 Z M114.0,118.5 L111.0,118.5 L110.5,118.0 L111.0,117.5 L114.0,117.5 L114.5,118.0 Z M62.0,125.5 L59.0,125.5 L58.5,125.0 L59.0,124.5 L62.0,124.5 L62.5,125.0 Z M111.0,125.5 L106.0,125.5 L105.5,125.0 L106.0,124.5 L111.0,124.5 L111.5,125.0 Z"/><path fill="#a85476" fill-rule="evenodd" d="M63.0,118.5 L60.0,118.5 L59.5,118.0 L60.0,117.5 L63.0,117.5 L63.5,118.0 Z M99.0,118.5 L69.0,118.5 L68.5,118.0 L69.0,117.5 L99.0,117.5 L99.5,118.0 Z M108.0,118.5 L105.0,118.5 L104.5,118.0 L105.0,117.5 L108.0,117.5 L108.5,118.0 Z M81.0,125.5 L66.0,125.5 L65.5,125.0 L66.0,124.5 L81.0,124.5 L81.5,125.0 Z M102.0,125.5 L87.0,125.5 L86.5,125.0 L87.0,124.5 L102.0,124.5 L102.5,125.0 Z"/><path fill="#fe5f5e" fill-rule="evenodd" d="M29.0,22.5 L28.5,22.0 L28.5,21.0 L29.0,20.5 L29.5,21.0 L29.5,22.0 Z M35.0,44.5 L34.0,44.5 L33.5,44.0 L34.0,43.5 L35.0,43.5 L35.5,44.0 Z M134.0,199.5 L133.0,199.5 L132.5,199.0 L133.0,198.5 L134.0,198.5 L134.5,199.0 Z M139.0,222.5 L138.5,222.0 L138.5,221.0 L139.0,220.5 L139.5,221.0 L139.5,222.0 Z"/><path fill="#fd9d5c" fill-rule="evenodd" d="M78.0,103.5 L77.0,103.5 L76.5,103.0 L77.0,102.5 L78.0,102.5 L78.5,103.0 Z M71.0,113.5 L70.0,112.5 L69.0,112.5 L68.5,112.0 L68.5,111.0 L68.0,110.5 L67.0,110.5 L66.5,110.0 L67.0,109.5 L70.0,109.5 L72.0,107.5 L72.5,108.0 L72.5,109.0 L74.5,111.0 L74.0,111.5 L73.0,111.5 Z M97.0,113.5 L95.0,111.5 L94.0,111.5 L93.5,111.0 L95.5,109.0 L95.5,108.0 L96.0,107.5 L97.0,108.5 L98.0,108.5 L99.0,109.5 L101.0,109.5 L101.5,110.0 L101.0,110.5 L100.0,110.5 L99.5,111.0 L99.5,112.0 L99.0,112.5 L98.0,112.5 Z"/><path fill="#a98d02" fill-rule="evenodd" d="M68.0,57.5 L67.0,57.5 L66.5,57.0 L66.5,51.0 L67.0,50.5 L67.5,51.0 L67.5,56.0 L68.5,57.0 Z M101.0,57.5 L100.0,57.5 L99.5,57.0 L100.5,56.0 L100.5,51.0 L101.0,50.5 L101.5,51.0 L101.5,57.0 Z M114.0,109.5 L112.5,108.0 L113.0,107.5 L114.0,107.5 L114.5,108.0 L114.5,109.0 Z M67.0,118.5 L64.0,118.5 L63.5,118.0 L64.0,117.5 L67.0,117.5 L67.5,118.0 Z M104.0,118.5 L101.0,118.5 L100.5,118.0 L101.0,117.5 L104.0,117.5 L104.5,118.0 Z M80.0,131.5 L79.5,131.0 L79.5,130.0 L80.0,129.5 L80.5,130.0 L80.5,131.0 Z M88.0,131.5 L87.5,131.0 L87.5,130.0 L88.0,129.5 L88.5,130.0 L88.5,131.0 Z M71.0,175.5 L70.0,175.5 L69.5,175.0 L70.0,174.5 L71.0,174.5 L71.5,175.0 Z M67.0,192.5 L66.5,192.0 L66.5,186.0 L67.0,185.5 L68.0,185.5 L68.5,186.0 L67.5,187.0 L67.5,192.0 Z M101.0,192.5 L100.5,192.0 L100.5,187.0 L99.5,186.0 L100.0,185.5 L101.0,185.5 L101.5,186.0 L101.5,192.0 Z"/><path fill="#645314" fill-rule="evenodd" d="M115.0,66.5 L114.5,66.0 L114.5,65.0 L115.0,64.5 L115.5,65.0 L115.5,66.0 Z M78.0,72.5 L76.5,71.0 L77.0,70.5 L78.0,70.5 L78.5,71.0 L78.5,72.0 Z M90.0,72.5 L89.5,72.0 L89.5,71.0 L90.0,70.5 L91.0,70.5 L91.5,71.0 Z M112.0,128.5 L111.0,128.5 L110.5,128.0 L111.0,127.5 L112.0,127.5 L112.5,128.0 Z M60.0,131.5 L59.5,131.0 L59.5,130.0 L60.0,129.5 L60.5,130.0 L60.5,131.0 Z M78.0,172.5 L77.0,172.5 L76.5,172.0 L78.0,170.5 L78.5,171.0 L78.5,172.0 Z M91.0,172.5 L90.0,172.5 L89.5,172.0 L89.5,171.0 L90.0,170.5 L91.5,172.0 Z M53.0,178.5 L52.5,178.0 L52.5,177.0 L53.0,176.5 L53.5,177.0 L53.5,178.0 Z"/><path fill="#fee457" fill-rule="evenodd" d="M115.0,106.5 L114.5,106.0 L114.5,77.0 L115.0,76.5 L115.5,77.0 L115.5,106.0 Z M53.0,166.5 L52.5,166.0 L52.5,145.0 L52.5,137.0 L53.0,136.5 L53.5,137.0 L53.5,166.0 Z"/><path fill="#a29173" fill-rule="evenodd" d="M83.0,64.5 L82.0,64.5 L81.5,64.0 L82.0,63.5 L83.0,63.5 L83.5,64.0 Z M86.0,64.5 L85.0,64.5 L84.5,64.0 L85.0,63.5 L86.0,63.5 L86.5,64.0 Z M83.0,179.5 L82.0,179.5 L81.5,179.0 L82.0,178.5 L83.0,178.5 L83.5,179.0 Z M86.0,179.5 L85.0,179.5 L84.5,179.0 L85.0,178.5 L86.0,178.5 L86.5,179.0 Z"/></svg>