<?xml version="1.0" encoding="UTF-8"?><svg xmlns="http://www.w3.org/2000/svg" width="169" height="244" viewBox="0 0 169 244" shape-rendering="geometricPrecision"><path fill="#fefefe" fill-rule="evenodd" d="M160.0,243.5 L8.0,243.5 L7.0,242.5 L6.0,242.5 L0.5,237.0 L0.5,236.0 L-0.5,235.0 L-0.5,8.0 L0.5,7.0 L0.5,6.0 L1.5,5.0 L1.5,4.0 L4.0,1.5 L5.0,1.5 L6.0,0.5 L7.0,0.5 L8.0,-0.5 L160.0,-0.5 L161.0,0.5 L162.0,0.5 L167.5,6.0 L167.5,7.0 L168.5,8.0 L168.5,235.0 L167.5,236.0 L167.5,237.0 L166.5,238.0 L166.5,239.0 L164.0,241.5 L163.0,241.5 L162.0,242.5 L161.0,242.5 Z M36.5,33.0 L37.0,32.5 L38.0,32.5 L41.5,29.0 L41.5,24.0 L40.5,23.0 L40.5,22.0 L40.0,21.5 L39.0,21.5 L37.5,20.0 L38.0,19.5 L39.0,19.5 L40.5,18.0 L40.5,13.0 L37.0,9.5 L28.0,9.5 L24.5,13.0 L24.5,18.0 L26.0,19.5 L27.0,19.5 L27.5,20.0 L26.0,21.5 L25.0,21.5 L24.5,22.0 L24.5,23.0 L23.5,24.0 L23.5,29.0 L27.0,32.5 L28.0,32.5 L29.0,33.5 L36.0,33.5 Z M34.0,18.5 L32.0,18.5 L31.0,17.5 L30.0,17.5 L29.5,17.0 L29.5,15.0 L31.0,13.5 L34.0,13.5 L35.5,15.0 L35.5,17.0 Z M35.0,29.5 L30.0,29.5 L29.5,29.0 L29.5,27.0 L28.5,26.0 L29.5,25.0 L29.5,23.0 L30.0,22.5 L35.0,22.5 L35.5,23.0 L35.5,25.0 L36.5,26.0 L35.5,27.0 L35.5,29.0 Z M35.5,65.0 L36.5,64.0 L36.5,63.0 L38.5,61.0 L38.5,60.0 L43.5,55.0 L43.5,54.0 L38.5,49.0 L38.5,48.0 L36.5,46.0 L36.5,45.0 L35.0,43.5 L34.0,43.5 L32.5,45.0 L32.5,46.0 L30.5,48.0 L30.5,49.0 L25.5,54.0 L25.5,55.0 L30.5,60.0 L30.5,61.0 L32.5,63.0 L32.5,64.0 L33.0,64.5 L34.0,65.5 L35.0,65.5 Z M56.5,79.0 L57.5,78.0 L57.5,77.0 L58.5,76.0 L58.5,75.0 L61.5,72.0 L61.5,71.0 L65.5,67.0 L65.5,66.0 L67.5,64.0 L67.5,63.0 L63.5,59.0 L63.5,58.0 L60.5,55.0 L60.5,54.0 L58.5,52.0 L58.5,51.0 L56.0,48.5 L55.5,49.0 L55.5,50.0 L53.5,52.0 L53.5,53.0 L50.5,56.0 L50.5,57.0 L44.5,63.0 L44.5,64.0 L48.5,68.0 L48.5,69.0 L52.5,73.0 L52.5,74.0 L54.5,76.0 L54.5,77.0 L55.5,78.0 L55.5,79.0 L56.0,79.5 Z M112.5,79.0 L112.5,78.0 L113.5,77.0 L113.5,76.0 L115.5,74.0 L115.5,73.0 L119.5,69.0 L119.5,68.0 L123.5,64.0 L123.5,63.0 L117.5,57.0 L117.5,56.0 L114.5,53.0 L114.5,52.0 L113.5,51.0 L113.5,50.0 L112.0,48.5 L110.5,50.0 L110.5,51.0 L107.5,54.0 L107.5,55.0 L104.5,58.0 L104.5,59.0 L100.5,63.0 L100.5,65.0 L106.5,71.0 L106.5,72.0 L109.5,75.0 L109.5,76.0 L110.5,77.0 L110.5,78.0 L112.0,79.5 Z M56.5,113.0 L58.5,111.0 L58.5,110.0 L60.5,108.0 L60.5,107.0 L63.5,104.0 L63.5,103.0 L67.5,99.0 L67.5,98.0 L65.5,96.0 L65.5,95.0 L60.5,90.0 L60.5,89.0 L58.5,87.0 L58.5,86.0 L57.5,85.0 L57.5,84.0 L56.0,82.5 L55.5,83.0 L55.5,84.0 L54.5,85.0 L54.5,86.0 L52.5,88.0 L52.5,89.0 L49.5,92.0 L49.5,93.0 L44.5,98.0 L44.5,99.0 L50.5,105.0 L50.5,106.0 L52.5,108.0 L52.5,109.0 L54.5,111.0 L54.5,112.0 L56.0,113.5 Z M112.5,113.0 L113.5,112.0 L113.5,111.0 L115.5,109.0 L115.5,108.0 L118.5,105.0 L118.5,104.0 L123.5,99.0 L123.5,98.0 L119.5,94.0 L119.5,93.0 L115.5,89.0 L115.5,88.0 L113.5,86.0 L113.5,85.0 L112.5,84.0 L112.5,83.0 L112.0,82.5 L110.5,84.0 L110.5,85.0 L109.5,86.0 L109.5,87.0 L107.5,89.0 L107.5,90.0 L103.5,94.0 L103.5,95.0 L100.5,98.0 L100.5,99.0 L103.5,102.0 L103.5,103.0 L107.5,107.0 L107.5,108.0 L109.5,110.0 L109.5,111.0 L112.0,113.5 Z M56.5,148.0 L57.5,147.0 L57.5,146.0 L59.5,144.0 L59.5,143.0 L62.5,140.0 L62.5,139.0 L67.5,134.0 L67.5,132.0 L62.5,127.0 L62.5,126.0 L59.5,123.0 L59.5,122.0 L57.5,120.0 L57.5,119.0 L56.0,117.5 L55.5,118.0 L55.5,119.0 L53.5,121.0 L53.5,122.0 L51.5,124.0 L51.5,125.0 L47.5,129.0 L47.5,130.0 L44.5,133.0 L45.5,134.0 L45.5,135.0 L51.5,141.0 L51.5,142.0 L53.5,144.0 L53.5,145.0 L55.5,147.0 L55.5,148.0 L56.0,148.5 Z M112.5,148.0 L112.5,147.0 L114.5,145.0 L114.5,144.0 L117.5,141.0 L117.5,140.0 L121.5,136.0 L121.5,135.0 L123.5,133.0 L120.5,130.0 L120.5,129.0 L116.5,125.0 L116.5,124.0 L114.5,122.0 L114.5,121.0 L112.5,119.0 L112.5,118.0 L112.0,117.5 L110.5,119.0 L110.5,120.0 L108.5,122.0 L108.5,123.0 L106.5,125.0 L106.5,126.0 L100.5,132.0 L100.5,134.0 L105.5,139.0 L105.5,140.0 L108.5,143.0 L108.5,144.0 L110.5,146.0 L110.5,147.0 L112.0,148.5 Z M56.5,183.0 L57.5,182.0 L57.5,181.0 L58.5,180.0 L58.5,179.0 L61.5,176.0 L61.5,175.0 L65.5,171.0 L65.5,170.0 L67.5,168.0 L67.5,167.0 L63.5,163.0 L63.5,162.0 L60.5,159.0 L60.5,158.0 L58.5,156.0 L58.5,155.0 L56.0,152.5 L55.5,153.0 L55.5,154.0 L53.5,156.0 L53.5,157.0 L50.5,160.0 L50.5,161.0 L44.5,167.0 L44.5,168.0 L48.5,172.0 L48.5,173.0 L52.5,177.0 L52.5,178.0 L54.5,180.0 L54.5,181.0 L55.5,182.0 L55.5,183.0 L56.0,183.5 Z M112.5,183.0 L112.5,182.0 L113.5,181.0 L113.5,180.0 L115.5,178.0 L115.5,177.0 L119.5,173.0 L119.5,172.0 L123.5,168.0 L123.5,167.0 L117.5,161.0 L117.5,160.0 L114.5,157.0 L114.5,156.0 L113.5,155.0 L113.5,154.0 L112.0,152.5 L110.5,154.0 L110.5,155.0 L107.5,158.0 L107.5,159.0 L104.5,162.0 L104.5,163.0 L100.5,167.0 L100.5,169.0 L106.5,175.0 L106.5,176.0 L109.5,179.0 L109.5,180.0 L110.5,181.0 L110.5,182.0 L112.0,183.5 Z M134.5,199.0 L135.5,198.0 L135.5,197.0 L137.5,195.0 L137.5,194.0 L142.5,189.0 L142.5,188.0 L137.5,183.0 L137.5,182.0 L135.5,180.0 L135.5,179.0 L134.0,177.5 L133.0,177.5 L131.5,179.0 L131.5,180.0 L129.5,182.0 L129.5,183.0 L124.5,188.0 L124.5,189.0 L129.5,194.0 L129.5,195.0 L131.5,197.0 L131.5,198.0 L132.0,198.5 L133.0,199.5 L134.0,199.5 Z M140.5,233.0 L143.5,230.0 L143.5,225.0 L142.0,223.5 L141.0,223.5 L140.5,223.0 L142.0,221.5 L143.0,221.5 L143.5,221.0 L143.5,220.0 L144.5,219.0 L144.5,214.0 L141.0,210.5 L140.0,210.5 L139.0,209.5 L132.0,209.5 L131.0,210.5 L130.0,210.5 L126.5,214.0 L126.5,219.0 L127.5,220.0 L127.5,221.0 L128.0,221.5 L129.0,221.5 L130.5,223.0 L130.0,223.5 L129.0,223.5 L127.5,225.0 L127.5,230.0 L131.0,233.5 L140.0,233.5 Z M138.0,220.5 L133.0,220.5 L132.5,220.0 L132.5,218.0 L131.5,217.0 L132.5,216.0 L132.5,214.0 L133.0,213.5 L138.0,213.5 L138.5,214.0 L138.5,216.0 L139.5,217.0 L138.5,218.0 L138.5,220.0 Z M137.0,229.5 L134.0,229.5 L132.5,228.0 L132.5,226.0 L134.0,224.5 L136.0,224.5 L137.0,225.5 L138.0,225.5 L138.5,226.0 L138.5,228.0 Z"/><path fill="#ff0303" fill-rule="evenodd" d="M35.0,33.5 L30.0,33.5 L29.0,32.5 L27.0,32.5 L24.5,30.0 L24.5,28.0 L23.5,27.0 L23.5,26.0 L24.5,25.0 L24.5,23.0 L26.0,21.5 L27.0,21.5 L28.5,20.0 L28.0,19.5 L27.0,19.5 L24.5,17.0 L24.5,13.0 L27.0,10.5 L29.0,10.5 L30.0,9.5 L35.0,9.5 L36.0,10.5 L38.0,10.5 L40.5,13.0 L40.5,17.0 L38.0,19.5 L37.0,19.5 L36.5,20.0 L37.0,20.5 L38.0,20.5 L40.5,23.0 L40.5,24.0 L41.5,25.0 L41.5,27.0 L40.5,28.0 L40.5,30.0 L39.5,31.0 L38.0,32.5 L36.0,32.5 Z M34.5,18.0 L35.5,17.0 L35.5,14.0 L34.0,12.5 L31.0,12.5 L29.5,14.0 L29.5,17.0 L31.0,18.5 L34.0,18.5 Z M34.5,30.0 L36.5,28.0 L36.5,24.0 L34.0,21.5 L31.0,21.5 L28.5,24.0 L28.5,28.0 L31.0,30.5 L34.0,30.5 Z M34.0,65.5 L33.5,65.0 L33.5,64.0 L32.5,63.0 L32.5,62.0 L28.5,58.0 L28.5,57.0 L26.5,55.0 L26.5,54.0 L28.5,52.0 L28.5,51.0 L32.5,47.0 L32.5,46.0 L34.0,44.5 L35.0,44.5 L36.5,46.0 L36.5,47.0 L39.5,50.0 L39.5,51.0 L42.5,54.0 L42.5,55.0 L39.5,58.0 L39.5,59.0 L36.5,62.0 L36.5,63.0 Z M112.0,78.5 L110.5,77.0 L110.5,76.0 L108.5,74.0 L108.5,73.0 L105.5,70.0 L105.5,69.0 L100.5,64.0 L102.5,62.0 L102.5,61.0 L107.5,56.0 L107.5,55.0 L109.5,53.0 L109.5,52.0 L111.5,50.0 L111.5,49.0 L112.0,48.5 L112.5,49.0 L112.5,50.0 L113.5,51.0 L113.5,52.0 L115.5,54.0 L115.5,55.0 L118.5,58.0 L118.5,59.0 L122.5,63.0 L122.5,65.0 L116.5,71.0 L116.5,72.0 L114.5,74.0 L114.5,75.0 L112.5,77.0 L112.5,78.0 Z M56.0,78.5 L55.5,78.0 L55.5,77.0 L53.5,75.0 L53.5,74.0 L51.5,72.0 L51.5,71.0 L45.5,65.0 L45.5,63.0 L49.5,59.0 L49.5,58.0 L52.5,55.0 L52.5,54.0 L54.5,52.0 L54.5,51.0 L56.0,49.5 L58.5,52.0 L58.5,53.0 L60.5,55.0 L60.5,56.0 L65.5,61.0 L65.5,62.0 L67.5,64.0 L62.5,69.0 L62.5,70.0 L59.5,73.0 L59.5,74.0 L57.5,76.0 L57.5,77.0 Z M56.0,113.5 L55.5,113.0 L55.5,112.0 L54.5,111.0 L54.5,110.0 L52.5,108.0 L52.5,107.0 L48.5,103.0 L48.5,102.0 L45.5,99.0 L45.5,98.0 L46.5,97.0 L46.5,96.0 L51.5,91.0 L51.5,90.0 L54.5,87.0 L54.5,86.0 L55.5,85.0 L55.5,84.0 L56.0,83.5 L57.5,85.0 L57.5,86.0 L59.5,88.0 L59.5,89.0 L61.5,91.0 L61.5,92.0 L67.5,98.0 L67.5,99.0 L61.5,105.0 L61.5,106.0 L58.5,109.0 L58.5,110.0 L57.5,111.0 L57.5,112.0 Z M112.0,113.5 L111.5,113.0 L111.5,112.0 L109.5,110.0 L109.5,109.0 L106.5,106.0 L106.5,105.0 L100.5,99.0 L100.5,98.0 L106.5,92.0 L106.5,91.0 L108.5,89.0 L108.5,88.0 L110.5,86.0 L110.5,85.0 L112.0,83.5 L112.5,84.0 L112.5,85.0 L114.5,87.0 L114.5,88.0 L116.5,90.0 L116.5,91.0 L120.5,95.0 L120.5,96.0 L122.5,98.0 L122.5,99.0 L119.5,102.0 L119.5,103.0 L115.5,107.0 L115.5,108.0 L113.5,110.0 L113.5,111.0 L112.5,112.0 L112.5,113.0 Z M56.0,147.5 L55.5,147.0 L55.5,146.0 L53.5,144.0 L53.5,143.0 L49.5,139.0 L49.5,138.0 L44.5,133.0 L50.5,127.0 L50.5,126.0 L53.5,123.0 L53.5,122.0 L55.5,120.0 L55.5,119.0 L56.0,118.5 L57.5,120.0 L57.5,121.0 L59.5,123.0 L59.5,124.0 L63.5,128.0 L63.5,129.0 L67.5,133.0 L63.5,137.0 L63.5,138.0 L60.5,141.0 L60.5,142.0 L58.5,144.0 L58.5,145.0 Z M112.0,147.5 L110.5,146.0 L110.5,145.0 L107.5,142.0 L107.5,141.0 L104.5,138.0 L104.5,137.0 L100.5,133.0 L104.5,129.0 L104.5,128.0 L108.5,124.0 L108.5,123.0 L110.5,121.0 L110.5,120.0 L112.0,118.5 L112.5,119.0 L112.5,120.0 L114.5,122.0 L114.5,123.0 L117.5,126.0 L117.5,127.0 L123.5,133.0 L117.5,139.0 L117.5,140.0 L115.5,142.0 L115.5,143.0 L113.5,145.0 L113.5,146.0 Z M112.0,182.5 L110.5,181.0 L110.5,180.0 L108.5,178.0 L108.5,177.0 L105.5,174.0 L105.5,173.0 L100.5,168.0 L102.5,166.0 L102.5,165.0 L107.5,160.0 L107.5,159.0 L109.5,157.0 L109.5,156.0 L111.5,154.0 L111.5,153.0 L112.0,152.5 L112.5,153.0 L112.5,154.0 L113.5,155.0 L113.5,156.0 L115.5,158.0 L115.5,159.0 L118.5,162.0 L118.5,163.0 L122.5,167.0 L122.5,169.0 L116.5,175.0 L116.5,176.0 L114.5,178.0 L114.5,179.0 L112.5,181.0 L112.5,182.0 Z M56.0,182.5 L55.5,182.0 L55.5,181.0 L53.5,179.0 L53.5,178.0 L51.5,176.0 L51.5,175.0 L45.5,169.0 L45.5,167.0 L49.5,163.0 L49.5,162.0 L52.5,159.0 L52.5,158.0 L54.5,156.0 L54.5,155.0 L56.0,153.5 L58.5,156.0 L58.5,157.0 L60.5,159.0 L60.5,160.0 L65.5,165.0 L65.5,166.0 L67.5,168.0 L62.5,173.0 L62.5,174.0 L59.5,177.0 L59.5,178.0 L57.5,180.0 L57.5,181.0 Z M134.0,198.5 L133.0,198.5 L131.5,197.0 L131.5,196.0 L128.5,193.0 L128.5,192.0 L125.5,189.0 L125.5,188.0 L128.5,185.0 L128.5,184.0 L131.5,181.0 L131.5,180.0 L134.0,177.5 L134.5,178.0 L134.5,179.0 L135.5,180.0 L135.5,181.0 L139.5,185.0 L139.5,186.0 L141.5,188.0 L141.5,189.0 L139.5,191.0 L139.5,192.0 L135.5,196.0 L135.5,197.0 Z M138.0,233.5 L133.0,233.5 L132.0,232.5 L130.0,232.5 L127.5,230.0 L127.5,226.0 L130.0,223.5 L131.0,223.5 L131.5,223.0 L131.0,222.5 L130.0,222.5 L127.5,220.0 L127.5,219.0 L126.5,218.0 L126.5,216.0 L127.5,215.0 L127.5,213.0 L130.0,210.5 L132.0,210.5 L133.0,209.5 L138.0,209.5 L139.0,210.5 L140.0,210.5 L141.0,211.5 L142.0,211.5 L143.5,213.0 L143.5,215.0 L144.5,216.0 L144.5,217.0 L143.5,218.0 L143.5,220.0 L142.0,221.5 L141.0,221.5 L139.5,223.0 L140.0,223.5 L141.0,223.5 L143.5,226.0 L143.5,230.0 L141.0,232.5 L139.0,232.5 Z M137.5,221.0 L139.5,219.0 L139.5,215.0 L137.0,212.5 L134.0,212.5 L131.5,215.0 L131.5,219.0 L134.0,221.5 L137.0,221.5 Z M137.5,230.0 L138.5,229.0 L138.5,226.0 L137.0,224.5 L134.0,224.5 L132.5,226.0 L132.5,229.0 L134.0,230.5 L137.0,230.5 Z"/><path fill="#ff5e5e" fill-rule="evenodd" d="M35.0,44.5 L34.0,44.5 L33.5,44.0 L34.0,43.5 L35.0,43.5 L35.5,44.0 Z M45.0,99.5 L44.5,99.0 L44.5,98.0 L45.0,97.5 L45.5,98.0 L45.5,99.0 Z M134.0,199.5 L133.0,199.5 L132.5,199.0 L133.0,198.5 L134.0,198.5 L134.5,199.0 Z"/><path fill="#ffa1a1" fill-rule="evenodd" d="M33.0,13.5 L32.0,13.5 L31.5,13.0 L32.0,12.5 L33.0,12.5 L33.5,13.0 Z M33.0,22.5 L32.0,22.5 L31.5,22.0 L32.0,21.5 L33.0,21.5 L33.5,22.0 Z M33.0,30.5 L32.0,30.5 L31.5,30.0 L32.0,29.5 L33.0,29.5 L33.5,30.0 Z M43.0,55.5 L42.5,55.0 L42.5,54.0 L43.0,53.5 L43.5,54.0 L43.5,55.0 Z M125.0,189.5 L124.5,189.0 L124.5,188.0 L125.0,187.5 L125.5,188.0 L125.5,189.0 Z M136.0,213.5 L135.0,213.5 L134.5,213.0 L135.0,212.5 L136.0,212.5 L136.5,213.0 Z M136.0,221.5 L135.0,221.5 L134.5,221.0 L135.0,220.5 L136.0,220.5 L136.5,221.0 Z M136.0,230.5 L135.0,230.5 L134.5,230.0 L135.0,229.5 L136.0,229.5 L136.5,230.0 Z"/></svg>