<svg xmlns="http://www.w3.org/2000/svg" width="169" height="244" viewBox="0 0 169 244" fill="none">
  
  <rect width="169" height="244" rx="12" fill="white" stroke="#E5E5E5" />
  
  
  <g transform="translate(20, 30)">
    <text font-family="Arial" font-size="24" font-weight="bold" fill="#FF0000">J</text>
    <g transform="translate(8, 14) scale(0.8)">
      <path d="M-7.377,-0.001 L-6.014,-1.545 L-5.131,-2.45 L-4.928,-2.812 L-4.236,-3.537 L-4.028,-3.899 L-3.519,-4.442 L-3.467,-4.623 L-2.954,-5.166 L-2.925,-5.347 L-2.445,-5.89 L-2.395,-6.071 L-2.043,-6.433 L-2.018,-6.614 L-1.675,-6.976 L-1.627,-7.157 L-1.319,-7.519 L-1.298,-7.7 L-0.953,-8.062 L-0.944,-8.243 L-0.77,-8.424 L-0.437,-8.967 L-0.408,-9.148 L-0.238,-9.329 L-0.227,-9.51 L0.045,-9.961 L0.131,-9.872 L0.135,-9.691 L0.398,-9.148 L0.642,-8.786 L0.678,-8.605 L0.859,-8.424 L0.867,-8.243 L1.18,-7.881 L1.222,-7.7 L1.402,-7.519 L1.947,-6.614 L2.284,-6.252 L2.311,-6.071 L2.669,-5.709 L2.71,-5.528 L3.205,-4.985 L3.396,-4.623 L3.753,-4.261 L3.951,-3.899 L4.632,-3.175 L4.844,-2.812 L5.551,-2.088 L5.939,-1.545 L7.376,-0.097 L7.377,0.084 L6.129,1.351 L5.73,1.894 L4.857,2.799 L4.655,3.161 L4.12,3.704 L3.913,4.066 L3.403,4.609 L3.367,4.79 L2.858,5.334 L2.669,5.696 L2.34,6.058 L2.301,6.239 L1.954,6.601 L1.91,6.782 L1.585,7.144 L1.569,7.325 L1.229,7.687 L1.208,7.868 L0.882,8.23 L0.859,8.411 L0.68,8.592 L0.665,8.773 L0.497,8.954 L0.456,9.135 L0.135,9.678 L0.134,9.859 L0.045,9.961 L-0.145,9.678 L-0.252,9.316 L-0.742,8.592 L-0.77,8.411 L-0.95,8.23 L-0.977,8.049 L-1.311,7.687 L-1.33,7.506 L-1.659,7.144 L-1.679,6.963 L-2.032,6.601 L-2.055,6.42 L-2.399,6.058 L-2.582,5.696 L-2.937,5.334 L-2.997,5.152 L-3.484,4.609 L-3.667,4.247 L-4.201,3.704 L-4.398,3.342 L-4.934,2.799 L-5.308,2.256 L-7.377,0.137 Z" fill="red" />
    </g>
  </g>
  
  
  <g transform="translate(149, 214) rotate(180)">
    <text font-family="Arial" font-size="24" font-weight="bold" fill="#FF0000">J</text>
    <g transform="translate(8, 14) scale(0.8)">
      <path d="M-7.377,-0.001 L-6.014,-1.545 L-5.131,-2.45 L-4.928,-2.812 L-4.236,-3.537 L-4.028,-3.899 L-3.519,-4.442 L-3.467,-4.623 L-2.954,-5.166 L-2.925,-5.347 L-2.445,-5.89 L-2.395,-6.071 L-2.043,-6.433 L-2.018,-6.614 L-1.675,-6.976 L-1.627,-7.157 L-1.319,-7.519 L-1.298,-7.7 L-0.953,-8.062 L-0.944,-8.243 L-0.77,-8.424 L-0.437,-8.967 L-0.408,-9.148 L-0.238,-9.329 L-0.227,-9.51 L0.045,-9.961 L0.131,-9.872 L0.135,-9.691 L0.398,-9.148 L0.642,-8.786 L0.678,-8.605 L0.859,-8.424 L0.867,-8.243 L1.18,-7.881 L1.222,-7.7 L1.402,-7.519 L1.947,-6.614 L2.284,-6.252 L2.311,-6.071 L2.669,-5.709 L2.71,-5.528 L3.205,-4.985 L3.396,-4.623 L3.753,-4.261 L3.951,-3.899 L4.632,-3.175 L4.844,-2.812 L5.551,-2.088 L5.939,-1.545 L7.376,-0.097 L7.377,0.084 L6.129,1.351 L5.73,1.894 L4.857,2.799 L4.655,3.161 L4.12,3.704 L3.913,4.066 L3.403,4.609 L3.367,4.79 L2.858,5.334 L2.669,5.696 L2.34,6.058 L2.301,6.239 L1.954,6.601 L1.91,6.782 L1.585,7.144 L1.569,7.325 L1.229,7.687 L1.208,7.868 L0.882,8.23 L0.859,8.411 L0.68,8.592 L0.665,8.773 L0.497,8.954 L0.456,9.135 L0.135,9.678 L0.134,9.859 L0.045,9.961 L-0.145,9.678 L-0.252,9.316 L-0.742,8.592 L-0.77,8.411 L-0.95,8.23 L-0.977,8.049 L-1.311,7.687 L-1.33,7.506 L-1.659,7.144 L-1.679,6.963 L-2.032,6.601 L-2.055,6.42 L-2.399,6.058 L-2.582,5.696 L-2.937,5.334 L-2.997,5.152 L-3.484,4.609 L-3.667,4.247 L-4.201,3.704 L-4.398,3.342 L-4.934,2.799 L-5.308,2.256 L-7.377,0.137 Z" fill="red" />
    </g>
  </g>
  
  
  <g transform="translate(84.5, 122)">
    
        <g transform="translate(-100, 75) scale(0.01, 0.01)">
          
            <g transform="translate(0, 2048) scale(1, -1)" fill="#FF0000" stroke="none">
              <path d="M10045 16694 c-97 -11 -415 -68 -582 -105 -881 -193 -1699 -555               -2348 -1038 -221 -165 -372 -296 -581 -505 -206 -206 -336 -355 -481 -553               -768 -1042 -1090 -2338 -932 -3748 290 -2582 2168 -5206 4924 -6875 96 -58               181 -103 195 -103 14 0 99 45 195 103 2756 1669 4634 4293 4924 6875 158 1410               -164 2706 -932 3748 -145 198 -275 347 -481 553 -417 417 -838 721 -1376 993               -591 300 -1202 498 -1915 621 -151 27 -211 32 -375 35 -107 2 -213 1 -235 -1z               m-1995 -4605 c430 -39 843 -211 1164 -485 59 -50 76 -71 74 -87 -4 -29 -24               -28 -210 11 -364 77 -695 112 -1114 119 -440 7 -692 -13 -999 -82 -227 -51               -474 -151 -561 -227 -36 -31 -56 -35 -74 -13 -16 19 11 61 101 159 402 437               1004 662 1619 605z m4655 1 c491 -45 935 -260 1254 -606 90 -98 117 -140 101               -159 -18 -22 -38 -18 -74 13 -87 76 -334 176 -561 227 -307 69 -559 89 -999               82 -419 -7 -750 -42 -1114 -119 -186 -39 -206 -40 -210 -11 -2 16 15 37 74 87               417 356 983 536 1529 486z m-5952 -3577 c798 -574 1874 -1021 2852 -1183 509               -84 761 -84 1270 0 978 162 2054 609 2852 1183 71 51 137 96 146 100 9 3 23               -1 32 -9 13 -13 13 -19 2 -42 -8 -15 -29 -58 -47 -97 -47 -102 -110 -186 -230               -305 -669 -669 -2288 -1418 -3244 -1500 -87 -8 -122 -7 -132 1 -11 9 -17 9               -28 0 -10 -8 -45 -9 -132 -1 -956 82 -2575 831 -3244 1500 -120 119 -183 203               -230 305 -18 39 -39 82 -47 97 -11 23 -11 29 2 42 9 8 23 12 32 9 9 -4 75 -49               146 -100z" />
            </g>
        </g>
      
  </g>
</svg>