<?xml version="1.0" encoding="UTF-8"?><svg xmlns="http://www.w3.org/2000/svg" width="169" height="244" viewBox="0 0 169 244" shape-rendering="geometricPrecision"><path fill="#fefefe" fill-rule="evenodd" d="M160.0,243.5 L8.0,243.5 L7.0,242.5 L6.0,242.5 L0.5,237.0 L0.5,236.0 L-0.5,235.0 L-0.5,8.0 L0.5,7.0 L0.5,6.0 L1.5,5.0 L1.5,4.0 L4.0,1.5 L5.0,1.5 L6.0,0.5 L7.0,0.5 L8.0,-0.5 L160.0,-0.5 L161.0,0.5 L162.0,0.5 L167.5,6.0 L167.5,7.0 L168.5,8.0 L168.5,235.0 L167.5,236.0 L167.5,237.0 L166.5,238.0 L166.5,239.0 L164.0,241.5 L163.0,241.5 L162.0,242.5 L161.0,242.5 Z M36.5,33.0 L37.0,32.5 L38.0,32.5 L39.0,31.5 L40.5,30.0 L40.5,29.0 L41.5,28.0 L41.5,24.0 L37.5,20.0 L38.0,19.5 L39.0,19.5 L39.5,19.0 L39.5,18.0 L40.5,17.0 L40.5,13.0 L38.0,10.5 L37.0,10.5 L36.0,9.5 L29.0,9.5 L28.0,10.5 L27.0,10.5 L23.5,14.0 L23.5,15.0 L25.0,16.5 L28.0,16.5 L31.0,13.5 L34.0,13.5 L35.5,15.0 L35.5,17.0 L35.0,17.5 L34.0,17.5 L33.0,18.5 L30.0,18.5 L29.5,19.0 L29.5,22.0 L30.0,22.5 L33.0,22.5 L34.0,23.5 L35.0,23.5 L35.5,24.0 L35.5,28.0 L34.0,29.5 L31.0,29.5 L28.5,27.0 L28.5,26.0 L28.0,25.5 L26.0,25.5 L25.0,26.5 L24.0,26.5 L23.5,27.0 L23.5,29.0 L27.0,32.5 L28.0,32.5 L29.0,33.5 L36.0,33.5 Z M35.5,65.0 L36.5,64.0 L36.5,63.0 L38.5,61.0 L38.5,60.0 L43.5,55.0 L43.5,54.0 L38.5,49.0 L38.5,48.0 L36.5,46.0 L36.5,45.0 L35.0,43.5 L34.0,43.5 L32.5,45.0 L32.5,46.0 L30.5,48.0 L30.5,49.0 L25.5,54.0 L25.5,55.0 L30.5,60.0 L30.5,61.0 L32.5,63.0 L32.5,64.0 L33.0,64.5 L34.0,65.5 L35.0,65.5 Z M84.5,84.0 L85.5,83.0 L85.5,82.0 L86.5,81.0 L86.5,80.0 L88.5,78.0 L88.5,77.0 L91.5,74.0 L91.5,73.0 L98.5,66.0 L98.5,65.0 L93.5,60.0 L93.5,59.0 L89.5,55.0 L89.5,54.0 L87.5,52.0 L87.5,51.0 L85.5,49.0 L85.5,48.0 L84.0,46.5 L82.5,48.0 L82.5,49.0 L80.5,51.0 L80.5,52.0 L78.5,54.0 L78.5,55.0 L75.5,58.0 L75.5,59.0 L69.5,65.0 L69.5,66.0 L76.5,73.0 L76.5,74.0 L79.5,77.0 L79.5,78.0 L81.5,80.0 L81.5,81.0 L83.5,83.0 L83.5,84.0 L84.0,84.5 Z M84.5,129.0 L85.5,128.0 L85.5,127.0 L86.5,126.0 L86.5,125.0 L88.5,123.0 L88.5,122.0 L91.5,119.0 L91.5,118.0 L98.5,111.0 L98.5,110.0 L93.5,105.0 L93.5,104.0 L89.5,100.0 L89.5,99.0 L87.5,97.0 L87.5,96.0 L85.5,94.0 L85.5,93.0 L84.0,91.5 L82.5,93.0 L82.5,94.0 L80.5,96.0 L80.5,97.0 L78.5,99.0 L78.5,100.0 L74.5,104.0 L74.5,105.0 L69.5,110.0 L69.5,111.0 L76.5,118.0 L76.5,119.0 L79.5,122.0 L79.5,123.0 L81.5,125.0 L81.5,126.0 L83.5,128.0 L83.5,129.0 L84.0,129.5 Z M84.5,185.0 L85.5,184.0 L85.5,183.0 L86.5,182.0 L86.5,181.0 L88.5,179.0 L88.5,178.0 L91.5,175.0 L91.5,174.0 L98.5,167.0 L98.5,166.0 L92.5,160.0 L92.5,159.0 L89.5,156.0 L89.5,155.0 L87.5,153.0 L87.5,152.0 L85.5,150.0 L85.5,149.0 L84.0,147.5 L82.5,149.0 L82.5,150.0 L81.5,151.0 L81.5,152.0 L78.5,155.0 L78.5,156.0 L75.5,159.0 L75.5,160.0 L69.5,166.0 L69.5,167.0 L75.5,173.0 L75.5,174.0 L79.5,178.0 L79.5,179.0 L81.5,181.0 L81.5,182.0 L82.5,183.0 L82.5,184.0 L84.0,185.5 Z M134.5,199.0 L135.5,198.0 L135.5,197.0 L137.5,195.0 L137.5,194.0 L142.5,189.0 L142.5,188.0 L137.5,183.0 L137.5,182.0 L135.5,180.0 L135.5,179.0 L134.0,177.5 L133.0,177.5 L131.5,179.0 L131.5,180.0 L129.5,182.0 L129.5,183.0 L124.5,188.0 L124.5,189.0 L129.5,194.0 L129.5,195.0 L131.5,197.0 L131.5,198.0 L132.0,198.5 L133.0,199.5 L134.0,199.5 Z M139.5,233.0 L140.0,232.5 L141.0,232.5 L144.5,229.0 L144.5,228.0 L143.0,226.5 L140.0,226.5 L137.0,229.5 L134.0,229.5 L132.5,228.0 L132.5,226.0 L133.0,225.5 L134.0,225.5 L135.0,224.5 L138.0,224.5 L138.5,224.0 L138.5,221.0 L138.0,220.5 L135.0,220.5 L134.0,219.5 L133.0,219.5 L132.5,219.0 L132.5,215.0 L134.0,213.5 L137.0,213.5 L139.5,216.0 L139.5,217.0 L140.0,217.5 L142.0,217.5 L143.0,216.5 L144.0,216.5 L144.5,216.0 L144.5,214.0 L141.0,210.5 L140.0,210.5 L139.0,209.5 L132.0,209.5 L131.0,210.5 L130.0,210.5 L127.5,213.0 L127.5,214.0 L126.5,215.0 L126.5,219.0 L130.5,223.0 L130.0,223.5 L129.0,223.5 L128.5,224.0 L128.5,225.0 L127.5,226.0 L127.5,230.0 L130.0,232.5 L131.0,232.5 L132.0,233.5 L139.0,233.5 Z"/><path fill="#ff0202" fill-rule="evenodd" d="M35.0,33.5 L30.0,33.5 L29.0,32.5 L27.0,32.5 L24.5,30.0 L24.5,29.0 L23.5,28.0 L23.5,27.0 L24.0,26.5 L28.0,26.5 L28.5,27.0 L28.5,28.0 L30.0,29.5 L35.0,29.5 L35.5,29.0 L35.5,28.0 L36.5,27.0 L36.5,25.0 L34.0,22.5 L30.0,22.5 L29.5,22.0 L29.5,20.0 L31.0,18.5 L34.0,18.5 L35.5,17.0 L35.5,15.0 L34.5,14.0 L34.0,13.5 L30.0,13.5 L28.0,15.5 L25.0,15.5 L24.5,15.0 L24.5,13.0 L25.0,12.5 L26.0,11.5 L27.0,11.5 L28.0,10.5 L29.0,10.5 L30.0,9.5 L34.0,9.5 L35.0,10.5 L37.0,10.5 L38.0,11.5 L39.0,11.5 L39.5,12.0 L39.5,13.0 L40.5,14.0 L40.5,16.0 L39.5,17.0 L39.5,18.0 L38.0,19.5 L36.0,19.5 L35.5,20.0 L37.0,21.5 L38.0,21.5 L40.5,24.0 L40.5,29.0 L39.5,30.0 L39.5,31.0 L39.0,31.5 L38.0,31.5 L37.0,32.5 L36.0,32.5 Z M34.0,65.5 L33.5,65.0 L33.5,64.0 L32.5,63.0 L32.5,62.0 L28.5,58.0 L28.5,57.0 L26.5,55.0 L26.5,54.0 L28.5,52.0 L28.5,51.0 L32.5,47.0 L32.5,46.0 L34.0,44.5 L35.0,44.5 L36.5,46.0 L36.5,47.0 L39.5,50.0 L39.5,51.0 L42.5,54.0 L42.5,55.0 L39.5,58.0 L39.5,59.0 L36.5,62.0 L36.5,63.0 Z M84.0,83.5 L82.5,82.0 L82.5,81.0 L81.5,80.0 L81.5,79.0 L78.5,76.0 L78.5,75.0 L75.5,72.0 L75.5,71.0 L70.5,66.0 L70.5,65.0 L73.5,62.0 L73.5,61.0 L77.5,57.0 L77.5,56.0 L80.5,53.0 L80.5,52.0 L82.5,50.0 L82.5,49.0 L83.5,48.0 L83.5,47.0 L84.0,46.5 L84.5,47.0 L84.5,48.0 L85.5,49.0 L85.5,50.0 L87.5,52.0 L87.5,53.0 L90.5,56.0 L90.5,57.0 L94.5,61.0 L94.5,62.0 L97.5,65.0 L97.5,66.0 L92.5,71.0 L92.5,72.0 L89.5,75.0 L89.5,76.0 L86.5,79.0 L86.5,80.0 L85.5,81.0 L85.5,82.0 Z M84.0,128.5 L82.5,127.0 L82.5,126.0 L81.5,125.0 L81.5,124.0 L79.5,122.0 L79.5,121.0 L75.5,117.0 L75.5,116.0 L70.5,111.0 L70.5,110.0 L72.5,108.0 L72.5,107.0 L77.5,102.0 L77.5,101.0 L80.5,98.0 L80.5,97.0 L82.5,95.0 L82.5,94.0 L83.5,93.0 L83.5,92.0 L84.0,91.5 L84.5,92.0 L84.5,93.0 L85.5,94.0 L85.5,95.0 L87.5,97.0 L87.5,98.0 L90.5,101.0 L90.5,102.0 L95.5,107.0 L95.5,108.0 L97.5,110.0 L97.5,111.0 L92.5,116.0 L92.5,117.0 L89.5,120.0 L89.5,121.0 L86.5,124.0 L86.5,125.0 L85.5,126.0 L85.5,127.0 Z M84.0,184.5 L82.5,183.0 L82.5,182.0 L80.5,180.0 L80.5,179.0 L78.5,177.0 L78.5,176.0 L74.5,172.0 L74.5,171.0 L70.5,167.0 L70.5,166.0 L74.5,162.0 L74.5,161.0 L78.5,157.0 L78.5,156.0 L80.5,154.0 L80.5,153.0 L82.5,151.0 L82.5,150.0 L84.0,148.5 L85.5,150.0 L85.5,151.0 L87.5,153.0 L87.5,154.0 L90.5,157.0 L90.5,158.0 L94.5,162.0 L94.5,163.0 L97.5,166.0 L97.5,167.0 L93.5,171.0 L93.5,172.0 L89.5,176.0 L89.5,177.0 L87.5,179.0 L87.5,180.0 L85.5,182.0 L85.5,183.0 Z M134.0,198.5 L133.0,198.5 L131.5,197.0 L131.5,196.0 L128.5,193.0 L128.5,192.0 L125.5,189.0 L125.5,188.0 L128.5,185.0 L128.5,184.0 L131.5,181.0 L131.5,180.0 L134.0,177.5 L134.5,178.0 L134.5,179.0 L135.5,180.0 L135.5,181.0 L139.5,185.0 L139.5,186.0 L141.5,188.0 L141.5,189.0 L139.5,191.0 L139.5,192.0 L135.5,196.0 L135.5,197.0 Z M138.0,233.5 L133.0,233.5 L132.0,232.5 L131.0,232.5 L130.0,231.5 L129.0,231.5 L128.5,231.0 L128.5,230.0 L127.5,229.0 L127.5,227.0 L128.5,226.0 L128.5,225.0 L130.0,223.5 L132.0,223.5 L132.5,223.0 L131.0,221.5 L130.0,221.5 L127.5,219.0 L127.5,214.0 L128.5,213.0 L128.5,212.0 L129.0,211.5 L130.0,211.5 L131.0,210.5 L132.0,210.5 L133.0,209.5 L138.0,209.5 L139.0,210.5 L140.0,210.5 L141.0,211.5 L142.0,211.5 L143.5,213.0 L143.5,214.0 L144.5,215.0 L144.5,216.0 L144.0,216.5 L140.0,216.5 L139.5,216.0 L139.5,215.0 L138.0,213.5 L134.0,213.5 L131.5,216.0 L131.5,218.0 L134.0,220.5 L138.0,220.5 L138.5,221.0 L138.5,223.0 L137.0,224.5 L134.0,224.5 L132.5,226.0 L132.5,228.0 L134.0,229.5 L138.0,229.5 L140.0,227.5 L143.0,227.5 L143.5,228.0 L143.5,230.0 L142.0,231.5 L141.0,231.5 L140.0,232.5 L139.0,232.5 Z"/><path fill="#ff5d5d" fill-rule="evenodd" d="M36.0,10.5 L35.0,10.5 L34.5,10.0 L35.0,9.5 L36.0,9.5 L36.5,10.0 Z M41.0,28.5 L40.5,28.0 L40.5,25.0 L41.0,24.5 L41.5,25.0 L41.5,28.0 Z M35.0,44.5 L34.0,44.5 L33.5,44.0 L34.0,43.5 L35.0,43.5 L35.5,44.0 Z M134.0,199.5 L133.0,199.5 L132.5,199.0 L133.0,198.5 L134.0,198.5 L134.5,199.0 Z M127.0,218.5 L126.5,218.0 L126.5,215.0 L127.0,214.5 L127.5,215.0 L127.5,218.0 Z"/><path fill="#ffa1a1" fill-rule="evenodd" d="M28.0,16.5 L25.0,16.5 L24.5,16.0 L25.0,15.5 L28.0,15.5 L28.5,16.0 Z M28.0,26.5 L26.0,26.5 L25.5,26.0 L26.0,25.5 L28.0,25.5 L28.5,26.0 Z M43.0,55.5 L42.5,55.0 L42.5,54.0 L43.0,53.5 L43.5,54.0 L43.5,55.0 Z M70.0,66.5 L69.5,66.0 L69.5,65.0 L70.0,64.5 L70.5,65.0 L70.5,66.0 Z M70.0,111.5 L69.5,111.0 L69.5,110.0 L70.0,109.5 L70.5,110.0 L70.5,111.0 Z M70.0,167.5 L69.5,167.0 L69.5,166.0 L70.0,165.5 L70.5,166.0 L70.5,167.0 Z M98.0,167.5 L97.5,167.0 L97.5,166.0 L98.0,165.5 L98.5,166.0 L98.5,167.0 Z M125.0,189.5 L124.5,189.0 L124.5,188.0 L125.0,187.5 L125.5,188.0 L125.5,189.0 Z M132.0,218.5 L131.5,218.0 L131.5,217.0 L132.0,216.5 L132.5,217.0 L132.5,218.0 Z M142.0,217.5 L140.0,217.5 L139.5,217.0 L140.0,216.5 L142.0,216.5 L142.5,217.0 Z M143.0,227.5 L140.0,227.5 L139.5,227.0 L140.0,226.5 L143.0,226.5 L143.5,227.0 Z"/></svg>