<svg xmlns="http://www.w3.org/2000/svg" width="169" height="244" viewBox="0 0 169 244" fill="none">
  
  <rect width="169" height="244" rx="12" fill="white" stroke="#E5E5E5" />
  
  
  <g transform="translate(84.5 122) scale(1.07) translate(-84.5 -122)"><g transform="translate(20, 30)">
    <text font-family="Arial" font-size="24" font-weight="bold" fill="#FF0000">4</text>
    <g transform="translate(8, 14) scale(0.8)">
      <path d="M-7.377,-0.001 L-6.014,-1.545 L-5.131,-2.45 L-4.928,-2.812 L-4.236,-3.537 L-4.028,-3.899 L-3.519,-4.442 L-3.467,-4.623 L-2.954,-5.166 L-2.925,-5.347 L-2.445,-5.89 L-2.395,-6.071 L-2.043,-6.433 L-2.018,-6.614 L-1.675,-6.976 L-1.627,-7.157 L-1.319,-7.519 L-1.298,-7.7 L-0.953,-8.062 L-0.944,-8.243 L-0.77,-8.424 L-0.437,-8.967 L-0.408,-9.148 L-0.238,-9.329 L-0.227,-9.51 L0.045,-9.961 L0.131,-9.872 L0.135,-9.691 L0.398,-9.148 L0.642,-8.786 L0.678,-8.605 L0.859,-8.424 L0.867,-8.243 L1.18,-7.881 L1.222,-7.7 L1.402,-7.519 L1.947,-6.614 L2.284,-6.252 L2.311,-6.071 L2.669,-5.709 L2.71,-5.528 L3.205,-4.985 L3.396,-4.623 L3.753,-4.261 L3.951,-3.899 L4.632,-3.175 L4.844,-2.812 L5.551,-2.088 L5.939,-1.545 L7.376,-0.097 L7.377,0.084 L6.129,1.351 L5.73,1.894 L4.857,2.799 L4.655,3.161 L4.12,3.704 L3.913,4.066 L3.403,4.609 L3.367,4.79 L2.858,5.334 L2.669,5.696 L2.34,6.058 L2.301,6.239 L1.954,6.601 L1.91,6.782 L1.585,7.144 L1.569,7.325 L1.229,7.687 L1.208,7.868 L0.882,8.23 L0.859,8.411 L0.68,8.592 L0.665,8.773 L0.497,8.954 L0.456,9.135 L0.135,9.678 L0.134,9.859 L0.045,9.961 L-0.145,9.678 L-0.252,9.316 L-0.742,8.592 L-0.77,8.411 L-0.95,8.23 L-0.977,8.049 L-1.311,7.687 L-1.33,7.506 L-1.659,7.144 L-1.679,6.963 L-2.032,6.601 L-2.055,6.42 L-2.399,6.058 L-2.582,5.696 L-2.937,5.334 L-2.997,5.152 L-3.484,4.609 L-3.667,4.247 L-4.201,3.704 L-4.398,3.342 L-4.934,2.799 L-5.308,2.256 L-7.377,0.137 Z" fill="red" />
    </g>
  </g>
  
  
  <g transform="translate(149, 214) rotate(180)">
    <text font-family="Arial" font-size="24" font-weight="bold" fill="#FF0000">4</text>
    <g transform="translate(8, 14) scale(0.8)">
      <path d="M-7.377,-0.001 L-6.014,-1.545 L-5.131,-2.45 L-4.928,-2.812 L-4.236,-3.537 L-4.028,-3.899 L-3.519,-4.442 L-3.467,-4.623 L-2.954,-5.166 L-2.925,-5.347 L-2.445,-5.89 L-2.395,-6.071 L-2.043,-6.433 L-2.018,-6.614 L-1.675,-6.976 L-1.627,-7.157 L-1.319,-7.519 L-1.298,-7.7 L-0.953,-8.062 L-0.944,-8.243 L-0.77,-8.424 L-0.437,-8.967 L-0.408,-9.148 L-0.238,-9.329 L-0.227,-9.51 L0.045,-9.961 L0.131,-9.872 L0.135,-9.691 L0.398,-9.148 L0.642,-8.786 L0.678,-8.605 L0.859,-8.424 L0.867,-8.243 L1.18,-7.881 L1.222,-7.7 L1.402,-7.519 L1.947,-6.614 L2.284,-6.252 L2.311,-6.071 L2.669,-5.709 L2.71,-5.528 L3.205,-4.985 L3.396,-4.623 L3.753,-4.261 L3.951,-3.899 L4.632,-3.175 L4.844,-2.812 L5.551,-2.088 L5.939,-1.545 L7.376,-0.097 L7.377,0.084 L6.129,1.351 L5.73,1.894 L4.857,2.799 L4.655,3.161 L4.12,3.704 L3.913,4.066 L3.403,4.609 L3.367,4.79 L2.858,5.334 L2.669,5.696 L2.34,6.058 L2.301,6.239 L1.954,6.601 L1.91,6.782 L1.585,7.144 L1.569,7.325 L1.229,7.687 L1.208,7.868 L0.882,8.23 L0.859,8.411 L0.68,8.592 L0.665,8.773 L0.497,8.954 L0.456,9.135 L0.135,9.678 L0.134,9.859 L0.045,9.961 L-0.145,9.678 L-0.252,9.316 L-0.742,8.592 L-0.77,8.411 L-0.95,8.23 L-0.977,8.049 L-1.311,7.687 L-1.33,7.506 L-1.659,7.144 L-1.679,6.963 L-2.032,6.601 L-2.055,6.42 L-2.399,6.058 L-2.582,5.696 L-2.937,5.334 L-2.997,5.152 L-3.484,4.609 L-3.667,4.247 L-4.201,3.704 L-4.398,3.342 L-4.934,2.799 L-5.308,2.256 L-7.377,0.137 Z" fill="red" />
    </g>
  </g>
  
  
  
    <g transform="translate(59.5, 72)">
      <path d="M-8.882,-0.001 L-7.24,-1.86 L-6.178,-2.95 L-5.932,-3.386 L-5.099,-4.258 L-4.85,-4.694 L-4.237,-5.347 L-4.174,-5.565 L-3.557,-6.219 L-3.521,-6.437 L-2.943,-7.091 L-2.883,-7.309 L-2.46,-7.745 L-2.429,-7.963 L-2.017,-8.399 L-1.958,-8.616 L-1.588,-9.052 L-1.562,-9.27 L-1.147,-9.706 L-1.136,-9.924 L-0.927,-10.142 L-0.526,-10.796 L-0.491,-11.014 L-0.286,-11.232 L-0.273,-11.45 L0.054,-11.992 L0.157,-11.886 L0.163,-11.668 L0.479,-11.014 L0.773,-10.578 L0.816,-10.36 L1.034,-10.142 L1.044,-9.924 L1.42,-9.488 L1.471,-9.27 L1.688,-9.052 L2.344,-7.963 L2.749,-7.527 L2.783,-7.309 L3.214,-6.873 L3.263,-6.655 L3.858,-6.001 L4.089,-5.565 L4.518,-5.13 L4.757,-4.694 L5.576,-3.822 L5.832,-3.386 L6.683,-2.514 L7.15,-1.86 L8.88,-0.117 L8.882,0.101 L7.379,1.627 L6.898,2.28 L5.847,3.37 L5.604,3.806 L4.96,4.46 L4.711,4.896 L4.097,5.549 L4.053,5.767 L3.441,6.421 L3.214,6.857 L2.817,7.293 L2.77,7.511 L2.352,7.947 L2.299,8.165 L1.909,8.6 L1.889,8.818 L1.479,9.254 L1.454,9.472 L1.062,9.908 L1.034,10.126 L0.818,10.344 L0.8,10.562 L0.598,10.78 L0.549,10.998 L0.163,11.652 L0.162,11.87 L0.054,11.992 L-0.175,11.652 L-0.304,11.216 L-0.893,10.344 L-0.927,10.126 L-1.144,9.908 L-1.176,9.69 L-1.579,9.254 L-1.601,9.036 L-1.998,8.6 L-2.021,8.383 L-2.447,7.947 L-2.474,7.729 L-2.888,7.293 L-3.108,6.857 L-3.536,6.421 L-3.608,6.203 L-4.194,5.549 L-4.415,5.114 L-5.058,4.46 L-5.295,4.024 L-5.94,3.37 L-6.39,2.716 L-8.882,0.165 Z" fill="red" />
    </g>
  
    <g transform="translate(109.5, 72)">
      <path d="M-8.882,-0.001 L-7.24,-1.86 L-6.178,-2.95 L-5.932,-3.386 L-5.099,-4.258 L-4.85,-4.694 L-4.237,-5.347 L-4.174,-5.565 L-3.557,-6.219 L-3.521,-6.437 L-2.943,-7.091 L-2.883,-7.309 L-2.46,-7.745 L-2.429,-7.963 L-2.017,-8.399 L-1.958,-8.616 L-1.588,-9.052 L-1.562,-9.27 L-1.147,-9.706 L-1.136,-9.924 L-0.927,-10.142 L-0.526,-10.796 L-0.491,-11.014 L-0.286,-11.232 L-0.273,-11.45 L0.054,-11.992 L0.157,-11.886 L0.163,-11.668 L0.479,-11.014 L0.773,-10.578 L0.816,-10.36 L1.034,-10.142 L1.044,-9.924 L1.42,-9.488 L1.471,-9.27 L1.688,-9.052 L2.344,-7.963 L2.749,-7.527 L2.783,-7.309 L3.214,-6.873 L3.263,-6.655 L3.858,-6.001 L4.089,-5.565 L4.518,-5.13 L4.757,-4.694 L5.576,-3.822 L5.832,-3.386 L6.683,-2.514 L7.15,-1.86 L8.88,-0.117 L8.882,0.101 L7.379,1.627 L6.898,2.28 L5.847,3.37 L5.604,3.806 L4.96,4.46 L4.711,4.896 L4.097,5.549 L4.053,5.767 L3.441,6.421 L3.214,6.857 L2.817,7.293 L2.77,7.511 L2.352,7.947 L2.299,8.165 L1.909,8.6 L1.889,8.818 L1.479,9.254 L1.454,9.472 L1.062,9.908 L1.034,10.126 L0.818,10.344 L0.8,10.562 L0.598,10.78 L0.549,10.998 L0.163,11.652 L0.162,11.87 L0.054,11.992 L-0.175,11.652 L-0.304,11.216 L-0.893,10.344 L-0.927,10.126 L-1.144,9.908 L-1.176,9.69 L-1.579,9.254 L-1.601,9.036 L-1.998,8.6 L-2.021,8.383 L-2.447,7.947 L-2.474,7.729 L-2.888,7.293 L-3.108,6.857 L-3.536,6.421 L-3.608,6.203 L-4.194,5.549 L-4.415,5.114 L-5.058,4.46 L-5.295,4.024 L-5.94,3.37 L-6.39,2.716 L-8.882,0.165 Z" fill="red" />
    </g>
  
    <g transform="translate(59.5, 162)">
      <path d="M-8.882,-0.001 L-7.24,-1.86 L-6.178,-2.95 L-5.932,-3.386 L-5.099,-4.258 L-4.85,-4.694 L-4.237,-5.347 L-4.174,-5.565 L-3.557,-6.219 L-3.521,-6.437 L-2.943,-7.091 L-2.883,-7.309 L-2.46,-7.745 L-2.429,-7.963 L-2.017,-8.399 L-1.958,-8.616 L-1.588,-9.052 L-1.562,-9.27 L-1.147,-9.706 L-1.136,-9.924 L-0.927,-10.142 L-0.526,-10.796 L-0.491,-11.014 L-0.286,-11.232 L-0.273,-11.45 L0.054,-11.992 L0.157,-11.886 L0.163,-11.668 L0.479,-11.014 L0.773,-10.578 L0.816,-10.36 L1.034,-10.142 L1.044,-9.924 L1.42,-9.488 L1.471,-9.27 L1.688,-9.052 L2.344,-7.963 L2.749,-7.527 L2.783,-7.309 L3.214,-6.873 L3.263,-6.655 L3.858,-6.001 L4.089,-5.565 L4.518,-5.13 L4.757,-4.694 L5.576,-3.822 L5.832,-3.386 L6.683,-2.514 L7.15,-1.86 L8.88,-0.117 L8.882,0.101 L7.379,1.627 L6.898,2.28 L5.847,3.37 L5.604,3.806 L4.96,4.46 L4.711,4.896 L4.097,5.549 L4.053,5.767 L3.441,6.421 L3.214,6.857 L2.817,7.293 L2.77,7.511 L2.352,7.947 L2.299,8.165 L1.909,8.6 L1.889,8.818 L1.479,9.254 L1.454,9.472 L1.062,9.908 L1.034,10.126 L0.818,10.344 L0.8,10.562 L0.598,10.78 L0.549,10.998 L0.163,11.652 L0.162,11.87 L0.054,11.992 L-0.175,11.652 L-0.304,11.216 L-0.893,10.344 L-0.927,10.126 L-1.144,9.908 L-1.176,9.69 L-1.579,9.254 L-1.601,9.036 L-1.998,8.6 L-2.021,8.383 L-2.447,7.947 L-2.474,7.729 L-2.888,7.293 L-3.108,6.857 L-3.536,6.421 L-3.608,6.203 L-4.194,5.549 L-4.415,5.114 L-5.058,4.46 L-5.295,4.024 L-5.94,3.37 L-6.39,2.716 L-8.882,0.165 Z" fill="red" />
    </g>
  
    <g transform="translate(109.5, 162)">
      <path d="M-8.882,-0.001 L-7.24,-1.86 L-6.178,-2.95 L-5.932,-3.386 L-5.099,-4.258 L-4.85,-4.694 L-4.237,-5.347 L-4.174,-5.565 L-3.557,-6.219 L-3.521,-6.437 L-2.943,-7.091 L-2.883,-7.309 L-2.46,-7.745 L-2.429,-7.963 L-2.017,-8.399 L-1.958,-8.616 L-1.588,-9.052 L-1.562,-9.27 L-1.147,-9.706 L-1.136,-9.924 L-0.927,-10.142 L-0.526,-10.796 L-0.491,-11.014 L-0.286,-11.232 L-0.273,-11.45 L0.054,-11.992 L0.157,-11.886 L0.163,-11.668 L0.479,-11.014 L0.773,-10.578 L0.816,-10.36 L1.034,-10.142 L1.044,-9.924 L1.42,-9.488 L1.471,-9.27 L1.688,-9.052 L2.344,-7.963 L2.749,-7.527 L2.783,-7.309 L3.214,-6.873 L3.263,-6.655 L3.858,-6.001 L4.089,-5.565 L4.518,-5.13 L4.757,-4.694 L5.576,-3.822 L5.832,-3.386 L6.683,-2.514 L7.15,-1.86 L8.88,-0.117 L8.882,0.101 L7.379,1.627 L6.898,2.28 L5.847,3.37 L5.604,3.806 L4.96,4.46 L4.711,4.896 L4.097,5.549 L4.053,5.767 L3.441,6.421 L3.214,6.857 L2.817,7.293 L2.77,7.511 L2.352,7.947 L2.299,8.165 L1.909,8.6 L1.889,8.818 L1.479,9.254 L1.454,9.472 L1.062,9.908 L1.034,10.126 L0.818,10.344 L0.8,10.562 L0.598,10.78 L0.549,10.998 L0.163,11.652 L0.162,11.87 L0.054,11.992 L-0.175,11.652 L-0.304,11.216 L-0.893,10.344 L-0.927,10.126 L-1.144,9.908 L-1.176,9.69 L-1.579,9.254 L-1.601,9.036 L-1.998,8.6 L-2.021,8.383 L-2.447,7.947 L-2.474,7.729 L-2.888,7.293 L-3.108,6.857 L-3.536,6.421 L-3.608,6.203 L-4.194,5.549 L-4.415,5.114 L-5.058,4.46 L-5.295,4.024 L-5.94,3.37 L-6.39,2.716 L-8.882,0.165 Z" fill="red" />
    </g>
  
</g></svg>