
<svg width="169" height="244" viewBox="0 0 169 244" fill="none" xmlns="http://www.w3.org/2000/svg">
  <!-- 카드 배경 -->
  <rect width="169" height="244" rx="12" fill="white" stroke="#E5E5E5"/>
  
  <!-- 좌상단 숫자와 무늬 -->
  <g transform="translate(20, 30)">
    <text font-family="Arial" font-size="24" font-weight="bold" fill="#FF0000">K</text>
    <g transform="translate(8, 14) scale(0.8)">
      <path d="M0,-10
        L-7.5,0
        L0,10
        L7.5,0Z" fill="red" />
    </g>
  </g>
  
  <!-- 우하단 숫자와 무늬 (180도 회전) -->
  <g transform="translate(149, 214) rotate(180)">
    <text font-family="Arial" font-size="24" font-weight="bold" fill="#FF0000">K</text>
    <g transform="translate(8, 14) scale(0.8)">
      <path d="M0,-10
        L-7.5,0
        L0,10
        L7.5,0Z" fill="red" />
    </g>
  </g>
  
  <!-- 중앙 이미지 -->
  <g transform="translate(84.5, 122)">
    
        <!-- 왕관 -->
        <path d="M-20 -40 L20 -40 L15 -30 L10 -35 L0 -25 L-10 -35 L-15 -30 Z" fill="#FFD700"/>
        <!-- 얼굴 -->
        <circle cx="0" cy="-15" r="20" fill="#FFE4B5"/>
        <!-- 눈 -->
        <circle cx="-8" cy="-18" r="2" fill="#000000"/>
        <circle cx="8" cy="-18" r="2" fill="#000000"/>
        <!-- 코 -->
        <path d="M0 -15 Q2 -12 0 -10" stroke="#000000" fill="none"/>
        <!-- 입 -->
        <path d="M-5 -5 Q0 -2 5 -5" stroke="#000000" fill="none"/>
        <!-- 옷깃 -->
        <path d="M-20 10 Q0 40 20 10" fill="#4169E1"/>
      
  </g>
</svg>
