<?xml version="1.0" encoding="UTF-8"?><svg xmlns="http://www.w3.org/2000/svg" width="169" height="244" viewBox="0 0 169 244" shape-rendering="geometricPrecision"><path fill="#fefefe" fill-rule="evenodd" d="M160.0,243.5 L8.0,243.5 L7.0,242.5 L6.0,242.5 L0.5,237.0 L0.5,236.0 L-0.5,235.0 L-0.5,8.0 L0.5,7.0 L0.5,6.0 L1.5,5.0 L1.5,4.0 L4.0,1.5 L5.0,1.5 L6.0,0.5 L7.0,0.5 L8.0,-0.5 L160.0,-0.5 L161.0,0.5 L162.0,0.5 L167.5,6.0 L167.5,7.0 L168.5,8.0 L168.5,235.0 L167.5,236.0 L167.5,237.0 L166.5,238.0 L166.5,239.0 L164.0,241.5 L163.0,241.5 L162.0,242.5 L161.0,242.5 Z M36.5,33.0 L37.0,32.5 L38.0,32.5 L39.0,31.5 L40.5,30.0 L40.5,29.0 L41.5,28.0 L41.5,23.0 L40.5,22.0 L40.5,21.0 L37.0,17.5 L31.0,17.5 L30.0,18.5 L29.5,18.0 L29.5,16.0 L32.0,13.5 L34.0,13.5 L36.0,15.5 L40.0,15.5 L40.5,15.0 L40.5,13.0 L38.0,10.5 L37.0,10.5 L36.0,9.5 L30.0,9.5 L29.0,10.5 L28.0,10.5 L25.5,13.0 L25.5,14.0 L24.5,15.0 L24.5,17.0 L23.5,18.0 L23.5,26.0 L24.5,27.0 L24.5,29.0 L28.0,32.5 L29.0,32.5 L30.0,33.5 L36.0,33.5 Z M34.0,29.5 L32.0,29.5 L29.5,27.0 L29.5,23.0 L31.0,21.5 L34.0,21.5 L35.5,23.0 L35.5,28.0 Z M35.5,65.0 L36.5,64.0 L36.5,63.0 L38.5,61.0 L38.5,60.0 L43.5,55.0 L43.5,54.0 L38.5,49.0 L38.5,48.0 L36.5,46.0 L36.5,45.0 L35.0,43.5 L34.0,43.5 L32.5,45.0 L32.5,46.0 L30.5,48.0 L30.5,49.0 L25.5,54.0 L25.5,55.0 L30.5,60.0 L30.5,61.0 L32.5,63.0 L32.5,64.0 L33.0,64.5 L34.0,65.5 L35.0,65.5 Z M56.5,82.0 L57.5,81.0 L57.5,80.0 L59.5,78.0 L59.5,77.0 L61.5,75.0 L61.5,74.0 L66.5,69.0 L66.5,68.0 L69.5,65.0 L62.5,58.0 L62.5,57.0 L60.5,55.0 L60.5,54.0 L58.5,52.0 L58.5,51.0 L56.0,48.5 L54.5,50.0 L54.5,51.0 L53.5,52.0 L53.5,53.0 L50.5,56.0 L50.5,57.0 L46.5,61.0 L46.5,62.0 L43.5,65.0 L43.5,66.0 L48.5,71.0 L48.5,72.0 L51.5,75.0 L51.5,76.0 L53.5,78.0 L53.5,79.0 L55.5,81.0 L55.5,82.0 L56.0,82.5 Z M112.5,82.0 L112.5,81.0 L114.5,79.0 L114.5,78.0 L116.5,76.0 L116.5,75.0 L120.5,71.0 L120.5,70.0 L124.5,66.0 L124.5,65.0 L121.5,62.0 L121.5,61.0 L117.5,57.0 L117.5,56.0 L114.5,53.0 L114.5,52.0 L113.5,51.0 L113.5,50.0 L112.0,48.5 L110.5,50.0 L110.5,51.0 L108.5,53.0 L108.5,54.0 L105.5,57.0 L105.5,58.0 L99.5,64.0 L99.5,66.0 L102.5,69.0 L102.5,70.0 L106.5,74.0 L106.5,75.0 L108.5,77.0 L108.5,78.0 L110.5,80.0 L110.5,81.0 L112.0,82.5 Z M56.5,127.0 L57.5,126.0 L57.5,125.0 L59.5,123.0 L59.5,122.0 L61.5,120.0 L61.5,119.0 L66.5,114.0 L66.5,113.0 L69.5,110.0 L63.5,104.0 L63.5,103.0 L60.5,100.0 L60.5,99.0 L58.5,97.0 L58.5,96.0 L56.0,93.5 L54.5,95.0 L54.5,96.0 L53.5,97.0 L53.5,98.0 L50.5,101.0 L50.5,102.0 L45.5,107.0 L45.5,108.0 L43.5,110.0 L43.5,111.0 L48.5,116.0 L48.5,117.0 L51.5,120.0 L51.5,121.0 L53.5,123.0 L53.5,124.0 L55.5,126.0 L55.5,127.0 L56.0,127.5 Z M112.5,127.0 L112.5,126.0 L114.5,124.0 L114.5,123.0 L116.5,121.0 L116.5,120.0 L119.5,117.0 L119.5,116.0 L124.5,111.0 L124.5,110.0 L121.5,107.0 L121.5,106.0 L117.5,102.0 L117.5,101.0 L115.5,99.0 L115.5,98.0 L113.5,96.0 L113.5,95.0 L112.0,93.5 L109.5,96.0 L109.5,97.0 L107.5,99.0 L107.5,100.0 L104.5,103.0 L104.5,104.0 L98.5,110.0 L102.5,114.0 L102.5,115.0 L106.5,119.0 L106.5,120.0 L108.5,122.0 L108.5,123.0 L110.5,125.0 L110.5,126.0 L112.0,127.5 Z M56.5,183.0 L57.5,182.0 L57.5,181.0 L59.5,179.0 L59.5,178.0 L62.5,175.0 L62.5,174.0 L66.5,170.0 L66.5,169.0 L68.5,167.0 L68.5,165.0 L62.5,159.0 L62.5,158.0 L59.5,155.0 L59.5,154.0 L57.5,152.0 L57.5,151.0 L56.0,149.5 L55.5,150.0 L55.5,151.0 L53.5,153.0 L53.5,154.0 L50.5,157.0 L50.5,158.0 L47.5,161.0 L47.5,162.0 L43.5,166.0 L43.5,167.0 L47.5,171.0 L47.5,172.0 L51.5,176.0 L51.5,177.0 L53.5,179.0 L53.5,180.0 L55.5,182.0 L55.5,183.0 L56.0,183.5 Z M112.5,183.0 L113.5,182.0 L113.5,181.0 L114.5,180.0 L114.5,179.0 L116.5,177.0 L116.5,176.0 L120.5,172.0 L120.5,171.0 L124.5,167.0 L124.5,166.0 L120.5,162.0 L120.5,161.0 L116.5,157.0 L116.5,156.0 L114.5,154.0 L114.5,153.0 L113.5,152.0 L113.5,151.0 L112.0,149.5 L110.5,151.0 L110.5,152.0 L108.5,154.0 L108.5,155.0 L105.5,158.0 L105.5,159.0 L99.5,165.0 L99.5,167.0 L100.5,168.0 L100.5,169.0 L105.5,174.0 L105.5,175.0 L108.5,178.0 L108.5,179.0 L110.5,181.0 L110.5,182.0 L112.0,183.5 Z M134.5,199.0 L135.5,198.0 L135.5,197.0 L137.5,195.0 L137.5,194.0 L142.5,189.0 L142.5,188.0 L137.5,183.0 L137.5,182.0 L135.5,180.0 L135.5,179.0 L134.0,177.5 L133.0,177.5 L131.5,179.0 L131.5,180.0 L129.5,182.0 L129.5,183.0 L124.5,188.0 L124.5,189.0 L129.5,194.0 L129.5,195.0 L131.5,197.0 L131.5,198.0 L132.0,198.5 L133.0,199.5 L134.0,199.5 Z M138.5,233.0 L139.0,232.5 L140.0,232.5 L142.5,230.0 L142.5,229.0 L143.5,228.0 L143.5,226.0 L144.5,225.0 L144.5,217.0 L143.5,216.0 L143.5,214.0 L140.0,210.5 L139.0,210.5 L138.0,209.5 L132.0,209.5 L131.0,210.5 L130.0,210.5 L127.5,213.0 L127.5,214.0 L126.5,215.0 L126.5,220.0 L127.5,221.0 L127.5,222.0 L131.0,225.5 L137.0,225.5 L138.0,224.5 L138.5,225.0 L138.5,227.0 L136.0,229.5 L134.0,229.5 L132.0,227.5 L128.0,227.5 L127.5,228.0 L127.5,230.0 L131.0,233.5 L138.0,233.5 Z M137.0,221.5 L134.0,221.5 L132.5,220.0 L132.5,215.0 L134.0,213.5 L136.0,213.5 L138.5,216.0 L138.5,220.0 Z"/><path fill="#ff0202" fill-rule="evenodd" d="M35.0,33.5 L31.0,33.5 L30.0,32.5 L29.0,32.5 L28.0,31.5 L27.0,31.5 L26.5,31.0 L26.5,30.0 L25.5,29.0 L25.5,28.0 L24.5,27.0 L24.5,16.0 L25.5,15.0 L25.5,14.0 L29.0,10.5 L30.0,10.5 L31.0,9.5 L35.0,9.5 L36.0,10.5 L37.0,10.5 L40.5,14.0 L40.0,14.5 L36.0,14.5 L35.0,13.5 L31.0,13.5 L29.5,15.0 L29.5,16.0 L28.5,17.0 L28.5,19.0 L29.0,19.5 L30.0,19.5 L31.0,18.5 L32.0,18.5 L33.0,17.5 L36.0,17.5 L37.0,18.5 L38.0,18.5 L38.5,19.0 L39.5,20.0 L39.5,21.0 L40.5,22.0 L40.5,29.0 L37.0,32.5 L36.0,32.5 Z M35.5,29.0 L35.5,28.0 L36.5,27.0 L36.5,24.0 L35.5,23.0 L35.5,22.0 L35.0,21.5 L34.0,21.5 L33.0,20.5 L32.0,20.5 L31.0,21.5 L30.0,21.5 L29.5,22.0 L29.5,23.0 L28.5,24.0 L28.5,26.0 L29.5,27.0 L29.5,28.0 L31.0,29.5 L35.0,29.5 Z M34.0,65.5 L33.5,65.0 L33.5,64.0 L32.5,63.0 L32.5,62.0 L28.5,58.0 L28.5,57.0 L26.5,55.0 L26.5,54.0 L28.5,52.0 L28.5,51.0 L32.5,47.0 L32.5,46.0 L34.0,44.5 L35.0,44.5 L36.5,46.0 L36.5,47.0 L39.5,50.0 L39.5,51.0 L42.5,54.0 L42.5,55.0 L39.5,58.0 L39.5,59.0 L36.5,62.0 L36.5,63.0 Z M56.0,81.5 L55.5,81.0 L55.5,80.0 L53.5,78.0 L53.5,77.0 L50.5,74.0 L50.5,73.0 L46.5,69.0 L46.5,68.0 L43.5,65.0 L49.5,59.0 L49.5,58.0 L52.5,55.0 L52.5,54.0 L54.5,52.0 L54.5,51.0 L55.5,50.0 L55.5,49.0 L56.0,48.5 L56.5,49.0 L56.5,50.0 L58.5,52.0 L58.5,53.0 L60.5,55.0 L60.5,56.0 L64.5,60.0 L64.5,61.0 L68.5,65.0 L68.5,66.0 L62.5,72.0 L62.5,73.0 L59.5,76.0 L59.5,77.0 L57.5,79.0 L57.5,80.0 Z M112.0,81.5 L110.5,80.0 L110.5,79.0 L108.5,77.0 L108.5,76.0 L105.5,73.0 L105.5,72.0 L99.5,66.0 L99.5,65.0 L103.5,61.0 L103.5,60.0 L107.5,56.0 L107.5,55.0 L109.5,53.0 L109.5,52.0 L111.5,50.0 L111.5,49.0 L112.0,48.5 L112.5,49.0 L112.5,50.0 L113.5,51.0 L113.5,52.0 L115.5,54.0 L115.5,55.0 L118.5,58.0 L118.5,59.0 L124.5,65.0 L121.5,68.0 L121.5,69.0 L117.5,73.0 L117.5,74.0 L114.5,77.0 L114.5,78.0 L112.5,80.0 L112.5,81.0 Z M56.0,126.5 L55.5,126.0 L55.5,125.0 L53.5,123.0 L53.5,122.0 L51.5,120.0 L51.5,119.0 L47.5,115.0 L47.5,114.0 L43.5,110.0 L49.5,104.0 L49.5,103.0 L52.5,100.0 L52.5,99.0 L54.5,97.0 L54.5,96.0 L55.5,95.0 L55.5,94.0 L56.0,93.5 L57.5,95.0 L57.5,96.0 L58.5,97.0 L58.5,98.0 L60.5,100.0 L60.5,101.0 L64.5,105.0 L64.5,106.0 L68.5,110.0 L68.5,111.0 L62.5,117.0 L62.5,118.0 L59.5,121.0 L59.5,122.0 L57.5,124.0 L57.5,125.0 Z M112.0,126.5 L110.5,125.0 L110.5,124.0 L108.5,122.0 L108.5,121.0 L105.5,118.0 L105.5,117.0 L99.5,111.0 L99.5,110.0 L103.5,106.0 L103.5,105.0 L107.5,101.0 L107.5,100.0 L109.5,98.0 L109.5,97.0 L111.5,95.0 L111.5,94.0 L112.0,93.5 L112.5,94.0 L112.5,95.0 L113.5,96.0 L113.5,97.0 L115.5,99.0 L115.5,100.0 L118.5,103.0 L118.5,104.0 L124.5,110.0 L121.5,113.0 L121.5,114.0 L117.5,118.0 L117.5,119.0 L114.5,122.0 L114.5,123.0 L112.5,125.0 L112.5,126.0 Z M56.0,182.5 L54.5,181.0 L54.5,180.0 L53.5,179.0 L53.5,178.0 L50.5,175.0 L50.5,174.0 L43.5,167.0 L44.5,166.0 L44.5,165.0 L50.5,159.0 L50.5,158.0 L52.5,156.0 L52.5,155.0 L54.5,153.0 L54.5,152.0 L56.0,150.5 L58.5,153.0 L58.5,154.0 L60.5,156.0 L60.5,157.0 L63.5,160.0 L63.5,161.0 L68.5,166.0 L68.5,167.0 L63.5,172.0 L63.5,173.0 L60.5,176.0 L60.5,177.0 L58.5,179.0 L58.5,180.0 Z M112.0,182.5 L110.5,181.0 L110.5,180.0 L107.5,177.0 L107.5,176.0 L104.5,173.0 L104.5,172.0 L99.5,167.0 L99.5,166.0 L104.5,161.0 L104.5,160.0 L107.5,157.0 L107.5,156.0 L109.5,154.0 L109.5,153.0 L112.0,150.5 L113.5,152.0 L113.5,153.0 L115.5,155.0 L115.5,156.0 L118.5,159.0 L118.5,160.0 L124.5,166.0 L122.5,168.0 L122.5,169.0 L117.5,174.0 L117.5,175.0 L114.5,178.0 L114.5,179.0 L113.5,180.0 L113.5,181.0 Z M134.0,198.5 L133.0,198.5 L131.5,197.0 L131.5,196.0 L128.5,193.0 L128.5,192.0 L125.5,189.0 L125.5,188.0 L128.5,185.0 L128.5,184.0 L131.5,181.0 L131.5,180.0 L134.0,177.5 L134.5,178.0 L134.5,179.0 L135.5,180.0 L135.5,181.0 L139.5,185.0 L139.5,186.0 L141.5,188.0 L141.5,189.0 L139.5,191.0 L139.5,192.0 L135.5,196.0 L135.5,197.0 Z M137.0,233.5 L133.0,233.5 L132.0,232.5 L131.0,232.5 L127.5,229.0 L128.0,228.5 L132.0,228.5 L133.0,229.5 L137.0,229.5 L138.5,228.0 L138.5,227.0 L139.5,226.0 L139.5,224.0 L139.0,223.5 L138.0,223.5 L137.0,224.5 L136.0,224.5 L135.0,225.5 L132.0,225.5 L131.0,224.5 L130.0,224.5 L127.5,222.0 L127.5,214.0 L131.0,210.5 L132.0,210.5 L133.0,209.5 L137.0,209.5 L138.0,210.5 L139.0,210.5 L140.0,211.5 L141.0,211.5 L141.5,212.0 L141.5,213.0 L142.5,214.0 L142.5,215.0 L143.5,216.0 L143.5,227.0 L142.5,228.0 L142.5,229.0 L141.5,230.0 L139.0,232.5 L138.0,232.5 Z M136.5,222.0 L137.0,221.5 L138.0,221.5 L138.5,221.0 L138.5,220.0 L139.5,219.0 L139.5,217.0 L138.5,216.0 L138.5,215.0 L137.0,213.5 L133.0,213.5 L132.5,214.0 L132.5,215.0 L131.5,216.0 L131.5,219.0 L132.5,220.0 L132.5,221.0 L133.0,221.5 L134.0,221.5 L135.0,222.5 L136.0,222.5 Z"/><path fill="#ff5f5f" fill-rule="evenodd" d="M38.0,15.5 L36.0,15.5 L35.5,15.0 L36.0,14.5 L38.0,14.5 L38.5,15.0 Z M24.0,24.5 L23.5,24.0 L23.5,19.0 L24.0,18.5 L24.5,19.0 L24.5,24.0 Z M33.0,21.5 L32.0,21.5 L31.5,21.0 L32.0,20.5 L33.0,20.5 L33.5,21.0 Z M29.0,26.5 L28.5,26.0 L28.5,24.0 L29.0,23.5 L29.5,24.0 L29.5,26.0 Z M41.0,27.5 L40.5,27.0 L40.5,24.0 L41.0,23.5 L41.5,24.0 L41.5,27.0 Z M35.0,44.5 L34.0,44.5 L33.5,44.0 L34.0,43.5 L35.0,43.5 L35.5,44.0 Z M134.0,199.5 L133.0,199.5 L132.5,199.0 L133.0,198.5 L134.0,198.5 L134.5,199.0 Z M127.0,219.5 L126.5,219.0 L126.5,216.0 L127.0,215.5 L127.5,216.0 L127.5,219.0 Z M139.0,219.5 L138.5,219.0 L138.5,217.0 L139.0,216.5 L139.5,217.0 L139.5,219.0 Z M144.0,224.5 L143.5,224.0 L143.5,219.0 L144.0,218.5 L144.5,219.0 L144.5,224.0 Z M136.0,222.5 L135.0,222.5 L134.5,222.0 L135.0,221.5 L136.0,221.5 L136.5,222.0 Z M132.0,228.5 L130.0,228.5 L129.5,228.0 L130.0,227.5 L132.0,227.5 L132.5,228.0 Z"/><path fill="#ffa2a2" fill-rule="evenodd" d="M40.0,15.5 L39.0,15.5 L38.5,15.0 L39.0,14.5 L40.0,14.5 L40.5,15.0 Z M29.0,18.5 L28.5,18.0 L28.5,17.0 L29.0,16.5 L29.5,17.0 L29.5,18.0 Z M36.0,27.5 L35.5,27.0 L35.5,24.0 L36.0,23.5 L36.5,24.0 L36.5,27.0 Z M24.0,26.5 L23.5,26.0 L23.5,25.0 L24.0,24.5 L24.5,25.0 L24.5,26.0 Z M43.0,55.5 L42.5,55.0 L42.5,54.0 L43.0,53.5 L43.5,54.0 L43.5,55.0 Z M125.0,189.5 L124.5,189.0 L124.5,188.0 L125.0,187.5 L125.5,188.0 L125.5,189.0 Z M132.0,219.5 L131.5,219.0 L131.5,216.0 L132.0,215.5 L132.5,216.0 L132.5,219.0 Z M144.0,218.5 L143.5,218.0 L143.5,217.0 L144.0,216.5 L144.5,217.0 L144.5,218.0 Z M139.0,226.5 L138.5,226.0 L138.5,224.0 L139.0,223.5 L139.5,224.0 L139.5,226.0 Z M129.0,228.5 L128.0,228.5 L127.5,228.0 L128.0,227.5 L129.0,227.5 L129.5,228.0 Z"/></svg>