<?xml version="1.0" encoding="UTF-8"?><svg xmlns="http://www.w3.org/2000/svg" width="169" height="244" viewBox="0 0 169 244" shape-rendering="geometricPrecision"><path fill="#fefefe" fill-rule="evenodd" d="M160.0,243.5 L8.0,243.5 L7.0,242.5 L6.0,242.5 L0.5,237.0 L0.5,236.0 L-0.5,235.0 L-0.5,8.0 L0.5,7.0 L0.5,6.0 L1.5,5.0 L1.5,4.0 L4.0,1.5 L5.0,1.5 L6.0,0.5 L7.0,0.5 L8.0,-0.5 L160.0,-0.5 L161.0,0.5 L162.0,0.5 L167.5,6.0 L167.5,7.0 L168.5,8.0 L168.5,235.0 L167.5,236.0 L167.5,237.0 L166.5,238.0 L166.5,239.0 L164.0,241.5 L163.0,241.5 L162.0,242.5 L161.0,242.5 Z M29.5,33.0 L29.5,30.0 L29.0,29.5 L25.0,29.5 L24.5,29.0 L24.5,10.0 L24.0,9.5 L18.0,9.5 L16.0,11.5 L15.0,11.5 L12.5,14.0 L12.5,17.0 L13.0,17.5 L14.0,16.5 L15.0,16.5 L17.0,14.5 L18.0,14.5 L18.5,15.0 L18.5,29.0 L18.0,29.5 L13.0,29.5 L12.5,30.0 L12.5,33.0 L13.0,33.5 L29.0,33.5 Z M44.5,33.0 L47.5,30.0 L47.5,29.0 L48.5,28.0 L48.5,26.0 L49.5,25.0 L49.5,18.0 L48.5,17.0 L48.5,14.0 L44.0,9.5 L37.0,9.5 L32.5,14.0 L32.5,17.0 L31.5,18.0 L31.5,25.0 L32.5,26.0 L32.5,29.0 L37.0,33.5 L44.0,33.5 Z M42.0,29.5 L39.0,29.5 L37.5,28.0 L37.5,15.0 L39.0,13.5 L42.0,13.5 L42.5,14.0 L42.5,15.0 L43.5,16.0 L43.5,27.0 L42.5,28.0 L42.5,29.0 Z M35.5,65.0 L36.5,64.0 L36.5,63.0 L38.5,61.0 L38.5,60.0 L43.5,55.0 L43.5,54.0 L38.5,49.0 L38.5,48.0 L36.5,46.0 L36.5,45.0 L35.0,43.5 L34.0,43.5 L32.5,45.0 L32.5,46.0 L30.5,48.0 L30.5,49.0 L25.5,54.0 L25.5,55.0 L30.5,60.0 L30.5,61.0 L32.5,63.0 L32.5,64.0 L33.0,64.5 L34.0,65.5 L35.0,65.5 Z M56.5,78.0 L57.5,77.0 L57.5,76.0 L60.5,73.0 L60.5,72.0 L63.5,69.0 L63.5,68.0 L67.5,64.0 L67.5,63.0 L61.5,57.0 L61.5,56.0 L58.5,53.0 L58.5,52.0 L57.5,51.0 L57.5,50.0 L56.0,48.5 L55.5,49.0 L55.5,50.0 L54.5,51.0 L54.5,52.0 L51.5,55.0 L51.5,56.0 L48.5,59.0 L48.5,60.0 L44.5,64.0 L50.5,70.0 L50.5,71.0 L53.5,74.0 L53.5,75.0 L54.5,76.0 L54.5,77.0 L56.0,78.5 Z M112.5,78.0 L113.5,77.0 L113.5,76.0 L114.5,75.0 L114.5,74.0 L117.5,71.0 L117.5,70.0 L123.5,64.0 L120.5,61.0 L120.5,60.0 L116.5,56.0 L116.5,55.0 L113.5,52.0 L113.5,51.0 L112.5,50.0 L112.5,49.0 L112.0,48.5 L110.5,50.0 L110.5,51.0 L109.5,52.0 L109.5,53.0 L106.5,56.0 L106.5,57.0 L100.5,63.0 L100.5,64.0 L104.5,68.0 L104.5,69.0 L108.5,73.0 L108.5,74.0 L110.5,76.0 L110.5,77.0 L112.0,78.5 Z M56.5,113.0 L57.5,112.0 L57.5,111.0 L59.5,109.0 L59.5,108.0 L62.5,105.0 L62.5,104.0 L67.5,99.0 L67.5,98.0 L62.5,93.0 L62.5,92.0 L59.5,89.0 L59.5,88.0 L57.5,86.0 L57.5,85.0 L56.0,83.5 L55.5,84.0 L55.5,85.0 L53.5,87.0 L53.5,88.0 L50.5,91.0 L50.5,92.0 L45.5,97.0 L45.5,99.0 L47.5,101.0 L47.5,102.0 L51.5,106.0 L51.5,107.0 L53.5,109.0 L53.5,110.0 L55.5,112.0 L55.5,113.0 L56.0,113.5 Z M84.5,113.0 L85.5,112.0 L85.5,111.0 L86.5,110.0 L86.5,109.0 L89.5,106.0 L89.5,105.0 L95.5,99.0 L95.5,98.0 L89.5,92.0 L89.5,91.0 L87.5,89.0 L87.5,88.0 L85.5,86.0 L85.5,85.0 L84.0,83.5 L82.5,85.0 L82.5,86.0 L80.5,88.0 L80.5,89.0 L78.5,91.0 L78.5,92.0 L72.5,98.0 L72.5,99.0 L78.5,105.0 L78.5,106.0 L81.5,109.0 L81.5,110.0 L82.5,111.0 L82.5,112.0 L84.0,113.5 Z M112.5,113.0 L112.5,112.0 L114.5,110.0 L114.5,109.0 L116.5,107.0 L116.5,106.0 L120.5,102.0 L120.5,101.0 L123.5,98.0 L117.5,92.0 L117.5,91.0 L114.5,88.0 L114.5,87.0 L112.5,85.0 L112.5,84.0 L112.0,83.5 L110.5,85.0 L110.5,86.0 L108.5,88.0 L108.5,89.0 L105.5,92.0 L105.5,93.0 L100.5,98.0 L100.5,99.0 L106.5,105.0 L106.5,106.0 L108.5,108.0 L108.5,109.0 L110.5,111.0 L110.5,112.0 L112.0,113.5 Z M56.5,148.0 L57.5,147.0 L57.5,146.0 L58.5,145.0 L58.5,144.0 L60.5,142.0 L60.5,141.0 L65.5,136.0 L65.5,135.0 L67.5,133.0 L64.5,130.0 L64.5,129.0 L60.5,125.0 L60.5,124.0 L58.5,122.0 L58.5,121.0 L56.0,118.5 L54.5,120.0 L54.5,121.0 L52.5,123.0 L52.5,124.0 L49.5,127.0 L49.5,128.0 L44.5,133.0 L49.5,138.0 L49.5,139.0 L52.5,142.0 L52.5,143.0 L54.5,145.0 L54.5,146.0 L55.5,147.0 L55.5,148.0 L56.0,148.5 Z M84.5,148.0 L84.5,147.0 L86.5,145.0 L86.5,144.0 L88.5,142.0 L88.5,141.0 L91.5,138.0 L91.5,137.0 L95.5,133.0 L91.5,129.0 L91.5,128.0 L87.5,124.0 L87.5,123.0 L85.5,121.0 L85.5,120.0 L84.0,118.5 L82.5,120.0 L82.5,121.0 L80.5,123.0 L80.5,124.0 L76.5,128.0 L76.5,129.0 L72.5,133.0 L76.5,137.0 L76.5,138.0 L79.5,141.0 L79.5,142.0 L81.5,144.0 L81.5,145.0 L83.5,147.0 L83.5,148.0 L84.0,148.5 Z M112.5,148.0 L112.5,147.0 L113.5,146.0 L113.5,145.0 L115.5,143.0 L115.5,142.0 L119.5,138.0 L119.5,137.0 L123.5,133.0 L118.5,128.0 L118.5,127.0 L115.5,124.0 L115.5,123.0 L113.5,121.0 L113.5,120.0 L112.0,118.5 L109.5,121.0 L109.5,122.0 L107.5,124.0 L107.5,125.0 L103.5,129.0 L103.5,130.0 L100.5,133.0 L102.5,135.0 L102.5,136.0 L107.5,141.0 L107.5,142.0 L109.5,144.0 L109.5,145.0 L111.5,147.0 L111.5,148.0 L112.0,148.5 Z M56.5,182.0 L57.5,181.0 L57.5,180.0 L60.5,177.0 L60.5,176.0 L63.5,173.0 L63.5,172.0 L67.5,168.0 L67.5,167.0 L61.5,161.0 L61.5,160.0 L58.5,157.0 L58.5,156.0 L57.5,155.0 L57.5,154.0 L56.0,152.5 L55.5,153.0 L55.5,154.0 L54.5,155.0 L54.5,156.0 L51.5,159.0 L51.5,160.0 L48.5,163.0 L48.5,164.0 L44.5,168.0 L50.5,174.0 L50.5,175.0 L53.5,178.0 L53.5,179.0 L54.5,180.0 L54.5,181.0 L56.0,182.5 Z M112.5,182.0 L113.5,181.0 L113.5,180.0 L114.5,179.0 L114.5,178.0 L117.5,175.0 L117.5,174.0 L123.5,168.0 L120.5,165.0 L120.5,164.0 L116.5,160.0 L116.5,159.0 L113.5,156.0 L113.5,155.0 L112.5,154.0 L112.5,153.0 L112.0,152.5 L110.5,154.0 L110.5,155.0 L109.5,156.0 L109.5,157.0 L106.5,160.0 L106.5,161.0 L100.5,167.0 L100.5,168.0 L104.5,172.0 L104.5,173.0 L108.5,177.0 L108.5,178.0 L110.5,180.0 L110.5,181.0 L112.0,182.5 Z M134.5,199.0 L135.5,198.0 L135.5,197.0 L137.5,195.0 L137.5,194.0 L142.5,189.0 L142.5,188.0 L137.5,183.0 L137.5,182.0 L135.5,180.0 L135.5,179.0 L134.0,177.5 L133.0,177.5 L131.5,179.0 L131.5,180.0 L129.5,182.0 L129.5,183.0 L124.5,188.0 L124.5,189.0 L129.5,194.0 L129.5,195.0 L131.5,197.0 L131.5,198.0 L132.0,198.5 L133.0,199.5 L134.0,199.5 Z M131.5,233.0 L135.5,229.0 L135.5,226.0 L136.5,225.0 L136.5,218.0 L135.5,217.0 L135.5,214.0 L131.0,209.5 L124.0,209.5 L120.5,213.0 L120.5,214.0 L119.5,215.0 L119.5,217.0 L118.5,218.0 L118.5,225.0 L119.5,226.0 L119.5,229.0 L124.0,233.5 L131.0,233.5 Z M150.5,233.0 L152.0,231.5 L153.0,231.5 L155.5,229.0 L155.5,226.0 L155.0,225.5 L154.0,226.5 L153.0,226.5 L151.0,228.5 L150.0,228.5 L149.5,228.0 L149.5,214.0 L150.0,213.5 L155.0,213.5 L155.5,213.0 L155.5,210.0 L155.0,209.5 L139.0,209.5 L138.5,210.0 L138.5,213.0 L139.0,213.5 L143.0,213.5 L143.5,214.0 L143.5,233.0 L144.0,233.5 L150.0,233.5 Z M129.0,229.5 L126.0,229.5 L125.5,229.0 L125.5,228.0 L124.5,227.0 L124.5,216.0 L125.5,215.0 L125.5,214.0 L126.0,213.5 L129.0,213.5 L130.5,215.0 L130.5,228.0 Z"/><path fill="#ff0202" fill-rule="evenodd" d="M29.0,33.5 L14.0,33.5 L13.5,33.0 L13.5,31.0 L14.0,30.5 L18.0,30.5 L19.5,29.0 L19.5,14.0 L19.0,13.5 L18.0,13.5 L16.0,15.5 L15.0,15.5 L14.0,16.5 L13.5,16.0 L13.5,13.0 L14.0,12.5 L15.0,12.5 L16.0,11.5 L17.0,11.5 L19.0,9.5 L23.0,9.5 L23.5,10.0 L23.5,30.0 L24.0,30.5 L29.0,30.5 L29.5,31.0 L29.5,33.0 Z M42.0,33.5 L39.0,33.5 L38.0,32.5 L36.0,32.5 L34.5,31.0 L34.5,30.0 L33.5,29.0 L33.5,28.0 L32.5,27.0 L32.5,16.0 L33.5,15.0 L33.5,13.0 L36.0,10.5 L38.0,10.5 L39.0,9.5 L42.0,9.5 L43.0,10.5 L45.0,10.5 L46.5,12.0 L46.5,13.0 L47.5,14.0 L47.5,15.0 L48.5,16.0 L48.5,27.0 L47.5,28.0 L47.5,29.0 L46.5,30.0 L46.5,31.0 L46.0,31.5 L45.0,31.5 L44.0,32.5 L43.0,32.5 Z M42.5,29.0 L43.5,28.0 L43.5,27.0 L44.5,26.0 L44.5,17.0 L43.5,16.0 L43.5,15.0 L42.0,13.5 L39.0,13.5 L37.5,15.0 L37.5,16.0 L36.5,17.0 L36.5,26.0 L37.5,27.0 L37.5,28.0 L39.0,29.5 L42.0,29.5 Z M34.0,65.5 L33.5,65.0 L33.5,64.0 L32.5,63.0 L32.5,62.0 L28.5,58.0 L28.5,57.0 L26.5,55.0 L26.5,54.0 L28.5,52.0 L28.5,51.0 L32.5,47.0 L32.5,46.0 L34.0,44.5 L35.0,44.5 L36.5,46.0 L36.5,47.0 L39.5,50.0 L39.5,51.0 L42.5,54.0 L42.5,55.0 L39.5,58.0 L39.5,59.0 L36.5,62.0 L36.5,63.0 Z M56.0,77.5 L54.5,76.0 L54.5,75.0 L52.5,73.0 L52.5,72.0 L49.5,69.0 L49.5,68.0 L45.5,64.0 L45.5,63.0 L51.5,57.0 L51.5,56.0 L53.5,54.0 L53.5,53.0 L55.5,51.0 L55.5,50.0 L56.0,49.5 L57.5,51.0 L57.5,52.0 L59.5,54.0 L59.5,55.0 L62.5,58.0 L62.5,59.0 L66.5,63.0 L66.5,64.0 L65.5,65.0 L65.5,66.0 L60.5,71.0 L60.5,72.0 L58.5,74.0 L58.5,75.0 Z M112.0,78.5 L111.5,78.0 L111.5,77.0 L109.5,75.0 L109.5,74.0 L107.5,72.0 L107.5,71.0 L101.5,65.0 L101.5,63.0 L105.5,59.0 L105.5,58.0 L108.5,55.0 L108.5,54.0 L110.5,52.0 L110.5,51.0 L112.0,49.5 L112.5,50.0 L112.5,51.0 L114.5,53.0 L114.5,54.0 L117.5,57.0 L117.5,58.0 L122.5,63.0 L122.5,64.0 L118.5,68.0 L118.5,69.0 L115.5,72.0 L115.5,73.0 L113.5,75.0 L113.5,76.0 L112.5,77.0 L112.5,78.0 Z M56.0,112.5 L55.5,112.0 L55.5,111.0 L53.5,109.0 L53.5,108.0 L50.5,105.0 L50.5,104.0 L45.5,99.0 L45.5,98.0 L49.5,94.0 L49.5,93.0 L52.5,90.0 L52.5,89.0 L54.5,87.0 L54.5,86.0 L56.0,84.5 L58.5,87.0 L58.5,88.0 L60.5,90.0 L60.5,91.0 L64.5,95.0 L64.5,96.0 L66.5,98.0 L66.5,99.0 L63.5,102.0 L63.5,103.0 L59.5,107.0 L59.5,108.0 L57.5,110.0 L57.5,111.0 Z M84.0,112.5 L82.5,111.0 L82.5,110.0 L80.5,108.0 L80.5,107.0 L77.5,104.0 L77.5,103.0 L73.5,99.0 L73.5,98.0 L76.5,95.0 L76.5,94.0 L80.5,90.0 L80.5,89.0 L82.5,87.0 L82.5,86.0 L84.0,84.5 L85.5,86.0 L85.5,87.0 L87.5,89.0 L87.5,90.0 L91.5,94.0 L91.5,95.0 L94.5,98.0 L94.5,99.0 L90.5,103.0 L90.5,104.0 L87.5,107.0 L87.5,108.0 L85.5,110.0 L85.5,111.0 Z M112.0,112.5 L110.5,111.0 L110.5,110.0 L108.5,108.0 L108.5,107.0 L104.5,103.0 L104.5,102.0 L101.5,99.0 L101.5,98.0 L103.5,96.0 L103.5,95.0 L107.5,91.0 L107.5,90.0 L109.5,88.0 L109.5,87.0 L112.0,84.5 L113.5,86.0 L113.5,87.0 L115.5,89.0 L115.5,90.0 L118.5,93.0 L118.5,94.0 L122.5,98.0 L122.5,99.0 L117.5,104.0 L117.5,105.0 L114.5,108.0 L114.5,109.0 L112.5,111.0 L112.5,112.0 Z M56.0,147.5 L55.5,147.0 L55.5,146.0 L54.5,145.0 L54.5,144.0 L51.5,141.0 L51.5,140.0 L45.5,134.0 L45.5,133.0 L48.5,130.0 L48.5,129.0 L52.5,125.0 L52.5,124.0 L54.5,122.0 L54.5,121.0 L55.5,120.0 L55.5,119.0 L56.0,118.5 L57.5,120.0 L57.5,121.0 L58.5,122.0 L58.5,123.0 L61.5,126.0 L61.5,127.0 L67.5,133.0 L61.5,139.0 L61.5,140.0 L59.5,142.0 L59.5,143.0 L57.5,145.0 L57.5,146.0 Z M84.0,147.5 L83.5,147.0 L83.5,146.0 L81.5,144.0 L81.5,143.0 L78.5,140.0 L78.5,139.0 L73.5,134.0 L73.5,133.0 L74.5,132.0 L74.5,131.0 L79.5,126.0 L79.5,125.0 L81.5,123.0 L81.5,122.0 L83.5,120.0 L83.5,119.0 L84.0,118.5 L84.5,119.0 L84.5,120.0 L86.5,122.0 L86.5,123.0 L88.5,125.0 L88.5,126.0 L94.5,132.0 L94.5,134.0 L89.5,139.0 L89.5,140.0 L86.5,143.0 L86.5,144.0 L84.5,146.0 L84.5,147.0 Z M112.0,147.5 L110.5,146.0 L110.5,145.0 L109.5,144.0 L109.5,143.0 L106.5,140.0 L106.5,139.0 L101.5,134.0 L101.5,132.0 L106.5,127.0 L106.5,126.0 L109.5,123.0 L109.5,122.0 L111.5,120.0 L111.5,119.0 L112.0,118.5 L112.5,119.0 L112.5,120.0 L113.5,121.0 L113.5,122.0 L115.5,124.0 L115.5,125.0 L120.5,130.0 L120.5,131.0 L122.5,133.0 L120.5,135.0 L120.5,136.0 L116.5,140.0 L116.5,141.0 L113.5,144.0 L113.5,145.0 L112.5,146.0 L112.5,147.0 Z M56.0,181.5 L54.5,180.0 L54.5,179.0 L52.5,177.0 L52.5,176.0 L49.5,173.0 L49.5,172.0 L45.5,168.0 L45.5,167.0 L51.5,161.0 L51.5,160.0 L53.5,158.0 L53.5,157.0 L55.5,155.0 L55.5,154.0 L56.0,153.5 L57.5,155.0 L57.5,156.0 L59.5,158.0 L59.5,159.0 L62.5,162.0 L62.5,163.0 L66.5,167.0 L66.5,168.0 L65.5,169.0 L65.5,170.0 L60.5,175.0 L60.5,176.0 L58.5,178.0 L58.5,179.0 Z M112.0,182.5 L111.5,182.0 L111.5,181.0 L109.5,179.0 L109.5,178.0 L107.5,176.0 L107.5,175.0 L101.5,169.0 L101.5,167.0 L105.5,163.0 L105.5,162.0 L108.5,159.0 L108.5,158.0 L110.5,156.0 L110.5,155.0 L112.0,153.5 L112.5,154.0 L112.5,155.0 L114.5,157.0 L114.5,158.0 L117.5,161.0 L117.5,162.0 L122.5,167.0 L122.5,168.0 L118.5,172.0 L118.5,173.0 L115.5,176.0 L115.5,177.0 L113.5,179.0 L113.5,180.0 L112.5,181.0 L112.5,182.0 Z M134.0,198.5 L133.0,198.5 L131.5,197.0 L131.5,196.0 L128.5,193.0 L128.5,192.0 L125.5,189.0 L125.5,188.0 L128.5,185.0 L128.5,184.0 L131.5,181.0 L131.5,180.0 L134.0,177.5 L134.5,178.0 L134.5,179.0 L135.5,180.0 L135.5,181.0 L139.5,185.0 L139.5,186.0 L141.5,188.0 L141.5,189.0 L139.5,191.0 L139.5,192.0 L135.5,196.0 L135.5,197.0 Z M129.0,233.5 L126.0,233.5 L125.0,232.5 L123.0,232.5 L120.5,230.0 L120.5,228.0 L119.5,227.0 L119.5,216.0 L120.5,215.0 L120.5,214.0 L121.5,213.0 L121.5,212.0 L122.0,211.5 L123.0,211.5 L124.0,210.5 L125.0,210.5 L126.0,209.5 L129.0,209.5 L130.0,210.5 L132.0,210.5 L133.5,212.0 L133.5,213.0 L134.5,214.0 L134.5,215.0 L135.5,216.0 L135.5,227.0 L134.5,228.0 L134.5,230.0 L132.0,232.5 L130.0,232.5 Z M149.0,233.5 L145.0,233.5 L144.5,233.0 L144.5,213.0 L144.0,212.5 L139.0,212.5 L138.5,212.0 L138.5,210.0 L139.0,209.5 L154.0,209.5 L154.5,210.0 L154.5,212.0 L154.0,212.5 L150.0,212.5 L148.5,214.0 L148.5,229.0 L149.0,229.5 L150.0,229.5 L152.0,227.5 L153.0,227.5 L154.0,226.5 L154.5,227.0 L154.5,230.0 L154.0,230.5 L153.0,230.5 L152.0,231.5 L151.0,231.5 Z M129.5,229.0 L130.5,228.0 L130.5,227.0 L131.5,226.0 L131.5,217.0 L130.5,216.0 L130.5,215.0 L129.0,213.5 L126.0,213.5 L124.5,215.0 L124.5,216.0 L123.5,217.0 L123.5,226.0 L124.5,227.0 L124.5,228.0 L126.0,229.5 L129.0,229.5 Z"/><path fill="#ff5f5f" fill-rule="evenodd" d="M13.0,16.5 L12.5,16.0 L12.5,14.0 L13.0,13.5 L13.5,14.0 L13.5,16.0 Z M19.0,29.5 L18.5,29.0 L18.5,15.0 L17.5,14.0 L18.0,13.5 L19.0,13.5 L19.5,14.0 L19.5,29.0 Z M44.0,19.5 L43.5,19.0 L43.5,17.0 L44.0,16.5 L44.5,17.0 L44.5,19.0 Z M32.0,23.5 L31.5,23.0 L31.5,20.0 L32.0,19.5 L32.5,20.0 L32.5,23.0 Z M44.0,26.5 L43.5,26.0 L43.5,24.0 L44.0,23.5 L44.5,24.0 L44.5,26.0 Z M37.0,26.5 L36.5,26.0 L36.5,25.0 L37.0,24.5 L37.5,25.0 L37.5,26.0 Z M18.0,30.5 L14.0,30.5 L13.5,30.0 L14.0,29.5 L18.0,29.5 L18.5,30.0 Z M29.0,30.5 L24.0,30.5 L23.5,30.0 L24.0,29.5 L29.0,29.5 L29.5,30.0 Z M13.0,33.5 L12.5,33.0 L12.5,31.0 L13.0,30.5 L13.5,31.0 L13.5,33.0 Z M35.0,44.5 L34.0,44.5 L33.5,44.0 L34.0,43.5 L35.0,43.5 L35.5,44.0 Z M134.0,199.5 L133.0,199.5 L132.5,199.0 L133.0,198.5 L134.0,198.5 L134.5,199.0 Z M155.0,212.5 L154.5,212.0 L154.5,210.0 L155.0,209.5 L155.5,210.0 L155.5,212.0 Z M144.0,213.5 L139.0,213.5 L138.5,213.0 L139.0,212.5 L144.0,212.5 L144.5,213.0 Z M154.0,213.5 L150.0,213.5 L149.5,213.0 L150.0,212.5 L154.0,212.5 L154.5,213.0 Z M150.0,229.5 L149.0,229.5 L148.5,229.0 L148.5,214.0 L149.0,213.5 L149.5,214.0 L149.5,228.0 L150.5,229.0 Z M124.0,219.5 L123.5,219.0 L123.5,217.0 L124.0,216.5 L124.5,217.0 L124.5,219.0 Z M131.0,218.5 L130.5,218.0 L130.5,217.0 L131.0,216.5 L131.5,217.0 L131.5,218.0 Z M136.0,223.5 L135.5,223.0 L135.5,220.0 L136.0,219.5 L136.5,220.0 L136.5,223.0 Z M124.0,226.5 L123.5,226.0 L123.5,224.0 L124.0,223.5 L124.5,224.0 L124.5,226.0 Z M131.0,226.5 L130.5,226.0 L130.5,225.0 L131.0,224.5 L131.5,225.0 L131.5,226.0 Z M155.0,229.5 L154.5,229.0 L154.5,227.0 L155.0,226.5 L155.5,227.0 L155.5,229.0 Z"/><path fill="#ffa1a1" fill-rule="evenodd" d="M24.0,29.5 L23.5,29.0 L23.5,14.0 L23.5,10.0 L24.0,9.5 L24.5,10.0 L24.5,29.0 Z M32.0,19.5 L31.5,19.0 L31.5,18.0 L32.0,17.5 L32.5,18.0 L32.5,19.0 Z M37.0,24.5 L36.5,24.0 L36.5,18.0 L37.0,17.5 L37.5,18.0 L37.5,24.0 Z M49.0,25.5 L48.5,25.0 L48.5,18.0 L49.0,17.5 L49.5,18.0 L49.5,25.0 Z M44.0,23.5 L43.5,23.0 L43.5,20.0 L44.0,19.5 L44.5,20.0 L44.5,23.0 Z M32.0,25.5 L31.5,25.0 L31.5,24.0 L32.0,23.5 L32.5,24.0 L32.5,25.0 Z M43.0,55.5 L42.5,55.0 L42.5,54.0 L43.0,53.5 L43.5,54.0 L43.5,55.0 Z M73.0,99.5 L72.5,99.0 L72.5,98.0 L73.0,97.5 L73.5,98.0 L73.5,99.0 Z M95.0,99.5 L94.5,99.0 L94.5,98.0 L95.0,97.5 L95.5,98.0 L95.5,99.0 Z M125.0,189.5 L124.5,189.0 L124.5,188.0 L125.0,187.5 L125.5,188.0 L125.5,189.0 Z M144.0,233.5 L143.5,233.0 L143.5,214.0 L144.0,213.5 L144.5,214.0 L144.5,233.0 Z M119.0,225.5 L118.5,225.0 L118.5,218.0 L119.0,217.5 L119.5,218.0 L119.5,225.0 Z M136.0,219.5 L135.5,219.0 L135.5,218.0 L136.0,217.5 L136.5,218.0 L136.5,219.0 Z M131.0,224.5 L130.5,224.0 L130.5,219.0 L131.0,218.5 L131.5,219.0 L131.5,224.0 Z M124.0,223.5 L123.5,223.0 L123.5,220.0 L124.0,219.5 L124.5,220.0 L124.5,223.0 Z M136.0,225.5 L135.5,225.0 L135.5,224.0 L136.0,223.5 L136.5,224.0 L136.5,225.0 Z"/></svg>