<svg xmlns="http://www.w3.org/2000/svg" width="169" height="244" viewBox="0 0 169 244" fill="none">
  
  <rect width="169" height="244" rx="12" fill="white" stroke="#E5E5E5" />
  
  
  <g transform="translate(20, 30)">
    <text font-family="Arial" font-size="24" font-weight="bold" fill="#FF0000">J</text>
    <g transform="translate(8, 14) scale(0.8)">
      <path d="M-7.377,-0.001 L-6.014,-1.545 L-5.131,-2.45 L-4.928,-2.812 L-4.236,-3.537 L-4.028,-3.899 L-3.519,-4.442 L-3.467,-4.623 L-2.954,-5.166 L-2.925,-5.347 L-2.445,-5.89 L-2.395,-6.071 L-2.043,-6.433 L-2.018,-6.614 L-1.675,-6.976 L-1.627,-7.157 L-1.319,-7.519 L-1.298,-7.7 L-0.953,-8.062 L-0.944,-8.243 L-0.77,-8.424 L-0.437,-8.967 L-0.408,-9.148 L-0.238,-9.329 L-0.227,-9.51 L0.045,-9.961 L0.131,-9.872 L0.135,-9.691 L0.398,-9.148 L0.642,-8.786 L0.678,-8.605 L0.859,-8.424 L0.867,-8.243 L1.18,-7.881 L1.222,-7.7 L1.402,-7.519 L1.947,-6.614 L2.284,-6.252 L2.311,-6.071 L2.669,-5.709 L2.71,-5.528 L3.205,-4.985 L3.396,-4.623 L3.753,-4.261 L3.951,-3.899 L4.632,-3.175 L4.844,-2.812 L5.551,-2.088 L5.939,-1.545 L7.376,-0.097 L7.377,0.084 L6.129,1.351 L5.73,1.894 L4.857,2.799 L4.655,3.161 L4.12,3.704 L3.913,4.066 L3.403,4.609 L3.367,4.79 L2.858,5.334 L2.669,5.696 L2.34,6.058 L2.301,6.239 L1.954,6.601 L1.91,6.782 L1.585,7.144 L1.569,7.325 L1.229,7.687 L1.208,7.868 L0.882,8.23 L0.859,8.411 L0.68,8.592 L0.665,8.773 L0.497,8.954 L0.456,9.135 L0.135,9.678 L0.134,9.859 L0.045,9.961 L-0.145,9.678 L-0.252,9.316 L-0.742,8.592 L-0.77,8.411 L-0.95,8.23 L-0.977,8.049 L-1.311,7.687 L-1.33,7.506 L-1.659,7.144 L-1.679,6.963 L-2.032,6.601 L-2.055,6.42 L-2.399,6.058 L-2.582,5.696 L-2.937,5.334 L-2.997,5.152 L-3.484,4.609 L-3.667,4.247 L-4.201,3.704 L-4.398,3.342 L-4.934,2.799 L-5.308,2.256 L-7.377,0.137 Z" fill="red" />
    </g>
  </g>
  
  
  <g transform="translate(149, 214) rotate(180)">
    <text font-family="Arial" font-size="24" font-weight="bold" fill="#FF0000">J</text>
    <g transform="translate(8, 14) scale(0.8)">
      <path d="M-7.377,-0.001 L-6.014,-1.545 L-5.131,-2.45 L-4.928,-2.812 L-4.236,-3.537 L-4.028,-3.899 L-3.519,-4.442 L-3.467,-4.623 L-2.954,-5.166 L-2.925,-5.347 L-2.445,-5.89 L-2.395,-6.071 L-2.043,-6.433 L-2.018,-6.614 L-1.675,-6.976 L-1.627,-7.157 L-1.319,-7.519 L-1.298,-7.7 L-0.953,-8.062 L-0.944,-8.243 L-0.77,-8.424 L-0.437,-8.967 L-0.408,-9.148 L-0.238,-9.329 L-0.227,-9.51 L0.045,-9.961 L0.131,-9.872 L0.135,-9.691 L0.398,-9.148 L0.642,-8.786 L0.678,-8.605 L0.859,-8.424 L0.867,-8.243 L1.18,-7.881 L1.222,-7.7 L1.402,-7.519 L1.947,-6.614 L2.284,-6.252 L2.311,-6.071 L2.669,-5.709 L2.71,-5.528 L3.205,-4.985 L3.396,-4.623 L3.753,-4.261 L3.951,-3.899 L4.632,-3.175 L4.844,-2.812 L5.551,-2.088 L5.939,-1.545 L7.376,-0.097 L7.377,0.084 L6.129,1.351 L5.73,1.894 L4.857,2.799 L4.655,3.161 L4.12,3.704 L3.913,4.066 L3.403,4.609 L3.367,4.79 L2.858,5.334 L2.669,5.696 L2.34,6.058 L2.301,6.239 L1.954,6.601 L1.91,6.782 L1.585,7.144 L1.569,7.325 L1.229,7.687 L1.208,7.868 L0.882,8.23 L0.859,8.411 L0.68,8.592 L0.665,8.773 L0.497,8.954 L0.456,9.135 L0.135,9.678 L0.134,9.859 L0.045,9.961 L-0.145,9.678 L-0.252,9.316 L-0.742,8.592 L-0.77,8.411 L-0.95,8.23 L-0.977,8.049 L-1.311,7.687 L-1.33,7.506 L-1.659,7.144 L-1.679,6.963 L-2.032,6.601 L-2.055,6.42 L-2.399,6.058 L-2.582,5.696 L-2.937,5.334 L-2.997,5.152 L-3.484,4.609 L-3.667,4.247 L-4.201,3.704 L-4.398,3.342 L-4.934,2.799 L-5.308,2.256 L-7.377,0.137 Z" fill="red" />
    </g>
  </g>
  
  
  <g transform="translate(84.5, 122)">
    
        <g transform="translate(-100, 75) scale(0.01, 0.01)">
          
            <g transform="translate(0, 2048) scale(1, -1)" fill="#FF0000" stroke="none">
              <path d="M10260 16269 c0 -769 -10 -5562 -15 -7303 -4 -1347 -7 -1691 -17               -1698 -33 -22 -536 39 -848 103 -924 190 -1955 642 -2666 1170 -95 69 -136 84               -148 53 -4 -9 0 -26 7 -38 7 -12 21 -41 31 -66 10 -25 42 -81 71 -125 319               -481 1413 -1137 2493 -1494 390 -129 795 -217 1004 -216 l68 0 0 -1447 c0               -1374 1 -1447 18 -1441 62 23 620 379 872 556 782 549 1526 1222 2131 1927               1755 2045 2490 4467 1978 6512 -184 736 -508 1376 -993 1963 -129 156 -467               494 -626 625 -648 536 -1384 912 -2260 1155 -326 90 -787 179 -992 191 l-108               7 0 -434z m2445 -4179 c491 -45 935 -260 1254 -606 90 -98 117 -140 101 -159               -18 -22 -38 -18 -74 13 -87 76 -334 176 -561 227 -307 69 -559 89 -999 82               -419 -7 -750 -42 -1114 -119 -186 -39 -206 -40 -210 -11 -2 16 15 37 74 87               417 356 983 536 1529 486z m1199 -3486 c14 -14 14 -19 3 -42 -8 -15 -29 -58               -47 -97 -47 -102 -110 -186 -230 -305 -669 -669 -2288 -1418 -3244 -1500 -87               -8 -122 -7 -132 1 -11 9 -14 69 -14 308 l0 296 93 3 c201 6 589 62 877 127               887 201 1804 608 2510 1113 112 81 145 103 167 111 1 1 9 -6 17 -15z" />
              <path d="M7668 12089 c-379 -33 -771 -194 -1058 -434 -103 -87 -290 -283 -290               -306 0 -40 48 -54 72 -21 7 10 45 37 83 60 191 113 505 199 890 244 177 21               858 18 1065 -5 234 -26 482 -63 650 -99 184 -39 204 -40 208 -11 2 16 -15 37               -74 87 -421 359 -983 536 -1546 485z" />
            </g>
        </g>
      
  </g>
</svg>