<svg xmlns="http://www.w3.org/2000/svg" width="169" height="244" viewBox="0 0 169 244" fill="none">
  
  <rect width="169" height="244" rx="12" fill="white" stroke="#E5E5E5" />
  
  
  <g transform="translate(84.5 122) scale(1.07) translate(-84.5 -122)"><g transform="translate(20, 30)">
    <text font-family="Arial" font-size="24" font-weight="bold" fill="#FF0000">Q</text>
    <g transform="translate(8, 14) scale(0.8)">
      <path d="M-7.377,-0.001 L-6.014,-1.545 L-5.131,-2.45 L-4.928,-2.812 L-4.236,-3.537 L-4.028,-3.899 L-3.519,-4.442 L-3.467,-4.623 L-2.954,-5.166 L-2.925,-5.347 L-2.445,-5.89 L-2.395,-6.071 L-2.043,-6.433 L-2.018,-6.614 L-1.675,-6.976 L-1.627,-7.157 L-1.319,-7.519 L-1.298,-7.7 L-0.953,-8.062 L-0.944,-8.243 L-0.77,-8.424 L-0.437,-8.967 L-0.408,-9.148 L-0.238,-9.329 L-0.227,-9.51 L0.045,-9.961 L0.131,-9.872 L0.135,-9.691 L0.398,-9.148 L0.642,-8.786 L0.678,-8.605 L0.859,-8.424 L0.867,-8.243 L1.18,-7.881 L1.222,-7.7 L1.402,-7.519 L1.947,-6.614 L2.284,-6.252 L2.311,-6.071 L2.669,-5.709 L2.71,-5.528 L3.205,-4.985 L3.396,-4.623 L3.753,-4.261 L3.951,-3.899 L4.632,-3.175 L4.844,-2.812 L5.551,-2.088 L5.939,-1.545 L7.376,-0.097 L7.377,0.084 L6.129,1.351 L5.73,1.894 L4.857,2.799 L4.655,3.161 L4.12,3.704 L3.913,4.066 L3.403,4.609 L3.367,4.79 L2.858,5.334 L2.669,5.696 L2.34,6.058 L2.301,6.239 L1.954,6.601 L1.91,6.782 L1.585,7.144 L1.569,7.325 L1.229,7.687 L1.208,7.868 L0.882,8.23 L0.859,8.411 L0.68,8.592 L0.665,8.773 L0.497,8.954 L0.456,9.135 L0.135,9.678 L0.134,9.859 L0.045,9.961 L-0.145,9.678 L-0.252,9.316 L-0.742,8.592 L-0.77,8.411 L-0.95,8.23 L-0.977,8.049 L-1.311,7.687 L-1.33,7.506 L-1.659,7.144 L-1.679,6.963 L-2.032,6.601 L-2.055,6.42 L-2.399,6.058 L-2.582,5.696 L-2.937,5.334 L-2.997,5.152 L-3.484,4.609 L-3.667,4.247 L-4.201,3.704 L-4.398,3.342 L-4.934,2.799 L-5.308,2.256 L-7.377,0.137 Z" fill="red" />
    </g>
  </g>
  
  
  <g transform="translate(149, 214) rotate(180)">
    <text font-family="Arial" font-size="24" font-weight="bold" fill="#FF0000">Q</text>
    <g transform="translate(8, 14) scale(0.8)">
      <path d="M-7.377,-0.001 L-6.014,-1.545 L-5.131,-2.45 L-4.928,-2.812 L-4.236,-3.537 L-4.028,-3.899 L-3.519,-4.442 L-3.467,-4.623 L-2.954,-5.166 L-2.925,-5.347 L-2.445,-5.89 L-2.395,-6.071 L-2.043,-6.433 L-2.018,-6.614 L-1.675,-6.976 L-1.627,-7.157 L-1.319,-7.519 L-1.298,-7.7 L-0.953,-8.062 L-0.944,-8.243 L-0.77,-8.424 L-0.437,-8.967 L-0.408,-9.148 L-0.238,-9.329 L-0.227,-9.51 L0.045,-9.961 L0.131,-9.872 L0.135,-9.691 L0.398,-9.148 L0.642,-8.786 L0.678,-8.605 L0.859,-8.424 L0.867,-8.243 L1.18,-7.881 L1.222,-7.7 L1.402,-7.519 L1.947,-6.614 L2.284,-6.252 L2.311,-6.071 L2.669,-5.709 L2.71,-5.528 L3.205,-4.985 L3.396,-4.623 L3.753,-4.261 L3.951,-3.899 L4.632,-3.175 L4.844,-2.812 L5.551,-2.088 L5.939,-1.545 L7.376,-0.097 L7.377,0.084 L6.129,1.351 L5.73,1.894 L4.857,2.799 L4.655,3.161 L4.12,3.704 L3.913,4.066 L3.403,4.609 L3.367,4.79 L2.858,5.334 L2.669,5.696 L2.34,6.058 L2.301,6.239 L1.954,6.601 L1.91,6.782 L1.585,7.144 L1.569,7.325 L1.229,7.687 L1.208,7.868 L0.882,8.23 L0.859,8.411 L0.68,8.592 L0.665,8.773 L0.497,8.954 L0.456,9.135 L0.135,9.678 L0.134,9.859 L0.045,9.961 L-0.145,9.678 L-0.252,9.316 L-0.742,8.592 L-0.77,8.411 L-0.95,8.23 L-0.977,8.049 L-1.311,7.687 L-1.33,7.506 L-1.659,7.144 L-1.679,6.963 L-2.032,6.601 L-2.055,6.42 L-2.399,6.058 L-2.582,5.696 L-2.937,5.334 L-2.997,5.152 L-3.484,4.609 L-3.667,4.247 L-4.201,3.704 L-4.398,3.342 L-4.934,2.799 L-5.308,2.256 L-7.377,0.137 Z" fill="red" />
    </g>
  </g>
  
  
  <g transform="translate(84.5, 122)">
    
        
        <g>
        <g>
      
        <g>
          <path d="M-16 -68 L-10 -56 L-4 -62 L0 -52 L4 -62 L10 -56 L16 -68 L16 -50 L-16 -50 Z" fill="#FFD700" stroke="#000000" stroke-width="1.2" />
          <path d="M-16 -52 L16 -52 L12 -46 L0 -44 L-12 -46 Z" fill="#FFD700" stroke="#000000" stroke-width="1.2" />
          <circle cx="0" cy="-56" r="3.2" fill="#C21924" stroke="#000000" stroke-width="1" />
          <circle cx="-9" cy="-56" r="2.1" fill="#1E5AA8" stroke="#000000" stroke-width="0.9" />
          <circle cx="9" cy="-56" r="2.1" fill="#1E5AA8" stroke="#000000" stroke-width="0.9" />
        </g>
        
      
        <g>
          <path d="M-18 -44 Q-16 -64 -4 -60 Q0 -66 4 -60 Q16 -64 18 -44                    Q14 -54 7 -52 Q2 -50 0 -54 Q-2 -50 -7 -52 Q-14 -54 -18 -44 Z" fill="#1F1F1F" stroke="#000000" stroke-width="1.2" />
          <path d="M-18 -42 Q-24 -28 -18 -14 Q-10 -10 -8 -18 Q-12 -26 -10 -34 Z" fill="#1F1F1F" stroke="#000000" stroke-width="1.1" />
          <path d="M18 -42 Q24 -28 18 -14 Q10 -10 8 -18 Q12 -26 10 -34 Z" fill="#1F1F1F" stroke="#000000" stroke-width="1.1" />
        </g>
        
      <ellipse cx="0" cy="-34" rx="16.5" ry="18.5" fill="#FFE4B5" stroke="#000000" stroke-width="1.2" />
      
      <circle cx="-9" cy="-30" r="2.4" fill="#C21924" opacity="0.35" />
      <circle cx="9" cy="-30" r="2.4" fill="#C21924" opacity="0.35" />
    
      
      <circle cx="-6.2" cy="-40" r="1.7" fill="#000000" />
      <circle cx="6.2" cy="-40" r="1.7" fill="#000000" />
      <path d="M-10 -44 Q-6 -46 -2 -44" stroke="#000000" stroke-width="1.2" fill="none" stroke-linecap="round" />
      <path d="M2 -44 Q6 -46 10 -44" stroke="#000000" stroke-width="1.2" fill="none" stroke-linecap="round" />
    
      <path d="M0 -38 Q2 -34 0 -30" stroke="#000000" stroke-width="1.2" fill="none" stroke-linecap="round" />
      <path d="M-5 -22 Q0 -19 5 -22" stroke="#000000" stroke-width="1.2" fill="none" stroke-linecap="round" />
      
      
      
      <path d="M-20 -18 L0 -6 L20 -18 L12 -2 L0 3 L-12 -2 Z" fill="#FFFFFF" stroke="#000000" stroke-width="1.2" />
    
      
      <path d="M-30 8 Q0 32 30 8 Q22 -16 0 -28 Q-22 -16 -30 8 Z" fill="#1E5AA8" stroke="#000000" stroke-width="1.2" opacity="0.95" />
    
      
      <path d="M-26 8 Q0 28 26 8 Q18 -8 0 -14 Q-18 -8 -26 8 Z" fill="#FF69B4" stroke="#000000" stroke-width="1.3" />
    
      
      <path d="M-24 7 Q0 24 24 7" stroke="#FFD700" stroke-width="3.2" stroke-linecap="round" />
      <path d="M-18 2 L0 14 L18 2" stroke="#FFD700" stroke-width="2.4" stroke-linecap="round" opacity="0.9" />
      <circle cx="0" cy="-8" r="4.4" fill="#FFD700" stroke="#000000" stroke-width="1.1" />
      <circle cx="0" cy="-8" r="1.8" fill="#C21924" stroke="#000000" stroke-width="0.8" />
    
      
      <g opacity="0.9">
        <circle cx="-12" cy="10" r="2.4" fill="#FFD700" opacity="0.55" />
        <circle cx="0" cy="14" r="2.4" fill="#FFD700" opacity="0.55" />
        <circle cx="12" cy="10" r="2.4" fill="#FFD700" opacity="0.55" />
      </g>
    
      
        <g>
          <path d="M26 -60 Q34 -50 26 -40 Q18 -50 26 -60 Z" fill="#C21924" stroke="#000000" stroke-width="1.1" />
          <circle cx="26" cy="-50" r="2.4" fill="#FFD700" stroke="#000000" stroke-width="1" />
          <path d="M26 -40 L26 -8" stroke="#FFD700" stroke-width="4" stroke-linecap="round" />
          <circle cx="26" cy="-8" r="5" fill="#FFD700" stroke="#000000" stroke-width="1.2" />
        </g>
        
      
    </g>
        <g transform="rotate(180)">
      
        <g>
          <path d="M-16 -68 L-10 -56 L-4 -62 L0 -52 L4 -62 L10 -56 L16 -68 L16 -50 L-16 -50 Z" fill="#FFD700" stroke="#000000" stroke-width="1.2" />
          <path d="M-16 -52 L16 -52 L12 -46 L0 -44 L-12 -46 Z" fill="#FFD700" stroke="#000000" stroke-width="1.2" />
          <circle cx="0" cy="-56" r="3.2" fill="#C21924" stroke="#000000" stroke-width="1" />
          <circle cx="-9" cy="-56" r="2.1" fill="#1E5AA8" stroke="#000000" stroke-width="0.9" />
          <circle cx="9" cy="-56" r="2.1" fill="#1E5AA8" stroke="#000000" stroke-width="0.9" />
        </g>
        
      
        <g>
          <path d="M-18 -44 Q-16 -64 -4 -60 Q0 -66 4 -60 Q16 -64 18 -44                    Q14 -54 7 -52 Q2 -50 0 -54 Q-2 -50 -7 -52 Q-14 -54 -18 -44 Z" fill="#1F1F1F" stroke="#000000" stroke-width="1.2" />
          <path d="M-18 -42 Q-24 -28 -18 -14 Q-10 -10 -8 -18 Q-12 -26 -10 -34 Z" fill="#1F1F1F" stroke="#000000" stroke-width="1.1" />
          <path d="M18 -42 Q24 -28 18 -14 Q10 -10 8 -18 Q12 -26 10 -34 Z" fill="#1F1F1F" stroke="#000000" stroke-width="1.1" />
        </g>
        
      <ellipse cx="0" cy="-34" rx="16.5" ry="18.5" fill="#FFE4B5" stroke="#000000" stroke-width="1.2" />
      
      <circle cx="-9" cy="-30" r="2.4" fill="#C21924" opacity="0.35" />
      <circle cx="9" cy="-30" r="2.4" fill="#C21924" opacity="0.35" />
    
      
      <circle cx="-6.2" cy="-40" r="1.7" fill="#000000" />
      <circle cx="6.2" cy="-40" r="1.7" fill="#000000" />
      <path d="M-10 -44 Q-6 -46 -2 -44" stroke="#000000" stroke-width="1.2" fill="none" stroke-linecap="round" />
      <path d="M2 -44 Q6 -46 10 -44" stroke="#000000" stroke-width="1.2" fill="none" stroke-linecap="round" />
    
      <path d="M0 -38 Q2 -34 0 -30" stroke="#000000" stroke-width="1.2" fill="none" stroke-linecap="round" />
      <path d="M-5 -22 Q0 -19 5 -22" stroke="#000000" stroke-width="1.2" fill="none" stroke-linecap="round" />
      
      
      
      <path d="M-20 -18 L0 -6 L20 -18 L12 -2 L0 3 L-12 -2 Z" fill="#FFFFFF" stroke="#000000" stroke-width="1.2" />
    
      
      <path d="M-30 8 Q0 32 30 8 Q22 -16 0 -28 Q-22 -16 -30 8 Z" fill="#1E5AA8" stroke="#000000" stroke-width="1.2" opacity="0.95" />
    
      
      <path d="M-26 8 Q0 28 26 8 Q18 -8 0 -14 Q-18 -8 -26 8 Z" fill="#FF69B4" stroke="#000000" stroke-width="1.3" />
    
      
      <path d="M-24 7 Q0 24 24 7" stroke="#FFD700" stroke-width="3.2" stroke-linecap="round" />
      <path d="M-18 2 L0 14 L18 2" stroke="#FFD700" stroke-width="2.4" stroke-linecap="round" opacity="0.9" />
      <circle cx="0" cy="-8" r="4.4" fill="#FFD700" stroke="#000000" stroke-width="1.1" />
      <circle cx="0" cy="-8" r="1.8" fill="#C21924" stroke="#000000" stroke-width="0.8" />
    
      
      <g opacity="0.9">
        <circle cx="-12" cy="10" r="2.4" fill="#FFD700" opacity="0.55" />
        <circle cx="0" cy="14" r="2.4" fill="#FFD700" opacity="0.55" />
        <circle cx="12" cy="10" r="2.4" fill="#FFD700" opacity="0.55" />
      </g>
    
      
        <g>
          <path d="M26 -60 Q34 -50 26 -40 Q18 -50 26 -60 Z" fill="#C21924" stroke="#000000" stroke-width="1.1" />
          <circle cx="26" cy="-50" r="2.4" fill="#FFD700" stroke="#000000" stroke-width="1" />
          <path d="M26 -40 L26 -8" stroke="#FFD700" stroke-width="4" stroke-linecap="round" />
          <circle cx="26" cy="-8" r="5" fill="#FFD700" stroke="#000000" stroke-width="1.2" />
        </g>
        
      
    </g>
        <rect x="-32" y="-2.5" width="64" height="5" rx="1.5" fill="#F7F7F7" stroke="#000000" stroke-width="1" opacity="0.92" />
      </g>
    </g>
</g></svg>