<?xml version="1.0" encoding="UTF-8"?><svg xmlns="http://www.w3.org/2000/svg" width="169" height="244" viewBox="0 0 169 244" shape-rendering="geometricPrecision"><path fill="#fefefe" fill-rule="evenodd" d="M160.0,243.5 L8.0,243.5 L7.0,242.5 L6.0,242.5 L0.5,237.0 L0.5,236.0 L-0.5,235.0 L-0.5,8.0 L0.5,7.0 L0.5,6.0 L1.5,5.0 L1.5,4.0 L4.0,1.5 L5.0,1.5 L6.0,0.5 L7.0,0.5 L8.0,-0.5 L160.0,-0.5 L161.0,0.5 L162.0,0.5 L167.5,6.0 L167.5,7.0 L168.5,8.0 L168.5,235.0 L167.5,236.0 L167.5,237.0 L166.5,238.0 L166.5,239.0 L164.0,241.5 L163.0,241.5 L162.0,242.5 L161.0,242.5 Z M36.5,33.0 L37.0,32.5 L38.0,32.5 L39.0,31.5 L40.5,30.0 L40.5,29.0 L41.5,28.0 L41.5,22.0 L37.0,17.5 L31.0,17.5 L30.0,18.5 L29.5,18.0 L29.5,14.0 L30.0,13.5 L40.0,13.5 L40.5,13.0 L40.5,10.0 L40.0,9.5 L25.0,9.5 L24.5,10.0 L24.5,23.0 L25.0,23.5 L29.0,23.5 L31.0,21.5 L34.0,21.5 L35.5,23.0 L35.5,24.0 L36.5,25.0 L36.5,26.0 L35.5,27.0 L35.5,28.0 L34.0,29.5 L31.0,29.5 L28.0,26.5 L24.0,26.5 L23.5,27.0 L23.5,29.0 L27.0,32.5 L28.0,32.5 L29.0,33.5 L36.0,33.5 Z M35.5,65.0 L36.5,64.0 L36.5,63.0 L38.5,61.0 L38.5,60.0 L43.5,55.0 L43.5,54.0 L38.5,49.0 L38.5,48.0 L36.5,46.0 L36.5,45.0 L35.0,43.5 L34.0,43.5 L32.5,45.0 L32.5,46.0 L30.5,48.0 L30.5,49.0 L25.5,54.0 L25.5,55.0 L30.5,60.0 L30.5,61.0 L32.5,63.0 L32.5,64.0 L33.0,64.5 L34.0,65.5 L35.0,65.5 Z M56.5,83.0 L57.5,82.0 L57.5,81.0 L58.5,80.0 L58.5,79.0 L60.5,77.0 L60.5,76.0 L63.5,73.0 L63.5,72.0 L69.5,66.0 L69.5,65.0 L65.5,61.0 L65.5,60.0 L61.5,56.0 L61.5,55.0 L59.5,53.0 L59.5,52.0 L57.5,50.0 L57.5,49.0 L56.0,47.5 L55.5,48.0 L55.5,49.0 L53.5,51.0 L53.5,52.0 L51.5,54.0 L51.5,55.0 L48.5,58.0 L48.5,59.0 L42.5,65.0 L43.5,66.0 L43.5,67.0 L49.5,73.0 L49.5,74.0 L52.5,77.0 L52.5,78.0 L54.5,80.0 L54.5,81.0 L55.5,82.0 L55.5,83.0 L56.0,83.5 Z M112.5,83.0 L112.5,82.0 L113.5,81.0 L113.5,80.0 L115.5,78.0 L115.5,77.0 L118.5,74.0 L118.5,73.0 L122.5,69.0 L122.5,68.0 L125.5,65.0 L119.5,59.0 L119.5,58.0 L116.5,55.0 L116.5,54.0 L114.5,52.0 L114.5,51.0 L112.5,49.0 L112.5,48.0 L112.0,47.5 L110.5,49.0 L110.5,50.0 L108.5,52.0 L108.5,53.0 L106.5,55.0 L106.5,56.0 L102.5,60.0 L102.5,61.0 L98.5,65.0 L98.5,66.0 L104.5,72.0 L104.5,73.0 L107.5,76.0 L107.5,77.0 L109.5,79.0 L109.5,80.0 L111.5,82.0 L111.5,83.0 L112.0,83.5 Z M84.5,128.0 L84.5,127.0 L85.5,126.0 L85.5,125.0 L87.5,123.0 L87.5,122.0 L90.5,119.0 L90.5,118.0 L97.5,111.0 L97.5,110.0 L92.5,105.0 L92.5,104.0 L89.5,101.0 L89.5,100.0 L86.5,97.0 L86.5,96.0 L85.5,95.0 L85.5,94.0 L84.0,92.5 L82.5,94.0 L82.5,95.0 L81.5,96.0 L81.5,97.0 L78.5,100.0 L78.5,101.0 L75.5,104.0 L75.5,105.0 L70.5,110.0 L70.5,111.0 L77.5,118.0 L77.5,119.0 L80.5,122.0 L80.5,123.0 L82.5,125.0 L82.5,126.0 L83.5,127.0 L83.5,128.0 L84.0,128.5 Z M56.5,184.0 L57.5,183.0 L57.5,182.0 L58.5,181.0 L58.5,180.0 L61.5,177.0 L61.5,176.0 L64.5,173.0 L64.5,172.0 L69.5,167.0 L69.5,166.0 L64.5,161.0 L64.5,160.0 L61.5,157.0 L61.5,156.0 L59.5,154.0 L59.5,153.0 L57.5,151.0 L57.5,150.0 L56.0,148.5 L55.5,149.0 L55.5,150.0 L54.5,151.0 L54.5,152.0 L52.5,154.0 L52.5,155.0 L49.5,158.0 L49.5,159.0 L42.5,166.0 L42.5,167.0 L49.5,174.0 L49.5,175.0 L52.5,178.0 L52.5,179.0 L54.5,181.0 L54.5,182.0 L55.5,183.0 L55.5,184.0 L56.0,184.5 Z M112.5,184.0 L112.5,183.0 L113.5,182.0 L113.5,181.0 L115.5,179.0 L115.5,178.0 L118.5,175.0 L118.5,174.0 L125.5,167.0 L125.5,166.0 L118.5,159.0 L118.5,158.0 L116.5,156.0 L116.5,155.0 L113.5,152.0 L113.5,151.0 L112.5,150.0 L112.5,149.0 L112.0,148.5 L110.5,150.0 L110.5,151.0 L109.5,152.0 L109.5,153.0 L106.5,156.0 L106.5,157.0 L103.5,160.0 L103.5,161.0 L98.5,166.0 L98.5,167.0 L103.5,172.0 L103.5,173.0 L107.5,177.0 L107.5,178.0 L109.5,180.0 L109.5,181.0 L110.5,182.0 L110.5,183.0 L112.0,184.5 Z M134.5,199.0 L135.5,198.0 L135.5,197.0 L137.5,195.0 L137.5,194.0 L142.5,189.0 L142.5,188.0 L137.5,183.0 L137.5,182.0 L135.5,180.0 L135.5,179.0 L134.0,177.5 L133.0,177.5 L131.5,179.0 L131.5,180.0 L129.5,182.0 L129.5,183.0 L124.5,188.0 L124.5,189.0 L129.5,194.0 L129.5,195.0 L131.5,197.0 L131.5,198.0 L132.0,198.5 L133.0,199.5 L134.0,199.5 Z M143.5,233.0 L143.5,220.0 L143.0,219.5 L139.0,219.5 L137.0,221.5 L134.0,221.5 L132.5,220.0 L132.5,219.0 L131.5,218.0 L131.5,217.0 L132.5,216.0 L132.5,215.0 L134.0,213.5 L137.0,213.5 L140.0,216.5 L144.0,216.5 L144.5,216.0 L144.5,214.0 L141.0,210.5 L140.0,210.5 L139.0,209.5 L132.0,209.5 L131.0,210.5 L130.0,210.5 L127.5,213.0 L127.5,214.0 L126.5,215.0 L126.5,221.0 L131.0,225.5 L137.0,225.5 L138.0,224.5 L138.5,225.0 L138.5,229.0 L138.0,229.5 L128.0,229.5 L127.5,230.0 L127.5,233.0 L128.0,233.5 L143.0,233.5 Z"/><path fill="#ff0202" fill-rule="evenodd" d="M34.0,33.5 L30.0,33.5 L29.0,32.5 L27.0,32.5 L24.5,30.0 L24.5,28.0 L25.0,27.5 L28.0,27.5 L30.0,29.5 L35.0,29.5 L35.5,29.0 L35.5,28.0 L36.5,27.0 L36.5,24.0 L35.5,23.0 L35.5,22.0 L35.0,21.5 L30.0,21.5 L29.0,22.5 L25.0,22.5 L24.5,22.0 L24.5,17.0 L25.5,16.0 L25.5,10.0 L26.0,9.5 L39.0,9.5 L39.5,10.0 L39.5,12.0 L39.0,12.5 L30.0,12.5 L29.5,13.0 L29.5,18.0 L30.0,18.5 L31.0,18.5 L32.0,17.5 L35.0,17.5 L36.0,18.5 L38.0,18.5 L40.5,21.0 L40.5,23.0 L41.5,24.0 L41.5,27.0 L40.5,28.0 L40.5,29.0 L39.5,30.0 L39.5,31.0 L39.0,31.5 L38.0,31.5 L37.0,32.5 L35.0,32.5 Z M34.0,65.5 L33.5,65.0 L33.5,64.0 L32.5,63.0 L32.5,62.0 L28.5,58.0 L28.5,57.0 L26.5,55.0 L26.5,54.0 L28.5,52.0 L28.5,51.0 L32.5,47.0 L32.5,46.0 L34.0,44.5 L35.0,44.5 L36.5,46.0 L36.5,47.0 L39.5,50.0 L39.5,51.0 L42.5,54.0 L42.5,55.0 L39.5,58.0 L39.5,59.0 L36.5,62.0 L36.5,63.0 Z M56.0,82.5 L55.5,82.0 L55.5,81.0 L54.5,80.0 L54.5,79.0 L51.5,76.0 L51.5,75.0 L48.5,72.0 L48.5,71.0 L43.5,66.0 L43.5,65.0 L47.5,61.0 L47.5,60.0 L51.5,56.0 L51.5,55.0 L53.5,53.0 L53.5,52.0 L55.5,50.0 L55.5,49.0 L56.0,48.5 L57.5,50.0 L57.5,51.0 L59.5,53.0 L59.5,54.0 L62.5,57.0 L62.5,58.0 L69.5,65.0 L65.5,69.0 L65.5,70.0 L61.5,74.0 L61.5,75.0 L58.5,78.0 L58.5,79.0 L57.5,80.0 L57.5,81.0 Z M112.0,82.5 L110.5,81.0 L110.5,80.0 L109.5,79.0 L109.5,78.0 L106.5,75.0 L106.5,74.0 L102.5,70.0 L102.5,69.0 L99.5,66.0 L99.5,64.0 L105.5,58.0 L105.5,57.0 L108.5,54.0 L108.5,53.0 L110.5,51.0 L110.5,50.0 L112.0,48.5 L112.5,49.0 L112.5,50.0 L114.5,52.0 L114.5,53.0 L117.5,56.0 L117.5,57.0 L120.5,60.0 L120.5,61.0 L124.5,65.0 L124.5,66.0 L119.5,71.0 L119.5,72.0 L116.5,75.0 L116.5,76.0 L113.5,79.0 L113.5,80.0 L112.5,81.0 L112.5,82.0 Z M84.0,127.5 L83.5,127.0 L83.5,126.0 L81.5,124.0 L81.5,123.0 L79.5,121.0 L79.5,120.0 L76.5,117.0 L76.5,116.0 L71.5,111.0 L71.5,110.0 L72.5,109.0 L72.5,108.0 L78.5,102.0 L78.5,101.0 L80.5,99.0 L80.5,98.0 L82.5,96.0 L82.5,95.0 L84.0,93.5 L85.5,95.0 L85.5,96.0 L87.5,98.0 L87.5,99.0 L89.5,101.0 L89.5,102.0 L94.5,107.0 L94.5,108.0 L96.5,110.0 L96.5,111.0 L92.5,115.0 L92.5,116.0 L88.5,120.0 L88.5,121.0 L86.5,123.0 L86.5,124.0 L84.5,126.0 L84.5,127.0 Z M56.0,183.5 L55.5,183.0 L55.5,182.0 L53.5,180.0 L53.5,179.0 L51.5,177.0 L51.5,176.0 L48.5,173.0 L48.5,172.0 L43.5,167.0 L43.5,166.0 L47.5,162.0 L47.5,161.0 L51.5,157.0 L51.5,156.0 L53.5,154.0 L53.5,153.0 L55.5,151.0 L55.5,150.0 L56.0,149.5 L57.5,151.0 L57.5,152.0 L59.5,154.0 L59.5,155.0 L62.5,158.0 L62.5,159.0 L66.5,163.0 L66.5,164.0 L68.5,166.0 L68.5,167.0 L66.5,169.0 L66.5,170.0 L61.5,175.0 L61.5,176.0 L59.5,178.0 L59.5,179.0 L57.5,181.0 L57.5,182.0 Z M112.0,183.5 L110.5,182.0 L110.5,181.0 L108.5,179.0 L108.5,178.0 L106.5,176.0 L106.5,175.0 L102.5,171.0 L102.5,170.0 L99.5,167.0 L99.5,166.0 L100.5,165.0 L100.5,164.0 L105.5,159.0 L105.5,158.0 L108.5,155.0 L108.5,154.0 L110.5,152.0 L110.5,151.0 L112.0,149.5 L112.5,150.0 L112.5,151.0 L114.5,153.0 L114.5,154.0 L116.5,156.0 L116.5,157.0 L120.5,161.0 L120.5,162.0 L124.5,166.0 L124.5,167.0 L120.5,171.0 L120.5,172.0 L116.5,176.0 L116.5,177.0 L114.5,179.0 L114.5,180.0 L112.5,182.0 L112.5,183.0 Z M134.0,198.5 L133.0,198.5 L131.5,197.0 L131.5,196.0 L128.5,193.0 L128.5,192.0 L125.5,189.0 L125.5,188.0 L128.5,185.0 L128.5,184.0 L131.5,181.0 L131.5,180.0 L134.0,177.5 L134.5,178.0 L134.5,179.0 L135.5,180.0 L135.5,181.0 L139.5,185.0 L139.5,186.0 L141.5,188.0 L141.5,189.0 L139.5,191.0 L139.5,192.0 L135.5,196.0 L135.5,197.0 Z M142.0,233.5 L129.0,233.5 L128.5,233.0 L128.5,231.0 L129.0,230.5 L138.0,230.5 L138.5,230.0 L138.5,225.0 L138.0,224.5 L137.0,224.5 L136.0,225.5 L133.0,225.5 L132.0,224.5 L130.0,224.5 L127.5,222.0 L127.5,220.0 L126.5,219.0 L126.5,216.0 L127.5,215.0 L127.5,214.0 L128.5,213.0 L128.5,212.0 L129.0,211.5 L130.0,211.5 L131.0,210.5 L133.0,210.5 L134.0,209.5 L138.0,209.5 L139.0,210.5 L140.0,210.5 L141.0,211.5 L142.0,211.5 L143.5,213.0 L143.5,215.0 L143.0,215.5 L140.0,215.5 L138.0,213.5 L133.0,213.5 L132.5,214.0 L132.5,215.0 L131.5,216.0 L131.5,220.0 L133.0,221.5 L138.0,221.5 L139.0,220.5 L143.0,220.5 L143.5,221.0 L143.5,226.0 L142.5,227.0 L142.5,233.0 Z"/><path fill="#ff5f5f" fill-rule="evenodd" d="M40.0,12.5 L39.5,12.0 L39.5,10.0 L40.0,9.5 L40.5,10.0 L40.5,12.0 Z M25.0,16.5 L24.5,16.0 L24.5,14.0 L24.5,13.0 L25.0,12.5 L25.5,13.0 L25.5,16.0 Z M39.0,13.5 L30.0,13.5 L29.5,13.0 L30.0,12.5 L39.0,12.5 L39.5,13.0 Z M28.0,27.5 L27.0,27.5 L26.5,27.0 L27.0,26.5 L28.0,26.5 L28.5,27.0 Z M35.0,44.5 L34.0,44.5 L33.5,44.0 L34.0,43.5 L35.0,43.5 L35.5,44.0 Z M99.0,66.5 L98.5,66.0 L98.5,65.0 L99.0,64.5 L99.5,65.0 L99.5,66.0 Z M69.0,167.5 L68.5,167.0 L68.5,166.0 L69.0,165.5 L69.5,166.0 L69.5,167.0 Z M99.0,167.5 L98.5,167.0 L98.5,166.0 L99.0,165.5 L99.5,166.0 L99.5,167.0 Z M134.0,199.5 L133.0,199.5 L132.5,199.0 L133.0,198.5 L134.0,198.5 L134.5,199.0 Z M141.0,216.5 L140.0,216.5 L139.5,216.0 L140.0,215.5 L141.0,215.5 L141.5,216.0 Z M143.0,230.5 L142.5,230.0 L142.5,227.0 L143.0,226.5 L143.5,227.0 L143.5,230.0 Z M138.0,230.5 L129.0,230.5 L128.5,230.0 L129.0,229.5 L138.0,229.5 L138.5,230.0 Z M128.0,233.5 L127.5,233.0 L127.5,231.0 L128.0,230.5 L128.5,231.0 L128.5,233.0 Z"/><path fill="#ff9f9f" fill-rule="evenodd" d="M25.0,12.5 L24.5,12.0 L24.5,10.0 L25.0,9.5 L25.5,10.0 L25.5,12.0 Z M29.0,23.5 L25.0,23.5 L24.5,23.0 L25.0,22.5 L29.0,22.5 L29.5,23.0 Z M26.0,27.5 L24.0,27.5 L23.5,27.0 L24.0,26.5 L26.0,26.5 L26.5,27.0 Z M43.0,55.5 L42.5,55.0 L42.5,54.0 L43.0,53.5 L43.5,54.0 L43.5,55.0 Z M43.0,167.5 L42.5,167.0 L42.5,166.0 L43.0,165.5 L43.5,166.0 L43.5,167.0 Z M125.0,167.5 L124.5,167.0 L124.5,166.0 L125.0,165.5 L125.5,166.0 L125.5,167.0 Z M125.0,189.5 L124.5,189.0 L124.5,188.0 L125.0,187.5 L125.5,188.0 L125.5,189.0 Z M144.0,216.5 L142.0,216.5 L141.5,216.0 L142.0,215.5 L144.0,215.5 L144.5,216.0 Z M143.0,220.5 L139.0,220.5 L138.5,220.0 L139.0,219.5 L143.0,219.5 L143.5,220.0 Z M143.0,233.5 L142.5,233.0 L142.5,231.0 L143.0,230.5 L143.5,231.0 L143.5,233.0 Z"/></svg>