<svg xmlns="http://www.w3.org/2000/svg" width="169" height="244" viewBox="0 0 169 244" fill="none">
  
  <rect width="169" height="244" rx="12" fill="white" stroke="#E5E5E5" />
  
  
  <g transform="translate(20, 30)">
    <text font-family="Arial" font-size="24" font-weight="bold" fill="#FF0000">2</text>
    <g transform="translate(8, 14) scale(0.8)">
      <path d="M-0.103,9.961 L-0.411,9.283 L-0.613,9.077 L-0.828,8.665 L-4.932,4.549 L-5.162,4.137 L-5.735,3.52 L-5.776,3.314 L-6.174,2.902 L-6.191,2.697 L-6.548,2.285 L-6.586,2.079 L-6.783,1.873 L-6.792,1.668 L-6.997,1.462 L-7,1.256 L-7.203,1.05 L-7.204,0.844 L-7.404,0.638 L-7.409,0.433 L-7.615,0.021 L-7.615,-0.185 L-7.797,-0.391 L-7.821,-0.802 L-8.004,-1.008 L-8.036,-1.625 L-8.228,-1.831 L-8.27,-2.655 L-8.417,-2.86 L-8.438,-5.948 L-8.396,-6.153 L-8.257,-6.359 L-8.205,-6.977 L-8.028,-7.182 L-8.026,-7.388 L-7.836,-7.594 L-7.821,-7.8 L-7.631,-8.006 L-7.609,-8.212 L-6.483,-9.341 L-6.277,-9.386 L-6.071,-9.549 L-5.865,-9.585 L-5.66,-9.755 L-5.454,-9.755 L-5.042,-9.961 L-3.396,-9.929 L-3.19,-9.763 L-2.984,-9.755 L-2.367,-9.374 L-2.161,-9.341 L-1.749,-8.958 L-1.338,-8.716 L-0.926,-8.312 L-0.442,-7.8 L-0.103,-7.285 L1.75,-9.129 L1.955,-9.199 L2.367,-9.543 L2.573,-9.551 L2.779,-9.755 L3.19,-9.802 L3.396,-9.961 L5.043,-9.941 L5.248,-9.777 L5.66,-9.754 L5.866,-9.551 L6.072,-9.546 L6.278,-9.343 L6.689,-9.126 L7.363,-8.417 L7.413,-8.212 L7.615,-8.006 L7.656,-7.8 L7.821,-7.594 L7.843,-7.388 L8.026,-7.182 L8.058,-6.771 L8.221,-6.565 L8.243,-5.742 L8.4,-5.536 L8.438,-4.507 L8.428,-3.684 L8.238,-3.272 L8.233,-2.449 L8.204,-2.243 L8.062,-2.037 L8.014,-1.42 L7.862,-1.214 L7.821,-0.802 L7.67,-0.596 L7.615,-0.185 L7.425,0.021 L7.396,0.433 L7.204,0.638 L7.199,0.844 L6.999,1.05 L6.998,1.256 L6.805,1.462 L6.792,1.668 L6.588,1.873 L6.584,2.079 L5.97,2.902 L5.923,3.108 L5.376,3.726 L5.345,3.932 L4.548,4.755 L4.284,5.166 L3.701,5.784 L1.52,7.842 L0.418,9.077 L0.391,9.283 Z" fill="red" />
    </g>
  </g>
  
  
  <g transform="translate(149, 214) rotate(180)">
    <text font-family="Arial" font-size="24" font-weight="bold" fill="#FF0000">2</text>
    <g transform="translate(8, 14) scale(0.8)">
      <path d="M-0.103,9.961 L-0.411,9.283 L-0.613,9.077 L-0.828,8.665 L-4.932,4.549 L-5.162,4.137 L-5.735,3.52 L-5.776,3.314 L-6.174,2.902 L-6.191,2.697 L-6.548,2.285 L-6.586,2.079 L-6.783,1.873 L-6.792,1.668 L-6.997,1.462 L-7,1.256 L-7.203,1.05 L-7.204,0.844 L-7.404,0.638 L-7.409,0.433 L-7.615,0.021 L-7.615,-0.185 L-7.797,-0.391 L-7.821,-0.802 L-8.004,-1.008 L-8.036,-1.625 L-8.228,-1.831 L-8.27,-2.655 L-8.417,-2.86 L-8.438,-5.948 L-8.396,-6.153 L-8.257,-6.359 L-8.205,-6.977 L-8.028,-7.182 L-8.026,-7.388 L-7.836,-7.594 L-7.821,-7.8 L-7.631,-8.006 L-7.609,-8.212 L-6.483,-9.341 L-6.277,-9.386 L-6.071,-9.549 L-5.865,-9.585 L-5.66,-9.755 L-5.454,-9.755 L-5.042,-9.961 L-3.396,-9.929 L-3.19,-9.763 L-2.984,-9.755 L-2.367,-9.374 L-2.161,-9.341 L-1.749,-8.958 L-1.338,-8.716 L-0.926,-8.312 L-0.442,-7.8 L-0.103,-7.285 L1.75,-9.129 L1.955,-9.199 L2.367,-9.543 L2.573,-9.551 L2.779,-9.755 L3.19,-9.802 L3.396,-9.961 L5.043,-9.941 L5.248,-9.777 L5.66,-9.754 L5.866,-9.551 L6.072,-9.546 L6.278,-9.343 L6.689,-9.126 L7.363,-8.417 L7.413,-8.212 L7.615,-8.006 L7.656,-7.8 L7.821,-7.594 L7.843,-7.388 L8.026,-7.182 L8.058,-6.771 L8.221,-6.565 L8.243,-5.742 L8.4,-5.536 L8.438,-4.507 L8.428,-3.684 L8.238,-3.272 L8.233,-2.449 L8.204,-2.243 L8.062,-2.037 L8.014,-1.42 L7.862,-1.214 L7.821,-0.802 L7.67,-0.596 L7.615,-0.185 L7.425,0.021 L7.396,0.433 L7.204,0.638 L7.199,0.844 L6.999,1.05 L6.998,1.256 L6.805,1.462 L6.792,1.668 L6.588,1.873 L6.584,2.079 L5.97,2.902 L5.923,3.108 L5.376,3.726 L5.345,3.932 L4.548,4.755 L4.284,5.166 L3.701,5.784 L1.52,7.842 L0.418,9.077 L0.391,9.283 Z" fill="red" />
    </g>
  </g>
  
  
  
    <g transform="translate(84.5, 72)">
      <path d="M-0.124,11.992 L-0.495,11.176 L-0.738,10.928 L-0.996,10.432 L-5.938,5.477 L-6.214,4.981 L-6.904,4.238 L-6.954,3.99 L-7.433,3.494 L-7.453,3.247 L-7.883,2.751 L-7.929,2.503 L-8.167,2.255 L-8.177,2.008 L-8.423,1.76 L-8.428,1.512 L-8.672,1.264 L-8.673,1.016 L-8.914,0.769 L-8.92,0.521 L-9.168,0.025 L-9.168,-0.222 L-9.387,-0.47 L-9.416,-0.966 L-9.636,-1.214 L-9.675,-1.957 L-9.906,-2.205 L-9.956,-3.196 L-10.133,-3.444 L-10.159,-7.16 L-10.108,-7.408 L-9.941,-7.656 L-9.879,-8.399 L-9.665,-8.647 L-9.663,-8.895 L-9.434,-9.143 L-9.416,-9.39 L-9.187,-9.638 L-9.161,-9.886 L-7.805,-11.246 L-7.557,-11.299 L-7.309,-11.497 L-7.062,-11.539 L-6.814,-11.744 L-6.566,-11.744 L-6.07,-11.992 L-4.088,-11.953 L-3.84,-11.754 L-3.593,-11.744 L-2.849,-11.286 L-2.601,-11.246 L-2.106,-10.785 L-1.61,-10.494 L-1.115,-10.007 L-0.532,-9.39 L-0.124,-8.771 L2.106,-10.991 L2.354,-11.075 L2.85,-11.489 L3.098,-11.498 L3.345,-11.744 L3.841,-11.801 L4.089,-11.992 L6.071,-11.968 L6.319,-11.771 L6.814,-11.743 L7.062,-11.499 L7.31,-11.493 L7.558,-11.249 L8.053,-10.987 L8.865,-10.134 L8.924,-9.886 L9.168,-9.638 L9.217,-9.39 L9.416,-9.143 L9.442,-8.895 L9.662,-8.647 L9.701,-8.152 L9.898,-7.904 L9.924,-6.913 L10.113,-6.665 L10.159,-5.426 L10.147,-4.435 L9.918,-3.939 L9.912,-2.948 L9.878,-2.7 L9.706,-2.453 L9.648,-1.709 L9.466,-1.461 L9.416,-0.966 L9.234,-0.718 L9.168,-0.222 L8.94,0.025 L8.905,0.521 L8.673,0.769 L8.667,1.016 L8.426,1.264 L8.425,1.512 L8.192,1.76 L8.177,2.008 L7.931,2.255 L7.927,2.503 L7.187,3.494 L7.131,3.742 L6.472,4.485 L6.435,4.733 L5.476,5.724 L5.158,6.22 L4.455,6.963 L1.83,9.441 L0.503,10.928 L0.471,11.176 Z" fill="red" />
    </g>
  
    <g transform="translate(84.5, 162)">
      <path d="M-0.124,11.992 L-0.495,11.176 L-0.738,10.928 L-0.996,10.432 L-5.938,5.477 L-6.214,4.981 L-6.904,4.238 L-6.954,3.99 L-7.433,3.494 L-7.453,3.247 L-7.883,2.751 L-7.929,2.503 L-8.167,2.255 L-8.177,2.008 L-8.423,1.76 L-8.428,1.512 L-8.672,1.264 L-8.673,1.016 L-8.914,0.769 L-8.92,0.521 L-9.168,0.025 L-9.168,-0.222 L-9.387,-0.47 L-9.416,-0.966 L-9.636,-1.214 L-9.675,-1.957 L-9.906,-2.205 L-9.956,-3.196 L-10.133,-3.444 L-10.159,-7.16 L-10.108,-7.408 L-9.941,-7.656 L-9.879,-8.399 L-9.665,-8.647 L-9.663,-8.895 L-9.434,-9.143 L-9.416,-9.39 L-9.187,-9.638 L-9.161,-9.886 L-7.805,-11.246 L-7.557,-11.299 L-7.309,-11.497 L-7.062,-11.539 L-6.814,-11.744 L-6.566,-11.744 L-6.07,-11.992 L-4.088,-11.953 L-3.84,-11.754 L-3.593,-11.744 L-2.849,-11.286 L-2.601,-11.246 L-2.106,-10.785 L-1.61,-10.494 L-1.115,-10.007 L-0.532,-9.39 L-0.124,-8.771 L2.106,-10.991 L2.354,-11.075 L2.85,-11.489 L3.098,-11.498 L3.345,-11.744 L3.841,-11.801 L4.089,-11.992 L6.071,-11.968 L6.319,-11.771 L6.814,-11.743 L7.062,-11.499 L7.31,-11.493 L7.558,-11.249 L8.053,-10.987 L8.865,-10.134 L8.924,-9.886 L9.168,-9.638 L9.217,-9.39 L9.416,-9.143 L9.442,-8.895 L9.662,-8.647 L9.701,-8.152 L9.898,-7.904 L9.924,-6.913 L10.113,-6.665 L10.159,-5.426 L10.147,-4.435 L9.918,-3.939 L9.912,-2.948 L9.878,-2.7 L9.706,-2.453 L9.648,-1.709 L9.466,-1.461 L9.416,-0.966 L9.234,-0.718 L9.168,-0.222 L8.94,0.025 L8.905,0.521 L8.673,0.769 L8.667,1.016 L8.426,1.264 L8.425,1.512 L8.192,1.76 L8.177,2.008 L7.931,2.255 L7.927,2.503 L7.187,3.494 L7.131,3.742 L6.472,4.485 L6.435,4.733 L5.476,5.724 L5.158,6.22 L4.455,6.963 L1.83,9.441 L0.503,10.928 L0.471,11.176 Z" fill="red" />
    </g>
  
</svg>