<?xml version="1.0" encoding="UTF-8"?><svg xmlns="http://www.w3.org/2000/svg" width="169" height="244" viewBox="0 0 169 244" shape-rendering="geometricPrecision"><path fill="#fefefe" fill-rule="evenodd" d="M160.0,243.5 L8.0,243.5 L7.0,242.5 L6.0,242.5 L0.5,237.0 L0.5,236.0 L-0.5,235.0 L-0.5,8.0 L0.5,7.0 L0.5,6.0 L1.5,5.0 L1.5,4.0 L4.0,1.5 L5.0,1.5 L6.0,0.5 L7.0,0.5 L8.0,-0.5 L160.0,-0.5 L161.0,0.5 L162.0,0.5 L167.5,6.0 L167.5,7.0 L168.5,8.0 L168.5,235.0 L167.5,236.0 L167.5,237.0 L166.5,238.0 L166.5,239.0 L164.0,241.5 L163.0,241.5 L162.0,242.5 L161.0,242.5 Z M33.5,33.0 L33.5,27.0 L34.5,26.0 L34.5,25.0 L35.5,24.0 L35.5,22.0 L37.5,20.0 L37.5,19.0 L38.5,18.0 L38.5,17.0 L40.5,15.0 L40.5,14.0 L41.5,13.0 L41.5,10.0 L41.0,9.5 L24.0,9.5 L23.5,10.0 L23.5,13.0 L24.0,13.5 L35.0,13.5 L35.5,14.0 L35.5,15.0 L32.5,18.0 L32.5,19.0 L31.5,20.0 L31.5,21.0 L30.5,22.0 L30.5,23.0 L29.5,24.0 L29.5,25.0 L28.5,26.0 L28.5,28.0 L27.5,29.0 L27.5,33.0 L28.0,33.5 L33.0,33.5 Z M56.5,80.0 L57.5,79.0 L57.5,78.0 L65.5,70.0 L65.5,69.0 L67.5,67.0 L67.5,66.0 L68.5,65.0 L68.5,63.0 L69.5,62.0 L69.5,53.0 L68.5,52.0 L68.5,51.0 L66.0,48.5 L60.0,48.5 L56.0,52.5 L55.5,52.0 L55.5,51.0 L55.0,50.5 L54.0,50.5 L52.0,48.5 L47.0,48.5 L46.0,49.5 L45.0,49.5 L44.5,49.0 L44.5,46.0 L43.5,45.0 L43.5,44.0 L43.0,43.5 L42.0,43.5 L41.0,42.5 L38.0,42.5 L37.0,43.5 L36.0,43.5 L35.0,44.5 L34.0,44.5 L33.0,43.5 L32.0,43.5 L31.0,42.5 L27.0,42.5 L24.5,45.0 L24.5,54.0 L25.5,55.0 L25.5,56.0 L26.5,57.0 L26.5,58.0 L33.5,65.0 L33.5,66.0 L34.0,66.5 L41.5,59.0 L41.5,58.0 L42.0,57.5 L42.5,58.0 L42.5,61.0 L43.5,62.0 L43.5,64.0 L44.5,65.0 L44.5,66.0 L45.5,67.0 L45.5,68.0 L46.5,69.0 L46.5,70.0 L55.5,79.0 L55.5,80.0 L56.0,80.5 Z M112.5,79.0 L120.5,71.0 L120.5,70.0 L122.5,68.0 L122.5,67.0 L123.5,66.0 L123.5,65.0 L124.5,64.0 L124.5,62.0 L125.5,61.0 L125.5,54.0 L124.5,53.0 L124.5,52.0 L123.5,51.0 L123.5,50.0 L123.0,49.5 L122.0,49.5 L121.0,48.5 L116.0,48.5 L115.0,49.5 L114.0,49.5 L112.0,51.5 L111.0,51.5 L108.0,48.5 L102.0,48.5 L99.5,51.0 L99.5,52.0 L98.5,53.0 L98.5,63.0 L99.5,64.0 L99.5,65.0 L100.5,66.0 L100.5,67.0 L101.5,68.0 L101.5,69.0 L110.5,78.0 L110.5,79.0 L111.0,79.5 L112.0,79.5 Z M56.5,125.0 L65.5,116.0 L65.5,115.0 L67.5,113.0 L67.5,112.0 L68.5,111.0 L68.5,109.0 L69.5,108.0 L69.5,99.0 L68.5,98.0 L68.5,97.0 L66.0,94.5 L65.0,94.5 L64.0,93.5 L62.0,93.5 L61.0,94.5 L60.0,94.5 L57.0,97.5 L56.0,97.5 L54.0,95.5 L53.0,95.5 L52.0,94.5 L51.0,94.5 L50.0,93.5 L48.0,93.5 L47.0,94.5 L46.0,94.5 L45.5,95.0 L43.5,97.0 L43.5,98.0 L42.5,99.0 L42.5,107.0 L43.5,108.0 L43.5,110.0 L44.5,111.0 L44.5,112.0 L45.5,113.0 L45.5,114.0 L47.5,116.0 L47.5,117.0 L56.0,125.5 Z M84.5,125.0 L92.5,117.0 L92.5,116.0 L94.5,114.0 L94.5,113.0 L95.5,112.0 L95.5,111.0 L96.5,110.0 L96.5,108.0 L97.5,107.0 L97.5,99.0 L96.5,98.0 L96.5,97.0 L94.0,94.5 L93.0,94.5 L92.0,93.5 L90.0,93.5 L89.0,94.5 L88.0,94.5 L87.0,95.5 L86.0,95.5 L84.0,97.5 L83.0,96.5 L82.0,96.5 L80.0,94.5 L79.0,94.5 L78.0,93.5 L76.0,93.5 L75.0,94.5 L74.0,94.5 L71.5,97.0 L71.5,98.0 L70.5,99.0 L70.5,108.0 L71.5,109.0 L71.5,111.0 L72.5,112.0 L72.5,113.0 L74.5,115.0 L74.5,116.0 L84.0,125.5 Z M112.5,125.0 L120.5,117.0 L120.5,116.0 L122.5,114.0 L122.5,113.0 L123.5,112.0 L123.5,111.0 L124.5,110.0 L124.5,107.0 L125.5,106.0 L125.5,100.0 L124.5,99.0 L124.5,97.0 L122.0,94.5 L120.0,94.5 L119.0,93.5 L118.0,93.5 L117.0,94.5 L116.0,94.5 L115.0,95.5 L114.0,95.5 L112.0,97.5 L111.0,97.5 L108.0,94.5 L107.0,94.5 L106.0,93.5 L104.0,93.5 L103.0,94.5 L102.0,94.5 L98.5,98.0 L98.5,108.0 L99.5,109.0 L99.5,111.0 L100.5,112.0 L100.5,113.0 L101.5,114.0 L101.5,115.0 L110.5,124.0 L110.5,125.0 L111.0,125.5 L112.0,125.5 Z M56.5,183.0 L57.5,182.0 L57.5,181.0 L65.5,173.0 L65.5,172.0 L67.5,170.0 L67.5,169.0 L68.5,168.0 L68.5,166.0 L69.5,165.0 L69.5,156.0 L68.5,155.0 L68.5,154.0 L66.0,151.5 L60.0,151.5 L56.0,155.5 L52.0,151.5 L47.0,151.5 L46.0,152.5 L45.0,152.5 L43.5,154.0 L43.5,155.0 L42.5,156.0 L42.5,164.0 L43.5,165.0 L43.5,167.0 L44.5,168.0 L44.5,169.0 L45.5,170.0 L45.5,171.0 L46.5,172.0 L46.5,173.0 L55.5,182.0 L55.5,183.0 L56.0,183.5 Z M112.5,183.0 L112.5,182.0 L120.5,174.0 L120.5,173.0 L122.5,171.0 L122.5,170.0 L123.5,169.0 L123.5,168.0 L124.5,167.0 L124.5,165.0 L125.5,164.0 L125.5,157.0 L124.5,156.0 L124.5,155.0 L123.5,154.0 L123.5,153.0 L123.0,152.5 L122.0,152.5 L121.0,151.5 L116.0,151.5 L112.0,155.5 L109.0,152.5 L108.0,152.5 L107.0,151.5 L102.0,151.5 L99.5,154.0 L99.5,155.0 L98.5,156.0 L98.5,166.0 L99.5,167.0 L99.5,168.0 L100.5,169.0 L100.5,170.0 L101.5,171.0 L101.5,172.0 L110.5,181.0 L110.5,182.0 L112.0,183.5 Z M141.5,200.0 L143.5,198.0 L143.5,189.0 L142.5,188.0 L142.5,187.0 L141.5,186.0 L141.5,185.0 L134.5,178.0 L134.5,177.0 L134.0,176.5 L126.5,184.0 L126.5,185.0 L124.5,187.0 L124.5,189.0 L123.5,190.0 L123.5,197.0 L124.5,198.0 L124.5,199.0 L125.0,199.5 L126.0,199.5 L127.0,200.5 L130.0,200.5 L131.0,199.5 L132.0,199.5 L133.0,198.5 L134.0,198.5 L135.0,199.5 L136.0,199.5 L137.0,200.5 L141.0,200.5 Z M144.5,233.0 L144.5,230.0 L144.0,229.5 L133.0,229.5 L132.5,229.0 L132.5,228.0 L135.5,225.0 L135.5,224.0 L136.5,223.0 L136.5,222.0 L137.5,221.0 L137.5,220.0 L138.5,219.0 L138.5,218.0 L139.5,217.0 L139.5,215.0 L140.5,214.0 L140.5,210.0 L140.0,209.5 L135.0,209.5 L134.5,210.0 L134.5,215.0 L133.5,216.0 L133.5,218.0 L132.5,219.0 L132.5,221.0 L130.5,223.0 L130.5,224.0 L129.5,225.0 L129.5,226.0 L127.5,228.0 L127.5,229.0 L126.5,230.0 L126.5,233.0 L127.0,233.5 L144.0,233.5 Z"/><path fill="#ff0101" fill-rule="evenodd" d="M32.0,33.5 L28.0,33.5 L27.5,33.0 L27.5,32.0 L28.5,31.0 L28.5,27.0 L29.5,26.0 L29.5,25.0 L30.5,24.0 L30.5,23.0 L31.5,22.0 L31.5,21.0 L32.5,20.0 L32.5,19.0 L34.5,17.0 L34.5,16.0 L36.5,14.0 L36.0,13.5 L25.0,13.5 L24.5,13.0 L24.5,10.0 L25.0,9.5 L40.0,9.5 L40.5,10.0 L40.5,14.0 L38.5,16.0 L38.5,17.0 L37.5,18.0 L37.5,19.0 L35.5,21.0 L35.5,22.0 L34.5,23.0 L34.5,25.0 L33.5,26.0 L33.5,29.0 L32.5,30.0 L32.5,33.0 Z M56.0,79.5 L55.5,79.0 L55.5,78.0 L46.5,69.0 L46.5,68.0 L45.5,67.0 L45.5,66.0 L44.5,65.0 L44.5,64.0 L43.5,63.0 L43.5,60.0 L42.5,59.0 L42.5,58.0 L42.0,57.5 L39.5,60.0 L39.5,61.0 L39.0,61.5 L38.0,62.5 L37.0,62.5 L35.5,64.0 L35.5,65.0 L35.0,65.5 L34.0,65.5 L28.5,60.0 L28.5,59.0 L26.5,57.0 L26.5,56.0 L25.5,55.0 L25.5,53.0 L24.5,52.0 L24.5,46.0 L27.0,43.5 L28.0,43.5 L29.0,42.5 L30.0,42.5 L31.0,43.5 L32.0,43.5 L34.0,45.5 L35.0,45.5 L37.0,43.5 L38.0,43.5 L39.0,42.5 L40.0,42.5 L41.0,43.5 L42.0,43.5 L43.5,45.0 L43.5,46.0 L44.5,47.0 L44.5,50.0 L45.0,50.5 L46.0,49.5 L47.0,49.5 L48.0,48.5 L51.0,48.5 L52.0,49.5 L53.0,49.5 L56.0,52.5 L59.0,49.5 L60.0,49.5 L61.0,48.5 L65.0,48.5 L68.5,52.0 L68.5,53.0 L69.5,54.0 L69.5,60.0 L68.5,61.0 L68.5,63.0 L67.5,64.0 L67.5,66.0 L66.5,67.0 L66.5,68.0 L63.5,71.0 L63.5,72.0 Z M112.0,79.5 L103.5,71.0 L103.5,70.0 L101.5,68.0 L101.5,67.0 L100.5,66.0 L100.5,65.0 L99.5,64.0 L99.5,62.0 L98.5,61.0 L98.5,54.0 L99.5,53.0 L99.5,52.0 L103.0,48.5 L107.0,48.5 L109.0,50.5 L110.0,50.5 L110.5,51.0 L110.5,52.0 L111.0,52.5 L112.0,52.5 L115.0,49.5 L116.0,49.5 L117.0,48.5 L120.0,48.5 L121.0,49.5 L122.0,49.5 L123.5,51.0 L123.5,52.0 L124.5,53.0 L124.5,55.0 L125.5,56.0 L125.5,58.0 L124.5,59.0 L124.5,62.0 L123.5,63.0 L123.5,65.0 L122.5,66.0 L122.5,67.0 L121.5,68.0 L121.5,69.0 L112.5,78.0 L112.5,79.0 Z M56.0,125.5 L55.5,125.0 L55.5,124.0 L46.5,115.0 L46.5,114.0 L45.5,113.0 L45.5,112.0 L44.5,111.0 L44.5,110.0 L43.5,109.0 L43.5,106.0 L42.5,105.0 L42.5,101.0 L43.5,100.0 L43.5,98.0 L47.0,94.5 L51.0,94.5 L52.0,95.5 L53.0,95.5 L56.0,98.5 L59.0,95.5 L60.0,95.5 L61.0,94.5 L65.0,94.5 L66.0,95.5 L67.0,95.5 L67.5,96.0 L67.5,97.0 L68.5,98.0 L68.5,99.0 L69.5,100.0 L69.5,106.0 L68.5,107.0 L68.5,109.0 L67.5,110.0 L67.5,112.0 L65.5,114.0 L65.5,115.0 L62.5,118.0 L62.5,119.0 L61.0,120.5 L60.0,120.5 L58.5,122.0 L57.5,123.0 L57.5,124.0 Z M84.0,125.5 L82.5,124.0 L82.5,123.0 L74.5,115.0 L74.5,114.0 L72.5,112.0 L72.5,110.0 L71.5,109.0 L71.5,106.0 L70.5,105.0 L70.5,100.0 L71.5,99.0 L71.5,98.0 L75.0,94.5 L79.0,94.5 L80.0,95.5 L81.0,95.5 L84.0,98.5 L87.0,95.5 L88.0,95.5 L89.0,94.5 L93.0,94.5 L96.5,98.0 L96.5,100.0 L97.5,101.0 L97.5,104.0 L96.5,105.0 L96.5,109.0 L95.5,110.0 L95.5,111.0 L94.5,112.0 L94.5,113.0 L93.5,114.0 L93.5,115.0 L84.5,124.0 L84.5,125.0 Z M112.0,125.5 L104.5,118.0 L104.5,117.0 L101.5,114.0 L101.5,113.0 L100.5,112.0 L100.5,111.0 L99.5,110.0 L99.5,108.0 L98.5,107.0 L98.5,100.0 L99.5,99.0 L99.5,97.0 L101.0,95.5 L102.0,95.5 L103.0,94.5 L107.0,94.5 L108.0,95.5 L109.0,95.5 L112.0,98.5 L116.0,94.5 L121.0,94.5 L124.5,98.0 L124.5,101.0 L125.5,102.0 L125.5,104.0 L124.5,105.0 L124.5,108.0 L123.5,109.0 L123.5,111.0 L122.5,112.0 L122.5,113.0 L120.5,115.0 L120.5,116.0 L112.5,124.0 L112.5,125.0 Z M56.0,182.5 L54.5,181.0 L54.5,180.0 L46.5,172.0 L46.5,171.0 L45.5,170.0 L45.5,169.0 L44.5,168.0 L44.5,167.0 L43.5,166.0 L43.5,163.0 L42.5,162.0 L42.5,158.0 L43.5,157.0 L43.5,155.0 L46.0,152.5 L47.0,152.5 L48.0,151.5 L51.0,151.5 L52.0,152.5 L53.0,152.5 L56.0,155.5 L58.0,153.5 L59.0,153.5 L61.0,151.5 L65.0,151.5 L68.5,155.0 L68.5,156.0 L69.5,157.0 L69.5,163.0 L68.5,164.0 L68.5,167.0 L67.5,168.0 L67.5,169.0 L66.5,170.0 L66.5,171.0 L64.5,173.0 L64.5,174.0 Z M112.0,182.5 L103.5,174.0 L103.5,173.0 L101.5,171.0 L101.5,170.0 L100.5,169.0 L100.5,168.0 L99.5,167.0 L99.5,165.0 L98.5,164.0 L98.5,157.0 L99.5,156.0 L99.5,155.0 L103.0,151.5 L107.0,151.5 L109.0,153.5 L110.0,153.5 L110.5,154.0 L110.5,155.0 L111.0,155.5 L112.0,155.5 L115.0,152.5 L116.0,152.5 L117.0,151.5 L120.0,151.5 L121.0,152.5 L122.0,152.5 L123.5,154.0 L123.5,155.0 L124.5,156.0 L124.5,158.0 L125.5,159.0 L125.5,161.0 L124.5,162.0 L124.5,165.0 L123.5,166.0 L123.5,168.0 L122.5,169.0 L122.5,170.0 L121.5,171.0 L121.5,172.0 L112.5,181.0 L112.5,182.0 Z M139.0,200.5 L138.0,200.5 L137.0,199.5 L136.0,199.5 L134.0,197.5 L133.0,197.5 L131.0,199.5 L130.0,199.5 L129.0,200.5 L128.0,200.5 L127.0,199.5 L126.0,199.5 L124.5,198.0 L124.5,197.0 L123.5,196.0 L123.5,192.0 L124.5,191.0 L124.5,188.0 L125.5,187.0 L125.5,186.0 L128.5,183.0 L128.5,182.0 L129.0,181.5 L130.0,181.5 L132.5,179.0 L132.5,178.0 L133.0,177.5 L134.0,177.5 L139.5,183.0 L139.5,184.0 L141.5,186.0 L141.5,187.0 L142.5,188.0 L142.5,190.0 L143.5,191.0 L143.5,197.0 L141.0,199.5 L140.0,199.5 Z M143.0,233.5 L128.0,233.5 L127.5,233.0 L127.5,229.0 L129.5,227.0 L129.5,226.0 L130.5,225.0 L130.5,224.0 L132.5,222.0 L132.5,221.0 L133.5,220.0 L133.5,218.0 L134.5,217.0 L134.5,214.0 L135.5,213.0 L135.5,210.0 L136.0,209.5 L140.0,209.5 L140.5,210.0 L140.5,211.0 L139.5,212.0 L139.5,216.0 L138.5,217.0 L138.5,218.0 L137.5,219.0 L137.5,220.0 L136.5,221.0 L136.5,222.0 L135.5,223.0 L135.5,224.0 L133.5,226.0 L133.5,227.0 L131.5,229.0 L132.0,229.5 L143.0,229.5 L143.5,230.0 L143.5,233.0 Z"/><path fill="#ff5e5e" fill-rule="evenodd" d="M28.0,31.5 L27.5,31.0 L27.5,30.0 L28.0,29.5 L28.5,30.0 L28.5,31.0 Z M97.0,106.5 L96.5,106.0 L96.5,105.0 L97.0,104.5 L97.5,105.0 L97.5,106.0 Z M71.0,107.5 L70.5,107.0 L70.5,106.0 L71.0,105.5 L71.5,106.0 L71.5,107.0 Z M140.0,213.5 L139.5,213.0 L139.5,212.0 L140.0,211.5 L140.5,212.0 L140.5,213.0 Z"/><path fill="#ffa1a1" fill-rule="evenodd" d="M24.0,13.5 L23.5,13.0 L23.5,10.0 L24.0,9.5 L24.5,10.0 L24.5,13.0 Z M41.0,13.5 L40.5,13.0 L40.5,10.0 L41.0,9.5 L41.5,10.0 L41.5,13.0 Z M33.0,33.5 L32.5,33.0 L32.5,31.0 L33.0,30.5 L33.5,31.0 L33.5,33.0 Z M35.0,45.5 L34.0,45.5 L33.5,45.0 L34.0,44.5 L35.0,44.5 L35.5,45.0 Z M125.0,61.5 L124.5,61.0 L124.5,60.0 L125.0,59.5 L125.5,60.0 L125.5,61.0 Z M50.0,94.5 L48.0,94.5 L47.5,94.0 L48.0,93.5 L50.0,93.5 L50.5,94.0 Z M64.0,94.5 L62.0,94.5 L61.5,94.0 L62.0,93.5 L64.0,93.5 L64.5,94.0 Z M78.0,94.5 L76.0,94.5 L75.5,94.0 L76.0,93.5 L78.0,93.5 L78.5,94.0 Z M92.0,94.5 L90.0,94.5 L89.5,94.0 L90.0,93.5 L92.0,93.5 L92.5,94.0 Z M106.0,94.5 L104.0,94.5 L103.5,94.0 L104.0,93.5 L106.0,93.5 L106.5,94.0 Z M119.0,94.5 L118.0,94.5 L117.5,94.0 L118.0,93.5 L119.0,93.5 L119.5,94.0 Z M125.0,164.5 L124.5,164.0 L124.5,163.0 L125.0,162.5 L125.5,163.0 L125.5,164.0 Z M134.0,198.5 L133.0,198.5 L132.5,198.0 L133.0,197.5 L134.0,197.5 L134.5,198.0 Z M135.0,212.5 L134.5,212.0 L134.5,210.0 L135.0,209.5 L135.5,210.0 L135.5,212.0 Z M127.0,233.5 L126.5,233.0 L126.5,230.0 L127.0,229.5 L127.5,230.0 L127.5,233.0 Z M144.0,233.5 L143.5,233.0 L143.5,230.0 L144.0,229.5 L144.5,230.0 L144.5,233.0 Z"/></svg>