<svg xmlns="http://www.w3.org/2000/svg" width="169" height="244" viewBox="0 0 169 244" fill="none">
  
  <rect width="169" height="244" rx="12" fill="white" stroke="#E5E5E5" />
  
  
  <g transform="translate(20, 30)">
    <text font-family="Arial" font-size="24" font-weight="bold" fill="#FF0000">J</text>
    <g transform="translate(8, 14) scale(0.8)">
      <path d="M-0.103,9.961 L-0.411,9.283 L-0.613,9.077 L-0.828,8.665 L-4.932,4.549 L-5.162,4.137 L-5.735,3.52 L-5.776,3.314 L-6.174,2.902 L-6.191,2.697 L-6.548,2.285 L-6.586,2.079 L-6.783,1.873 L-6.792,1.668 L-6.997,1.462 L-7,1.256 L-7.203,1.05 L-7.204,0.844 L-7.404,0.638 L-7.409,0.433 L-7.615,0.021 L-7.615,-0.185 L-7.797,-0.391 L-7.821,-0.802 L-8.004,-1.008 L-8.036,-1.625 L-8.228,-1.831 L-8.27,-2.655 L-8.417,-2.86 L-8.438,-5.948 L-8.396,-6.153 L-8.257,-6.359 L-8.205,-6.977 L-8.028,-7.182 L-8.026,-7.388 L-7.836,-7.594 L-7.821,-7.8 L-7.631,-8.006 L-7.609,-8.212 L-6.483,-9.341 L-6.277,-9.386 L-6.071,-9.549 L-5.865,-9.585 L-5.66,-9.755 L-5.454,-9.755 L-5.042,-9.961 L-3.396,-9.929 L-3.19,-9.763 L-2.984,-9.755 L-2.367,-9.374 L-2.161,-9.341 L-1.749,-8.958 L-1.338,-8.716 L-0.926,-8.312 L-0.442,-7.8 L-0.103,-7.285 L1.75,-9.129 L1.955,-9.199 L2.367,-9.543 L2.573,-9.551 L2.779,-9.755 L3.19,-9.802 L3.396,-9.961 L5.043,-9.941 L5.248,-9.777 L5.66,-9.754 L5.866,-9.551 L6.072,-9.546 L6.278,-9.343 L6.689,-9.126 L7.363,-8.417 L7.413,-8.212 L7.615,-8.006 L7.656,-7.8 L7.821,-7.594 L7.843,-7.388 L8.026,-7.182 L8.058,-6.771 L8.221,-6.565 L8.243,-5.742 L8.4,-5.536 L8.438,-4.507 L8.428,-3.684 L8.238,-3.272 L8.233,-2.449 L8.204,-2.243 L8.062,-2.037 L8.014,-1.42 L7.862,-1.214 L7.821,-0.802 L7.67,-0.596 L7.615,-0.185 L7.425,0.021 L7.396,0.433 L7.204,0.638 L7.199,0.844 L6.999,1.05 L6.998,1.256 L6.805,1.462 L6.792,1.668 L6.588,1.873 L6.584,2.079 L5.97,2.902 L5.923,3.108 L5.376,3.726 L5.345,3.932 L4.548,4.755 L4.284,5.166 L3.701,5.784 L1.52,7.842 L0.418,9.077 L0.391,9.283 Z" fill="red" />
    </g>
  </g>
  
  
  <g transform="translate(149, 214) rotate(180)">
    <text font-family="Arial" font-size="24" font-weight="bold" fill="#FF0000">J</text>
    <g transform="translate(8, 14) scale(0.8)">
      <path d="M-0.103,9.961 L-0.411,9.283 L-0.613,9.077 L-0.828,8.665 L-4.932,4.549 L-5.162,4.137 L-5.735,3.52 L-5.776,3.314 L-6.174,2.902 L-6.191,2.697 L-6.548,2.285 L-6.586,2.079 L-6.783,1.873 L-6.792,1.668 L-6.997,1.462 L-7,1.256 L-7.203,1.05 L-7.204,0.844 L-7.404,0.638 L-7.409,0.433 L-7.615,0.021 L-7.615,-0.185 L-7.797,-0.391 L-7.821,-0.802 L-8.004,-1.008 L-8.036,-1.625 L-8.228,-1.831 L-8.27,-2.655 L-8.417,-2.86 L-8.438,-5.948 L-8.396,-6.153 L-8.257,-6.359 L-8.205,-6.977 L-8.028,-7.182 L-8.026,-7.388 L-7.836,-7.594 L-7.821,-7.8 L-7.631,-8.006 L-7.609,-8.212 L-6.483,-9.341 L-6.277,-9.386 L-6.071,-9.549 L-5.865,-9.585 L-5.66,-9.755 L-5.454,-9.755 L-5.042,-9.961 L-3.396,-9.929 L-3.19,-9.763 L-2.984,-9.755 L-2.367,-9.374 L-2.161,-9.341 L-1.749,-8.958 L-1.338,-8.716 L-0.926,-8.312 L-0.442,-7.8 L-0.103,-7.285 L1.75,-9.129 L1.955,-9.199 L2.367,-9.543 L2.573,-9.551 L2.779,-9.755 L3.19,-9.802 L3.396,-9.961 L5.043,-9.941 L5.248,-9.777 L5.66,-9.754 L5.866,-9.551 L6.072,-9.546 L6.278,-9.343 L6.689,-9.126 L7.363,-8.417 L7.413,-8.212 L7.615,-8.006 L7.656,-7.8 L7.821,-7.594 L7.843,-7.388 L8.026,-7.182 L8.058,-6.771 L8.221,-6.565 L8.243,-5.742 L8.4,-5.536 L8.438,-4.507 L8.428,-3.684 L8.238,-3.272 L8.233,-2.449 L8.204,-2.243 L8.062,-2.037 L8.014,-1.42 L7.862,-1.214 L7.821,-0.802 L7.67,-0.596 L7.615,-0.185 L7.425,0.021 L7.396,0.433 L7.204,0.638 L7.199,0.844 L6.999,1.05 L6.998,1.256 L6.805,1.462 L6.792,1.668 L6.588,1.873 L6.584,2.079 L5.97,2.902 L5.923,3.108 L5.376,3.726 L5.345,3.932 L4.548,4.755 L4.284,5.166 L3.701,5.784 L1.52,7.842 L0.418,9.077 L0.391,9.283 Z" fill="red" />
    </g>
  </g>
  
  
  <g transform="translate(84.5, 122)">
    
        <g transform="translate(-100, 75) scale(0.01, 0.01)">
          
            <g transform="translate(0, 2048) scale(1, -1)" fill="#FF0000" stroke="none">
              <path d="M10045 16694 c-97 -11 -415 -68 -582 -105 -881 -193 -1699 -555               -2348 -1038 -221 -165 -372 -296 -581 -505 -206 -206 -336 -355 -481 -553               -768 -1042 -1090 -2338 -932 -3748 290 -2582 2168 -5206 4924 -6875 96 -58               181 -103 195 -103 14 0 99 45 195 103 2756 1669 4634 4293 4924 6875 158 1410               -164 2706 -932 3748 -145 198 -275 347 -481 553 -417 417 -838 721 -1376 993               -591 300 -1202 498 -1915 621 -151 27 -211 32 -375 35 -107 2 -213 1 -235 -1z               m-1995 -4605 c430 -39 843 -211 1164 -485 59 -50 76 -71 74 -87 -4 -29 -24               -28 -210 11 -364 77 -695 112 -1114 119 -440 7 -692 -13 -999 -82 -227 -51               -474 -151 -561 -227 -36 -31 -56 -35 -74 -13 -16 19 11 61 101 159 402 437               1004 662 1619 605z m4655 1 c491 -45 935 -260 1254 -606 90 -98 117 -140 101               -159 -18 -22 -38 -18 -74 13 -87 76 -334 176 -561 227 -307 69 -559 89 -999               82 -419 -7 -750 -42 -1114 -119 -186 -39 -206 -40 -210 -11 -2 16 15 37 74 87               417 356 983 536 1529 486z m-5952 -3577 c798 -574 1874 -1021 2852 -1183 509               -84 761 -84 1270 0 978 162 2054 609 2852 1183 71 51 137 96 146 100 9 3 23               -1 32 -9 13 -13 13 -19 2 -42 -8 -15 -29 -58 -47 -97 -47 -102 -110 -186 -230               -305 -669 -669 -2288 -1418 -3244 -1500 -87 -8 -122 -7 -132 1 -11 9 -17 9               -28 0 -10 -8 -45 -9 -132 -1 -956 82 -2575 831 -3244 1500 -120 119 -183 203               -230 305 -18 39 -39 82 -47 97 -11 23 -11 29 2 42 9 8 23 12 32 9 9 -4 75 -49               146 -100z" />
            </g>
        </g>
      
  </g>
</svg>