<?xml version="1.0" encoding="UTF-8"?><svg xmlns="http://www.w3.org/2000/svg" width="169" height="244" viewBox="0 0 169 244" shape-rendering="geometricPrecision"><path fill="#fefefe" fill-rule="evenodd" d="M160.0,243.5 L8.0,243.5 L7.0,242.5 L6.0,242.5 L0.5,237.0 L0.5,236.0 L-0.5,235.0 L-0.5,8.0 L0.5,7.0 L0.5,6.0 L1.5,5.0 L1.5,4.0 L4.0,1.5 L5.0,1.5 L6.0,0.5 L7.0,0.5 L8.0,-0.5 L160.0,-0.5 L161.0,0.5 L162.0,0.5 L167.5,6.0 L167.5,7.0 L168.5,8.0 L168.5,235.0 L167.5,236.0 L167.5,237.0 L166.5,238.0 L166.5,239.0 L164.0,241.5 L163.0,241.5 L162.0,242.5 L161.0,242.5 Z M36.5,33.0 L37.0,32.5 L38.0,32.5 L39.0,31.5 L40.5,30.0 L40.5,29.0 L41.5,28.0 L41.5,23.0 L40.5,22.0 L40.5,21.0 L37.0,17.5 L31.0,17.5 L30.0,18.5 L29.5,18.0 L29.5,16.0 L32.0,13.5 L34.0,13.5 L36.0,15.5 L40.0,15.5 L40.5,15.0 L40.5,13.0 L38.0,10.5 L37.0,10.5 L36.0,9.5 L30.0,9.5 L29.0,10.5 L28.0,10.5 L25.5,13.0 L25.5,14.0 L24.5,15.0 L24.5,17.0 L23.5,18.0 L23.5,26.0 L24.5,27.0 L24.5,29.0 L28.0,32.5 L29.0,32.5 L30.0,33.5 L36.0,33.5 Z M34.0,29.5 L32.0,29.5 L29.5,27.0 L29.5,23.0 L31.0,21.5 L34.0,21.5 L35.5,23.0 L35.5,28.0 Z M56.5,82.0 L64.5,74.0 L64.5,73.0 L67.5,70.0 L67.5,69.0 L68.5,68.0 L68.5,67.0 L69.5,66.0 L69.5,64.0 L70.5,63.0 L70.5,60.0 L71.5,59.0 L71.5,56.0 L70.5,55.0 L70.5,53.0 L69.5,52.0 L69.5,51.0 L67.0,48.5 L66.0,48.5 L65.0,47.5 L62.0,47.5 L61.0,48.5 L60.0,48.5 L56.0,52.5 L52.0,48.5 L51.0,48.5 L50.0,47.5 L47.0,47.5 L46.0,48.5 L45.0,48.5 L44.5,48.0 L44.5,46.0 L43.5,45.0 L43.5,44.0 L43.0,43.5 L42.0,43.5 L41.0,42.5 L38.0,42.5 L37.0,43.5 L36.0,43.5 L35.0,44.5 L34.0,44.5 L33.0,43.5 L32.0,43.5 L31.0,42.5 L27.0,42.5 L24.5,45.0 L24.5,54.0 L25.5,55.0 L25.5,56.0 L26.5,57.0 L26.5,58.0 L33.5,65.0 L33.5,66.0 L34.0,66.5 L41.0,59.5 L41.5,60.0 L41.5,63.0 L42.5,64.0 L42.5,66.0 L43.5,67.0 L43.5,68.0 L45.5,70.0 L45.5,71.0 L54.5,80.0 L54.5,81.0 L55.0,81.5 L56.0,82.5 Z M112.5,82.0 L112.5,81.0 L122.5,71.0 L122.5,70.0 L123.5,69.0 L123.5,68.0 L124.5,67.0 L124.5,66.0 L125.5,65.0 L125.5,63.0 L126.5,62.0 L126.5,54.0 L125.5,53.0 L125.5,51.0 L123.0,48.5 L121.0,48.5 L120.0,47.5 L118.0,47.5 L117.0,48.5 L116.0,48.5 L112.0,52.5 L108.0,48.5 L107.0,48.5 L106.0,47.5 L103.0,47.5 L102.0,48.5 L101.0,48.5 L97.5,52.0 L97.5,54.0 L96.5,55.0 L96.5,60.0 L97.5,61.0 L97.5,64.0 L98.5,65.0 L98.5,66.0 L99.5,67.0 L99.5,68.0 L100.5,69.0 L100.5,70.0 L102.5,72.0 L102.5,73.0 L112.0,82.5 Z M56.5,127.0 L64.5,119.0 L64.5,118.0 L67.5,115.0 L67.5,114.0 L68.5,113.0 L68.5,112.0 L69.5,111.0 L69.5,109.0 L70.5,108.0 L70.5,104.0 L71.5,103.0 L71.5,101.0 L70.5,100.0 L70.5,98.0 L69.5,97.0 L69.5,96.0 L67.0,93.5 L66.0,93.5 L65.0,92.5 L62.0,92.5 L61.0,93.5 L60.0,93.5 L56.0,97.5 L55.5,97.0 L55.5,96.0 L54.0,94.5 L53.0,94.5 L52.0,93.5 L51.0,93.5 L50.0,92.5 L47.0,92.5 L46.0,93.5 L45.0,93.5 L42.5,96.0 L42.5,97.0 L41.5,98.0 L41.5,108.0 L42.5,109.0 L42.5,111.0 L43.5,112.0 L43.5,113.0 L45.5,115.0 L45.5,116.0 L54.5,125.0 L54.5,126.0 L55.0,126.5 L56.0,127.5 Z M112.5,127.0 L112.5,126.0 L122.5,116.0 L122.5,115.0 L123.5,114.0 L123.5,113.0 L124.5,112.0 L124.5,111.0 L125.5,110.0 L125.5,108.0 L126.5,107.0 L126.5,98.0 L125.5,97.0 L125.5,96.0 L124.0,94.5 L123.0,93.5 L122.0,93.5 L121.0,92.5 L118.0,92.5 L117.0,93.5 L116.0,93.5 L115.0,94.5 L114.0,94.5 L112.0,96.5 L111.0,96.5 L108.0,93.5 L107.0,93.5 L106.0,92.5 L103.0,92.5 L102.0,93.5 L101.0,93.5 L97.5,97.0 L97.5,99.0 L96.5,100.0 L96.5,105.0 L97.5,106.0 L97.5,109.0 L98.5,110.0 L98.5,111.0 L99.5,112.0 L99.5,113.0 L100.5,114.0 L100.5,115.0 L102.5,117.0 L102.5,118.0 L112.0,127.5 Z M56.5,183.0 L65.5,174.0 L65.5,173.0 L67.5,171.0 L67.5,170.0 L68.5,169.0 L68.5,168.0 L69.5,167.0 L69.5,165.0 L70.5,164.0 L70.5,161.0 L71.5,160.0 L71.5,157.0 L70.5,156.0 L70.5,154.0 L69.5,153.0 L69.5,152.0 L67.0,149.5 L65.0,149.5 L64.0,148.5 L62.0,148.5 L61.0,149.5 L60.0,149.5 L56.0,153.5 L52.0,149.5 L51.0,149.5 L50.0,148.5 L48.0,148.5 L47.0,149.5 L45.0,149.5 L42.5,152.0 L42.5,153.0 L41.5,154.0 L41.5,164.0 L42.5,165.0 L42.5,167.0 L43.5,168.0 L43.5,169.0 L44.5,170.0 L44.5,171.0 L47.5,174.0 L47.5,175.0 L56.0,183.5 Z M112.5,183.0 L113.5,182.0 L113.5,181.0 L117.0,177.5 L118.0,177.5 L119.0,176.5 L119.5,176.0 L119.5,175.0 L122.5,172.0 L122.5,171.0 L123.5,170.0 L123.5,169.0 L124.5,168.0 L124.5,167.0 L125.5,166.0 L125.5,164.0 L126.5,163.0 L126.5,155.0 L125.5,154.0 L125.5,153.0 L124.5,152.0 L124.5,151.0 L124.0,150.5 L123.0,150.5 L122.0,149.5 L121.0,149.5 L120.0,148.5 L118.0,148.5 L117.0,149.5 L116.0,149.5 L112.0,153.5 L108.0,149.5 L106.0,149.5 L105.0,148.5 L103.0,148.5 L102.0,149.5 L101.0,149.5 L97.5,153.0 L97.5,155.0 L96.5,156.0 L96.5,161.0 L97.5,162.0 L97.5,165.0 L98.5,166.0 L98.5,168.0 L100.5,170.0 L100.5,171.0 L101.5,172.0 L101.5,173.0 L112.0,183.5 Z M141.5,200.0 L143.5,198.0 L143.5,189.0 L142.5,188.0 L142.5,187.0 L141.5,186.0 L141.5,185.0 L134.5,178.0 L134.5,177.0 L134.0,176.5 L126.5,184.0 L126.5,185.0 L124.5,187.0 L124.5,189.0 L123.5,190.0 L123.5,197.0 L124.5,198.0 L124.5,199.0 L125.0,199.5 L126.0,199.5 L127.0,200.5 L130.0,200.5 L131.0,199.5 L132.0,199.5 L133.0,198.5 L134.0,198.5 L135.0,199.5 L136.0,199.5 L137.0,200.5 L141.0,200.5 Z M138.5,233.0 L139.0,232.5 L140.0,232.5 L142.5,230.0 L142.5,229.0 L143.5,228.0 L143.5,226.0 L144.5,225.0 L144.5,217.0 L143.5,216.0 L143.5,214.0 L140.0,210.5 L139.0,210.5 L138.0,209.5 L132.0,209.5 L131.0,210.5 L130.0,210.5 L127.5,213.0 L127.5,214.0 L126.5,215.0 L126.5,220.0 L127.5,221.0 L127.5,222.0 L131.0,225.5 L137.0,225.5 L138.0,224.5 L138.5,225.0 L138.5,227.0 L136.0,229.5 L134.0,229.5 L132.0,227.5 L128.0,227.5 L127.5,228.0 L127.5,230.0 L131.0,233.5 L138.0,233.5 Z M137.0,221.5 L134.0,221.5 L132.5,220.0 L132.5,215.0 L134.0,213.5 L136.0,213.5 L138.5,216.0 L138.5,220.0 Z"/><path fill="#ff0101" fill-rule="evenodd" d="M35.0,33.5 L31.0,33.5 L30.0,32.5 L29.0,32.5 L28.0,31.5 L27.0,31.5 L26.5,31.0 L26.5,30.0 L25.5,29.0 L25.5,28.0 L24.5,27.0 L24.5,16.0 L25.5,15.0 L25.5,14.0 L29.0,10.5 L30.0,10.5 L31.0,9.5 L35.0,9.5 L36.0,10.5 L37.0,10.5 L40.5,14.0 L40.0,14.5 L36.0,14.5 L35.0,13.5 L31.0,13.5 L29.5,15.0 L29.5,16.0 L28.5,17.0 L28.5,19.0 L29.0,19.5 L30.0,19.5 L31.0,18.5 L32.0,18.5 L33.0,17.5 L36.0,17.5 L37.0,18.5 L38.0,18.5 L38.5,19.0 L39.5,20.0 L39.5,21.0 L40.5,22.0 L40.5,29.0 L37.0,32.5 L36.0,32.5 Z M35.5,29.0 L35.5,28.0 L36.5,27.0 L36.5,24.0 L35.5,23.0 L35.5,22.0 L35.0,21.5 L34.0,21.5 L33.0,20.5 L32.0,20.5 L31.0,21.5 L30.0,21.5 L29.5,22.0 L29.5,23.0 L28.5,24.0 L28.5,26.0 L29.5,27.0 L29.5,28.0 L31.0,29.5 L35.0,29.5 Z M56.0,81.5 L47.5,73.0 L47.5,72.0 L44.5,69.0 L44.5,68.0 L43.5,67.0 L43.5,65.0 L42.5,64.0 L42.5,61.0 L41.5,60.0 L41.5,59.0 L41.0,58.5 L39.5,60.0 L39.5,61.0 L39.0,61.5 L38.0,62.5 L37.0,62.5 L35.5,64.0 L35.5,65.0 L35.0,65.5 L34.0,65.5 L28.5,60.0 L28.5,59.0 L26.5,57.0 L26.5,56.0 L25.5,55.0 L25.5,53.0 L24.5,52.0 L24.5,46.0 L27.0,43.5 L28.0,43.5 L29.0,42.5 L30.0,42.5 L31.0,43.5 L32.0,43.5 L34.0,45.5 L35.0,45.5 L37.0,43.5 L38.0,43.5 L39.0,42.5 L40.0,42.5 L41.0,43.5 L42.0,43.5 L43.5,45.0 L43.5,46.0 L44.5,47.0 L44.5,49.0 L45.0,49.5 L46.0,48.5 L51.0,48.5 L52.0,49.5 L53.0,49.5 L56.0,52.5 L59.0,49.5 L60.0,49.5 L61.0,48.5 L66.0,48.5 L67.0,49.5 L68.0,49.5 L68.5,50.0 L68.5,51.0 L69.5,52.0 L69.5,53.0 L70.5,54.0 L70.5,61.0 L69.5,62.0 L69.5,65.0 L68.5,66.0 L68.5,67.0 L67.5,68.0 L67.5,69.0 L65.5,71.0 L65.5,72.0 Z M112.0,81.5 L111.0,81.5 L110.5,81.0 L110.5,80.0 L101.5,71.0 L101.5,70.0 L100.5,69.0 L100.5,68.0 L99.5,67.0 L99.5,66.0 L98.5,65.0 L98.5,63.0 L97.5,62.0 L97.5,53.0 L98.5,52.0 L98.5,51.0 L100.0,49.5 L101.0,49.5 L102.0,48.5 L107.0,48.5 L109.0,50.5 L110.0,50.5 L110.5,51.0 L110.5,52.0 L111.0,52.5 L112.0,52.5 L115.0,49.5 L116.0,49.5 L117.0,48.5 L122.0,48.5 L125.5,52.0 L125.5,55.0 L126.5,56.0 L126.5,59.0 L125.5,60.0 L125.5,64.0 L124.5,65.0 L124.5,66.0 L123.5,67.0 L123.5,68.0 L122.5,69.0 L122.5,70.0 L120.5,72.0 L120.5,73.0 Z M56.0,126.5 L47.5,118.0 L47.5,117.0 L44.5,114.0 L44.5,113.0 L43.5,112.0 L43.5,110.0 L42.5,109.0 L42.5,106.0 L41.5,105.0 L41.5,100.0 L42.5,99.0 L42.5,97.0 L46.0,93.5 L51.0,93.5 L52.0,94.5 L53.0,94.5 L56.0,97.5 L59.0,94.5 L60.0,94.5 L61.0,93.5 L66.0,93.5 L67.0,94.5 L68.0,94.5 L68.5,95.0 L68.5,96.0 L69.5,97.0 L69.5,98.0 L70.5,99.0 L70.5,106.0 L69.5,107.0 L69.5,110.0 L68.5,111.0 L68.5,112.0 L67.5,113.0 L67.5,114.0 L65.5,116.0 L65.5,117.0 Z M112.0,126.5 L101.5,116.0 L101.5,115.0 L100.5,114.0 L100.5,113.0 L99.5,112.0 L99.5,111.0 L98.5,110.0 L98.5,108.0 L97.5,107.0 L97.5,98.0 L98.5,97.0 L98.5,96.0 L100.0,94.5 L101.0,94.5 L102.0,93.5 L107.0,93.5 L109.0,95.5 L110.0,95.5 L110.5,96.0 L110.5,97.0 L111.0,97.5 L112.0,97.5 L116.0,93.5 L122.0,93.5 L125.5,97.0 L125.5,100.0 L126.5,101.0 L126.5,104.0 L125.5,105.0 L125.5,109.0 L124.5,110.0 L124.5,111.0 L123.5,112.0 L123.5,113.0 L122.5,114.0 L122.5,115.0 L119.5,118.0 L119.5,119.0 Z M56.0,183.5 L55.5,183.0 L55.5,182.0 L46.5,173.0 L46.5,172.0 L44.5,170.0 L44.5,169.0 L43.5,168.0 L43.5,166.0 L42.5,165.0 L42.5,162.0 L41.5,161.0 L41.5,156.0 L42.5,155.0 L42.5,153.0 L46.0,149.5 L51.0,149.5 L52.0,150.5 L53.0,150.5 L56.0,153.5 L57.0,153.5 L61.0,149.5 L66.0,149.5 L69.5,153.0 L69.5,154.0 L70.5,155.0 L70.5,162.0 L69.5,163.0 L69.5,166.0 L68.5,167.0 L68.5,168.0 L67.5,169.0 L67.5,170.0 L66.5,171.0 L66.5,172.0 L56.5,182.0 L56.5,183.0 Z M112.0,182.5 L111.0,182.5 L110.5,182.0 L110.5,181.0 L101.5,172.0 L101.5,171.0 L100.5,170.0 L100.5,169.0 L99.5,168.0 L99.5,167.0 L98.5,166.0 L98.5,164.0 L97.5,163.0 L97.5,154.0 L102.0,149.5 L107.0,149.5 L111.0,153.5 L112.0,153.5 L115.0,150.5 L116.0,150.5 L117.0,149.5 L122.0,149.5 L125.5,153.0 L125.5,156.0 L126.5,157.0 L126.5,160.0 L125.5,161.0 L125.5,165.0 L124.5,166.0 L124.5,167.0 L123.5,168.0 L123.5,169.0 L122.5,170.0 L122.5,171.0 L120.5,173.0 L120.5,174.0 Z M139.0,200.5 L138.0,200.5 L137.0,199.5 L136.0,199.5 L134.0,197.5 L133.0,197.5 L131.0,199.5 L130.0,199.5 L129.0,200.5 L128.0,200.5 L127.0,199.5 L126.0,199.5 L124.5,198.0 L124.5,197.0 L123.5,196.0 L123.5,192.0 L124.5,191.0 L124.5,188.0 L125.5,187.0 L125.5,186.0 L128.5,183.0 L128.5,182.0 L129.0,181.5 L130.0,181.5 L132.5,179.0 L132.5,178.0 L133.0,177.5 L134.0,177.5 L139.5,183.0 L139.5,184.0 L141.5,186.0 L141.5,187.0 L142.5,188.0 L142.5,190.0 L143.5,191.0 L143.5,197.0 L141.0,199.5 L140.0,199.5 Z M137.0,233.5 L133.0,233.5 L132.0,232.5 L131.0,232.5 L127.5,229.0 L128.0,228.5 L132.0,228.5 L133.0,229.5 L137.0,229.5 L138.5,228.0 L138.5,227.0 L139.5,226.0 L139.5,224.0 L139.0,223.5 L138.0,223.5 L137.0,224.5 L136.0,224.5 L135.0,225.5 L132.0,225.5 L131.0,224.5 L130.0,224.5 L127.5,222.0 L127.5,214.0 L131.0,210.5 L132.0,210.5 L133.0,209.5 L137.0,209.5 L138.0,210.5 L139.0,210.5 L140.0,211.5 L141.0,211.5 L141.5,212.0 L141.5,213.0 L142.5,214.0 L142.5,215.0 L143.5,216.0 L143.5,227.0 L142.5,228.0 L142.5,229.0 L141.5,230.0 L139.0,232.5 L138.0,232.5 Z M136.5,222.0 L137.0,221.5 L138.0,221.5 L138.5,221.0 L138.5,220.0 L139.5,219.0 L139.5,217.0 L138.5,216.0 L138.5,215.0 L137.0,213.5 L133.0,213.5 L132.5,214.0 L132.5,215.0 L131.5,216.0 L131.5,219.0 L132.5,220.0 L132.5,221.0 L133.0,221.5 L134.0,221.5 L135.0,222.5 L136.0,222.5 Z"/><path fill="#ffa2a2" fill-rule="evenodd" d="M40.0,15.5 L39.0,15.5 L38.5,15.0 L39.0,14.5 L40.0,14.5 L40.5,15.0 Z M29.0,18.5 L28.5,18.0 L28.5,17.0 L29.0,16.5 L29.5,17.0 L29.5,18.0 Z M36.0,27.5 L35.5,27.0 L35.5,24.0 L36.0,23.5 L36.5,24.0 L36.5,27.0 Z M24.0,26.5 L23.5,26.0 L23.5,25.0 L24.0,24.5 L24.5,25.0 L24.5,26.0 Z M35.0,45.5 L34.0,45.5 L33.5,45.0 L34.0,44.5 L35.0,44.5 L35.5,45.0 Z M50.0,48.5 L47.0,48.5 L46.5,48.0 L47.0,47.5 L50.0,47.5 L50.5,48.0 Z M65.0,48.5 L62.0,48.5 L61.5,48.0 L62.0,47.5 L65.0,47.5 L65.5,48.0 Z M106.0,48.5 L103.0,48.5 L102.5,48.0 L103.0,47.5 L106.0,47.5 L106.5,48.0 Z M120.0,48.5 L118.0,48.5 L117.5,48.0 L118.0,47.5 L120.0,47.5 L120.5,48.0 Z M97.0,60.5 L96.5,60.0 L96.5,58.0 L96.5,55.0 L97.0,54.5 L97.5,55.0 L97.5,60.0 Z M71.0,59.5 L70.5,59.0 L70.5,58.0 L70.5,56.0 L71.0,55.5 L71.5,56.0 L71.5,59.0 Z M97.0,105.5 L96.5,105.0 L96.5,100.0 L97.0,99.5 L97.5,100.0 L97.5,105.0 Z M71.0,103.5 L70.5,103.0 L70.5,101.0 L71.0,100.5 L71.5,101.0 L71.5,103.0 Z M50.0,149.5 L48.0,149.5 L47.5,149.0 L48.0,148.5 L50.0,148.5 L50.5,149.0 Z M64.0,149.5 L62.0,149.5 L61.5,149.0 L62.0,148.5 L64.0,148.5 L64.5,149.0 Z M105.0,149.5 L103.0,149.5 L102.5,149.0 L103.0,148.5 L105.0,148.5 L105.5,149.0 Z M120.0,149.5 L118.0,149.5 L117.5,149.0 L118.0,148.5 L120.0,148.5 L120.5,149.0 Z M97.0,161.5 L96.5,161.0 L96.5,156.0 L97.0,155.5 L97.5,156.0 L97.5,161.0 Z M71.0,160.5 L70.5,160.0 L70.5,157.0 L71.0,156.5 L71.5,157.0 L71.5,160.0 Z M134.0,198.5 L133.0,198.5 L132.5,198.0 L133.0,197.5 L134.0,197.5 L134.5,198.0 Z M132.0,219.5 L131.5,219.0 L131.5,216.0 L132.0,215.5 L132.5,216.0 L132.5,219.0 Z M144.0,218.5 L143.5,218.0 L143.5,217.0 L144.0,216.5 L144.5,217.0 L144.5,218.0 Z M139.0,226.5 L138.5,226.0 L138.5,224.0 L139.0,223.5 L139.5,224.0 L139.5,226.0 Z M129.0,228.5 L128.0,228.5 L127.5,228.0 L128.0,227.5 L129.0,227.5 L129.5,228.0 Z"/><path fill="#ff6161" fill-rule="evenodd" d="M38.0,15.5 L36.0,15.5 L35.5,15.0 L36.0,14.5 L38.0,14.5 L38.5,15.0 Z M24.0,24.5 L23.5,24.0 L23.5,19.0 L24.0,18.5 L24.5,19.0 L24.5,24.0 Z M33.0,21.5 L32.0,21.5 L31.5,21.0 L32.0,20.5 L33.0,20.5 L33.5,21.0 Z M29.0,26.5 L28.5,26.0 L28.5,24.0 L29.0,23.5 L29.5,24.0 L29.5,26.0 Z M41.0,27.5 L40.5,27.0 L40.5,24.0 L41.0,23.5 L41.5,24.0 L41.5,27.0 Z M126.0,55.5 L125.5,55.0 L125.5,54.0 L126.0,53.5 L126.5,54.0 L126.5,55.0 Z M126.0,61.5 L125.5,61.0 L125.5,60.0 L126.0,59.5 L126.5,60.0 L126.5,61.0 Z M42.0,62.5 L41.5,62.0 L41.5,61.0 L42.0,60.5 L42.5,61.0 L42.5,62.0 Z M50.0,93.5 L48.0,93.5 L47.5,93.0 L48.0,92.5 L50.0,92.5 L50.5,93.0 Z M64.0,93.5 L63.0,93.5 L62.5,93.0 L63.0,92.5 L64.0,92.5 L64.5,93.0 Z M105.0,93.5 L104.0,93.5 L103.5,93.0 L104.0,92.5 L105.0,92.5 L105.5,93.0 Z M120.0,93.5 L118.0,93.5 L117.5,93.0 L118.0,92.5 L120.0,92.5 L120.5,93.0 Z M126.0,100.5 L125.5,100.0 L125.5,99.0 L126.0,98.5 L126.5,99.0 L126.5,100.0 Z M126.0,106.5 L125.5,106.0 L125.5,105.0 L126.0,104.5 L126.5,105.0 L126.5,106.0 Z M42.0,107.5 L41.5,107.0 L41.5,106.0 L42.0,105.5 L42.5,106.0 L42.5,107.0 Z M126.0,156.5 L125.5,156.0 L125.5,155.0 L126.0,154.5 L126.5,155.0 L126.5,156.0 Z M126.0,162.5 L125.5,162.0 L125.5,161.0 L126.0,160.5 L126.5,161.0 L126.5,162.0 Z M42.0,163.5 L41.5,163.0 L41.5,162.0 L42.0,161.5 L42.5,162.0 L42.5,163.0 Z M70.0,164.5 L69.5,164.0 L69.5,163.0 L70.0,162.5 L70.5,163.0 L70.5,164.0 Z M127.0,219.5 L126.5,219.0 L126.5,216.0 L127.0,215.5 L127.5,216.0 L127.5,219.0 Z M139.0,219.5 L138.5,219.0 L138.5,217.0 L139.0,216.5 L139.5,217.0 L139.5,219.0 Z M144.0,224.5 L143.5,224.0 L143.5,219.0 L144.0,218.5 L144.5,219.0 L144.5,224.0 Z M136.0,222.5 L135.0,222.5 L134.5,222.0 L135.0,221.5 L136.0,221.5 L136.5,222.0 Z M132.0,228.5 L130.0,228.5 L129.5,228.0 L130.0,227.5 L132.0,227.5 L132.5,228.0 Z"/></svg>