
<svg width="169" height="244" viewBox="0 0 169 244" fill="none" xmlns="http://www.w3.org/2000/svg">
  <!-- 카드 배경 -->
  <rect width="169" height="244" rx="12" fill="white" stroke="#E5E5E5"/>
  
  <!-- 좌상단 숫자와 무늬 -->
  <g transform="translate(20, 30)">
    <text font-family="Arial" font-size="24" font-weight="bold" fill="#FF0000">Q</text>
    <g transform="translate(8, 14) scale(0.8)">
      <path d="M0,10
        C-5,5 -10,0 -10,-5
        C-10,-9 -7,-10 -5,-10
        C-2,-10 0,-8 0,-5
        C0,-8 2,-10 5,-10
        C7,-10 10,-9 10,-5
        C10,0 5,5 0,10Z" fill="red" />
    </g>
  </g>
  
  <!-- 우하단 숫자와 무늬 (180도 회전) -->
  <g transform="translate(149, 214) rotate(180)">
    <text font-family="Arial" font-size="24" font-weight="bold" fill="#FF0000">Q</text>
    <g transform="translate(8, 14) scale(0.8)">
      <path d="M0,10
        C-5,5 -10,0 -10,-5
        C-10,-9 -7,-10 -5,-10
        C-2,-10 0,-8 0,-5
        C0,-8 2,-10 5,-10
        C7,-10 10,-9 10,-5
        C10,0 5,5 0,10Z" fill="red" />
    </g>
  </g>
  
  <!-- 중앙 이미지 -->
  <g transform="translate(84.5, 122)">
    
        <!-- 왕관 -->
        <path d="M-15 -40 L15 -40 L10 -30 L5 -35 L0 -25 L-5 -35 L-10 -30 Z" fill="#FFD700"/>
        <!-- 얼굴 -->
        <circle cx="0" cy="-15" r="18" fill="#FFE4B5"/>
        <!-- 눈 -->
        <circle cx="-6" cy="-18" r="1.5" fill="#000000"/>
        <circle cx="6" cy="-18" r="1.5" fill="#000000"/>
        <!-- 코 -->
        <path d="M0 -15 Q1 -12 0 -10" stroke="#000000" fill="none"/>
        <!-- 입 -->
        <path d="M-4 -5 Q0 -2 4 -5" stroke="#000000" fill="none"/>
        <!-- 드레스 -->
        <path d="M-15 10 Q0 45 15 10" fill="#FF69B4"/>
      
  </g>
</svg>
