<?xml version="1.0" encoding="UTF-8"?><svg xmlns="http://www.w3.org/2000/svg" width="169" height="244" viewBox="0 0 169 244" shape-rendering="geometricPrecision"><path fill="#fefefe" fill-rule="evenodd" d="M160.0,243.5 L8.0,243.5 L7.0,242.5 L6.0,242.5 L0.5,237.0 L0.5,236.0 L-0.5,235.0 L-0.5,8.0 L0.5,7.0 L0.5,6.0 L1.5,5.0 L1.5,4.0 L4.0,1.5 L5.0,1.5 L6.0,0.5 L7.0,0.5 L8.0,-0.5 L160.0,-0.5 L161.0,0.5 L162.0,0.5 L167.5,6.0 L167.5,7.0 L168.5,8.0 L168.5,235.0 L167.5,236.0 L167.5,237.0 L166.5,238.0 L166.5,239.0 L164.0,241.5 L163.0,241.5 L162.0,242.5 L161.0,242.5 Z M41.5,33.0 L41.5,30.0 L41.0,29.5 L31.0,29.5 L30.5,29.0 L30.5,28.0 L32.0,26.5 L33.0,26.5 L37.0,22.5 L38.0,22.5 L38.5,22.0 L38.5,21.0 L40.5,19.0 L40.5,13.0 L38.0,10.5 L37.0,10.5 L36.0,9.5 L29.0,9.5 L28.0,10.5 L27.0,10.5 L24.5,13.0 L24.5,14.0 L23.5,15.0 L23.5,16.0 L24.0,16.5 L29.0,16.5 L29.5,16.0 L29.5,15.0 L31.0,13.5 L34.0,13.5 L35.5,15.0 L35.5,17.0 L34.5,18.0 L34.5,19.0 L32.0,21.5 L31.0,21.5 L24.5,28.0 L24.5,29.0 L23.5,30.0 L23.5,33.0 L24.0,33.5 L41.0,33.5 Z M34.5,66.0 L41.5,59.0 L41.5,58.0 L43.5,56.0 L43.5,54.0 L44.5,53.0 L44.5,46.0 L43.5,45.0 L43.5,44.0 L43.0,43.5 L42.0,43.5 L41.0,42.5 L38.0,42.5 L37.0,43.5 L36.0,43.5 L35.0,44.5 L34.0,44.5 L33.0,43.5 L32.0,43.5 L31.0,42.5 L27.0,42.5 L24.5,45.0 L24.5,54.0 L25.5,55.0 L25.5,56.0 L26.5,57.0 L26.5,58.0 L33.5,65.0 L33.5,66.0 L34.0,66.5 Z M84.5,85.0 L84.5,84.0 L94.5,74.0 L94.5,73.0 L97.5,70.0 L97.5,69.0 L98.5,68.0 L98.5,66.0 L99.5,65.0 L99.5,63.0 L100.5,62.0 L100.5,59.0 L101.5,58.0 L101.5,55.0 L100.5,54.0 L100.5,51.0 L99.5,50.0 L99.5,49.0 L97.0,46.5 L96.0,46.5 L95.0,45.5 L89.0,45.5 L84.0,50.5 L80.0,46.5 L79.0,46.5 L78.0,45.5 L73.0,45.5 L72.0,46.5 L71.0,46.5 L68.5,49.0 L68.5,50.0 L67.5,51.0 L67.5,53.0 L66.5,54.0 L66.5,59.0 L67.5,60.0 L67.5,63.0 L68.5,64.0 L68.5,66.0 L69.5,67.0 L69.5,68.0 L70.5,69.0 L70.5,70.0 L72.5,72.0 L72.5,73.0 L82.5,83.0 L82.5,84.0 L84.0,85.5 Z M84.5,186.0 L84.5,185.0 L95.5,174.0 L95.5,173.0 L97.5,171.0 L97.5,170.0 L98.5,169.0 L98.5,168.0 L99.5,167.0 L99.5,165.0 L100.5,164.0 L100.5,160.0 L101.5,159.0 L101.5,156.0 L100.5,155.0 L100.5,152.0 L99.5,151.0 L99.5,150.0 L97.0,147.5 L96.0,147.5 L95.0,146.5 L90.0,146.5 L89.0,147.5 L88.0,147.5 L84.0,151.5 L80.0,147.5 L79.0,147.5 L78.0,146.5 L73.0,146.5 L72.0,147.5 L71.0,147.5 L68.5,150.0 L68.5,151.0 L67.5,152.0 L67.5,154.0 L66.5,155.0 L66.5,160.0 L67.5,161.0 L67.5,164.0 L68.5,165.0 L68.5,167.0 L69.5,168.0 L69.5,169.0 L70.5,170.0 L70.5,171.0 L72.5,173.0 L72.5,174.0 L82.5,184.0 L82.5,185.0 L83.5,186.0 L84.0,186.5 Z M141.5,200.0 L143.5,198.0 L143.5,189.0 L142.5,188.0 L142.5,187.0 L141.5,186.0 L141.5,185.0 L134.5,178.0 L134.5,177.0 L134.0,176.5 L126.5,184.0 L126.5,185.0 L124.5,187.0 L124.5,189.0 L123.5,190.0 L123.5,197.0 L124.5,198.0 L124.5,199.0 L125.0,199.5 L126.0,199.5 L127.0,200.5 L130.0,200.5 L131.0,199.5 L132.0,199.5 L133.0,198.5 L134.0,198.5 L135.0,199.5 L136.0,199.5 L137.0,200.5 L141.0,200.5 Z M139.5,233.0 L140.0,232.5 L141.0,232.5 L143.5,230.0 L143.5,228.0 L144.5,227.0 L144.0,226.5 L139.0,226.5 L138.5,227.0 L138.5,228.0 L137.0,229.5 L134.0,229.5 L132.5,228.0 L132.5,226.0 L133.5,225.0 L133.5,224.0 L136.0,221.5 L137.0,221.5 L143.5,215.0 L143.5,214.0 L144.5,213.0 L144.5,210.0 L144.0,209.5 L127.0,209.5 L126.5,210.0 L126.5,213.0 L127.0,213.5 L137.0,213.5 L137.5,214.0 L137.5,215.0 L136.0,216.5 L135.0,216.5 L131.0,220.5 L130.0,220.5 L129.5,221.0 L129.5,222.0 L127.5,224.0 L127.5,230.0 L130.0,232.5 L131.0,232.5 L132.0,233.5 L139.0,233.5 Z"/><path fill="#ff0202" fill-rule="evenodd" d="M40.0,33.5 L24.0,33.5 L23.5,33.0 L23.5,31.0 L24.5,30.0 L24.5,29.0 L35.5,18.0 L35.5,15.0 L34.0,13.5 L30.0,13.5 L29.5,14.0 L29.5,15.0 L28.0,16.5 L25.0,16.5 L24.5,16.0 L24.5,14.0 L28.0,10.5 L29.0,10.5 L30.0,9.5 L34.0,9.5 L35.0,10.5 L37.0,10.5 L40.5,14.0 L40.5,18.0 L39.5,19.0 L39.5,20.0 L35.0,24.5 L34.0,24.5 L29.5,29.0 L30.0,29.5 L40.0,29.5 L40.5,30.0 L40.5,33.0 Z M35.0,65.5 L34.0,65.5 L28.5,60.0 L28.5,59.0 L26.5,57.0 L26.5,56.0 L25.5,55.0 L25.5,53.0 L24.5,52.0 L24.5,46.0 L27.0,43.5 L28.0,43.5 L29.0,42.5 L30.0,42.5 L31.0,43.5 L32.0,43.5 L34.0,45.5 L35.0,45.5 L37.0,43.5 L38.0,43.5 L39.0,42.5 L40.0,42.5 L41.0,43.5 L42.0,43.5 L43.5,45.0 L43.5,46.0 L44.5,47.0 L44.5,51.0 L43.5,52.0 L43.5,55.0 L42.5,56.0 L42.5,57.0 L39.5,60.0 L39.5,61.0 L39.0,61.5 L38.0,62.5 L37.0,62.5 L35.5,64.0 L35.5,65.0 Z M84.0,84.5 L82.5,83.0 L82.5,82.0 L71.5,71.0 L71.5,70.0 L70.5,69.0 L70.5,68.0 L69.5,67.0 L69.5,66.0 L68.5,65.0 L68.5,62.0 L67.5,61.0 L67.5,52.0 L68.5,51.0 L68.5,50.0 L72.0,46.5 L73.0,46.5 L74.0,45.5 L77.0,45.5 L78.0,46.5 L79.0,46.5 L80.0,47.5 L81.0,47.5 L84.0,50.5 L87.0,47.5 L88.0,47.5 L89.0,46.5 L90.0,46.5 L91.0,45.5 L94.0,45.5 L95.0,46.5 L96.0,46.5 L99.5,50.0 L99.5,52.0 L100.5,53.0 L100.5,61.0 L99.5,62.0 L99.5,64.0 L98.5,65.0 L98.5,67.0 L97.5,68.0 L97.5,69.0 L95.5,71.0 L95.5,72.0 L84.5,83.0 L84.5,84.0 Z M84.0,185.5 L74.5,176.0 L74.5,175.0 L71.5,172.0 L71.5,171.0 L70.5,170.0 L70.5,169.0 L69.5,168.0 L69.5,167.0 L68.5,166.0 L68.5,163.0 L67.5,162.0 L67.5,153.0 L68.5,152.0 L68.5,151.0 L72.0,147.5 L73.0,147.5 L74.0,146.5 L77.0,146.5 L78.0,147.5 L79.0,147.5 L81.0,149.5 L82.0,149.5 L82.5,150.0 L82.5,151.0 L83.0,151.5 L84.0,151.5 L87.0,148.5 L88.0,148.5 L89.0,147.5 L90.0,147.5 L91.0,146.5 L94.0,146.5 L95.0,147.5 L96.0,147.5 L99.5,151.0 L99.5,153.0 L100.5,154.0 L100.5,162.0 L99.5,163.0 L99.5,165.0 L98.5,166.0 L98.5,168.0 L97.5,169.0 L97.5,170.0 L95.5,172.0 L95.5,173.0 L92.5,176.0 L92.5,177.0 L90.0,179.5 L89.0,179.5 L85.5,183.0 L85.5,184.0 Z M139.0,200.5 L138.0,200.5 L137.0,199.5 L136.0,199.5 L134.0,197.5 L133.0,197.5 L131.0,199.5 L130.0,199.5 L129.0,200.5 L128.0,200.5 L127.0,199.5 L126.0,199.5 L124.5,198.0 L124.5,197.0 L123.5,196.0 L123.5,192.0 L124.5,191.0 L124.5,188.0 L125.5,187.0 L125.5,186.0 L128.5,183.0 L128.5,182.0 L129.0,181.5 L130.0,181.5 L132.5,179.0 L132.5,178.0 L133.0,177.5 L134.0,177.5 L139.5,183.0 L139.5,184.0 L141.5,186.0 L141.5,187.0 L142.5,188.0 L142.5,190.0 L143.5,191.0 L143.5,197.0 L141.0,199.5 L140.0,199.5 Z M138.0,233.5 L133.0,233.5 L132.0,232.5 L131.0,232.5 L127.5,229.0 L127.5,225.0 L128.5,224.0 L128.5,223.0 L132.0,219.5 L133.0,218.5 L134.0,218.5 L138.5,214.0 L138.0,213.5 L128.0,213.5 L127.5,213.0 L127.5,210.0 L128.0,209.5 L144.0,209.5 L144.5,210.0 L144.5,212.0 L143.5,213.0 L143.5,214.0 L132.5,225.0 L132.5,228.0 L134.0,229.5 L138.0,229.5 L138.5,229.0 L138.5,228.0 L140.0,226.5 L143.0,226.5 L143.5,227.0 L143.5,229.0 L140.0,232.5 L139.0,232.5 Z"/><path fill="#ff5d5d" fill-rule="evenodd" d="M36.0,10.5 L35.0,10.5 L34.5,10.0 L35.0,9.5 L36.0,9.5 L36.5,10.0 Z M41.0,33.5 L40.5,33.0 L40.5,30.0 L41.0,29.5 L41.5,30.0 L41.5,33.0 Z M68.0,164.5 L67.5,164.0 L67.5,163.0 L68.0,162.5 L68.5,163.0 L68.5,164.0 Z M127.0,213.5 L126.5,213.0 L126.5,210.0 L127.0,209.5 L127.5,210.0 L127.5,213.0 Z"/><path fill="#ffa2a2" fill-rule="evenodd" d="M24.0,16.5 L23.5,16.0 L23.5,15.0 L24.0,14.5 L24.5,15.0 L24.5,16.0 Z M35.0,45.5 L34.0,45.5 L33.5,45.0 L34.0,44.5 L35.0,44.5 L35.5,45.0 Z M67.0,59.5 L66.5,59.0 L66.5,58.0 L66.5,54.0 L67.0,53.5 L67.5,54.0 L67.5,59.0 Z M101.0,58.5 L100.5,58.0 L100.5,55.0 L101.0,54.5 L101.5,55.0 L101.5,58.0 Z M67.0,160.5 L66.5,160.0 L66.5,155.0 L67.0,154.5 L67.5,155.0 L67.5,160.0 Z M101.0,159.5 L100.5,159.0 L100.5,156.0 L101.0,155.5 L101.5,156.0 L101.5,159.0 Z M134.0,198.5 L133.0,198.5 L132.5,198.0 L133.0,197.5 L134.0,197.5 L134.5,198.0 Z"/></svg>