<?xml version="1.0" encoding="UTF-8"?><svg xmlns="http://www.w3.org/2000/svg" width="169" height="244" viewBox="0 0 169 244" shape-rendering="geometricPrecision"><path fill="#fefefe" fill-rule="evenodd" d="M160.0,243.5 L8.0,243.5 L7.0,242.5 L6.0,242.5 L0.5,237.0 L0.5,236.0 L-0.5,235.0 L-0.5,8.0 L0.5,7.0 L0.5,6.0 L1.5,5.0 L1.5,4.0 L4.0,1.5 L5.0,1.5 L6.0,0.5 L7.0,0.5 L8.0,-0.5 L160.0,-0.5 L161.0,0.5 L162.0,0.5 L167.5,6.0 L167.5,7.0 L168.5,8.0 L168.5,235.0 L167.5,236.0 L167.5,237.0 L166.5,238.0 L166.5,239.0 L164.0,241.5 L163.0,241.5 L162.0,242.5 L161.0,242.5 Z M35.5,33.0 L36.0,32.5 L37.0,32.5 L39.5,30.0 L39.5,29.0 L40.5,28.0 L40.5,26.0 L41.5,25.0 L41.5,17.0 L40.5,16.0 L40.5,14.0 L36.0,9.5 L29.0,9.5 L28.0,10.5 L27.0,10.5 L24.5,13.0 L24.5,14.0 L23.5,15.0 L23.5,20.0 L25.5,22.0 L25.5,23.0 L26.0,23.5 L27.0,23.5 L28.0,24.5 L34.0,24.5 L35.0,23.5 L35.5,24.0 L35.5,27.0 L33.0,29.5 L31.0,29.5 L28.0,26.5 L27.0,27.5 L25.0,27.5 L24.5,28.0 L24.5,30.0 L28.0,33.5 L35.0,33.5 Z M34.0,20.5 L31.0,20.5 L29.5,19.0 L29.5,15.0 L31.0,13.5 L34.0,13.5 L35.5,15.0 L35.5,19.0 Z M57.5,78.0 L57.5,77.0 L65.5,69.0 L65.5,68.0 L67.5,66.0 L67.5,64.0 L68.5,63.0 L68.5,61.0 L69.5,60.0 L69.5,54.0 L68.5,53.0 L68.5,52.0 L67.5,51.0 L67.5,50.0 L67.0,49.5 L66.0,49.5 L65.0,48.5 L60.0,48.5 L57.0,51.5 L56.0,51.5 L54.0,49.5 L53.0,49.5 L52.0,48.5 L47.0,48.5 L45.0,50.5 L44.5,50.0 L44.5,46.0 L43.5,45.0 L43.5,44.0 L43.0,43.5 L42.0,43.5 L41.0,42.5 L38.0,42.5 L37.0,43.5 L36.0,43.5 L35.0,44.5 L34.0,44.5 L33.0,43.5 L32.0,43.5 L31.0,42.5 L27.0,42.5 L24.5,45.0 L24.5,54.0 L25.5,55.0 L25.5,56.0 L26.5,57.0 L26.5,58.0 L33.5,65.0 L33.5,66.0 L34.0,66.5 L41.5,59.0 L41.5,58.0 L42.0,57.5 L42.5,58.0 L42.5,59.0 L43.5,60.0 L43.5,63.0 L44.5,64.0 L44.5,65.0 L45.5,66.0 L45.5,67.0 L47.5,69.0 L47.5,70.0 L56.0,78.5 L57.0,78.5 Z M112.5,78.0 L120.5,70.0 L120.5,69.0 L122.5,67.0 L122.5,66.0 L123.5,65.0 L123.5,63.0 L124.5,62.0 L124.5,59.0 L125.5,58.0 L125.5,56.0 L124.5,55.0 L124.5,52.0 L121.0,48.5 L116.0,48.5 L115.0,49.5 L114.0,49.5 L112.0,51.5 L111.0,51.5 L108.0,48.5 L102.0,48.5 L99.5,51.0 L99.5,52.0 L98.5,53.0 L98.5,61.0 L99.5,62.0 L99.5,64.0 L100.5,65.0 L100.5,66.0 L101.5,67.0 L101.5,68.0 L110.5,77.0 L110.5,78.0 L111.0,78.5 L112.0,78.5 Z M56.5,113.0 L64.5,105.0 L64.5,104.0 L66.5,102.0 L66.5,101.0 L67.5,100.0 L67.5,99.0 L68.5,98.0 L68.5,96.0 L69.5,95.0 L69.5,89.0 L68.5,88.0 L68.5,86.0 L66.0,83.5 L65.0,83.5 L64.0,82.5 L61.0,82.5 L60.0,83.5 L59.0,83.5 L56.0,86.5 L53.0,83.5 L52.0,83.5 L51.0,82.5 L48.0,82.5 L47.0,83.5 L46.0,83.5 L44.5,85.0 L44.5,86.0 L43.5,87.0 L43.5,88.0 L42.5,89.0 L42.5,93.0 L43.5,94.0 L43.5,97.0 L44.5,98.0 L44.5,100.0 L45.5,101.0 L45.5,102.0 L48.5,105.0 L48.5,106.0 L56.0,113.5 Z M84.5,113.0 L92.5,105.0 L92.5,104.0 L94.5,102.0 L94.5,101.0 L95.5,100.0 L95.5,98.0 L96.5,97.0 L96.5,94.0 L97.5,93.0 L97.5,90.0 L96.5,89.0 L96.5,87.0 L95.5,86.0 L95.5,85.0 L94.0,83.5 L93.0,83.5 L92.0,82.5 L89.0,82.5 L88.0,83.5 L87.0,83.5 L84.0,86.5 L81.0,83.5 L80.0,83.5 L79.0,82.5 L76.0,82.5 L75.0,83.5 L74.0,83.5 L71.5,86.0 L71.5,88.0 L70.5,89.0 L70.5,94.0 L71.5,95.0 L71.5,98.0 L72.5,99.0 L72.5,100.0 L73.5,101.0 L73.5,102.0 L75.5,104.0 L75.5,105.0 L84.0,113.5 Z M112.5,113.0 L118.5,107.0 L118.5,106.0 L121.5,103.0 L121.5,102.0 L122.5,101.0 L122.5,100.0 L123.5,99.0 L123.5,98.0 L124.5,97.0 L124.5,93.0 L125.5,92.0 L125.5,90.0 L124.5,89.0 L124.5,87.0 L123.5,86.0 L123.5,85.0 L122.0,83.5 L121.0,83.5 L120.0,82.5 L117.0,82.5 L116.0,83.5 L115.0,83.5 L112.0,86.5 L110.0,84.5 L109.0,84.5 L108.0,83.5 L107.0,83.5 L106.0,82.5 L104.0,82.5 L103.0,83.5 L102.0,83.5 L99.5,86.0 L99.5,87.0 L98.5,88.0 L98.5,95.0 L99.5,96.0 L99.5,98.0 L100.5,99.0 L100.5,101.0 L102.5,103.0 L102.5,104.0 L112.0,113.5 Z M56.5,148.0 L63.5,141.0 L63.5,140.0 L66.5,137.0 L66.5,136.0 L67.5,135.0 L67.5,134.0 L68.5,133.0 L68.5,130.0 L69.5,129.0 L69.5,123.0 L68.5,122.0 L68.5,121.0 L65.0,117.5 L61.0,117.5 L60.0,118.5 L59.0,118.5 L56.0,121.5 L52.0,117.5 L47.0,117.5 L43.5,121.0 L43.5,123.0 L42.5,124.0 L42.5,128.0 L43.5,129.0 L43.5,132.0 L44.5,133.0 L44.5,134.0 L45.5,135.0 L45.5,136.0 L46.5,137.0 L46.5,138.0 L54.5,146.0 L54.5,147.0 L56.0,148.5 Z M112.5,148.0 L112.5,147.0 L121.5,138.0 L121.5,137.0 L122.5,136.0 L122.5,135.0 L123.5,134.0 L123.5,133.0 L124.5,132.0 L124.5,128.0 L125.5,127.0 L125.5,125.0 L124.5,124.0 L124.5,122.0 L123.5,121.0 L123.5,120.0 L122.0,118.5 L121.0,118.5 L120.0,117.5 L116.0,117.5 L112.0,121.5 L109.0,118.5 L108.0,118.5 L107.0,117.5 L103.0,117.5 L99.5,121.0 L99.5,122.0 L98.5,123.0 L98.5,130.0 L99.5,131.0 L99.5,133.0 L100.5,134.0 L100.5,135.0 L101.5,136.0 L101.5,137.0 L103.5,139.0 L103.5,140.0 L112.0,148.5 Z M57.5,182.0 L57.5,181.0 L65.5,173.0 L65.5,172.0 L67.5,170.0 L67.5,168.0 L68.5,167.0 L68.5,165.0 L69.5,164.0 L69.5,158.0 L68.5,157.0 L68.5,156.0 L67.5,155.0 L67.5,154.0 L67.0,153.5 L66.0,153.5 L65.0,152.5 L60.0,152.5 L57.0,155.5 L56.0,155.5 L54.0,153.5 L53.0,153.5 L52.0,152.5 L47.0,152.5 L43.5,156.0 L43.5,158.0 L42.5,159.0 L42.5,163.0 L43.5,164.0 L43.5,167.0 L44.5,168.0 L44.5,169.0 L45.5,170.0 L45.5,171.0 L47.5,173.0 L47.5,174.0 L56.0,182.5 L57.0,182.5 Z M112.5,182.0 L120.5,174.0 L120.5,173.0 L122.5,171.0 L122.5,170.0 L123.5,169.0 L123.5,167.0 L124.5,166.0 L124.5,163.0 L125.5,162.0 L125.5,160.0 L124.5,159.0 L124.5,156.0 L121.0,152.5 L116.0,152.5 L115.0,153.5 L114.0,153.5 L112.0,155.5 L111.0,155.5 L108.0,152.5 L102.0,152.5 L99.5,155.0 L99.5,156.0 L98.5,157.0 L98.5,165.0 L99.5,166.0 L99.5,168.0 L100.5,169.0 L100.5,170.0 L101.5,171.0 L101.5,172.0 L110.5,181.0 L110.5,182.0 L111.0,182.5 L112.0,182.5 Z M141.5,200.0 L143.5,198.0 L143.5,189.0 L142.5,188.0 L142.5,187.0 L141.5,186.0 L141.5,185.0 L134.5,178.0 L134.5,177.0 L134.0,176.5 L126.5,184.0 L126.5,185.0 L124.5,187.0 L124.5,189.0 L123.5,190.0 L123.5,197.0 L124.5,198.0 L124.5,199.0 L125.0,199.5 L126.0,199.5 L127.0,200.5 L130.0,200.5 L131.0,199.5 L132.0,199.5 L133.0,198.5 L134.0,198.5 L135.0,199.5 L136.0,199.5 L137.0,200.5 L141.0,200.5 Z M139.5,233.0 L140.0,232.5 L141.0,232.5 L143.5,230.0 L143.5,229.0 L144.5,228.0 L144.5,223.0 L142.5,221.0 L142.5,220.0 L142.0,219.5 L141.0,219.5 L140.0,218.5 L134.0,218.5 L133.0,219.5 L132.5,219.0 L132.5,216.0 L135.0,213.5 L137.0,213.5 L140.0,216.5 L141.0,215.5 L143.0,215.5 L143.5,215.0 L143.5,213.0 L140.0,209.5 L133.0,209.5 L132.0,210.5 L131.0,210.5 L128.5,213.0 L128.5,214.0 L127.5,215.0 L127.5,217.0 L126.5,218.0 L126.5,226.0 L127.5,227.0 L127.5,229.0 L132.0,233.5 L139.0,233.5 Z M137.0,229.5 L134.0,229.5 L132.5,228.0 L132.5,224.0 L134.0,222.5 L137.0,222.5 L138.5,224.0 L138.5,228.0 Z"/><path fill="#ff0101" fill-rule="evenodd" d="M34.0,33.5 L30.0,33.5 L29.0,32.5 L28.0,32.5 L27.0,31.5 L26.0,31.5 L25.5,31.0 L25.5,30.0 L24.5,29.0 L24.5,28.0 L25.0,27.5 L28.0,27.5 L30.0,29.5 L34.0,29.5 L35.5,28.0 L35.5,27.0 L36.5,26.0 L36.5,23.0 L36.0,22.5 L35.0,22.5 L34.0,23.5 L33.0,23.5 L32.0,24.5 L29.0,24.5 L28.0,23.5 L27.0,23.5 L24.5,21.0 L24.5,14.0 L25.5,13.0 L25.5,12.0 L26.0,11.5 L27.0,11.5 L28.0,10.5 L29.0,10.5 L30.0,9.5 L34.0,9.5 L35.0,10.5 L37.0,10.5 L39.5,13.0 L39.5,14.0 L40.5,15.0 L40.5,27.0 L39.5,28.0 L39.5,29.0 L36.0,32.5 L35.0,32.5 Z M33.5,21.0 L34.0,20.5 L35.0,20.5 L35.5,20.0 L35.5,19.0 L36.5,18.0 L36.5,17.0 L35.5,16.0 L35.5,15.0 L34.0,13.5 L30.0,13.5 L29.5,14.0 L29.5,15.0 L28.5,16.0 L28.5,19.0 L30.0,20.5 L31.0,20.5 L32.0,21.5 L33.0,21.5 Z M56.0,78.5 L55.5,78.0 L55.5,77.0 L46.5,68.0 L46.5,67.0 L45.5,66.0 L45.5,65.0 L44.5,64.0 L44.5,62.0 L43.5,61.0 L43.5,56.0 L43.0,55.5 L42.5,56.0 L42.5,57.0 L39.5,60.0 L39.5,61.0 L38.0,62.5 L37.0,62.5 L35.5,64.0 L35.5,65.0 L35.0,65.5 L34.0,65.5 L28.5,60.0 L28.5,59.0 L26.5,57.0 L26.5,56.0 L25.5,55.0 L25.5,53.0 L24.5,52.0 L24.5,46.0 L27.0,43.5 L28.0,43.5 L29.0,42.5 L30.0,42.5 L31.0,43.5 L32.0,43.5 L34.0,45.5 L35.0,45.5 L37.0,43.5 L38.0,43.5 L39.0,42.5 L40.0,42.5 L41.0,43.5 L42.0,43.5 L43.5,45.0 L43.5,46.0 L44.5,47.0 L44.5,50.0 L45.0,50.5 L46.0,49.5 L47.0,49.5 L48.0,48.5 L51.0,48.5 L52.0,49.5 L53.0,49.5 L56.0,52.5 L59.0,49.5 L60.0,49.5 L61.0,48.5 L64.0,48.5 L65.0,49.5 L66.0,49.5 L67.5,51.0 L67.5,52.0 L68.5,53.0 L68.5,62.0 L67.5,63.0 L67.5,64.0 L66.5,65.0 L66.5,66.0 L65.5,67.0 L65.5,68.0 L63.5,70.0 L63.5,71.0 Z M112.0,78.5 L103.5,70.0 L103.5,69.0 L101.5,67.0 L101.5,66.0 L100.5,65.0 L100.5,63.0 L99.5,62.0 L99.5,52.0 L103.0,48.5 L107.0,48.5 L109.0,50.5 L110.0,50.5 L112.0,52.5 L115.0,49.5 L116.0,49.5 L117.0,48.5 L120.0,48.5 L121.0,49.5 L122.0,49.5 L122.5,50.0 L123.5,51.0 L123.5,52.0 L124.5,53.0 L124.5,60.0 L123.5,61.0 L123.5,64.0 L122.5,65.0 L122.5,66.0 L120.5,68.0 L120.5,69.0 L112.5,77.0 L112.5,78.0 Z M56.0,113.5 L55.5,113.0 L55.5,112.0 L47.5,104.0 L47.5,103.0 L45.5,101.0 L45.5,100.0 L44.5,99.0 L44.5,97.0 L43.5,96.0 L43.5,88.0 L44.5,87.0 L44.5,86.0 L47.0,83.5 L52.0,83.5 L56.0,87.5 L60.0,83.5 L65.0,83.5 L68.5,87.0 L68.5,96.0 L67.5,97.0 L67.5,99.0 L66.5,100.0 L66.5,101.0 L65.5,102.0 L65.5,103.0 L56.5,112.0 L56.5,113.0 Z M84.0,113.5 L83.5,113.0 L83.5,112.0 L74.5,103.0 L74.5,102.0 L73.5,101.0 L73.5,100.0 L72.5,99.0 L72.5,97.0 L71.5,96.0 L71.5,87.0 L75.0,83.5 L80.0,83.5 L84.0,87.5 L88.0,83.5 L93.0,83.5 L95.5,86.0 L95.5,87.0 L96.5,88.0 L96.5,96.0 L95.5,97.0 L95.5,99.0 L94.5,100.0 L94.5,101.0 L92.5,103.0 L92.5,104.0 L84.5,112.0 L84.5,113.0 Z M112.0,112.5 L111.0,112.5 L110.5,112.0 L110.5,111.0 L102.5,103.0 L102.5,102.0 L101.5,101.0 L101.5,100.0 L100.5,99.0 L100.5,98.0 L99.5,97.0 L99.5,87.0 L103.0,83.5 L107.0,83.5 L108.0,84.5 L109.0,84.5 L112.0,87.5 L116.0,83.5 L121.0,83.5 L123.5,86.0 L123.5,87.0 L124.5,88.0 L124.5,95.0 L123.5,96.0 L123.5,98.0 L122.5,99.0 L122.5,100.0 L121.5,101.0 L121.5,102.0 L120.5,103.0 L120.5,104.0 Z M56.0,147.5 L48.5,140.0 L48.5,139.0 L46.5,137.0 L46.5,136.0 L45.5,135.0 L45.5,134.0 L44.5,133.0 L44.5,131.0 L43.5,130.0 L43.5,122.0 L47.0,118.5 L48.0,118.5 L49.0,117.5 L50.0,117.5 L51.0,118.5 L52.0,118.5 L53.0,119.5 L54.0,119.5 L56.0,121.5 L57.0,121.5 L60.0,118.5 L61.0,118.5 L62.0,117.5 L63.0,117.5 L64.0,118.5 L66.0,118.5 L67.5,120.0 L67.5,121.0 L68.5,122.0 L68.5,131.0 L67.5,132.0 L67.5,134.0 L66.5,135.0 L66.5,136.0 L64.5,138.0 L64.5,139.0 Z M112.0,147.5 L102.5,138.0 L102.5,137.0 L101.5,136.0 L101.5,135.0 L100.5,134.0 L100.5,133.0 L99.5,132.0 L99.5,122.0 L100.5,121.0 L100.5,120.0 L102.0,118.5 L103.0,118.5 L104.0,117.5 L106.0,117.5 L107.0,118.5 L108.0,118.5 L111.0,121.5 L112.0,121.5 L115.0,118.5 L116.0,118.5 L117.0,117.5 L119.0,117.5 L120.0,118.5 L121.0,118.5 L123.5,121.0 L123.5,122.0 L124.5,123.0 L124.5,130.0 L123.5,131.0 L123.5,133.0 L122.5,134.0 L122.5,135.0 L121.5,136.0 L121.5,137.0 L118.5,140.0 L118.5,141.0 Z M56.0,182.5 L55.5,182.0 L55.5,181.0 L46.5,172.0 L46.5,171.0 L45.5,170.0 L45.5,169.0 L44.5,168.0 L44.5,166.0 L43.5,165.0 L43.5,157.0 L44.5,156.0 L44.5,155.0 L46.0,153.5 L47.0,153.5 L48.0,152.5 L51.0,152.5 L52.0,153.5 L53.0,153.5 L56.0,156.5 L59.0,153.5 L60.0,153.5 L61.0,152.5 L64.0,152.5 L65.0,153.5 L66.0,153.5 L66.5,154.0 L67.5,155.0 L67.5,156.0 L68.5,157.0 L68.5,166.0 L67.5,167.0 L67.5,168.0 L66.5,169.0 L66.5,170.0 L65.5,171.0 L65.5,172.0 L63.5,174.0 L63.5,175.0 Z M112.0,182.5 L103.5,174.0 L103.5,173.0 L101.5,171.0 L101.5,170.0 L100.5,169.0 L100.5,167.0 L99.5,166.0 L99.5,156.0 L102.0,153.5 L103.0,153.5 L104.0,152.5 L107.0,152.5 L109.0,154.5 L110.0,154.5 L112.0,156.5 L115.0,153.5 L116.0,153.5 L117.0,152.5 L120.0,152.5 L121.0,153.5 L122.0,153.5 L122.5,154.0 L123.5,155.0 L123.5,156.0 L124.5,157.0 L124.5,164.0 L123.5,165.0 L123.5,168.0 L122.5,169.0 L122.5,170.0 L120.5,172.0 L120.5,173.0 L112.5,181.0 L112.5,182.0 Z M139.0,200.5 L138.0,200.5 L137.0,199.5 L136.0,199.5 L134.0,197.5 L133.0,197.5 L131.0,199.5 L130.0,199.5 L129.0,200.5 L128.0,200.5 L127.0,199.5 L126.0,199.5 L124.5,198.0 L124.5,197.0 L123.5,196.0 L123.5,192.0 L124.5,191.0 L124.5,188.0 L125.5,187.0 L125.5,186.0 L128.5,183.0 L128.5,182.0 L129.0,181.5 L130.0,181.5 L132.5,179.0 L132.5,178.0 L133.0,177.5 L134.0,177.5 L139.5,183.0 L139.5,184.0 L141.5,186.0 L141.5,187.0 L142.5,188.0 L142.5,190.0 L143.5,191.0 L143.5,197.0 L141.0,199.5 L140.0,199.5 Z M138.0,233.5 L134.0,233.5 L133.0,232.5 L131.0,232.5 L128.5,230.0 L128.5,229.0 L127.5,228.0 L127.5,216.0 L128.5,215.0 L128.5,214.0 L132.0,210.5 L133.0,210.5 L134.0,209.5 L138.0,209.5 L139.0,210.5 L140.0,210.5 L141.0,211.5 L142.0,211.5 L142.5,212.0 L142.5,213.0 L143.5,214.0 L143.5,215.0 L143.0,215.5 L140.0,215.5 L138.0,213.5 L134.0,213.5 L132.5,215.0 L132.5,216.0 L131.5,217.0 L131.5,220.0 L132.0,220.5 L133.0,220.5 L134.0,219.5 L135.0,219.5 L136.0,218.5 L139.0,218.5 L140.0,219.5 L141.0,219.5 L143.5,222.0 L143.5,229.0 L142.5,230.0 L142.5,231.0 L142.0,231.5 L141.0,231.5 L140.0,232.5 L139.0,232.5 Z M138.5,229.0 L138.5,228.0 L139.5,227.0 L139.5,224.0 L138.0,222.5 L137.0,222.5 L136.0,221.5 L135.0,221.5 L134.0,222.5 L133.0,222.5 L132.5,223.0 L132.5,224.0 L131.5,225.0 L131.5,226.0 L132.5,227.0 L132.5,228.0 L134.0,229.5 L138.0,229.5 Z"/><path fill="#ff5c5c" fill-rule="evenodd" d="M24.0,19.5 L23.5,19.0 L23.5,15.0 L24.0,14.5 L24.5,15.0 L24.5,19.0 Z M36.0,18.5 L35.5,18.0 L35.5,17.0 L36.0,16.5 L36.5,17.0 L36.5,18.0 Z M41.0,23.5 L40.5,23.0 L40.5,19.0 L41.0,18.5 L41.5,19.0 L41.5,23.0 Z M33.0,21.5 L32.0,21.5 L31.5,21.0 L32.0,20.5 L33.0,20.5 L33.5,21.0 Z M99.0,59.5 L98.5,59.0 L98.5,58.0 L98.5,54.0 L99.0,53.5 L99.5,54.0 L99.5,59.0 Z M69.0,58.5 L68.5,58.0 L68.5,55.0 L69.0,54.5 L69.5,55.0 L69.5,58.0 Z M99.0,94.5 L98.5,94.0 L98.5,89.0 L99.0,88.5 L99.5,89.0 L99.5,94.0 Z M69.0,93.5 L68.5,93.0 L68.5,90.0 L69.0,89.5 L69.5,90.0 L69.5,93.0 Z M71.0,93.5 L70.5,93.0 L70.5,90.0 L71.0,89.5 L71.5,90.0 L71.5,93.0 Z M97.0,92.5 L96.5,92.0 L96.5,91.0 L97.0,90.5 L97.5,91.0 L97.5,92.0 Z M99.0,129.5 L98.5,129.0 L98.5,124.0 L99.0,123.5 L99.5,124.0 L99.5,129.0 Z M69.0,127.5 L68.5,127.0 L68.5,125.0 L69.0,124.5 L69.5,125.0 L69.5,127.0 Z M99.0,163.5 L98.5,163.0 L98.5,158.0 L99.0,157.5 L99.5,158.0 L99.5,163.0 Z M69.0,162.5 L68.5,162.0 L68.5,159.0 L69.0,158.5 L69.5,159.0 L69.5,162.0 Z M127.0,224.5 L126.5,224.0 L126.5,220.0 L127.0,219.5 L127.5,220.0 L127.5,224.0 Z M136.0,222.5 L135.0,222.5 L134.5,222.0 L135.0,221.5 L136.0,221.5 L136.5,222.0 Z M144.0,228.5 L143.5,228.0 L143.5,224.0 L144.0,223.5 L144.5,224.0 L144.5,228.0 Z M132.0,226.5 L131.5,226.0 L131.5,225.0 L132.0,224.5 L132.5,225.0 L132.5,226.0 Z"/><path fill="#ffa0a0" fill-rule="evenodd" d="M29.0,18.5 L28.5,18.0 L28.5,16.0 L29.0,15.5 L29.5,16.0 L29.5,18.0 Z M41.0,18.5 L40.5,18.0 L40.5,17.0 L41.0,16.5 L41.5,17.0 L41.5,18.0 Z M36.0,25.5 L35.5,25.0 L35.5,23.0 L36.0,22.5 L36.5,23.0 L36.5,25.0 Z M41.0,25.5 L40.5,25.0 L40.5,24.0 L41.0,23.5 L41.5,24.0 L41.5,25.0 Z M35.0,45.5 L34.0,45.5 L33.5,45.0 L34.0,44.5 L35.0,44.5 L35.5,45.0 Z M125.0,58.5 L124.5,58.0 L124.5,56.0 L125.0,55.5 L125.5,56.0 L125.5,58.0 Z M43.0,59.5 L42.5,59.0 L42.5,57.0 L43.0,56.5 L43.5,57.0 L43.5,59.0 Z M69.0,60.5 L68.5,60.0 L68.5,59.0 L69.0,58.5 L69.5,59.0 L69.5,60.0 Z M99.0,61.5 L98.5,61.0 L98.5,60.0 L99.0,59.5 L99.5,60.0 L99.5,61.0 Z M51.0,83.5 L48.0,83.5 L47.5,83.0 L48.0,82.5 L51.0,82.5 L51.5,83.0 Z M64.0,83.5 L63.0,83.5 L62.5,83.0 L63.0,82.5 L64.0,82.5 L64.5,83.0 Z M79.0,83.5 L76.0,83.5 L75.5,83.0 L76.0,82.5 L79.0,82.5 L79.5,83.0 Z M92.0,83.5 L89.0,83.5 L88.5,83.0 L89.0,82.5 L92.0,82.5 L92.5,83.0 Z M106.0,83.5 L104.0,83.5 L103.5,83.0 L104.0,82.5 L106.0,82.5 L106.5,83.0 Z M120.0,83.5 L117.0,83.5 L116.5,83.0 L117.0,82.5 L120.0,82.5 L120.5,83.0 Z M43.0,93.5 L42.5,93.0 L42.5,89.0 L43.0,88.5 L43.5,89.0 L43.5,93.0 Z M125.0,92.5 L124.5,92.0 L124.5,90.0 L125.0,89.5 L125.5,90.0 L125.5,92.0 Z M69.0,95.5 L68.5,95.0 L68.5,94.0 L69.0,93.5 L69.5,94.0 L69.5,95.0 Z M69.0,124.5 L68.5,124.0 L68.5,123.0 L69.0,122.5 L69.5,123.0 L69.5,124.0 Z M43.0,128.5 L42.5,128.0 L42.5,124.0 L43.0,123.5 L43.5,124.0 L43.5,128.0 Z M125.0,127.5 L124.5,127.0 L124.5,125.0 L125.0,124.5 L125.5,125.0 L125.5,127.0 Z M69.0,129.5 L68.5,129.0 L68.5,128.0 L69.0,127.5 L69.5,128.0 L69.5,129.0 Z M43.0,163.5 L42.5,163.0 L42.5,159.0 L43.0,158.5 L43.5,159.0 L43.5,163.0 Z M125.0,162.5 L124.5,162.0 L124.5,160.0 L125.0,159.5 L125.5,160.0 L125.5,162.0 Z M69.0,164.5 L68.5,164.0 L68.5,163.0 L69.0,162.5 L69.5,163.0 L69.5,164.0 Z M99.0,165.5 L98.5,165.0 L98.5,164.0 L99.0,163.5 L99.5,164.0 L99.5,165.0 Z M134.0,198.5 L133.0,198.5 L132.5,198.0 L133.0,197.5 L134.0,197.5 L134.5,198.0 Z M127.0,219.5 L126.5,219.0 L126.5,218.0 L127.0,217.5 L127.5,218.0 L127.5,219.0 Z M132.0,220.5 L131.5,220.0 L131.5,218.0 L132.0,217.5 L132.5,218.0 L132.5,220.0 Z M127.0,226.5 L126.5,226.0 L126.5,225.0 L127.0,224.5 L127.5,225.0 L127.5,226.0 Z M139.0,227.5 L138.5,227.0 L138.5,225.0 L139.0,224.5 L139.5,225.0 L139.5,227.0 Z"/></svg>