<?xml version="1.0" encoding="UTF-8"?><svg xmlns="http://www.w3.org/2000/svg" width="169" height="244" viewBox="0 0 169 244" shape-rendering="geometricPrecision"><path fill="#fefefe" fill-rule="evenodd" d="M160.0,243.5 L8.0,243.5 L7.0,242.5 L6.0,242.5 L0.5,237.0 L0.5,236.0 L-0.5,235.0 L-0.5,8.0 L0.5,7.0 L0.5,6.0 L1.5,5.0 L1.5,4.0 L4.0,1.5 L5.0,1.5 L6.0,0.5 L7.0,0.5 L8.0,-0.5 L160.0,-0.5 L161.0,0.5 L162.0,0.5 L167.5,6.0 L167.5,7.0 L168.5,8.0 L168.5,235.0 L167.5,236.0 L167.5,237.0 L166.5,238.0 L166.5,239.0 L164.0,241.5 L163.0,241.5 L162.0,242.5 L161.0,242.5 Z M39.5,33.0 L39.5,29.0 L40.0,28.5 L42.0,28.5 L42.5,28.0 L42.5,25.0 L42.0,24.5 L40.0,24.5 L39.5,24.0 L39.5,10.0 L39.0,9.5 L33.0,9.5 L32.5,10.0 L32.5,11.0 L30.5,13.0 L30.5,14.0 L28.5,16.0 L28.5,17.0 L26.5,19.0 L26.5,20.0 L24.5,22.0 L24.5,23.0 L22.5,25.0 L22.5,28.0 L23.0,28.5 L34.0,28.5 L34.5,29.0 L34.5,33.0 L35.0,33.5 L39.0,33.5 Z M34.0,24.5 L28.0,24.5 L27.5,24.0 L29.5,22.0 L29.5,21.0 L31.5,19.0 L31.5,18.0 L34.0,15.5 L34.5,16.0 L34.5,24.0 Z M56.5,83.0 L64.5,75.0 L64.5,74.0 L67.5,71.0 L67.5,70.0 L68.5,69.0 L68.5,68.0 L69.5,67.0 L69.5,66.0 L70.5,65.0 L70.5,63.0 L71.5,62.0 L71.5,52.0 L70.5,51.0 L70.5,50.0 L68.0,47.5 L67.0,47.5 L66.0,46.5 L62.0,46.5 L61.0,47.5 L60.0,47.5 L56.0,51.5 L52.0,47.5 L51.0,47.5 L50.0,46.5 L46.0,46.5 L45.0,47.5 L44.5,47.0 L44.5,46.0 L43.5,45.0 L43.5,44.0 L43.0,43.5 L42.0,43.5 L41.0,42.5 L38.0,42.5 L37.0,43.5 L36.0,43.5 L35.0,44.5 L34.0,44.5 L33.0,43.5 L32.0,43.5 L31.0,42.5 L27.0,42.5 L24.5,45.0 L24.5,54.0 L25.5,55.0 L25.5,56.0 L26.5,57.0 L26.5,58.0 L33.5,65.0 L33.5,66.0 L34.0,66.5 L40.0,60.5 L40.5,61.0 L40.5,63.0 L41.5,64.0 L41.5,66.0 L42.5,67.0 L42.5,68.0 L43.5,69.0 L43.5,70.0 L45.5,72.0 L45.5,73.0 L56.0,83.5 Z M112.5,83.0 L122.5,73.0 L122.5,72.0 L124.5,70.0 L124.5,69.0 L125.5,68.0 L125.5,67.0 L126.5,66.0 L126.5,64.0 L127.5,63.0 L127.5,59.0 L128.5,58.0 L128.5,56.0 L127.5,55.0 L127.5,52.0 L126.5,51.0 L126.5,50.0 L124.0,47.5 L123.0,47.5 L122.0,46.5 L118.0,46.5 L117.0,47.5 L116.0,47.5 L112.0,51.5 L108.0,47.5 L107.0,47.5 L106.0,46.5 L102.0,46.5 L101.0,47.5 L100.0,47.5 L97.5,50.0 L97.5,51.0 L96.5,52.0 L96.5,63.0 L97.5,64.0 L97.5,66.0 L98.5,67.0 L98.5,68.0 L99.5,69.0 L99.5,70.0 L102.5,73.0 L102.5,74.0 L112.0,83.5 Z M56.5,184.0 L65.5,175.0 L65.5,174.0 L67.5,172.0 L67.5,171.0 L69.5,169.0 L69.5,167.0 L70.5,166.0 L70.5,164.0 L71.5,163.0 L71.5,153.0 L70.5,152.0 L70.5,151.0 L69.5,150.0 L68.0,148.5 L67.0,148.5 L66.0,147.5 L62.0,147.5 L61.0,148.5 L60.0,148.5 L56.0,152.5 L52.0,148.5 L51.0,148.5 L50.0,147.5 L46.0,147.5 L45.0,148.5 L44.0,148.5 L41.5,151.0 L41.5,152.0 L40.5,153.0 L40.5,155.0 L39.5,156.0 L39.5,161.0 L40.5,162.0 L40.5,165.0 L41.5,166.0 L41.5,167.0 L42.5,168.0 L42.5,169.0 L43.5,170.0 L43.5,171.0 L45.5,173.0 L45.5,174.0 L54.5,183.0 L54.5,184.0 L55.0,184.5 L56.0,184.5 Z M112.5,184.0 L122.5,174.0 L122.5,173.0 L124.5,171.0 L124.5,170.0 L125.5,169.0 L125.5,168.0 L126.5,167.0 L126.5,165.0 L127.5,164.0 L127.5,160.0 L128.5,159.0 L128.5,157.0 L127.5,156.0 L127.5,153.0 L126.5,152.0 L126.5,151.0 L124.0,148.5 L123.0,148.5 L122.0,147.5 L118.0,147.5 L117.0,148.5 L116.0,148.5 L112.0,152.5 L108.0,148.5 L107.0,148.5 L106.0,147.5 L102.0,147.5 L101.0,148.5 L100.0,148.5 L97.5,151.0 L97.5,152.0 L96.5,153.0 L96.5,164.0 L97.5,165.0 L97.5,167.0 L98.5,168.0 L98.5,169.0 L99.5,170.0 L99.5,171.0 L102.5,174.0 L102.5,175.0 L112.0,184.5 Z M141.5,200.0 L143.5,198.0 L143.5,189.0 L142.5,188.0 L142.5,187.0 L141.5,186.0 L141.5,185.0 L134.5,178.0 L134.5,177.0 L134.0,176.5 L126.5,184.0 L126.5,185.0 L124.5,187.0 L124.5,189.0 L123.5,190.0 L123.5,197.0 L124.5,198.0 L124.5,199.0 L125.0,199.5 L126.0,199.5 L127.0,200.5 L130.0,200.5 L131.0,199.5 L132.0,199.5 L133.0,198.5 L134.0,198.5 L135.0,199.5 L136.0,199.5 L137.0,200.5 L141.0,200.5 Z M135.5,233.0 L135.5,232.0 L137.5,230.0 L137.5,229.0 L139.5,227.0 L139.5,226.0 L141.5,224.0 L141.5,223.0 L143.5,221.0 L143.5,220.0 L145.5,218.0 L145.5,215.0 L145.0,214.5 L134.0,214.5 L133.5,214.0 L133.5,210.0 L133.0,209.5 L129.0,209.5 L128.5,210.0 L128.5,214.0 L128.0,214.5 L126.0,214.5 L125.5,215.0 L125.5,218.0 L126.0,218.5 L128.0,218.5 L128.5,219.0 L128.5,233.0 L129.0,233.5 L135.0,233.5 Z M134.0,227.5 L133.5,227.0 L133.5,219.0 L134.0,218.5 L140.0,218.5 L140.5,219.0 L138.5,221.0 L138.5,222.0 L136.5,224.0 L136.5,225.0 Z"/><path fill="#ff0101" fill-rule="evenodd" d="M38.0,33.5 L35.0,33.5 L34.5,33.0 L34.5,29.0 L34.0,28.5 L24.0,28.5 L23.5,28.0 L23.5,24.0 L25.5,22.0 L25.5,21.0 L27.5,19.0 L27.5,18.0 L30.5,15.0 L30.5,14.0 L32.5,12.0 L32.5,11.0 L34.0,9.5 L38.0,9.5 L38.5,10.0 L38.5,24.0 L40.0,25.5 L42.0,25.5 L42.5,26.0 L42.5,28.0 L42.0,28.5 L39.0,28.5 L38.5,29.0 L38.5,33.0 Z M34.5,25.0 L34.5,15.0 L34.0,14.5 L32.5,16.0 L32.5,17.0 L30.5,19.0 L30.5,20.0 L28.5,22.0 L28.5,23.0 L27.5,24.0 L27.5,25.0 L28.0,25.5 L34.0,25.5 Z M56.0,83.5 L54.5,82.0 L54.5,81.0 L44.5,71.0 L44.5,70.0 L43.5,69.0 L43.5,68.0 L42.5,67.0 L42.5,66.0 L41.5,65.0 L41.5,63.0 L40.5,62.0 L40.5,60.0 L40.0,59.5 L39.5,60.0 L39.5,61.0 L38.0,62.5 L37.0,62.5 L35.5,64.0 L35.5,65.0 L35.0,65.5 L34.0,65.5 L28.5,60.0 L28.5,59.0 L26.5,57.0 L26.5,56.0 L25.5,55.0 L25.5,53.0 L24.5,52.0 L24.5,46.0 L27.0,43.5 L28.0,43.5 L29.0,42.5 L30.0,42.5 L31.0,43.5 L32.0,43.5 L34.0,45.5 L35.0,45.5 L37.0,43.5 L38.0,43.5 L39.0,42.5 L40.0,42.5 L41.0,43.5 L42.0,43.5 L43.5,45.0 L43.5,46.0 L45.0,47.5 L46.0,47.5 L47.0,46.5 L48.0,47.5 L51.0,47.5 L53.0,49.5 L54.0,49.5 L54.5,50.0 L54.5,51.0 L55.0,51.5 L56.0,51.5 L59.0,48.5 L60.0,48.5 L61.0,47.5 L62.0,47.5 L63.0,46.5 L64.0,47.5 L67.0,47.5 L70.5,51.0 L70.5,53.0 L71.5,54.0 L71.5,60.0 L70.5,61.0 L70.5,64.0 L69.5,65.0 L69.5,66.0 L68.5,67.0 L68.5,68.0 L67.5,69.0 L67.5,70.0 L65.5,72.0 L65.5,73.0 L56.5,82.0 L56.5,83.0 Z M112.0,83.5 L111.5,83.0 L111.5,82.0 L101.5,72.0 L101.5,71.0 L99.5,69.0 L99.5,68.0 L98.5,67.0 L98.5,65.0 L97.5,64.0 L97.5,62.0 L96.5,61.0 L96.5,53.0 L97.5,52.0 L97.5,51.0 L101.0,47.5 L102.0,47.5 L103.0,46.5 L104.0,47.5 L107.0,47.5 L108.0,48.5 L109.0,48.5 L112.0,51.5 L115.0,48.5 L116.0,48.5 L117.0,47.5 L118.0,47.5 L119.0,46.5 L120.0,47.5 L123.0,47.5 L126.5,51.0 L126.5,52.0 L127.5,53.0 L127.5,61.0 L126.5,62.0 L126.5,64.0 L125.5,65.0 L125.5,67.0 L124.5,68.0 L124.5,69.0 L122.5,71.0 L122.5,72.0 L112.5,82.0 L112.5,83.0 Z M56.0,184.5 L54.5,183.0 L54.5,182.0 L44.5,172.0 L44.5,171.0 L43.5,170.0 L43.5,169.0 L42.5,168.0 L42.5,167.0 L41.5,166.0 L41.5,164.0 L40.5,163.0 L40.5,154.0 L41.5,153.0 L41.5,152.0 L45.0,148.5 L51.0,148.5 L55.0,152.5 L56.0,152.5 L59.0,149.5 L60.0,149.5 L61.0,148.5 L67.0,148.5 L70.5,152.0 L70.5,154.0 L71.5,155.0 L71.5,161.0 L70.5,162.0 L70.5,165.0 L69.5,166.0 L69.5,168.0 L68.5,169.0 L68.5,170.0 L66.5,172.0 L66.5,173.0 L56.5,183.0 L56.5,184.0 Z M112.0,184.5 L110.5,183.0 L110.5,182.0 L100.5,172.0 L100.5,171.0 L99.5,170.0 L99.5,169.0 L98.5,168.0 L98.5,167.0 L97.5,166.0 L97.5,163.0 L96.5,162.0 L96.5,154.0 L97.5,153.0 L97.5,152.0 L101.0,148.5 L107.0,148.5 L109.0,150.5 L110.0,150.5 L112.0,152.5 L113.0,152.5 L117.0,148.5 L123.0,148.5 L126.5,152.0 L126.5,153.0 L127.5,154.0 L127.5,162.0 L126.5,163.0 L126.5,166.0 L125.5,167.0 L125.5,168.0 L124.5,169.0 L124.5,170.0 L122.5,172.0 L122.5,173.0 L112.5,183.0 L112.5,184.0 Z M139.0,200.5 L138.0,200.5 L137.0,199.5 L136.0,199.5 L134.0,197.5 L133.0,197.5 L131.0,199.5 L130.0,199.5 L129.0,200.5 L128.0,200.5 L127.0,199.5 L126.0,199.5 L124.5,198.0 L124.5,197.0 L123.5,196.0 L123.5,192.0 L124.5,191.0 L124.5,188.0 L125.5,187.0 L125.5,186.0 L128.5,183.0 L128.5,182.0 L129.0,181.5 L130.0,181.5 L132.5,179.0 L132.5,178.0 L133.0,177.5 L134.0,177.5 L139.5,183.0 L139.5,184.0 L141.5,186.0 L141.5,187.0 L142.5,188.0 L142.5,190.0 L143.5,191.0 L143.5,197.0 L141.0,199.5 L140.0,199.5 Z M134.0,233.5 L130.0,233.5 L129.5,233.0 L129.5,219.0 L128.0,217.5 L126.0,217.5 L125.5,217.0 L125.5,215.0 L126.0,214.5 L129.0,214.5 L129.5,214.0 L129.5,210.0 L130.0,209.5 L133.0,209.5 L133.5,210.0 L133.5,214.0 L134.0,214.5 L144.0,214.5 L144.5,215.0 L144.5,219.0 L142.5,221.0 L142.5,222.0 L140.5,224.0 L140.5,225.0 L137.5,228.0 L137.5,229.0 L135.5,231.0 L135.5,232.0 Z M134.5,228.0 L135.5,227.0 L135.5,226.0 L137.5,224.0 L137.5,223.0 L139.5,221.0 L139.5,220.0 L140.5,219.0 L140.5,218.0 L140.0,217.5 L134.0,217.5 L133.5,218.0 L133.5,228.0 L134.0,228.5 Z"/><path fill="#ff6464" fill-rule="evenodd" d="M39.0,24.5 L38.5,24.0 L38.5,10.0 L39.0,9.5 L39.5,10.0 L39.5,24.0 Z M34.0,25.5 L28.0,25.5 L27.5,25.0 L28.0,24.5 L34.0,24.5 L34.5,25.0 Z M41.0,25.5 L40.0,25.5 L39.5,25.0 L40.0,24.5 L41.0,24.5 L41.5,25.0 Z M39.0,33.5 L38.5,33.0 L38.5,29.0 L39.0,28.5 L39.5,29.0 L39.5,33.0 Z M49.0,47.5 L48.0,47.5 L47.5,47.0 L48.0,46.5 L49.0,46.5 L49.5,47.0 Z M65.0,47.5 L64.0,47.5 L63.5,47.0 L64.0,46.5 L65.0,46.5 L65.5,47.0 Z M106.0,47.5 L104.0,47.5 L103.5,47.0 L104.0,46.5 L106.0,46.5 L106.5,47.0 Z M121.0,47.5 L120.0,47.5 L119.5,47.0 L120.0,46.5 L121.0,46.5 L121.5,47.0 Z M49.0,148.5 L47.0,148.5 L46.5,148.0 L47.0,147.5 L49.0,147.5 L49.5,148.0 Z M65.0,148.5 L63.0,148.5 L62.5,148.0 L63.0,147.5 L65.0,147.5 L65.5,148.0 Z M105.0,148.5 L103.0,148.5 L102.5,148.0 L103.0,147.5 L105.0,147.5 L105.5,148.0 Z M121.0,148.5 L119.0,148.5 L118.5,148.0 L119.0,147.5 L121.0,147.5 L121.5,148.0 Z M129.0,214.5 L128.5,214.0 L128.5,210.0 L129.0,209.5 L129.5,210.0 L129.5,214.0 Z M128.0,218.5 L127.0,218.5 L126.5,218.0 L127.0,217.5 L128.0,217.5 L128.5,218.0 Z M140.0,218.5 L134.0,218.5 L133.5,218.0 L134.0,217.5 L140.0,217.5 L140.5,218.0 Z M129.0,233.5 L128.5,233.0 L128.5,219.0 L129.0,218.5 L129.5,219.0 L129.5,233.0 Z"/><path fill="#ff9c9c" fill-rule="evenodd" d="M23.0,28.5 L22.5,28.0 L22.5,25.0 L23.0,24.5 L23.5,25.0 L23.5,28.0 Z M35.0,45.5 L34.0,45.5 L33.5,45.0 L34.0,44.5 L35.0,44.5 L35.5,45.0 Z M128.0,58.5 L127.5,58.0 L127.5,56.0 L128.0,55.5 L128.5,56.0 L128.5,58.0 Z M40.0,161.5 L39.5,161.0 L39.5,156.0 L40.0,155.5 L40.5,156.0 L40.5,161.0 Z M128.0,159.5 L127.5,159.0 L127.5,157.0 L128.0,156.5 L128.5,157.0 L128.5,159.0 Z M134.0,198.5 L133.0,198.5 L132.5,198.0 L133.0,197.5 L134.0,197.5 L134.5,198.0 Z M145.0,218.5 L144.5,218.0 L144.5,215.0 L145.0,214.5 L145.5,215.0 L145.5,218.0 Z"/></svg>