<?xml version="1.0" encoding="UTF-8"?><svg xmlns="http://www.w3.org/2000/svg" width="169" height="244" viewBox="0 0 169 244" shape-rendering="geometricPrecision"><path fill="#fefefe" fill-rule="evenodd" d="M160.0,243.5 L8.0,243.5 L7.0,242.5 L6.0,242.5 L0.5,237.0 L0.5,236.0 L-0.5,235.0 L-0.5,8.0 L0.5,7.0 L0.5,6.0 L1.5,5.0 L1.5,4.0 L4.0,1.5 L5.0,1.5 L6.0,0.5 L7.0,0.5 L8.0,-0.5 L160.0,-0.5 L161.0,0.5 L162.0,0.5 L167.5,6.0 L167.5,7.0 L168.5,8.0 L168.5,235.0 L167.5,236.0 L167.5,237.0 L166.5,238.0 L166.5,239.0 L164.0,241.5 L163.0,241.5 L162.0,242.5 L161.0,242.5 Z M35.5,33.0 L36.0,32.5 L37.0,32.5 L39.5,30.0 L39.5,28.0 L40.5,27.0 L40.5,10.0 L40.0,9.5 L30.0,9.5 L29.5,10.0 L29.5,13.0 L30.0,13.5 L34.0,13.5 L34.5,14.0 L34.5,28.0 L34.0,28.5 L33.0,28.5 L32.0,29.5 L31.0,29.5 L28.5,27.0 L28.5,26.0 L28.0,25.5 L27.0,25.5 L26.0,26.5 L23.0,26.5 L22.5,27.0 L23.5,28.0 L23.5,30.0 L26.0,32.5 L27.0,32.5 L28.0,33.5 L35.0,33.5 Z M88.5,185.0 L89.0,184.5 L90.0,184.5 L92.0,182.5 L93.0,182.5 L95.0,180.5 L96.0,180.5 L98.0,178.5 L99.0,178.5 L102.0,175.5 L103.0,175.5 L109.0,169.5 L110.0,169.5 L117.5,162.0 L117.5,161.0 L123.5,155.0 L123.5,154.0 L126.5,151.0 L126.5,150.0 L128.5,148.0 L128.5,147.0 L130.5,145.0 L130.5,144.0 L132.5,142.0 L132.5,141.0 L133.5,140.0 L133.5,139.0 L134.5,138.0 L134.5,137.0 L135.5,136.0 L135.5,135.0 L136.5,134.0 L136.5,133.0 L137.5,132.0 L137.5,131.0 L138.5,130.0 L138.5,128.0 L139.5,127.0 L139.5,125.0 L140.5,124.0 L140.5,122.0 L141.5,121.0 L141.5,119.0 L142.5,118.0 L142.5,114.0 L143.5,113.0 L143.5,107.0 L144.5,106.0 L144.5,95.0 L143.5,94.0 L143.5,88.0 L142.5,87.0 L142.5,84.0 L141.5,83.0 L141.5,81.0 L140.5,80.0 L140.5,79.0 L139.5,78.0 L139.5,76.0 L138.5,75.0 L138.5,74.0 L137.5,73.0 L137.5,72.0 L135.5,70.0 L135.5,69.0 L133.5,67.0 L133.5,66.0 L122.0,54.5 L121.0,54.5 L119.0,52.5 L118.0,52.5 L116.0,50.5 L115.0,50.5 L114.0,49.5 L113.0,49.5 L112.0,48.5 L111.0,48.5 L110.0,47.5 L109.0,47.5 L108.0,46.5 L106.0,46.5 L105.0,45.5 L103.0,45.5 L102.0,44.5 L100.0,44.5 L99.0,43.5 L96.0,43.5 L95.0,42.5 L91.0,42.5 L90.0,41.5 L87.0,41.5 L86.5,42.0 L86.5,146.0 L86.0,146.5 L81.0,146.5 L80.0,145.5 L76.0,145.5 L75.0,144.5 L72.0,144.5 L71.0,143.5 L69.0,143.5 L68.0,142.5 L66.0,142.5 L65.0,141.5 L63.0,141.5 L62.0,140.5 L61.0,140.5 L60.0,139.5 L59.0,139.5 L58.0,138.5 L57.0,138.5 L56.0,137.5 L55.0,137.5 L54.0,136.5 L53.0,136.5 L51.0,134.5 L50.0,134.5 L48.0,132.5 L47.0,132.5 L46.0,131.5 L45.5,132.0 L45.5,133.0 L47.5,135.0 L47.5,136.0 L51.0,139.5 L52.0,139.5 L55.0,142.5 L56.0,142.5 L57.0,143.5 L58.0,143.5 L60.0,145.5 L61.0,145.5 L62.0,146.5 L63.0,146.5 L64.0,147.5 L65.0,147.5 L66.0,148.5 L68.0,148.5 L69.0,149.5 L70.0,149.5 L71.0,150.5 L73.0,150.5 L74.0,151.5 L76.0,151.5 L77.0,152.5 L79.0,152.5 L80.0,153.5 L86.0,153.5 L86.5,154.0 L86.5,185.0 L87.0,185.5 L88.0,185.5 Z M34.5,66.0 L41.5,59.0 L41.5,58.0 L43.5,56.0 L43.5,54.0 L44.5,53.0 L44.5,46.0 L43.5,45.0 L43.5,44.0 L43.0,43.5 L42.0,43.5 L41.0,42.5 L38.0,42.5 L37.0,43.5 L36.0,43.5 L35.0,44.5 L34.0,44.5 L33.0,43.5 L32.0,43.5 L31.0,42.5 L27.0,42.5 L24.5,45.0 L24.5,54.0 L25.5,55.0 L25.5,56.0 L26.5,57.0 L26.5,58.0 L33.5,65.0 L33.5,66.0 L34.0,66.5 Z M45.5,101.0 L46.0,100.5 L47.0,100.5 L48.0,99.5 L51.0,99.5 L52.0,98.5 L69.0,98.5 L70.0,99.5 L75.0,99.5 L75.5,99.0 L73.0,96.5 L72.0,96.5 L71.0,95.5 L70.0,95.5 L69.0,94.5 L68.0,94.5 L67.0,93.5 L63.0,93.5 L62.0,92.5 L59.0,92.5 L58.0,93.5 L54.0,93.5 L53.0,94.5 L51.0,94.5 L50.0,95.5 L49.0,95.5 L46.0,98.5 L45.0,98.5 L43.5,100.0 L43.5,101.0 L44.0,101.5 L45.0,101.5 Z M127.0,100.5 L126.0,100.5 L125.0,99.5 L123.0,99.5 L122.0,98.5 L117.0,98.5 L116.0,97.5 L109.0,97.5 L108.0,98.5 L100.0,98.5 L99.0,99.5 L97.0,99.5 L96.5,99.0 L97.0,98.5 L98.0,98.5 L100.0,96.5 L101.0,96.5 L102.0,95.5 L103.0,95.5 L104.0,94.5 L106.0,94.5 L107.0,93.5 L117.0,93.5 L118.0,94.5 L120.0,94.5 L121.0,95.5 L122.0,95.5 L123.0,96.5 L124.0,96.5 L127.5,100.0 Z M90.0,153.5 L87.0,153.5 L86.5,153.0 L86.5,148.0 L87.0,147.5 L88.0,147.5 L89.0,146.5 L95.0,146.5 L96.0,145.5 L100.0,145.5 L101.0,144.5 L103.0,144.5 L104.0,143.5 L106.0,143.5 L107.0,142.5 L109.0,142.5 L110.0,141.5 L111.0,141.5 L112.0,140.5 L113.0,140.5 L114.0,139.5 L115.0,139.5 L116.0,138.5 L117.0,138.5 L118.0,137.5 L119.0,137.5 L120.0,136.5 L121.0,136.5 L123.0,134.5 L124.0,134.5 L126.0,132.5 L126.5,133.0 L126.5,134.0 L124.5,136.0 L124.5,137.0 L124.0,137.5 L123.0,137.5 L120.0,140.5 L119.0,140.5 L117.0,142.5 L116.0,142.5 L114.0,144.5 L113.0,144.5 L112.0,145.5 L111.0,145.5 L110.0,146.5 L109.0,146.5 L108.0,147.5 L107.0,147.5 L106.0,148.5 L105.0,148.5 L104.0,149.5 L102.0,149.5 L101.0,150.5 L99.0,150.5 L98.0,151.5 L96.0,151.5 L95.0,152.5 L91.0,152.5 Z M141.5,200.0 L143.5,198.0 L143.5,189.0 L142.5,188.0 L142.5,187.0 L141.5,186.0 L141.5,185.0 L134.5,178.0 L134.5,177.0 L134.0,176.5 L126.5,184.0 L126.5,185.0 L124.5,187.0 L124.5,189.0 L123.5,190.0 L123.5,197.0 L124.5,198.0 L124.5,199.0 L125.0,199.5 L126.0,199.5 L127.0,200.5 L130.0,200.5 L131.0,199.5 L132.0,199.5 L133.0,198.5 L134.0,198.5 L135.0,199.5 L136.0,199.5 L137.0,200.5 L141.0,200.5 Z M138.5,233.0 L138.5,230.0 L138.0,229.5 L134.0,229.5 L133.5,229.0 L133.5,215.0 L134.0,214.5 L135.0,214.5 L136.0,213.5 L137.0,213.5 L139.5,216.0 L139.5,217.0 L140.0,217.5 L141.0,217.5 L142.0,216.5 L145.0,216.5 L145.5,216.0 L144.5,215.0 L144.5,213.0 L142.0,210.5 L141.0,210.5 L140.0,209.5 L133.0,209.5 L132.0,210.5 L131.0,210.5 L128.5,213.0 L128.5,215.0 L127.5,216.0 L127.5,233.0 L128.0,233.5 L138.0,233.5 Z"/><path fill="#ff0101" fill-rule="evenodd" d="M34.0,33.5 L30.0,33.5 L29.0,32.5 L27.0,32.5 L23.5,29.0 L23.5,27.0 L24.0,26.5 L28.0,26.5 L28.5,27.0 L28.5,28.0 L30.0,29.5 L33.0,29.5 L34.5,28.0 L34.5,27.0 L35.5,26.0 L35.5,14.0 L35.0,13.5 L31.0,13.5 L30.5,13.0 L30.5,10.0 L31.0,9.5 L39.0,9.5 L39.5,10.0 L39.5,29.0 L36.0,32.5 L35.0,32.5 Z M35.0,65.5 L34.0,65.5 L28.5,60.0 L28.5,59.0 L26.5,57.0 L26.5,56.0 L25.5,55.0 L25.5,53.0 L24.5,52.0 L24.5,46.0 L27.0,43.5 L28.0,43.5 L29.0,42.5 L30.0,42.5 L31.0,43.5 L32.0,43.5 L34.0,45.5 L35.0,45.5 L37.0,43.5 L38.0,43.5 L39.0,42.5 L40.0,42.5 L41.0,43.5 L42.0,43.5 L43.5,45.0 L43.5,46.0 L44.5,47.0 L44.5,51.0 L43.5,52.0 L43.5,55.0 L42.5,56.0 L42.5,57.0 L39.5,60.0 L39.5,61.0 L39.0,61.5 L38.0,62.5 L37.0,62.5 L35.5,64.0 L35.5,65.0 Z M87.0,185.5 L86.5,185.0 L86.5,154.0 L87.0,153.5 L93.0,153.5 L94.0,152.5 L97.0,152.5 L98.0,151.5 L100.0,151.5 L101.0,150.5 L102.0,150.5 L103.0,149.5 L105.0,149.5 L106.0,148.5 L107.0,148.5 L108.0,147.5 L109.0,147.5 L110.0,146.5 L111.0,146.5 L112.0,145.5 L113.0,145.5 L114.0,144.5 L115.0,144.5 L117.0,142.5 L118.0,142.5 L120.0,140.5 L121.0,140.5 L126.5,135.0 L126.5,134.0 L127.5,133.0 L127.5,132.0 L127.0,131.5 L125.0,133.5 L124.0,133.5 L122.0,135.5 L121.0,135.5 L120.0,136.5 L119.0,136.5 L118.0,137.5 L117.0,137.5 L116.0,138.5 L115.0,138.5 L114.0,139.5 L113.0,139.5 L112.0,140.5 L111.0,140.5 L110.0,141.5 L108.0,141.5 L107.0,142.5 L106.0,142.5 L105.0,143.5 L103.0,143.5 L102.0,144.5 L99.0,144.5 L98.0,145.5 L94.0,145.5 L93.0,146.5 L87.0,146.5 L86.5,146.0 L86.5,118.0 L87.5,117.0 L87.5,43.0 L88.0,42.5 L93.0,42.5 L94.0,43.5 L97.0,43.5 L98.0,44.5 L101.0,44.5 L102.0,45.5 L104.0,45.5 L105.0,46.5 L107.0,46.5 L108.0,47.5 L109.0,47.5 L110.0,48.5 L111.0,48.5 L112.0,49.5 L113.0,49.5 L114.0,50.5 L115.0,50.5 L116.0,51.5 L117.0,51.5 L119.0,53.5 L120.0,53.5 L123.0,56.5 L124.0,56.5 L131.5,64.0 L131.5,65.0 L134.5,68.0 L134.5,69.0 L136.5,71.0 L136.5,72.0 L137.5,73.0 L137.5,74.0 L138.5,75.0 L138.5,76.0 L139.5,77.0 L139.5,79.0 L140.5,80.0 L140.5,82.0 L141.5,83.0 L141.5,85.0 L142.5,86.0 L142.5,90.0 L143.5,91.0 L143.5,110.0 L142.5,111.0 L142.5,116.0 L141.5,117.0 L141.5,120.0 L140.5,121.0 L140.5,123.0 L139.5,124.0 L139.5,126.0 L138.5,127.0 L138.5,128.0 L137.5,129.0 L137.5,131.0 L136.5,132.0 L136.5,133.0 L135.5,134.0 L135.5,135.0 L134.5,136.0 L134.5,137.0 L133.5,138.0 L133.5,139.0 L132.5,140.0 L132.5,141.0 L130.5,143.0 L130.5,144.0 L129.5,145.0 L129.5,146.0 L127.5,148.0 L127.5,149.0 L124.5,152.0 L124.5,153.0 L121.5,156.0 L121.5,157.0 L107.0,171.5 L106.0,171.5 L101.0,176.5 L100.0,176.5 L97.0,179.5 L96.0,179.5 L94.0,181.5 L93.0,181.5 L91.0,183.5 L90.0,183.5 L89.0,184.5 L88.0,184.5 Z M129.5,101.0 L125.0,96.5 L124.0,96.5 L123.0,95.5 L122.0,95.5 L121.0,94.5 L120.0,94.5 L119.0,93.5 L115.0,93.5 L114.0,92.5 L110.0,92.5 L109.0,93.5 L105.0,93.5 L104.0,94.5 L103.0,94.5 L102.0,95.5 L101.0,95.5 L100.0,96.5 L99.0,96.5 L96.5,99.0 L97.0,99.5 L102.0,99.5 L103.0,98.5 L120.0,98.5 L121.0,99.5 L124.0,99.5 L125.0,100.5 L126.0,100.5 L127.0,101.5 L129.0,101.5 Z M46.0,100.5 L45.0,100.5 L44.5,100.0 L47.0,97.5 L48.0,97.5 L50.0,95.5 L51.0,95.5 L52.0,94.5 L54.0,94.5 L55.0,93.5 L65.0,93.5 L66.0,94.5 L68.0,94.5 L69.0,95.5 L70.0,95.5 L71.0,96.5 L72.0,96.5 L73.0,97.5 L74.0,97.5 L75.5,99.0 L75.0,99.5 L73.0,99.5 L72.0,98.5 L64.0,98.5 L63.0,97.5 L57.0,97.5 L56.0,98.5 L50.0,98.5 L49.0,99.5 L47.0,99.5 Z M86.0,153.5 L83.0,153.5 L82.0,152.5 L78.0,152.5 L77.0,151.5 L75.0,151.5 L74.0,150.5 L72.0,150.5 L71.0,149.5 L70.0,149.5 L69.0,148.5 L67.0,148.5 L66.0,147.5 L65.0,147.5 L64.0,146.5 L63.0,146.5 L62.0,145.5 L61.0,145.5 L59.0,143.5 L58.0,143.5 L57.0,142.5 L56.0,142.5 L54.0,140.5 L53.0,140.5 L46.5,134.0 L46.5,133.0 L47.0,132.5 L49.0,134.5 L50.0,134.5 L51.0,135.5 L52.0,135.5 L54.0,137.5 L55.0,137.5 L56.0,138.5 L57.0,138.5 L58.0,139.5 L59.0,139.5 L60.0,140.5 L61.0,140.5 L62.0,141.5 L64.0,141.5 L65.0,142.5 L66.0,142.5 L67.0,143.5 L69.0,143.5 L70.0,144.5 L73.0,144.5 L74.0,145.5 L77.0,145.5 L78.0,146.5 L83.0,146.5 L84.0,147.5 L86.0,147.5 L86.5,148.0 L86.5,153.0 Z M139.0,200.5 L138.0,200.5 L137.0,199.5 L136.0,199.5 L134.0,197.5 L133.0,197.5 L131.0,199.5 L130.0,199.5 L129.0,200.5 L128.0,200.5 L127.0,199.5 L126.0,199.5 L124.5,198.0 L124.5,197.0 L123.5,196.0 L123.5,192.0 L124.5,191.0 L124.5,188.0 L125.5,187.0 L125.5,186.0 L128.5,183.0 L128.5,182.0 L129.0,181.5 L130.0,181.5 L132.5,179.0 L132.5,178.0 L133.0,177.5 L134.0,177.5 L139.5,183.0 L139.5,184.0 L141.5,186.0 L141.5,187.0 L142.5,188.0 L142.5,190.0 L143.5,191.0 L143.5,197.0 L141.0,199.5 L140.0,199.5 Z M137.0,233.5 L129.0,233.5 L128.5,233.0 L128.5,214.0 L132.0,210.5 L133.0,210.5 L134.0,209.5 L138.0,209.5 L139.0,210.5 L141.0,210.5 L144.5,214.0 L144.5,216.0 L144.0,216.5 L140.0,216.5 L139.5,216.0 L139.5,215.0 L138.0,213.5 L135.0,213.5 L133.5,215.0 L133.5,216.0 L132.5,217.0 L132.5,229.0 L133.0,229.5 L137.0,229.5 L137.5,230.0 L137.5,233.0 Z"/><path fill="#ff5f5f" fill-rule="evenodd" d="M30.0,13.5 L29.5,13.0 L29.5,10.0 L30.0,9.5 L30.5,10.0 L30.5,13.0 Z M40.0,26.5 L39.5,26.0 L39.5,10.0 L40.0,9.5 L40.5,10.0 L40.5,26.0 Z M35.0,26.5 L34.5,26.0 L34.5,14.0 L35.0,13.5 L35.5,14.0 L35.5,26.0 Z M87.0,117.5 L86.5,117.0 L86.5,58.0 L86.5,43.0 L87.0,42.5 L87.5,43.0 L87.5,117.0 Z M114.0,93.5 L110.0,93.5 L109.5,93.0 L110.0,92.5 L114.0,92.5 L114.5,93.0 Z M63.0,98.5 L57.0,98.5 L56.5,98.0 L57.0,97.5 L63.0,97.5 L63.5,98.0 Z M144.0,103.5 L143.5,103.0 L143.5,99.0 L144.0,98.5 L144.5,99.0 L144.5,103.0 Z M143.0,112.5 L142.5,112.0 L142.5,111.0 L143.0,110.5 L143.5,111.0 L143.5,112.0 Z M86.0,147.5 L84.0,147.5 L83.5,147.0 L84.0,146.5 L86.0,146.5 L86.5,147.0 Z M82.0,153.5 L81.0,153.5 L80.5,153.0 L81.0,152.5 L82.0,152.5 L82.5,153.0 Z M128.0,233.5 L127.5,233.0 L127.5,217.0 L128.0,216.5 L128.5,217.0 L128.5,233.0 Z M133.0,229.5 L132.5,229.0 L132.5,217.0 L133.0,216.5 L133.5,217.0 L133.5,229.0 Z M138.0,233.5 L137.5,233.0 L137.5,230.0 L138.0,229.5 L138.5,230.0 L138.5,233.0 Z"/><path fill="#ff9f9f" fill-rule="evenodd" d="M28.0,26.5 L27.0,26.5 L26.5,26.0 L27.0,25.5 L28.0,25.5 L28.5,26.0 Z M90.0,42.5 L89.0,42.5 L88.5,42.0 L89.0,41.5 L90.0,41.5 L90.5,42.0 Z M35.0,45.5 L34.0,45.5 L33.5,45.0 L34.0,44.5 L35.0,44.5 L35.5,45.0 Z M143.0,89.5 L142.5,89.0 L142.5,88.0 L143.0,87.5 L143.5,88.0 L143.5,89.0 Z M62.0,93.5 L59.0,93.5 L58.5,93.0 L59.0,92.5 L62.0,92.5 L62.5,93.0 Z M144.0,98.5 L143.5,98.0 L143.5,95.0 L144.0,94.5 L144.5,95.0 L144.5,98.0 Z M116.0,98.5 L109.0,98.5 L108.5,98.0 L109.0,97.5 L116.0,97.5 L116.5,98.0 Z M71.0,99.5 L70.0,99.5 L69.5,99.0 L70.0,98.5 L71.0,98.5 L71.5,99.0 Z M101.0,99.5 L100.0,99.5 L99.5,99.0 L100.0,98.5 L101.0,98.5 L101.5,99.0 Z M144.0,106.5 L143.5,106.0 L143.5,104.0 L144.0,103.5 L144.5,104.0 L144.5,106.0 Z M46.0,133.5 L45.5,133.0 L45.5,132.0 L46.0,131.5 L46.5,132.0 L46.5,133.0 Z M80.0,146.5 L79.0,146.5 L78.5,146.0 L79.0,145.5 L80.0,145.5 L80.5,146.0 Z M88.0,147.5 L87.0,147.5 L86.5,147.0 L87.0,146.5 L88.0,146.5 L88.5,147.0 Z M92.0,153.5 L91.0,153.5 L90.5,153.0 L91.0,152.5 L92.0,152.5 L92.5,153.0 Z M134.0,198.5 L133.0,198.5 L132.5,198.0 L133.0,197.5 L134.0,197.5 L134.5,198.0 Z M141.0,217.5 L140.0,217.5 L139.5,217.0 L140.0,216.5 L141.0,216.5 L141.5,217.0 Z"/></svg>