<?xml version="1.0" encoding="UTF-8"?><svg xmlns="http://www.w3.org/2000/svg" width="169" height="244" viewBox="0 0 169 244" shape-rendering="geometricPrecision"><path fill="#fefefe" fill-rule="evenodd" d="M160.0,243.5 L8.0,243.5 L7.0,242.5 L6.0,242.5 L0.5,237.0 L0.5,236.0 L-0.5,235.0 L-0.5,8.0 L0.5,7.0 L0.5,6.0 L1.5,5.0 L1.5,4.0 L4.0,1.5 L5.0,1.5 L6.0,0.5 L7.0,0.5 L8.0,-0.5 L160.0,-0.5 L161.0,0.5 L162.0,0.5 L167.5,6.0 L167.5,7.0 L168.5,8.0 L168.5,235.0 L167.5,236.0 L167.5,237.0 L166.5,238.0 L166.5,239.0 L164.0,241.5 L163.0,241.5 L162.0,242.5 L161.0,242.5 Z M47.5,33.0 L47.5,32.0 L46.5,31.0 L46.5,29.0 L45.5,28.0 L45.5,27.0 L44.5,26.0 L44.5,24.0 L43.5,23.0 L43.5,21.0 L42.5,20.0 L42.5,19.0 L41.5,18.0 L41.5,16.0 L40.5,15.0 L40.5,13.0 L39.5,12.0 L39.5,11.0 L38.0,9.5 L32.0,9.5 L31.5,10.0 L31.5,12.0 L30.5,13.0 L30.5,15.0 L29.5,16.0 L29.5,17.0 L28.5,18.0 L28.5,20.0 L27.5,21.0 L27.5,23.0 L26.5,24.0 L26.5,25.0 L25.5,26.0 L25.5,28.0 L24.5,29.0 L24.5,31.0 L23.5,32.0 L23.5,33.0 L24.0,33.5 L29.0,33.5 L29.5,33.0 L29.5,31.0 L30.5,30.0 L30.5,28.0 L31.0,27.5 L40.0,27.5 L40.5,28.0 L40.5,30.0 L41.5,31.0 L41.5,33.0 L42.0,33.5 L47.0,33.5 Z M38.0,23.5 L33.0,23.5 L32.5,23.0 L32.5,22.0 L33.5,21.0 L33.5,19.0 L34.5,18.0 L34.5,16.0 L35.0,15.5 L36.0,15.5 L36.5,16.0 L36.5,18.0 L37.5,19.0 L37.5,21.0 L38.5,22.0 L38.5,23.0 Z M34.5,66.0 L41.5,59.0 L41.5,58.0 L43.5,56.0 L43.5,54.0 L44.5,53.0 L44.5,46.0 L43.5,45.0 L43.5,44.0 L43.0,43.5 L42.0,43.5 L41.0,42.5 L38.0,42.5 L37.0,43.5 L36.0,43.5 L35.0,44.5 L34.0,44.5 L33.0,43.5 L32.0,43.5 L31.0,42.5 L27.0,42.5 L24.5,45.0 L24.5,54.0 L25.5,55.0 L25.5,56.0 L26.5,57.0 L26.5,58.0 L33.5,65.0 L33.5,66.0 L34.0,66.5 Z M84.5,157.0 L85.5,156.0 L85.5,155.0 L88.5,152.0 L88.5,151.0 L91.0,148.5 L92.0,148.5 L100.5,140.0 L100.5,139.0 L103.5,136.0 L103.5,135.0 L106.5,132.0 L106.5,131.0 L108.5,129.0 L108.5,128.0 L109.5,127.0 L109.5,126.0 L110.5,125.0 L110.5,124.0 L111.5,123.0 L111.5,121.0 L112.5,120.0 L112.5,117.0 L113.5,116.0 L113.5,114.0 L114.5,113.0 L114.5,98.0 L113.5,97.0 L113.5,95.0 L112.5,94.0 L112.5,93.0 L111.5,92.0 L111.5,91.0 L108.0,87.5 L107.0,87.5 L106.0,86.5 L105.0,86.5 L104.0,85.5 L94.0,85.5 L92.0,87.5 L91.0,87.5 L84.0,94.5 L78.0,88.5 L77.0,88.5 L75.0,86.5 L74.0,86.5 L73.0,85.5 L64.0,85.5 L63.0,86.5 L62.0,86.5 L61.0,87.5 L60.0,87.5 L56.5,91.0 L56.5,92.0 L55.5,93.0 L55.5,94.0 L54.5,95.0 L54.5,96.0 L53.5,97.0 L53.5,115.0 L54.5,116.0 L54.5,118.0 L55.5,119.0 L55.5,121.0 L56.5,122.0 L56.5,123.0 L57.5,124.0 L57.5,125.0 L58.5,126.0 L58.5,127.0 L59.5,128.0 L59.5,129.0 L60.5,130.0 L60.5,131.0 L62.5,133.0 L62.5,134.0 L65.5,137.0 L65.5,138.0 L81.5,154.0 L81.5,155.0 L84.0,157.5 Z M141.5,200.0 L143.5,198.0 L143.5,189.0 L142.5,188.0 L142.5,187.0 L141.5,186.0 L141.5,185.0 L134.5,178.0 L134.5,177.0 L134.0,176.5 L126.5,184.0 L126.5,185.0 L124.5,187.0 L124.5,189.0 L123.5,190.0 L123.5,197.0 L124.5,198.0 L124.5,199.0 L125.0,199.5 L126.0,199.5 L127.0,200.5 L130.0,200.5 L131.0,199.5 L132.0,199.5 L133.0,198.5 L134.0,198.5 L135.0,199.5 L136.0,199.5 L137.0,200.5 L141.0,200.5 Z M136.5,233.0 L136.5,231.0 L137.5,230.0 L137.5,228.0 L138.5,227.0 L138.5,226.0 L139.5,225.0 L139.5,223.0 L140.5,222.0 L140.5,220.0 L141.5,219.0 L141.5,218.0 L142.5,217.0 L142.5,215.0 L143.5,214.0 L143.5,212.0 L144.5,211.0 L144.5,210.0 L144.0,209.5 L139.0,209.5 L138.5,210.0 L138.5,212.0 L137.5,213.0 L137.5,215.0 L137.0,215.5 L128.0,215.5 L127.5,215.0 L127.5,213.0 L126.5,212.0 L126.5,210.0 L126.0,209.5 L121.0,209.5 L120.5,210.0 L120.5,211.0 L121.5,212.0 L121.5,214.0 L122.5,215.0 L122.5,216.0 L123.5,217.0 L123.5,219.0 L124.5,220.0 L124.5,222.0 L125.5,223.0 L125.5,224.0 L126.5,225.0 L126.5,227.0 L127.5,228.0 L127.5,230.0 L128.5,231.0 L128.5,232.0 L130.0,233.5 L136.0,233.5 Z M133.0,227.5 L132.0,227.5 L131.5,227.0 L131.5,225.0 L130.5,224.0 L130.5,222.0 L129.5,221.0 L129.5,220.0 L130.0,219.5 L135.0,219.5 L135.5,220.0 L135.5,221.0 L134.5,222.0 L134.5,224.0 L133.5,225.0 L133.5,227.0 Z"/><path fill="#ff0101" fill-rule="evenodd" d="M47.0,33.5 L43.0,33.5 L42.5,33.0 L42.5,32.0 L41.5,31.0 L41.5,29.0 L40.0,27.5 L31.0,27.5 L29.5,29.0 L29.5,31.0 L28.5,32.0 L28.5,33.0 L28.0,33.5 L24.0,33.5 L23.5,33.0 L24.5,32.0 L24.5,30.0 L25.5,29.0 L25.5,28.0 L26.5,27.0 L26.5,25.0 L27.5,24.0 L27.5,22.0 L28.5,21.0 L28.5,20.0 L29.5,19.0 L29.5,17.0 L30.5,16.0 L30.5,14.0 L31.5,13.0 L31.5,12.0 L32.5,11.0 L32.5,10.0 L33.0,9.5 L38.0,9.5 L38.5,10.0 L38.5,11.0 L39.5,12.0 L39.5,14.0 L40.5,15.0 L40.5,16.0 L41.5,17.0 L41.5,19.0 L42.5,20.0 L42.5,22.0 L43.5,23.0 L43.5,24.0 L44.5,25.0 L44.5,27.0 L45.5,28.0 L45.5,30.0 L46.5,31.0 L46.5,32.0 L47.5,33.0 Z M39.5,23.0 L38.5,22.0 L38.5,20.0 L37.5,19.0 L37.5,18.0 L36.5,17.0 L36.5,15.0 L35.0,13.5 L34.5,14.0 L34.5,16.0 L33.5,17.0 L33.5,19.0 L32.5,20.0 L32.5,22.0 L31.5,23.0 L32.0,23.5 L39.0,23.5 Z M35.0,65.5 L34.0,65.5 L28.5,60.0 L28.5,59.0 L26.5,57.0 L26.5,56.0 L25.5,55.0 L25.5,53.0 L24.5,52.0 L24.5,46.0 L27.0,43.5 L28.0,43.5 L29.0,42.5 L30.0,42.5 L31.0,43.5 L32.0,43.5 L34.0,45.5 L35.0,45.5 L37.0,43.5 L38.0,43.5 L39.0,42.5 L40.0,42.5 L41.0,43.5 L42.0,43.5 L43.5,45.0 L43.5,46.0 L44.5,47.0 L44.5,51.0 L43.5,52.0 L43.5,55.0 L42.5,56.0 L42.5,57.0 L39.5,60.0 L39.5,61.0 L39.0,61.5 L38.0,62.5 L37.0,62.5 L35.5,64.0 L35.5,65.0 Z M84.0,156.5 L81.5,154.0 L81.5,153.0 L64.5,136.0 L64.5,135.0 L61.5,132.0 L61.5,131.0 L60.5,130.0 L60.5,129.0 L59.5,128.0 L59.5,127.0 L58.5,126.0 L58.5,125.0 L57.5,124.0 L57.5,123.0 L56.5,122.0 L56.5,121.0 L55.5,120.0 L55.5,116.0 L54.5,115.0 L54.5,112.0 L53.5,111.0 L53.5,99.0 L54.5,98.0 L54.5,96.0 L55.5,95.0 L55.5,93.0 L61.0,87.5 L62.0,87.5 L63.0,86.5 L64.0,86.5 L65.0,85.5 L72.0,85.5 L73.0,86.5 L74.0,86.5 L75.0,87.5 L76.0,87.5 L78.0,89.5 L79.0,89.5 L81.5,92.0 L81.5,93.0 L83.0,94.5 L84.0,94.5 L90.0,88.5 L91.0,88.5 L92.0,87.5 L93.0,87.5 L94.0,86.5 L95.0,86.5 L96.0,85.5 L102.0,85.5 L103.0,86.5 L105.0,86.5 L106.0,87.5 L107.0,87.5 L109.0,89.5 L111.5,92.0 L111.5,93.0 L112.5,94.0 L112.5,96.0 L113.5,97.0 L113.5,100.0 L114.5,101.0 L114.5,108.0 L113.5,109.0 L113.5,115.0 L112.5,116.0 L112.5,118.0 L111.5,119.0 L111.5,121.0 L110.5,122.0 L110.5,123.0 L109.5,124.0 L109.5,126.0 L108.5,127.0 L108.5,128.0 L106.5,130.0 L106.5,131.0 L105.5,132.0 L105.5,133.0 L101.5,137.0 L101.5,138.0 L85.5,154.0 L85.5,155.0 Z M139.0,200.5 L138.0,200.5 L137.0,199.5 L136.0,199.5 L134.0,197.5 L133.0,197.5 L131.0,199.5 L130.0,199.5 L129.0,200.5 L128.0,200.5 L127.0,199.5 L126.0,199.5 L124.5,198.0 L124.5,197.0 L123.5,196.0 L123.5,192.0 L124.5,191.0 L124.5,188.0 L125.5,187.0 L125.5,186.0 L128.5,183.0 L128.5,182.0 L129.0,181.5 L130.0,181.5 L132.5,179.0 L132.5,178.0 L133.0,177.5 L134.0,177.5 L139.5,183.0 L139.5,184.0 L141.5,186.0 L141.5,187.0 L142.5,188.0 L142.5,190.0 L143.5,191.0 L143.5,197.0 L141.0,199.5 L140.0,199.5 Z M135.0,233.5 L130.0,233.5 L129.5,233.0 L129.5,232.0 L128.5,231.0 L128.5,229.0 L127.5,228.0 L127.5,227.0 L126.5,226.0 L126.5,224.0 L125.5,223.0 L125.5,221.0 L124.5,220.0 L124.5,219.0 L123.5,218.0 L123.5,216.0 L122.5,215.0 L122.5,213.0 L121.5,212.0 L121.5,211.0 L120.5,210.0 L121.0,209.5 L125.0,209.5 L125.5,210.0 L125.5,211.0 L126.5,212.0 L126.5,214.0 L128.0,215.5 L137.0,215.5 L138.5,214.0 L138.5,212.0 L139.5,211.0 L139.5,210.0 L140.0,209.5 L144.0,209.5 L144.5,210.0 L143.5,211.0 L143.5,213.0 L142.5,214.0 L142.5,215.0 L141.5,216.0 L141.5,218.0 L140.5,219.0 L140.5,221.0 L139.5,222.0 L139.5,223.0 L138.5,224.0 L138.5,226.0 L137.5,227.0 L137.5,229.0 L136.5,230.0 L136.5,231.0 L135.5,232.0 L135.5,233.0 Z M133.5,229.0 L133.5,227.0 L134.5,226.0 L134.5,224.0 L135.5,223.0 L135.5,221.0 L136.5,220.0 L136.0,219.5 L129.0,219.5 L128.5,220.0 L129.5,221.0 L129.5,223.0 L130.5,224.0 L130.5,225.0 L131.5,226.0 L131.5,228.0 L133.0,229.5 Z"/><path fill="#ffa0a0" fill-rule="evenodd" d="M36.0,15.5 L35.0,15.5 L34.5,15.0 L35.0,14.5 L36.0,14.5 L36.5,15.0 Z M35.0,45.5 L34.0,45.5 L33.5,45.0 L34.0,44.5 L35.0,44.5 L35.5,45.0 Z M114.0,100.5 L113.5,100.0 L113.5,98.0 L114.0,97.5 L114.5,98.0 L114.5,100.0 Z M114.0,113.5 L113.5,113.0 L113.5,110.0 L114.0,109.5 L114.5,110.0 L114.5,113.0 Z M54.0,115.5 L53.5,115.0 L53.5,114.0 L54.0,113.5 L54.5,114.0 L54.5,115.0 Z M111.0,123.5 L110.5,123.0 L110.5,122.0 L111.0,121.5 L111.5,122.0 L111.5,123.0 Z M134.0,198.5 L133.0,198.5 L132.5,198.0 L133.0,197.5 L134.0,197.5 L134.5,198.0 Z M133.0,228.5 L132.0,228.5 L131.5,228.0 L132.0,227.5 L133.0,227.5 L133.5,228.0 Z"/><path fill="#ff5e5e" fill-rule="evenodd" d="M104.0,86.5 L103.0,86.5 L102.5,86.0 L103.0,85.5 L104.0,85.5 L104.5,86.0 Z M54.0,113.5 L53.5,113.0 L53.5,112.0 L54.0,111.5 L54.5,112.0 L54.5,113.0 Z M55.0,117.5 L54.5,117.0 L54.5,116.0 L55.0,115.5 L55.5,116.0 L55.5,117.0 Z"/></svg>