<svg xmlns="http://www.w3.org/2000/svg" width="169" height="244" viewBox="0 0 169 244" fill="none">
  
  <rect width="169" height="244" rx="12" fill="white" stroke="#E5E5E5" />
  
  
  <g transform="translate(84.5 122) scale(1.07) translate(-84.5 -122)"><g transform="translate(20, 30)">
    <text font-family="Arial" font-size="24" font-weight="bold" fill="#FF0000">K</text>
    <g transform="translate(8, 14) scale(0.8)">
      <path d="M-0.103,9.961 L-0.411,9.283 L-0.613,9.077 L-0.828,8.665 L-4.932,4.549 L-5.162,4.137 L-5.735,3.52 L-5.776,3.314 L-6.174,2.902 L-6.191,2.697 L-6.548,2.285 L-6.586,2.079 L-6.783,1.873 L-6.792,1.668 L-6.997,1.462 L-7,1.256 L-7.203,1.05 L-7.204,0.844 L-7.404,0.638 L-7.409,0.433 L-7.615,0.021 L-7.615,-0.185 L-7.797,-0.391 L-7.821,-0.802 L-8.004,-1.008 L-8.036,-1.625 L-8.228,-1.831 L-8.27,-2.655 L-8.417,-2.86 L-8.438,-5.948 L-8.396,-6.153 L-8.257,-6.359 L-8.205,-6.977 L-8.028,-7.182 L-8.026,-7.388 L-7.836,-7.594 L-7.821,-7.8 L-7.631,-8.006 L-7.609,-8.212 L-6.483,-9.341 L-6.277,-9.386 L-6.071,-9.549 L-5.865,-9.585 L-5.66,-9.755 L-5.454,-9.755 L-5.042,-9.961 L-3.396,-9.929 L-3.19,-9.763 L-2.984,-9.755 L-2.367,-9.374 L-2.161,-9.341 L-1.749,-8.958 L-1.338,-8.716 L-0.926,-8.312 L-0.442,-7.8 L-0.103,-7.285 L1.75,-9.129 L1.955,-9.199 L2.367,-9.543 L2.573,-9.551 L2.779,-9.755 L3.19,-9.802 L3.396,-9.961 L5.043,-9.941 L5.248,-9.777 L5.66,-9.754 L5.866,-9.551 L6.072,-9.546 L6.278,-9.343 L6.689,-9.126 L7.363,-8.417 L7.413,-8.212 L7.615,-8.006 L7.656,-7.8 L7.821,-7.594 L7.843,-7.388 L8.026,-7.182 L8.058,-6.771 L8.221,-6.565 L8.243,-5.742 L8.4,-5.536 L8.438,-4.507 L8.428,-3.684 L8.238,-3.272 L8.233,-2.449 L8.204,-2.243 L8.062,-2.037 L8.014,-1.42 L7.862,-1.214 L7.821,-0.802 L7.67,-0.596 L7.615,-0.185 L7.425,0.021 L7.396,0.433 L7.204,0.638 L7.199,0.844 L6.999,1.05 L6.998,1.256 L6.805,1.462 L6.792,1.668 L6.588,1.873 L6.584,2.079 L5.97,2.902 L5.923,3.108 L5.376,3.726 L5.345,3.932 L4.548,4.755 L4.284,5.166 L3.701,5.784 L1.52,7.842 L0.418,9.077 L0.391,9.283 Z" fill="red" />
    </g>
  </g>
  
  
  <g transform="translate(149, 214) rotate(180)">
    <text font-family="Arial" font-size="24" font-weight="bold" fill="#FF0000">K</text>
    <g transform="translate(8, 14) scale(0.8)">
      <path d="M-0.103,9.961 L-0.411,9.283 L-0.613,9.077 L-0.828,8.665 L-4.932,4.549 L-5.162,4.137 L-5.735,3.52 L-5.776,3.314 L-6.174,2.902 L-6.191,2.697 L-6.548,2.285 L-6.586,2.079 L-6.783,1.873 L-6.792,1.668 L-6.997,1.462 L-7,1.256 L-7.203,1.05 L-7.204,0.844 L-7.404,0.638 L-7.409,0.433 L-7.615,0.021 L-7.615,-0.185 L-7.797,-0.391 L-7.821,-0.802 L-8.004,-1.008 L-8.036,-1.625 L-8.228,-1.831 L-8.27,-2.655 L-8.417,-2.86 L-8.438,-5.948 L-8.396,-6.153 L-8.257,-6.359 L-8.205,-6.977 L-8.028,-7.182 L-8.026,-7.388 L-7.836,-7.594 L-7.821,-7.8 L-7.631,-8.006 L-7.609,-8.212 L-6.483,-9.341 L-6.277,-9.386 L-6.071,-9.549 L-5.865,-9.585 L-5.66,-9.755 L-5.454,-9.755 L-5.042,-9.961 L-3.396,-9.929 L-3.19,-9.763 L-2.984,-9.755 L-2.367,-9.374 L-2.161,-9.341 L-1.749,-8.958 L-1.338,-8.716 L-0.926,-8.312 L-0.442,-7.8 L-0.103,-7.285 L1.75,-9.129 L1.955,-9.199 L2.367,-9.543 L2.573,-9.551 L2.779,-9.755 L3.19,-9.802 L3.396,-9.961 L5.043,-9.941 L5.248,-9.777 L5.66,-9.754 L5.866,-9.551 L6.072,-9.546 L6.278,-9.343 L6.689,-9.126 L7.363,-8.417 L7.413,-8.212 L7.615,-8.006 L7.656,-7.8 L7.821,-7.594 L7.843,-7.388 L8.026,-7.182 L8.058,-6.771 L8.221,-6.565 L8.243,-5.742 L8.4,-5.536 L8.438,-4.507 L8.428,-3.684 L8.238,-3.272 L8.233,-2.449 L8.204,-2.243 L8.062,-2.037 L8.014,-1.42 L7.862,-1.214 L7.821,-0.802 L7.67,-0.596 L7.615,-0.185 L7.425,0.021 L7.396,0.433 L7.204,0.638 L7.199,0.844 L6.999,1.05 L6.998,1.256 L6.805,1.462 L6.792,1.668 L6.588,1.873 L6.584,2.079 L5.97,2.902 L5.923,3.108 L5.376,3.726 L5.345,3.932 L4.548,4.755 L4.284,5.166 L3.701,5.784 L1.52,7.842 L0.418,9.077 L0.391,9.283 Z" fill="red" />
    </g>
  </g>
  
  
  <g transform="translate(84.5, 122)">
    
        
        <g>
        <g>
      
        <g>
          <path d="M-18 -70 L-12 -54 L-6 -62 L0 -50 L6 -62 L12 -54 L18 -70 L18 -48 L-18 -48 Z" fill="#FFD700" stroke="#000000" stroke-width="1.2" />
          <rect x="-18" y="-52" width="36" height="6" rx="2" fill="#FFD700" stroke="#000000" stroke-width="1.2" />
          <circle cx="0" cy="-58" r="3.6" fill="#C21924" stroke="#000000" stroke-width="1" />
          <circle cx="-11" cy="-57" r="2.2" fill="#1E5AA8" stroke="#000000" stroke-width="0.9" />
          <circle cx="11" cy="-57" r="2.2" fill="#1E5AA8" stroke="#000000" stroke-width="0.9" />
        </g>
        
      
        <g>
          <path d="M-18 -44 Q-14 -60 -2 -58 Q0 -64 2 -58 Q14 -60 18 -44                    Q14 -54 8 -52 Q3 -50 0 -54 Q-3 -50 -8 -52 Q-14 -54 -18 -44 Z" fill="#1F1F1F" stroke="#000000" stroke-width="1.2" />
          <path d="M-17 -26 Q-20 -20 -16 -16" stroke="#000000" stroke-width="1.2" fill="none" stroke-linecap="round" />
          <path d="M17 -26 Q20 -20 16 -16" stroke="#000000" stroke-width="1.2" fill="none" stroke-linecap="round" />
        </g>
        
      <ellipse cx="0" cy="-34" rx="16.5" ry="18.5" fill="#FFE4B5" stroke="#000000" stroke-width="1.2" />
      
      <circle cx="-9" cy="-30" r="2.4" fill="#C21924" opacity="0.35" />
      <circle cx="9" cy="-30" r="2.4" fill="#C21924" opacity="0.35" />
    
      
      <circle cx="-6.2" cy="-40" r="1.7" fill="#000000" />
      <circle cx="6.2" cy="-40" r="1.7" fill="#000000" />
      <path d="M-10 -44 Q-6 -46 -2 -44" stroke="#000000" stroke-width="1.2" fill="none" stroke-linecap="round" />
      <path d="M2 -44 Q6 -46 10 -44" stroke="#000000" stroke-width="1.2" fill="none" stroke-linecap="round" />
    
      <path d="M0 -38 Q2 -34 0 -30" stroke="#000000" stroke-width="1.2" fill="none" stroke-linecap="round" />
      <path d="M-5 -22 Q0 -19 5 -22" stroke="#000000" stroke-width="1.2" fill="none" stroke-linecap="round" />
      
          <path d="M-11 -26 Q-6 -22 0 -24 Q6 -22 11 -26 Q6 -18 0 -20 Q-6 -18 -11 -26 Z" fill="#1F1F1F" stroke="#000000" stroke-width="1.1" />
        
      
          <path d="M-14 -20 Q0 -4 14 -20 Q12 6 0 10 Q-12 6 -14 -20 Z" fill="#1F1F1F" stroke="#000000" stroke-width="1.1" />
        
      
      <path d="M-20 -18 L0 -6 L20 -18 L12 -2 L0 3 L-12 -2 Z" fill="#FFFFFF" stroke="#000000" stroke-width="1.2" />
    
      
      <path d="M-30 8 Q0 32 30 8 Q22 -16 0 -28 Q-22 -16 -30 8 Z" fill="#C21924" stroke="#000000" stroke-width="1.2" opacity="0.95" />
    
      
      <path d="M-26 8 Q0 28 26 8 Q18 -8 0 -14 Q-18 -8 -26 8 Z" fill="#4169E1" stroke="#000000" stroke-width="1.3" />
    
      
      <path d="M-24 7 Q0 24 24 7" stroke="#FFD700" stroke-width="3.2" stroke-linecap="round" />
      <path d="M-18 2 L0 14 L18 2" stroke="#FFD700" stroke-width="2.4" stroke-linecap="round" opacity="0.9" />
      <circle cx="0" cy="-8" r="4.4" fill="#FFD700" stroke="#000000" stroke-width="1.1" />
      <circle cx="0" cy="-8" r="1.8" fill="#C21924" stroke="#000000" stroke-width="0.8" />
    
      
      <g opacity="0.9">
        <path d="M-10 10 L-4 4 L2 10 L-4 16 Z" fill="#FFD700" opacity="0.5" />
        <path d="M10 10 L16 4 L22 10 L16 16 Z" fill="#FFD700" opacity="0.5" />
      </g>
    
      
        <g>
          <rect x="-28" y="-64" width="4.5" height="58" rx="2.2" fill="#FFD700" stroke="#000000" stroke-width="1.2" />
          <circle cx="-25.75" cy="-66" r="6.2" fill="#FFD700" stroke="#000000" stroke-width="1.2" />
          <circle cx="-25.75" cy="-66" r="2.6" fill="#C21924" stroke="#000000" stroke-width="1" />
          <path d="M-25.75 -20 L-25.75 -8" stroke="#000000" stroke-width="1.2" stroke-linecap="round" />
        </g>
        
      
        <g>
          <path d="M26 -60 L29 -56 L12 -10 L9 -14 Z" fill="#B0B7C3" stroke="#000000" stroke-width="1" />
          <rect x="8" y="-18" width="10" height="3" rx="1.5" fill="#FFD700" stroke="#000000" stroke-width="1" />
          <rect x="11" y="-14" width="4" height="10" rx="2" fill="#FFD700" stroke="#000000" stroke-width="1" />
        </g>
        
    </g>
        <g transform="rotate(180)">
      
        <g>
          <path d="M-18 -70 L-12 -54 L-6 -62 L0 -50 L6 -62 L12 -54 L18 -70 L18 -48 L-18 -48 Z" fill="#FFD700" stroke="#000000" stroke-width="1.2" />
          <rect x="-18" y="-52" width="36" height="6" rx="2" fill="#FFD700" stroke="#000000" stroke-width="1.2" />
          <circle cx="0" cy="-58" r="3.6" fill="#C21924" stroke="#000000" stroke-width="1" />
          <circle cx="-11" cy="-57" r="2.2" fill="#1E5AA8" stroke="#000000" stroke-width="0.9" />
          <circle cx="11" cy="-57" r="2.2" fill="#1E5AA8" stroke="#000000" stroke-width="0.9" />
        </g>
        
      
        <g>
          <path d="M-18 -44 Q-14 -60 -2 -58 Q0 -64 2 -58 Q14 -60 18 -44                    Q14 -54 8 -52 Q3 -50 0 -54 Q-3 -50 -8 -52 Q-14 -54 -18 -44 Z" fill="#1F1F1F" stroke="#000000" stroke-width="1.2" />
          <path d="M-17 -26 Q-20 -20 -16 -16" stroke="#000000" stroke-width="1.2" fill="none" stroke-linecap="round" />
          <path d="M17 -26 Q20 -20 16 -16" stroke="#000000" stroke-width="1.2" fill="none" stroke-linecap="round" />
        </g>
        
      <ellipse cx="0" cy="-34" rx="16.5" ry="18.5" fill="#FFE4B5" stroke="#000000" stroke-width="1.2" />
      
      <circle cx="-9" cy="-30" r="2.4" fill="#C21924" opacity="0.35" />
      <circle cx="9" cy="-30" r="2.4" fill="#C21924" opacity="0.35" />
    
      
      <circle cx="-6.2" cy="-40" r="1.7" fill="#000000" />
      <circle cx="6.2" cy="-40" r="1.7" fill="#000000" />
      <path d="M-10 -44 Q-6 -46 -2 -44" stroke="#000000" stroke-width="1.2" fill="none" stroke-linecap="round" />
      <path d="M2 -44 Q6 -46 10 -44" stroke="#000000" stroke-width="1.2" fill="none" stroke-linecap="round" />
    
      <path d="M0 -38 Q2 -34 0 -30" stroke="#000000" stroke-width="1.2" fill="none" stroke-linecap="round" />
      <path d="M-5 -22 Q0 -19 5 -22" stroke="#000000" stroke-width="1.2" fill="none" stroke-linecap="round" />
      
          <path d="M-11 -26 Q-6 -22 0 -24 Q6 -22 11 -26 Q6 -18 0 -20 Q-6 -18 -11 -26 Z" fill="#1F1F1F" stroke="#000000" stroke-width="1.1" />
        
      
          <path d="M-14 -20 Q0 -4 14 -20 Q12 6 0 10 Q-12 6 -14 -20 Z" fill="#1F1F1F" stroke="#000000" stroke-width="1.1" />
        
      
      <path d="M-20 -18 L0 -6 L20 -18 L12 -2 L0 3 L-12 -2 Z" fill="#FFFFFF" stroke="#000000" stroke-width="1.2" />
    
      
      <path d="M-30 8 Q0 32 30 8 Q22 -16 0 -28 Q-22 -16 -30 8 Z" fill="#C21924" stroke="#000000" stroke-width="1.2" opacity="0.95" />
    
      
      <path d="M-26 8 Q0 28 26 8 Q18 -8 0 -14 Q-18 -8 -26 8 Z" fill="#4169E1" stroke="#000000" stroke-width="1.3" />
    
      
      <path d="M-24 7 Q0 24 24 7" stroke="#FFD700" stroke-width="3.2" stroke-linecap="round" />
      <path d="M-18 2 L0 14 L18 2" stroke="#FFD700" stroke-width="2.4" stroke-linecap="round" opacity="0.9" />
      <circle cx="0" cy="-8" r="4.4" fill="#FFD700" stroke="#000000" stroke-width="1.1" />
      <circle cx="0" cy="-8" r="1.8" fill="#C21924" stroke="#000000" stroke-width="0.8" />
    
      
      <g opacity="0.9">
        <path d="M-10 10 L-4 4 L2 10 L-4 16 Z" fill="#FFD700" opacity="0.5" />
        <path d="M10 10 L16 4 L22 10 L16 16 Z" fill="#FFD700" opacity="0.5" />
      </g>
    
      
        <g>
          <rect x="-28" y="-64" width="4.5" height="58" rx="2.2" fill="#FFD700" stroke="#000000" stroke-width="1.2" />
          <circle cx="-25.75" cy="-66" r="6.2" fill="#FFD700" stroke="#000000" stroke-width="1.2" />
          <circle cx="-25.75" cy="-66" r="2.6" fill="#C21924" stroke="#000000" stroke-width="1" />
          <path d="M-25.75 -20 L-25.75 -8" stroke="#000000" stroke-width="1.2" stroke-linecap="round" />
        </g>
        
      
        <g>
          <path d="M26 -60 L29 -56 L12 -10 L9 -14 Z" fill="#B0B7C3" stroke="#000000" stroke-width="1" />
          <rect x="8" y="-18" width="10" height="3" rx="1.5" fill="#FFD700" stroke="#000000" stroke-width="1" />
          <rect x="11" y="-14" width="4" height="10" rx="2" fill="#FFD700" stroke="#000000" stroke-width="1" />
        </g>
        
    </g>
        <rect x="-32" y="-2.5" width="64" height="5" rx="1.5" fill="#F7F7F7" stroke="#000000" stroke-width="1" opacity="0.92" />
      </g>
    </g>
</g></svg>