<svg xmlns="http://www.w3.org/2000/svg" width="169" height="244" viewBox="0 0 169 244" fill="none">
  
  <rect width="169" height="244" rx="12" fill="white" stroke="#E5E5E5" />
  
  
  <g transform="translate(20, 30)">
    <text font-family="Arial" font-size="24" font-weight="bold" fill="#FF0000">J</text>
    <g transform="translate(8, 14) scale(0.8)">
      <path d="M-0.103,9.961 L-0.411,9.283 L-0.613,9.077 L-0.828,8.665 L-4.932,4.549 L-5.162,4.137 L-5.735,3.52 L-5.776,3.314 L-6.174,2.902 L-6.191,2.697 L-6.548,2.285 L-6.586,2.079 L-6.783,1.873 L-6.792,1.668 L-6.997,1.462 L-7,1.256 L-7.203,1.05 L-7.204,0.844 L-7.404,0.638 L-7.409,0.433 L-7.615,0.021 L-7.615,-0.185 L-7.797,-0.391 L-7.821,-0.802 L-8.004,-1.008 L-8.036,-1.625 L-8.228,-1.831 L-8.27,-2.655 L-8.417,-2.86 L-8.438,-5.948 L-8.396,-6.153 L-8.257,-6.359 L-8.205,-6.977 L-8.028,-7.182 L-8.026,-7.388 L-7.836,-7.594 L-7.821,-7.8 L-7.631,-8.006 L-7.609,-8.212 L-6.483,-9.341 L-6.277,-9.386 L-6.071,-9.549 L-5.865,-9.585 L-5.66,-9.755 L-5.454,-9.755 L-5.042,-9.961 L-3.396,-9.929 L-3.19,-9.763 L-2.984,-9.755 L-2.367,-9.374 L-2.161,-9.341 L-1.749,-8.958 L-1.338,-8.716 L-0.926,-8.312 L-0.442,-7.8 L-0.103,-7.285 L1.75,-9.129 L1.955,-9.199 L2.367,-9.543 L2.573,-9.551 L2.779,-9.755 L3.19,-9.802 L3.396,-9.961 L5.043,-9.941 L5.248,-9.777 L5.66,-9.754 L5.866,-9.551 L6.072,-9.546 L6.278,-9.343 L6.689,-9.126 L7.363,-8.417 L7.413,-8.212 L7.615,-8.006 L7.656,-7.8 L7.821,-7.594 L7.843,-7.388 L8.026,-7.182 L8.058,-6.771 L8.221,-6.565 L8.243,-5.742 L8.4,-5.536 L8.438,-4.507 L8.428,-3.684 L8.238,-3.272 L8.233,-2.449 L8.204,-2.243 L8.062,-2.037 L8.014,-1.42 L7.862,-1.214 L7.821,-0.802 L7.67,-0.596 L7.615,-0.185 L7.425,0.021 L7.396,0.433 L7.204,0.638 L7.199,0.844 L6.999,1.05 L6.998,1.256 L6.805,1.462 L6.792,1.668 L6.588,1.873 L6.584,2.079 L5.97,2.902 L5.923,3.108 L5.376,3.726 L5.345,3.932 L4.548,4.755 L4.284,5.166 L3.701,5.784 L1.52,7.842 L0.418,9.077 L0.391,9.283 Z" fill="red" />
    </g>
  </g>
  
  
  <g transform="translate(149, 214) rotate(180)">
    <text font-family="Arial" font-size="24" font-weight="bold" fill="#FF0000">J</text>
    <g transform="translate(8, 14) scale(0.8)">
      <path d="M-0.103,9.961 L-0.411,9.283 L-0.613,9.077 L-0.828,8.665 L-4.932,4.549 L-5.162,4.137 L-5.735,3.52 L-5.776,3.314 L-6.174,2.902 L-6.191,2.697 L-6.548,2.285 L-6.586,2.079 L-6.783,1.873 L-6.792,1.668 L-6.997,1.462 L-7,1.256 L-7.203,1.05 L-7.204,0.844 L-7.404,0.638 L-7.409,0.433 L-7.615,0.021 L-7.615,-0.185 L-7.797,-0.391 L-7.821,-0.802 L-8.004,-1.008 L-8.036,-1.625 L-8.228,-1.831 L-8.27,-2.655 L-8.417,-2.86 L-8.438,-5.948 L-8.396,-6.153 L-8.257,-6.359 L-8.205,-6.977 L-8.028,-7.182 L-8.026,-7.388 L-7.836,-7.594 L-7.821,-7.8 L-7.631,-8.006 L-7.609,-8.212 L-6.483,-9.341 L-6.277,-9.386 L-6.071,-9.549 L-5.865,-9.585 L-5.66,-9.755 L-5.454,-9.755 L-5.042,-9.961 L-3.396,-9.929 L-3.19,-9.763 L-2.984,-9.755 L-2.367,-9.374 L-2.161,-9.341 L-1.749,-8.958 L-1.338,-8.716 L-0.926,-8.312 L-0.442,-7.8 L-0.103,-7.285 L1.75,-9.129 L1.955,-9.199 L2.367,-9.543 L2.573,-9.551 L2.779,-9.755 L3.19,-9.802 L3.396,-9.961 L5.043,-9.941 L5.248,-9.777 L5.66,-9.754 L5.866,-9.551 L6.072,-9.546 L6.278,-9.343 L6.689,-9.126 L7.363,-8.417 L7.413,-8.212 L7.615,-8.006 L7.656,-7.8 L7.821,-7.594 L7.843,-7.388 L8.026,-7.182 L8.058,-6.771 L8.221,-6.565 L8.243,-5.742 L8.4,-5.536 L8.438,-4.507 L8.428,-3.684 L8.238,-3.272 L8.233,-2.449 L8.204,-2.243 L8.062,-2.037 L8.014,-1.42 L7.862,-1.214 L7.821,-0.802 L7.67,-0.596 L7.615,-0.185 L7.425,0.021 L7.396,0.433 L7.204,0.638 L7.199,0.844 L6.999,1.05 L6.998,1.256 L6.805,1.462 L6.792,1.668 L6.588,1.873 L6.584,2.079 L5.97,2.902 L5.923,3.108 L5.376,3.726 L5.345,3.932 L4.548,4.755 L4.284,5.166 L3.701,5.784 L1.52,7.842 L0.418,9.077 L0.391,9.283 Z" fill="red" />
    </g>
  </g>
  
  
  <g transform="translate(84.5, 122)">
    
        <g transform="translate(-100, 75) scale(0.01, 0.01)">
          
            <g transform="translate(0, 2048) scale(1, -1)" fill="#FF0000" stroke="none">
              <path d="M10260 16269 c0 -769 -10 -5562 -15 -7303 -4 -1347 -7 -1691 -17               -1698 -33 -22 -536 39 -848 103 -924 190 -1955 642 -2666 1170 -95 69 -136 84               -148 53 -4 -9 0 -26 7 -38 7 -12 21 -41 31 -66 10 -25 42 -81 71 -125 319               -481 1413 -1137 2493 -1494 390 -129 795 -217 1004 -216 l68 0 0 -1447 c0               -1374 1 -1447 18 -1441 62 23 620 379 872 556 782 549 1526 1222 2131 1927               1755 2045 2490 4467 1978 6512 -184 736 -508 1376 -993 1963 -129 156 -467               494 -626 625 -648 536 -1384 912 -2260 1155 -326 90 -787 179 -992 191 l-108               7 0 -434z m2445 -4179 c491 -45 935 -260 1254 -606 90 -98 117 -140 101 -159               -18 -22 -38 -18 -74 13 -87 76 -334 176 -561 227 -307 69 -559 89 -999 82               -419 -7 -750 -42 -1114 -119 -186 -39 -206 -40 -210 -11 -2 16 15 37 74 87               417 356 983 536 1529 486z m1199 -3486 c14 -14 14 -19 3 -42 -8 -15 -29 -58               -47 -97 -47 -102 -110 -186 -230 -305 -669 -669 -2288 -1418 -3244 -1500 -87               -8 -122 -7 -132 1 -11 9 -14 69 -14 308 l0 296 93 3 c201 6 589 62 877 127               887 201 1804 608 2510 1113 112 81 145 103 167 111 1 1 9 -6 17 -15z" />
              <path d="M7668 12089 c-379 -33 -771 -194 -1058 -434 -103 -87 -290 -283 -290               -306 0 -40 48 -54 72 -21 7 10 45 37 83 60 191 113 505 199 890 244 177 21               858 18 1065 -5 234 -26 482 -63 650 -99 184 -39 204 -40 208 -11 2 16 -15 37               -74 87 -421 359 -983 536 -1546 485z" />
            </g>
        </g>
      
  </g>
</svg>