<?xml version="1.0" encoding="UTF-8"?><svg xmlns="http://www.w3.org/2000/svg" width="169" height="244" viewBox="0 0 169 244" shape-rendering="geometricPrecision"><path fill="#fefefe" fill-rule="evenodd" d="M161.0,243.5 L8.0,243.5 L7.0,242.5 L6.0,242.5 L5.0,241.5 L4.0,241.5 L1.5,239.0 L1.5,238.0 L0.5,237.0 L0.5,236.0 L-0.5,235.0 L-0.5,7.0 L0.5,6.0 L0.5,5.0 L5.0,0.5 L6.0,0.5 L7.0,-0.5 L160.0,-0.5 L161.0,0.5 L162.0,0.5 L163.0,1.5 L164.0,1.5 L166.5,4.0 L166.5,5.0 L167.5,6.0 L167.5,7.0 L168.5,8.0 L168.5,236.0 L167.5,237.0 L167.5,238.0 L163.0,242.5 L162.0,242.5 Z M93.5,169.0 L94.0,168.5 L97.0,168.5 L98.0,167.5 L100.0,167.5 L101.0,166.5 L102.0,166.5 L103.0,165.5 L105.0,165.5 L106.0,164.5 L107.0,164.5 L109.0,162.5 L110.0,162.5 L112.0,160.5 L113.0,160.5 L122.5,151.0 L122.5,150.0 L125.5,147.0 L125.5,146.0 L126.5,145.0 L126.5,144.0 L127.5,143.0 L127.5,142.0 L128.5,141.0 L128.5,140.0 L129.5,139.0 L129.5,137.0 L130.5,136.0 L130.5,133.0 L131.5,132.0 L131.5,128.0 L132.5,127.0 L132.5,116.0 L131.5,115.0 L131.5,111.0 L130.5,110.0 L130.5,107.0 L129.5,106.0 L129.5,104.0 L128.5,103.0 L128.5,102.0 L127.5,101.0 L127.5,100.0 L126.5,99.0 L126.5,98.0 L125.5,97.0 L125.5,96.0 L123.5,94.0 L123.5,93.0 L113.0,82.5 L112.0,82.5 L110.0,80.5 L109.0,80.5 L107.0,78.5 L106.0,78.5 L105.0,77.5 L103.0,77.5 L102.0,76.5 L101.0,76.5 L100.0,75.5 L98.0,75.5 L97.0,74.5 L94.0,74.5 L93.0,73.5 L75.0,73.5 L74.0,74.5 L71.0,74.5 L70.0,75.5 L68.0,75.5 L67.0,76.5 L66.0,76.5 L65.0,77.5 L64.0,77.5 L63.0,78.5 L61.0,78.5 L59.0,80.5 L58.0,80.5 L56.0,82.5 L55.0,82.5 L44.5,93.0 L44.5,94.0 L42.5,96.0 L42.5,97.0 L41.5,98.0 L41.5,99.0 L40.5,100.0 L40.5,101.0 L39.5,102.0 L39.5,103.0 L38.5,104.0 L38.5,106.0 L37.5,107.0 L37.5,110.0 L36.5,111.0 L36.5,115.0 L35.5,116.0 L35.5,127.0 L36.5,128.0 L36.5,132.0 L37.5,133.0 L37.5,136.0 L38.5,137.0 L38.5,139.0 L39.5,140.0 L39.5,141.0 L40.5,142.0 L40.5,143.0 L41.5,144.0 L41.5,145.0 L42.5,146.0 L42.5,147.0 L44.5,149.0 L44.5,150.0 L55.0,160.5 L56.0,160.5 L58.0,162.5 L59.0,162.5 L61.0,164.5 L63.0,164.5 L64.0,165.5 L65.0,165.5 L66.0,166.5 L67.0,166.5 L68.0,167.5 L70.0,167.5 L71.0,168.5 L74.0,168.5 L75.0,169.5 L93.0,169.5 Z M91.0,158.5 L77.0,158.5 L76.0,157.5 L73.0,157.5 L72.0,156.5 L71.0,156.5 L70.0,155.5 L68.0,155.5 L67.0,154.5 L66.0,154.5 L64.0,152.5 L63.0,152.5 L60.0,149.5 L59.0,149.5 L56.5,147.0 L56.5,146.0 L52.5,142.0 L52.5,141.0 L51.5,140.0 L51.5,139.0 L50.5,138.0 L50.5,137.0 L49.5,136.0 L49.5,135.0 L48.5,134.0 L48.5,131.0 L47.5,130.0 L47.5,126.0 L46.5,125.0 L46.5,118.0 L47.5,117.0 L47.5,113.0 L48.5,112.0 L48.5,109.0 L49.5,108.0 L49.5,107.0 L50.5,106.0 L50.5,105.0 L51.5,104.0 L51.5,103.0 L52.5,102.0 L52.5,101.0 L55.5,98.0 L55.5,97.0 L59.0,93.5 L60.0,93.5 L63.0,90.5 L64.0,90.5 L66.0,88.5 L67.0,88.5 L68.0,87.5 L70.0,87.5 L71.0,86.5 L72.0,86.5 L73.0,85.5 L76.0,85.5 L77.0,84.5 L91.0,84.5 L92.0,85.5 L95.0,85.5 L96.0,86.5 L97.0,86.5 L98.0,87.5 L100.0,87.5 L101.0,88.5 L102.0,88.5 L104.0,90.5 L105.0,90.5 L108.0,93.5 L109.0,93.5 L112.5,97.0 L112.5,98.0 L115.5,101.0 L115.5,102.0 L116.5,103.0 L116.5,104.0 L117.5,105.0 L117.5,106.0 L118.5,107.0 L118.5,108.0 L119.5,109.0 L119.5,112.0 L120.5,113.0 L120.5,117.0 L121.5,118.0 L121.5,125.0 L120.5,126.0 L120.5,130.0 L119.5,131.0 L119.5,134.0 L118.5,135.0 L118.5,136.0 L117.5,137.0 L117.5,138.0 L116.5,139.0 L116.5,140.0 L115.5,141.0 L115.5,142.0 L111.5,146.0 L111.5,147.0 L109.0,149.5 L108.0,149.5 L105.0,152.5 L104.0,152.5 L102.0,154.5 L101.0,154.5 L100.0,155.5 L98.0,155.5 L97.0,156.5 L96.0,156.5 L95.0,157.5 L92.0,157.5 Z"/><path fill="#010101" fill-rule="evenodd" d="M89.0,169.5 L79.0,169.5 L78.0,168.5 L73.0,168.5 L72.0,167.5 L70.0,167.5 L69.0,166.5 L67.0,166.5 L66.0,165.5 L65.0,165.5 L64.0,164.5 L62.0,164.5 L60.0,162.5 L59.0,162.5 L58.0,161.5 L57.0,161.5 L54.0,158.5 L53.0,158.5 L47.5,153.0 L47.5,152.0 L44.5,149.0 L44.5,148.0 L42.5,146.0 L42.5,145.0 L41.5,144.0 L41.5,143.0 L40.5,142.0 L40.5,141.0 L39.5,140.0 L39.5,138.0 L38.5,137.0 L38.5,135.0 L37.5,134.0 L37.5,131.0 L36.5,130.0 L36.5,113.0 L37.5,112.0 L37.5,109.0 L38.5,108.0 L38.5,106.0 L39.5,105.0 L39.5,103.0 L40.5,102.0 L40.5,101.0 L41.5,100.0 L41.5,99.0 L42.5,98.0 L42.5,97.0 L44.5,95.0 L44.5,94.0 L47.5,91.0 L47.5,90.0 L53.0,84.5 L54.0,84.5 L57.0,81.5 L58.0,81.5 L59.0,80.5 L60.0,80.5 L62.0,78.5 L64.0,78.5 L65.0,77.5 L66.0,77.5 L67.0,76.5 L69.0,76.5 L70.0,75.5 L72.0,75.5 L73.0,74.5 L78.0,74.5 L79.0,73.5 L89.0,73.5 L90.0,74.5 L95.0,74.5 L96.0,75.5 L99.0,75.5 L100.0,76.5 L101.0,76.5 L102.0,77.5 L104.0,77.5 L105.0,78.5 L106.0,78.5 L108.0,80.5 L109.0,80.5 L110.0,81.5 L111.0,81.5 L114.0,84.5 L115.0,84.5 L120.5,90.0 L120.5,91.0 L123.5,94.0 L123.5,95.0 L125.5,97.0 L125.5,98.0 L126.5,99.0 L126.5,100.0 L127.5,101.0 L127.5,102.0 L128.5,103.0 L128.5,105.0 L129.5,106.0 L129.5,108.0 L130.5,109.0 L130.5,112.0 L131.5,113.0 L131.5,130.0 L130.5,131.0 L130.5,134.0 L129.5,135.0 L129.5,137.0 L128.5,138.0 L128.5,140.0 L127.5,141.0 L127.5,142.0 L126.5,143.0 L126.5,144.0 L125.5,145.0 L125.5,146.0 L123.5,148.0 L123.5,149.0 L120.5,152.0 L120.5,153.0 L115.0,158.5 L114.0,158.5 L111.0,161.5 L110.0,161.5 L109.0,162.5 L108.0,162.5 L106.0,164.5 L105.0,164.5 L104.0,165.5 L102.0,165.5 L101.0,166.5 L100.0,166.5 L99.0,167.5 L96.0,167.5 L95.0,168.5 L90.0,168.5 Z M87.5,159.0 L88.0,158.5 L93.0,158.5 L94.0,157.5 L96.0,157.5 L97.0,156.5 L99.0,156.5 L100.0,155.5 L101.0,155.5 L103.0,153.5 L104.0,153.5 L105.0,152.5 L106.0,152.5 L114.5,144.0 L114.5,143.0 L116.5,141.0 L116.5,140.0 L117.5,139.0 L117.5,138.0 L118.5,137.0 L118.5,136.0 L119.5,135.0 L119.5,133.0 L120.5,132.0 L120.5,129.0 L121.5,128.0 L121.5,115.0 L120.5,114.0 L120.5,111.0 L119.5,110.0 L119.5,108.0 L118.5,107.0 L118.5,106.0 L117.5,105.0 L117.5,104.0 L116.5,103.0 L116.5,102.0 L114.5,100.0 L114.5,99.0 L106.0,90.5 L105.0,90.5 L104.0,89.5 L103.0,89.5 L101.0,87.5 L100.0,87.5 L99.0,86.5 L97.0,86.5 L96.0,85.5 L94.0,85.5 L93.0,84.5 L88.0,84.5 L87.0,83.5 L81.0,83.5 L80.0,84.5 L75.0,84.5 L74.0,85.5 L72.0,85.5 L71.0,86.5 L69.0,86.5 L68.0,87.5 L67.0,87.5 L66.0,88.5 L65.0,88.5 L63.0,90.5 L62.0,90.5 L53.5,99.0 L53.5,100.0 L51.5,102.0 L51.5,103.0 L50.5,104.0 L50.5,105.0 L49.5,106.0 L49.5,107.0 L48.5,108.0 L48.5,110.0 L47.5,111.0 L47.5,114.0 L46.5,115.0 L46.5,128.0 L47.5,129.0 L47.5,132.0 L48.5,133.0 L48.5,135.0 L49.5,136.0 L49.5,137.0 L50.5,138.0 L50.5,139.0 L51.5,140.0 L51.5,141.0 L53.5,143.0 L53.5,144.0 L62.0,152.5 L63.0,152.5 L64.0,153.5 L65.0,153.5 L67.0,155.5 L68.0,155.5 L69.0,156.5 L71.0,156.5 L72.0,157.5 L74.0,157.5 L75.0,158.5 L80.0,158.5 L81.0,159.5 L87.0,159.5 Z"/><path fill="#5e5e5e" fill-rule="evenodd" d="M78.0,74.5 L77.0,74.5 L76.5,74.0 L77.0,73.5 L78.0,73.5 L78.5,74.0 Z M91.0,74.5 L90.0,74.5 L89.5,74.0 L90.0,73.5 L91.0,73.5 L91.5,74.0 Z M87.0,84.5 L81.0,84.5 L80.5,84.0 L81.0,83.5 L87.0,83.5 L87.5,84.0 Z M121.0,116.5 L120.5,116.0 L120.5,115.0 L121.0,114.5 L121.5,115.0 L121.5,116.0 Z M36.0,124.5 L35.5,124.0 L35.5,119.0 L36.0,118.5 L36.5,119.0 L36.5,124.0 Z M132.0,124.5 L131.5,124.0 L131.5,119.0 L132.0,118.5 L132.5,119.0 L132.5,124.0 Z M121.0,128.5 L120.5,128.0 L120.5,127.0 L121.0,126.5 L121.5,127.0 L121.5,128.0 Z M87.0,159.5 L81.0,159.5 L80.5,159.0 L81.0,158.5 L87.0,158.5 L87.5,159.0 Z M78.0,169.5 L77.0,169.5 L76.5,169.0 L77.0,168.5 L78.0,168.5 L78.5,169.0 Z M91.0,169.5 L90.0,169.5 L89.5,169.0 L90.0,168.5 L91.0,168.5 L91.5,169.0 Z"/><path fill="#a0a0a0" fill-rule="evenodd" d="M76.0,74.5 L75.0,74.5 L74.5,74.0 L75.0,73.5 L76.0,73.5 L76.5,74.0 Z M93.0,74.5 L92.0,74.5 L91.5,74.0 L92.0,73.5 L93.0,73.5 L93.5,74.0 Z M36.0,118.5 L35.5,118.0 L35.5,116.0 L36.0,115.5 L36.5,116.0 L36.5,118.0 Z M47.0,117.5 L46.5,117.0 L46.5,116.0 L47.0,115.5 L47.5,116.0 L47.5,117.0 Z M132.0,118.5 L131.5,118.0 L131.5,116.0 L132.0,115.5 L132.5,116.0 L132.5,118.0 Z M36.0,127.5 L35.5,127.0 L35.5,125.0 L36.0,124.5 L36.5,125.0 L36.5,127.0 Z M132.0,127.5 L131.5,127.0 L131.5,125.0 L132.0,124.5 L132.5,125.0 L132.5,127.0 Z M47.0,127.5 L46.5,127.0 L46.5,126.0 L47.0,125.5 L47.5,126.0 L47.5,127.0 Z M76.0,169.5 L75.0,169.5 L74.5,169.0 L75.0,168.5 L76.0,168.5 L76.5,169.0 Z M93.0,169.5 L92.0,169.5 L91.5,169.0 L92.0,168.5 L93.0,168.5 L93.5,169.0 Z"/></svg>