<?xml version="1.0" encoding="UTF-8"?><svg xmlns="http://www.w3.org/2000/svg" width="169" height="244" viewBox="0 0 169 244" shape-rendering="geometricPrecision"><path fill="#fefefe" fill-rule="evenodd" d="M161.0,243.5 L8.0,243.5 L7.0,242.5 L6.0,242.5 L5.0,241.5 L4.0,241.5 L1.5,239.0 L1.5,238.0 L0.5,237.0 L0.5,236.0 L-0.5,235.0 L-0.5,7.0 L0.5,6.0 L0.5,5.0 L5.0,0.5 L6.0,0.5 L7.0,-0.5 L160.0,-0.5 L161.0,0.5 L162.0,0.5 L163.0,1.5 L164.0,1.5 L166.5,4.0 L166.5,5.0 L167.5,6.0 L167.5,7.0 L168.5,8.0 L168.5,236.0 L167.5,237.0 L167.5,238.0 L163.0,242.5 L162.0,242.5 Z M47.5,33.0 L47.5,32.0 L43.5,28.0 L43.5,27.0 L38.5,22.0 L38.5,21.0 L37.5,20.0 L37.5,19.0 L45.0,11.5 L46.0,11.5 L47.5,10.0 L47.0,9.5 L41.0,9.5 L31.0,19.5 L30.5,19.0 L30.5,10.0 L30.0,9.5 L25.0,9.5 L24.5,10.0 L24.5,33.0 L25.0,33.5 L30.0,33.5 L30.5,33.0 L30.5,25.0 L33.0,22.5 L34.5,24.0 L34.5,25.0 L38.5,29.0 L38.5,30.0 L42.0,33.5 L47.0,33.5 Z M115.5,202.0 L116.0,201.5 L117.0,201.5 L119.5,199.0 L119.5,198.0 L120.5,197.0 L120.5,193.0 L119.5,192.0 L119.5,191.0 L116.5,188.0 L116.5,174.0 L116.5,132.0 L118.5,130.0 L117.5,129.0 L117.5,127.0 L116.5,126.0 L117.0,125.5 L118.0,125.5 L120.5,123.0 L120.5,120.0 L118.0,117.5 L117.0,117.5 L116.5,117.0 L117.5,116.0 L117.5,114.0 L118.5,113.0 L114.0,108.5 L113.0,108.5 L111.0,106.5 L110.0,106.5 L109.0,105.5 L108.0,105.5 L106.5,104.0 L106.5,102.0 L107.5,101.0 L107.5,100.0 L107.0,99.5 L105.0,101.5 L104.5,101.0 L104.5,100.0 L105.5,99.0 L105.5,96.0 L104.5,95.0 L104.5,92.0 L105.5,91.0 L105.5,90.0 L106.5,89.0 L106.5,87.0 L107.5,86.0 L107.5,84.0 L108.5,83.0 L108.5,82.0 L109.5,81.0 L109.5,79.0 L110.5,78.0 L110.5,76.0 L111.5,75.0 L111.5,74.0 L112.5,73.0 L112.5,71.0 L113.5,70.0 L113.5,68.0 L114.5,67.0 L114.5,65.0 L115.5,64.0 L115.5,63.0 L116.5,62.0 L116.5,58.0 L114.5,56.0 L114.5,55.0 L113.0,53.5 L111.5,55.0 L111.5,57.0 L110.5,58.0 L110.5,60.0 L109.5,61.0 L109.5,63.0 L108.5,64.0 L108.5,65.0 L107.5,66.0 L107.5,68.0 L106.5,69.0 L106.5,71.0 L105.5,72.0 L105.5,73.0 L104.5,74.0 L104.5,76.0 L103.5,77.0 L103.5,79.0 L103.0,79.5 L102.5,79.0 L102.5,77.0 L101.5,76.0 L101.5,74.0 L100.5,73.0 L100.5,72.0 L101.0,71.5 L102.0,71.5 L103.0,72.5 L104.0,72.5 L104.5,72.0 L104.5,69.0 L105.5,68.0 L105.5,66.0 L104.5,65.0 L104.5,44.0 L104.0,43.5 L103.0,43.5 L102.5,44.0 L102.5,46.0 L101.5,47.0 L101.5,49.0 L100.5,50.0 L100.5,51.0 L99.5,52.0 L99.5,54.0 L98.0,55.5 L97.0,55.5 L96.0,54.5 L95.0,55.5 L94.0,55.5 L92.5,54.0 L92.5,53.0 L91.0,51.5 L90.0,51.5 L89.5,52.0 L89.5,53.0 L88.0,54.5 L86.0,52.5 L82.0,52.5 L80.0,54.5 L78.5,53.0 L78.5,52.0 L78.0,51.5 L77.0,51.5 L75.5,53.0 L75.5,54.0 L74.0,55.5 L73.0,55.5 L72.0,54.5 L71.0,55.5 L70.0,55.5 L68.5,54.0 L68.5,52.0 L67.5,51.0 L67.5,50.0 L66.5,49.0 L66.5,47.0 L65.5,46.0 L65.5,44.0 L65.0,43.5 L64.0,43.5 L63.5,44.0 L63.5,45.0 L63.0,45.5 L61.5,44.0 L61.5,43.0 L60.0,41.5 L59.0,41.5 L58.0,40.5 L53.0,40.5 L52.0,41.5 L51.0,41.5 L48.5,44.0 L48.5,45.0 L47.5,46.0 L47.5,50.0 L48.5,51.0 L48.5,52.0 L51.5,55.0 L51.5,111.0 L49.5,113.0 L50.5,114.0 L50.5,116.0 L51.5,117.0 L51.0,117.5 L50.0,117.5 L47.5,120.0 L47.5,123.0 L50.0,125.5 L51.0,125.5 L51.5,126.0 L50.5,127.0 L50.5,129.0 L49.5,130.0 L54.0,134.5 L55.0,134.5 L57.0,136.5 L58.0,136.5 L59.0,137.5 L60.0,137.5 L61.5,139.0 L61.5,141.0 L60.5,142.0 L60.5,143.0 L61.0,143.5 L63.0,141.5 L63.5,142.0 L63.5,143.0 L62.5,144.0 L62.5,147.0 L63.5,148.0 L63.5,151.0 L62.5,152.0 L62.5,153.0 L61.5,154.0 L61.5,156.0 L60.5,157.0 L60.5,159.0 L59.5,160.0 L59.5,161.0 L58.5,162.0 L58.5,164.0 L57.5,165.0 L57.5,167.0 L56.5,168.0 L56.5,169.0 L55.5,170.0 L55.5,172.0 L54.5,173.0 L54.5,175.0 L53.5,176.0 L53.5,178.0 L52.5,179.0 L52.5,180.0 L51.5,181.0 L51.5,185.0 L53.5,187.0 L53.5,188.0 L55.0,189.5 L56.5,188.0 L56.5,186.0 L57.5,185.0 L57.5,183.0 L58.5,182.0 L58.5,180.0 L59.5,179.0 L59.5,178.0 L60.5,177.0 L60.5,175.0 L61.5,174.0 L61.5,172.0 L62.5,171.0 L62.5,170.0 L63.5,169.0 L63.5,167.0 L64.5,166.0 L64.5,164.0 L65.0,163.5 L65.5,164.0 L65.5,166.0 L66.5,167.0 L66.5,169.0 L67.5,170.0 L67.5,171.0 L67.0,171.5 L66.0,171.5 L65.0,170.5 L64.0,170.5 L63.5,171.0 L63.5,174.0 L62.5,175.0 L62.5,177.0 L63.5,178.0 L63.5,199.0 L64.0,199.5 L65.0,199.5 L65.5,199.0 L65.5,197.0 L66.5,196.0 L66.5,194.0 L67.5,193.0 L67.5,192.0 L68.5,191.0 L68.5,189.0 L70.0,187.5 L71.0,187.5 L72.0,188.5 L73.0,187.5 L74.0,187.5 L75.5,189.0 L75.5,190.0 L77.0,191.5 L78.0,191.5 L78.5,191.0 L78.5,190.0 L80.0,188.5 L82.0,190.5 L86.0,190.5 L88.0,188.5 L89.5,190.0 L89.5,191.0 L90.0,191.5 L91.0,191.5 L92.5,190.0 L92.5,189.0 L94.0,187.5 L95.0,187.5 L96.0,188.5 L97.0,187.5 L98.0,187.5 L99.5,189.0 L99.5,191.0 L100.5,192.0 L100.5,193.0 L101.5,194.0 L101.5,196.0 L102.5,197.0 L102.5,199.0 L103.0,199.5 L104.0,199.5 L104.5,199.0 L104.5,198.0 L105.0,197.5 L106.5,199.0 L106.5,200.0 L107.0,200.5 L108.0,201.5 L109.0,201.5 L110.0,202.5 L115.0,202.5 Z M37.5,67.0 L36.5,66.0 L36.5,65.0 L35.5,64.0 L35.5,63.0 L36.0,62.5 L37.0,63.5 L38.0,63.5 L39.0,64.5 L40.0,64.5 L41.0,63.5 L42.0,63.5 L43.5,62.0 L43.5,57.0 L42.5,56.0 L42.5,55.0 L40.5,53.0 L40.5,52.0 L37.5,49.0 L37.5,48.0 L35.0,45.5 L34.0,45.5 L30.5,49.0 L30.5,50.0 L28.5,52.0 L28.5,53.0 L26.5,55.0 L26.5,56.0 L25.5,57.0 L25.5,62.0 L27.0,63.5 L28.0,63.5 L29.0,64.5 L30.0,64.5 L31.0,63.5 L32.0,63.5 L32.5,64.0 L32.5,65.0 L31.5,66.0 L31.5,67.0 L32.0,67.5 L37.0,67.5 Z M60.0,105.5 L59.0,105.5 L58.5,105.0 L58.5,55.0 L59.0,54.5 L60.0,54.5 L62.5,52.0 L62.5,51.0 L63.0,50.5 L63.5,51.0 L63.5,65.0 L62.5,66.0 L62.5,68.0 L63.5,69.0 L63.5,72.0 L64.0,72.5 L65.0,72.5 L66.0,71.5 L67.0,71.5 L67.5,72.0 L67.5,73.0 L66.5,74.0 L66.5,76.0 L65.5,77.0 L65.5,80.0 L64.5,81.0 L64.5,87.0 L65.5,88.0 L65.5,91.0 L63.5,93.0 L63.5,95.0 L62.5,96.0 L62.5,99.0 L63.5,100.0 L63.5,101.0 L63.0,101.5 L61.0,99.5 L60.5,100.0 L60.5,101.0 L61.5,102.0 L61.5,104.0 Z M33.0,63.5 L32.5,63.0 L32.5,62.0 L33.0,61.5 L33.5,62.0 L33.5,63.0 Z M67.0,101.5 L66.0,101.5 L64.5,100.0 L64.5,96.0 L65.5,95.0 L65.5,92.0 L66.0,91.5 L66.5,92.0 L66.5,93.0 L67.5,94.0 L67.5,95.0 L68.5,96.0 L68.5,97.0 L67.5,98.0 L67.5,101.0 Z M103.0,100.5 L102.5,100.0 L102.5,98.0 L103.0,97.5 L103.5,98.0 L103.5,100.0 Z M99.0,109.5 L98.0,109.5 L97.5,109.0 L98.0,108.5 L99.0,108.5 L99.5,109.0 Z M72.0,112.5 L71.0,112.5 L70.5,112.0 L72.0,110.5 L72.5,111.0 L72.5,112.0 Z M118.0,123.5 L50.0,123.5 L49.5,123.0 L49.5,120.0 L50.0,119.5 L118.0,119.5 L118.5,120.0 L118.5,123.0 Z M105.0,192.5 L104.5,192.0 L104.5,178.0 L105.5,177.0 L105.5,175.0 L104.5,174.0 L104.5,171.0 L104.0,170.5 L103.0,170.5 L102.0,171.5 L101.0,171.5 L100.5,171.0 L100.5,170.0 L101.5,169.0 L101.5,167.0 L102.5,166.0 L102.5,163.0 L103.5,162.0 L103.5,156.0 L102.5,155.0 L102.5,152.0 L104.5,150.0 L104.5,148.0 L105.5,147.0 L105.5,144.0 L104.5,143.0 L104.5,142.0 L105.0,141.5 L107.0,143.5 L107.5,143.0 L107.5,142.0 L106.5,141.0 L106.5,139.0 L108.0,137.5 L109.0,137.5 L109.5,138.0 L109.5,188.0 L109.0,188.5 L108.0,188.5 L105.5,191.0 L105.5,192.0 Z M102.0,151.5 L101.5,151.0 L101.5,150.0 L100.5,149.0 L100.5,148.0 L99.5,147.0 L99.5,146.0 L100.5,145.0 L100.5,142.0 L101.0,141.5 L102.0,141.5 L103.5,143.0 L103.5,147.0 L102.5,148.0 L102.5,151.0 Z M65.0,145.5 L64.5,145.0 L64.5,143.0 L65.0,142.5 L65.5,143.0 L65.5,145.0 Z M134.5,197.0 L137.5,194.0 L137.5,193.0 L139.5,191.0 L139.5,190.0 L141.5,188.0 L141.5,187.0 L142.5,186.0 L142.5,181.0 L141.0,179.5 L140.0,179.5 L139.0,178.5 L138.0,178.5 L137.0,179.5 L136.0,179.5 L135.5,179.0 L135.5,178.0 L136.5,177.0 L136.5,176.0 L136.0,175.5 L131.0,175.5 L130.5,176.0 L131.5,177.0 L131.5,178.0 L132.5,179.0 L132.5,180.0 L132.0,180.5 L131.0,179.5 L130.0,179.5 L129.0,178.5 L128.0,178.5 L127.0,179.5 L126.0,179.5 L124.5,181.0 L124.5,186.0 L125.5,187.0 L125.5,188.0 L127.5,190.0 L127.5,191.0 L130.5,194.0 L130.5,195.0 L133.0,197.5 L134.0,197.5 Z M135.0,181.5 L134.5,181.0 L134.5,180.0 L135.0,179.5 L135.5,180.0 L135.5,181.0 Z M143.5,233.0 L143.5,210.0 L143.0,209.5 L138.0,209.5 L137.5,210.0 L137.5,218.0 L135.0,220.5 L133.5,219.0 L133.5,218.0 L129.5,214.0 L129.5,213.0 L126.0,209.5 L121.0,209.5 L120.5,210.0 L120.5,211.0 L124.5,215.0 L124.5,216.0 L129.5,221.0 L129.5,222.0 L130.5,223.0 L130.5,224.0 L123.0,231.5 L122.0,231.5 L120.5,233.0 L121.0,233.5 L127.0,233.5 L137.0,223.5 L137.5,224.0 L137.5,233.0 L138.0,233.5 L143.0,233.5 Z"/><path fill="#0f0c0b" fill-rule="evenodd" d="M47.0,33.5 L42.0,33.5 L41.5,33.0 L41.5,32.0 L37.5,28.0 L37.5,27.0 L33.0,22.5 L32.0,23.5 L31.0,23.5 L29.5,25.0 L29.5,33.0 L29.0,33.5 L26.0,33.5 L25.5,33.0 L25.5,10.0 L26.0,9.5 L29.0,9.5 L29.5,10.0 L29.5,20.0 L30.0,20.5 L40.0,10.5 L41.0,10.5 L42.0,9.5 L46.0,9.5 L46.5,10.0 L36.5,20.0 L40.5,24.0 L40.5,25.0 L44.5,29.0 L44.5,30.0 L47.5,33.0 Z M57.0,41.5 L54.0,41.5 L53.5,41.0 L54.0,40.5 L57.0,40.5 L57.5,41.0 Z M53.0,42.5 L52.0,42.5 L51.5,42.0 L52.0,41.5 L53.0,41.5 L53.5,42.0 Z M59.0,42.5 L58.0,42.5 L57.5,42.0 L58.0,41.5 L59.0,41.5 L59.5,42.0 Z M61.0,45.5 L60.5,45.0 L60.5,44.0 L61.0,43.5 L61.5,44.0 L61.5,45.0 Z M104.0,72.5 L102.0,70.5 L100.0,70.5 L99.5,71.0 L99.5,72.0 L99.0,72.5 L97.5,71.0 L97.5,70.0 L98.0,69.5 L101.0,69.5 L101.5,69.0 L101.5,68.0 L98.0,64.5 L93.0,64.5 L92.0,65.5 L91.0,65.5 L90.0,64.5 L88.0,64.5 L87.0,63.5 L81.0,63.5 L80.0,64.5 L78.0,64.5 L77.0,65.5 L76.0,65.5 L75.0,64.5 L70.0,64.5 L66.5,68.0 L66.5,69.0 L67.0,69.5 L70.0,69.5 L70.5,70.0 L70.5,71.0 L69.0,72.5 L68.5,72.0 L68.5,71.0 L68.0,70.5 L66.0,70.5 L64.0,72.5 L63.5,72.0 L63.5,71.0 L64.5,70.0 L63.5,69.0 L63.5,44.0 L64.0,43.5 L64.5,44.0 L64.5,45.0 L65.5,46.0 L65.5,47.0 L64.5,48.0 L64.5,63.0 L65.0,63.5 L67.0,63.5 L68.5,62.0 L68.5,61.0 L69.5,60.0 L69.5,59.0 L70.0,58.5 L72.0,58.5 L73.5,57.0 L73.0,56.5 L71.0,56.5 L69.0,58.5 L68.5,58.0 L68.5,56.0 L69.0,55.5 L74.0,55.5 L76.0,53.5 L76.5,54.0 L76.5,55.0 L75.5,56.0 L76.0,56.5 L78.0,56.5 L78.5,56.0 L78.5,55.0 L79.0,54.5 L81.0,56.5 L82.5,55.0 L82.0,54.5 L81.0,54.5 L80.5,54.0 L81.0,53.5 L82.0,53.5 L83.0,52.5 L85.0,52.5 L86.0,53.5 L87.0,53.5 L87.5,54.0 L87.0,54.5 L86.0,54.5 L85.5,55.0 L87.0,56.5 L89.0,54.5 L89.5,55.0 L89.5,56.0 L90.0,56.5 L92.0,56.5 L92.5,56.0 L91.5,55.0 L91.5,54.0 L92.0,53.5 L94.0,55.5 L99.0,55.5 L99.5,56.0 L99.5,58.0 L99.0,58.5 L97.0,56.5 L95.0,56.5 L94.5,57.0 L96.0,58.5 L98.0,58.5 L98.5,59.0 L98.5,60.0 L99.5,61.0 L99.5,62.0 L101.0,63.5 L103.0,63.5 L103.5,63.0 L103.5,48.0 L102.5,47.0 L102.5,46.0 L103.5,45.0 L103.5,44.0 L104.0,43.5 L104.5,44.0 L104.5,69.0 L103.5,70.0 L104.5,71.0 L104.5,72.0 Z M49.0,46.5 L48.5,46.0 L48.5,45.0 L49.0,44.5 L49.5,45.0 L49.5,46.0 Z M56.0,45.5 L55.0,45.5 L54.5,45.0 L55.0,44.5 L56.0,44.5 L56.5,45.0 Z M41.0,63.5 L38.0,63.5 L35.0,60.5 L33.0,60.5 L32.5,61.0 L32.5,62.0 L31.0,63.5 L28.0,63.5 L25.5,61.0 L25.5,58.0 L26.5,57.0 L26.5,56.0 L27.5,55.0 L27.5,54.0 L29.5,52.0 L29.5,51.0 L33.5,47.0 L33.5,46.0 L34.0,45.5 L35.0,45.5 L35.5,46.0 L35.5,47.0 L38.5,50.0 L38.5,51.0 L40.5,53.0 L40.5,54.0 L42.5,56.0 L42.5,58.0 L43.5,59.0 L43.5,61.0 Z M53.0,47.5 L52.5,47.0 L52.5,46.0 L53.0,45.5 L53.5,46.0 L53.5,47.0 Z M62.0,51.5 L61.5,51.0 L61.5,46.0 L62.0,45.5 L62.5,46.0 L62.5,51.0 Z M58.0,49.5 L57.5,49.0 L57.5,47.0 L58.0,46.5 L58.5,47.0 L58.5,49.0 Z M66.0,50.5 L65.5,50.0 L65.5,48.0 L66.0,47.5 L66.5,48.0 L66.5,50.0 Z M102.0,50.5 L101.5,50.0 L101.5,48.0 L102.0,47.5 L102.5,48.0 L102.5,50.0 Z M53.0,50.5 L52.5,50.0 L52.5,49.0 L53.0,48.5 L53.5,49.0 L53.5,50.0 Z M49.0,51.5 L48.5,51.0 L48.5,50.0 L49.0,49.5 L49.5,50.0 L49.5,51.0 Z M56.0,51.5 L55.0,51.5 L54.5,51.0 L55.0,50.5 L56.0,50.5 L56.5,51.0 Z M67.0,52.5 L66.5,52.0 L66.5,51.0 L67.0,50.5 L67.5,51.0 L67.5,52.0 Z M101.0,52.5 L100.5,52.0 L100.5,51.0 L101.0,50.5 L101.5,51.0 L101.5,52.0 Z M51.0,53.5 L50.0,53.5 L49.5,53.0 L49.5,52.0 L50.0,51.5 L51.5,53.0 Z M78.0,54.5 L76.5,53.0 L77.0,52.5 L78.0,52.5 L78.5,53.0 L78.5,54.0 Z M90.0,54.5 L89.5,54.0 L89.5,53.0 L90.0,52.5 L91.0,52.5 L91.5,53.0 Z M51.0,114.5 L50.5,114.0 L50.5,112.0 L52.5,110.0 L52.5,55.0 L53.0,54.5 L57.0,54.5 L58.0,53.5 L59.0,53.5 L59.5,54.0 L58.5,55.0 L58.5,106.0 L59.5,107.0 L58.0,108.5 L57.0,108.5 L56.0,109.5 L55.0,109.5 L54.5,109.0 L54.5,100.0 L55.0,99.5 L55.5,100.0 L55.5,107.0 L56.0,107.5 L57.0,107.5 L57.5,107.0 L57.5,56.0 L57.0,55.5 L54.0,55.5 L53.5,56.0 L53.5,109.0 L54.5,110.0 L51.5,113.0 L51.5,114.0 Z M68.0,55.5 L67.5,55.0 L67.5,54.0 L68.0,53.5 L68.5,54.0 L68.5,55.0 Z M100.0,55.5 L99.5,55.0 L99.5,54.0 L100.0,53.5 L100.5,54.0 L100.5,55.0 Z M114.0,56.5 L113.0,56.5 L112.5,56.0 L112.5,55.0 L113.0,54.5 L114.5,56.0 Z M112.0,58.5 L111.5,58.0 L111.5,57.0 L112.0,56.5 L112.5,57.0 L112.5,58.0 Z M115.0,58.5 L114.5,58.0 L114.5,57.0 L115.0,56.5 L115.5,57.0 L115.5,58.0 Z M116.0,60.5 L115.5,60.0 L115.5,59.0 L116.0,58.5 L116.5,59.0 L116.5,60.0 Z M111.0,61.5 L110.5,61.0 L110.5,60.0 L111.0,59.5 L111.5,60.0 L111.5,61.0 Z M110.0,63.5 L109.5,63.0 L109.5,62.0 L110.0,61.5 L110.5,62.0 L110.5,63.0 Z M115.0,63.5 L114.5,63.0 L114.5,62.0 L115.0,61.5 L115.5,62.0 L115.5,63.0 Z M37.0,67.5 L32.0,67.5 L31.5,67.0 L32.5,66.0 L32.5,65.0 L33.5,64.0 L33.5,63.0 L34.0,62.5 L35.0,62.5 L35.5,63.0 L35.5,65.0 L37.5,67.0 Z M65.5,67.0 L65.5,66.0 L66.5,65.0 L66.0,64.5 L65.0,64.5 L64.5,65.0 L64.5,67.0 L65.0,67.5 Z M103.5,67.0 L103.5,65.0 L103.0,64.5 L102.0,64.5 L101.5,65.0 L102.5,66.0 L102.5,67.0 L103.0,67.5 Z M109.0,66.5 L108.5,66.0 L108.5,65.0 L109.0,64.5 L109.5,65.0 L109.5,66.0 Z M114.0,66.5 L113.5,66.0 L113.5,65.0 L114.0,64.5 L114.5,65.0 L114.5,66.0 Z M75.0,66.5 L74.0,66.5 L73.5,66.0 L74.0,65.5 L75.0,65.5 L75.5,66.0 Z M94.0,66.5 L93.0,66.5 L92.5,66.0 L93.0,65.5 L94.0,65.5 L94.5,66.0 Z M113.0,68.5 L112.5,68.0 L112.5,67.0 L113.0,66.5 L113.5,67.0 L113.5,68.0 Z M108.0,69.5 L107.5,69.0 L107.5,68.0 L108.0,67.5 L108.5,68.0 L108.5,69.0 Z M107.0,71.5 L106.5,71.0 L106.5,70.0 L107.0,69.5 L107.5,70.0 L107.5,71.0 Z M112.0,71.5 L111.5,71.0 L111.5,70.0 L112.0,69.5 L112.5,70.0 L112.5,71.0 Z M76.0,72.5 L74.0,72.5 L73.5,72.0 L74.0,71.5 L76.0,71.5 L76.5,72.0 Z M81.0,72.5 L79.0,72.5 L78.5,72.0 L79.0,71.5 L81.0,71.5 L81.5,72.0 Z M89.0,72.5 L87.0,72.5 L86.5,72.0 L87.0,71.5 L89.0,71.5 L89.5,72.0 Z M94.0,72.5 L92.0,72.5 L91.5,72.0 L92.0,71.5 L94.0,71.5 L94.5,72.0 Z M68.0,74.5 L67.5,74.0 L67.5,73.0 L68.0,72.5 L68.5,73.0 L68.5,74.0 Z M100.0,74.5 L99.5,74.0 L99.5,73.0 L100.0,72.5 L100.5,73.0 L100.5,74.0 Z M106.0,74.5 L105.5,74.0 L105.5,73.0 L106.0,72.5 L106.5,73.0 L106.5,74.0 Z M111.0,74.5 L110.5,74.0 L110.5,73.0 L111.0,72.5 L111.5,73.0 L111.5,74.0 Z M67.0,77.5 L66.5,77.0 L66.5,75.0 L67.0,74.5 L67.5,75.0 L67.5,77.0 Z M101.0,77.5 L100.5,77.0 L100.5,75.0 L101.0,74.5 L101.5,75.0 L101.5,77.0 Z M78.0,78.5 L76.0,78.5 L75.5,78.0 L75.5,76.0 L76.0,75.5 L78.0,75.5 L78.5,76.0 L78.5,78.0 Z M92.0,78.5 L90.0,78.5 L89.5,78.0 L89.5,76.0 L90.0,75.5 L92.0,75.5 L92.5,76.0 L92.5,78.0 Z M105.0,77.5 L104.5,77.0 L104.5,76.0 L105.0,75.5 L105.5,76.0 L105.5,77.0 Z M110.0,77.5 L109.5,77.0 L109.5,76.0 L110.0,75.5 L110.5,76.0 L110.5,77.0 Z M66.0,89.5 L65.5,89.0 L65.5,78.0 L66.0,77.5 L66.5,78.0 L66.5,89.0 Z M102.0,85.5 L101.5,85.0 L101.5,78.0 L102.0,77.5 L102.5,78.0 L102.5,80.0 L103.5,81.0 L103.5,82.0 L102.5,83.0 L102.5,85.0 Z M104.0,80.5 L103.5,80.0 L103.5,78.0 L104.0,77.5 L104.5,78.0 L104.5,80.0 Z M109.0,79.5 L108.5,79.0 L108.5,78.0 L109.0,77.5 L109.5,78.0 L109.5,79.0 Z M84.0,80.5 L83.5,80.0 L83.5,79.0 L84.0,78.5 L84.5,79.0 L84.5,80.0 Z M85.0,86.5 L84.5,86.0 L84.5,81.0 L85.0,80.5 L85.5,81.0 L85.5,86.0 Z M108.0,82.5 L107.5,82.0 L107.5,81.0 L108.0,80.5 L108.5,81.0 L108.5,82.0 Z M107.0,85.5 L106.5,85.0 L106.5,84.0 L107.0,83.5 L107.5,84.0 L107.5,85.0 Z M106.0,87.5 L105.5,87.0 L105.5,86.0 L106.0,85.5 L106.5,86.0 L106.5,87.0 Z M84.0,88.5 L83.5,88.0 L83.5,87.0 L84.0,86.5 L84.5,87.0 L84.5,88.0 Z M101.0,88.5 L100.5,88.0 L100.5,87.0 L101.0,86.5 L101.5,87.0 L101.5,88.0 Z M100.0,90.5 L99.5,90.0 L99.5,89.0 L100.0,88.5 L100.5,89.0 L100.5,90.0 Z M105.0,90.5 L104.5,90.0 L104.5,89.0 L105.0,88.5 L105.5,89.0 L105.5,90.0 Z M67.0,92.5 L66.5,92.0 L66.5,91.0 L67.0,90.5 L67.5,91.0 L67.5,92.0 Z M85.0,91.5 L83.0,91.5 L82.5,91.0 L83.0,90.5 L85.0,90.5 L85.5,91.0 Z M82.0,92.5 L81.0,92.5 L80.5,92.0 L81.0,91.5 L82.0,91.5 L82.5,92.0 Z M87.0,92.5 L86.0,92.5 L85.5,92.0 L86.0,91.5 L87.0,91.5 L87.5,92.0 Z M99.0,93.5 L98.5,93.0 L98.5,92.0 L99.0,91.5 L99.5,92.0 L99.5,93.0 Z M106.0,105.5 L105.0,105.5 L104.0,104.5 L103.0,104.5 L102.5,104.0 L103.5,103.0 L102.5,102.0 L102.5,101.0 L103.5,100.0 L103.5,97.0 L102.5,96.0 L102.5,94.0 L103.5,93.0 L103.5,92.0 L104.0,91.5 L104.5,92.0 L104.5,101.0 L105.0,101.5 L106.0,101.5 L106.5,102.0 L105.5,103.0 L105.5,104.0 L106.5,105.0 Z M68.0,94.5 L67.5,94.0 L67.5,93.0 L68.0,92.5 L68.5,93.0 L68.5,94.0 Z M74.0,97.5 L73.5,97.0 L73.5,96.0 L72.5,95.0 L72.5,94.0 L71.5,93.0 L72.0,92.5 L73.0,92.5 L75.0,94.5 L77.0,94.5 L77.5,95.0 L77.0,95.5 L76.0,95.5 Z M80.0,93.5 L79.0,93.5 L78.5,93.0 L79.0,92.5 L80.0,92.5 L80.5,93.0 Z M89.0,93.5 L88.0,93.5 L87.5,93.0 L88.0,92.5 L89.0,92.5 L89.5,93.0 Z M94.0,97.5 L93.0,96.5 L92.0,96.5 L90.5,95.0 L91.0,94.5 L93.0,94.5 L95.0,92.5 L96.0,92.5 L96.5,93.0 L95.5,94.0 L95.5,95.0 L94.5,96.0 L94.5,97.0 Z M64.0,101.5 L63.5,101.0 L63.5,94.0 L64.0,93.5 L64.5,94.0 L64.5,101.0 Z M69.0,96.5 L68.5,96.0 L68.5,95.0 L69.0,94.5 L69.5,95.0 L69.5,96.0 Z M98.0,96.5 L97.5,96.0 L97.5,95.0 L98.0,94.5 L98.5,95.0 L98.5,96.0 Z M102.0,103.5 L101.0,103.5 L100.0,102.5 L98.0,102.5 L97.0,101.5 L95.0,101.5 L94.5,101.0 L95.5,100.0 L95.5,99.0 L94.5,98.0 L95.0,97.5 L96.0,97.5 L97.0,96.5 L97.5,97.0 L97.5,99.0 L96.5,100.0 L97.0,100.5 L100.0,100.5 L101.0,99.5 L101.5,100.0 L101.5,102.0 L102.5,103.0 Z M102.0,98.5 L101.5,98.0 L101.5,97.0 L102.0,96.5 L102.5,97.0 L102.5,98.0 Z M72.0,99.5 L71.0,99.5 L70.5,99.0 L70.5,98.0 L71.0,97.5 L73.0,97.5 L73.5,98.0 Z M88.0,99.5 L80.0,99.5 L79.5,99.0 L80.0,98.5 L88.0,98.5 L88.5,99.0 Z M70.0,102.5 L68.0,102.5 L67.5,102.0 L68.5,101.0 L68.5,100.0 L69.0,99.5 L70.0,99.5 L71.0,100.5 L73.0,100.5 L73.5,101.0 L73.0,101.5 L71.0,101.5 Z M79.0,100.5 L74.0,100.5 L73.5,100.0 L74.0,99.5 L79.0,99.5 L79.5,100.0 Z M94.0,100.5 L89.0,100.5 L88.5,100.0 L89.0,99.5 L94.0,99.5 L94.5,100.0 Z M92.0,102.5 L85.0,102.5 L84.0,101.5 L83.0,102.5 L76.0,102.5 L75.5,102.0 L76.0,101.5 L82.0,101.5 L83.0,100.5 L85.0,100.5 L86.0,101.5 L92.0,101.5 L92.5,102.0 Z M63.0,105.5 L62.0,105.5 L61.5,105.0 L62.5,104.0 L62.5,103.0 L61.5,102.0 L62.0,101.5 L63.0,101.5 L64.0,102.5 L65.0,101.5 L66.0,102.5 L67.0,102.5 L67.5,103.0 L67.0,103.5 L66.0,103.5 L65.0,104.5 L64.0,104.5 Z M75.0,103.5 L72.0,103.5 L71.5,103.0 L72.0,102.5 L75.0,102.5 L75.5,103.0 Z M96.0,103.5 L93.0,103.5 L92.5,103.0 L93.0,102.5 L96.0,102.5 L96.5,103.0 Z M69.0,105.5 L68.0,105.5 L67.5,105.0 L69.0,103.5 L71.0,103.5 L71.5,104.0 L71.0,104.5 L70.0,104.5 Z M101.0,105.5 L99.0,105.5 L98.0,104.5 L97.0,104.5 L96.5,104.0 L97.0,103.5 L99.0,103.5 L100.0,104.5 L101.0,104.5 L101.5,105.0 Z M61.0,106.5 L60.0,106.5 L59.5,106.0 L60.0,105.5 L61.0,105.5 L61.5,106.0 Z M103.0,106.5 L102.0,106.5 L101.5,106.0 L102.0,105.5 L103.0,105.5 L103.5,106.0 Z M108.0,106.5 L107.0,106.5 L106.5,106.0 L107.0,105.5 L108.0,105.5 L108.5,106.0 Z M105.0,107.5 L104.0,107.5 L103.5,107.0 L104.0,106.5 L105.0,106.5 L105.5,107.0 Z M110.0,107.5 L109.0,107.5 L108.5,107.0 L109.0,106.5 L110.0,106.5 L110.5,107.0 Z M107.0,108.5 L106.0,108.5 L105.5,108.0 L106.0,107.5 L107.0,107.5 L107.5,108.0 Z M113.0,109.5 L112.0,109.5 L111.5,109.0 L112.0,108.5 L113.0,108.5 L113.5,109.0 Z M59.0,110.5 L58.0,110.5 L57.5,110.0 L58.0,109.5 L59.0,109.5 L59.5,110.0 Z M110.0,110.5 L109.0,110.5 L108.5,110.0 L109.0,109.5 L110.0,109.5 L110.5,110.0 Z M55.0,113.5 L54.5,113.0 L54.5,112.0 L55.0,111.5 L56.0,111.5 L56.5,112.0 Z M113.0,113.5 L111.5,112.0 L112.0,111.5 L113.0,111.5 L113.5,112.0 L113.5,113.0 Z M117.0,114.5 L116.5,114.0 L116.5,113.0 L115.5,112.0 L116.0,111.5 L117.0,111.5 L117.5,112.0 L117.5,114.0 Z M52.0,117.5 L51.5,117.0 L51.5,116.0 L52.0,115.5 L52.5,116.0 L52.5,117.0 Z M63.0,119.5 L52.0,119.5 L51.5,119.0 L53.0,117.5 L54.0,118.5 L57.0,118.5 L57.5,118.0 L56.5,117.0 L56.5,116.0 L57.0,115.5 L60.0,118.5 L63.0,118.5 L63.5,119.0 Z M116.0,119.5 L105.0,119.5 L104.5,119.0 L105.0,118.5 L108.0,118.5 L111.0,115.5 L111.5,116.0 L111.5,117.0 L110.5,118.0 L111.0,118.5 L114.0,118.5 L115.0,117.5 L116.5,119.0 Z M116.0,117.5 L115.5,117.0 L115.5,116.0 L116.0,115.5 L116.5,116.0 L116.5,117.0 Z M50.0,119.5 L49.0,119.5 L48.5,119.0 L49.0,118.5 L50.0,118.5 L50.5,119.0 Z M102.0,119.5 L66.0,119.5 L65.5,119.0 L66.0,118.5 L102.0,118.5 L102.5,119.0 Z M119.0,119.5 L118.0,119.5 L117.5,119.0 L118.0,118.5 L119.0,118.5 L119.5,119.0 Z M50.0,124.5 L49.0,124.5 L48.5,124.0 L49.0,123.5 L50.0,123.5 L50.5,124.0 Z M57.0,127.5 L55.5,126.0 L55.5,125.0 L55.0,124.5 L54.0,124.5 L53.0,125.5 L51.5,124.0 L52.0,123.5 L116.0,123.5 L116.5,124.0 L115.0,125.5 L114.0,124.5 L113.0,124.5 L112.0,125.5 L111.0,124.5 L106.0,124.5 L105.0,125.5 L104.0,125.5 L103.0,124.5 L85.0,124.5 L84.0,125.5 L83.0,124.5 L65.0,124.5 L64.0,125.5 L63.0,125.5 L62.0,124.5 L57.0,124.5 L56.5,125.0 L57.5,126.0 L57.5,127.0 Z M119.0,124.5 L118.0,124.5 L117.5,124.0 L118.0,123.5 L119.0,123.5 L119.5,124.0 Z M52.0,127.5 L51.5,127.0 L51.5,126.0 L52.0,125.5 L52.5,126.0 L52.5,127.0 Z M70.0,126.5 L69.0,126.5 L68.5,126.0 L69.0,125.5 L70.0,125.5 L70.5,126.0 Z M83.0,126.5 L81.0,126.5 L80.5,126.0 L81.0,125.5 L83.0,125.5 L83.5,126.0 Z M88.0,128.5 L86.0,126.5 L85.0,126.5 L84.5,126.0 L85.0,125.5 L87.0,125.5 L88.5,127.0 L88.5,128.0 Z M110.0,189.5 L109.0,189.5 L108.5,189.0 L109.5,188.0 L109.5,137.0 L108.5,136.0 L109.5,135.0 L109.5,134.0 L108.5,133.0 L109.5,132.0 L109.5,131.0 L108.5,130.0 L109.5,129.0 L109.5,128.0 L110.5,127.0 L110.5,126.0 L111.0,125.5 L111.5,126.0 L111.5,127.0 L112.0,127.5 L113.0,127.5 L113.5,128.0 L113.0,128.5 L112.0,128.5 L110.5,130.0 L110.5,187.0 L111.0,187.5 L114.0,187.5 L114.5,187.0 L114.5,130.0 L113.5,129.0 L114.0,128.5 L115.0,128.5 L115.5,129.0 L115.5,130.0 L116.0,130.5 L116.5,130.0 L116.5,129.0 L117.0,128.5 L117.5,129.0 L117.5,131.0 L115.5,133.0 L115.5,188.0 L115.0,188.5 L111.0,188.5 Z M116.0,127.5 L115.5,127.0 L115.5,126.0 L116.0,125.5 L116.5,126.0 L116.5,127.0 Z M67.0,135.5 L66.5,135.0 L66.5,128.0 L65.5,127.0 L66.0,126.5 L68.0,126.5 L68.5,127.0 L67.5,128.0 L67.5,135.0 Z M80.0,128.5 L79.5,128.0 L79.5,127.0 L80.0,126.5 L80.5,127.0 L80.5,128.0 Z M58.0,129.5 L57.5,129.0 L57.5,128.0 L58.0,127.5 L58.5,128.0 L58.5,129.0 Z M72.0,135.5 L71.5,135.0 L71.5,128.0 L72.0,127.5 L72.5,128.0 L72.5,131.0 L73.0,131.5 L74.0,131.5 L75.5,133.0 L75.0,133.5 L74.0,133.5 L73.0,132.5 L72.5,133.0 L72.5,135.0 Z M99.0,130.5 L98.0,130.5 L97.5,130.0 L100.0,127.5 L101.0,127.5 L101.5,128.0 Z M52.0,131.5 L51.0,131.5 L50.5,131.0 L50.5,129.0 L51.0,128.5 L51.5,129.0 L51.5,130.0 L52.5,131.0 Z M79.0,132.5 L78.5,132.0 L78.5,129.0 L79.0,128.5 L79.5,129.0 L79.5,132.0 Z M89.0,132.5 L88.5,132.0 L88.5,129.0 L89.0,128.5 L89.5,129.0 L89.5,132.0 Z M56.0,131.5 L55.0,131.5 L54.5,131.0 L54.5,130.0 L55.0,129.5 L56.5,131.0 Z M82.0,131.5 L81.5,131.0 L81.5,130.0 L82.0,129.5 L82.5,130.0 L82.5,131.0 Z M86.0,131.5 L85.5,131.0 L85.5,130.0 L86.0,129.5 L86.5,130.0 L86.5,131.0 Z M60.0,132.5 L59.5,132.0 L59.5,131.0 L60.0,130.5 L60.5,131.0 L60.5,132.0 Z M94.0,133.5 L93.0,133.5 L92.5,133.0 L94.0,131.5 L95.0,131.5 L96.0,130.5 L97.0,130.5 L97.5,131.0 L96.0,132.5 L95.0,132.5 Z M108.0,132.5 L107.5,132.0 L107.5,131.0 L108.0,130.5 L108.5,131.0 L108.5,132.0 Z M113.0,143.5 L112.5,143.0 L112.5,131.0 L113.0,130.5 L113.5,131.0 L113.5,143.0 Z M59.0,133.5 L58.0,133.5 L57.5,133.0 L58.0,132.5 L59.0,132.5 L59.5,133.0 Z M64.0,151.5 L63.5,151.0 L63.5,142.0 L63.0,141.5 L62.0,141.5 L61.5,141.0 L62.5,140.0 L62.5,139.0 L61.5,138.0 L62.0,137.5 L63.0,137.5 L63.5,137.0 L62.0,135.5 L61.0,135.5 L59.5,134.0 L61.0,132.5 L66.0,137.5 L68.0,137.5 L69.0,136.5 L70.0,136.5 L71.0,137.5 L73.0,137.5 L74.0,136.5 L74.5,137.0 L74.5,138.0 L74.0,138.5 L65.0,138.5 L64.5,139.0 L64.5,140.0 L65.5,141.0 L64.5,142.0 L64.5,146.0 L65.5,147.0 L65.5,149.0 L64.5,150.0 L64.5,151.0 Z M88.0,136.5 L86.0,136.5 L85.0,135.5 L83.0,135.5 L82.0,136.5 L80.0,136.5 L79.0,135.5 L78.0,135.5 L77.5,135.0 L78.0,134.5 L79.0,134.5 L79.5,134.0 L79.5,133.0 L80.0,132.5 L81.5,134.0 L80.5,135.0 L81.0,135.5 L82.0,134.5 L86.0,134.5 L87.0,135.5 L87.5,135.0 L86.5,134.0 L88.0,132.5 L88.5,133.0 L88.5,134.0 L89.0,134.5 L90.0,134.5 L90.5,135.0 L90.0,135.5 L89.0,135.5 Z M56.0,134.5 L55.0,134.5 L54.5,134.0 L55.0,133.5 L56.0,133.5 L56.5,134.0 Z M77.0,134.5 L76.0,134.5 L75.5,134.0 L76.0,133.5 L77.0,133.5 L77.5,134.0 Z M92.0,134.5 L91.0,134.5 L90.5,134.0 L91.0,133.5 L92.0,133.5 L92.5,134.0 Z M106.0,141.5 L105.0,141.5 L104.0,140.5 L103.0,141.5 L102.0,140.5 L101.0,140.5 L100.5,140.0 L103.5,137.0 L103.5,136.0 L106.0,133.5 L107.5,135.0 L107.0,135.5 L106.0,135.5 L104.5,137.0 L105.0,137.5 L106.0,137.5 L106.5,138.0 L105.5,139.0 L105.5,140.0 L106.5,141.0 Z M59.0,136.5 L58.0,136.5 L57.5,136.0 L58.0,135.5 L59.0,135.5 L59.5,136.0 Z M61.0,137.5 L60.0,137.5 L59.5,137.0 L60.0,136.5 L61.0,136.5 L61.5,137.0 Z M85.0,137.5 L83.0,137.5 L82.5,137.0 L83.0,136.5 L85.0,136.5 L85.5,137.0 Z M108.0,137.5 L107.0,137.5 L106.5,137.0 L107.0,136.5 L108.0,136.5 L108.5,137.0 Z M75.0,141.5 L74.0,141.5 L73.5,141.0 L74.5,140.0 L74.5,139.0 L75.0,138.5 L75.5,139.0 L75.5,141.0 Z M67.0,143.5 L66.5,143.0 L66.5,142.0 L67.0,141.5 L68.0,141.5 L68.5,142.0 Z M71.0,146.5 L70.5,146.0 L70.5,144.0 L71.5,143.0 L71.5,142.0 L72.0,141.5 L73.0,141.5 L73.5,142.0 L72.5,143.0 L72.5,144.0 L73.5,145.0 L73.0,145.5 L72.0,145.5 Z M99.0,143.5 L98.0,143.5 L97.5,143.0 L99.0,141.5 L99.5,142.0 L99.5,143.0 Z M104.0,148.5 L103.5,148.0 L103.5,142.0 L104.0,141.5 L104.5,142.0 L104.5,148.0 Z M97.0,145.5 L95.0,145.5 L94.5,145.0 L96.0,143.5 L97.0,143.5 L97.5,144.0 L97.5,145.0 Z M66.0,146.5 L65.5,146.0 L65.5,145.0 L66.0,144.5 L66.5,145.0 L66.5,146.0 Z M73.0,150.5 L72.0,150.5 L71.5,150.0 L72.5,149.0 L72.5,148.0 L73.5,147.0 L73.5,146.0 L74.0,145.5 L75.0,146.5 L76.0,146.5 L77.5,148.0 L77.0,148.5 L75.0,148.5 Z M96.0,150.5 L95.0,150.5 L93.0,148.5 L91.0,148.5 L90.5,148.0 L92.0,146.5 L93.0,146.5 L94.0,145.5 L94.5,146.0 L94.5,147.0 L95.5,148.0 L95.5,149.0 L96.5,150.0 Z M70.0,148.5 L69.5,148.0 L69.5,147.0 L70.0,146.5 L70.5,147.0 L70.5,148.0 Z M99.0,148.5 L98.5,148.0 L98.5,147.0 L99.0,146.5 L99.5,147.0 L99.5,148.0 Z M100.0,150.5 L99.5,150.0 L99.5,149.0 L100.0,148.5 L100.5,149.0 L100.5,150.0 Z M69.0,151.5 L68.5,151.0 L68.5,150.0 L69.0,149.5 L69.5,150.0 L69.5,151.0 Z M80.0,150.5 L79.0,150.5 L78.5,150.0 L79.0,149.5 L80.0,149.5 L80.5,150.0 Z M89.0,150.5 L88.0,150.5 L87.5,150.0 L88.0,149.5 L89.0,149.5 L89.5,150.0 Z M82.0,151.5 L81.0,151.5 L80.5,151.0 L81.0,150.5 L82.0,150.5 L82.5,151.0 Z M87.0,151.5 L86.0,151.5 L85.5,151.0 L86.0,150.5 L87.0,150.5 L87.5,151.0 Z M101.0,152.5 L100.5,152.0 L100.5,151.0 L101.0,150.5 L101.5,151.0 L101.5,152.0 Z M85.0,152.5 L83.0,152.5 L82.5,152.0 L83.0,151.5 L85.0,151.5 L85.5,152.0 Z M63.0,154.5 L62.5,154.0 L62.5,153.0 L63.0,152.5 L63.5,153.0 L63.5,154.0 Z M68.0,154.5 L67.5,154.0 L67.5,153.0 L68.0,152.5 L68.5,153.0 L68.5,154.0 Z M102.0,165.5 L101.5,165.0 L101.5,154.0 L102.0,153.5 L102.5,154.0 L102.5,165.0 Z M67.0,156.5 L66.5,156.0 L66.5,155.0 L67.0,154.5 L67.5,155.0 L67.5,156.0 Z M84.0,156.5 L83.5,156.0 L83.5,155.0 L84.0,154.5 L84.5,155.0 L84.5,156.0 Z M62.0,157.5 L61.5,157.0 L61.5,156.0 L62.0,155.5 L62.5,156.0 L62.5,157.0 Z M83.0,162.5 L82.5,162.0 L82.5,157.0 L83.0,156.5 L83.5,157.0 L83.5,162.0 Z M61.0,159.5 L60.5,159.0 L60.5,158.0 L61.0,157.5 L61.5,158.0 L61.5,159.0 Z M66.0,165.5 L65.5,165.0 L65.5,163.0 L64.5,162.0 L64.5,161.0 L65.5,160.0 L65.5,158.0 L66.0,157.5 L66.5,158.0 L66.5,165.0 Z M60.0,162.5 L59.5,162.0 L59.5,161.0 L60.0,160.5 L60.5,161.0 L60.5,162.0 Z M64.0,165.5 L63.5,165.0 L63.5,163.0 L64.0,162.5 L64.5,163.0 L64.5,165.0 Z M84.0,164.5 L83.5,164.0 L83.5,163.0 L84.0,162.5 L84.5,163.0 L84.5,164.0 Z M59.0,165.5 L58.5,165.0 L58.5,164.0 L59.0,163.5 L59.5,164.0 L59.5,165.0 Z M78.0,167.5 L76.0,167.5 L75.5,167.0 L75.5,165.0 L76.0,164.5 L78.0,164.5 L78.5,165.0 L78.5,167.0 Z M92.0,167.5 L90.0,167.5 L89.5,167.0 L89.5,165.0 L90.0,164.5 L92.0,164.5 L92.5,165.0 L92.5,167.0 Z M58.0,167.5 L57.5,167.0 L57.5,166.0 L58.0,165.5 L58.5,166.0 L58.5,167.0 Z M63.0,167.5 L62.5,167.0 L62.5,166.0 L63.0,165.5 L63.5,166.0 L63.5,167.0 Z M67.0,168.5 L66.5,168.0 L66.5,166.0 L67.0,165.5 L67.5,166.0 L67.5,168.0 Z M101.0,168.5 L100.5,168.0 L100.5,166.0 L101.0,165.5 L101.5,166.0 L101.5,168.0 Z M57.0,170.5 L56.5,170.0 L56.5,169.0 L57.0,168.5 L57.5,169.0 L57.5,170.0 Z M62.0,170.5 L61.5,170.0 L61.5,169.0 L62.0,168.5 L62.5,169.0 L62.5,170.0 Z M68.0,170.5 L67.5,170.0 L67.5,169.0 L68.0,168.5 L68.5,169.0 L68.5,170.0 Z M100.0,170.5 L99.5,170.0 L99.5,169.0 L100.0,168.5 L100.5,169.0 L100.5,170.0 Z M104.0,199.5 L103.5,199.0 L103.5,198.0 L102.5,197.0 L102.5,196.0 L103.5,195.0 L103.5,180.0 L103.0,179.5 L101.0,179.5 L99.5,181.0 L99.5,182.0 L98.5,183.0 L98.5,184.0 L98.0,184.5 L96.0,184.5 L94.5,186.0 L95.0,186.5 L97.0,186.5 L99.0,184.5 L99.5,185.0 L99.5,187.0 L99.0,187.5 L94.0,187.5 L92.0,189.5 L91.5,189.0 L91.5,188.0 L92.5,187.0 L92.0,186.5 L90.0,186.5 L89.5,187.0 L89.5,188.0 L89.0,188.5 L87.0,186.5 L85.5,188.0 L86.0,188.5 L87.0,188.5 L87.5,189.0 L87.0,189.5 L86.0,189.5 L85.0,190.5 L83.0,190.5 L82.0,189.5 L81.0,189.5 L80.5,189.0 L81.0,188.5 L82.0,188.5 L82.5,188.0 L81.0,186.5 L79.0,188.5 L78.5,188.0 L78.5,187.0 L78.0,186.5 L76.0,186.5 L75.5,187.0 L76.5,188.0 L76.5,189.0 L76.0,189.5 L74.0,187.5 L69.0,187.5 L68.5,187.0 L68.5,185.0 L69.0,184.5 L71.0,186.5 L73.0,186.5 L73.5,186.0 L72.0,184.5 L70.0,184.5 L69.5,184.0 L69.5,183.0 L68.5,182.0 L68.5,181.0 L67.0,179.5 L65.0,179.5 L64.5,180.0 L64.5,195.0 L65.5,196.0 L65.5,197.0 L64.5,198.0 L64.5,199.0 L64.0,199.5 L63.5,199.0 L63.5,174.0 L64.5,173.0 L63.5,172.0 L63.5,171.0 L64.0,170.5 L66.0,172.5 L68.0,172.5 L68.5,172.0 L68.5,171.0 L69.0,170.5 L70.5,172.0 L70.5,173.0 L70.0,173.5 L67.0,173.5 L66.5,174.0 L66.5,175.0 L70.0,178.5 L75.0,178.5 L76.0,177.5 L77.0,177.5 L78.0,178.5 L80.0,178.5 L81.0,179.5 L87.0,179.5 L88.0,178.5 L90.0,178.5 L91.0,177.5 L92.0,177.5 L93.0,178.5 L98.0,178.5 L101.5,175.0 L101.5,174.0 L101.0,173.5 L98.0,173.5 L97.5,173.0 L97.5,172.0 L99.0,170.5 L99.5,171.0 L99.5,172.0 L100.0,172.5 L102.0,172.5 L104.0,170.5 L104.5,171.0 L104.5,172.0 L103.5,173.0 L104.5,174.0 L104.5,199.0 Z M76.0,171.5 L74.0,171.5 L73.5,171.0 L74.0,170.5 L76.0,170.5 L76.5,171.0 Z M81.0,171.5 L79.0,171.5 L78.5,171.0 L79.0,170.5 L81.0,170.5 L81.5,171.0 Z M89.0,171.5 L87.0,171.5 L86.5,171.0 L87.0,170.5 L89.0,170.5 L89.5,171.0 Z M94.0,171.5 L92.0,171.5 L91.5,171.0 L92.0,170.5 L94.0,170.5 L94.5,171.0 Z M56.0,173.5 L55.5,173.0 L55.5,172.0 L56.0,171.5 L56.5,172.0 L56.5,173.0 Z M61.0,173.5 L60.5,173.0 L60.5,172.0 L61.0,171.5 L61.5,172.0 L61.5,173.0 Z M60.0,175.5 L59.5,175.0 L59.5,174.0 L60.0,173.5 L60.5,174.0 L60.5,175.0 Z M55.0,176.5 L54.5,176.0 L54.5,175.0 L55.0,174.5 L55.5,175.0 L55.5,176.0 Z M66.5,178.0 L65.5,177.0 L65.5,176.0 L65.0,175.5 L64.5,176.0 L64.5,178.0 L65.0,178.5 L66.0,178.5 Z M103.5,178.0 L103.5,176.0 L103.0,175.5 L102.5,176.0 L102.5,177.0 L101.5,178.0 L102.0,178.5 L103.0,178.5 Z M134.0,180.5 L133.0,180.5 L132.5,180.0 L132.5,178.0 L130.5,176.0 L131.0,175.5 L136.0,175.5 L136.5,176.0 L135.5,177.0 L135.5,178.0 L134.5,179.0 L134.5,180.0 Z M54.0,178.5 L53.5,178.0 L53.5,177.0 L54.0,176.5 L54.5,177.0 L54.5,178.0 Z M59.0,178.5 L58.5,178.0 L58.5,177.0 L59.0,176.5 L59.5,177.0 L59.5,178.0 Z M75.0,177.5 L74.0,177.5 L73.5,177.0 L74.0,176.5 L75.0,176.5 L75.5,177.0 Z M94.0,177.5 L93.0,177.5 L92.5,177.0 L93.0,176.5 L94.0,176.5 L94.5,177.0 Z M53.0,181.5 L52.5,181.0 L52.5,180.0 L53.0,179.5 L53.5,180.0 L53.5,181.0 Z M58.0,181.5 L57.5,181.0 L57.5,180.0 L58.0,179.5 L58.5,180.0 L58.5,181.0 Z M134.0,197.5 L133.0,197.5 L132.5,197.0 L132.5,196.0 L129.5,193.0 L129.5,192.0 L127.5,190.0 L127.5,189.0 L125.5,187.0 L125.5,185.0 L124.5,184.0 L124.5,182.0 L127.0,179.5 L130.0,179.5 L133.0,182.5 L135.0,182.5 L135.5,182.0 L135.5,181.0 L137.0,179.5 L140.0,179.5 L142.5,182.0 L142.5,185.0 L141.5,186.0 L141.5,187.0 L140.5,188.0 L140.5,189.0 L138.5,191.0 L138.5,192.0 L134.5,196.0 L134.5,197.0 Z M57.0,183.5 L56.5,183.0 L56.5,182.0 L57.0,181.5 L57.5,182.0 L57.5,183.0 Z M52.0,184.5 L51.5,184.0 L51.5,183.0 L52.0,182.5 L52.5,183.0 L52.5,184.0 Z M53.0,186.5 L52.5,186.0 L52.5,185.0 L53.0,184.5 L53.5,185.0 L53.5,186.0 Z M56.0,186.5 L55.5,186.0 L55.5,185.0 L56.0,184.5 L56.5,185.0 L56.5,186.0 Z M55.0,188.5 L53.5,187.0 L54.0,186.5 L55.0,186.5 L55.5,187.0 L55.5,188.0 Z M68.0,189.5 L67.5,189.0 L67.5,188.0 L68.0,187.5 L68.5,188.0 L68.5,189.0 Z M100.0,189.5 L99.5,189.0 L99.5,188.0 L100.0,187.5 L100.5,188.0 L100.5,189.0 Z M78.0,190.5 L77.0,190.5 L76.5,190.0 L78.0,188.5 L78.5,189.0 L78.5,190.0 Z M91.0,190.5 L90.0,190.5 L89.5,190.0 L89.5,189.0 L90.0,188.5 L91.5,190.0 Z M118.0,191.5 L116.5,190.0 L117.0,189.5 L118.0,189.5 L118.5,190.0 L118.5,191.0 Z M67.0,192.5 L66.5,192.0 L66.5,191.0 L67.0,190.5 L67.5,191.0 L67.5,192.0 Z M101.0,192.5 L100.5,192.0 L100.5,191.0 L101.0,190.5 L101.5,191.0 L101.5,192.0 Z M106.0,197.5 L105.5,197.0 L105.5,192.0 L106.0,191.5 L106.5,192.0 L106.5,197.0 Z M113.0,192.5 L112.0,192.5 L111.5,192.0 L112.0,191.5 L113.0,191.5 L113.5,192.0 Z M119.0,193.5 L118.5,193.0 L118.5,192.0 L119.0,191.5 L119.5,192.0 L119.5,193.0 Z M66.0,195.5 L65.5,195.0 L65.5,193.0 L66.0,192.5 L66.5,193.0 L66.5,195.0 Z M102.0,195.5 L101.5,195.0 L101.5,193.0 L102.0,192.5 L102.5,193.0 L102.5,195.0 Z M115.0,194.5 L114.5,194.0 L114.5,193.0 L115.0,192.5 L115.5,193.0 L115.5,194.0 Z M110.0,196.5 L109.5,196.0 L109.5,194.0 L110.0,193.5 L110.5,194.0 L110.5,196.0 Z M115.0,197.5 L114.5,197.0 L114.5,196.0 L115.0,195.5 L115.5,196.0 L115.5,197.0 Z M119.0,198.5 L118.5,198.0 L118.5,197.0 L119.0,196.5 L119.5,197.0 L119.5,198.0 Z M107.0,199.5 L106.5,199.0 L106.5,198.0 L107.0,197.5 L107.5,198.0 L107.5,199.0 Z M113.0,198.5 L112.0,198.5 L111.5,198.0 L112.0,197.5 L113.0,197.5 L113.5,198.0 Z M110.0,201.5 L109.0,201.5 L108.5,201.0 L109.0,200.5 L110.0,200.5 L110.5,201.0 Z M116.0,201.5 L115.0,201.5 L114.5,201.0 L115.0,200.5 L116.0,200.5 L116.5,201.0 Z M114.0,202.5 L111.0,202.5 L110.5,202.0 L111.0,201.5 L114.0,201.5 L114.5,202.0 Z M142.0,233.5 L139.0,233.5 L138.5,233.0 L138.5,223.0 L138.0,222.5 L128.0,232.5 L127.0,232.5 L126.0,233.5 L122.0,233.5 L121.5,233.0 L131.5,223.0 L127.5,219.0 L127.5,218.0 L123.5,214.0 L123.5,213.0 L120.5,210.0 L121.0,209.5 L126.0,209.5 L126.5,210.0 L126.5,211.0 L130.5,215.0 L130.5,216.0 L135.0,220.5 L136.0,219.5 L137.0,219.5 L138.5,218.0 L138.5,210.0 L139.0,209.5 L142.0,209.5 L142.5,210.0 L142.5,233.0 Z"/><path fill="#fde2b3" fill-rule="evenodd" d="M96.0,97.5 L94.5,96.0 L96.5,94.0 L96.5,92.0 L96.0,91.5 L95.0,92.5 L94.0,92.5 L93.0,93.5 L91.0,93.5 L90.0,92.5 L89.0,92.5 L87.0,90.5 L86.0,90.5 L84.5,89.0 L85.5,88.0 L85.5,85.0 L86.5,84.0 L86.5,83.0 L85.5,82.0 L85.5,80.0 L84.0,78.5 L83.5,79.0 L83.5,82.0 L84.5,83.0 L84.5,84.0 L83.5,85.0 L83.5,89.0 L82.0,90.5 L81.0,90.5 L79.0,92.5 L78.0,92.5 L77.0,93.5 L75.0,93.5 L74.0,92.5 L73.0,92.5 L72.0,91.5 L71.5,92.0 L71.5,94.0 L73.5,96.0 L72.0,97.5 L69.5,95.0 L69.5,94.0 L68.5,93.0 L68.5,92.0 L67.5,91.0 L67.5,88.0 L66.5,87.0 L66.5,80.0 L67.5,79.0 L67.5,77.0 L68.5,76.0 L68.5,74.0 L70.5,72.0 L70.5,71.0 L75.0,66.5 L76.0,66.5 L77.0,65.5 L78.0,65.5 L79.0,64.5 L89.0,64.5 L90.0,65.5 L91.0,65.5 L92.0,66.5 L93.0,66.5 L97.5,71.0 L97.5,72.0 L99.5,74.0 L99.5,76.0 L100.5,77.0 L100.5,79.0 L101.5,80.0 L101.5,84.0 L100.5,85.0 L100.5,87.0 L99.5,88.0 L99.5,89.0 L98.5,90.0 L98.5,92.0 L97.5,93.0 L97.5,95.0 L96.5,96.0 L96.5,97.0 Z M82.5,73.0 L82.5,72.0 L82.0,71.5 L81.0,71.5 L80.0,70.5 L75.0,70.5 L74.0,71.5 L73.0,71.5 L72.5,72.0 L72.5,73.0 L73.0,73.5 L74.0,73.5 L75.0,72.5 L80.0,72.5 L81.0,73.5 L82.0,73.5 Z M95.5,73.0 L95.5,72.0 L95.0,71.5 L94.0,71.5 L93.0,70.5 L88.0,70.5 L87.0,71.5 L86.0,71.5 L85.5,72.0 L85.5,73.0 L86.0,73.5 L87.0,73.5 L88.0,72.5 L93.0,72.5 L94.0,73.5 L95.0,73.5 Z M77.5,79.0 L78.0,78.5 L79.0,78.5 L79.5,78.0 L79.5,76.0 L78.0,74.5 L77.0,74.5 L74.5,77.0 L77.0,79.5 Z M91.5,79.0 L93.5,77.0 L91.0,74.5 L90.0,74.5 L88.5,76.0 L88.5,78.0 L89.0,78.5 L90.0,78.5 L91.0,79.5 Z M75.5,90.0 L76.5,89.0 L76.5,87.0 L75.0,85.5 L73.0,85.5 L71.5,87.0 L71.5,89.0 L73.0,90.5 L75.0,90.5 Z M95.5,90.0 L96.5,89.0 L96.5,87.0 L95.0,85.5 L93.0,85.5 L91.5,87.0 L91.5,89.0 L93.0,90.5 L95.0,90.5 Z M89.0,178.5 L79.0,178.5 L78.0,177.5 L77.0,177.5 L76.0,176.5 L75.0,176.5 L70.5,172.0 L70.5,171.0 L68.5,169.0 L68.5,167.0 L67.5,166.0 L67.5,164.0 L66.5,163.0 L66.5,159.0 L67.5,158.0 L67.5,156.0 L68.5,155.0 L68.5,154.0 L69.5,153.0 L69.5,151.0 L70.5,150.0 L70.5,148.0 L71.5,147.0 L71.5,146.0 L72.0,145.5 L73.5,147.0 L71.5,149.0 L71.5,151.0 L72.0,151.5 L73.0,150.5 L74.0,150.5 L75.0,149.5 L77.0,149.5 L78.0,150.5 L79.0,150.5 L81.0,152.5 L82.0,152.5 L83.5,154.0 L82.5,155.0 L82.5,158.0 L81.5,159.0 L81.5,160.0 L82.5,161.0 L82.5,163.0 L84.0,164.5 L84.5,164.0 L84.5,161.0 L83.5,160.0 L83.5,159.0 L84.5,158.0 L84.5,154.0 L86.0,152.5 L87.0,152.5 L89.0,150.5 L90.0,150.5 L91.0,149.5 L93.0,149.5 L94.0,150.5 L95.0,150.5 L96.0,151.5 L96.5,151.0 L96.5,149.0 L94.5,147.0 L96.0,145.5 L98.5,148.0 L98.5,149.0 L99.5,150.0 L99.5,151.0 L100.5,152.0 L100.5,155.0 L101.5,156.0 L101.5,163.0 L100.5,164.0 L100.5,166.0 L99.5,167.0 L99.5,169.0 L97.5,171.0 L97.5,172.0 L93.0,176.5 L92.0,176.5 L91.0,177.5 L90.0,177.5 Z M75.5,157.0 L76.5,156.0 L76.5,154.0 L75.0,152.5 L73.0,152.5 L71.5,154.0 L71.5,156.0 L73.0,157.5 L75.0,157.5 Z M95.5,157.0 L96.5,156.0 L96.5,154.0 L95.0,152.5 L93.0,152.5 L91.5,154.0 L91.5,156.0 L93.0,157.5 L95.0,157.5 Z M77.5,168.0 L78.0,167.5 L79.0,167.5 L79.5,167.0 L79.5,165.0 L79.0,164.5 L78.0,164.5 L77.0,163.5 L74.5,166.0 L77.0,168.5 Z M91.5,168.0 L93.5,166.0 L91.0,163.5 L90.0,164.5 L89.0,164.5 L88.5,165.0 L88.5,167.0 L89.0,167.5 L90.0,167.5 L91.0,168.5 Z M80.5,172.0 L81.0,171.5 L82.0,171.5 L82.5,171.0 L82.5,170.0 L82.0,169.5 L81.0,169.5 L80.0,170.5 L75.0,170.5 L74.0,169.5 L73.0,169.5 L72.5,170.0 L72.5,171.0 L73.0,171.5 L74.0,171.5 L75.0,172.5 L80.0,172.5 Z M93.5,172.0 L94.0,171.5 L95.0,171.5 L95.5,171.0 L95.5,170.0 L95.0,169.5 L94.0,169.5 L93.0,170.5 L88.0,170.5 L87.0,169.5 L86.0,169.5 L85.5,170.0 L85.5,171.0 L86.0,171.5 L87.0,171.5 L88.0,172.5 L93.0,172.5 Z"/><path fill="#fad403" fill-rule="evenodd" d="M58.0,53.5 L53.0,53.5 L49.5,50.0 L49.5,46.0 L53.0,42.5 L58.0,42.5 L60.5,45.0 L60.5,46.0 L61.5,47.0 L61.5,49.0 L60.5,50.0 L60.5,51.0 Z M57.5,51.0 L58.5,50.0 L58.5,49.0 L59.5,48.0 L58.5,47.0 L58.5,46.0 L57.0,44.5 L54.0,44.5 L51.5,47.0 L51.5,49.0 L52.5,50.0 L52.5,51.0 L53.0,51.5 L57.0,51.5 Z M67.0,62.5 L66.0,62.5 L65.5,62.0 L65.5,52.0 L66.0,51.5 L66.5,52.0 L66.5,54.0 L67.5,55.0 L67.5,57.0 L68.5,58.0 L68.5,61.0 Z M102.0,62.5 L101.0,62.5 L99.5,61.0 L99.5,58.0 L100.5,57.0 L100.5,55.0 L101.5,54.0 L101.5,53.0 L102.0,52.5 L102.5,53.0 L102.5,62.0 Z M54.0,108.5 L53.5,108.0 L53.5,56.0 L54.0,55.5 L56.0,55.5 L56.5,56.0 L56.5,98.0 L56.0,98.5 L55.0,98.5 L54.5,99.0 L54.5,108.0 Z M69.0,69.5 L67.0,69.5 L66.5,69.0 L71.0,64.5 L74.0,64.5 L74.5,65.0 L74.0,65.5 L73.0,65.5 Z M101.0,69.5 L99.0,69.5 L95.0,65.5 L94.0,65.5 L93.5,65.0 L94.0,64.5 L97.0,64.5 L101.5,69.0 Z M102.0,117.5 L99.0,117.5 L97.0,115.5 L96.0,115.5 L94.0,113.5 L93.0,113.5 L92.0,112.5 L91.0,112.5 L89.0,110.5 L88.0,110.5 L85.0,107.5 L83.0,107.5 L81.0,109.5 L80.0,109.5 L78.0,111.5 L77.0,111.5 L75.0,113.5 L74.0,113.5 L72.0,115.5 L71.0,115.5 L69.0,117.5 L66.0,117.5 L65.5,117.0 L67.0,115.5 L68.0,115.5 L69.0,114.5 L70.0,114.5 L72.0,112.5 L73.0,112.5 L75.0,110.5 L76.0,110.5 L78.0,108.5 L79.0,108.5 L81.5,106.0 L81.0,105.5 L80.0,105.5 L79.0,106.5 L75.0,106.5 L74.0,107.5 L72.0,107.5 L71.0,108.5 L70.0,108.5 L69.0,109.5 L67.0,109.5 L66.0,110.5 L65.0,110.5 L63.0,112.5 L62.0,112.5 L61.0,113.5 L60.0,113.5 L58.0,115.5 L57.0,115.5 L55.5,114.0 L59.0,110.5 L60.0,110.5 L62.0,108.5 L63.0,108.5 L64.0,107.5 L65.0,107.5 L66.0,106.5 L67.0,106.5 L68.0,105.5 L70.0,105.5 L71.0,104.5 L74.0,104.5 L75.0,103.5 L79.0,103.5 L80.0,102.5 L88.0,102.5 L89.0,103.5 L93.0,103.5 L94.0,104.5 L97.0,104.5 L98.0,105.5 L99.0,105.5 L100.0,106.5 L102.0,106.5 L103.0,107.5 L104.0,107.5 L105.0,108.5 L106.0,108.5 L108.0,110.5 L109.0,110.5 L112.5,114.0 L111.0,115.5 L110.0,115.5 L108.0,113.5 L107.0,113.5 L105.0,111.5 L104.0,111.5 L103.0,110.5 L102.0,110.5 L101.0,109.5 L100.0,109.5 L99.0,108.5 L97.0,108.5 L96.0,107.5 L94.0,107.5 L93.0,106.5 L88.0,106.5 L87.5,107.0 L88.0,107.5 L89.0,107.5 L91.0,109.5 L92.0,109.5 L95.0,112.5 L96.0,112.5 L98.0,114.5 L99.0,114.5 L101.0,116.5 L102.0,116.5 L102.5,117.0 Z M82.0,133.5 L81.0,133.5 L80.5,133.0 L80.5,128.0 L82.0,126.5 L86.0,126.5 L87.5,128.0 L87.5,132.0 L87.0,132.5 L86.5,132.0 L86.5,129.0 L85.5,128.0 L85.0,127.5 L83.0,127.5 L81.5,129.0 L81.5,132.0 L82.5,133.0 Z M70.0,136.5 L68.5,135.0 L68.5,128.0 L69.0,127.5 L70.0,127.5 L70.5,128.0 L70.5,136.0 Z M57.0,130.5 L55.5,129.0 L56.0,128.5 L57.0,128.5 L57.5,129.0 L57.5,130.0 Z M114.0,187.5 L112.0,187.5 L111.5,187.0 L111.5,174.0 L111.5,145.0 L112.0,144.5 L113.0,144.5 L113.5,144.0 L113.5,131.0 L114.0,130.5 L114.5,131.0 L114.5,187.0 Z M85.0,134.5 L83.0,134.5 L82.5,134.0 L83.0,133.5 L85.0,133.5 L85.5,134.0 Z M74.0,140.5 L65.0,140.5 L64.5,140.0 L65.0,139.5 L74.0,139.5 L74.5,140.0 Z M74.0,178.5 L71.0,178.5 L66.5,174.0 L67.0,173.5 L69.0,173.5 L73.0,177.5 L74.0,177.5 L74.5,178.0 Z M97.0,178.5 L94.0,178.5 L93.5,178.0 L94.0,177.5 L95.0,177.5 L99.0,173.5 L101.0,173.5 L101.5,174.0 Z M66.0,191.5 L65.5,191.0 L65.5,181.0 L66.0,180.5 L67.0,180.5 L68.5,182.0 L68.5,185.0 L67.5,186.0 L67.5,188.0 L66.5,189.0 L66.5,191.0 Z M102.0,190.5 L101.5,190.0 L101.5,189.0 L100.5,188.0 L100.5,186.0 L99.5,185.0 L99.5,182.0 L101.0,180.5 L102.0,180.5 L102.5,181.0 L102.5,190.0 Z M115.0,200.5 L110.0,200.5 L107.5,198.0 L107.5,197.0 L106.5,196.0 L106.5,194.0 L107.5,193.0 L107.5,192.0 L110.0,189.5 L115.0,189.5 L118.5,193.0 L118.5,197.0 Z M114.5,198.0 L116.5,196.0 L116.5,194.0 L115.5,193.0 L115.5,192.0 L115.0,191.5 L111.0,191.5 L108.5,194.0 L108.5,195.0 L109.5,196.0 L109.5,197.0 L111.0,198.5 L114.0,198.5 Z"/><path fill="#b01823" fill-rule="evenodd" d="M56.0,46.5 L55.0,46.5 L54.5,46.0 L55.0,45.5 L56.0,45.5 L56.5,46.0 Z M56.0,50.5 L55.0,50.5 L54.5,50.0 L55.0,49.5 L56.0,49.5 L56.5,50.0 Z M92.0,99.5 L91.0,99.5 L90.0,98.5 L78.0,98.5 L77.0,99.5 L76.0,99.5 L75.5,99.0 L75.5,97.0 L78.0,94.5 L79.0,94.5 L80.0,93.5 L81.0,94.5 L87.0,94.5 L88.0,93.5 L89.0,94.5 L90.0,94.5 L92.5,97.0 L92.5,99.0 Z M78.0,101.5 L76.0,101.5 L75.5,101.0 L76.0,100.5 L78.0,100.5 L78.5,101.0 Z M92.0,101.5 L90.0,101.5 L89.5,101.0 L90.0,100.5 L92.0,100.5 L92.5,101.0 Z M73.0,102.5 L72.0,102.5 L71.5,102.0 L72.0,101.5 L73.0,101.5 L73.5,102.0 Z M96.0,102.5 L95.0,102.5 L94.5,102.0 L95.0,101.5 L96.0,101.5 L96.5,102.0 Z M70.0,103.5 L69.0,103.5 L68.5,103.0 L69.0,102.5 L70.0,102.5 L70.5,103.0 Z M99.0,103.5 L98.0,103.5 L97.5,103.0 L98.0,102.5 L99.0,102.5 L99.5,103.0 Z M67.0,104.5 L66.0,104.5 L65.5,104.0 L66.0,103.5 L67.0,103.5 L67.5,104.0 Z M104.0,105.5 L103.0,105.5 L102.5,105.0 L103.0,104.5 L104.0,104.5 L104.5,105.0 Z M63.0,106.5 L62.0,106.5 L61.5,106.0 L62.0,105.5 L63.0,105.5 L63.5,106.0 Z M106.0,106.5 L105.0,106.5 L104.5,106.0 L105.0,105.5 L106.0,105.5 L106.5,106.0 Z M60.0,108.5 L59.0,108.5 L58.5,108.0 L59.0,107.5 L60.0,107.5 L60.5,108.0 Z M109.0,108.5 L108.0,108.5 L107.5,108.0 L108.0,107.5 L109.0,107.5 L109.5,108.0 Z M57.0,110.5 L56.0,110.5 L55.5,110.0 L57.0,108.5 L58.0,108.5 L58.5,109.0 Z M112.0,110.5 L111.0,110.5 L109.5,109.0 L110.0,108.5 L111.0,108.5 L112.5,110.0 Z M55.0,115.5 L54.0,115.5 L53.0,114.5 L52.0,114.5 L51.5,114.0 L51.5,113.0 L53.0,111.5 L54.0,111.5 L54.5,112.0 L54.5,114.0 L55.5,115.0 Z M114.0,113.5 L113.5,113.0 L113.5,112.0 L114.0,111.5 L115.0,111.5 L115.5,112.0 Z M116.0,114.5 L115.5,114.0 L115.5,113.0 L116.0,112.5 L116.5,113.0 L116.5,114.0 Z M114.0,118.5 L112.0,118.5 L111.5,118.0 L111.5,116.0 L112.0,115.5 L112.5,116.0 L112.5,117.0 L113.0,117.5 L114.0,117.5 L114.5,118.0 Z M56.0,118.5 L54.0,118.5 L53.5,118.0 L54.0,117.5 L55.0,117.5 L56.0,116.5 L56.5,117.0 L56.5,118.0 Z M65.0,136.5 L63.5,135.0 L65.5,133.0 L65.5,132.0 L65.0,131.5 L64.0,131.5 L63.0,130.5 L62.0,130.5 L60.0,128.5 L59.0,128.5 L58.5,128.0 L58.5,127.0 L57.5,126.0 L57.5,125.0 L58.0,124.5 L62.0,124.5 L66.5,129.0 L66.5,134.0 L65.5,135.0 L65.5,136.0 Z M107.0,129.5 L105.0,129.5 L103.5,128.0 L103.5,127.0 L106.0,124.5 L110.0,124.5 L110.5,125.0 L110.5,126.0 L109.5,127.0 L109.5,128.0 L109.0,128.5 L108.0,128.5 Z M115.0,128.5 L114.5,128.0 L114.5,127.0 L115.0,126.5 L115.5,127.0 L115.5,128.0 Z M52.0,130.5 L51.5,130.0 L51.5,129.0 L52.0,128.5 L52.5,129.0 L52.5,130.0 Z M103.0,136.5 L102.5,136.0 L102.5,135.0 L101.5,134.0 L101.5,133.0 L100.5,132.0 L100.5,131.0 L99.5,130.0 L101.0,128.5 L101.5,129.0 L101.5,130.0 L102.5,131.0 L102.5,133.0 L104.5,135.0 Z M116.0,130.5 L115.5,130.0 L115.5,129.0 L116.0,128.5 L116.5,129.0 L116.5,130.0 Z M54.0,131.5 L53.0,131.5 L52.5,131.0 L54.0,129.5 L54.5,130.0 L54.5,131.0 Z M83.0,131.5 L82.5,131.0 L82.5,130.0 L83.0,129.5 L83.5,130.0 L83.5,131.0 Z M85.0,131.5 L84.5,131.0 L84.5,130.0 L85.0,129.5 L85.5,130.0 L85.5,131.0 Z M58.0,134.5 L57.0,134.5 L55.5,133.0 L56.0,132.5 L57.0,132.5 L58.5,134.0 Z M75.0,138.5 L74.5,138.0 L74.5,136.0 L72.5,134.0 L72.5,133.0 L73.0,132.5 L75.0,134.5 L76.0,134.5 L77.0,135.5 L78.0,135.5 L78.5,136.0 L77.0,137.5 L76.0,137.5 Z M95.0,144.5 L94.5,144.0 L94.5,143.0 L94.0,142.5 L93.0,142.5 L92.0,141.5 L91.0,141.5 L90.0,140.5 L89.0,140.5 L88.0,139.5 L80.0,139.5 L79.0,140.5 L78.0,140.5 L77.0,141.5 L76.0,141.5 L75.5,141.0 L75.5,140.0 L76.0,139.5 L78.0,139.5 L79.0,138.5 L82.0,138.5 L83.0,137.5 L85.0,137.5 L86.0,138.5 L89.0,138.5 L90.0,139.5 L93.0,139.5 L93.5,139.0 L92.0,137.5 L91.0,137.5 L89.5,136.0 L90.0,135.5 L91.0,135.5 L92.0,134.5 L93.0,134.5 L94.0,133.5 L95.0,133.5 L97.0,135.5 L98.0,135.5 L99.0,136.5 L100.0,136.5 L101.5,138.0 Z M60.0,135.5 L59.0,135.5 L58.5,135.0 L59.0,134.5 L60.0,134.5 L60.5,135.0 Z M109.0,135.5 L108.0,135.5 L107.5,135.0 L108.0,134.5 L109.0,134.5 L109.5,135.0 Z M73.0,144.5 L72.5,144.0 L72.5,143.0 L73.0,142.5 L73.5,143.0 L73.5,144.0 Z M88.0,149.5 L87.0,148.5 L81.0,148.5 L80.0,149.5 L79.0,148.5 L78.0,148.5 L76.0,146.5 L75.5,146.0 L75.5,145.0 L77.0,143.5 L79.0,143.5 L80.0,142.5 L83.0,142.5 L84.0,143.5 L85.0,142.5 L88.0,142.5 L89.0,143.5 L91.0,143.5 L92.5,145.0 L92.5,146.0 L90.0,148.5 L89.0,148.5 Z M113.0,193.5 L112.0,193.5 L111.5,193.0 L112.0,192.5 L113.0,192.5 L113.5,193.0 Z"/><path fill="#a1a2a2" fill-rule="evenodd" d="M63.0,47.5 L62.5,47.0 L62.5,46.0 L63.0,45.5 L63.5,46.0 L63.5,47.0 Z M63.0,50.5 L62.5,50.0 L62.5,49.0 L63.0,48.5 L63.5,49.0 L63.5,50.0 Z M52.0,110.5 L51.5,110.0 L51.5,87.0 L51.5,56.0 L52.0,55.5 L52.5,56.0 L52.5,110.0 Z M115.0,60.5 L114.5,60.0 L114.5,59.0 L115.0,58.5 L115.5,59.0 L115.5,60.0 Z M30.0,64.5 L29.0,64.5 L28.5,64.0 L29.0,63.5 L30.0,63.5 L30.5,64.0 Z M40.0,64.5 L39.0,64.5 L38.5,64.0 L39.0,63.5 L40.0,63.5 L40.5,64.0 Z M63.0,68.5 L62.5,68.0 L62.5,66.0 L63.0,65.5 L63.5,66.0 L63.5,68.0 Z M105.0,68.5 L104.5,68.0 L104.5,66.0 L105.0,65.5 L105.5,66.0 L105.5,68.0 Z M68.0,72.5 L67.0,71.5 L66.0,71.5 L65.5,71.0 L66.0,70.5 L68.0,70.5 L68.5,71.0 L68.5,72.0 Z M100.0,72.5 L99.5,72.0 L99.5,71.0 L100.0,70.5 L102.0,70.5 L102.5,71.0 L102.0,71.5 L101.0,71.5 Z M65.0,82.5 L64.5,82.0 L64.5,81.0 L65.0,80.5 L65.5,81.0 L65.5,82.0 Z M65.0,87.5 L64.5,87.0 L64.5,85.0 L65.0,84.5 L65.5,85.0 L65.5,87.0 Z M63.0,99.5 L62.5,99.0 L62.5,96.0 L63.0,95.5 L63.5,96.0 L63.5,99.0 Z M105.0,99.5 L104.5,99.0 L104.5,96.0 L105.0,95.5 L105.5,96.0 L105.5,99.0 Z M71.0,113.5 L70.0,113.5 L69.5,113.0 L70.0,112.5 L71.0,112.5 L71.5,113.0 Z M89.0,116.5 L88.0,116.5 L87.5,116.0 L88.0,115.5 L89.0,115.5 L89.5,116.0 Z M51.0,118.5 L50.0,118.5 L49.5,118.0 L50.0,117.5 L51.0,117.5 L51.5,118.0 Z M118.0,118.5 L117.0,118.5 L116.5,118.0 L117.0,117.5 L118.0,117.5 L118.5,118.0 Z M49.0,122.5 L48.5,122.0 L48.5,121.0 L49.0,120.5 L49.5,121.0 L49.5,122.0 Z M119.0,122.5 L118.5,122.0 L118.5,121.0 L119.0,120.5 L119.5,121.0 L119.5,122.0 Z M51.0,125.5 L50.0,125.5 L49.5,125.0 L50.0,124.5 L51.0,124.5 L51.5,125.0 Z M118.0,125.5 L117.0,125.5 L116.5,125.0 L117.0,124.5 L118.0,124.5 L118.5,125.0 Z M116.0,187.5 L115.5,187.0 L115.5,174.0 L115.5,133.0 L116.0,132.5 L116.5,133.0 L116.5,187.0 Z M63.0,147.5 L62.5,147.0 L62.5,145.0 L62.5,144.0 L63.0,143.5 L63.5,144.0 L63.5,147.0 Z M105.0,147.5 L104.5,147.0 L104.5,144.0 L105.0,143.5 L105.5,144.0 L105.5,147.0 Z M103.0,158.5 L102.5,158.0 L102.5,156.0 L103.0,155.5 L103.5,156.0 L103.5,158.0 Z M103.0,162.5 L102.5,162.0 L102.5,160.0 L103.0,159.5 L103.5,160.0 L103.5,162.0 Z M68.0,172.5 L66.0,172.5 L65.5,172.0 L66.0,171.5 L67.0,171.5 L68.0,170.5 L68.5,171.0 L68.5,172.0 Z M102.0,172.5 L100.0,172.5 L99.5,172.0 L99.5,171.0 L100.0,170.5 L101.0,171.5 L102.0,171.5 L102.5,172.0 Z M63.0,177.5 L62.5,177.0 L62.5,175.0 L63.0,174.5 L63.5,175.0 L63.5,177.0 Z M105.0,177.5 L104.5,177.0 L104.5,175.0 L105.0,174.5 L105.5,175.0 L105.5,177.0 Z M129.0,179.5 L128.0,179.5 L127.5,179.0 L128.0,178.5 L129.0,178.5 L129.5,179.0 Z M139.0,179.5 L138.0,179.5 L137.5,179.0 L138.0,178.5 L139.0,178.5 L139.5,179.0 Z M53.0,184.5 L52.5,184.0 L52.5,183.0 L53.0,182.5 L53.5,183.0 L53.5,184.0 Z M105.0,194.5 L104.5,194.0 L104.5,193.0 L105.0,192.5 L105.5,193.0 L105.5,194.0 Z M105.0,197.5 L104.5,197.0 L104.5,196.0 L105.0,195.5 L105.5,196.0 L105.5,197.0 Z"/><path fill="#615f5d" fill-rule="evenodd" d="M25.0,33.5 L24.5,33.0 L24.5,14.0 L24.5,10.0 L25.0,9.5 L25.5,10.0 L25.5,33.0 Z M30.0,20.5 L29.5,20.0 L29.5,14.0 L29.5,10.0 L30.0,9.5 L30.5,10.0 L30.5,20.0 Z M30.0,33.5 L29.5,33.0 L29.5,25.0 L30.0,24.5 L30.5,25.0 L30.5,33.0 Z M48.0,49.5 L47.5,49.0 L47.5,47.0 L48.0,46.5 L48.5,47.0 L48.5,49.0 Z M112.0,59.5 L111.0,59.5 L110.5,59.0 L111.0,58.5 L112.0,58.5 L112.5,59.0 Z M35.0,62.5 L34.0,62.5 L32.5,61.0 L33.0,60.5 L35.0,60.5 L35.5,61.0 L35.5,62.0 Z M116.0,61.5 L115.0,61.5 L114.5,61.0 L115.0,60.5 L116.0,60.5 L116.5,61.0 Z M110.0,64.5 L109.0,64.5 L108.5,64.0 L109.0,63.5 L110.0,63.5 L110.5,64.0 Z M115.0,64.5 L114.0,64.5 L113.5,64.0 L114.0,63.5 L115.0,63.5 L115.5,64.0 Z M109.0,67.5 L108.0,67.5 L107.5,67.0 L108.0,66.5 L109.0,66.5 L109.5,67.0 Z M113.0,69.5 L112.0,69.5 L111.5,69.0 L112.0,68.5 L113.0,68.5 L113.5,69.0 Z M82.0,73.5 L81.5,73.0 L81.5,72.0 L82.0,71.5 L82.5,72.0 L82.5,73.0 Z M86.0,73.5 L85.5,73.0 L85.5,72.0 L86.0,71.5 L86.5,72.0 L86.5,73.0 Z M107.0,72.5 L106.0,72.5 L105.5,72.0 L106.0,71.5 L107.0,71.5 L107.5,72.0 Z M112.0,72.5 L111.0,72.5 L110.5,72.0 L111.0,71.5 L112.0,71.5 L112.5,72.0 Z M106.0,75.5 L105.0,75.5 L104.5,75.0 L105.0,74.5 L106.0,74.5 L106.5,75.0 Z M109.0,80.5 L108.0,80.5 L107.5,80.0 L108.0,79.5 L109.0,79.5 L109.5,80.0 Z M65.0,84.5 L64.5,84.0 L64.5,83.0 L65.0,82.5 L65.5,83.0 L65.5,84.0 Z M108.0,83.5 L107.0,83.5 L106.5,83.0 L107.0,82.5 L108.0,82.5 L108.5,83.0 Z M106.0,88.5 L105.0,88.5 L104.5,88.0 L105.0,87.5 L106.0,87.5 L106.5,88.0 Z M100.0,91.5 L99.0,91.5 L98.5,91.0 L99.0,90.5 L100.0,90.5 L100.5,91.0 Z M105.0,91.5 L104.0,91.5 L103.5,91.0 L104.0,90.5 L105.0,90.5 L105.5,91.0 Z M68.0,101.5 L67.5,101.0 L67.5,99.0 L68.0,98.5 L69.0,98.5 L69.5,99.0 L68.5,100.0 L68.5,101.0 Z M102.0,99.5 L101.0,99.5 L100.5,99.0 L101.0,98.5 L102.0,98.5 L102.5,99.0 Z M62.0,101.5 L61.0,101.5 L60.5,101.0 L61.0,100.5 L62.0,100.5 L62.5,101.0 Z M107.0,101.5 L106.0,101.5 L105.5,101.0 L106.0,100.5 L107.0,100.5 L107.5,101.0 Z M92.0,103.5 L91.0,103.5 L90.5,103.0 L91.0,102.5 L92.0,102.5 L92.5,103.0 Z M49.0,123.5 L48.0,123.5 L47.5,123.0 L47.5,120.0 L48.0,119.5 L49.0,119.5 L49.5,120.0 L48.5,121.0 L48.5,122.0 L49.5,123.0 Z M120.0,123.5 L119.0,123.5 L118.5,123.0 L119.5,122.0 L119.5,121.0 L118.5,120.0 L119.0,119.5 L120.0,119.5 L120.5,120.0 L120.5,123.0 Z M62.0,142.5 L61.0,142.5 L60.5,142.0 L61.0,141.5 L62.0,141.5 L62.5,142.0 Z M66.0,142.5 L65.0,142.5 L64.5,142.0 L65.0,141.5 L66.0,141.5 L66.5,142.0 Z M71.0,142.5 L69.0,142.5 L68.5,142.0 L69.0,141.5 L71.0,141.5 L71.5,142.0 Z M100.0,144.5 L99.0,144.5 L98.5,144.0 L99.5,143.0 L99.5,142.0 L100.0,141.5 L100.5,142.0 L100.5,144.0 Z M107.0,142.5 L106.0,142.5 L105.5,142.0 L106.0,141.5 L107.0,141.5 L107.5,142.0 Z M67.0,144.5 L66.0,144.5 L65.5,144.0 L66.0,143.5 L67.0,143.5 L67.5,144.0 Z M104.0,149.5 L103.0,149.5 L102.5,149.0 L103.0,148.5 L104.0,148.5 L104.5,149.0 Z M64.0,152.5 L63.0,152.5 L62.5,152.0 L63.0,151.5 L64.0,151.5 L64.5,152.0 Z M69.0,152.5 L68.0,152.5 L67.5,152.0 L68.0,151.5 L69.0,151.5 L69.5,152.0 Z M63.0,155.5 L62.0,155.5 L61.5,155.0 L62.0,154.5 L63.0,154.5 L63.5,155.0 Z M61.0,160.5 L60.0,160.5 L59.5,160.0 L60.0,159.5 L61.0,159.5 L61.5,160.0 Z M60.0,163.5 L59.0,163.5 L58.5,163.0 L59.0,162.5 L60.0,162.5 L60.5,163.0 Z M63.0,168.5 L62.0,168.5 L61.5,168.0 L62.0,167.5 L63.0,167.5 L63.5,168.0 Z M82.0,171.5 L81.5,171.0 L81.5,170.0 L82.0,169.5 L82.5,170.0 L82.5,171.0 Z M86.0,171.5 L85.5,171.0 L85.5,170.0 L86.0,169.5 L86.5,170.0 L86.5,171.0 Z M57.0,171.5 L56.0,171.5 L55.5,171.0 L56.0,170.5 L57.0,170.5 L57.5,171.0 Z M62.0,171.5 L61.0,171.5 L60.5,171.0 L61.0,170.5 L62.0,170.5 L62.5,171.0 Z M60.0,176.5 L59.0,176.5 L58.5,176.0 L59.0,175.5 L60.0,175.5 L60.5,176.0 Z M54.0,179.5 L53.0,179.5 L52.5,179.0 L53.0,178.5 L54.0,178.5 L54.5,179.0 Z M59.0,179.5 L58.0,179.5 L57.5,179.0 L58.0,178.5 L59.0,178.5 L59.5,179.0 Z M135.0,182.5 L133.0,182.5 L132.5,182.0 L132.5,181.0 L133.0,180.5 L134.0,180.5 L135.5,182.0 Z M53.0,182.5 L52.0,182.5 L51.5,182.0 L52.0,181.5 L53.0,181.5 L53.5,182.0 Z M57.0,184.5 L56.0,184.5 L55.5,184.0 L56.0,183.5 L57.0,183.5 L57.5,184.0 Z M120.0,196.5 L119.5,196.0 L119.5,194.0 L120.0,193.5 L120.5,194.0 L120.5,196.0 Z M138.0,218.5 L137.5,218.0 L137.5,210.0 L138.0,209.5 L138.5,210.0 L138.5,218.0 Z M143.0,233.5 L142.5,233.0 L142.5,210.0 L143.0,209.5 L143.5,210.0 L143.5,233.0 Z M138.0,233.5 L137.5,233.0 L137.5,223.0 L138.0,222.5 L138.5,223.0 L138.5,233.0 Z"/><path fill="#4269df" fill-rule="evenodd" d="M79.0,107.5 L78.0,107.5 L77.5,107.0 L78.0,106.5 L79.0,106.5 L79.5,107.0 Z M73.0,111.5 L72.5,111.0 L72.5,110.0 L71.5,109.0 L72.0,108.5 L73.0,108.5 L74.0,107.5 L77.0,107.5 L77.5,108.0 L76.0,109.5 L75.0,109.5 Z M108.0,117.5 L104.0,117.5 L102.0,115.5 L101.0,115.5 L99.0,113.5 L98.0,113.5 L96.0,111.5 L95.0,111.5 L94.5,111.0 L94.5,110.0 L92.5,108.0 L93.0,107.5 L94.0,107.5 L95.0,108.5 L97.0,108.5 L98.0,109.5 L100.0,109.5 L101.0,110.5 L102.0,110.5 L103.0,111.5 L104.0,111.5 L106.0,113.5 L107.0,113.5 L109.5,116.0 Z M97.0,117.5 L71.0,117.5 L70.5,117.0 L72.0,115.5 L73.0,115.5 L75.0,113.5 L76.0,113.5 L78.0,111.5 L79.0,111.5 L81.0,109.5 L88.0,116.5 L89.0,116.5 L92.0,113.5 L93.0,113.5 L95.0,115.5 L96.0,115.5 L97.5,117.0 Z M64.0,117.5 L60.0,117.5 L58.5,116.0 L61.0,113.5 L62.0,113.5 L64.5,116.0 L64.5,117.0 Z M78.0,133.5 L77.0,132.5 L76.0,132.5 L75.0,131.5 L74.0,131.5 L72.5,130.0 L72.5,127.0 L71.5,126.0 L72.0,125.5 L79.0,125.5 L79.5,126.0 L78.5,127.0 L78.5,133.0 Z M90.0,133.5 L89.5,133.0 L89.5,127.0 L88.5,126.0 L89.0,125.5 L101.0,125.5 L101.5,126.0 L101.0,126.5 L100.0,126.5 L97.0,129.5 L96.0,129.5 L94.0,131.5 L93.0,131.5 L92.0,132.5 L91.0,132.5 Z"/><path fill="#c32028" fill-rule="evenodd" d="M56.0,49.5 L54.0,49.5 L53.5,49.0 L53.5,47.0 L54.0,46.5 L56.0,46.5 L57.5,48.0 Z M87.0,94.5 L81.0,94.5 L80.5,94.0 L82.0,92.5 L83.0,92.5 L84.0,91.5 L85.0,92.5 L86.0,92.5 L87.5,94.0 Z M75.0,99.5 L74.0,99.5 L73.5,99.0 L75.0,97.5 L75.5,98.0 L75.5,99.0 Z M94.0,99.5 L93.0,99.5 L92.5,99.0 L92.5,98.0 L93.0,97.5 L94.5,99.0 Z M114.0,117.5 L113.0,117.5 L112.5,117.0 L112.5,115.0 L115.0,112.5 L115.5,113.0 L115.5,115.0 L114.5,116.0 L114.5,117.0 Z M55.0,117.5 L54.0,117.5 L53.5,117.0 L53.5,116.0 L54.0,115.5 L55.0,115.5 L55.5,116.0 L55.5,117.0 Z M53.0,130.5 L52.5,130.0 L52.5,128.0 L53.5,127.0 L53.5,126.0 L54.0,125.5 L55.0,125.5 L55.5,126.0 L55.5,128.0 Z M114.0,127.5 L113.0,127.5 L112.5,127.0 L112.5,126.0 L113.0,125.5 L114.0,125.5 L114.5,126.0 L114.5,127.0 Z M104.0,134.5 L102.5,133.0 L102.5,131.0 L101.5,130.0 L101.5,129.0 L103.0,127.5 L105.0,129.5 L107.0,129.5 L107.5,130.0 L106.5,131.0 L106.5,132.0 Z M84.0,131.5 L83.5,131.0 L83.5,130.0 L84.0,129.5 L84.5,130.0 L84.5,131.0 Z M64.0,134.5 L61.5,132.0 L61.5,131.0 L62.0,130.5 L63.0,130.5 L64.0,131.5 L65.0,131.5 L65.5,132.0 L65.5,133.0 Z M102.0,137.5 L101.0,137.5 L100.0,136.5 L99.0,136.5 L98.0,135.5 L97.0,135.5 L95.5,134.0 L95.5,133.0 L96.0,132.5 L97.0,132.5 L99.0,130.5 L100.0,130.5 L100.5,131.0 L100.5,132.0 L101.5,133.0 L101.5,134.0 L102.5,135.0 L102.5,137.0 Z M67.0,137.5 L66.0,137.5 L65.5,137.0 L65.5,135.0 L66.0,134.5 L66.5,135.0 L66.5,136.0 L67.5,137.0 Z M78.0,139.5 L76.0,139.5 L75.5,139.0 L75.5,138.0 L76.0,137.5 L77.0,137.5 L78.0,136.5 L80.0,136.5 L81.0,137.5 L82.0,137.5 L82.5,138.0 L82.0,138.5 L79.0,138.5 Z M93.0,139.5 L90.0,139.5 L89.0,138.5 L86.0,138.5 L85.5,138.0 L86.0,137.5 L87.0,137.5 L88.0,136.5 L90.0,136.5 L91.0,137.5 L92.0,137.5 L93.5,139.0 Z M93.0,145.5 L91.0,143.5 L89.0,143.5 L88.0,142.5 L85.0,142.5 L84.0,143.5 L83.0,142.5 L80.0,142.5 L79.0,143.5 L77.0,143.5 L75.0,145.5 L73.5,144.0 L73.5,143.0 L74.0,142.5 L75.0,142.5 L76.0,141.5 L77.0,141.5 L78.0,140.5 L79.0,140.5 L80.0,139.5 L88.0,139.5 L89.0,140.5 L90.0,140.5 L91.0,141.5 L92.0,141.5 L93.0,142.5 L94.0,142.5 L94.5,143.0 L94.5,144.0 Z M84.0,151.5 L83.0,150.5 L82.0,150.5 L80.5,149.0 L81.0,148.5 L87.0,148.5 L87.5,149.0 L86.0,150.5 L85.0,150.5 Z M114.0,196.5 L112.0,196.5 L110.5,195.0 L112.0,193.5 L114.0,193.5 L114.5,194.0 L114.5,196.0 Z"/><path fill="#afb6c2" fill-rule="evenodd" d="M100.0,100.5 L98.0,100.5 L97.5,100.0 L97.5,99.0 L98.5,98.0 L98.5,96.0 L99.5,95.0 L99.5,93.0 L100.5,92.0 L100.5,91.0 L101.5,90.0 L101.5,88.0 L102.5,87.0 L102.5,85.0 L103.5,84.0 L103.5,83.0 L104.5,82.0 L104.5,80.0 L105.5,79.0 L105.5,77.0 L106.5,76.0 L106.5,74.0 L107.5,73.0 L107.5,72.0 L108.5,71.0 L108.5,69.0 L109.5,68.0 L109.5,66.0 L110.5,65.0 L110.5,64.0 L111.5,63.0 L111.5,61.0 L112.5,60.0 L112.5,58.0 L113.0,57.5 L114.5,59.0 L114.5,62.0 L113.5,63.0 L113.5,64.0 L112.5,65.0 L112.5,67.0 L111.5,68.0 L111.5,70.0 L110.5,71.0 L110.5,73.0 L109.5,74.0 L109.5,75.0 L108.5,76.0 L108.5,78.0 L107.5,79.0 L107.5,81.0 L106.5,82.0 L106.5,83.0 L105.5,84.0 L105.5,86.0 L104.5,87.0 L104.5,89.0 L103.5,90.0 L103.5,91.0 L102.5,92.0 L102.5,94.0 L101.5,95.0 L101.5,97.0 L100.5,98.0 L100.5,100.0 Z M55.0,185.5 L53.5,184.0 L53.5,181.0 L54.5,180.0 L54.5,179.0 L55.5,178.0 L55.5,176.0 L56.5,175.0 L56.5,173.0 L57.5,172.0 L57.5,171.0 L58.5,170.0 L58.5,168.0 L59.5,167.0 L59.5,165.0 L60.5,164.0 L60.5,162.0 L61.5,161.0 L61.5,160.0 L62.5,159.0 L62.5,157.0 L63.5,156.0 L63.5,154.0 L64.5,153.0 L64.5,152.0 L65.5,151.0 L65.5,149.0 L66.5,148.0 L66.5,146.0 L67.5,145.0 L67.5,143.0 L68.0,142.5 L70.0,142.5 L70.5,143.0 L70.5,144.0 L69.5,145.0 L69.5,147.0 L68.5,148.0 L68.5,150.0 L67.5,151.0 L67.5,152.0 L66.5,153.0 L66.5,155.0 L65.5,156.0 L65.5,158.0 L64.5,159.0 L64.5,160.0 L63.5,161.0 L63.5,163.0 L62.5,164.0 L62.5,166.0 L61.5,167.0 L61.5,169.0 L60.5,170.0 L60.5,171.0 L59.5,172.0 L59.5,174.0 L58.5,175.0 L58.5,177.0 L57.5,178.0 L57.5,179.0 L56.5,180.0 L56.5,182.0 L55.5,183.0 L55.5,185.0 Z"/><path fill="#ac9201" fill-rule="evenodd" d="M56.0,42.5 L55.0,42.5 L54.5,42.0 L55.0,41.5 L56.0,41.5 L56.5,42.0 Z M57.0,106.5 L56.5,106.0 L56.5,100.0 L55.5,99.0 L56.5,98.0 L56.5,56.0 L57.0,55.5 L57.5,56.0 L57.5,106.0 Z M77.0,56.5 L76.0,56.5 L75.5,56.0 L76.0,55.5 L77.0,55.5 L77.5,56.0 Z M67.0,118.5 L64.0,118.5 L63.5,118.0 L64.0,117.5 L67.0,117.5 L67.5,118.0 Z M104.0,118.5 L101.0,118.5 L100.5,118.0 L101.0,117.5 L104.0,117.5 L104.5,118.0 Z M71.0,135.5 L70.5,135.0 L70.5,128.0 L71.0,127.5 L71.5,128.0 L71.5,135.0 Z M68.0,134.5 L67.5,134.0 L67.5,129.0 L68.0,128.5 L68.5,129.0 L68.5,134.0 Z M80.0,131.5 L79.5,131.0 L79.5,130.0 L80.0,129.5 L80.5,130.0 L80.5,131.0 Z M88.0,131.5 L87.5,131.0 L87.5,130.0 L88.0,129.5 L88.5,130.0 L88.5,131.0 Z M111.0,187.5 L110.5,187.0 L110.5,174.0 L110.5,131.0 L111.0,130.5 L111.5,131.0 L111.5,143.0 L112.5,144.0 L111.5,145.0 L111.5,187.0 Z M73.0,139.5 L66.0,139.5 L65.5,139.0 L66.0,138.5 L73.0,138.5 L73.5,139.0 Z M77.0,187.5 L76.0,187.5 L75.5,187.0 L76.0,186.5 L77.0,186.5 L77.5,187.0 Z M113.0,201.5 L112.0,201.5 L111.5,201.0 L112.0,200.5 L113.0,200.5 L113.5,201.0 Z"/><path fill="#581913" fill-rule="evenodd" d="M54.0,51.5 L53.5,51.0 L53.5,50.0 L54.0,49.5 L54.5,50.0 L54.5,51.0 Z M81.0,56.5 L80.5,56.0 L80.5,55.0 L81.0,54.5 L82.0,54.5 L82.5,55.0 Z M87.0,56.5 L85.5,55.0 L86.0,54.5 L87.0,54.5 L87.5,55.0 L87.5,56.0 Z M79.0,99.5 L78.0,99.5 L77.5,99.0 L78.0,98.5 L79.0,98.5 L79.5,99.0 Z M90.0,99.5 L89.0,99.5 L88.5,99.0 L89.0,98.5 L90.0,98.5 L90.5,99.0 Z M89.0,101.5 L86.0,101.5 L85.0,100.5 L83.0,100.5 L82.0,101.5 L79.0,101.5 L78.5,101.0 L80.0,99.5 L88.0,99.5 L89.5,101.0 Z M75.0,102.5 L74.0,102.5 L73.5,102.0 L73.5,101.0 L74.0,100.5 L75.0,100.5 L75.5,101.0 L75.5,102.0 Z M94.0,102.5 L93.0,102.5 L92.5,102.0 L92.5,101.0 L93.0,100.5 L94.0,100.5 L94.5,101.0 L94.5,102.0 Z M71.0,103.5 L70.5,103.0 L70.5,102.0 L71.0,101.5 L71.5,102.0 L71.5,103.0 Z M97.0,103.5 L96.5,103.0 L96.5,102.0 L97.0,101.5 L97.5,102.0 L97.5,103.0 Z M68.0,104.5 L67.5,104.0 L67.5,103.0 L68.0,102.5 L68.5,103.0 L68.5,104.0 Z M100.0,104.5 L99.5,104.0 L99.5,103.0 L100.0,102.5 L100.5,103.0 L100.5,104.0 Z M102.0,105.5 L101.5,105.0 L101.5,104.0 L102.0,103.5 L102.5,104.0 L102.5,105.0 Z M62.0,108.5 L61.5,108.0 L61.5,107.0 L62.0,106.5 L63.0,106.5 L63.5,107.0 Z M65.0,119.5 L64.0,119.5 L63.5,119.0 L64.0,118.5 L65.0,118.5 L65.5,119.0 Z M104.0,119.5 L103.0,119.5 L102.5,119.0 L103.0,118.5 L104.0,118.5 L104.5,119.0 Z M112.0,127.5 L111.5,127.0 L111.5,126.0 L112.0,125.5 L112.5,126.0 L112.5,127.0 Z M82.0,188.5 L81.0,188.5 L80.5,188.0 L80.5,187.0 L81.0,186.5 L82.5,188.0 Z M87.0,188.5 L86.0,188.5 L85.5,188.0 L87.0,186.5 L87.5,187.0 L87.5,188.0 Z M114.0,193.5 L113.5,193.0 L113.5,192.0 L114.0,191.5 L114.5,192.0 L114.5,193.0 Z"/><path fill="#9f9972" fill-rule="evenodd" d="M83.0,64.5 L82.0,64.5 L81.5,64.0 L82.0,63.5 L83.0,63.5 L83.5,64.0 Z M86.0,64.5 L85.0,64.5 L84.5,64.0 L85.0,63.5 L86.0,63.5 L86.5,64.0 Z M78.0,103.5 L77.0,103.5 L76.5,103.0 L77.0,102.5 L78.0,102.5 L78.5,103.0 Z M94.0,110.5 L93.0,110.5 L91.0,108.5 L90.0,108.5 L88.5,107.0 L89.0,106.5 L92.0,106.5 L92.5,107.0 L92.5,108.0 L94.5,110.0 Z M66.0,116.5 L62.5,113.0 L64.0,111.5 L65.0,111.5 L66.0,110.5 L67.0,110.5 L68.0,109.5 L69.0,109.5 L70.0,108.5 L71.5,110.0 L71.5,111.0 L69.5,113.0 L69.5,114.0 L68.0,115.5 L67.0,115.5 Z M89.0,115.5 L88.0,115.5 L82.5,110.0 L84.0,108.5 L86.0,108.5 L88.0,110.5 L89.0,110.5 L91.0,112.5 L92.0,112.5 L92.5,113.0 L92.0,113.5 L91.0,113.5 Z M83.0,179.5 L82.0,179.5 L81.5,179.0 L82.0,178.5 L83.0,178.5 L83.5,179.0 Z M86.0,179.5 L85.0,179.5 L84.5,179.0 L85.0,178.5 L86.0,178.5 L86.5,179.0 Z"/><path fill="#68590e" fill-rule="evenodd" d="M78.0,56.5 L77.5,56.0 L77.5,55.0 L78.0,54.5 L78.5,55.0 L78.5,56.0 Z M90.0,56.5 L89.5,56.0 L89.5,55.0 L90.0,54.5 L90.5,55.0 L90.5,56.0 Z M103.0,65.5 L102.0,65.5 L101.5,65.0 L102.0,64.5 L103.0,64.5 L103.5,65.0 Z M78.0,72.5 L76.5,71.0 L77.0,70.5 L78.0,70.5 L78.5,71.0 L78.5,72.0 Z M90.0,72.5 L89.5,72.0 L89.5,71.0 L90.0,70.5 L91.0,70.5 L91.5,71.0 Z M56.0,107.5 L55.5,107.0 L55.5,100.0 L56.0,99.5 L56.5,100.0 L56.5,107.0 Z M66.0,106.5 L65.0,106.5 L64.5,106.0 L65.0,105.5 L66.0,105.5 L66.5,106.0 Z M57.0,128.5 L56.0,128.5 L55.5,128.0 L56.0,127.5 L57.0,127.5 L57.5,128.0 Z M112.0,143.5 L111.5,143.0 L111.5,131.0 L112.0,130.5 L112.5,131.0 L112.5,143.0 Z M73.0,141.5 L66.0,141.5 L65.5,141.0 L66.0,140.5 L73.0,140.5 L73.5,141.0 Z M78.0,172.5 L77.0,172.5 L76.5,172.0 L78.0,170.5 L78.5,171.0 L78.5,172.0 Z M91.0,172.5 L90.0,172.5 L89.5,172.0 L89.5,171.0 L90.0,170.5 L91.5,172.0 Z M66.0,178.5 L65.0,178.5 L64.5,178.0 L65.0,177.5 L66.0,177.5 L66.5,178.0 Z M78.0,188.5 L77.5,188.0 L77.5,187.0 L78.0,186.5 L78.5,187.0 L78.5,188.0 Z M90.0,188.5 L89.5,188.0 L89.5,187.0 L90.0,186.5 L90.5,187.0 L90.5,188.0 Z"/><path fill="#dfa688" fill-rule="evenodd" d="M86.0,84.5 L85.5,84.0 L85.5,83.0 L86.0,82.5 L86.5,83.0 L86.5,84.0 Z M75.0,90.5 L73.0,90.5 L71.5,89.0 L71.5,87.0 L73.0,85.5 L75.0,85.5 L76.5,87.0 L76.5,89.0 Z M95.0,90.5 L93.0,90.5 L91.5,89.0 L91.5,87.0 L93.0,85.5 L95.0,85.5 L96.5,87.0 L96.5,89.0 Z M75.0,157.5 L73.0,157.5 L71.5,156.0 L71.5,154.0 L73.0,152.5 L75.0,152.5 L76.5,154.0 L76.5,156.0 Z M95.0,157.5 L93.0,157.5 L91.5,156.0 L91.5,154.0 L93.0,152.5 L95.0,152.5 L96.5,154.0 L96.5,156.0 Z M82.0,160.5 L81.5,160.0 L81.5,159.0 L82.0,158.5 L82.5,159.0 L82.5,160.0 Z"/><path fill="#d4b508" fill-rule="evenodd" d="M65.0,62.5 L64.5,62.0 L64.5,58.0 L64.5,50.0 L65.0,49.5 L65.5,50.0 L65.5,62.0 Z M103.0,62.5 L102.5,62.0 L102.5,53.0 L101.5,52.0 L102.5,51.0 L102.5,50.0 L103.0,49.5 L103.5,50.0 L103.5,62.0 Z M81.0,106.5 L80.0,106.5 L79.5,106.0 L80.0,105.5 L81.0,105.5 L81.5,106.0 Z M70.0,127.5 L69.0,127.5 L68.5,127.0 L69.0,126.5 L70.0,126.5 L70.5,127.0 Z M65.0,193.5 L64.5,193.0 L64.5,181.0 L65.0,180.5 L65.5,181.0 L65.5,193.0 Z M103.0,193.5 L102.5,193.0 L102.5,192.0 L101.5,191.0 L102.5,190.0 L102.5,181.0 L103.0,180.5 L103.5,181.0 L103.5,193.0 Z M109.0,195.5 L108.5,195.0 L108.5,194.0 L109.0,193.5 L109.5,194.0 L109.5,195.0 Z"/><path fill="#2b4b9d" fill-rule="evenodd" d="M71.0,58.5 L70.5,58.0 L70.5,57.0 L71.0,56.5 L72.0,56.5 L72.5,57.0 Z M97.0,58.5 L95.5,57.0 L96.0,56.5 L97.0,56.5 L97.5,57.0 L97.5,58.0 Z M62.0,118.5 L60.0,118.5 L59.5,118.0 L60.0,117.5 L62.0,117.5 L62.5,118.0 Z M99.0,118.5 L69.0,118.5 L68.5,118.0 L69.0,117.5 L99.0,117.5 L99.5,118.0 Z M108.0,118.5 L106.0,118.5 L105.5,118.0 L106.0,117.5 L108.0,117.5 L108.5,118.0 Z M81.0,125.5 L66.0,125.5 L65.5,125.0 L66.0,124.5 L81.0,124.5 L81.5,125.0 Z M102.0,125.5 L87.0,125.5 L86.5,125.0 L87.0,124.5 L102.0,124.5 L102.5,125.0 Z M72.0,186.5 L71.0,186.5 L70.5,186.0 L70.5,185.0 L71.0,184.5 L72.5,186.0 Z M97.0,186.5 L96.0,186.5 L95.5,186.0 L97.0,184.5 L97.5,185.0 L97.5,186.0 Z"/><path fill="#1a2c56" fill-rule="evenodd" d="M83.0,125.5 L82.0,125.5 L81.5,125.0 L82.0,124.5 L83.0,124.5 L83.5,125.0 Z M86.0,125.5 L85.0,125.5 L84.5,125.0 L85.0,124.5 L86.0,124.5 L86.5,125.0 Z M85.0,136.5 L83.0,136.5 L82.5,136.0 L83.0,135.5 L85.0,135.5 L85.5,136.0 Z"/></svg>