<?xml version="1.0" encoding="UTF-8"?><svg xmlns="http://www.w3.org/2000/svg" width="169" height="244" viewBox="0 0 169 244" shape-rendering="geometricPrecision"><path fill="#fefefe" fill-rule="evenodd" d="M160.0,243.5 L8.0,243.5 L7.0,242.5 L6.0,242.5 L0.5,237.0 L0.5,236.0 L-0.5,235.0 L-0.5,8.0 L0.5,7.0 L0.5,6.0 L1.5,5.0 L1.5,4.0 L4.0,1.5 L5.0,1.5 L6.0,0.5 L7.0,0.5 L8.0,-0.5 L160.0,-0.5 L161.0,0.5 L162.0,0.5 L167.5,6.0 L167.5,7.0 L168.5,8.0 L168.5,235.0 L167.5,236.0 L167.5,237.0 L166.5,238.0 L166.5,239.0 L164.0,241.5 L163.0,241.5 L162.0,242.5 L161.0,242.5 Z M36.5,33.0 L37.0,32.5 L38.0,32.5 L39.0,31.5 L40.5,30.0 L40.5,29.0 L41.5,28.0 L41.5,23.0 L40.5,22.0 L40.5,21.0 L37.0,17.5 L31.0,17.5 L30.0,18.5 L29.5,18.0 L29.5,16.0 L32.0,13.5 L34.0,13.5 L36.0,15.5 L40.0,15.5 L40.5,15.0 L40.5,13.0 L38.0,10.5 L37.0,10.5 L36.0,9.5 L30.0,9.5 L29.0,10.5 L28.0,10.5 L25.5,13.0 L25.5,14.0 L24.5,15.0 L24.5,17.0 L23.5,18.0 L23.5,26.0 L24.5,27.0 L24.5,29.0 L28.0,32.5 L29.0,32.5 L30.0,33.5 L36.0,33.5 Z M34.0,29.5 L32.0,29.5 L29.5,27.0 L29.5,23.0 L31.0,21.5 L34.0,21.5 L35.5,23.0 L35.5,28.0 Z M37.5,67.0 L36.5,66.0 L36.5,65.0 L35.5,64.0 L35.5,63.0 L36.0,62.5 L37.0,63.5 L38.0,63.5 L39.0,64.5 L40.0,64.5 L41.0,63.5 L42.0,63.5 L43.5,62.0 L43.5,57.0 L42.5,56.0 L42.5,55.0 L40.5,53.0 L40.5,52.0 L37.5,49.0 L37.5,48.0 L35.0,45.5 L34.0,45.5 L30.5,49.0 L30.5,50.0 L28.5,52.0 L28.5,53.0 L26.5,55.0 L26.5,56.0 L25.5,57.0 L25.5,62.0 L27.0,63.5 L28.0,63.5 L29.0,64.5 L30.0,64.5 L31.0,63.5 L32.0,63.5 L32.5,64.0 L32.5,65.0 L31.5,66.0 L31.5,67.0 L32.0,67.5 L37.0,67.5 Z M60.5,84.0 L60.5,83.0 L59.5,82.0 L59.5,81.0 L58.5,80.0 L58.5,79.0 L57.5,78.0 L57.5,76.0 L58.0,75.5 L61.0,78.5 L62.0,78.5 L63.0,79.5 L65.0,79.5 L66.0,78.5 L67.0,78.5 L68.5,77.0 L68.5,76.0 L69.5,75.0 L69.5,71.0 L68.5,70.0 L68.5,68.0 L66.5,66.0 L66.5,65.0 L65.5,64.0 L65.5,63.0 L63.5,61.0 L63.5,60.0 L60.5,57.0 L60.5,56.0 L56.0,51.5 L52.5,55.0 L52.5,56.0 L49.5,59.0 L49.5,60.0 L47.5,62.0 L47.5,63.0 L45.5,65.0 L45.5,66.0 L44.5,67.0 L44.5,68.0 L43.5,69.0 L43.5,71.0 L42.5,72.0 L42.5,74.0 L43.5,75.0 L43.5,76.0 L44.0,76.5 L46.0,78.5 L47.0,78.5 L48.0,79.5 L50.0,79.5 L51.0,78.5 L52.0,78.5 L54.0,76.5 L54.5,77.0 L54.5,79.0 L53.5,80.0 L53.5,81.0 L52.5,82.0 L52.5,83.0 L51.5,84.0 L52.0,84.5 L60.0,84.5 Z M116.5,84.0 L115.5,83.0 L115.5,82.0 L114.5,81.0 L114.5,80.0 L113.5,79.0 L113.5,77.0 L114.0,76.5 L116.0,78.5 L117.0,78.5 L118.0,79.5 L120.0,79.5 L121.0,78.5 L122.0,78.5 L124.5,76.0 L124.5,75.0 L125.5,74.0 L125.5,72.0 L124.5,71.0 L124.5,69.0 L123.5,68.0 L123.5,67.0 L122.5,66.0 L122.5,65.0 L120.5,63.0 L120.5,62.0 L118.5,60.0 L118.5,59.0 L114.5,55.0 L114.5,54.0 L112.0,51.5 L107.5,56.0 L107.5,57.0 L104.5,60.0 L104.5,61.0 L102.5,63.0 L102.5,64.0 L101.5,65.0 L101.5,66.0 L99.5,68.0 L99.5,70.0 L98.5,71.0 L98.5,75.0 L99.5,76.0 L99.5,77.0 L101.0,78.5 L102.0,78.5 L103.0,79.5 L105.0,79.5 L106.0,78.5 L107.0,78.5 L110.0,75.5 L110.5,76.0 L110.5,78.0 L109.5,79.0 L109.5,80.0 L108.5,81.0 L108.5,82.0 L107.5,83.0 L107.5,84.0 L108.0,84.5 L116.0,84.5 Z M33.0,63.5 L32.5,63.0 L32.5,62.0 L33.0,61.5 L33.5,62.0 L33.5,63.0 Z M55.0,76.5 L54.5,76.0 L54.5,75.0 L55.0,74.5 L55.5,75.0 L55.5,76.0 Z M113.0,76.5 L112.5,76.0 L112.5,75.0 L113.0,74.5 L113.5,75.0 L113.5,76.0 Z M60.5,129.0 L60.5,128.0 L59.5,127.0 L59.5,126.0 L58.5,125.0 L58.5,124.0 L57.5,123.0 L57.5,121.0 L58.0,120.5 L61.0,123.5 L62.0,123.5 L63.0,124.5 L64.0,124.5 L65.0,123.5 L67.0,123.5 L68.5,122.0 L68.5,121.0 L69.5,120.0 L69.5,116.0 L68.5,115.0 L68.5,113.0 L66.5,111.0 L66.5,110.0 L65.5,109.0 L65.5,108.0 L63.5,106.0 L63.5,105.0 L60.5,102.0 L60.5,101.0 L56.0,96.5 L52.5,100.0 L52.5,101.0 L49.5,104.0 L49.5,105.0 L47.5,107.0 L47.5,108.0 L45.5,110.0 L45.5,111.0 L44.5,112.0 L44.5,113.0 L43.5,114.0 L43.5,116.0 L42.5,117.0 L42.5,119.0 L43.5,120.0 L43.5,121.0 L44.0,121.5 L46.0,123.5 L47.0,123.5 L48.0,124.5 L50.0,124.5 L51.0,123.5 L52.0,123.5 L54.0,121.5 L54.5,122.0 L54.5,124.0 L53.5,125.0 L53.5,126.0 L51.5,128.0 L51.5,129.0 L52.0,129.5 L60.0,129.5 Z M116.5,129.0 L115.5,128.0 L115.5,127.0 L114.5,126.0 L114.5,125.0 L113.5,124.0 L113.5,122.0 L114.0,121.5 L116.0,123.5 L117.0,123.5 L118.0,124.5 L120.0,124.5 L121.0,123.5 L122.0,123.5 L124.5,121.0 L124.5,120.0 L125.5,119.0 L125.5,117.0 L124.5,116.0 L124.5,114.0 L123.5,113.0 L123.5,112.0 L122.5,111.0 L122.5,110.0 L120.5,108.0 L120.5,107.0 L118.5,105.0 L118.5,104.0 L115.5,101.0 L115.5,100.0 L112.0,96.5 L107.5,101.0 L107.5,102.0 L104.5,105.0 L104.5,106.0 L102.5,108.0 L102.5,109.0 L100.5,111.0 L100.5,112.0 L99.5,113.0 L99.5,115.0 L98.5,116.0 L98.5,120.0 L99.5,121.0 L99.5,122.0 L101.0,123.5 L103.0,123.5 L104.0,124.5 L105.0,124.5 L106.0,123.5 L107.0,123.5 L110.0,120.5 L110.5,121.0 L110.5,123.0 L109.5,124.0 L109.5,125.0 L108.5,126.0 L108.5,127.0 L107.5,128.0 L107.5,129.0 L108.0,129.5 L116.0,129.5 Z M55.0,121.5 L54.5,121.0 L54.5,120.0 L55.0,119.5 L55.5,120.0 L55.5,121.0 Z M113.0,121.5 L112.5,121.0 L112.5,120.0 L113.0,119.5 L113.5,120.0 L113.5,121.0 Z M60.5,185.0 L60.5,184.0 L59.5,183.0 L59.5,182.0 L58.5,181.0 L58.5,180.0 L57.5,179.0 L57.5,177.0 L58.0,176.5 L58.5,177.0 L58.5,178.0 L60.0,179.5 L61.0,179.5 L62.0,180.5 L65.0,180.5 L66.0,179.5 L67.0,179.5 L68.5,178.0 L68.5,177.0 L69.5,176.0 L69.5,172.0 L68.5,171.0 L68.5,169.0 L66.5,167.0 L66.5,166.0 L65.5,165.0 L65.5,164.0 L62.5,161.0 L62.5,160.0 L59.5,157.0 L59.5,156.0 L56.0,152.5 L53.5,155.0 L53.5,156.0 L50.5,159.0 L50.5,160.0 L47.5,163.0 L47.5,164.0 L45.5,166.0 L45.5,167.0 L44.5,168.0 L44.5,169.0 L43.5,170.0 L43.5,172.0 L42.5,173.0 L42.5,175.0 L43.5,176.0 L43.5,177.0 L47.0,180.5 L50.0,180.5 L51.0,179.5 L52.0,179.5 L54.0,177.5 L54.5,178.0 L54.5,180.0 L53.5,181.0 L53.5,182.0 L52.5,183.0 L52.5,184.0 L51.5,185.0 L52.0,185.5 L60.0,185.5 Z M116.5,185.0 L115.5,184.0 L115.5,183.0 L114.5,182.0 L114.5,181.0 L113.5,180.0 L113.5,178.0 L114.0,177.5 L116.0,179.5 L117.0,179.5 L118.0,180.5 L121.0,180.5 L124.5,177.0 L124.5,176.0 L125.5,175.0 L125.5,173.0 L124.5,172.0 L124.5,170.0 L123.5,169.0 L123.5,168.0 L121.5,166.0 L121.5,165.0 L120.5,164.0 L120.5,163.0 L117.5,160.0 L117.5,159.0 L114.5,156.0 L114.5,155.0 L112.0,152.5 L108.5,156.0 L108.5,157.0 L104.5,161.0 L104.5,162.0 L102.5,164.0 L102.5,165.0 L101.5,166.0 L101.5,167.0 L99.5,169.0 L99.5,171.0 L98.5,172.0 L98.5,176.0 L99.5,177.0 L99.5,178.0 L101.0,179.5 L102.0,179.5 L103.0,180.5 L106.0,180.5 L107.0,179.5 L108.0,179.5 L109.5,178.0 L109.5,177.0 L110.0,176.5 L110.5,177.0 L110.5,179.0 L109.5,180.0 L109.5,181.0 L108.5,182.0 L108.5,183.0 L107.5,184.0 L107.5,185.0 L108.0,185.5 L116.0,185.5 Z M55.0,177.5 L54.5,177.0 L54.5,176.0 L55.0,175.5 L55.5,176.0 L55.5,177.0 Z M113.0,177.5 L112.5,177.0 L112.5,176.0 L113.0,175.5 L113.5,176.0 L113.5,177.0 Z M134.5,197.0 L137.5,194.0 L137.5,193.0 L139.5,191.0 L139.5,190.0 L141.5,188.0 L141.5,187.0 L142.5,186.0 L142.5,181.0 L141.0,179.5 L140.0,179.5 L139.0,178.5 L138.0,178.5 L137.0,179.5 L136.0,179.5 L135.5,179.0 L135.5,178.0 L136.5,177.0 L136.5,176.0 L136.0,175.5 L131.0,175.5 L130.5,176.0 L131.5,177.0 L131.5,178.0 L132.5,179.0 L132.5,180.0 L132.0,180.5 L131.0,179.5 L130.0,179.5 L129.0,178.5 L128.0,178.5 L127.0,179.5 L126.0,179.5 L124.5,181.0 L124.5,186.0 L125.5,187.0 L125.5,188.0 L127.5,190.0 L127.5,191.0 L130.5,194.0 L130.5,195.0 L133.0,197.5 L134.0,197.5 Z M135.0,181.5 L134.5,181.0 L134.5,180.0 L135.0,179.5 L135.5,180.0 L135.5,181.0 Z M138.5,233.0 L139.0,232.5 L140.0,232.5 L142.5,230.0 L142.5,229.0 L143.5,228.0 L143.5,226.0 L144.5,225.0 L144.5,217.0 L143.5,216.0 L143.5,214.0 L140.0,210.5 L139.0,210.5 L138.0,209.5 L132.0,209.5 L131.0,210.5 L130.0,210.5 L127.5,213.0 L127.5,214.0 L126.5,215.0 L126.5,220.0 L127.5,221.0 L127.5,222.0 L131.0,225.5 L137.0,225.5 L138.0,224.5 L138.5,225.0 L138.5,227.0 L136.0,229.5 L134.0,229.5 L132.0,227.5 L128.0,227.5 L127.5,228.0 L127.5,230.0 L131.0,233.5 L138.0,233.5 Z M137.0,221.5 L134.0,221.5 L132.5,220.0 L132.5,215.0 L134.0,213.5 L136.0,213.5 L138.5,216.0 L138.5,220.0 Z"/><path fill="#030303" fill-rule="evenodd" d="M35.0,33.5 L31.0,33.5 L30.0,32.5 L29.0,32.5 L28.0,31.5 L27.0,31.5 L26.5,31.0 L26.5,30.0 L25.5,29.0 L25.5,28.0 L24.5,27.0 L24.5,16.0 L25.5,15.0 L25.5,14.0 L29.0,10.5 L30.0,10.5 L31.0,9.5 L35.0,9.5 L36.0,10.5 L37.0,10.5 L40.5,14.0 L40.0,14.5 L36.0,14.5 L35.0,13.5 L31.0,13.5 L29.5,15.0 L29.5,16.0 L28.5,17.0 L28.5,19.0 L29.0,19.5 L30.0,19.5 L31.0,18.5 L32.0,18.5 L33.0,17.5 L36.0,17.5 L37.0,18.5 L38.0,18.5 L38.5,19.0 L39.5,20.0 L39.5,21.0 L40.5,22.0 L40.5,29.0 L37.0,32.5 L36.0,32.5 Z M35.5,29.0 L35.5,28.0 L36.5,27.0 L36.5,24.0 L35.5,23.0 L35.5,22.0 L35.0,21.5 L34.0,21.5 L33.0,20.5 L32.0,20.5 L31.0,21.5 L30.0,21.5 L29.5,22.0 L29.5,23.0 L28.5,24.0 L28.5,26.0 L29.5,27.0 L29.5,28.0 L31.0,29.5 L35.0,29.5 Z M41.0,63.5 L38.0,63.5 L35.0,60.5 L33.0,60.5 L32.5,61.0 L32.5,62.0 L31.0,63.5 L28.0,63.5 L25.5,61.0 L25.5,58.0 L26.5,57.0 L26.5,56.0 L27.5,55.0 L27.5,54.0 L29.5,52.0 L29.5,51.0 L33.5,47.0 L33.5,46.0 L34.0,45.5 L35.0,45.5 L35.5,46.0 L35.5,47.0 L38.5,50.0 L38.5,51.0 L40.5,53.0 L40.5,54.0 L42.5,56.0 L42.5,58.0 L43.5,59.0 L43.5,61.0 Z M60.0,84.5 L53.0,84.5 L52.5,84.0 L52.5,83.0 L53.5,82.0 L53.5,81.0 L54.5,80.0 L54.5,78.0 L55.5,77.0 L55.5,75.0 L55.0,74.5 L51.0,78.5 L46.0,78.5 L43.5,76.0 L43.5,70.0 L44.5,69.0 L44.5,68.0 L45.5,67.0 L45.5,66.0 L47.5,64.0 L47.5,63.0 L49.5,61.0 L49.5,60.0 L51.5,58.0 L51.5,57.0 L56.0,52.5 L57.0,52.5 L57.5,53.0 L57.5,54.0 L61.5,58.0 L61.5,59.0 L63.5,61.0 L63.5,62.0 L65.5,64.0 L65.5,65.0 L67.5,67.0 L67.5,68.0 L68.5,69.0 L68.5,72.0 L69.5,73.0 L69.5,74.0 L68.5,75.0 L68.5,76.0 L66.0,78.5 L61.0,78.5 L58.5,76.0 L58.5,75.0 L58.0,74.5 L57.0,74.5 L56.5,75.0 L56.5,76.0 L57.5,77.0 L57.5,79.0 L58.5,80.0 L58.5,81.0 L59.5,82.0 L59.5,83.0 L60.5,84.0 Z M115.0,84.5 L108.0,84.5 L107.5,84.0 L108.5,83.0 L108.5,82.0 L109.5,81.0 L109.5,80.0 L110.5,79.0 L110.5,77.0 L111.5,76.0 L111.5,75.0 L111.0,74.5 L110.0,74.5 L109.5,75.0 L109.5,76.0 L107.0,78.5 L102.0,78.5 L99.5,76.0 L99.5,75.0 L98.5,74.0 L98.5,72.0 L99.5,71.0 L99.5,69.0 L100.5,68.0 L100.5,67.0 L102.5,65.0 L102.5,64.0 L104.5,62.0 L104.5,61.0 L106.5,59.0 L106.5,58.0 L110.5,54.0 L110.5,53.0 L111.0,52.5 L112.0,52.5 L115.5,56.0 L115.5,57.0 L118.5,60.0 L118.5,61.0 L120.5,63.0 L120.5,64.0 L122.5,66.0 L122.5,67.0 L123.5,68.0 L123.5,69.0 L124.5,70.0 L124.5,76.0 L122.0,78.5 L117.0,78.5 L113.0,74.5 L112.5,75.0 L112.5,77.0 L113.5,78.0 L113.5,80.0 L114.5,81.0 L114.5,82.0 L115.5,83.0 L115.5,84.0 Z M37.0,67.5 L32.0,67.5 L31.5,67.0 L32.5,66.0 L32.5,65.0 L33.5,64.0 L33.5,63.0 L34.0,62.5 L35.0,62.5 L35.5,63.0 L35.5,65.0 L37.5,67.0 Z M60.0,129.5 L53.0,129.5 L52.5,129.0 L52.5,128.0 L53.5,127.0 L53.5,126.0 L54.5,125.0 L54.5,123.0 L55.5,122.0 L55.5,119.0 L55.0,118.5 L53.5,120.0 L53.5,121.0 L51.0,123.5 L47.0,123.5 L46.0,122.5 L45.0,122.5 L43.5,121.0 L43.5,115.0 L44.5,114.0 L44.5,113.0 L45.5,112.0 L45.5,111.0 L47.5,109.0 L47.5,108.0 L49.5,106.0 L49.5,105.0 L51.5,103.0 L51.5,102.0 L56.0,97.5 L57.0,97.5 L58.5,99.0 L58.5,100.0 L61.5,103.0 L61.5,104.0 L64.5,107.0 L64.5,108.0 L65.5,109.0 L65.5,110.0 L67.5,112.0 L67.5,113.0 L68.5,114.0 L68.5,116.0 L69.5,117.0 L69.5,119.0 L68.5,120.0 L68.5,121.0 L66.0,123.5 L61.0,123.5 L58.5,121.0 L58.5,120.0 L58.0,119.5 L57.0,119.5 L56.5,120.0 L56.5,121.0 L57.5,122.0 L57.5,124.0 L58.5,125.0 L58.5,126.0 L59.5,127.0 L59.5,128.0 L60.5,129.0 Z M115.0,129.5 L108.0,129.5 L107.5,129.0 L108.5,128.0 L108.5,127.0 L109.5,126.0 L109.5,125.0 L110.5,124.0 L110.5,122.0 L111.5,121.0 L111.5,120.0 L111.0,119.5 L110.0,119.5 L109.5,120.0 L109.5,121.0 L107.0,123.5 L102.0,123.5 L99.5,121.0 L99.5,120.0 L98.5,119.0 L98.5,117.0 L99.5,116.0 L99.5,114.0 L100.5,113.0 L100.5,112.0 L102.5,110.0 L102.5,109.0 L103.5,108.0 L103.5,107.0 L106.5,104.0 L106.5,103.0 L109.5,100.0 L109.5,99.0 L111.0,97.5 L112.0,97.5 L116.5,102.0 L116.5,103.0 L118.5,105.0 L118.5,106.0 L120.5,108.0 L120.5,109.0 L122.5,111.0 L122.5,112.0 L123.5,113.0 L123.5,114.0 L124.5,115.0 L124.5,120.0 L123.5,121.0 L123.5,122.0 L123.0,122.5 L122.0,122.5 L121.0,123.5 L117.0,123.5 L114.5,121.0 L114.5,120.0 L114.0,119.5 L113.0,119.5 L112.5,120.0 L112.5,122.0 L113.5,123.0 L113.5,125.0 L114.5,126.0 L114.5,127.0 L115.5,128.0 L115.5,129.0 Z M60.0,185.5 L53.0,185.5 L52.5,185.0 L52.5,184.0 L53.5,183.0 L53.5,182.0 L54.5,181.0 L54.5,180.0 L55.5,179.0 L55.5,176.0 L55.0,175.5 L51.0,179.5 L46.0,179.5 L43.5,177.0 L43.5,171.0 L44.5,170.0 L44.5,169.0 L45.5,168.0 L45.5,167.0 L47.5,165.0 L47.5,164.0 L49.5,162.0 L49.5,161.0 L52.5,158.0 L52.5,157.0 L56.0,153.5 L57.0,153.5 L57.5,154.0 L57.5,155.0 L61.5,159.0 L61.5,160.0 L63.5,162.0 L63.5,163.0 L65.5,165.0 L65.5,166.0 L67.5,168.0 L67.5,170.0 L68.5,171.0 L68.5,173.0 L69.5,174.0 L69.5,175.0 L68.5,176.0 L68.5,177.0 L66.0,179.5 L61.0,179.5 L58.5,177.0 L58.5,176.0 L58.0,175.5 L57.0,175.5 L56.5,176.0 L56.5,177.0 L57.5,178.0 L57.5,180.0 L58.5,181.0 L58.5,182.0 L59.5,183.0 L59.5,184.0 L60.5,185.0 Z M115.0,185.5 L108.0,185.5 L107.5,185.0 L108.5,184.0 L108.5,183.0 L109.5,182.0 L109.5,181.0 L110.5,180.0 L110.5,178.0 L111.5,177.0 L111.5,176.0 L111.0,175.5 L110.0,175.5 L109.5,176.0 L109.5,177.0 L107.0,179.5 L102.0,179.5 L99.5,177.0 L99.5,176.0 L98.5,175.0 L98.5,174.0 L99.5,173.0 L99.5,170.0 L100.5,169.0 L100.5,168.0 L102.5,166.0 L102.5,165.0 L104.5,163.0 L104.5,162.0 L106.5,160.0 L106.5,159.0 L110.5,155.0 L110.5,154.0 L111.0,153.5 L112.0,153.5 L115.5,157.0 L115.5,158.0 L118.5,161.0 L118.5,162.0 L120.5,164.0 L120.5,165.0 L122.5,167.0 L122.5,168.0 L123.5,169.0 L123.5,170.0 L124.5,171.0 L124.5,177.0 L122.0,179.5 L117.0,179.5 L113.0,175.5 L112.5,176.0 L112.5,179.0 L113.5,180.0 L113.5,181.0 L114.5,182.0 L114.5,183.0 L115.5,184.0 L115.5,185.0 Z M134.0,180.5 L133.0,180.5 L132.5,180.0 L132.5,178.0 L130.5,176.0 L131.0,175.5 L136.0,175.5 L136.5,176.0 L135.5,177.0 L135.5,178.0 L134.5,179.0 L134.5,180.0 Z M134.0,197.5 L133.0,197.5 L132.5,197.0 L132.5,196.0 L129.5,193.0 L129.5,192.0 L127.5,190.0 L127.5,189.0 L125.5,187.0 L125.5,185.0 L124.5,184.0 L124.5,182.0 L127.0,179.5 L130.0,179.5 L133.0,182.5 L135.0,182.5 L135.5,182.0 L135.5,181.0 L137.0,179.5 L140.0,179.5 L142.5,182.0 L142.5,185.0 L141.5,186.0 L141.5,187.0 L140.5,188.0 L140.5,189.0 L138.5,191.0 L138.5,192.0 L134.5,196.0 L134.5,197.0 Z M137.0,233.5 L133.0,233.5 L132.0,232.5 L131.0,232.5 L127.5,229.0 L128.0,228.5 L132.0,228.5 L133.0,229.5 L137.0,229.5 L138.5,228.0 L138.5,227.0 L139.5,226.0 L139.5,224.0 L139.0,223.5 L138.0,223.5 L137.0,224.5 L136.0,224.5 L135.0,225.5 L132.0,225.5 L131.0,224.5 L130.0,224.5 L127.5,222.0 L127.5,214.0 L131.0,210.5 L132.0,210.5 L133.0,209.5 L137.0,209.5 L138.0,210.5 L139.0,210.5 L140.0,211.5 L141.0,211.5 L141.5,212.0 L141.5,213.0 L142.5,214.0 L142.5,215.0 L143.5,216.0 L143.5,227.0 L142.5,228.0 L142.5,229.0 L141.5,230.0 L139.0,232.5 L138.0,232.5 Z M136.5,222.0 L137.0,221.5 L138.0,221.5 L138.5,221.0 L138.5,220.0 L139.5,219.0 L139.5,217.0 L138.5,216.0 L138.5,215.0 L137.0,213.5 L133.0,213.5 L132.5,214.0 L132.5,215.0 L131.5,216.0 L131.5,219.0 L132.5,220.0 L132.5,221.0 L133.0,221.5 L134.0,221.5 L135.0,222.5 L136.0,222.5 Z"/><path fill="#9e9e9e" fill-rule="evenodd" d="M40.0,15.5 L39.0,15.5 L38.5,15.0 L39.0,14.5 L40.0,14.5 L40.5,15.0 Z M29.0,18.5 L28.5,18.0 L28.5,17.0 L29.0,16.5 L29.5,17.0 L29.5,18.0 Z M36.0,27.5 L35.5,27.0 L35.5,24.0 L36.0,23.5 L36.5,24.0 L36.5,27.0 Z M24.0,26.5 L23.5,26.0 L23.5,25.0 L24.0,24.5 L24.5,25.0 L24.5,26.0 Z M30.0,64.5 L29.0,64.5 L28.5,64.0 L29.0,63.5 L30.0,63.5 L30.5,64.0 Z M40.0,64.5 L39.0,64.5 L38.5,64.0 L39.0,63.5 L40.0,63.5 L40.5,64.0 Z M50.0,79.5 L48.0,79.5 L47.5,79.0 L48.0,78.5 L50.0,78.5 L50.5,79.0 Z M65.0,79.5 L63.0,79.5 L62.5,79.0 L63.0,78.5 L65.0,78.5 L65.5,79.0 Z M105.0,79.5 L103.0,79.5 L102.5,79.0 L103.0,78.5 L105.0,78.5 L105.5,79.0 Z M120.0,79.5 L118.0,79.5 L117.5,79.0 L118.0,78.5 L120.0,78.5 L120.5,79.0 Z M50.0,124.5 L48.0,124.5 L47.5,124.0 L48.0,123.5 L50.0,123.5 L50.5,124.0 Z M64.0,124.5 L63.0,124.5 L62.5,124.0 L63.0,123.5 L64.0,123.5 L64.5,124.0 Z M105.0,124.5 L104.0,124.5 L103.5,124.0 L104.0,123.5 L105.0,123.5 L105.5,124.0 Z M120.0,124.5 L118.0,124.5 L117.5,124.0 L118.0,123.5 L120.0,123.5 L120.5,124.0 Z M129.0,179.5 L128.0,179.5 L127.5,179.0 L128.0,178.5 L129.0,178.5 L129.5,179.0 Z M139.0,179.5 L138.0,179.5 L137.5,179.0 L138.0,178.5 L139.0,178.5 L139.5,179.0 Z M132.0,219.5 L131.5,219.0 L131.5,216.0 L132.0,215.5 L132.5,216.0 L132.5,219.0 Z M144.0,218.5 L143.5,218.0 L143.5,217.0 L144.0,216.5 L144.5,217.0 L144.5,218.0 Z M139.0,226.5 L138.5,226.0 L138.5,224.0 L139.0,223.5 L139.5,224.0 L139.5,226.0 Z M129.0,228.5 L128.0,228.5 L127.5,228.0 L128.0,227.5 L129.0,227.5 L129.5,228.0 Z"/><path fill="#616161" fill-rule="evenodd" d="M38.0,15.5 L36.0,15.5 L35.5,15.0 L36.0,14.5 L38.0,14.5 L38.5,15.0 Z M24.0,24.5 L23.5,24.0 L23.5,19.0 L24.0,18.5 L24.5,19.0 L24.5,24.0 Z M33.0,21.5 L32.0,21.5 L31.5,21.0 L32.0,20.5 L33.0,20.5 L33.5,21.0 Z M29.0,26.5 L28.5,26.0 L28.5,24.0 L29.0,23.5 L29.5,24.0 L29.5,26.0 Z M41.0,27.5 L40.5,27.0 L40.5,24.0 L41.0,23.5 L41.5,24.0 L41.5,27.0 Z M35.0,62.5 L34.0,62.5 L32.5,61.0 L33.0,60.5 L35.0,60.5 L35.5,61.0 L35.5,62.0 Z M43.0,74.5 L42.5,74.0 L42.5,73.0 L43.0,72.5 L43.5,73.0 L43.5,74.0 Z M57.0,76.5 L56.5,76.0 L56.5,75.0 L57.0,74.5 L57.5,75.0 L57.5,76.0 Z M111.0,76.5 L110.5,76.0 L110.5,75.0 L111.0,74.5 L111.5,75.0 L111.5,76.0 Z M57.0,121.5 L56.5,121.0 L56.5,120.0 L57.0,119.5 L57.5,120.0 L57.5,121.0 Z M111.0,121.5 L110.5,121.0 L110.5,120.0 L111.0,119.5 L111.5,120.0 L111.5,121.0 Z M43.0,175.5 L42.5,175.0 L42.5,174.0 L43.0,173.5 L43.5,174.0 L43.5,175.0 Z M125.0,175.5 L124.5,175.0 L124.5,174.0 L125.0,173.5 L125.5,174.0 L125.5,175.0 Z M57.0,177.5 L56.5,177.0 L56.5,176.0 L57.0,175.5 L57.5,176.0 L57.5,177.0 Z M111.0,177.5 L110.5,177.0 L110.5,176.0 L111.0,175.5 L111.5,176.0 L111.5,177.0 Z M49.0,180.5 L48.0,180.5 L47.5,180.0 L48.0,179.5 L49.0,179.5 L49.5,180.0 Z M64.0,180.5 L63.0,180.5 L62.5,180.0 L63.0,179.5 L64.0,179.5 L64.5,180.0 Z M105.0,180.5 L104.0,180.5 L103.5,180.0 L104.0,179.5 L105.0,179.5 L105.5,180.0 Z M120.0,180.5 L119.0,180.5 L118.5,180.0 L119.0,179.5 L120.0,179.5 L120.5,180.0 Z M135.0,182.5 L133.0,182.5 L132.5,182.0 L132.5,181.0 L133.0,180.5 L134.0,180.5 L135.5,182.0 Z M127.0,219.5 L126.5,219.0 L126.5,216.0 L127.0,215.5 L127.5,216.0 L127.5,219.0 Z M139.0,219.5 L138.5,219.0 L138.5,217.0 L139.0,216.5 L139.5,217.0 L139.5,219.0 Z M144.0,224.5 L143.5,224.0 L143.5,219.0 L144.0,218.5 L144.5,219.0 L144.5,224.0 Z M136.0,222.5 L135.0,222.5 L134.5,222.0 L135.0,221.5 L136.0,221.5 L136.5,222.0 Z M132.0,228.5 L130.0,228.5 L129.5,228.0 L130.0,227.5 L132.0,227.5 L132.5,228.0 Z"/></svg>