<?xml version="1.0" encoding="UTF-8"?><svg xmlns="http://www.w3.org/2000/svg" width="169" height="244" viewBox="0 0 169 244" shape-rendering="geometricPrecision"><path fill="#fefefe" fill-rule="evenodd" d="M160.0,243.5 L8.0,243.5 L7.0,242.5 L6.0,242.5 L0.5,237.0 L0.5,236.0 L-0.5,235.0 L-0.5,8.0 L0.5,7.0 L0.5,6.0 L1.5,5.0 L1.5,4.0 L4.0,1.5 L5.0,1.5 L6.0,0.5 L7.0,0.5 L8.0,-0.5 L160.0,-0.5 L161.0,0.5 L162.0,0.5 L167.5,6.0 L167.5,7.0 L168.5,8.0 L168.5,235.0 L167.5,236.0 L167.5,237.0 L166.5,238.0 L166.5,239.0 L164.0,241.5 L163.0,241.5 L162.0,242.5 L161.0,242.5 Z M39.5,33.0 L39.5,29.0 L40.0,28.5 L42.0,28.5 L42.5,28.0 L42.5,25.0 L42.0,24.5 L40.0,24.5 L39.5,24.0 L39.5,10.0 L39.0,9.5 L33.0,9.5 L32.5,10.0 L32.5,11.0 L30.5,13.0 L30.5,14.0 L28.5,16.0 L28.5,17.0 L26.5,19.0 L26.5,20.0 L24.5,22.0 L24.5,23.0 L22.5,25.0 L22.5,28.0 L23.0,28.5 L34.0,28.5 L34.5,29.0 L34.5,33.0 L35.0,33.5 L39.0,33.5 Z M34.0,24.5 L28.0,24.5 L27.5,24.0 L29.5,22.0 L29.5,21.0 L31.5,19.0 L31.5,18.0 L34.0,15.5 L34.5,16.0 L34.5,24.0 Z M37.5,67.0 L36.5,66.0 L36.5,65.0 L35.5,64.0 L35.5,63.0 L36.0,62.5 L37.0,63.5 L38.0,63.5 L39.0,64.5 L40.0,64.5 L41.0,63.5 L42.0,63.5 L43.5,62.0 L43.5,57.0 L42.5,56.0 L42.5,55.0 L40.5,53.0 L40.5,52.0 L37.5,49.0 L37.5,48.0 L35.0,45.5 L34.0,45.5 L30.5,49.0 L30.5,50.0 L28.5,52.0 L28.5,53.0 L26.5,55.0 L26.5,56.0 L25.5,57.0 L25.5,62.0 L27.0,63.5 L28.0,63.5 L29.0,64.5 L30.0,64.5 L31.0,63.5 L32.0,63.5 L32.5,64.0 L32.5,65.0 L31.5,66.0 L31.5,67.0 L32.0,67.5 L37.0,67.5 Z M60.5,86.0 L60.5,84.0 L59.5,83.0 L59.5,82.0 L58.5,81.0 L58.5,80.0 L57.5,79.0 L57.5,77.0 L58.0,76.5 L61.0,79.5 L62.0,79.5 L63.0,80.5 L65.0,80.5 L66.0,79.5 L67.0,79.5 L69.5,77.0 L69.5,76.0 L70.5,75.0 L70.5,72.0 L69.5,71.0 L69.5,69.0 L68.5,68.0 L68.5,67.0 L66.5,65.0 L66.5,64.0 L64.5,62.0 L64.5,61.0 L62.5,59.0 L62.5,58.0 L59.5,55.0 L59.5,54.0 L56.0,50.5 L51.5,55.0 L51.5,56.0 L48.5,59.0 L48.5,60.0 L46.5,62.0 L46.5,63.0 L44.5,65.0 L44.5,66.0 L43.5,67.0 L43.5,68.0 L42.5,69.0 L42.5,70.0 L41.5,71.0 L41.5,76.0 L45.0,79.5 L46.0,79.5 L47.0,80.5 L49.0,80.5 L50.0,79.5 L51.0,79.5 L53.5,77.0 L53.5,76.0 L54.0,75.5 L54.5,76.0 L54.5,79.0 L53.5,80.0 L53.5,81.0 L52.5,82.0 L52.5,83.0 L51.5,84.0 L51.5,86.0 L52.0,86.5 L60.0,86.5 Z M116.5,86.0 L116.5,84.0 L115.5,83.0 L115.5,82.0 L114.5,81.0 L114.5,80.0 L113.5,79.0 L113.5,76.0 L114.0,75.5 L114.5,76.0 L114.5,77.0 L117.0,79.5 L118.0,79.5 L119.0,80.5 L121.0,80.5 L122.0,79.5 L123.0,79.5 L126.5,76.0 L126.5,72.0 L125.5,71.0 L125.5,69.0 L124.5,68.0 L124.5,67.0 L123.5,66.0 L123.5,65.0 L121.5,63.0 L121.5,62.0 L119.5,60.0 L119.5,59.0 L115.5,55.0 L115.5,54.0 L112.0,50.5 L108.5,54.0 L108.5,55.0 L105.5,58.0 L105.5,59.0 L103.5,61.0 L103.5,62.0 L101.5,64.0 L101.5,65.0 L99.5,67.0 L99.5,68.0 L98.5,69.0 L98.5,71.0 L97.5,72.0 L97.5,75.0 L98.5,76.0 L98.5,77.0 L99.5,78.0 L101.0,79.5 L102.0,79.5 L103.0,80.5 L105.0,80.5 L106.0,79.5 L107.0,79.5 L110.0,76.5 L110.5,77.0 L110.5,79.0 L109.5,80.0 L109.5,81.0 L108.5,82.0 L108.5,83.0 L107.5,84.0 L107.5,86.0 L108.0,86.5 L116.0,86.5 Z M33.0,63.5 L32.5,63.0 L32.5,62.0 L33.0,61.5 L33.5,62.0 L33.5,63.0 Z M60.5,187.0 L60.5,185.0 L58.5,183.0 L58.5,181.0 L57.5,180.0 L57.5,178.0 L58.0,177.5 L62.0,181.5 L65.0,181.5 L66.0,180.5 L67.0,180.5 L69.5,178.0 L69.5,177.0 L70.5,176.0 L70.5,173.0 L69.5,172.0 L69.5,171.0 L68.5,170.0 L68.5,168.0 L66.5,166.0 L66.5,165.0 L64.5,163.0 L64.5,162.0 L62.5,160.0 L62.5,159.0 L58.5,155.0 L58.5,154.0 L56.0,151.5 L52.5,155.0 L52.5,156.0 L48.5,160.0 L48.5,161.0 L46.5,163.0 L46.5,164.0 L44.5,166.0 L44.5,167.0 L43.5,168.0 L43.5,169.0 L42.5,170.0 L42.5,172.0 L41.5,173.0 L41.5,177.0 L45.0,180.5 L46.0,180.5 L47.0,181.5 L49.0,181.5 L50.0,180.5 L51.0,180.5 L54.0,177.5 L54.5,178.0 L54.5,180.0 L53.5,181.0 L53.5,182.0 L52.5,183.0 L52.5,184.0 L51.5,185.0 L51.5,187.0 L52.0,187.5 L60.0,187.5 Z M116.5,187.0 L116.5,185.0 L115.5,184.0 L115.5,183.0 L114.5,182.0 L114.5,181.0 L113.5,180.0 L113.5,178.0 L114.0,177.5 L117.0,180.5 L118.0,180.5 L119.0,181.5 L121.0,181.5 L122.0,180.5 L123.0,180.5 L126.5,177.0 L126.5,173.0 L125.5,172.0 L125.5,170.0 L124.5,169.0 L124.5,168.0 L123.5,167.0 L123.5,166.0 L121.5,164.0 L121.5,163.0 L119.5,161.0 L119.5,160.0 L115.5,156.0 L115.5,155.0 L112.0,151.5 L108.5,155.0 L108.5,156.0 L105.5,159.0 L105.5,160.0 L103.5,162.0 L103.5,163.0 L101.5,165.0 L101.5,166.0 L99.5,168.0 L99.5,169.0 L98.5,170.0 L98.5,172.0 L97.5,173.0 L97.5,176.0 L98.5,177.0 L98.5,178.0 L101.0,180.5 L102.0,180.5 L103.0,181.5 L106.0,181.5 L110.0,177.5 L110.5,178.0 L110.5,180.0 L109.5,181.0 L109.5,183.0 L107.5,185.0 L107.5,187.0 L108.0,187.5 L116.0,187.5 Z M134.5,197.0 L137.5,194.0 L137.5,193.0 L139.5,191.0 L139.5,190.0 L141.5,188.0 L141.5,187.0 L142.5,186.0 L142.5,181.0 L141.0,179.5 L140.0,179.5 L139.0,178.5 L138.0,178.5 L137.0,179.5 L136.0,179.5 L135.5,179.0 L135.5,178.0 L136.5,177.0 L136.5,176.0 L136.0,175.5 L131.0,175.5 L130.5,176.0 L131.5,177.0 L131.5,178.0 L132.5,179.0 L132.5,180.0 L132.0,180.5 L131.0,179.5 L130.0,179.5 L129.0,178.5 L128.0,178.5 L127.0,179.5 L126.0,179.5 L124.5,181.0 L124.5,186.0 L125.5,187.0 L125.5,188.0 L127.5,190.0 L127.5,191.0 L130.5,194.0 L130.5,195.0 L133.0,197.5 L134.0,197.5 Z M135.0,181.5 L134.5,181.0 L134.5,180.0 L135.0,179.5 L135.5,180.0 L135.5,181.0 Z M135.5,233.0 L135.5,232.0 L137.5,230.0 L137.5,229.0 L139.5,227.0 L139.5,226.0 L141.5,224.0 L141.5,223.0 L143.5,221.0 L143.5,220.0 L145.5,218.0 L145.5,215.0 L145.0,214.5 L134.0,214.5 L133.5,214.0 L133.5,210.0 L133.0,209.5 L129.0,209.5 L128.5,210.0 L128.5,214.0 L128.0,214.5 L126.0,214.5 L125.5,215.0 L125.5,218.0 L126.0,218.5 L128.0,218.5 L128.5,219.0 L128.5,233.0 L129.0,233.5 L135.0,233.5 Z M134.0,227.5 L133.5,227.0 L133.5,219.0 L134.0,218.5 L140.0,218.5 L140.5,219.0 L138.5,221.0 L138.5,222.0 L136.5,224.0 L136.5,225.0 Z"/><path fill="#020202" fill-rule="evenodd" d="M38.0,33.5 L35.0,33.5 L34.5,33.0 L34.5,29.0 L34.0,28.5 L24.0,28.5 L23.5,28.0 L23.5,24.0 L25.5,22.0 L25.5,21.0 L27.5,19.0 L27.5,18.0 L30.5,15.0 L30.5,14.0 L32.5,12.0 L32.5,11.0 L34.0,9.5 L38.0,9.5 L38.5,10.0 L38.5,24.0 L40.0,25.5 L42.0,25.5 L42.5,26.0 L42.5,28.0 L42.0,28.5 L39.0,28.5 L38.5,29.0 L38.5,33.0 Z M34.5,25.0 L34.5,15.0 L34.0,14.5 L32.5,16.0 L32.5,17.0 L30.5,19.0 L30.5,20.0 L28.5,22.0 L28.5,23.0 L27.5,24.0 L27.5,25.0 L28.0,25.5 L34.0,25.5 Z M41.0,63.5 L38.0,63.5 L35.0,60.5 L33.0,60.5 L32.5,61.0 L32.5,62.0 L31.0,63.5 L28.0,63.5 L25.5,61.0 L25.5,58.0 L26.5,57.0 L26.5,56.0 L27.5,55.0 L27.5,54.0 L29.5,52.0 L29.5,51.0 L33.5,47.0 L33.5,46.0 L34.0,45.5 L35.0,45.5 L35.5,46.0 L35.5,47.0 L38.5,50.0 L38.5,51.0 L40.5,53.0 L40.5,54.0 L42.5,56.0 L42.5,58.0 L43.5,59.0 L43.5,61.0 Z M60.0,85.5 L52.0,85.5 L51.5,85.0 L52.5,84.0 L52.5,83.0 L53.5,82.0 L53.5,81.0 L54.5,80.0 L54.5,78.0 L55.5,77.0 L55.5,75.0 L55.0,74.5 L54.0,74.5 L53.5,75.0 L53.5,76.0 L52.5,77.0 L52.5,78.0 L52.0,78.5 L51.0,78.5 L50.0,79.5 L46.0,79.5 L45.0,78.5 L44.0,78.5 L42.5,77.0 L42.5,75.0 L41.5,74.0 L41.5,73.0 L42.5,72.0 L42.5,70.0 L43.5,69.0 L43.5,68.0 L44.5,67.0 L44.5,66.0 L46.5,64.0 L46.5,63.0 L48.5,61.0 L48.5,60.0 L50.5,58.0 L50.5,57.0 L54.5,53.0 L54.5,52.0 L55.0,51.5 L56.0,51.5 L57.0,52.5 L60.5,56.0 L60.5,57.0 L63.5,60.0 L63.5,61.0 L65.5,63.0 L65.5,64.0 L66.5,65.0 L66.5,66.0 L68.5,68.0 L68.5,70.0 L69.5,71.0 L69.5,76.0 L66.0,79.5 L61.0,79.5 L58.5,77.0 L58.5,76.0 L57.0,74.5 L56.5,75.0 L56.5,78.0 L57.5,79.0 L57.5,80.0 L58.5,81.0 L58.5,83.0 L60.5,85.0 Z M116.0,85.5 L108.0,85.5 L107.5,85.0 L108.5,84.0 L108.5,83.0 L109.5,82.0 L109.5,81.0 L110.5,80.0 L110.5,79.0 L111.5,78.0 L111.5,75.0 L111.0,74.5 L109.5,76.0 L109.5,77.0 L109.0,77.5 L108.0,78.5 L107.0,78.5 L106.0,79.5 L102.0,79.5 L101.0,78.5 L100.0,78.5 L99.5,78.0 L99.5,77.0 L98.5,76.0 L98.5,71.0 L99.5,70.0 L99.5,68.0 L101.5,66.0 L101.5,65.0 L102.5,64.0 L102.5,63.0 L104.5,61.0 L104.5,60.0 L107.5,57.0 L107.5,56.0 L112.0,51.5 L113.0,51.5 L113.5,52.0 L113.5,53.0 L117.5,57.0 L117.5,58.0 L119.5,60.0 L119.5,61.0 L121.5,63.0 L121.5,64.0 L123.5,66.0 L123.5,67.0 L124.5,68.0 L124.5,69.0 L125.5,70.0 L125.5,72.0 L126.5,73.0 L126.5,74.0 L125.5,75.0 L125.5,77.0 L124.0,78.5 L123.0,78.5 L122.0,79.5 L118.0,79.5 L117.0,78.5 L116.0,78.5 L115.5,78.0 L115.5,77.0 L114.5,76.0 L114.5,75.0 L114.0,74.5 L113.0,74.5 L112.5,75.0 L112.5,77.0 L113.5,78.0 L113.5,80.0 L114.5,81.0 L114.5,82.0 L115.5,83.0 L115.5,84.0 L116.5,85.0 Z M37.0,67.5 L32.0,67.5 L31.5,67.0 L32.5,66.0 L32.5,65.0 L33.5,64.0 L33.5,63.0 L34.0,62.5 L35.0,62.5 L35.5,63.0 L35.5,65.0 L37.5,67.0 Z M60.0,186.5 L52.0,186.5 L51.5,186.0 L52.5,185.0 L52.5,184.0 L53.5,183.0 L53.5,182.0 L54.5,181.0 L54.5,179.0 L55.5,178.0 L55.5,176.0 L55.0,175.5 L53.5,177.0 L53.5,178.0 L51.0,180.5 L45.0,180.5 L42.5,178.0 L42.5,176.0 L41.5,175.0 L41.5,174.0 L42.5,173.0 L42.5,171.0 L43.5,170.0 L43.5,169.0 L44.5,168.0 L44.5,167.0 L46.5,165.0 L46.5,164.0 L48.5,162.0 L48.5,161.0 L51.5,158.0 L51.5,157.0 L56.0,152.5 L60.5,157.0 L60.5,158.0 L62.5,160.0 L62.5,161.0 L65.5,164.0 L65.5,165.0 L66.5,166.0 L66.5,167.0 L67.5,168.0 L67.5,169.0 L68.5,170.0 L68.5,171.0 L69.5,172.0 L69.5,177.0 L68.5,178.0 L68.5,179.0 L68.0,179.5 L67.0,179.5 L66.0,180.5 L61.0,180.5 L58.5,178.0 L58.5,177.0 L57.0,175.5 L56.5,176.0 L56.5,179.0 L57.5,180.0 L57.5,182.0 L58.5,183.0 L58.5,184.0 L60.5,186.0 Z M116.0,186.5 L108.0,186.5 L107.5,186.0 L109.5,184.0 L109.5,183.0 L110.5,182.0 L110.5,180.0 L111.5,179.0 L111.5,176.0 L111.0,175.5 L109.5,177.0 L109.5,178.0 L107.0,180.5 L102.0,180.5 L101.0,179.5 L100.0,179.5 L98.5,178.0 L98.5,172.0 L99.5,171.0 L99.5,169.0 L101.5,167.0 L101.5,166.0 L102.5,165.0 L102.5,164.0 L105.5,161.0 L105.5,160.0 L107.5,158.0 L107.5,157.0 L112.0,152.5 L116.5,157.0 L116.5,158.0 L119.5,161.0 L119.5,162.0 L121.5,164.0 L121.5,165.0 L123.5,167.0 L123.5,168.0 L124.5,169.0 L124.5,170.0 L125.5,171.0 L125.5,174.0 L126.5,175.0 L125.5,176.0 L125.5,178.0 L123.0,180.5 L117.0,180.5 L114.5,178.0 L114.5,177.0 L113.0,175.5 L112.5,176.0 L112.5,178.0 L113.5,179.0 L113.5,181.0 L114.5,182.0 L114.5,183.0 L115.5,184.0 L115.5,185.0 L116.5,186.0 Z M134.0,180.5 L133.0,180.5 L132.5,180.0 L132.5,178.0 L130.5,176.0 L131.0,175.5 L136.0,175.5 L136.5,176.0 L135.5,177.0 L135.5,178.0 L134.5,179.0 L134.5,180.0 Z M134.0,197.5 L133.0,197.5 L132.5,197.0 L132.5,196.0 L129.5,193.0 L129.5,192.0 L127.5,190.0 L127.5,189.0 L125.5,187.0 L125.5,185.0 L124.5,184.0 L124.5,182.0 L127.0,179.5 L130.0,179.5 L133.0,182.5 L135.0,182.5 L135.5,182.0 L135.5,181.0 L137.0,179.5 L140.0,179.5 L142.5,182.0 L142.5,185.0 L141.5,186.0 L141.5,187.0 L140.5,188.0 L140.5,189.0 L138.5,191.0 L138.5,192.0 L134.5,196.0 L134.5,197.0 Z M134.0,233.5 L130.0,233.5 L129.5,233.0 L129.5,219.0 L128.0,217.5 L126.0,217.5 L125.5,217.0 L125.5,215.0 L126.0,214.5 L129.0,214.5 L129.5,214.0 L129.5,210.0 L130.0,209.5 L133.0,209.5 L133.5,210.0 L133.5,214.0 L134.0,214.5 L144.0,214.5 L144.5,215.0 L144.5,219.0 L142.5,221.0 L142.5,222.0 L140.5,224.0 L140.5,225.0 L137.5,228.0 L137.5,229.0 L135.5,231.0 L135.5,232.0 Z M134.5,228.0 L135.5,227.0 L135.5,226.0 L137.5,224.0 L137.5,223.0 L139.5,221.0 L139.5,220.0 L140.5,219.0 L140.5,218.0 L140.0,217.5 L134.0,217.5 L133.5,218.0 L133.5,228.0 L134.0,228.5 Z"/><path fill="#646464" fill-rule="evenodd" d="M39.0,24.5 L38.5,24.0 L38.5,10.0 L39.0,9.5 L39.5,10.0 L39.5,24.0 Z M34.0,25.5 L28.0,25.5 L27.5,25.0 L28.0,24.5 L34.0,24.5 L34.5,25.0 Z M41.0,25.5 L40.0,25.5 L39.5,25.0 L40.0,24.5 L41.0,24.5 L41.5,25.0 Z M39.0,33.5 L38.5,33.0 L38.5,29.0 L39.0,28.5 L39.5,29.0 L39.5,33.0 Z M35.0,62.5 L34.0,62.5 L32.5,61.0 L33.0,60.5 L35.0,60.5 L35.5,61.0 L35.5,62.0 Z M70.0,74.5 L69.5,74.0 L69.5,73.0 L70.0,72.5 L70.5,73.0 L70.5,74.0 Z M98.0,74.5 L97.5,74.0 L97.5,73.0 L98.0,72.5 L98.5,73.0 L98.5,74.0 Z M55.0,75.5 L54.0,75.5 L53.5,75.0 L54.0,74.5 L55.0,74.5 L55.5,75.0 Z M113.0,77.5 L112.5,77.0 L112.5,75.0 L113.0,74.5 L114.0,74.5 L114.5,75.0 L113.5,76.0 L113.5,77.0 Z M70.0,175.5 L69.5,175.0 L69.5,174.0 L70.0,173.5 L70.5,174.0 L70.5,175.0 Z M98.0,176.5 L97.5,176.0 L97.5,174.0 L98.0,173.5 L98.5,174.0 L98.5,176.0 Z M113.0,178.5 L112.5,178.0 L112.5,176.0 L113.0,175.5 L113.5,176.0 L113.5,178.0 Z M49.0,181.5 L47.0,181.5 L46.5,181.0 L47.0,180.5 L49.0,180.5 L49.5,181.0 Z M65.0,181.5 L63.0,181.5 L62.5,181.0 L63.0,180.5 L65.0,180.5 L65.5,181.0 Z M105.0,181.5 L103.0,181.5 L102.5,181.0 L103.0,180.5 L105.0,180.5 L105.5,181.0 Z M121.0,181.5 L119.0,181.5 L118.5,181.0 L119.0,180.5 L121.0,180.5 L121.5,181.0 Z M135.0,182.5 L133.0,182.5 L132.5,182.0 L132.5,181.0 L133.0,180.5 L134.0,180.5 L135.5,182.0 Z M129.0,214.5 L128.5,214.0 L128.5,210.0 L129.0,209.5 L129.5,210.0 L129.5,214.0 Z M128.0,218.5 L127.0,218.5 L126.5,218.0 L127.0,217.5 L128.0,217.5 L128.5,218.0 Z M140.0,218.5 L134.0,218.5 L133.5,218.0 L134.0,217.5 L140.0,217.5 L140.5,218.0 Z M129.0,233.5 L128.5,233.0 L128.5,219.0 L129.0,218.5 L129.5,219.0 L129.5,233.0 Z"/><path fill="#a2a2a2" fill-rule="evenodd" d="M23.0,28.5 L22.5,28.0 L22.5,25.0 L23.0,24.5 L23.5,25.0 L23.5,28.0 Z M30.0,64.5 L29.0,64.5 L28.5,64.0 L29.0,63.5 L30.0,63.5 L30.5,64.0 Z M40.0,64.5 L39.0,64.5 L38.5,64.0 L39.0,63.5 L40.0,63.5 L40.5,64.0 Z M57.0,77.5 L56.5,77.0 L56.5,76.0 L57.0,75.5 L58.0,75.5 L58.5,76.0 Z M111.0,77.5 L109.5,76.0 L110.0,75.5 L111.0,75.5 L111.5,76.0 L111.5,77.0 Z M49.0,80.5 L47.0,80.5 L46.5,80.0 L47.0,79.5 L49.0,79.5 L49.5,80.0 Z M65.0,80.5 L63.0,80.5 L62.5,80.0 L63.0,79.5 L65.0,79.5 L65.5,80.0 Z M105.0,80.5 L103.0,80.5 L102.5,80.0 L103.0,79.5 L105.0,79.5 L105.5,80.0 Z M121.0,80.5 L119.0,80.5 L118.5,80.0 L119.0,79.5 L121.0,79.5 L121.5,80.0 Z M60.0,86.5 L52.0,86.5 L51.5,86.0 L52.0,85.5 L60.0,85.5 L60.5,86.0 Z M116.0,86.5 L108.0,86.5 L107.5,86.0 L108.0,85.5 L116.0,85.5 L116.5,86.0 Z M55.0,177.5 L54.0,177.5 L53.5,177.0 L54.0,176.5 L55.0,176.5 L55.5,177.0 Z M57.0,178.5 L56.5,178.0 L56.5,177.0 L57.0,176.5 L58.0,176.5 L58.5,177.0 Z M111.0,178.5 L109.5,177.0 L110.0,176.5 L111.0,176.5 L111.5,177.0 L111.5,178.0 Z M129.0,179.5 L128.0,179.5 L127.5,179.0 L128.0,178.5 L129.0,178.5 L129.5,179.0 Z M139.0,179.5 L138.0,179.5 L137.5,179.0 L138.0,178.5 L139.0,178.5 L139.5,179.0 Z M60.0,187.5 L52.0,187.5 L51.5,187.0 L52.0,186.5 L60.0,186.5 L60.5,187.0 Z M116.0,187.5 L108.0,187.5 L107.5,187.0 L108.0,186.5 L116.0,186.5 L116.5,187.0 Z M145.0,218.5 L144.5,218.0 L144.5,215.0 L145.0,214.5 L145.5,215.0 L145.5,218.0 Z"/></svg>