<svg xmlns="http://www.w3.org/2000/svg" width="169" height="244" viewBox="0 0 169 244" fill="none">
  
  <rect width="169" height="244" rx="12" fill="white" stroke="#E5E5E5" />
  
  
  <g transform="translate(84.5 122) scale(1.07) translate(-84.5 -122)"><g transform="translate(20, 30)">
    <text font-family="Arial" font-size="24" font-weight="bold" fill="#000000">9</text>
    <g transform="translate(8, 14) scale(0.8)">
      <path d="M2.521,10.977 L-2.521,10.977 L-2.618,10.838 L-2.424,10.451 L-2.234,10.257 L-2.21,10.063 L-1.882,9.675 L-1.843,9.481 L-1.656,9.287 L-1.648,9.093 L-1.46,8.899 L-1.455,8.705 L-1.272,8.511 L-1.261,8.317 L-1.083,8.123 L-1.048,7.735 L-0.873,7.542 L-0.819,7.154 L-0.679,6.96 L-0.677,6.572 L-0.489,6.184 L-0.489,5.214 L-0.582,5.121 L-0.776,5.117 L-1.01,5.214 L-1.076,5.602 L-1.261,5.796 L-1.261,5.99 L-1.449,6.184 L-1.467,6.378 L-2.327,7.249 L-2.715,7.445 L-2.909,7.617 L-3.297,7.645 L-3.491,7.829 L-5.043,7.832 L-5.237,7.671 L-5.624,7.635 L-5.818,7.445 L-6.012,7.435 L-6.594,6.904 L-7.238,6.184 L-7.273,5.99 L-7.428,5.796 L-7.467,5.408 L-7.65,5.02 L-7.652,4.051 L-7.611,3.857 L-7.469,3.663 L-7.467,3.275 L-7.273,2.887 L-7.273,2.693 L-7.115,2.499 L-7.059,2.111 L-6.885,1.917 L-6.878,1.723 L-6.691,1.529 L-6.678,1.336 L-6.497,1.142 L-6.488,0.948 L-6.303,0.754 L-6.245,0.56 L-5.946,0.172 L-5.915,-0.022 L-5.722,-0.216 L-5.703,-0.41 L-5.372,-0.798 L-5.333,-0.992 L-4.752,-1.767 L-4.558,-2.155 L-4.214,-2.543 L-4.168,-2.737 L-3.786,-3.125 L-3.753,-3.319 L-3.228,-3.901 L-3.197,-4.095 L-2.65,-4.676 L-2.595,-4.87 L-2.041,-5.452 L-1.832,-5.84 L-1.272,-6.422 L-1.058,-6.81 L-0.309,-7.586 L0,-8.008 L0.299,-7.586 L1.048,-6.81 L1.265,-6.422 L1.828,-5.84 L1.873,-5.646 L2.576,-4.87 L2.624,-4.676 L3.169,-4.095 L3.214,-3.901 L3.585,-3.513 L3.785,-3.125 L4.157,-2.737 L4.194,-2.543 L4.555,-2.155 L4.595,-1.961 L4.945,-1.574 L4.983,-1.38 L5.329,-0.992 L5.345,-0.798 L5.692,-0.41 L5.722,-0.216 L5.915,-0.022 L5.935,0.172 L6.472,0.948 L6.497,1.142 L6.673,1.336 L6.691,1.529 L6.861,1.723 L6.885,1.917 L7.078,2.305 L7.095,2.499 L7.272,2.693 L7.317,3.081 L7.464,3.275 L7.466,3.663 L7.652,4.051 L7.651,5.02 L7.504,5.214 L7.402,5.796 L7.078,6.378 L6.012,7.428 L5.818,7.445 L5.624,7.634 L5.236,7.662 L5.042,7.832 L3.491,7.832 L3.297,7.647 L2.909,7.627 L2.715,7.445 L2.327,7.251 L1.457,6.378 L1.43,6.184 L1.26,5.99 L1.255,5.796 L1.073,5.602 L1.066,5.408 L0.937,5.214 L0.776,5.117 L0.582,5.117 L0.485,5.214 L0.514,6.378 L0.66,6.572 L0.679,6.96 L0.871,7.348 L0.872,7.542 L1.066,7.929 L1.079,8.123 L1.26,8.317 L1.262,8.511 L1.453,8.705 L1.454,8.899 L1.64,9.093 L1.648,9.287 L1.842,9.481 L1.851,9.675 L2.036,9.869 L2.23,10.257 L2.424,10.451 L2.618,10.838 Z" fill="black" />
    </g>
  </g>
  
  
  <g transform="translate(149, 214) rotate(180)">
    <text font-family="Arial" font-size="24" font-weight="bold" fill="#000000">9</text>
    <g transform="translate(8, 14) scale(0.8)">
      <path d="M2.521,10.977 L-2.521,10.977 L-2.618,10.838 L-2.424,10.451 L-2.234,10.257 L-2.21,10.063 L-1.882,9.675 L-1.843,9.481 L-1.656,9.287 L-1.648,9.093 L-1.46,8.899 L-1.455,8.705 L-1.272,8.511 L-1.261,8.317 L-1.083,8.123 L-1.048,7.735 L-0.873,7.542 L-0.819,7.154 L-0.679,6.96 L-0.677,6.572 L-0.489,6.184 L-0.489,5.214 L-0.582,5.121 L-0.776,5.117 L-1.01,5.214 L-1.076,5.602 L-1.261,5.796 L-1.261,5.99 L-1.449,6.184 L-1.467,6.378 L-2.327,7.249 L-2.715,7.445 L-2.909,7.617 L-3.297,7.645 L-3.491,7.829 L-5.043,7.832 L-5.237,7.671 L-5.624,7.635 L-5.818,7.445 L-6.012,7.435 L-6.594,6.904 L-7.238,6.184 L-7.273,5.99 L-7.428,5.796 L-7.467,5.408 L-7.65,5.02 L-7.652,4.051 L-7.611,3.857 L-7.469,3.663 L-7.467,3.275 L-7.273,2.887 L-7.273,2.693 L-7.115,2.499 L-7.059,2.111 L-6.885,1.917 L-6.878,1.723 L-6.691,1.529 L-6.678,1.336 L-6.497,1.142 L-6.488,0.948 L-6.303,0.754 L-6.245,0.56 L-5.946,0.172 L-5.915,-0.022 L-5.722,-0.216 L-5.703,-0.41 L-5.372,-0.798 L-5.333,-0.992 L-4.752,-1.767 L-4.558,-2.155 L-4.214,-2.543 L-4.168,-2.737 L-3.786,-3.125 L-3.753,-3.319 L-3.228,-3.901 L-3.197,-4.095 L-2.65,-4.676 L-2.595,-4.87 L-2.041,-5.452 L-1.832,-5.84 L-1.272,-6.422 L-1.058,-6.81 L-0.309,-7.586 L0,-8.008 L0.299,-7.586 L1.048,-6.81 L1.265,-6.422 L1.828,-5.84 L1.873,-5.646 L2.576,-4.87 L2.624,-4.676 L3.169,-4.095 L3.214,-3.901 L3.585,-3.513 L3.785,-3.125 L4.157,-2.737 L4.194,-2.543 L4.555,-2.155 L4.595,-1.961 L4.945,-1.574 L4.983,-1.38 L5.329,-0.992 L5.345,-0.798 L5.692,-0.41 L5.722,-0.216 L5.915,-0.022 L5.935,0.172 L6.472,0.948 L6.497,1.142 L6.673,1.336 L6.691,1.529 L6.861,1.723 L6.885,1.917 L7.078,2.305 L7.095,2.499 L7.272,2.693 L7.317,3.081 L7.464,3.275 L7.466,3.663 L7.652,4.051 L7.651,5.02 L7.504,5.214 L7.402,5.796 L7.078,6.378 L6.012,7.428 L5.818,7.445 L5.624,7.634 L5.236,7.662 L5.042,7.832 L3.491,7.832 L3.297,7.647 L2.909,7.627 L2.715,7.445 L2.327,7.251 L1.457,6.378 L1.43,6.184 L1.26,5.99 L1.255,5.796 L1.073,5.602 L1.066,5.408 L0.937,5.214 L0.776,5.117 L0.582,5.117 L0.485,5.214 L0.514,6.378 L0.66,6.572 L0.679,6.96 L0.871,7.348 L0.872,7.542 L1.066,7.929 L1.079,8.123 L1.26,8.317 L1.262,8.511 L1.453,8.705 L1.454,8.899 L1.64,9.093 L1.648,9.287 L1.842,9.481 L1.851,9.675 L2.036,9.869 L2.23,10.257 L2.424,10.451 L2.618,10.838 Z" fill="black" />
    </g>
  </g>
  
  
  
    <g transform="translate(59.5, 72)">
      <path d="M3.019,13.164 L-3.019,13.164 L-3.136,12.999 L-2.903,12.534 L-2.675,12.302 L-2.647,12.07 L-2.254,11.605 L-2.207,11.373 L-1.983,11.141 L-1.973,10.908 L-1.749,10.676 L-1.742,10.444 L-1.523,10.212 L-1.51,9.979 L-1.297,9.747 L-1.255,9.283 L-1.045,9.05 L-0.981,8.586 L-0.813,8.354 L-0.811,7.889 L-0.586,7.425 L-0.585,6.264 L-0.697,6.152 L-0.929,6.147 L-1.21,6.264 L-1.288,6.728 L-1.51,6.96 L-1.51,7.193 L-1.735,7.425 L-1.757,7.657 L-2.787,8.701 L-3.252,8.934 L-3.484,9.141 L-3.948,9.175 L-4.181,9.395 L-6.039,9.399 L-6.271,9.206 L-6.735,9.163 L-6.968,8.934 L-7.2,8.923 L-7.897,8.287 L-8.668,7.425 L-8.709,7.193 L-8.895,6.96 L-8.942,6.496 L-9.161,6.031 L-9.163,4.87 L-9.115,4.638 L-8.944,4.406 L-8.942,3.941 L-8.709,3.477 L-8.709,3.244 L-8.52,3.012 L-8.453,2.548 L-8.245,2.315 L-8.237,2.083 L-8.013,1.851 L-7.997,1.619 L-7.78,1.386 L-7.77,1.154 L-7.548,0.922 L-7.478,0.69 L-7.121,0.225 L-7.084,-0.007 L-6.852,-0.239 L-6.83,-0.472 L-6.434,-0.936 L-6.387,-1.168 L-5.69,-2.097 L-5.458,-2.562 L-5.047,-3.026 L-4.991,-3.258 L-4.534,-3.723 L-4.495,-3.955 L-3.866,-4.652 L-3.829,-4.884 L-3.174,-5.581 L-3.108,-5.813 L-2.444,-6.51 L-2.193,-6.974 L-1.524,-7.671 L-1.267,-8.136 L-0.37,-9.065 L0,-9.57 L0.358,-9.065 L1.255,-8.136 L1.515,-7.671 L2.189,-6.974 L2.243,-6.742 L3.085,-5.813 L3.142,-5.581 L3.794,-4.884 L3.849,-4.652 L4.293,-4.187 L4.533,-3.723 L4.979,-3.258 L5.022,-3.026 L5.455,-2.562 L5.502,-2.33 L5.922,-1.865 L5.968,-1.633 L6.382,-1.168 L6.401,-0.936 L6.817,-0.472 L6.852,-0.239 L7.083,-0.007 L7.107,0.225 L7.751,1.154 L7.78,1.386 L7.991,1.619 L8.012,1.851 L8.217,2.083 L8.244,2.315 L8.477,2.78 L8.497,3.012 L8.708,3.244 L8.762,3.709 L8.938,3.941 L8.941,4.406 L9.163,4.87 L9.162,6.031 L8.986,6.264 L8.864,6.96 L8.477,7.657 L7.199,8.915 L6.967,8.934 L6.735,9.161 L6.27,9.194 L6.038,9.399 L4.18,9.398 L3.948,9.176 L3.483,9.152 L3.251,8.934 L2.787,8.702 L1.745,7.657 L1.713,7.425 L1.509,7.193 L1.503,6.96 L1.285,6.728 L1.277,6.496 L1.122,6.264 L0.929,6.147 L0.696,6.147 L0.58,6.264 L0.616,7.657 L0.79,7.889 L0.813,8.354 L1.043,8.818 L1.045,9.05 L1.277,9.515 L1.292,9.747 L1.509,9.979 L1.511,10.212 L1.74,10.444 L1.742,10.676 L1.964,10.908 L1.974,11.141 L2.206,11.373 L2.216,11.605 L2.438,11.837 L2.671,12.302 L2.903,12.534 L3.135,12.999 Z" fill="black" />
    </g>
  
    <g transform="translate(109.5, 72)">
      <path d="M3.019,13.164 L-3.019,13.164 L-3.136,12.999 L-2.903,12.534 L-2.675,12.302 L-2.647,12.07 L-2.254,11.605 L-2.207,11.373 L-1.983,11.141 L-1.973,10.908 L-1.749,10.676 L-1.742,10.444 L-1.523,10.212 L-1.51,9.979 L-1.297,9.747 L-1.255,9.283 L-1.045,9.05 L-0.981,8.586 L-0.813,8.354 L-0.811,7.889 L-0.586,7.425 L-0.585,6.264 L-0.697,6.152 L-0.929,6.147 L-1.21,6.264 L-1.288,6.728 L-1.51,6.96 L-1.51,7.193 L-1.735,7.425 L-1.757,7.657 L-2.787,8.701 L-3.252,8.934 L-3.484,9.141 L-3.948,9.175 L-4.181,9.395 L-6.039,9.399 L-6.271,9.206 L-6.735,9.163 L-6.968,8.934 L-7.2,8.923 L-7.897,8.287 L-8.668,7.425 L-8.709,7.193 L-8.895,6.96 L-8.942,6.496 L-9.161,6.031 L-9.163,4.87 L-9.115,4.638 L-8.944,4.406 L-8.942,3.941 L-8.709,3.477 L-8.709,3.244 L-8.52,3.012 L-8.453,2.548 L-8.245,2.315 L-8.237,2.083 L-8.013,1.851 L-7.997,1.619 L-7.78,1.386 L-7.77,1.154 L-7.548,0.922 L-7.478,0.69 L-7.121,0.225 L-7.084,-0.007 L-6.852,-0.239 L-6.83,-0.472 L-6.434,-0.936 L-6.387,-1.168 L-5.69,-2.097 L-5.458,-2.562 L-5.047,-3.026 L-4.991,-3.258 L-4.534,-3.723 L-4.495,-3.955 L-3.866,-4.652 L-3.829,-4.884 L-3.174,-5.581 L-3.108,-5.813 L-2.444,-6.51 L-2.193,-6.974 L-1.524,-7.671 L-1.267,-8.136 L-0.37,-9.065 L0,-9.57 L0.358,-9.065 L1.255,-8.136 L1.515,-7.671 L2.189,-6.974 L2.243,-6.742 L3.085,-5.813 L3.142,-5.581 L3.794,-4.884 L3.849,-4.652 L4.293,-4.187 L4.533,-3.723 L4.979,-3.258 L5.022,-3.026 L5.455,-2.562 L5.502,-2.33 L5.922,-1.865 L5.968,-1.633 L6.382,-1.168 L6.401,-0.936 L6.817,-0.472 L6.852,-0.239 L7.083,-0.007 L7.107,0.225 L7.751,1.154 L7.78,1.386 L7.991,1.619 L8.012,1.851 L8.217,2.083 L8.244,2.315 L8.477,2.78 L8.497,3.012 L8.708,3.244 L8.762,3.709 L8.938,3.941 L8.941,4.406 L9.163,4.87 L9.162,6.031 L8.986,6.264 L8.864,6.96 L8.477,7.657 L7.199,8.915 L6.967,8.934 L6.735,9.161 L6.27,9.194 L6.038,9.399 L4.18,9.398 L3.948,9.176 L3.483,9.152 L3.251,8.934 L2.787,8.702 L1.745,7.657 L1.713,7.425 L1.509,7.193 L1.503,6.96 L1.285,6.728 L1.277,6.496 L1.122,6.264 L0.929,6.147 L0.696,6.147 L0.58,6.264 L0.616,7.657 L0.79,7.889 L0.813,8.354 L1.043,8.818 L1.045,9.05 L1.277,9.515 L1.292,9.747 L1.509,9.979 L1.511,10.212 L1.74,10.444 L1.742,10.676 L1.964,10.908 L1.974,11.141 L2.206,11.373 L2.216,11.605 L2.438,11.837 L2.671,12.302 L2.903,12.534 L3.135,12.999 Z" fill="black" />
    </g>
  
    <g transform="translate(59.5, 102)">
      <path d="M3.019,13.164 L-3.019,13.164 L-3.136,12.999 L-2.903,12.534 L-2.675,12.302 L-2.647,12.07 L-2.254,11.605 L-2.207,11.373 L-1.983,11.141 L-1.973,10.908 L-1.749,10.676 L-1.742,10.444 L-1.523,10.212 L-1.51,9.979 L-1.297,9.747 L-1.255,9.283 L-1.045,9.05 L-0.981,8.586 L-0.813,8.354 L-0.811,7.889 L-0.586,7.425 L-0.585,6.264 L-0.697,6.152 L-0.929,6.147 L-1.21,6.264 L-1.288,6.728 L-1.51,6.96 L-1.51,7.193 L-1.735,7.425 L-1.757,7.657 L-2.787,8.701 L-3.252,8.934 L-3.484,9.141 L-3.948,9.175 L-4.181,9.395 L-6.039,9.399 L-6.271,9.206 L-6.735,9.163 L-6.968,8.934 L-7.2,8.923 L-7.897,8.287 L-8.668,7.425 L-8.709,7.193 L-8.895,6.96 L-8.942,6.496 L-9.161,6.031 L-9.163,4.87 L-9.115,4.638 L-8.944,4.406 L-8.942,3.941 L-8.709,3.477 L-8.709,3.244 L-8.52,3.012 L-8.453,2.548 L-8.245,2.315 L-8.237,2.083 L-8.013,1.851 L-7.997,1.619 L-7.78,1.386 L-7.77,1.154 L-7.548,0.922 L-7.478,0.69 L-7.121,0.225 L-7.084,-0.007 L-6.852,-0.239 L-6.83,-0.472 L-6.434,-0.936 L-6.387,-1.168 L-5.69,-2.097 L-5.458,-2.562 L-5.047,-3.026 L-4.991,-3.258 L-4.534,-3.723 L-4.495,-3.955 L-3.866,-4.652 L-3.829,-4.884 L-3.174,-5.581 L-3.108,-5.813 L-2.444,-6.51 L-2.193,-6.974 L-1.524,-7.671 L-1.267,-8.136 L-0.37,-9.065 L0,-9.57 L0.358,-9.065 L1.255,-8.136 L1.515,-7.671 L2.189,-6.974 L2.243,-6.742 L3.085,-5.813 L3.142,-5.581 L3.794,-4.884 L3.849,-4.652 L4.293,-4.187 L4.533,-3.723 L4.979,-3.258 L5.022,-3.026 L5.455,-2.562 L5.502,-2.33 L5.922,-1.865 L5.968,-1.633 L6.382,-1.168 L6.401,-0.936 L6.817,-0.472 L6.852,-0.239 L7.083,-0.007 L7.107,0.225 L7.751,1.154 L7.78,1.386 L7.991,1.619 L8.012,1.851 L8.217,2.083 L8.244,2.315 L8.477,2.78 L8.497,3.012 L8.708,3.244 L8.762,3.709 L8.938,3.941 L8.941,4.406 L9.163,4.87 L9.162,6.031 L8.986,6.264 L8.864,6.96 L8.477,7.657 L7.199,8.915 L6.967,8.934 L6.735,9.161 L6.27,9.194 L6.038,9.399 L4.18,9.398 L3.948,9.176 L3.483,9.152 L3.251,8.934 L2.787,8.702 L1.745,7.657 L1.713,7.425 L1.509,7.193 L1.503,6.96 L1.285,6.728 L1.277,6.496 L1.122,6.264 L0.929,6.147 L0.696,6.147 L0.58,6.264 L0.616,7.657 L0.79,7.889 L0.813,8.354 L1.043,8.818 L1.045,9.05 L1.277,9.515 L1.292,9.747 L1.509,9.979 L1.511,10.212 L1.74,10.444 L1.742,10.676 L1.964,10.908 L1.974,11.141 L2.206,11.373 L2.216,11.605 L2.438,11.837 L2.671,12.302 L2.903,12.534 L3.135,12.999 Z" fill="black" />
    </g>
  
    <g transform="translate(84.5, 102)">
      <path d="M3.019,13.164 L-3.019,13.164 L-3.136,12.999 L-2.903,12.534 L-2.675,12.302 L-2.647,12.07 L-2.254,11.605 L-2.207,11.373 L-1.983,11.141 L-1.973,10.908 L-1.749,10.676 L-1.742,10.444 L-1.523,10.212 L-1.51,9.979 L-1.297,9.747 L-1.255,9.283 L-1.045,9.05 L-0.981,8.586 L-0.813,8.354 L-0.811,7.889 L-0.586,7.425 L-0.585,6.264 L-0.697,6.152 L-0.929,6.147 L-1.21,6.264 L-1.288,6.728 L-1.51,6.96 L-1.51,7.193 L-1.735,7.425 L-1.757,7.657 L-2.787,8.701 L-3.252,8.934 L-3.484,9.141 L-3.948,9.175 L-4.181,9.395 L-6.039,9.399 L-6.271,9.206 L-6.735,9.163 L-6.968,8.934 L-7.2,8.923 L-7.897,8.287 L-8.668,7.425 L-8.709,7.193 L-8.895,6.96 L-8.942,6.496 L-9.161,6.031 L-9.163,4.87 L-9.115,4.638 L-8.944,4.406 L-8.942,3.941 L-8.709,3.477 L-8.709,3.244 L-8.52,3.012 L-8.453,2.548 L-8.245,2.315 L-8.237,2.083 L-8.013,1.851 L-7.997,1.619 L-7.78,1.386 L-7.77,1.154 L-7.548,0.922 L-7.478,0.69 L-7.121,0.225 L-7.084,-0.007 L-6.852,-0.239 L-6.83,-0.472 L-6.434,-0.936 L-6.387,-1.168 L-5.69,-2.097 L-5.458,-2.562 L-5.047,-3.026 L-4.991,-3.258 L-4.534,-3.723 L-4.495,-3.955 L-3.866,-4.652 L-3.829,-4.884 L-3.174,-5.581 L-3.108,-5.813 L-2.444,-6.51 L-2.193,-6.974 L-1.524,-7.671 L-1.267,-8.136 L-0.37,-9.065 L0,-9.57 L0.358,-9.065 L1.255,-8.136 L1.515,-7.671 L2.189,-6.974 L2.243,-6.742 L3.085,-5.813 L3.142,-5.581 L3.794,-4.884 L3.849,-4.652 L4.293,-4.187 L4.533,-3.723 L4.979,-3.258 L5.022,-3.026 L5.455,-2.562 L5.502,-2.33 L5.922,-1.865 L5.968,-1.633 L6.382,-1.168 L6.401,-0.936 L6.817,-0.472 L6.852,-0.239 L7.083,-0.007 L7.107,0.225 L7.751,1.154 L7.78,1.386 L7.991,1.619 L8.012,1.851 L8.217,2.083 L8.244,2.315 L8.477,2.78 L8.497,3.012 L8.708,3.244 L8.762,3.709 L8.938,3.941 L8.941,4.406 L9.163,4.87 L9.162,6.031 L8.986,6.264 L8.864,6.96 L8.477,7.657 L7.199,8.915 L6.967,8.934 L6.735,9.161 L6.27,9.194 L6.038,9.399 L4.18,9.398 L3.948,9.176 L3.483,9.152 L3.251,8.934 L2.787,8.702 L1.745,7.657 L1.713,7.425 L1.509,7.193 L1.503,6.96 L1.285,6.728 L1.277,6.496 L1.122,6.264 L0.929,6.147 L0.696,6.147 L0.58,6.264 L0.616,7.657 L0.79,7.889 L0.813,8.354 L1.043,8.818 L1.045,9.05 L1.277,9.515 L1.292,9.747 L1.509,9.979 L1.511,10.212 L1.74,10.444 L1.742,10.676 L1.964,10.908 L1.974,11.141 L2.206,11.373 L2.216,11.605 L2.438,11.837 L2.671,12.302 L2.903,12.534 L3.135,12.999 Z" fill="black" />
    </g>
  
    <g transform="translate(109.5, 102)">
      <path d="M3.019,13.164 L-3.019,13.164 L-3.136,12.999 L-2.903,12.534 L-2.675,12.302 L-2.647,12.07 L-2.254,11.605 L-2.207,11.373 L-1.983,11.141 L-1.973,10.908 L-1.749,10.676 L-1.742,10.444 L-1.523,10.212 L-1.51,9.979 L-1.297,9.747 L-1.255,9.283 L-1.045,9.05 L-0.981,8.586 L-0.813,8.354 L-0.811,7.889 L-0.586,7.425 L-0.585,6.264 L-0.697,6.152 L-0.929,6.147 L-1.21,6.264 L-1.288,6.728 L-1.51,6.96 L-1.51,7.193 L-1.735,7.425 L-1.757,7.657 L-2.787,8.701 L-3.252,8.934 L-3.484,9.141 L-3.948,9.175 L-4.181,9.395 L-6.039,9.399 L-6.271,9.206 L-6.735,9.163 L-6.968,8.934 L-7.2,8.923 L-7.897,8.287 L-8.668,7.425 L-8.709,7.193 L-8.895,6.96 L-8.942,6.496 L-9.161,6.031 L-9.163,4.87 L-9.115,4.638 L-8.944,4.406 L-8.942,3.941 L-8.709,3.477 L-8.709,3.244 L-8.52,3.012 L-8.453,2.548 L-8.245,2.315 L-8.237,2.083 L-8.013,1.851 L-7.997,1.619 L-7.78,1.386 L-7.77,1.154 L-7.548,0.922 L-7.478,0.69 L-7.121,0.225 L-7.084,-0.007 L-6.852,-0.239 L-6.83,-0.472 L-6.434,-0.936 L-6.387,-1.168 L-5.69,-2.097 L-5.458,-2.562 L-5.047,-3.026 L-4.991,-3.258 L-4.534,-3.723 L-4.495,-3.955 L-3.866,-4.652 L-3.829,-4.884 L-3.174,-5.581 L-3.108,-5.813 L-2.444,-6.51 L-2.193,-6.974 L-1.524,-7.671 L-1.267,-8.136 L-0.37,-9.065 L0,-9.57 L0.358,-9.065 L1.255,-8.136 L1.515,-7.671 L2.189,-6.974 L2.243,-6.742 L3.085,-5.813 L3.142,-5.581 L3.794,-4.884 L3.849,-4.652 L4.293,-4.187 L4.533,-3.723 L4.979,-3.258 L5.022,-3.026 L5.455,-2.562 L5.502,-2.33 L5.922,-1.865 L5.968,-1.633 L6.382,-1.168 L6.401,-0.936 L6.817,-0.472 L6.852,-0.239 L7.083,-0.007 L7.107,0.225 L7.751,1.154 L7.78,1.386 L7.991,1.619 L8.012,1.851 L8.217,2.083 L8.244,2.315 L8.477,2.78 L8.497,3.012 L8.708,3.244 L8.762,3.709 L8.938,3.941 L8.941,4.406 L9.163,4.87 L9.162,6.031 L8.986,6.264 L8.864,6.96 L8.477,7.657 L7.199,8.915 L6.967,8.934 L6.735,9.161 L6.27,9.194 L6.038,9.399 L4.18,9.398 L3.948,9.176 L3.483,9.152 L3.251,8.934 L2.787,8.702 L1.745,7.657 L1.713,7.425 L1.509,7.193 L1.503,6.96 L1.285,6.728 L1.277,6.496 L1.122,6.264 L0.929,6.147 L0.696,6.147 L0.58,6.264 L0.616,7.657 L0.79,7.889 L0.813,8.354 L1.043,8.818 L1.045,9.05 L1.277,9.515 L1.292,9.747 L1.509,9.979 L1.511,10.212 L1.74,10.444 L1.742,10.676 L1.964,10.908 L1.974,11.141 L2.206,11.373 L2.216,11.605 L2.438,11.837 L2.671,12.302 L2.903,12.534 L3.135,12.999 Z" fill="black" />
    </g>
  
    <g transform="translate(59.5, 132)">
      <path d="M3.019,13.164 L-3.019,13.164 L-3.136,12.999 L-2.903,12.534 L-2.675,12.302 L-2.647,12.07 L-2.254,11.605 L-2.207,11.373 L-1.983,11.141 L-1.973,10.908 L-1.749,10.676 L-1.742,10.444 L-1.523,10.212 L-1.51,9.979 L-1.297,9.747 L-1.255,9.283 L-1.045,9.05 L-0.981,8.586 L-0.813,8.354 L-0.811,7.889 L-0.586,7.425 L-0.585,6.264 L-0.697,6.152 L-0.929,6.147 L-1.21,6.264 L-1.288,6.728 L-1.51,6.96 L-1.51,7.193 L-1.735,7.425 L-1.757,7.657 L-2.787,8.701 L-3.252,8.934 L-3.484,9.141 L-3.948,9.175 L-4.181,9.395 L-6.039,9.399 L-6.271,9.206 L-6.735,9.163 L-6.968,8.934 L-7.2,8.923 L-7.897,8.287 L-8.668,7.425 L-8.709,7.193 L-8.895,6.96 L-8.942,6.496 L-9.161,6.031 L-9.163,4.87 L-9.115,4.638 L-8.944,4.406 L-8.942,3.941 L-8.709,3.477 L-8.709,3.244 L-8.52,3.012 L-8.453,2.548 L-8.245,2.315 L-8.237,2.083 L-8.013,1.851 L-7.997,1.619 L-7.78,1.386 L-7.77,1.154 L-7.548,0.922 L-7.478,0.69 L-7.121,0.225 L-7.084,-0.007 L-6.852,-0.239 L-6.83,-0.472 L-6.434,-0.936 L-6.387,-1.168 L-5.69,-2.097 L-5.458,-2.562 L-5.047,-3.026 L-4.991,-3.258 L-4.534,-3.723 L-4.495,-3.955 L-3.866,-4.652 L-3.829,-4.884 L-3.174,-5.581 L-3.108,-5.813 L-2.444,-6.51 L-2.193,-6.974 L-1.524,-7.671 L-1.267,-8.136 L-0.37,-9.065 L0,-9.57 L0.358,-9.065 L1.255,-8.136 L1.515,-7.671 L2.189,-6.974 L2.243,-6.742 L3.085,-5.813 L3.142,-5.581 L3.794,-4.884 L3.849,-4.652 L4.293,-4.187 L4.533,-3.723 L4.979,-3.258 L5.022,-3.026 L5.455,-2.562 L5.502,-2.33 L5.922,-1.865 L5.968,-1.633 L6.382,-1.168 L6.401,-0.936 L6.817,-0.472 L6.852,-0.239 L7.083,-0.007 L7.107,0.225 L7.751,1.154 L7.78,1.386 L7.991,1.619 L8.012,1.851 L8.217,2.083 L8.244,2.315 L8.477,2.78 L8.497,3.012 L8.708,3.244 L8.762,3.709 L8.938,3.941 L8.941,4.406 L9.163,4.87 L9.162,6.031 L8.986,6.264 L8.864,6.96 L8.477,7.657 L7.199,8.915 L6.967,8.934 L6.735,9.161 L6.27,9.194 L6.038,9.399 L4.18,9.398 L3.948,9.176 L3.483,9.152 L3.251,8.934 L2.787,8.702 L1.745,7.657 L1.713,7.425 L1.509,7.193 L1.503,6.96 L1.285,6.728 L1.277,6.496 L1.122,6.264 L0.929,6.147 L0.696,6.147 L0.58,6.264 L0.616,7.657 L0.79,7.889 L0.813,8.354 L1.043,8.818 L1.045,9.05 L1.277,9.515 L1.292,9.747 L1.509,9.979 L1.511,10.212 L1.74,10.444 L1.742,10.676 L1.964,10.908 L1.974,11.141 L2.206,11.373 L2.216,11.605 L2.438,11.837 L2.671,12.302 L2.903,12.534 L3.135,12.999 Z" fill="black" />
    </g>
  
    <g transform="translate(109.5, 132)">
      <path d="M3.019,13.164 L-3.019,13.164 L-3.136,12.999 L-2.903,12.534 L-2.675,12.302 L-2.647,12.07 L-2.254,11.605 L-2.207,11.373 L-1.983,11.141 L-1.973,10.908 L-1.749,10.676 L-1.742,10.444 L-1.523,10.212 L-1.51,9.979 L-1.297,9.747 L-1.255,9.283 L-1.045,9.05 L-0.981,8.586 L-0.813,8.354 L-0.811,7.889 L-0.586,7.425 L-0.585,6.264 L-0.697,6.152 L-0.929,6.147 L-1.21,6.264 L-1.288,6.728 L-1.51,6.96 L-1.51,7.193 L-1.735,7.425 L-1.757,7.657 L-2.787,8.701 L-3.252,8.934 L-3.484,9.141 L-3.948,9.175 L-4.181,9.395 L-6.039,9.399 L-6.271,9.206 L-6.735,9.163 L-6.968,8.934 L-7.2,8.923 L-7.897,8.287 L-8.668,7.425 L-8.709,7.193 L-8.895,6.96 L-8.942,6.496 L-9.161,6.031 L-9.163,4.87 L-9.115,4.638 L-8.944,4.406 L-8.942,3.941 L-8.709,3.477 L-8.709,3.244 L-8.52,3.012 L-8.453,2.548 L-8.245,2.315 L-8.237,2.083 L-8.013,1.851 L-7.997,1.619 L-7.78,1.386 L-7.77,1.154 L-7.548,0.922 L-7.478,0.69 L-7.121,0.225 L-7.084,-0.007 L-6.852,-0.239 L-6.83,-0.472 L-6.434,-0.936 L-6.387,-1.168 L-5.69,-2.097 L-5.458,-2.562 L-5.047,-3.026 L-4.991,-3.258 L-4.534,-3.723 L-4.495,-3.955 L-3.866,-4.652 L-3.829,-4.884 L-3.174,-5.581 L-3.108,-5.813 L-2.444,-6.51 L-2.193,-6.974 L-1.524,-7.671 L-1.267,-8.136 L-0.37,-9.065 L0,-9.57 L0.358,-9.065 L1.255,-8.136 L1.515,-7.671 L2.189,-6.974 L2.243,-6.742 L3.085,-5.813 L3.142,-5.581 L3.794,-4.884 L3.849,-4.652 L4.293,-4.187 L4.533,-3.723 L4.979,-3.258 L5.022,-3.026 L5.455,-2.562 L5.502,-2.33 L5.922,-1.865 L5.968,-1.633 L6.382,-1.168 L6.401,-0.936 L6.817,-0.472 L6.852,-0.239 L7.083,-0.007 L7.107,0.225 L7.751,1.154 L7.78,1.386 L7.991,1.619 L8.012,1.851 L8.217,2.083 L8.244,2.315 L8.477,2.78 L8.497,3.012 L8.708,3.244 L8.762,3.709 L8.938,3.941 L8.941,4.406 L9.163,4.87 L9.162,6.031 L8.986,6.264 L8.864,6.96 L8.477,7.657 L7.199,8.915 L6.967,8.934 L6.735,9.161 L6.27,9.194 L6.038,9.399 L4.18,9.398 L3.948,9.176 L3.483,9.152 L3.251,8.934 L2.787,8.702 L1.745,7.657 L1.713,7.425 L1.509,7.193 L1.503,6.96 L1.285,6.728 L1.277,6.496 L1.122,6.264 L0.929,6.147 L0.696,6.147 L0.58,6.264 L0.616,7.657 L0.79,7.889 L0.813,8.354 L1.043,8.818 L1.045,9.05 L1.277,9.515 L1.292,9.747 L1.509,9.979 L1.511,10.212 L1.74,10.444 L1.742,10.676 L1.964,10.908 L1.974,11.141 L2.206,11.373 L2.216,11.605 L2.438,11.837 L2.671,12.302 L2.903,12.534 L3.135,12.999 Z" fill="black" />
    </g>
  
    <g transform="translate(59.5, 162)">
      <path d="M3.019,13.164 L-3.019,13.164 L-3.136,12.999 L-2.903,12.534 L-2.675,12.302 L-2.647,12.07 L-2.254,11.605 L-2.207,11.373 L-1.983,11.141 L-1.973,10.908 L-1.749,10.676 L-1.742,10.444 L-1.523,10.212 L-1.51,9.979 L-1.297,9.747 L-1.255,9.283 L-1.045,9.05 L-0.981,8.586 L-0.813,8.354 L-0.811,7.889 L-0.586,7.425 L-0.585,6.264 L-0.697,6.152 L-0.929,6.147 L-1.21,6.264 L-1.288,6.728 L-1.51,6.96 L-1.51,7.193 L-1.735,7.425 L-1.757,7.657 L-2.787,8.701 L-3.252,8.934 L-3.484,9.141 L-3.948,9.175 L-4.181,9.395 L-6.039,9.399 L-6.271,9.206 L-6.735,9.163 L-6.968,8.934 L-7.2,8.923 L-7.897,8.287 L-8.668,7.425 L-8.709,7.193 L-8.895,6.96 L-8.942,6.496 L-9.161,6.031 L-9.163,4.87 L-9.115,4.638 L-8.944,4.406 L-8.942,3.941 L-8.709,3.477 L-8.709,3.244 L-8.52,3.012 L-8.453,2.548 L-8.245,2.315 L-8.237,2.083 L-8.013,1.851 L-7.997,1.619 L-7.78,1.386 L-7.77,1.154 L-7.548,0.922 L-7.478,0.69 L-7.121,0.225 L-7.084,-0.007 L-6.852,-0.239 L-6.83,-0.472 L-6.434,-0.936 L-6.387,-1.168 L-5.69,-2.097 L-5.458,-2.562 L-5.047,-3.026 L-4.991,-3.258 L-4.534,-3.723 L-4.495,-3.955 L-3.866,-4.652 L-3.829,-4.884 L-3.174,-5.581 L-3.108,-5.813 L-2.444,-6.51 L-2.193,-6.974 L-1.524,-7.671 L-1.267,-8.136 L-0.37,-9.065 L0,-9.57 L0.358,-9.065 L1.255,-8.136 L1.515,-7.671 L2.189,-6.974 L2.243,-6.742 L3.085,-5.813 L3.142,-5.581 L3.794,-4.884 L3.849,-4.652 L4.293,-4.187 L4.533,-3.723 L4.979,-3.258 L5.022,-3.026 L5.455,-2.562 L5.502,-2.33 L5.922,-1.865 L5.968,-1.633 L6.382,-1.168 L6.401,-0.936 L6.817,-0.472 L6.852,-0.239 L7.083,-0.007 L7.107,0.225 L7.751,1.154 L7.78,1.386 L7.991,1.619 L8.012,1.851 L8.217,2.083 L8.244,2.315 L8.477,2.78 L8.497,3.012 L8.708,3.244 L8.762,3.709 L8.938,3.941 L8.941,4.406 L9.163,4.87 L9.162,6.031 L8.986,6.264 L8.864,6.96 L8.477,7.657 L7.199,8.915 L6.967,8.934 L6.735,9.161 L6.27,9.194 L6.038,9.399 L4.18,9.398 L3.948,9.176 L3.483,9.152 L3.251,8.934 L2.787,8.702 L1.745,7.657 L1.713,7.425 L1.509,7.193 L1.503,6.96 L1.285,6.728 L1.277,6.496 L1.122,6.264 L0.929,6.147 L0.696,6.147 L0.58,6.264 L0.616,7.657 L0.79,7.889 L0.813,8.354 L1.043,8.818 L1.045,9.05 L1.277,9.515 L1.292,9.747 L1.509,9.979 L1.511,10.212 L1.74,10.444 L1.742,10.676 L1.964,10.908 L1.974,11.141 L2.206,11.373 L2.216,11.605 L2.438,11.837 L2.671,12.302 L2.903,12.534 L3.135,12.999 Z" fill="black" />
    </g>
  
    <g transform="translate(109.5, 162)">
      <path d="M3.019,13.164 L-3.019,13.164 L-3.136,12.999 L-2.903,12.534 L-2.675,12.302 L-2.647,12.07 L-2.254,11.605 L-2.207,11.373 L-1.983,11.141 L-1.973,10.908 L-1.749,10.676 L-1.742,10.444 L-1.523,10.212 L-1.51,9.979 L-1.297,9.747 L-1.255,9.283 L-1.045,9.05 L-0.981,8.586 L-0.813,8.354 L-0.811,7.889 L-0.586,7.425 L-0.585,6.264 L-0.697,6.152 L-0.929,6.147 L-1.21,6.264 L-1.288,6.728 L-1.51,6.96 L-1.51,7.193 L-1.735,7.425 L-1.757,7.657 L-2.787,8.701 L-3.252,8.934 L-3.484,9.141 L-3.948,9.175 L-4.181,9.395 L-6.039,9.399 L-6.271,9.206 L-6.735,9.163 L-6.968,8.934 L-7.2,8.923 L-7.897,8.287 L-8.668,7.425 L-8.709,7.193 L-8.895,6.96 L-8.942,6.496 L-9.161,6.031 L-9.163,4.87 L-9.115,4.638 L-8.944,4.406 L-8.942,3.941 L-8.709,3.477 L-8.709,3.244 L-8.52,3.012 L-8.453,2.548 L-8.245,2.315 L-8.237,2.083 L-8.013,1.851 L-7.997,1.619 L-7.78,1.386 L-7.77,1.154 L-7.548,0.922 L-7.478,0.69 L-7.121,0.225 L-7.084,-0.007 L-6.852,-0.239 L-6.83,-0.472 L-6.434,-0.936 L-6.387,-1.168 L-5.69,-2.097 L-5.458,-2.562 L-5.047,-3.026 L-4.991,-3.258 L-4.534,-3.723 L-4.495,-3.955 L-3.866,-4.652 L-3.829,-4.884 L-3.174,-5.581 L-3.108,-5.813 L-2.444,-6.51 L-2.193,-6.974 L-1.524,-7.671 L-1.267,-8.136 L-0.37,-9.065 L0,-9.57 L0.358,-9.065 L1.255,-8.136 L1.515,-7.671 L2.189,-6.974 L2.243,-6.742 L3.085,-5.813 L3.142,-5.581 L3.794,-4.884 L3.849,-4.652 L4.293,-4.187 L4.533,-3.723 L4.979,-3.258 L5.022,-3.026 L5.455,-2.562 L5.502,-2.33 L5.922,-1.865 L5.968,-1.633 L6.382,-1.168 L6.401,-0.936 L6.817,-0.472 L6.852,-0.239 L7.083,-0.007 L7.107,0.225 L7.751,1.154 L7.78,1.386 L7.991,1.619 L8.012,1.851 L8.217,2.083 L8.244,2.315 L8.477,2.78 L8.497,3.012 L8.708,3.244 L8.762,3.709 L8.938,3.941 L8.941,4.406 L9.163,4.87 L9.162,6.031 L8.986,6.264 L8.864,6.96 L8.477,7.657 L7.199,8.915 L6.967,8.934 L6.735,9.161 L6.27,9.194 L6.038,9.399 L4.18,9.398 L3.948,9.176 L3.483,9.152 L3.251,8.934 L2.787,8.702 L1.745,7.657 L1.713,7.425 L1.509,7.193 L1.503,6.96 L1.285,6.728 L1.277,6.496 L1.122,6.264 L0.929,6.147 L0.696,6.147 L0.58,6.264 L0.616,7.657 L0.79,7.889 L0.813,8.354 L1.043,8.818 L1.045,9.05 L1.277,9.515 L1.292,9.747 L1.509,9.979 L1.511,10.212 L1.74,10.444 L1.742,10.676 L1.964,10.908 L1.974,11.141 L2.206,11.373 L2.216,11.605 L2.438,11.837 L2.671,12.302 L2.903,12.534 L3.135,12.999 Z" fill="black" />
    </g>
  
</g></svg>