<?xml version="1.0" encoding="UTF-8"?><svg xmlns="http://www.w3.org/2000/svg" width="169" height="244" viewBox="0 0 169 244" shape-rendering="geometricPrecision"><path fill="#fefefe" fill-rule="evenodd" d="M160.0,243.5 L8.0,243.5 L7.0,242.5 L6.0,242.5 L0.5,237.0 L0.5,236.0 L-0.5,235.0 L-0.5,8.0 L0.5,7.0 L0.5,6.0 L1.5,5.0 L1.5,4.0 L4.0,1.5 L5.0,1.5 L6.0,0.5 L7.0,0.5 L8.0,-0.5 L160.0,-0.5 L161.0,0.5 L162.0,0.5 L167.5,6.0 L167.5,7.0 L168.5,8.0 L168.5,235.0 L167.5,236.0 L167.5,237.0 L166.5,238.0 L166.5,239.0 L164.0,241.5 L163.0,241.5 L162.0,242.5 L161.0,242.5 Z M35.5,33.0 L36.0,32.5 L37.0,32.5 L39.5,30.0 L39.5,29.0 L40.5,28.0 L40.5,26.0 L41.5,25.0 L41.5,17.0 L40.5,16.0 L40.5,14.0 L36.0,9.5 L29.0,9.5 L28.0,10.5 L27.0,10.5 L24.5,13.0 L24.5,14.0 L23.5,15.0 L23.5,20.0 L25.5,22.0 L25.5,23.0 L26.0,23.5 L27.0,23.5 L28.0,24.5 L34.0,24.5 L35.0,23.5 L35.5,24.0 L35.5,27.0 L33.0,29.5 L31.0,29.5 L28.0,26.5 L27.0,27.5 L25.0,27.5 L24.5,28.0 L24.5,30.0 L28.0,33.5 L35.0,33.5 Z M34.0,20.5 L31.0,20.5 L29.5,19.0 L29.5,15.0 L31.0,13.5 L34.0,13.5 L35.5,15.0 L35.5,19.0 Z M37.5,67.0 L36.5,66.0 L36.5,65.0 L35.5,64.0 L35.5,63.0 L36.0,62.5 L37.0,63.5 L38.0,63.5 L39.0,64.5 L40.0,64.5 L41.0,63.5 L42.0,63.5 L43.5,62.0 L43.5,57.0 L42.5,56.0 L42.5,55.0 L40.5,53.0 L40.5,52.0 L37.5,49.0 L37.5,48.0 L35.0,45.5 L34.0,45.5 L30.5,49.0 L30.5,50.0 L28.5,52.0 L28.5,53.0 L26.5,55.0 L26.5,56.0 L25.5,57.0 L25.5,62.0 L27.0,63.5 L28.0,63.5 L29.0,64.5 L30.0,64.5 L31.0,63.5 L32.0,63.5 L32.5,64.0 L32.5,65.0 L31.5,66.0 L31.5,67.0 L32.0,67.5 L37.0,67.5 Z M60.5,80.0 L59.5,79.0 L59.5,78.0 L58.5,77.0 L58.5,76.0 L57.5,75.0 L57.5,74.0 L58.0,73.5 L60.0,75.5 L61.0,75.5 L62.0,76.5 L63.0,76.5 L64.0,75.5 L65.0,75.5 L67.5,73.0 L67.5,72.0 L68.5,71.0 L68.5,70.0 L67.5,69.0 L67.5,67.0 L66.5,66.0 L66.5,65.0 L65.5,64.0 L65.5,63.0 L63.5,61.0 L63.5,60.0 L60.5,57.0 L60.5,56.0 L56.0,51.5 L52.5,55.0 L52.5,56.0 L49.5,59.0 L49.5,60.0 L47.5,62.0 L47.5,63.0 L46.5,64.0 L46.5,65.0 L45.5,66.0 L45.5,67.0 L44.5,68.0 L44.5,73.0 L47.0,75.5 L48.0,75.5 L49.0,76.5 L50.0,76.5 L51.0,75.5 L52.0,75.5 L54.0,73.5 L54.5,74.0 L54.5,76.0 L53.5,77.0 L53.5,78.0 L52.5,79.0 L52.5,80.0 L53.0,80.5 L60.0,80.5 Z M115.5,80.0 L115.5,79.0 L114.5,78.0 L114.5,77.0 L113.5,76.0 L113.5,74.0 L114.0,73.5 L116.0,75.5 L117.0,75.5 L118.0,76.5 L119.0,76.5 L120.0,75.5 L121.0,75.5 L123.5,73.0 L123.5,68.0 L122.5,67.0 L122.5,66.0 L121.5,65.0 L121.5,64.0 L120.5,63.0 L120.5,62.0 L117.5,59.0 L117.5,58.0 L114.5,55.0 L114.5,54.0 L112.0,51.5 L107.5,56.0 L107.5,57.0 L104.5,60.0 L104.5,61.0 L102.5,63.0 L102.5,64.0 L101.5,65.0 L101.5,66.0 L100.5,67.0 L100.5,69.0 L99.5,70.0 L99.5,71.0 L100.5,72.0 L100.5,73.0 L103.0,75.5 L104.0,75.5 L105.0,76.5 L106.0,76.5 L107.0,75.5 L108.0,75.5 L110.0,73.5 L110.5,74.0 L110.5,75.0 L109.5,76.0 L109.5,77.0 L108.5,78.0 L108.5,79.0 L107.5,80.0 L108.0,80.5 L115.0,80.5 Z M33.0,63.5 L32.5,63.0 L32.5,62.0 L33.0,61.5 L33.5,62.0 L33.5,63.0 Z M60.5,115.0 L59.5,114.0 L59.5,113.0 L58.5,112.0 L58.5,111.0 L57.5,110.0 L57.5,108.0 L58.0,107.5 L58.5,108.0 L58.5,109.0 L59.0,109.5 L60.0,109.5 L61.0,110.5 L65.0,110.5 L67.5,108.0 L67.5,107.0 L68.5,106.0 L68.5,105.0 L67.5,104.0 L67.5,102.0 L66.5,101.0 L66.5,100.0 L65.5,99.0 L65.5,98.0 L63.5,96.0 L63.5,95.0 L61.5,93.0 L61.5,92.0 L58.5,89.0 L58.5,88.0 L58.0,87.5 L57.0,86.5 L56.0,86.5 L51.5,91.0 L51.5,92.0 L49.5,94.0 L49.5,95.0 L47.5,97.0 L47.5,98.0 L45.5,100.0 L45.5,102.0 L44.5,103.0 L44.5,108.0 L47.0,110.5 L52.0,110.5 L54.0,108.5 L54.5,109.0 L54.5,111.0 L53.5,112.0 L53.5,113.0 L52.5,114.0 L52.5,115.0 L53.0,115.5 L60.0,115.5 Z M88.5,115.0 L87.5,114.0 L87.5,113.0 L86.5,112.0 L86.5,111.0 L85.5,110.0 L85.5,109.0 L86.0,108.5 L88.0,110.5 L93.0,110.5 L95.5,108.0 L95.5,106.0 L96.5,105.0 L95.5,104.0 L95.5,102.0 L94.5,101.0 L94.5,100.0 L93.5,99.0 L93.5,98.0 L91.5,96.0 L91.5,95.0 L88.5,92.0 L88.5,91.0 L87.5,90.0 L84.0,86.5 L83.0,86.5 L82.5,87.0 L82.5,88.0 L78.5,92.0 L78.5,93.0 L76.5,95.0 L76.5,96.0 L74.5,98.0 L74.5,99.0 L73.5,100.0 L73.5,101.0 L72.5,102.0 L72.5,104.0 L71.5,105.0 L72.5,106.0 L72.5,108.0 L75.0,110.5 L80.0,110.5 L82.0,108.5 L82.5,109.0 L82.5,110.0 L81.5,111.0 L81.5,112.0 L80.5,113.0 L80.5,114.0 L79.5,115.0 L80.0,115.5 L88.0,115.5 Z M115.5,115.0 L115.5,114.0 L114.5,113.0 L114.5,112.0 L113.5,111.0 L113.5,109.0 L114.0,108.5 L116.0,110.5 L121.0,110.5 L123.5,108.0 L123.5,103.0 L122.5,102.0 L122.5,100.0 L120.5,98.0 L120.5,97.0 L118.5,95.0 L118.5,94.0 L116.5,92.0 L116.5,91.0 L112.0,86.5 L111.0,86.5 L109.5,88.0 L109.5,89.0 L106.5,92.0 L106.5,93.0 L104.5,95.0 L104.5,96.0 L102.5,98.0 L102.5,99.0 L101.5,100.0 L101.5,101.0 L100.5,102.0 L100.5,104.0 L99.5,105.0 L99.5,106.0 L100.5,107.0 L100.5,108.0 L103.0,110.5 L107.0,110.5 L108.0,109.5 L109.0,109.5 L109.5,109.0 L109.5,108.0 L110.0,107.5 L110.5,108.0 L110.5,110.0 L109.5,111.0 L109.5,112.0 L108.5,113.0 L108.5,114.0 L107.5,115.0 L108.0,115.5 L115.0,115.5 Z M55.0,108.5 L54.5,108.0 L54.5,107.0 L55.0,106.5 L55.5,107.0 L55.5,108.0 Z M113.0,108.5 L112.5,108.0 L112.5,107.0 L113.0,106.5 L113.5,107.0 L113.5,108.0 Z M60.5,150.0 L60.5,149.0 L58.5,147.0 L58.5,146.0 L57.5,145.0 L57.5,143.0 L58.0,142.5 L61.0,145.5 L64.0,145.5 L65.0,144.5 L66.0,144.5 L67.5,143.0 L67.5,142.0 L68.5,141.0 L68.5,139.0 L67.5,138.0 L67.5,136.0 L66.5,135.0 L66.5,134.0 L64.5,132.0 L64.5,131.0 L62.5,129.0 L62.5,128.0 L59.5,125.0 L59.5,124.0 L56.0,120.5 L54.5,122.0 L54.5,123.0 L50.5,127.0 L50.5,128.0 L48.5,130.0 L48.5,131.0 L46.5,133.0 L46.5,134.0 L45.5,135.0 L45.5,136.0 L44.5,137.0 L44.5,142.0 L48.0,145.5 L51.0,145.5 L52.0,144.5 L53.0,144.5 L54.0,143.5 L54.5,144.0 L54.5,145.0 L53.5,146.0 L53.5,147.0 L52.5,148.0 L52.5,150.0 L53.0,150.5 L60.0,150.5 Z M115.5,150.0 L115.5,148.0 L114.5,147.0 L114.5,146.0 L113.5,145.0 L113.5,144.0 L114.0,143.5 L115.0,144.5 L116.0,144.5 L117.0,145.5 L120.0,145.5 L123.5,142.0 L123.5,137.0 L122.5,136.0 L122.5,135.0 L121.5,134.0 L121.5,133.0 L119.5,131.0 L119.5,130.0 L117.5,128.0 L117.5,127.0 L113.5,123.0 L113.5,122.0 L112.0,120.5 L108.5,124.0 L108.5,125.0 L105.5,128.0 L105.5,129.0 L103.5,131.0 L103.5,132.0 L101.5,134.0 L101.5,135.0 L100.5,136.0 L100.5,138.0 L99.5,139.0 L99.5,141.0 L100.5,142.0 L100.5,143.0 L102.0,144.5 L103.0,144.5 L104.0,145.5 L107.0,145.5 L110.0,142.5 L110.5,143.0 L110.5,145.0 L109.5,146.0 L109.5,147.0 L107.5,149.0 L107.5,150.0 L108.0,150.5 L115.0,150.5 Z M55.0,143.5 L54.5,143.0 L54.5,142.0 L55.0,141.5 L55.5,142.0 L55.5,143.0 Z M113.0,143.5 L112.5,143.0 L112.5,142.0 L113.0,141.5 L113.5,142.0 L113.5,143.0 Z M60.5,184.0 L59.5,183.0 L59.5,182.0 L58.5,181.0 L58.5,180.0 L57.5,179.0 L57.5,178.0 L58.0,177.5 L60.0,179.5 L61.0,179.5 L62.0,180.5 L63.0,180.5 L64.0,179.5 L65.0,179.5 L67.5,177.0 L67.5,176.0 L68.5,175.0 L68.5,174.0 L67.5,173.0 L67.5,171.0 L66.5,170.0 L66.5,169.0 L65.5,168.0 L65.5,167.0 L63.5,165.0 L63.5,164.0 L60.5,161.0 L60.5,160.0 L56.0,155.5 L52.5,159.0 L52.5,160.0 L49.5,163.0 L49.5,164.0 L47.5,166.0 L47.5,167.0 L46.5,168.0 L46.5,169.0 L45.5,170.0 L45.5,171.0 L44.5,172.0 L44.5,177.0 L47.0,179.5 L48.0,179.5 L49.0,180.5 L50.0,180.5 L51.0,179.5 L52.0,179.5 L54.0,177.5 L54.5,178.0 L54.5,180.0 L53.5,181.0 L53.5,182.0 L52.5,183.0 L52.5,184.0 L53.0,184.5 L60.0,184.5 Z M115.5,184.0 L115.5,183.0 L114.5,182.0 L114.5,181.0 L113.5,180.0 L113.5,178.0 L114.0,177.5 L116.0,179.5 L117.0,179.5 L118.0,180.5 L119.0,180.5 L120.0,179.5 L121.0,179.5 L123.5,177.0 L123.5,172.0 L122.5,171.0 L122.5,170.0 L121.5,169.0 L121.5,168.0 L120.5,167.0 L120.5,166.0 L117.5,163.0 L117.5,162.0 L114.5,159.0 L114.5,158.0 L112.0,155.5 L107.5,160.0 L107.5,161.0 L104.5,164.0 L104.5,165.0 L102.5,167.0 L102.5,168.0 L101.5,169.0 L101.5,170.0 L100.5,171.0 L100.5,173.0 L99.5,174.0 L99.5,175.0 L100.5,176.0 L100.5,177.0 L103.0,179.5 L104.0,179.5 L105.0,180.5 L106.0,180.5 L107.0,179.5 L108.0,179.5 L110.0,177.5 L110.5,178.0 L110.5,179.0 L109.5,180.0 L109.5,181.0 L108.5,182.0 L108.5,183.0 L107.5,184.0 L108.0,184.5 L115.0,184.5 Z M134.5,197.0 L137.5,194.0 L137.5,193.0 L139.5,191.0 L139.5,190.0 L141.5,188.0 L141.5,187.0 L142.5,186.0 L142.5,181.0 L141.0,179.5 L140.0,179.5 L139.0,178.5 L138.0,178.5 L137.0,179.5 L136.0,179.5 L135.5,179.0 L135.5,178.0 L136.5,177.0 L136.5,176.0 L136.0,175.5 L131.0,175.5 L130.5,176.0 L131.5,177.0 L131.5,178.0 L132.5,179.0 L132.5,180.0 L132.0,180.5 L131.0,179.5 L130.0,179.5 L129.0,178.5 L128.0,178.5 L127.0,179.5 L126.0,179.5 L124.5,181.0 L124.5,186.0 L125.5,187.0 L125.5,188.0 L127.5,190.0 L127.5,191.0 L130.5,194.0 L130.5,195.0 L133.0,197.5 L134.0,197.5 Z M135.0,181.5 L134.5,181.0 L134.5,180.0 L135.0,179.5 L135.5,180.0 L135.5,181.0 Z M139.5,233.0 L140.0,232.5 L141.0,232.5 L143.5,230.0 L143.5,229.0 L144.5,228.0 L144.5,223.0 L142.5,221.0 L142.5,220.0 L142.0,219.5 L141.0,219.5 L140.0,218.5 L134.0,218.5 L133.0,219.5 L132.5,219.0 L132.5,216.0 L135.0,213.5 L137.0,213.5 L140.0,216.5 L141.0,215.5 L143.0,215.5 L143.5,215.0 L143.5,213.0 L140.0,209.5 L133.0,209.5 L132.0,210.5 L131.0,210.5 L128.5,213.0 L128.5,214.0 L127.5,215.0 L127.5,217.0 L126.5,218.0 L126.5,226.0 L127.5,227.0 L127.5,229.0 L132.0,233.5 L139.0,233.5 Z M137.0,229.5 L134.0,229.5 L132.5,228.0 L132.5,224.0 L134.0,222.5 L137.0,222.5 L138.5,224.0 L138.5,228.0 Z"/><path fill="#030303" fill-rule="evenodd" d="M34.0,33.5 L30.0,33.5 L29.0,32.5 L28.0,32.5 L27.0,31.5 L26.0,31.5 L25.5,31.0 L25.5,30.0 L24.5,29.0 L24.5,28.0 L25.0,27.5 L28.0,27.5 L30.0,29.5 L34.0,29.5 L35.5,28.0 L35.5,27.0 L36.5,26.0 L36.5,23.0 L36.0,22.5 L35.0,22.5 L34.0,23.5 L33.0,23.5 L32.0,24.5 L29.0,24.5 L28.0,23.5 L27.0,23.5 L24.5,21.0 L24.5,14.0 L25.5,13.0 L25.5,12.0 L26.0,11.5 L27.0,11.5 L28.0,10.5 L29.0,10.5 L30.0,9.5 L34.0,9.5 L35.0,10.5 L37.0,10.5 L39.5,13.0 L39.5,14.0 L40.5,15.0 L40.5,27.0 L39.5,28.0 L39.5,29.0 L36.0,32.5 L35.0,32.5 Z M33.5,21.0 L34.0,20.5 L35.0,20.5 L35.5,20.0 L35.5,19.0 L36.5,18.0 L36.5,17.0 L35.5,16.0 L35.5,15.0 L34.0,13.5 L30.0,13.5 L29.5,14.0 L29.5,15.0 L28.5,16.0 L28.5,19.0 L30.0,20.5 L31.0,20.5 L32.0,21.5 L33.0,21.5 Z M41.0,63.5 L38.0,63.5 L35.0,60.5 L33.0,60.5 L32.5,61.0 L32.5,62.0 L31.0,63.5 L28.0,63.5 L25.5,61.0 L25.5,58.0 L26.5,57.0 L26.5,56.0 L27.5,55.0 L27.5,54.0 L29.5,52.0 L29.5,51.0 L33.5,47.0 L33.5,46.0 L34.0,45.5 L35.0,45.5 L35.5,46.0 L35.5,47.0 L38.5,50.0 L38.5,51.0 L40.5,53.0 L40.5,54.0 L42.5,56.0 L42.5,58.0 L43.5,59.0 L43.5,61.0 Z M59.0,80.5 L53.0,80.5 L52.5,80.0 L53.5,79.0 L53.5,78.0 L54.5,77.0 L54.5,76.0 L55.5,75.0 L55.5,72.0 L55.0,71.5 L53.5,73.0 L53.5,74.0 L53.0,74.5 L52.0,74.5 L51.0,75.5 L48.0,75.5 L47.0,74.5 L46.0,74.5 L45.5,74.0 L45.5,73.0 L44.5,72.0 L44.5,69.0 L45.5,68.0 L45.5,67.0 L46.5,66.0 L46.5,65.0 L47.5,64.0 L47.5,63.0 L49.5,61.0 L49.5,60.0 L51.5,58.0 L51.5,57.0 L56.0,52.5 L57.0,52.5 L57.5,53.0 L57.5,54.0 L61.5,58.0 L61.5,59.0 L63.5,61.0 L63.5,62.0 L65.5,64.0 L65.5,65.0 L66.5,66.0 L66.5,67.0 L67.5,68.0 L67.5,73.0 L65.0,75.5 L61.0,75.5 L57.0,71.5 L56.5,72.0 L56.5,74.0 L57.5,75.0 L57.5,76.0 L58.5,77.0 L58.5,78.0 L59.5,79.0 L59.5,80.0 Z M115.0,80.5 L109.0,80.5 L108.5,80.0 L108.5,79.0 L109.5,78.0 L109.5,77.0 L110.5,76.0 L110.5,75.0 L111.5,74.0 L111.5,72.0 L111.0,71.5 L107.0,75.5 L103.0,75.5 L100.5,73.0 L100.5,68.0 L101.5,67.0 L101.5,66.0 L102.5,65.0 L102.5,64.0 L104.5,62.0 L104.5,61.0 L106.5,59.0 L106.5,58.0 L109.5,55.0 L109.5,54.0 L111.0,52.5 L112.0,52.5 L115.5,56.0 L115.5,57.0 L118.5,60.0 L118.5,61.0 L120.5,63.0 L120.5,64.0 L121.5,65.0 L121.5,66.0 L122.5,67.0 L122.5,68.0 L123.5,69.0 L123.5,72.0 L120.0,75.5 L117.0,75.5 L116.0,74.5 L115.0,74.5 L114.5,74.0 L114.5,73.0 L113.0,71.5 L112.5,72.0 L112.5,75.0 L113.5,76.0 L113.5,77.0 L114.5,78.0 L114.5,79.0 L115.5,80.0 Z M37.0,67.5 L32.0,67.5 L31.5,67.0 L32.5,66.0 L32.5,65.0 L33.5,64.0 L33.5,63.0 L34.0,62.5 L35.0,62.5 L35.5,63.0 L35.5,65.0 L37.5,67.0 Z M59.0,115.5 L53.0,115.5 L52.5,115.0 L53.5,114.0 L53.5,113.0 L54.5,112.0 L54.5,111.0 L55.5,110.0 L55.5,107.0 L55.0,106.5 L51.0,110.5 L49.0,110.5 L48.0,109.5 L47.0,109.5 L44.5,107.0 L44.5,104.0 L45.5,103.0 L45.5,101.0 L47.5,99.0 L47.5,98.0 L48.5,97.0 L48.5,96.0 L50.5,94.0 L50.5,93.0 L54.5,89.0 L54.5,88.0 L56.0,86.5 L59.5,90.0 L59.5,91.0 L62.5,94.0 L62.5,95.0 L64.5,97.0 L64.5,98.0 L65.5,99.0 L65.5,100.0 L66.5,101.0 L66.5,102.0 L67.5,103.0 L67.5,107.0 L64.0,110.5 L62.0,110.5 L61.0,109.5 L60.0,109.5 L58.5,108.0 L58.5,107.0 L58.0,106.5 L57.0,106.5 L56.5,107.0 L56.5,108.0 L57.5,109.0 L57.5,111.0 L58.5,112.0 L58.5,113.0 L59.5,114.0 L59.5,115.0 Z M87.0,115.5 L81.0,115.5 L80.5,115.0 L80.5,114.0 L81.5,113.0 L81.5,112.0 L82.5,111.0 L82.5,110.0 L83.5,109.0 L83.5,107.0 L83.0,106.5 L80.0,109.5 L79.0,109.5 L78.0,110.5 L76.0,110.5 L72.5,107.0 L72.5,103.0 L73.5,102.0 L73.5,101.0 L74.5,100.0 L74.5,99.0 L76.5,97.0 L76.5,96.0 L78.5,94.0 L78.5,93.0 L81.5,90.0 L81.5,89.0 L84.0,86.5 L86.5,89.0 L86.5,90.0 L89.5,93.0 L89.5,94.0 L91.5,96.0 L91.5,97.0 L93.5,99.0 L93.5,100.0 L94.5,101.0 L94.5,102.0 L95.5,103.0 L95.5,107.0 L92.0,110.5 L90.0,110.5 L89.0,109.5 L88.0,109.5 L85.0,106.5 L84.5,107.0 L84.5,109.0 L85.5,110.0 L85.5,111.0 L86.5,112.0 L86.5,113.0 L87.5,114.0 L87.5,115.0 Z M115.0,115.5 L109.0,115.5 L108.5,115.0 L108.5,114.0 L109.5,113.0 L109.5,112.0 L110.5,111.0 L110.5,109.0 L111.5,108.0 L111.5,107.0 L111.0,106.5 L110.0,106.5 L109.5,107.0 L109.5,108.0 L108.0,109.5 L107.0,109.5 L106.0,110.5 L104.0,110.5 L103.0,109.5 L102.0,109.5 L101.5,109.0 L101.5,108.0 L100.5,107.0 L100.5,103.0 L101.5,102.0 L101.5,101.0 L102.5,100.0 L102.5,99.0 L103.5,98.0 L103.5,97.0 L105.5,95.0 L105.5,94.0 L108.5,91.0 L108.5,90.0 L112.0,86.5 L113.5,88.0 L113.5,89.0 L117.5,93.0 L117.5,94.0 L119.5,96.0 L119.5,97.0 L120.5,98.0 L120.5,99.0 L122.5,101.0 L122.5,103.0 L123.5,104.0 L123.5,107.0 L121.0,109.5 L120.0,109.5 L119.0,110.5 L117.0,110.5 L113.0,106.5 L112.5,107.0 L112.5,110.0 L113.5,111.0 L113.5,112.0 L114.5,113.0 L114.5,114.0 L115.5,115.0 Z M59.0,149.5 L53.0,149.5 L52.5,149.0 L54.5,147.0 L54.5,145.0 L55.5,144.0 L55.5,141.0 L55.0,140.5 L54.5,141.0 L54.5,142.0 L52.0,144.5 L47.0,144.5 L45.5,143.0 L45.5,142.0 L44.5,141.0 L44.5,139.0 L45.5,138.0 L45.5,136.0 L46.5,135.0 L46.5,134.0 L48.5,132.0 L48.5,131.0 L50.5,129.0 L50.5,128.0 L53.5,125.0 L53.5,124.0 L56.0,121.5 L60.5,126.0 L60.5,127.0 L63.5,130.0 L63.5,131.0 L64.5,132.0 L64.5,133.0 L66.5,135.0 L66.5,137.0 L67.5,138.0 L67.5,142.0 L65.0,144.5 L60.0,144.5 L58.5,143.0 L58.5,142.0 L57.0,140.5 L56.5,141.0 L56.5,143.0 L57.5,144.0 L57.5,146.0 L58.5,147.0 L58.5,148.0 L59.5,149.0 Z M115.0,149.5 L109.0,149.5 L108.5,149.0 L109.5,148.0 L109.5,147.0 L110.5,146.0 L110.5,144.0 L111.5,143.0 L111.5,141.0 L111.0,140.5 L109.5,142.0 L109.5,143.0 L108.0,144.5 L103.0,144.5 L100.5,142.0 L100.5,138.0 L101.5,137.0 L101.5,135.0 L103.5,133.0 L103.5,132.0 L104.5,131.0 L104.5,130.0 L107.5,127.0 L107.5,126.0 L112.0,121.5 L114.5,124.0 L114.5,125.0 L117.5,128.0 L117.5,129.0 L119.5,131.0 L119.5,132.0 L121.5,134.0 L121.5,135.0 L122.5,136.0 L122.5,138.0 L123.5,139.0 L123.5,141.0 L122.5,142.0 L122.5,143.0 L121.0,144.5 L116.0,144.5 L113.5,142.0 L113.5,141.0 L113.0,140.5 L112.5,141.0 L112.5,144.0 L113.5,145.0 L113.5,147.0 L115.5,149.0 Z M59.0,184.5 L53.0,184.5 L52.5,184.0 L53.5,183.0 L53.5,182.0 L54.5,181.0 L54.5,180.0 L55.5,179.0 L55.5,176.0 L55.0,175.5 L53.5,177.0 L53.5,178.0 L53.0,178.5 L52.0,178.5 L51.0,179.5 L48.0,179.5 L47.0,178.5 L46.0,178.5 L45.5,178.0 L45.5,177.0 L44.5,176.0 L44.5,173.0 L45.5,172.0 L45.5,171.0 L46.5,170.0 L46.5,169.0 L47.5,168.0 L47.5,167.0 L49.5,165.0 L49.5,164.0 L51.5,162.0 L51.5,161.0 L56.0,156.5 L57.0,156.5 L57.5,157.0 L57.5,158.0 L61.5,162.0 L61.5,163.0 L63.5,165.0 L63.5,166.0 L65.5,168.0 L65.5,169.0 L66.5,170.0 L66.5,171.0 L67.5,172.0 L67.5,177.0 L65.0,179.5 L61.0,179.5 L57.0,175.5 L56.5,176.0 L56.5,178.0 L57.5,179.0 L57.5,180.0 L58.5,181.0 L58.5,182.0 L59.5,183.0 L59.5,184.0 Z M115.0,184.5 L109.0,184.5 L108.5,184.0 L108.5,183.0 L109.5,182.0 L109.5,181.0 L110.5,180.0 L110.5,179.0 L111.5,178.0 L111.5,176.0 L111.0,175.5 L107.0,179.5 L103.0,179.5 L100.5,177.0 L100.5,172.0 L101.5,171.0 L101.5,170.0 L102.5,169.0 L102.5,168.0 L104.5,166.0 L104.5,165.0 L106.5,163.0 L106.5,162.0 L109.5,159.0 L109.5,158.0 L111.0,156.5 L112.0,156.5 L115.5,160.0 L115.5,161.0 L118.5,164.0 L118.5,165.0 L120.5,167.0 L120.5,168.0 L121.5,169.0 L121.5,170.0 L122.5,171.0 L122.5,172.0 L123.5,173.0 L123.5,176.0 L120.0,179.5 L117.0,179.5 L116.0,178.5 L115.0,178.5 L114.5,178.0 L114.5,177.0 L113.0,175.5 L112.5,176.0 L112.5,179.0 L113.5,180.0 L113.5,181.0 L114.5,182.0 L114.5,183.0 L115.5,184.0 Z M134.0,180.5 L133.0,180.5 L132.5,180.0 L132.5,178.0 L130.5,176.0 L131.0,175.5 L136.0,175.5 L136.5,176.0 L135.5,177.0 L135.5,178.0 L134.5,179.0 L134.5,180.0 Z M134.0,197.5 L133.0,197.5 L132.5,197.0 L132.5,196.0 L129.5,193.0 L129.5,192.0 L127.5,190.0 L127.5,189.0 L125.5,187.0 L125.5,185.0 L124.5,184.0 L124.5,182.0 L127.0,179.5 L130.0,179.5 L133.0,182.5 L135.0,182.5 L135.5,182.0 L135.5,181.0 L137.0,179.5 L140.0,179.5 L142.5,182.0 L142.5,185.0 L141.5,186.0 L141.5,187.0 L140.5,188.0 L140.5,189.0 L138.5,191.0 L138.5,192.0 L134.5,196.0 L134.5,197.0 Z M138.0,233.5 L134.0,233.5 L133.0,232.5 L131.0,232.5 L128.5,230.0 L128.5,229.0 L127.5,228.0 L127.5,216.0 L128.5,215.0 L128.5,214.0 L132.0,210.5 L133.0,210.5 L134.0,209.5 L138.0,209.5 L139.0,210.5 L140.0,210.5 L141.0,211.5 L142.0,211.5 L142.5,212.0 L142.5,213.0 L143.5,214.0 L143.5,215.0 L143.0,215.5 L140.0,215.5 L138.0,213.5 L134.0,213.5 L132.5,215.0 L132.5,216.0 L131.5,217.0 L131.5,220.0 L132.0,220.5 L133.0,220.5 L134.0,219.5 L135.0,219.5 L136.0,218.5 L139.0,218.5 L140.0,219.5 L141.0,219.5 L143.5,222.0 L143.5,229.0 L142.5,230.0 L142.5,231.0 L142.0,231.5 L141.0,231.5 L140.0,232.5 L139.0,232.5 Z M138.5,229.0 L138.5,228.0 L139.5,227.0 L139.5,224.0 L138.0,222.5 L137.0,222.5 L136.0,221.5 L135.0,221.5 L134.0,222.5 L133.0,222.5 L132.5,223.0 L132.5,224.0 L131.5,225.0 L131.5,226.0 L132.5,227.0 L132.5,228.0 L134.0,229.5 L138.0,229.5 Z"/><path fill="#9f9f9f" fill-rule="evenodd" d="M29.0,18.5 L28.5,18.0 L28.5,16.0 L29.0,15.5 L29.5,16.0 L29.5,18.0 Z M41.0,18.5 L40.5,18.0 L40.5,17.0 L41.0,16.5 L41.5,17.0 L41.5,18.0 Z M36.0,25.5 L35.5,25.0 L35.5,23.0 L36.0,22.5 L36.5,23.0 L36.5,25.0 Z M41.0,25.5 L40.5,25.0 L40.5,24.0 L41.0,23.5 L41.5,24.0 L41.5,25.0 Z M30.0,64.5 L29.0,64.5 L28.5,64.0 L29.0,63.5 L30.0,63.5 L30.5,64.0 Z M40.0,64.5 L39.0,64.5 L38.5,64.0 L39.0,63.5 L40.0,63.5 L40.5,64.0 Z M68.0,71.5 L67.5,71.0 L67.5,70.0 L68.0,69.5 L68.5,70.0 L68.5,71.0 Z M100.0,71.5 L99.5,71.0 L99.5,70.0 L100.0,69.5 L100.5,70.0 L100.5,71.0 Z M58.0,73.5 L57.0,73.5 L56.5,73.0 L57.0,72.5 L58.0,72.5 L58.5,73.0 Z M111.0,73.5 L110.0,73.5 L109.5,73.0 L110.0,72.5 L111.0,72.5 L111.5,73.0 Z M50.0,76.5 L49.0,76.5 L48.5,76.0 L49.0,75.5 L50.0,75.5 L50.5,76.0 Z M63.0,76.5 L62.0,76.5 L61.5,76.0 L62.0,75.5 L63.0,75.5 L63.5,76.0 Z M106.0,76.5 L105.0,76.5 L104.5,76.0 L105.0,75.5 L106.0,75.5 L106.5,76.0 Z M119.0,76.5 L118.0,76.5 L117.5,76.0 L118.0,75.5 L119.0,75.5 L119.5,76.0 Z M68.0,106.5 L67.5,106.0 L67.5,105.0 L68.0,104.5 L68.5,105.0 L68.5,106.0 Z M100.0,106.5 L99.5,106.0 L99.5,105.0 L100.0,104.5 L100.5,105.0 L100.5,106.0 Z M57.0,108.5 L56.5,108.0 L56.5,107.0 L57.0,106.5 L57.5,107.0 L57.5,108.0 Z M83.0,108.5 L82.0,108.5 L81.5,108.0 L83.0,106.5 L83.5,107.0 L83.5,108.0 Z M86.0,108.5 L85.0,108.5 L84.5,108.0 L84.5,107.0 L85.0,106.5 L86.5,108.0 Z M68.0,141.5 L67.5,141.0 L67.5,139.0 L68.0,138.5 L68.5,139.0 L68.5,141.0 Z M100.0,141.5 L99.5,141.0 L99.5,139.0 L100.0,138.5 L100.5,139.0 L100.5,141.0 Z M58.0,142.5 L57.0,142.5 L56.5,142.0 L57.0,141.5 L58.0,141.5 L58.5,142.0 Z M111.0,142.5 L110.0,142.5 L109.5,142.0 L110.0,141.5 L111.0,141.5 L111.5,142.0 Z M60.0,150.5 L53.0,150.5 L52.5,150.0 L53.0,149.5 L59.0,149.5 L60.0,148.5 L60.5,149.0 L60.5,150.0 Z M115.0,150.5 L108.0,150.5 L107.5,150.0 L107.5,149.0 L108.0,148.5 L109.0,149.5 L115.0,149.5 L115.5,150.0 Z M68.0,175.5 L67.5,175.0 L67.5,174.0 L68.0,173.5 L68.5,174.0 L68.5,175.0 Z M100.0,175.5 L99.5,175.0 L99.5,174.0 L100.0,173.5 L100.5,174.0 L100.5,175.0 Z M58.0,177.5 L57.0,177.5 L56.5,177.0 L57.0,176.5 L58.0,176.5 L58.5,177.0 Z M111.0,177.5 L110.0,177.5 L109.5,177.0 L110.0,176.5 L111.0,176.5 L111.5,177.0 Z M129.0,179.5 L128.0,179.5 L127.5,179.0 L128.0,178.5 L129.0,178.5 L129.5,179.0 Z M139.0,179.5 L138.0,179.5 L137.5,179.0 L138.0,178.5 L139.0,178.5 L139.5,179.0 Z M50.0,180.5 L49.0,180.5 L48.5,180.0 L49.0,179.5 L50.0,179.5 L50.5,180.0 Z M63.0,180.5 L62.0,180.5 L61.5,180.0 L62.0,179.5 L63.0,179.5 L63.5,180.0 Z M106.0,180.5 L105.0,180.5 L104.5,180.0 L105.0,179.5 L106.0,179.5 L106.5,180.0 Z M119.0,180.5 L118.0,180.5 L117.5,180.0 L118.0,179.5 L119.0,179.5 L119.5,180.0 Z M127.0,219.5 L126.5,219.0 L126.5,218.0 L127.0,217.5 L127.5,218.0 L127.5,219.0 Z M132.0,220.5 L131.5,220.0 L131.5,218.0 L132.0,217.5 L132.5,218.0 L132.5,220.0 Z M127.0,226.5 L126.5,226.0 L126.5,225.0 L127.0,224.5 L127.5,225.0 L127.5,226.0 Z M139.0,227.5 L138.5,227.0 L138.5,225.0 L139.0,224.5 L139.5,225.0 L139.5,227.0 Z"/><path fill="#5e5e5e" fill-rule="evenodd" d="M24.0,19.5 L23.5,19.0 L23.5,15.0 L24.0,14.5 L24.5,15.0 L24.5,19.0 Z M36.0,18.5 L35.5,18.0 L35.5,17.0 L36.0,16.5 L36.5,17.0 L36.5,18.0 Z M41.0,23.5 L40.5,23.0 L40.5,19.0 L41.0,18.5 L41.5,19.0 L41.5,23.0 Z M33.0,21.5 L32.0,21.5 L31.5,21.0 L32.0,20.5 L33.0,20.5 L33.5,21.0 Z M35.0,62.5 L34.0,62.5 L32.5,61.0 L33.0,60.5 L35.0,60.5 L35.5,61.0 L35.5,62.0 Z M50.0,145.5 L49.0,145.5 L48.5,145.0 L49.0,144.5 L50.0,144.5 L50.5,145.0 Z M63.0,145.5 L62.0,145.5 L61.5,145.0 L62.0,144.5 L63.0,144.5 L63.5,145.0 Z M106.0,145.5 L104.0,145.5 L103.5,145.0 L104.0,144.5 L106.0,144.5 L106.5,145.0 Z M119.0,145.5 L118.0,145.5 L117.5,145.0 L118.0,144.5 L119.0,144.5 L119.5,145.0 Z M135.0,182.5 L133.0,182.5 L132.5,182.0 L132.5,181.0 L133.0,180.5 L134.0,180.5 L135.5,182.0 Z M127.0,224.5 L126.5,224.0 L126.5,220.0 L127.0,219.5 L127.5,220.0 L127.5,224.0 Z M136.0,222.5 L135.0,222.5 L134.5,222.0 L135.0,221.5 L136.0,221.5 L136.5,222.0 Z M144.0,228.5 L143.5,228.0 L143.5,224.0 L144.0,223.5 L144.5,224.0 L144.5,228.0 Z M132.0,226.5 L131.5,226.0 L131.5,225.0 L132.0,224.5 L132.5,225.0 L132.5,226.0 Z"/></svg>