
<svg width="169" height="244" viewBox="0 0 169 244" fill="none" xmlns="http://www.w3.org/2000/svg">
  <!-- 카드 배경 -->
  <rect width="169" height="244" rx="12" fill="white" stroke="#E5E5E5"/>
  
  <!-- 좌상단 숫자와 무늬 -->
  <g transform="translate(20, 30)">
    <text font-family="Arial" font-size="24" font-weight="bold" fill="#000000" >7</text>
    <g transform="translate(8, 14) scale(0.8)">
      <path d="M0,-8
        C-7,-4 -9,0 -9,3
        C-9,7 -5,9 0,5
        C5,9 9,7 9,3
        C9,0 7,-4 0,-8Z
        M0,5
        L-3.5,11
        L3.5,11
        Z" fill="black" />
    </g>
  </g>
  
  <!-- 우하단 숫자와 무늬 (180도 회전) -->
  <g transform="translate(149, 214) rotate(180)">
    <text font-family="Arial" font-size="24" font-weight="bold" fill="#000000" >7</text>
    <g transform="translate(8, 14) scale(0.8)">
      <path d="M0,-8
        C-7,-4 -9,0 -9,3
        C-9,7 -5,9 0,5
        C5,9 9,7 9,3
        C9,0 7,-4 0,-8Z
        M0,5
        L-3.5,11
        L3.5,11
        Z" fill="black" />
    </g>
  </g>
  
  <!-- 중앙 무늬들 -->
  
    <g transform="translate(59.5, 72)">
      <path d="M0,-9.6
        C-8.4,-4.8 -10.799999999999999,0 -10.799999999999999,3.5999999999999996
        C-10.799999999999999,8.4 -6,10.799999999999999 0,6
        C6,10.799999999999999 10.799999999999999,8.4 10.799999999999999,3.5999999999999996
        C10.799999999999999,0 8.4,-4.8 0,-9.6Z
        M0,6
        L-4.2,13.2
        L4.2,13.2
        Z" fill="black" />
    </g>
  
    <g transform="translate(109.5, 72)">
      <path d="M0,-9.6
        C-8.4,-4.8 -10.799999999999999,0 -10.799999999999999,3.5999999999999996
        C-10.799999999999999,8.4 -6,10.799999999999999 0,6
        C6,10.799999999999999 10.799999999999999,8.4 10.799999999999999,3.5999999999999996
        C10.799999999999999,0 8.4,-4.8 0,-9.6Z
        M0,6
        L-4.2,13.2
        L4.2,13.2
        Z" fill="black" />
    </g>
  
    <g transform="translate(59.5, 112)">
      <path d="M0,-9.6
        C-8.4,-4.8 -10.799999999999999,0 -10.799999999999999,3.5999999999999996
        C-10.799999999999999,8.4 -6,10.799999999999999 0,6
        C6,10.799999999999999 10.799999999999999,8.4 10.799999999999999,3.5999999999999996
        C10.799999999999999,0 8.4,-4.8 0,-9.6Z
        M0,6
        L-4.2,13.2
        L4.2,13.2
        Z" fill="black" />
    </g>
  
    <g transform="translate(84.5, 112)">
      <path d="M0,-9.6
        C-8.4,-4.8 -10.799999999999999,0 -10.799999999999999,3.5999999999999996
        C-10.799999999999999,8.4 -6,10.799999999999999 0,6
        C6,10.799999999999999 10.799999999999999,8.4 10.799999999999999,3.5999999999999996
        C10.799999999999999,0 8.4,-4.8 0,-9.6Z
        M0,6
        L-4.2,13.2
        L4.2,13.2
        Z" fill="black" />
    </g>
  
    <g transform="translate(109.5, 112)">
      <path d="M0,-9.6
        C-8.4,-4.8 -10.799999999999999,0 -10.799999999999999,3.5999999999999996
        C-10.799999999999999,8.4 -6,10.799999999999999 0,6
        C6,10.799999999999999 10.799999999999999,8.4 10.799999999999999,3.5999999999999996
        C10.799999999999999,0 8.4,-4.8 0,-9.6Z
        M0,6
        L-4.2,13.2
        L4.2,13.2
        Z" fill="black" />
    </g>
  
    <g transform="translate(59.5, 162)">
      <path d="M0,-9.6
        C-8.4,-4.8 -10.799999999999999,0 -10.799999999999999,3.5999999999999996
        C-10.799999999999999,8.4 -6,10.799999999999999 0,6
        C6,10.799999999999999 10.799999999999999,8.4 10.799999999999999,3.5999999999999996
        C10.799999999999999,0 8.4,-4.8 0,-9.6Z
        M0,6
        L-4.2,13.2
        L4.2,13.2
        Z" fill="black" />
    </g>
  
    <g transform="translate(109.5, 162)">
      <path d="M0,-9.6
        C-8.4,-4.8 -10.799999999999999,0 -10.799999999999999,3.5999999999999996
        C-10.799999999999999,8.4 -6,10.799999999999999 0,6
        C6,10.799999999999999 10.799999999999999,8.4 10.799999999999999,3.5999999999999996
        C10.799999999999999,0 8.4,-4.8 0,-9.6Z
        M0,6
        L-4.2,13.2
        L4.2,13.2
        Z" fill="black" />
    </g>
  
</svg>
