<svg xmlns="http://www.w3.org/2000/svg" width="169" height="244" viewBox="0 0 169 244" fill="none">
  
  <rect width="169" height="244" rx="12" fill="white" stroke="#E5E5E5" />
  
  
  <g transform="translate(20, 30)">
    <text font-family="Arial" font-size="24" font-weight="bold" fill="#000000">K</text>
    <g transform="translate(8, 14) scale(0.8)">
      <path d="M2.521,10.977 L-2.521,10.977 L-2.618,10.838 L-2.424,10.451 L-2.234,10.257 L-2.21,10.063 L-1.882,9.675 L-1.843,9.481 L-1.656,9.287 L-1.648,9.093 L-1.46,8.899 L-1.455,8.705 L-1.272,8.511 L-1.261,8.317 L-1.083,8.123 L-1.048,7.735 L-0.873,7.542 L-0.819,7.154 L-0.679,6.96 L-0.677,6.572 L-0.489,6.184 L-0.489,5.214 L-0.582,5.121 L-0.776,5.117 L-1.01,5.214 L-1.076,5.602 L-1.261,5.796 L-1.261,5.99 L-1.449,6.184 L-1.467,6.378 L-2.327,7.249 L-2.715,7.445 L-2.909,7.617 L-3.297,7.645 L-3.491,7.829 L-5.043,7.832 L-5.237,7.671 L-5.624,7.635 L-5.818,7.445 L-6.012,7.435 L-6.594,6.904 L-7.238,6.184 L-7.273,5.99 L-7.428,5.796 L-7.467,5.408 L-7.65,5.02 L-7.652,4.051 L-7.611,3.857 L-7.469,3.663 L-7.467,3.275 L-7.273,2.887 L-7.273,2.693 L-7.115,2.499 L-7.059,2.111 L-6.885,1.917 L-6.878,1.723 L-6.691,1.529 L-6.678,1.336 L-6.497,1.142 L-6.488,0.948 L-6.303,0.754 L-6.245,0.56 L-5.946,0.172 L-5.915,-0.022 L-5.722,-0.216 L-5.703,-0.41 L-5.372,-0.798 L-5.333,-0.992 L-4.752,-1.767 L-4.558,-2.155 L-4.214,-2.543 L-4.168,-2.737 L-3.786,-3.125 L-3.753,-3.319 L-3.228,-3.901 L-3.197,-4.095 L-2.65,-4.676 L-2.595,-4.87 L-2.041,-5.452 L-1.832,-5.84 L-1.272,-6.422 L-1.058,-6.81 L-0.309,-7.586 L0,-8.008 L0.299,-7.586 L1.048,-6.81 L1.265,-6.422 L1.828,-5.84 L1.873,-5.646 L2.576,-4.87 L2.624,-4.676 L3.169,-4.095 L3.214,-3.901 L3.585,-3.513 L3.785,-3.125 L4.157,-2.737 L4.194,-2.543 L4.555,-2.155 L4.595,-1.961 L4.945,-1.574 L4.983,-1.38 L5.329,-0.992 L5.345,-0.798 L5.692,-0.41 L5.722,-0.216 L5.915,-0.022 L5.935,0.172 L6.472,0.948 L6.497,1.142 L6.673,1.336 L6.691,1.529 L6.861,1.723 L6.885,1.917 L7.078,2.305 L7.095,2.499 L7.272,2.693 L7.317,3.081 L7.464,3.275 L7.466,3.663 L7.652,4.051 L7.651,5.02 L7.504,5.214 L7.402,5.796 L7.078,6.378 L6.012,7.428 L5.818,7.445 L5.624,7.634 L5.236,7.662 L5.042,7.832 L3.491,7.832 L3.297,7.647 L2.909,7.627 L2.715,7.445 L2.327,7.251 L1.457,6.378 L1.43,6.184 L1.26,5.99 L1.255,5.796 L1.073,5.602 L1.066,5.408 L0.937,5.214 L0.776,5.117 L0.582,5.117 L0.485,5.214 L0.514,6.378 L0.66,6.572 L0.679,6.96 L0.871,7.348 L0.872,7.542 L1.066,7.929 L1.079,8.123 L1.26,8.317 L1.262,8.511 L1.453,8.705 L1.454,8.899 L1.64,9.093 L1.648,9.287 L1.842,9.481 L1.851,9.675 L2.036,9.869 L2.23,10.257 L2.424,10.451 L2.618,10.838 Z" fill="black" />
    </g>
  </g>
  
  
  <g transform="translate(149, 214) rotate(180)">
    <text font-family="Arial" font-size="24" font-weight="bold" fill="#000000">K</text>
    <g transform="translate(8, 14) scale(0.8)">
      <path d="M2.521,10.977 L-2.521,10.977 L-2.618,10.838 L-2.424,10.451 L-2.234,10.257 L-2.21,10.063 L-1.882,9.675 L-1.843,9.481 L-1.656,9.287 L-1.648,9.093 L-1.46,8.899 L-1.455,8.705 L-1.272,8.511 L-1.261,8.317 L-1.083,8.123 L-1.048,7.735 L-0.873,7.542 L-0.819,7.154 L-0.679,6.96 L-0.677,6.572 L-0.489,6.184 L-0.489,5.214 L-0.582,5.121 L-0.776,5.117 L-1.01,5.214 L-1.076,5.602 L-1.261,5.796 L-1.261,5.99 L-1.449,6.184 L-1.467,6.378 L-2.327,7.249 L-2.715,7.445 L-2.909,7.617 L-3.297,7.645 L-3.491,7.829 L-5.043,7.832 L-5.237,7.671 L-5.624,7.635 L-5.818,7.445 L-6.012,7.435 L-6.594,6.904 L-7.238,6.184 L-7.273,5.99 L-7.428,5.796 L-7.467,5.408 L-7.65,5.02 L-7.652,4.051 L-7.611,3.857 L-7.469,3.663 L-7.467,3.275 L-7.273,2.887 L-7.273,2.693 L-7.115,2.499 L-7.059,2.111 L-6.885,1.917 L-6.878,1.723 L-6.691,1.529 L-6.678,1.336 L-6.497,1.142 L-6.488,0.948 L-6.303,0.754 L-6.245,0.56 L-5.946,0.172 L-5.915,-0.022 L-5.722,-0.216 L-5.703,-0.41 L-5.372,-0.798 L-5.333,-0.992 L-4.752,-1.767 L-4.558,-2.155 L-4.214,-2.543 L-4.168,-2.737 L-3.786,-3.125 L-3.753,-3.319 L-3.228,-3.901 L-3.197,-4.095 L-2.65,-4.676 L-2.595,-4.87 L-2.041,-5.452 L-1.832,-5.84 L-1.272,-6.422 L-1.058,-6.81 L-0.309,-7.586 L0,-8.008 L0.299,-7.586 L1.048,-6.81 L1.265,-6.422 L1.828,-5.84 L1.873,-5.646 L2.576,-4.87 L2.624,-4.676 L3.169,-4.095 L3.214,-3.901 L3.585,-3.513 L3.785,-3.125 L4.157,-2.737 L4.194,-2.543 L4.555,-2.155 L4.595,-1.961 L4.945,-1.574 L4.983,-1.38 L5.329,-0.992 L5.345,-0.798 L5.692,-0.41 L5.722,-0.216 L5.915,-0.022 L5.935,0.172 L6.472,0.948 L6.497,1.142 L6.673,1.336 L6.691,1.529 L6.861,1.723 L6.885,1.917 L7.078,2.305 L7.095,2.499 L7.272,2.693 L7.317,3.081 L7.464,3.275 L7.466,3.663 L7.652,4.051 L7.651,5.02 L7.504,5.214 L7.402,5.796 L7.078,6.378 L6.012,7.428 L5.818,7.445 L5.624,7.634 L5.236,7.662 L5.042,7.832 L3.491,7.832 L3.297,7.647 L2.909,7.627 L2.715,7.445 L2.327,7.251 L1.457,6.378 L1.43,6.184 L1.26,5.99 L1.255,5.796 L1.073,5.602 L1.066,5.408 L0.937,5.214 L0.776,5.117 L0.582,5.117 L0.485,5.214 L0.514,6.378 L0.66,6.572 L0.679,6.96 L0.871,7.348 L0.872,7.542 L1.066,7.929 L1.079,8.123 L1.26,8.317 L1.262,8.511 L1.453,8.705 L1.454,8.899 L1.64,9.093 L1.648,9.287 L1.842,9.481 L1.851,9.675 L2.036,9.869 L2.23,10.257 L2.424,10.451 L2.618,10.838 Z" fill="black" />
    </g>
  </g>
  
  
  <g transform="translate(84.5, 122)">
    
        
        <path d="M-20 -40 L20 -40 L15 -30 L10 -35 L0 -25 L-10 -35 L-15 -30 Z" fill="#FFD700" />
        
        <circle cx="0" cy="-15" r="20" fill="#FFE4B5" />
        
        <circle cx="-8" cy="-18" r="2" fill="#000000" />
        <circle cx="8" cy="-18" r="2" fill="#000000" />
        
        <path d="M0 -15 Q2 -12 0 -10" stroke="#000000" fill="none" />
        
        <path d="M-5 -5 Q0 -2 5 -5" stroke="#000000" fill="none" />
        
        <path d="M-20 10 Q0 40 20 10" fill="#4169E1" />
      
  </g>
</svg>